ISO-10303-21;
HEADER;
/* Generated by software containing ST-Developer
 * from STEP Tools, Inc. (www.steptools.com) 
 */

FILE_DESCRIPTION(
/* description */ (''),
/* implementation_level */ '2;1');

FILE_NAME(
/* name */ 'Extruder mechanism.step',
/* time_stamp */ '2025-12-30T18:40:45+11:00',
/* author */ (''),
/* organization */ (''),
/* preprocessor_version */ 'ST-DEVELOPER v20.1',
/* originating_system */ 'Autodesk Translation Framework v14.21.0.0',
/* authorisation */ '');

FILE_SCHEMA (('AUTOMOTIVE_DESIGN { 1 0 10303 214 3 1 1 }'));
ENDSEC;

DATA;
#10=MECHANICAL_DESIGN_GEOMETRIC_PRESENTATION_REPRESENTATION('',(#19,#20),
#1084);
#11=ITEM_DEFINED_TRANSFORMATION($,$,#656,#717);
#12=(
REPRESENTATION_RELATIONSHIP($,$,#1095,#1094)
REPRESENTATION_RELATIONSHIP_WITH_TRANSFORMATION(#11)
SHAPE_REPRESENTATION_RELATIONSHIP()
);
#13=CONTEXT_DEPENDENT_SHAPE_REPRESENTATION(#12,#1093);
#14=NEXT_ASSEMBLY_USAGE_OCCURRENCE('Nema 17 face mount:1',
'Nema 17 face mount:1','Nema 17 face mount:1',#1097,#1098,
'Nema 17 face mount:1');
#15=SHAPE_REPRESENTATION_RELATIONSHIP('SRR','None',#1095,#17);
#16=SHAPE_REPRESENTATION_RELATIONSHIP('SRR','None',#1094,#18);
#17=ADVANCED_BREP_SHAPE_REPRESENTATION('',(#21),#1083);
#18=ADVANCED_BREP_SHAPE_REPRESENTATION('',(#22),#1082);
#19=STYLED_ITEM('',(#1108),#21);
#20=STYLED_ITEM('',(#1108),#22);
#21=MANIFOLD_SOLID_BREP('Body2',#641);
#22=MANIFOLD_SOLID_BREP('Body1',#642);
#23=FACE_BOUND('',#104,.T.);
#24=FACE_BOUND('',#105,.T.);
#25=FACE_BOUND('',#106,.T.);
#26=FACE_BOUND('',#107,.T.);
#27=FACE_BOUND('',#108,.T.);
#28=FACE_BOUND('',#110,.T.);
#29=FACE_BOUND('',#111,.T.);
#30=FACE_BOUND('',#112,.T.);
#31=FACE_BOUND('',#113,.T.);
#32=FACE_BOUND('',#114,.T.);
#33=FACE_BOUND('',#118,.T.);
#34=FACE_BOUND('',#121,.T.);
#35=FACE_BOUND('',#122,.T.);
#36=FACE_BOUND('',#128,.T.);
#37=FACE_BOUND('',#139,.T.);
#38=FACE_BOUND('',#143,.T.);
#39=PLANE('',#672);
#40=PLANE('',#673);
#41=PLANE('',#674);
#42=PLANE('',#675);
#43=PLANE('',#676);
#44=PLANE('',#677);
#45=PLANE('',#681);
#46=PLANE('',#682);
#47=PLANE('',#686);
#48=PLANE('',#691);
#49=PLANE('',#694);
#50=PLANE('',#695);
#51=PLANE('',#696);
#52=PLANE('',#700);
#53=PLANE('',#701);
#54=PLANE('',#702);
#55=PLANE('',#703);
#56=PLANE('',#713);
#57=PLANE('',#714);
#58=PLANE('',#715);
#59=PLANE('',#716);
#60=FACE_OUTER_BOUND('',#94,.T.);
#61=FACE_OUTER_BOUND('',#95,.T.);
#62=FACE_OUTER_BOUND('',#96,.T.);
#63=FACE_OUTER_BOUND('',#97,.T.);
#64=FACE_OUTER_BOUND('',#98,.T.);
#65=FACE_OUTER_BOUND('',#99,.T.);
#66=FACE_OUTER_BOUND('',#100,.T.);
#67=FACE_OUTER_BOUND('',#101,.T.);
#68=FACE_OUTER_BOUND('',#102,.T.);
#69=FACE_OUTER_BOUND('',#103,.T.);
#70=FACE_OUTER_BOUND('',#109,.T.);
#71=FACE_OUTER_BOUND('',#115,.T.);
#72=FACE_OUTER_BOUND('',#116,.T.);
#73=FACE_OUTER_BOUND('',#117,.T.);
#74=FACE_OUTER_BOUND('',#119,.T.);
#75=FACE_OUTER_BOUND('',#120,.T.);
#76=FACE_OUTER_BOUND('',#123,.T.);
#77=FACE_OUTER_BOUND('',#124,.T.);
#78=FACE_OUTER_BOUND('',#125,.T.);
#79=FACE_OUTER_BOUND('',#126,.T.);
#80=FACE_OUTER_BOUND('',#127,.T.);
#81=FACE_OUTER_BOUND('',#129,.T.);
#82=FACE_OUTER_BOUND('',#130,.T.);
#83=FACE_OUTER_BOUND('',#131,.T.);
#84=FACE_OUTER_BOUND('',#132,.T.);
#85=FACE_OUTER_BOUND('',#133,.T.);
#86=FACE_OUTER_BOUND('',#134,.T.);
#87=FACE_OUTER_BOUND('',#135,.T.);
#88=FACE_OUTER_BOUND('',#136,.T.);
#89=FACE_OUTER_BOUND('',#137,.T.);
#90=FACE_OUTER_BOUND('',#138,.T.);
#91=FACE_OUTER_BOUND('',#140,.T.);
#92=FACE_OUTER_BOUND('',#141,.T.);
#93=FACE_OUTER_BOUND('',#142,.T.);
#94=EDGE_LOOP('',(#426,#427,#428,#429));
#95=EDGE_LOOP('',(#430,#431,#432,#433));
#96=EDGE_LOOP('',(#434,#435,#436,#437));
#97=EDGE_LOOP('',(#438,#439,#440,#441));
#98=EDGE_LOOP('',(#442,#443,#444,#445));
#99=EDGE_LOOP('',(#446,#447,#448,#449));
#100=EDGE_LOOP('',(#450,#451,#452,#453));
#101=EDGE_LOOP('',(#454,#455,#456,#457));
#102=EDGE_LOOP('',(#458,#459,#460,#461));
#103=EDGE_LOOP('',(#462,#463,#464,#465));
#104=EDGE_LOOP('',(#466));
#105=EDGE_LOOP('',(#467));
#106=EDGE_LOOP('',(#468));
#107=EDGE_LOOP('',(#469));
#108=EDGE_LOOP('',(#470));
#109=EDGE_LOOP('',(#471,#472,#473,#474));
#110=EDGE_LOOP('',(#475));
#111=EDGE_LOOP('',(#476));
#112=EDGE_LOOP('',(#477));
#113=EDGE_LOOP('',(#478));
#114=EDGE_LOOP('',(#479));
#115=EDGE_LOOP('',(#480,#481,#482,#483));
#116=EDGE_LOOP('',(#484,#485,#486,#487));
#117=EDGE_LOOP('',(#488,#489,#490,#491));
#118=EDGE_LOOP('',(#492));
#119=EDGE_LOOP('',(#493,#494,#495,#496));
#120=EDGE_LOOP('',(#497,#498,#499,#500,#501,#502,#503,#504,#505,#506,#507,
#508,#509));
#121=EDGE_LOOP('',(#510));
#122=EDGE_LOOP('',(#511));
#123=EDGE_LOOP('',(#512,#513,#514,#515));
#124=EDGE_LOOP('',(#516,#517,#518,#519));
#125=EDGE_LOOP('',(#520,#521,#522,#523));
#126=EDGE_LOOP('',(#524));
#127=EDGE_LOOP('',(#525,#526,#527,#528,#529,#530,#531,#532,#533,#534,#535,
#536,#537,#538,#539));
#128=EDGE_LOOP('',(#540));
#129=EDGE_LOOP('',(#541,#542,#543,#544));
#130=EDGE_LOOP('',(#545,#546,#547,#548));
#131=EDGE_LOOP('',(#549,#550,#551,#552));
#132=EDGE_LOOP('',(#553,#554,#555,#556,#557,#558,#559,#560));
#133=EDGE_LOOP('',(#561,#562,#563,#564));
#134=EDGE_LOOP('',(#565,#566,#567,#568));
#135=EDGE_LOOP('',(#569,#570,#571,#572));
#136=EDGE_LOOP('',(#573,#574,#575,#576));
#137=EDGE_LOOP('',(#577,#578,#579,#580));
#138=EDGE_LOOP('',(#581,#582));
#139=EDGE_LOOP('',(#583));
#140=EDGE_LOOP('',(#584,#585,#586,#587));
#141=EDGE_LOOP('',(#588,#589,#590,#591));
#142=EDGE_LOOP('',(#592));
#143=EDGE_LOOP('',(#593));
#144=LINE('',#908,#202);
#145=LINE('',#914,#203);
#146=LINE('',#920,#204);
#147=LINE('',#926,#205);
#148=LINE('',#932,#206);
#149=LINE('',#937,#207);
#150=LINE('',#939,#208);
#151=LINE('',#941,#209);
#152=LINE('',#942,#210);
#153=LINE('',#945,#211);
#154=LINE('',#947,#212);
#155=LINE('',#948,#213);
#156=LINE('',#951,#214);
#157=LINE('',#953,#215);
#158=LINE('',#954,#216);
#159=LINE('',#956,#217);
#160=LINE('',#957,#218);
#161=LINE('',#964,#219);
#162=LINE('',#969,#220);
#163=LINE('',#971,#221);
#164=LINE('',#973,#222);
#165=LINE('',#974,#223);
#166=LINE('',#978,#224);
#167=LINE('',#979,#225);
#168=LINE('',#980,#226);
#169=LINE('',#986,#227);
#170=LINE('',#989,#228);
#171=LINE('',#992,#229);
#172=LINE('',#994,#230);
#173=LINE('',#996,#231);
#174=LINE('',#998,#232);
#175=LINE('',#1002,#233);
#176=LINE('',#1004,#234);
#177=LINE('',#1005,#235);
#178=LINE('',#1008,#236);
#179=LINE('',#1015,#237);
#180=LINE('',#1016,#238);
#181=LINE('',#1020,#239);
#182=LINE('',#1022,#240);
#183=LINE('',#1026,#241);
#184=LINE('',#1028,#242);
#185=LINE('',#1032,#243);
#186=LINE('',#1034,#244);
#187=LINE('',#1038,#245);
#188=LINE('',#1040,#246);
#189=LINE('',#1041,#247);
#190=LINE('',#1045,#248);
#191=LINE('',#1046,#249);
#192=LINE('',#1048,#250);
#193=LINE('',#1049,#251);
#194=LINE('',#1051,#252);
#195=LINE('',#1054,#253);
#196=LINE('',#1056,#254);
#197=LINE('',#1057,#255);
#198=LINE('',#1058,#256);
#199=LINE('',#1063,#257);
#200=LINE('',#1067,#258);
#201=LINE('',#1070,#259);
#202=VECTOR('',#726,1.75);
#203=VECTOR('',#733,1.75);
#204=VECTOR('',#740,11.);
#205=VECTOR('',#747,1.75);
#206=VECTOR('',#754,1.75);
#207=VECTOR('',#759,10.);
#208=VECTOR('',#760,10.);
#209=VECTOR('',#761,10.);
#210=VECTOR('',#762,10.);
#211=VECTOR('',#765,10.);
#212=VECTOR('',#766,10.);
#213=VECTOR('',#767,10.);
#214=VECTOR('',#770,10.);
#215=VECTOR('',#771,10.);
#216=VECTOR('',#772,10.);
#217=VECTOR('',#775,10.);
#218=VECTOR('',#776,10.);
#219=VECTOR('',#785,4.5);
#220=VECTOR('',#790,10.);
#221=VECTOR('',#791,10.);
#222=VECTOR('',#792,10.);
#223=VECTOR('',#793,10.);
#224=VECTOR('',#796,10.);
#225=VECTOR('',#797,10.);
#226=VECTOR('',#798,10.);
#227=VECTOR('',#803,10.);
#228=VECTOR('',#806,10.);
#229=VECTOR('',#809,10.);
#230=VECTOR('',#810,10.);
#231=VECTOR('',#811,10.);
#232=VECTOR('',#812,10.);
#233=VECTOR('',#815,10.);
#234=VECTOR('',#816,10.);
#235=VECTOR('',#817,10.);
#236=VECTOR('',#820,10.);
#237=VECTOR('',#827,10.);
#238=VECTOR('',#828,10.);
#239=VECTOR('',#833,10.);
#240=VECTOR('',#836,10.);
#241=VECTOR('',#841,10.);
#242=VECTOR('',#842,10.);
#243=VECTOR('',#845,10.);
#244=VECTOR('',#846,10.);
#245=VECTOR('',#849,10.);
#246=VECTOR('',#850,10.);
#247=VECTOR('',#851,10.);
#248=VECTOR('',#856,10.);
#249=VECTOR('',#857,10.);
#250=VECTOR('',#860,10.);
#251=VECTOR('',#861,10.);
#252=VECTOR('',#864,10.);
#253=VECTOR('',#867,10.);
#254=VECTOR('',#868,10.);
#255=VECTOR('',#869,10.);
#256=VECTOR('',#870,10.);
#257=VECTOR('',#877,2.65);
#258=VECTOR('',#882,2.65);
#259=VECTOR('',#885,8.);
#260=CIRCLE('',#658,1.75);
#261=CIRCLE('',#659,1.75);
#262=CIRCLE('',#661,1.75);
#263=CIRCLE('',#662,1.75);
#264=CIRCLE('',#664,11.);
#265=CIRCLE('',#665,11.);
#266=CIRCLE('',#667,1.75);
#267=CIRCLE('',#668,1.75);
#268=CIRCLE('',#670,1.75);
#269=CIRCLE('',#671,1.75);
#270=CIRCLE('',#679,4.5);
#271=CIRCLE('',#680,4.5);
#272=CIRCLE('',#684,4.);
#273=CIRCLE('',#685,4.);
#274=CIRCLE('',#687,4.5);
#275=CIRCLE('',#688,6.);
#276=CIRCLE('',#689,2.65);
#277=CIRCLE('',#690,2.65);
#278=CIRCLE('',#693,6.);
#279=CIRCLE('',#697,8.5);
#280=CIRCLE('',#698,4.5);
#281=CIRCLE('',#699,8.);
#282=CIRCLE('',#706,2.65);
#283=CIRCLE('',#708,2.65);
#284=CIRCLE('',#710,8.);
#285=CIRCLE('',#712,8.5);
#286=VERTEX_POINT('',#905);
#287=VERTEX_POINT('',#907);
#288=VERTEX_POINT('',#911);
#289=VERTEX_POINT('',#913);
#290=VERTEX_POINT('',#917);
#291=VERTEX_POINT('',#919);
#292=VERTEX_POINT('',#923);
#293=VERTEX_POINT('',#925);
#294=VERTEX_POINT('',#929);
#295=VERTEX_POINT('',#931);
#296=VERTEX_POINT('',#935);
#297=VERTEX_POINT('',#936);
#298=VERTEX_POINT('',#938);
#299=VERTEX_POINT('',#940);
#300=VERTEX_POINT('',#944);
#301=VERTEX_POINT('',#946);
#302=VERTEX_POINT('',#950);
#303=VERTEX_POINT('',#952);
#304=VERTEX_POINT('',#961);
#305=VERTEX_POINT('',#963);
#306=VERTEX_POINT('',#967);
#307=VERTEX_POINT('',#968);
#308=VERTEX_POINT('',#970);
#309=VERTEX_POINT('',#972);
#310=VERTEX_POINT('',#976);
#311=VERTEX_POINT('',#977);
#312=VERTEX_POINT('',#982);
#313=VERTEX_POINT('',#983);
#314=VERTEX_POINT('',#985);
#315=VERTEX_POINT('',#987);
#316=VERTEX_POINT('',#991);
#317=VERTEX_POINT('',#993);
#318=VERTEX_POINT('',#995);
#319=VERTEX_POINT('',#997);
#320=VERTEX_POINT('',#999);
#321=VERTEX_POINT('',#1001);
#322=VERTEX_POINT('',#1003);
#323=VERTEX_POINT('',#1006);
#324=VERTEX_POINT('',#1009);
#325=VERTEX_POINT('',#1011);
#326=VERTEX_POINT('',#1014);
#327=VERTEX_POINT('',#1018);
#328=VERTEX_POINT('',#1025);
#329=VERTEX_POINT('',#1027);
#330=VERTEX_POINT('',#1029);
#331=VERTEX_POINT('',#1031);
#332=VERTEX_POINT('',#1033);
#333=VERTEX_POINT('',#1035);
#334=VERTEX_POINT('',#1037);
#335=VERTEX_POINT('',#1039);
#336=VERTEX_POINT('',#1042);
#337=VERTEX_POINT('',#1053);
#338=VERTEX_POINT('',#1055);
#339=VERTEX_POINT('',#1061);
#340=VERTEX_POINT('',#1065);
#341=VERTEX_POINT('',#1069);
#342=EDGE_CURVE('',#286,#286,#260,.T.);
#343=EDGE_CURVE('',#286,#287,#144,.T.);
#344=EDGE_CURVE('',#287,#287,#261,.T.);
#345=EDGE_CURVE('',#288,#288,#262,.T.);
#346=EDGE_CURVE('',#288,#289,#145,.T.);
#347=EDGE_CURVE('',#289,#289,#263,.T.);
#348=EDGE_CURVE('',#290,#290,#264,.T.);
#349=EDGE_CURVE('',#290,#291,#146,.T.);
#350=EDGE_CURVE('',#291,#291,#265,.T.);
#351=EDGE_CURVE('',#292,#292,#266,.T.);
#352=EDGE_CURVE('',#292,#293,#147,.T.);
#353=EDGE_CURVE('',#293,#293,#267,.T.);
#354=EDGE_CURVE('',#294,#294,#268,.T.);
#355=EDGE_CURVE('',#294,#295,#148,.T.);
#356=EDGE_CURVE('',#295,#295,#269,.T.);
#357=EDGE_CURVE('',#296,#297,#149,.T.);
#358=EDGE_CURVE('',#297,#298,#150,.T.);
#359=EDGE_CURVE('',#299,#298,#151,.T.);
#360=EDGE_CURVE('',#296,#299,#152,.T.);
#361=EDGE_CURVE('',#300,#296,#153,.T.);
#362=EDGE_CURVE('',#301,#299,#154,.T.);
#363=EDGE_CURVE('',#300,#301,#155,.T.);
#364=EDGE_CURVE('',#302,#300,#156,.T.);
#365=EDGE_CURVE('',#303,#301,#157,.T.);
#366=EDGE_CURVE('',#302,#303,#158,.T.);
#367=EDGE_CURVE('',#297,#302,#159,.T.);
#368=EDGE_CURVE('',#298,#303,#160,.T.);
#369=EDGE_CURVE('',#304,#304,#270,.T.);
#370=EDGE_CURVE('',#304,#305,#161,.T.);
#371=EDGE_CURVE('',#305,#305,#271,.T.);
#372=EDGE_CURVE('',#306,#307,#162,.T.);
#373=EDGE_CURVE('',#306,#308,#163,.T.);
#374=EDGE_CURVE('',#309,#308,#164,.T.);
#375=EDGE_CURVE('',#307,#309,#165,.T.);
#376=EDGE_CURVE('',#310,#311,#166,.T.);
#377=EDGE_CURVE('',#311,#309,#167,.T.);
#378=EDGE_CURVE('',#308,#310,#168,.T.);
#379=EDGE_CURVE('',#312,#313,#272,.T.);
#380=EDGE_CURVE('',#313,#314,#169,.T.);
#381=EDGE_CURVE('',#314,#315,#273,.T.);
#382=EDGE_CURVE('',#315,#312,#170,.T.);
#383=EDGE_CURVE('',#314,#316,#171,.T.);
#384=EDGE_CURVE('',#316,#317,#172,.T.);
#385=EDGE_CURVE('',#317,#318,#173,.T.);
#386=EDGE_CURVE('',#318,#319,#174,.T.);
#387=EDGE_CURVE('',#319,#320,#274,.T.);
#388=EDGE_CURVE('',#320,#321,#175,.T.);
#389=EDGE_CURVE('',#321,#322,#176,.T.);
#390=EDGE_CURVE('',#322,#310,#177,.T.);
#391=EDGE_CURVE('',#323,#306,#275,.T.);
#392=EDGE_CURVE('',#323,#315,#178,.T.);
#393=EDGE_CURVE('',#324,#324,#276,.T.);
#394=EDGE_CURVE('',#325,#325,#277,.T.);
#395=EDGE_CURVE('',#326,#313,#179,.T.);
#396=EDGE_CURVE('',#316,#326,#180,.T.);
#397=EDGE_CURVE('',#307,#327,#278,.T.);
#398=EDGE_CURVE('',#327,#323,#181,.T.);
#399=EDGE_CURVE('',#312,#327,#182,.T.);
#400=EDGE_CURVE('',#311,#328,#183,.T.);
#401=EDGE_CURVE('',#328,#329,#184,.T.);
#402=EDGE_CURVE('',#329,#330,#279,.T.);
#403=EDGE_CURVE('',#330,#331,#185,.T.);
#404=EDGE_CURVE('',#331,#332,#186,.T.);
#405=EDGE_CURVE('',#332,#333,#280,.T.);
#406=EDGE_CURVE('',#333,#334,#187,.T.);
#407=EDGE_CURVE('',#334,#335,#188,.T.);
#408=EDGE_CURVE('',#335,#326,#189,.T.);
#409=EDGE_CURVE('',#336,#336,#281,.T.);
#410=EDGE_CURVE('',#319,#333,#190,.T.);
#411=EDGE_CURVE('',#334,#318,#191,.T.);
#412=EDGE_CURVE('',#321,#331,#192,.T.);
#413=EDGE_CURVE('',#332,#320,#193,.T.);
#414=EDGE_CURVE('',#335,#317,#194,.T.);
#415=EDGE_CURVE('',#337,#330,#195,.T.);
#416=EDGE_CURVE('',#338,#337,#196,.T.);
#417=EDGE_CURVE('',#338,#329,#197,.T.);
#418=EDGE_CURVE('',#328,#322,#198,.T.);
#419=EDGE_CURVE('',#339,#339,#282,.T.);
#420=EDGE_CURVE('',#339,#324,#199,.T.);
#421=EDGE_CURVE('',#340,#340,#283,.T.);
#422=EDGE_CURVE('',#340,#325,#200,.T.);
#423=EDGE_CURVE('',#336,#341,#201,.T.);
#424=EDGE_CURVE('',#341,#341,#284,.T.);
#425=EDGE_CURVE('',#337,#338,#285,.T.);
#426=ORIENTED_EDGE('',*,*,#342,.F.);
#427=ORIENTED_EDGE('',*,*,#343,.T.);
#428=ORIENTED_EDGE('',*,*,#344,.T.);
#429=ORIENTED_EDGE('',*,*,#343,.F.);
#430=ORIENTED_EDGE('',*,*,#345,.F.);
#431=ORIENTED_EDGE('',*,*,#346,.T.);
#432=ORIENTED_EDGE('',*,*,#347,.T.);
#433=ORIENTED_EDGE('',*,*,#346,.F.);
#434=ORIENTED_EDGE('',*,*,#348,.F.);
#435=ORIENTED_EDGE('',*,*,#349,.T.);
#436=ORIENTED_EDGE('',*,*,#350,.T.);
#437=ORIENTED_EDGE('',*,*,#349,.F.);
#438=ORIENTED_EDGE('',*,*,#351,.F.);
#439=ORIENTED_EDGE('',*,*,#352,.T.);
#440=ORIENTED_EDGE('',*,*,#353,.T.);
#441=ORIENTED_EDGE('',*,*,#352,.F.);
#442=ORIENTED_EDGE('',*,*,#354,.F.);
#443=ORIENTED_EDGE('',*,*,#355,.T.);
#444=ORIENTED_EDGE('',*,*,#356,.T.);
#445=ORIENTED_EDGE('',*,*,#355,.F.);
#446=ORIENTED_EDGE('',*,*,#357,.T.);
#447=ORIENTED_EDGE('',*,*,#358,.T.);
#448=ORIENTED_EDGE('',*,*,#359,.F.);
#449=ORIENTED_EDGE('',*,*,#360,.F.);
#450=ORIENTED_EDGE('',*,*,#361,.T.);
#451=ORIENTED_EDGE('',*,*,#360,.T.);
#452=ORIENTED_EDGE('',*,*,#362,.F.);
#453=ORIENTED_EDGE('',*,*,#363,.F.);
#454=ORIENTED_EDGE('',*,*,#364,.T.);
#455=ORIENTED_EDGE('',*,*,#363,.T.);
#456=ORIENTED_EDGE('',*,*,#365,.F.);
#457=ORIENTED_EDGE('',*,*,#366,.F.);
#458=ORIENTED_EDGE('',*,*,#367,.T.);
#459=ORIENTED_EDGE('',*,*,#366,.T.);
#460=ORIENTED_EDGE('',*,*,#368,.F.);
#461=ORIENTED_EDGE('',*,*,#358,.F.);
#462=ORIENTED_EDGE('',*,*,#368,.T.);
#463=ORIENTED_EDGE('',*,*,#365,.T.);
#464=ORIENTED_EDGE('',*,*,#362,.T.);
#465=ORIENTED_EDGE('',*,*,#359,.T.);
#466=ORIENTED_EDGE('',*,*,#354,.T.);
#467=ORIENTED_EDGE('',*,*,#351,.T.);
#468=ORIENTED_EDGE('',*,*,#348,.T.);
#469=ORIENTED_EDGE('',*,*,#345,.T.);
#470=ORIENTED_EDGE('',*,*,#342,.T.);
#471=ORIENTED_EDGE('',*,*,#367,.F.);
#472=ORIENTED_EDGE('',*,*,#357,.F.);
#473=ORIENTED_EDGE('',*,*,#361,.F.);
#474=ORIENTED_EDGE('',*,*,#364,.F.);
#475=ORIENTED_EDGE('',*,*,#356,.F.);
#476=ORIENTED_EDGE('',*,*,#353,.F.);
#477=ORIENTED_EDGE('',*,*,#350,.F.);
#478=ORIENTED_EDGE('',*,*,#347,.F.);
#479=ORIENTED_EDGE('',*,*,#344,.F.);
#480=ORIENTED_EDGE('',*,*,#369,.F.);
#481=ORIENTED_EDGE('',*,*,#370,.T.);
#482=ORIENTED_EDGE('',*,*,#371,.F.);
#483=ORIENTED_EDGE('',*,*,#370,.F.);
#484=ORIENTED_EDGE('',*,*,#372,.F.);
#485=ORIENTED_EDGE('',*,*,#373,.T.);
#486=ORIENTED_EDGE('',*,*,#374,.F.);
#487=ORIENTED_EDGE('',*,*,#375,.F.);
#488=ORIENTED_EDGE('',*,*,#376,.T.);
#489=ORIENTED_EDGE('',*,*,#377,.T.);
#490=ORIENTED_EDGE('',*,*,#374,.T.);
#491=ORIENTED_EDGE('',*,*,#378,.T.);
#492=ORIENTED_EDGE('',*,*,#369,.T.);
#493=ORIENTED_EDGE('',*,*,#379,.T.);
#494=ORIENTED_EDGE('',*,*,#380,.T.);
#495=ORIENTED_EDGE('',*,*,#381,.T.);
#496=ORIENTED_EDGE('',*,*,#382,.T.);
#497=ORIENTED_EDGE('',*,*,#381,.F.);
#498=ORIENTED_EDGE('',*,*,#383,.T.);
#499=ORIENTED_EDGE('',*,*,#384,.T.);
#500=ORIENTED_EDGE('',*,*,#385,.T.);
#501=ORIENTED_EDGE('',*,*,#386,.T.);
#502=ORIENTED_EDGE('',*,*,#387,.T.);
#503=ORIENTED_EDGE('',*,*,#388,.T.);
#504=ORIENTED_EDGE('',*,*,#389,.T.);
#505=ORIENTED_EDGE('',*,*,#390,.T.);
#506=ORIENTED_EDGE('',*,*,#378,.F.);
#507=ORIENTED_EDGE('',*,*,#373,.F.);
#508=ORIENTED_EDGE('',*,*,#391,.F.);
#509=ORIENTED_EDGE('',*,*,#392,.T.);
#510=ORIENTED_EDGE('',*,*,#393,.T.);
#511=ORIENTED_EDGE('',*,*,#394,.T.);
#512=ORIENTED_EDGE('',*,*,#380,.F.);
#513=ORIENTED_EDGE('',*,*,#395,.F.);
#514=ORIENTED_EDGE('',*,*,#396,.F.);
#515=ORIENTED_EDGE('',*,*,#383,.F.);
#516=ORIENTED_EDGE('',*,*,#397,.T.);
#517=ORIENTED_EDGE('',*,*,#398,.T.);
#518=ORIENTED_EDGE('',*,*,#391,.T.);
#519=ORIENTED_EDGE('',*,*,#372,.T.);
#520=ORIENTED_EDGE('',*,*,#382,.F.);
#521=ORIENTED_EDGE('',*,*,#392,.F.);
#522=ORIENTED_EDGE('',*,*,#398,.F.);
#523=ORIENTED_EDGE('',*,*,#399,.F.);
#524=ORIENTED_EDGE('',*,*,#371,.T.);
#525=ORIENTED_EDGE('',*,*,#379,.F.);
#526=ORIENTED_EDGE('',*,*,#399,.T.);
#527=ORIENTED_EDGE('',*,*,#397,.F.);
#528=ORIENTED_EDGE('',*,*,#375,.T.);
#529=ORIENTED_EDGE('',*,*,#377,.F.);
#530=ORIENTED_EDGE('',*,*,#400,.T.);
#531=ORIENTED_EDGE('',*,*,#401,.T.);
#532=ORIENTED_EDGE('',*,*,#402,.T.);
#533=ORIENTED_EDGE('',*,*,#403,.T.);
#534=ORIENTED_EDGE('',*,*,#404,.T.);
#535=ORIENTED_EDGE('',*,*,#405,.T.);
#536=ORIENTED_EDGE('',*,*,#406,.T.);
#537=ORIENTED_EDGE('',*,*,#407,.T.);
#538=ORIENTED_EDGE('',*,*,#408,.T.);
#539=ORIENTED_EDGE('',*,*,#395,.T.);
#540=ORIENTED_EDGE('',*,*,#409,.T.);
#541=ORIENTED_EDGE('',*,*,#406,.F.);
#542=ORIENTED_EDGE('',*,*,#410,.F.);
#543=ORIENTED_EDGE('',*,*,#386,.F.);
#544=ORIENTED_EDGE('',*,*,#411,.F.);
#545=ORIENTED_EDGE('',*,*,#404,.F.);
#546=ORIENTED_EDGE('',*,*,#412,.F.);
#547=ORIENTED_EDGE('',*,*,#388,.F.);
#548=ORIENTED_EDGE('',*,*,#413,.F.);
#549=ORIENTED_EDGE('',*,*,#411,.T.);
#550=ORIENTED_EDGE('',*,*,#385,.F.);
#551=ORIENTED_EDGE('',*,*,#414,.F.);
#552=ORIENTED_EDGE('',*,*,#407,.F.);
#553=ORIENTED_EDGE('',*,*,#412,.T.);
#554=ORIENTED_EDGE('',*,*,#403,.F.);
#555=ORIENTED_EDGE('',*,*,#415,.F.);
#556=ORIENTED_EDGE('',*,*,#416,.F.);
#557=ORIENTED_EDGE('',*,*,#417,.T.);
#558=ORIENTED_EDGE('',*,*,#401,.F.);
#559=ORIENTED_EDGE('',*,*,#418,.T.);
#560=ORIENTED_EDGE('',*,*,#389,.F.);
#561=ORIENTED_EDGE('',*,*,#410,.T.);
#562=ORIENTED_EDGE('',*,*,#405,.F.);
#563=ORIENTED_EDGE('',*,*,#413,.T.);
#564=ORIENTED_EDGE('',*,*,#387,.F.);
#565=ORIENTED_EDGE('',*,*,#419,.F.);
#566=ORIENTED_EDGE('',*,*,#420,.T.);
#567=ORIENTED_EDGE('',*,*,#393,.F.);
#568=ORIENTED_EDGE('',*,*,#420,.F.);
#569=ORIENTED_EDGE('',*,*,#421,.F.);
#570=ORIENTED_EDGE('',*,*,#422,.T.);
#571=ORIENTED_EDGE('',*,*,#394,.F.);
#572=ORIENTED_EDGE('',*,*,#422,.F.);
#573=ORIENTED_EDGE('',*,*,#409,.F.);
#574=ORIENTED_EDGE('',*,*,#423,.T.);
#575=ORIENTED_EDGE('',*,*,#424,.F.);
#576=ORIENTED_EDGE('',*,*,#423,.F.);
#577=ORIENTED_EDGE('',*,*,#425,.F.);
#578=ORIENTED_EDGE('',*,*,#415,.T.);
#579=ORIENTED_EDGE('',*,*,#402,.F.);
#580=ORIENTED_EDGE('',*,*,#417,.F.);
#581=ORIENTED_EDGE('',*,*,#425,.T.);
#582=ORIENTED_EDGE('',*,*,#416,.T.);
#583=ORIENTED_EDGE('',*,*,#419,.T.);
#584=ORIENTED_EDGE('',*,*,#390,.F.);
#585=ORIENTED_EDGE('',*,*,#418,.F.);
#586=ORIENTED_EDGE('',*,*,#400,.F.);
#587=ORIENTED_EDGE('',*,*,#376,.F.);
#588=ORIENTED_EDGE('',*,*,#414,.T.);
#589=ORIENTED_EDGE('',*,*,#384,.F.);
#590=ORIENTED_EDGE('',*,*,#396,.T.);
#591=ORIENTED_EDGE('',*,*,#408,.F.);
#592=ORIENTED_EDGE('',*,*,#424,.T.);
#593=ORIENTED_EDGE('',*,*,#421,.T.);
#594=CYLINDRICAL_SURFACE('',#657,1.75);
#595=CYLINDRICAL_SURFACE('',#660,1.75);
#596=CYLINDRICAL_SURFACE('',#663,11.);
#597=CYLINDRICAL_SURFACE('',#666,1.75);
#598=CYLINDRICAL_SURFACE('',#669,1.75);
#599=CYLINDRICAL_SURFACE('',#678,4.5);
#600=CYLINDRICAL_SURFACE('',#683,4.);
#601=CYLINDRICAL_SURFACE('',#692,6.);
#602=CYLINDRICAL_SURFACE('',#704,4.5);
#603=CYLINDRICAL_SURFACE('',#705,2.65);
#604=CYLINDRICAL_SURFACE('',#707,2.65);
#605=CYLINDRICAL_SURFACE('',#709,8.);
#606=CYLINDRICAL_SURFACE('',#711,8.5);
#607=ADVANCED_FACE('',(#60),#594,.F.);
#608=ADVANCED_FACE('',(#61),#595,.F.);
#609=ADVANCED_FACE('',(#62),#596,.F.);
#610=ADVANCED_FACE('',(#63),#597,.F.);
#611=ADVANCED_FACE('',(#64),#598,.F.);
#612=ADVANCED_FACE('',(#65),#39,.T.);
#613=ADVANCED_FACE('',(#66),#40,.T.);
#614=ADVANCED_FACE('',(#67),#41,.T.);
#615=ADVANCED_FACE('',(#68),#42,.T.);
#616=ADVANCED_FACE('',(#69,#23,#24,#25,#26,#27),#43,.T.);
#617=ADVANCED_FACE('',(#70,#28,#29,#30,#31,#32),#44,.F.);
#618=ADVANCED_FACE('',(#71),#599,.F.);
#619=ADVANCED_FACE('',(#72),#45,.T.);
#620=ADVANCED_FACE('',(#73,#33),#46,.T.);
#621=ADVANCED_FACE('',(#74),#600,.T.);
#622=ADVANCED_FACE('',(#75,#34,#35),#47,.T.);
#623=ADVANCED_FACE('',(#76),#48,.T.);
#624=ADVANCED_FACE('',(#77),#601,.F.);
#625=ADVANCED_FACE('',(#78),#49,.F.);
#626=ADVANCED_FACE('',(#79),#50,.F.);
#627=ADVANCED_FACE('',(#80,#36),#51,.F.);
#628=ADVANCED_FACE('',(#81),#52,.F.);
#629=ADVANCED_FACE('',(#82),#53,.F.);
#630=ADVANCED_FACE('',(#83),#54,.T.);
#631=ADVANCED_FACE('',(#84),#55,.T.);
#632=ADVANCED_FACE('',(#85),#602,.F.);
#633=ADVANCED_FACE('',(#86),#603,.F.);
#634=ADVANCED_FACE('',(#87),#604,.F.);
#635=ADVANCED_FACE('',(#88),#605,.F.);
#636=ADVANCED_FACE('',(#89),#606,.F.);
#637=ADVANCED_FACE('',(#90,#37),#56,.F.);
#638=ADVANCED_FACE('',(#91),#57,.T.);
#639=ADVANCED_FACE('',(#92),#58,.T.);
#640=ADVANCED_FACE('',(#93,#38),#59,.F.);
#641=CLOSED_SHELL('',(#607,#608,#609,#610,#611,#612,#613,#614,#615,#616,
#617));
#642=CLOSED_SHELL('',(#618,#619,#620,#621,#622,#623,#624,#625,#626,#627,
#628,#629,#630,#631,#632,#633,#634,#635,#636,#637,#638,#639,#640));
#643=DERIVED_UNIT_ELEMENT(#645,1.);
#644=DERIVED_UNIT_ELEMENT(#1086,-3.);
#645=(
MASS_UNIT()
NAMED_UNIT(*)
SI_UNIT(.KILO.,.GRAM.)
);
#646=DERIVED_UNIT((#643,#644));
#647=MEASURE_REPRESENTATION_ITEM('density measure',
POSITIVE_RATIO_MEASURE(7850.),#646);
#648=PROPERTY_DEFINITION_REPRESENTATION(#653,#650);
#649=PROPERTY_DEFINITION_REPRESENTATION(#654,#651);
#650=REPRESENTATION('material name',(#652),#1083);
#651=REPRESENTATION('density',(#647),#1083);
#652=DESCRIPTIVE_REPRESENTATION_ITEM('Steel','Steel');
#653=PROPERTY_DEFINITION('material property','material name',#1098);
#654=PROPERTY_DEFINITION('material property','density of part',#1098);
#655=AXIS2_PLACEMENT_3D('',#902,#718,#719);
#656=AXIS2_PLACEMENT_3D('',#903,#720,#721);
#657=AXIS2_PLACEMENT_3D('',#904,#722,#723);
#658=AXIS2_PLACEMENT_3D('',#906,#724,#725);
#659=AXIS2_PLACEMENT_3D('',#909,#727,#728);
#660=AXIS2_PLACEMENT_3D('',#910,#729,#730);
#661=AXIS2_PLACEMENT_3D('',#912,#731,#732);
#662=AXIS2_PLACEMENT_3D('',#915,#734,#735);
#663=AXIS2_PLACEMENT_3D('',#916,#736,#737);
#664=AXIS2_PLACEMENT_3D('',#918,#738,#739);
#665=AXIS2_PLACEMENT_3D('',#921,#741,#742);
#666=AXIS2_PLACEMENT_3D('',#922,#743,#744);
#667=AXIS2_PLACEMENT_3D('',#924,#745,#746);
#668=AXIS2_PLACEMENT_3D('',#927,#748,#749);
#669=AXIS2_PLACEMENT_3D('',#928,#750,#751);
#670=AXIS2_PLACEMENT_3D('',#930,#752,#753);
#671=AXIS2_PLACEMENT_3D('',#933,#755,#756);
#672=AXIS2_PLACEMENT_3D('',#934,#757,#758);
#673=AXIS2_PLACEMENT_3D('',#943,#763,#764);
#674=AXIS2_PLACEMENT_3D('',#949,#768,#769);
#675=AXIS2_PLACEMENT_3D('',#955,#773,#774);
#676=AXIS2_PLACEMENT_3D('',#958,#777,#778);
#677=AXIS2_PLACEMENT_3D('',#959,#779,#780);
#678=AXIS2_PLACEMENT_3D('',#960,#781,#782);
#679=AXIS2_PLACEMENT_3D('',#962,#783,#784);
#680=AXIS2_PLACEMENT_3D('',#965,#786,#787);
#681=AXIS2_PLACEMENT_3D('',#966,#788,#789);
#682=AXIS2_PLACEMENT_3D('',#975,#794,#795);
#683=AXIS2_PLACEMENT_3D('',#981,#799,#800);
#684=AXIS2_PLACEMENT_3D('',#984,#801,#802);
#685=AXIS2_PLACEMENT_3D('',#988,#804,#805);
#686=AXIS2_PLACEMENT_3D('',#990,#807,#808);
#687=AXIS2_PLACEMENT_3D('',#1000,#813,#814);
#688=AXIS2_PLACEMENT_3D('',#1007,#818,#819);
#689=AXIS2_PLACEMENT_3D('',#1010,#821,#822);
#690=AXIS2_PLACEMENT_3D('',#1012,#823,#824);
#691=AXIS2_PLACEMENT_3D('',#1013,#825,#826);
#692=AXIS2_PLACEMENT_3D('',#1017,#829,#830);
#693=AXIS2_PLACEMENT_3D('',#1019,#831,#832);
#694=AXIS2_PLACEMENT_3D('',#1021,#834,#835);
#695=AXIS2_PLACEMENT_3D('',#1023,#837,#838);
#696=AXIS2_PLACEMENT_3D('',#1024,#839,#840);
#697=AXIS2_PLACEMENT_3D('',#1030,#843,#844);
#698=AXIS2_PLACEMENT_3D('',#1036,#847,#848);
#699=AXIS2_PLACEMENT_3D('',#1043,#852,#853);
#700=AXIS2_PLACEMENT_3D('',#1044,#854,#855);
#701=AXIS2_PLACEMENT_3D('',#1047,#858,#859);
#702=AXIS2_PLACEMENT_3D('',#1050,#862,#863);
#703=AXIS2_PLACEMENT_3D('',#1052,#865,#866);
#704=AXIS2_PLACEMENT_3D('',#1059,#871,#872);
#705=AXIS2_PLACEMENT_3D('',#1060,#873,#874);
#706=AXIS2_PLACEMENT_3D('',#1062,#875,#876);
#707=AXIS2_PLACEMENT_3D('',#1064,#878,#879);
#708=AXIS2_PLACEMENT_3D('',#1066,#880,#881);
#709=AXIS2_PLACEMENT_3D('',#1068,#883,#884);
#710=AXIS2_PLACEMENT_3D('',#1071,#886,#887);
#711=AXIS2_PLACEMENT_3D('',#1072,#888,#889);
#712=AXIS2_PLACEMENT_3D('',#1073,#890,#891);
#713=AXIS2_PLACEMENT_3D('',#1074,#892,#893);
#714=AXIS2_PLACEMENT_3D('',#1075,#894,#895);
#715=AXIS2_PLACEMENT_3D('',#1076,#896,#897);
#716=AXIS2_PLACEMENT_3D('',#1077,#898,#899);
#717=AXIS2_PLACEMENT_3D('',#1078,#900,#901);
#718=DIRECTION('axis',(0.,0.,1.));
#719=DIRECTION('refdir',(1.,0.,0.));
#720=DIRECTION('axis',(0.,0.,1.));
#721=DIRECTION('refdir',(1.,0.,0.));
#722=DIRECTION('center_axis',(1.,0.,0.));
#723=DIRECTION('ref_axis',(0.,1.,0.));
#724=DIRECTION('center_axis',(-1.,0.,0.));
#725=DIRECTION('ref_axis',(0.,1.,0.));
#726=DIRECTION('',(-1.,0.,0.));
#727=DIRECTION('center_axis',(-1.,0.,0.));
#728=DIRECTION('ref_axis',(0.,1.,0.));
#729=DIRECTION('center_axis',(1.,0.,0.));
#730=DIRECTION('ref_axis',(0.,1.,0.));
#731=DIRECTION('center_axis',(-1.,0.,0.));
#732=DIRECTION('ref_axis',(0.,1.,0.));
#733=DIRECTION('',(-1.,0.,0.));
#734=DIRECTION('center_axis',(-1.,0.,0.));
#735=DIRECTION('ref_axis',(0.,1.,0.));
#736=DIRECTION('center_axis',(1.,0.,0.));
#737=DIRECTION('ref_axis',(0.,1.,0.));
#738=DIRECTION('center_axis',(-1.,0.,0.));
#739=DIRECTION('ref_axis',(0.,1.,0.));
#740=DIRECTION('',(-1.,0.,0.));
#741=DIRECTION('center_axis',(-1.,0.,0.));
#742=DIRECTION('ref_axis',(0.,1.,0.));
#743=DIRECTION('center_axis',(1.,0.,0.));
#744=DIRECTION('ref_axis',(0.,1.,0.));
#745=DIRECTION('center_axis',(-1.,0.,0.));
#746=DIRECTION('ref_axis',(0.,1.,0.));
#747=DIRECTION('',(-1.,0.,0.));
#748=DIRECTION('center_axis',(-1.,0.,0.));
#749=DIRECTION('ref_axis',(0.,1.,0.));
#750=DIRECTION('center_axis',(1.,0.,0.));
#751=DIRECTION('ref_axis',(0.,1.,0.));
#752=DIRECTION('center_axis',(-1.,0.,0.));
#753=DIRECTION('ref_axis',(0.,1.,0.));
#754=DIRECTION('',(-1.,0.,0.));
#755=DIRECTION('center_axis',(-1.,0.,0.));
#756=DIRECTION('ref_axis',(0.,1.,0.));
#757=DIRECTION('center_axis',(0.,0.,1.));
#758=DIRECTION('ref_axis',(0.,-1.,0.));
#759=DIRECTION('',(0.,-1.,0.));
#760=DIRECTION('',(1.,0.,0.));
#761=DIRECTION('',(0.,-1.,0.));
#762=DIRECTION('',(1.,0.,0.));
#763=DIRECTION('center_axis',(0.,1.,0.));
#764=DIRECTION('ref_axis',(0.,0.,1.));
#765=DIRECTION('',(0.,0.,1.));
#766=DIRECTION('',(0.,0.,1.));
#767=DIRECTION('',(1.,0.,0.));
#768=DIRECTION('center_axis',(0.,0.,-1.));
#769=DIRECTION('ref_axis',(0.,1.,0.));
#770=DIRECTION('',(0.,1.,0.));
#771=DIRECTION('',(0.,1.,0.));
#772=DIRECTION('',(1.,0.,0.));
#773=DIRECTION('center_axis',(0.,-1.,0.));
#774=DIRECTION('ref_axis',(0.,0.,-1.));
#775=DIRECTION('',(0.,0.,-1.));
#776=DIRECTION('',(0.,0.,-1.));
#777=DIRECTION('center_axis',(1.,0.,0.));
#778=DIRECTION('ref_axis',(0.,1.,0.));
#779=DIRECTION('center_axis',(1.,0.,0.));
#780=DIRECTION('ref_axis',(0.,1.,0.));
#781=DIRECTION('center_axis',(-1.,0.,0.));
#782=DIRECTION('ref_axis',(0.,2.22044604925031E-16,-1.));
#783=DIRECTION('center_axis',(1.,0.,0.));
#784=DIRECTION('ref_axis',(0.,2.22044604925031E-16,-1.));
#785=DIRECTION('',(1.,0.,0.));
#786=DIRECTION('center_axis',(-1.,0.,0.));
#787=DIRECTION('ref_axis',(0.,2.22044604925031E-16,-1.));
#788=DIRECTION('center_axis',(0.,-1.,-2.22044604925031E-16));
#789=DIRECTION('ref_axis',(0.,-2.22044604925031E-16,1.));
#790=DIRECTION('',(0.,2.22044604925031E-16,-1.));
#791=DIRECTION('',(-1.,0.,0.));
#792=DIRECTION('',(0.,-2.22044604925031E-16,1.));
#793=DIRECTION('',(-1.,0.,0.));
#794=DIRECTION('center_axis',(-1.,0.,0.));
#795=DIRECTION('ref_axis',(0.,2.22044604925031E-16,-1.));
#796=DIRECTION('',(0.,2.22044604925031E-16,-1.));
#797=DIRECTION('',(0.,-1.,-2.22044604925031E-16));
#798=DIRECTION('',(0.,1.,2.22044604925031E-16));
#799=DIRECTION('center_axis',(0.,2.22044604925031E-16,-1.));
#800=DIRECTION('ref_axis',(-0.707106781186548,0.707106781186547,1.57009245868377E-16));
#801=DIRECTION('center_axis',(0.,-2.22044604925031E-16,1.));
#802=DIRECTION('ref_axis',(-0.707106781186548,0.707106781186547,1.57009245868377E-16));
#803=DIRECTION('',(0.,-2.22044604925031E-16,1.));
#804=DIRECTION('center_axis',(0.,2.22044604925031E-16,-1.));
#805=DIRECTION('ref_axis',(-0.707106781186548,0.707106781186547,1.57009245868377E-16));
#806=DIRECTION('',(0.,2.22044604925031E-16,-1.));
#807=DIRECTION('center_axis',(0.,-2.22044604925031E-16,1.));
#808=DIRECTION('ref_axis',(0.,-1.,-2.22044604925031E-16));
#809=DIRECTION('',(0.,-1.,-2.22044604925031E-16));
#810=DIRECTION('',(1.,0.,0.));
#811=DIRECTION('',(0.,1.,2.22044604925031E-16));
#812=DIRECTION('',(-1.,0.,0.));
#813=DIRECTION('center_axis',(0.,2.22044604925031E-16,-1.));
#814=DIRECTION('ref_axis',(1.,0.,0.));
#815=DIRECTION('',(1.,0.,0.));
#816=DIRECTION('',(0.,1.,2.22044604925031E-16));
#817=DIRECTION('',(-1.,0.,0.));
#818=DIRECTION('center_axis',(0.,-2.22044604925031E-16,1.));
#819=DIRECTION('ref_axis',(0.707106781186547,-0.707106781186548,-1.57009245868378E-16));
#820=DIRECTION('',(-1.,0.,0.));
#821=DIRECTION('center_axis',(0.,2.22044604925031E-16,-1.));
#822=DIRECTION('ref_axis',(1.,0.,0.));
#823=DIRECTION('center_axis',(0.,2.22044604925031E-16,-1.));
#824=DIRECTION('ref_axis',(1.,0.,0.));
#825=DIRECTION('center_axis',(-1.,0.,0.));
#826=DIRECTION('ref_axis',(0.,-1.,-2.22044604925031E-16));
#827=DIRECTION('',(0.,1.,2.22044604925031E-16));
#828=DIRECTION('',(0.,2.22044604925031E-16,-1.));
#829=DIRECTION('center_axis',(0.,-2.22044604925031E-16,1.));
#830=DIRECTION('ref_axis',(0.707106781186547,-0.707106781186548,-1.57009245868378E-16));
#831=DIRECTION('center_axis',(0.,2.22044604925031E-16,-1.));
#832=DIRECTION('ref_axis',(0.707106781186547,-0.707106781186548,-1.57009245868378E-16));
#833=DIRECTION('',(0.,-2.22044604925031E-16,1.));
#834=DIRECTION('center_axis',(0.,-1.,-2.22044604925031E-16));
#835=DIRECTION('ref_axis',(1.,0.,0.));
#836=DIRECTION('',(1.,0.,0.));
#837=DIRECTION('center_axis',(1.,0.,0.));
#838=DIRECTION('ref_axis',(0.,1.,2.22044604925031E-16));
#839=DIRECTION('center_axis',(0.,-2.22044604925031E-16,1.));
#840=DIRECTION('ref_axis',(1.,0.,0.));
#841=DIRECTION('',(1.,0.,0.));
#842=DIRECTION('',(0.,-1.,-2.22044604925031E-16));
#843=DIRECTION('center_axis',(0.,-2.22044604925031E-16,1.));
#844=DIRECTION('ref_axis',(1.,0.,0.));
#845=DIRECTION('',(0.,-1.,-2.22044604925031E-16));
#846=DIRECTION('',(-1.,0.,0.));
#847=DIRECTION('center_axis',(0.,-2.22044604925031E-16,1.));
#848=DIRECTION('ref_axis',(1.,0.,0.));
#849=DIRECTION('',(1.,0.,0.));
#850=DIRECTION('',(0.,-1.,-2.22044604925031E-16));
#851=DIRECTION('',(-1.,0.,0.));
#852=DIRECTION('center_axis',(0.,-2.22044604925031E-16,1.));
#853=DIRECTION('ref_axis',(1.,0.,0.));
#854=DIRECTION('center_axis',(0.,-1.,-2.22044604925031E-16));
#855=DIRECTION('ref_axis',(1.,0.,0.));
#856=DIRECTION('',(0.,2.22044604925031E-16,-1.));
#857=DIRECTION('',(0.,-2.22044604925031E-16,1.));
#858=DIRECTION('center_axis',(0.,1.,2.22044604925031E-16));
#859=DIRECTION('ref_axis',(-1.,0.,0.));
#860=DIRECTION('',(0.,2.22044604925031E-16,-1.));
#861=DIRECTION('',(0.,-2.22044604925031E-16,1.));
#862=DIRECTION('center_axis',(1.,0.,0.));
#863=DIRECTION('ref_axis',(0.,1.,2.22044604925031E-16));
#864=DIRECTION('',(0.,-2.22044604925031E-16,1.));
#865=DIRECTION('center_axis',(1.,0.,0.));
#866=DIRECTION('ref_axis',(0.,1.,2.22044604925031E-16));
#867=DIRECTION('',(0.,2.22044604925031E-16,-1.));
#868=DIRECTION('',(0.,-1.,-2.22044604925031E-16));
#869=DIRECTION('',(0.,2.22044604925031E-16,-1.));
#870=DIRECTION('',(0.,-2.22044604925031E-16,1.));
#871=DIRECTION('center_axis',(0.,-2.22044604925031E-16,1.));
#872=DIRECTION('ref_axis',(-1.,-2.56631108700516E-8,-5.69835531428787E-24));
#873=DIRECTION('center_axis',(0.,-2.22044604925031E-16,1.));
#874=DIRECTION('ref_axis',(1.,0.,0.));
#875=DIRECTION('center_axis',(0.,-2.22044604925031E-16,1.));
#876=DIRECTION('ref_axis',(1.,0.,0.));
#877=DIRECTION('',(0.,-2.22044604925031E-16,1.));
#878=DIRECTION('center_axis',(0.,-2.22044604925031E-16,1.));
#879=DIRECTION('ref_axis',(1.,0.,0.));
#880=DIRECTION('center_axis',(0.,-2.22044604925031E-16,1.));
#881=DIRECTION('ref_axis',(1.,0.,0.));
#882=DIRECTION('',(0.,-2.22044604925031E-16,1.));
#883=DIRECTION('center_axis',(0.,2.22044604925031E-16,-1.));
#884=DIRECTION('ref_axis',(1.,0.,0.));
#885=DIRECTION('',(0.,-2.22044604925031E-16,1.));
#886=DIRECTION('center_axis',(0.,2.22044604925031E-16,-1.));
#887=DIRECTION('ref_axis',(1.,0.,0.));
#888=DIRECTION('center_axis',(0.,2.22044604925031E-16,-1.));
#889=DIRECTION('ref_axis',(-1.,-1.22464679914735E-16,-2.71926214689378E-32));
#890=DIRECTION('center_axis',(0.,2.22044604925031E-16,-1.));
#891=DIRECTION('ref_axis',(1.,0.,0.));
#892=DIRECTION('center_axis',(0.,-2.22044604925031E-16,1.));
#893=DIRECTION('ref_axis',(1.,0.,0.));
#894=DIRECTION('center_axis',(0.,1.,2.22044604925031E-16));
#895=DIRECTION('ref_axis',(-1.,0.,0.));
#896=DIRECTION('center_axis',(0.,-1.,-2.22044604925031E-16));
#897=DIRECTION('ref_axis',(1.,0.,0.));
#898=DIRECTION('center_axis',(0.,-2.22044604925031E-16,1.));
#899=DIRECTION('ref_axis',(1.,0.,0.));
#900=DIRECTION('',(-1.20736753927986E-15,1.,-5.80091530366644E-15));
#901=DIRECTION('',(-9.71284989553371E-30,5.82867087928207E-15,1.));
#902=CARTESIAN_POINT('',(0.,0.,0.));
#903=CARTESIAN_POINT('',(0.,0.,0.));
#904=CARTESIAN_POINT('Origin',(0.,5.5,36.5));
#905=CARTESIAN_POINT('',(10.,3.75,36.5));
#906=CARTESIAN_POINT('Origin',(10.,5.5,36.5));
#907=CARTESIAN_POINT('',(0.,3.75,36.5));
#908=CARTESIAN_POINT('',(0.,3.75,36.5));
#909=CARTESIAN_POINT('Origin',(0.,5.5,36.5));
#910=CARTESIAN_POINT('Origin',(0.,5.5,5.5));
#911=CARTESIAN_POINT('',(10.,3.75,5.5));
#912=CARTESIAN_POINT('Origin',(10.,5.5,5.5));
#913=CARTESIAN_POINT('',(0.,3.75,5.5));
#914=CARTESIAN_POINT('',(0.,3.75,5.5));
#915=CARTESIAN_POINT('Origin',(0.,5.5,5.5));
#916=CARTESIAN_POINT('Origin',(0.,21.,21.0000003129244));
#917=CARTESIAN_POINT('',(10.,10.,21.0000003129244));
#918=CARTESIAN_POINT('Origin',(10.,21.,21.0000003129244));
#919=CARTESIAN_POINT('',(0.,10.,21.0000003129244));
#920=CARTESIAN_POINT('',(0.,10.,21.0000003129244));
#921=CARTESIAN_POINT('Origin',(0.,21.,21.0000003129244));
#922=CARTESIAN_POINT('Origin',(0.,36.5,36.5));
#923=CARTESIAN_POINT('',(10.,34.75,36.5));
#924=CARTESIAN_POINT('Origin',(10.,36.5,36.5));
#925=CARTESIAN_POINT('',(0.,34.75,36.5));
#926=CARTESIAN_POINT('',(0.,34.75,36.5));
#927=CARTESIAN_POINT('Origin',(0.,36.5,36.5));
#928=CARTESIAN_POINT('Origin',(0.,36.5,5.5));
#929=CARTESIAN_POINT('',(10.,34.75,5.5));
#930=CARTESIAN_POINT('Origin',(10.,36.5,5.5));
#931=CARTESIAN_POINT('',(0.,34.75,5.5));
#932=CARTESIAN_POINT('',(0.,34.75,5.5));
#933=CARTESIAN_POINT('Origin',(0.,36.5,5.5));
#934=CARTESIAN_POINT('Origin',(0.,42.,42.));
#935=CARTESIAN_POINT('',(0.,42.,42.));
#936=CARTESIAN_POINT('',(0.,0.,42.));
#937=CARTESIAN_POINT('',(0.,42.,42.));
#938=CARTESIAN_POINT('',(10.,0.,42.));
#939=CARTESIAN_POINT('',(0.,0.,42.));
#940=CARTESIAN_POINT('',(10.,42.,42.));
#941=CARTESIAN_POINT('',(10.,42.,42.));
#942=CARTESIAN_POINT('',(0.,42.,42.));
#943=CARTESIAN_POINT('Origin',(0.,42.,0.));
#944=CARTESIAN_POINT('',(0.,42.,0.));
#945=CARTESIAN_POINT('',(0.,42.,0.));
#946=CARTESIAN_POINT('',(10.,42.,0.));
#947=CARTESIAN_POINT('',(10.,42.,0.));
#948=CARTESIAN_POINT('',(0.,42.,0.));
#949=CARTESIAN_POINT('Origin',(0.,0.,0.));
#950=CARTESIAN_POINT('',(0.,0.,0.));
#951=CARTESIAN_POINT('',(0.,0.,0.));
#952=CARTESIAN_POINT('',(10.,0.,0.));
#953=CARTESIAN_POINT('',(10.,0.,0.));
#954=CARTESIAN_POINT('',(0.,0.,0.));
#955=CARTESIAN_POINT('Origin',(0.,0.,42.));
#956=CARTESIAN_POINT('',(0.,0.,42.));
#957=CARTESIAN_POINT('',(10.,0.,42.));
#958=CARTESIAN_POINT('Origin',(10.,21.,21.));
#959=CARTESIAN_POINT('Origin',(0.,21.,21.));
#960=CARTESIAN_POINT('Origin',(-28.000000461936,-61.000000089407,-4.0000008791685));
#961=CARTESIAN_POINT('',(-34.000000461936,-61.000000089407,0.4999991208315));
#962=CARTESIAN_POINT('Origin',(-34.000000461936,-61.000000089407,-4.0000008791685));
#963=CARTESIAN_POINT('',(-28.000000461936,-61.000000089407,0.4999991208315));
#964=CARTESIAN_POINT('',(-28.000000461936,-61.000000089407,0.4999991208315));
#965=CARTESIAN_POINT('Origin',(-28.000000461936,-61.000000089407,-4.0000008791685));
#966=CARTESIAN_POINT('Origin',(-28.000000461936,-67.0000002682209,-11.0000001639128));
#967=CARTESIAN_POINT('',(-28.000000461936,-67.0000002682209,2.99999983608723));
#968=CARTESIAN_POINT('',(-28.000000461936,-67.0000002682209,-11.0000001639128));
#969=CARTESIAN_POINT('',(-28.000000461936,-67.0000002682209,-11.0000001639128));
#970=CARTESIAN_POINT('',(-34.000000461936,-67.0000002682209,2.99999983608723));
#971=CARTESIAN_POINT('',(-28.000000461936,-67.0000002682209,2.99999983608723));
#972=CARTESIAN_POINT('',(-34.000000461936,-67.0000002682209,-11.0000001639128));
#973=CARTESIAN_POINT('',(-34.000000461936,-67.0000002682209,2.99999983608723));
#974=CARTESIAN_POINT('',(-28.000000461936,-67.0000002682209,-11.0000001639128));
#975=CARTESIAN_POINT('Origin',(-34.000000461936,-61.0000001341105,-4.00000016391277));
#976=CARTESIAN_POINT('',(-34.000000461936,-55.,2.99999983608723));
#977=CARTESIAN_POINT('',(-34.000000461936,-55.,-11.0000001639128));
#978=CARTESIAN_POINT('',(-34.000000461936,-55.,-11.0000001639128));
#979=CARTESIAN_POINT('',(-34.000000461936,-67.0000002682209,-11.0000001639128));
#980=CARTESIAN_POINT('',(-34.000000461936,-55.,2.99999983608723));
#981=CARTESIAN_POINT('Origin',(-36.0000005662441,-77.0000002682209,-8.00000016391277));
#982=CARTESIAN_POINT('',(-36.0000005662441,-73.0000002682209,-11.0000001639128));
#983=CARTESIAN_POINT('',(-40.0000005662441,-77.0000002682209,-11.0000001639128));
#984=CARTESIAN_POINT('Origin',(-36.0000005662441,-77.0000002682209,-11.0000001639128));
#985=CARTESIAN_POINT('',(-40.0000005662441,-77.0000002682209,2.99999983608723));
#986=CARTESIAN_POINT('',(-40.0000005662441,-77.0000002682209,-8.00000016391277));
#987=CARTESIAN_POINT('',(-36.0000005662441,-73.0000002682209,2.99999983608723));
#988=CARTESIAN_POINT('Origin',(-36.0000005662441,-77.0000002682209,2.99999983608723));
#989=CARTESIAN_POINT('',(-36.0000005662441,-73.0000002682209,-8.00000016391277));
#990=CARTESIAN_POINT('Origin',(-24.0000005662441,-80.0000004321337,2.99999983608723));
#991=CARTESIAN_POINT('',(-40.0000005662441,-105.000000432134,2.99999983608722));
#992=CARTESIAN_POINT('',(-40.0000005662441,-105.000000432134,2.99999983608722));
#993=CARTESIAN_POINT('',(-8.00000056624413,-105.000000432134,2.99999983608722));
#994=CARTESIAN_POINT('',(-8.00000056624413,-105.000000432134,2.99999983608722));
#995=CARTESIAN_POINT('',(-8.00000016391277,-86.000000461936,2.99999983608723));
#996=CARTESIAN_POINT('',(-8.00000056624413,-55.0000004321337,2.99999983608723));
#997=CARTESIAN_POINT('',(-12.500000230968,-86.000000461936,2.99999983608723));
#998=CARTESIAN_POINT('',(-18.2500003986061,-86.000000461936,2.99999983608722));
#999=CARTESIAN_POINT('',(-12.500000230968,-77.0000003278256,2.99999983608724));
#1000=CARTESIAN_POINT('Origin',(-12.5,-81.5000001639128,2.99999983608723));
#1001=CARTESIAN_POINT('',(-8.00000016391277,-77.0000003278256,2.99999983608724));
#1002=CARTESIAN_POINT('',(-16.0000003650785,-77.0000003278256,2.99999983608723));
#1003=CARTESIAN_POINT('',(-8.00000056624413,-55.0000004321337,2.99999983608723));
#1004=CARTESIAN_POINT('',(-8.00000056624413,-55.0000004321337,2.99999983608723));
#1005=CARTESIAN_POINT('',(-40.0000005662441,-55.0000004321337,2.99999983608723));
#1006=CARTESIAN_POINT('',(-34.000000461936,-73.0000002682209,2.99999983608723));
#1007=CARTESIAN_POINT('Origin',(-34.000000461936,-67.0000002682209,2.99999983608723));
#1008=CARTESIAN_POINT('',(-32.000000603497,-73.0000002682209,2.99999983608723));
#1009=CARTESIAN_POINT('',(-15.6500006258488,-67.0000001043081,2.99999983608723));
#1010=CARTESIAN_POINT('Origin',(-13.0000006258488,-67.0000001043081,2.99999983608723));
#1011=CARTESIAN_POINT('',(-26.6500007897615,-89.0000004321337,2.99999983608722));
#1012=CARTESIAN_POINT('Origin',(-24.0000007897616,-89.0000004321337,2.99999983608722));
#1013=CARTESIAN_POINT('Origin',(-40.0000005662441,-55.0000004321337,-5.00000016391277));
#1014=CARTESIAN_POINT('',(-40.0000005662441,-105.000000432134,-11.0000001639128));
#1015=CARTESIAN_POINT('',(-40.0000005662441,-105.000000432134,-11.0000001639128));
#1016=CARTESIAN_POINT('',(-40.0000005662441,-105.000000432134,-5.00000016391278));
#1017=CARTESIAN_POINT('Origin',(-34.000000461936,-67.0000002682209,-11.0000001639128));
#1018=CARTESIAN_POINT('',(-34.000000461936,-73.0000002682209,-11.0000001639128));
#1019=CARTESIAN_POINT('Origin',(-34.000000461936,-67.0000002682209,-11.0000001639128));
#1020=CARTESIAN_POINT('',(-34.000000461936,-73.0000002682209,-11.0000001639128));
#1021=CARTESIAN_POINT('Origin',(-40.0000006407499,-73.0000002682209,-11.0000001639128));
#1022=CARTESIAN_POINT('',(-32.000000603497,-73.0000002682209,-11.0000001639128));
#1023=CARTESIAN_POINT('Origin',(-28.000000461936,-73.0000002682209,-11.0000001639128));
#1024=CARTESIAN_POINT('Origin',(-24.0000005662441,-80.0000004321337,-11.0000001639128));
#1025=CARTESIAN_POINT('',(-8.00000056624413,-55.0000004321337,-11.0000001639128));
#1026=CARTESIAN_POINT('',(-40.0000005662441,-55.0000004321337,-11.0000001639128));
#1027=CARTESIAN_POINT('',(-8.00000056624413,-60.1261369330559,-11.0000001639128));
#1028=CARTESIAN_POINT('',(-8.00000056624413,-55.0000004321337,-11.0000001639128));
#1029=CARTESIAN_POINT('',(-8.00000056624413,-73.8738639312114,-11.0000001639128));
#1030=CARTESIAN_POINT('Origin',(-13.0000006258488,-67.0000004321337,-11.0000001639128));
#1031=CARTESIAN_POINT('',(-8.00000016391277,-77.0000003278256,-11.0000001639128));
#1032=CARTESIAN_POINT('',(-8.00000056624413,-55.0000004321337,-11.0000001639128));
#1033=CARTESIAN_POINT('',(-12.500000230968,-77.0000003278256,-11.0000001639128));
#1034=CARTESIAN_POINT('',(-16.0000003650785,-77.0000003278256,-11.0000001639128));
#1035=CARTESIAN_POINT('',(-12.500000230968,-86.000000461936,-11.0000001639128));
#1036=CARTESIAN_POINT('Origin',(-12.5,-81.5000001639128,-11.0000001639128));
#1037=CARTESIAN_POINT('',(-8.00000016391277,-86.000000461936,-11.0000001639128));
#1038=CARTESIAN_POINT('',(-18.2500003986061,-86.000000461936,-11.0000001639128));
#1039=CARTESIAN_POINT('',(-8.00000056624413,-105.000000432134,-11.0000001639128));
#1040=CARTESIAN_POINT('',(-8.00000056624413,-55.0000004321337,-11.0000001639128));
#1041=CARTESIAN_POINT('',(-8.00000056624413,-105.000000432134,-11.0000001639128));
#1042=CARTESIAN_POINT('',(-32.0000005662441,-89.0000004321337,-11.0000001639128));
#1043=CARTESIAN_POINT('Origin',(-24.0000005662441,-89.0000004321337,-11.0000001639128));
#1044=CARTESIAN_POINT('Origin',(-12.500000230968,-86.000000461936,-11.0000001639128));
#1045=CARTESIAN_POINT('',(-12.5,-86.000000461936,-11.0000001639128));
#1046=CARTESIAN_POINT('',(-8.00000056624413,-86.000000461936,-8.00000016391277));
#1047=CARTESIAN_POINT('Origin',(-8.00000016391277,-77.0000003278256,-11.0000001639128));
#1048=CARTESIAN_POINT('',(-8.00000056624413,-77.0000003278256,-8.00000016391277));
#1049=CARTESIAN_POINT('',(-12.500000230968,-77.0000001639128,-11.0000001639128));
#1050=CARTESIAN_POINT('Origin',(-8.00000056624413,-105.000000432134,-5.00000016391278));
#1051=CARTESIAN_POINT('',(-8.00000056624413,-105.000000432134,-5.00000016391278));
#1052=CARTESIAN_POINT('Origin',(-8.00000056624413,-105.000000432134,-5.00000016391278));
#1053=CARTESIAN_POINT('',(-8.00000056624413,-73.8738639312114,-5.00000016391277));
#1054=CARTESIAN_POINT('',(-8.00000056624413,-73.8738639312114,-5.00000016391277));
#1055=CARTESIAN_POINT('',(-8.00000056624413,-60.1261369330559,-5.00000016391277));
#1056=CARTESIAN_POINT('',(-8.00000056624413,-55.0000004321337,-5.00000016391277));
#1057=CARTESIAN_POINT('',(-8.00000056624413,-60.1261369330559,-5.00000016391277));
#1058=CARTESIAN_POINT('',(-8.00000056624413,-55.0000004321337,-5.00000016391277));
#1059=CARTESIAN_POINT('Origin',(-12.5,-81.5000001639128,-11.0000001639128));
#1060=CARTESIAN_POINT('Origin',(-13.0000006258488,-67.0000001043081,-5.00000016391277));
#1061=CARTESIAN_POINT('',(-15.6500006258488,-67.0000001043081,-5.00000016391277));
#1062=CARTESIAN_POINT('Origin',(-13.0000006258488,-67.0000001043081,-5.00000016391277));
#1063=CARTESIAN_POINT('',(-15.6500006258488,-67.0000001043081,-5.00000016391277));
#1064=CARTESIAN_POINT('Origin',(-24.0000007897616,-89.0000004321337,-5.00000016391278));
#1065=CARTESIAN_POINT('',(-26.6500007897615,-89.0000004321337,-5.00000016391278));
#1066=CARTESIAN_POINT('Origin',(-24.0000007897616,-89.0000004321337,-5.00000016391278));
#1067=CARTESIAN_POINT('',(-26.6500007897615,-89.0000004321337,-5.00000016391278));
#1068=CARTESIAN_POINT('Origin',(-24.0000005662441,-89.0000004321337,-5.00000016391278));
#1069=CARTESIAN_POINT('',(-32.0000005662441,-89.0000004321337,-5.00000016391278));
#1070=CARTESIAN_POINT('',(-32.0000005662441,-89.0000004321337,-5.00000016391278));
#1071=CARTESIAN_POINT('Origin',(-24.0000005662441,-89.0000004321337,-5.00000016391278));
#1072=CARTESIAN_POINT('Origin',(-13.0000006258488,-67.0000004321337,-5.00000016391277));
#1073=CARTESIAN_POINT('Origin',(-13.0000006258488,-67.0000004321337,-5.00000016391277));
#1074=CARTESIAN_POINT('Origin',(-24.0000005662441,-80.0000004321337,-5.00000016391277));
#1075=CARTESIAN_POINT('Origin',(-8.00000056624413,-55.0000004321337,-5.00000016391277));
#1076=CARTESIAN_POINT('Origin',(-40.0000005662441,-105.000000432134,-5.00000016391278));
#1077=CARTESIAN_POINT('Origin',(-24.0000005662441,-80.0000004321337,-5.00000016391277));
#1078=CARTESIAN_POINT('',(-21.,-46.2999999960691,-5.00000000393099));
#1079=UNCERTAINTY_MEASURE_WITH_UNIT(LENGTH_MEASURE(0.01),#1085,
'DISTANCE_ACCURACY_VALUE',
'Maximum model space distance between geometric entities at asserted c
onnectivities');
#1080=UNCERTAINTY_MEASURE_WITH_UNIT(LENGTH_MEASURE(0.01),#1085,
'DISTANCE_ACCURACY_VALUE',
'Maximum model space distance between geometric entities at asserted c
onnectivities');
#1081=UNCERTAINTY_MEASURE_WITH_UNIT(LENGTH_MEASURE(0.01),#1085,
'DISTANCE_ACCURACY_VALUE',
'Maximum model space distance between geometric entities at asserted c
onnectivities');
#1082=(
GEOMETRIC_REPRESENTATION_CONTEXT(3)
GLOBAL_UNCERTAINTY_ASSIGNED_CONTEXT((#1079))
GLOBAL_UNIT_ASSIGNED_CONTEXT((#1085,#1087,#1088))
REPRESENTATION_CONTEXT('','3D')
);
#1083=(
GEOMETRIC_REPRESENTATION_CONTEXT(3)
GLOBAL_UNCERTAINTY_ASSIGNED_CONTEXT((#1080))
GLOBAL_UNIT_ASSIGNED_CONTEXT((#1085,#1087,#1088))
REPRESENTATION_CONTEXT('','3D')
);
#1084=(
GEOMETRIC_REPRESENTATION_CONTEXT(3)
GLOBAL_UNCERTAINTY_ASSIGNED_CONTEXT((#1081))
GLOBAL_UNIT_ASSIGNED_CONTEXT((#1085,#1087,#1088))
REPRESENTATION_CONTEXT('','3D')
);
#1085=(
LENGTH_UNIT()
NAMED_UNIT(*)
SI_UNIT(.MILLI.,.METRE.)
);
#1086=(
LENGTH_UNIT()
NAMED_UNIT(*)
SI_UNIT($,.METRE.)
);
#1087=(
NAMED_UNIT(*)
PLANE_ANGLE_UNIT()
SI_UNIT($,.RADIAN.)
);
#1088=(
NAMED_UNIT(*)
SI_UNIT($,.STERADIAN.)
SOLID_ANGLE_UNIT()
);
#1089=SHAPE_DEFINITION_REPRESENTATION(#1091,#1094);
#1090=SHAPE_DEFINITION_REPRESENTATION(#1092,#1095);
#1091=PRODUCT_DEFINITION_SHAPE('',$,#1097);
#1092=PRODUCT_DEFINITION_SHAPE('',$,#1098);
#1093=PRODUCT_DEFINITION_SHAPE($,$,#14);
#1094=SHAPE_REPRESENTATION('',(#655,#717),#1082);
#1095=SHAPE_REPRESENTATION('',(#656),#1083);
#1096=PRODUCT_DEFINITION_CONTEXT('part definition',#1104,'design');
#1097=PRODUCT_DEFINITION('2025-12-27-20-14-32-350',
'Extruder mechanism print file',#1099,#1096);
#1098=PRODUCT_DEFINITION('2025-12-27-18-46-16-654','Nema 17 face mount',
#1100,#1096);
#1099=PRODUCT_DEFINITION_FORMATION('',$,#1106);
#1100=PRODUCT_DEFINITION_FORMATION('',$,#1107);
#1101=PRODUCT_RELATED_PRODUCT_CATEGORY('Extruder mechanism print file',
'Extruder mechanism print file',(#1106));
#1102=PRODUCT_RELATED_PRODUCT_CATEGORY('Nema 17 face mount',
'Nema 17 face mount',(#1107));
#1103=APPLICATION_PROTOCOL_DEFINITION('international standard',
'automotive_design',2009,#1104);
#1104=APPLICATION_CONTEXT(
'Core Data for Automotive Mechanical Design Process');
#1105=PRODUCT_CONTEXT('part definition',#1104,'mechanical');
#1106=PRODUCT('2025-12-27-20-14-32-350','Extruder mechanism print file',
$,(#1105));
#1107=PRODUCT('2025-12-27-18-46-16-654','Nema 17 face mount',$,(#1105));
#1108=PRESENTATION_STYLE_ASSIGNMENT((#1109));
#1109=SURFACE_STYLE_USAGE(.BOTH.,#1110);
#1110=SURFACE_SIDE_STYLE('',(#1111));
#1111=SURFACE_STYLE_FILL_AREA(#1112);
#1112=FILL_AREA_STYLE('Steel - Satin',(#1113));
#1113=FILL_AREA_STYLE_COLOUR('Steel - Satin',#1114);
#1114=COLOUR_RGB('Steel - Satin',0.627450980392157,0.627450980392157,0.627450980392157);
ENDSEC;
END-ISO-10303-21;
