ISO-10303-21;
HEADER;
/* Generated by software containing ST-Developer
 * from STEP Tools, Inc. (www.steptools.com) 
 */

FILE_DESCRIPTION(
/* description */ (''),
/* implementation_level */ '2;1');

FILE_NAME(
/* name */ 'Toolhead.step',
/* time_stamp */ '2025-12-30T18:41:06+11:00',
/* author */ (''),
/* organization */ (''),
/* preprocessor_version */ 'ST-DEVELOPER v20.1',
/* originating_system */ 'Autodesk Translation Framework v14.21.0.0',
/* authorisation */ '');

FILE_SCHEMA (('AUTOMOTIVE_DESIGN { 1 0 10303 214 3 1 1 }'));
ENDSEC;

DATA;
#10=MECHANICAL_DESIGN_GEOMETRIC_PRESENTATION_REPRESENTATION('',(#13),#1474);
#11=SHAPE_REPRESENTATION_RELATIONSHIP('SRR','None',#1480,#12);
#12=ADVANCED_BREP_SHAPE_REPRESENTATION('',(#14),#1473);
#13=STYLED_ITEM('',(#1489),#14);
#14=MANIFOLD_SOLID_BREP('Body1',#920);
#15=SPHERICAL_SURFACE('',#949,4.);
#16=SPHERICAL_SURFACE('',#952,4.);
#17=SPHERICAL_SURFACE('',#955,4.);
#18=CYLINDRICAL_SURFACE('',#925,1.99999999999999);
#19=CYLINDRICAL_SURFACE('',#927,2.);
#20=CYLINDRICAL_SURFACE('',#935,1.25);
#21=CYLINDRICAL_SURFACE('',#937,1.25);
#22=FACE_BOUND('',#100,.T.);
#23=FACE_BOUND('',#101,.T.);
#24=FACE_BOUND('',#108,.T.);
#25=FACE_BOUND('',#109,.T.);
#26=FACE_BOUND('',#110,.T.);
#27=FACE_BOUND('',#111,.T.);
#28=FACE_BOUND('',#120,.T.);
#29=FACE_BOUND('',#122,.T.);
#30=FACE_BOUND('',#134,.T.);
#31=FACE_BOUND('',#140,.T.);
#32=FACE_BOUND('',#146,.T.);
#33=FACE_BOUND('',#154,.T.);
#34=FACE_BOUND('',#158,.T.);
#35=FACE_BOUND('',#159,.T.);
#36=FACE_BOUND('',#160,.T.);
#37=FACE_BOUND('',#161,.T.);
#38=CIRCLE('',#923,1.99999999999999);
#39=CIRCLE('',#924,2.);
#40=CIRCLE('',#926,1.99999999999999);
#41=CIRCLE('',#928,2.);
#42=CIRCLE('',#933,1.25);
#43=CIRCLE('',#934,1.25);
#44=CIRCLE('',#936,1.25);
#45=CIRCLE('',#938,1.25);
#46=CIRCLE('',#950,4.);
#47=CIRCLE('',#951,4.);
#48=CIRCLE('',#953,4.);
#49=CIRCLE('',#954,4.);
#50=CIRCLE('',#956,4.);
#51=CIRCLE('',#957,4.);
#52=FACE_OUTER_BOUND('',#99,.T.);
#53=FACE_OUTER_BOUND('',#102,.T.);
#54=FACE_OUTER_BOUND('',#103,.T.);
#55=FACE_OUTER_BOUND('',#104,.T.);
#56=FACE_OUTER_BOUND('',#105,.T.);
#57=FACE_OUTER_BOUND('',#106,.T.);
#58=FACE_OUTER_BOUND('',#107,.T.);
#59=FACE_OUTER_BOUND('',#112,.T.);
#60=FACE_OUTER_BOUND('',#113,.T.);
#61=FACE_OUTER_BOUND('',#114,.T.);
#62=FACE_OUTER_BOUND('',#115,.T.);
#63=FACE_OUTER_BOUND('',#116,.T.);
#64=FACE_OUTER_BOUND('',#117,.T.);
#65=FACE_OUTER_BOUND('',#118,.T.);
#66=FACE_OUTER_BOUND('',#119,.T.);
#67=FACE_OUTER_BOUND('',#121,.T.);
#68=FACE_OUTER_BOUND('',#123,.T.);
#69=FACE_OUTER_BOUND('',#124,.T.);
#70=FACE_OUTER_BOUND('',#125,.T.);
#71=FACE_OUTER_BOUND('',#126,.T.);
#72=FACE_OUTER_BOUND('',#127,.T.);
#73=FACE_OUTER_BOUND('',#128,.T.);
#74=FACE_OUTER_BOUND('',#129,.T.);
#75=FACE_OUTER_BOUND('',#130,.T.);
#76=FACE_OUTER_BOUND('',#131,.T.);
#77=FACE_OUTER_BOUND('',#132,.T.);
#78=FACE_OUTER_BOUND('',#133,.T.);
#79=FACE_OUTER_BOUND('',#135,.T.);
#80=FACE_OUTER_BOUND('',#136,.T.);
#81=FACE_OUTER_BOUND('',#137,.T.);
#82=FACE_OUTER_BOUND('',#138,.T.);
#83=FACE_OUTER_BOUND('',#139,.T.);
#84=FACE_OUTER_BOUND('',#141,.T.);
#85=FACE_OUTER_BOUND('',#142,.T.);
#86=FACE_OUTER_BOUND('',#143,.T.);
#87=FACE_OUTER_BOUND('',#144,.T.);
#88=FACE_OUTER_BOUND('',#145,.T.);
#89=FACE_OUTER_BOUND('',#147,.T.);
#90=FACE_OUTER_BOUND('',#148,.T.);
#91=FACE_OUTER_BOUND('',#149,.T.);
#92=FACE_OUTER_BOUND('',#150,.T.);
#93=FACE_OUTER_BOUND('',#151,.T.);
#94=FACE_OUTER_BOUND('',#152,.T.);
#95=FACE_OUTER_BOUND('',#153,.T.);
#96=FACE_OUTER_BOUND('',#155,.T.);
#97=FACE_OUTER_BOUND('',#156,.T.);
#98=FACE_OUTER_BOUND('',#157,.T.);
#99=EDGE_LOOP('',(#587,#588,#589,#590,#591));
#100=EDGE_LOOP('',(#592));
#101=EDGE_LOOP('',(#593));
#102=EDGE_LOOP('',(#594,#595,#596,#597));
#103=EDGE_LOOP('',(#598,#599,#600,#601));
#104=EDGE_LOOP('',(#602,#603,#604,#605));
#105=EDGE_LOOP('',(#606,#607,#608,#609));
#106=EDGE_LOOP('',(#610,#611,#612,#613));
#107=EDGE_LOOP('',(#614,#615,#616,#617,#618,#619,#620,#621,#622,#623,#624,
#625));
#108=EDGE_LOOP('',(#626));
#109=EDGE_LOOP('',(#627));
#110=EDGE_LOOP('',(#628));
#111=EDGE_LOOP('',(#629));
#112=EDGE_LOOP('',(#630,#631,#632,#633));
#113=EDGE_LOOP('',(#634,#635,#636,#637));
#114=EDGE_LOOP('',(#638,#639,#640,#641));
#115=EDGE_LOOP('',(#642,#643,#644,#645,#646,#647));
#116=EDGE_LOOP('',(#648,#649,#650,#651));
#117=EDGE_LOOP('',(#652,#653,#654,#655,#656,#657,#658,#659));
#118=EDGE_LOOP('',(#660,#661,#662,#663,#664,#665));
#119=EDGE_LOOP('',(#666,#667,#668,#669));
#120=EDGE_LOOP('',(#670));
#121=EDGE_LOOP('',(#671,#672,#673,#674));
#122=EDGE_LOOP('',(#675));
#123=EDGE_LOOP('',(#676,#677,#678,#679,#680,#681,#682,#683));
#124=EDGE_LOOP('',(#684,#685,#686,#687));
#125=EDGE_LOOP('',(#688,#689,#690,#691));
#126=EDGE_LOOP('',(#692,#693,#694));
#127=EDGE_LOOP('',(#695,#696,#697));
#128=EDGE_LOOP('',(#698,#699,#700));
#129=EDGE_LOOP('',(#701,#702,#703,#704));
#130=EDGE_LOOP('',(#705,#706,#707,#708));
#131=EDGE_LOOP('',(#709,#710,#711,#712));
#132=EDGE_LOOP('',(#713,#714,#715,#716));
#133=EDGE_LOOP('',(#717,#718,#719,#720));
#134=EDGE_LOOP('',(#721));
#135=EDGE_LOOP('',(#722,#723,#724,#725));
#136=EDGE_LOOP('',(#726,#727,#728,#729));
#137=EDGE_LOOP('',(#730,#731,#732,#733));
#138=EDGE_LOOP('',(#734,#735,#736,#737));
#139=EDGE_LOOP('',(#738,#739,#740,#741));
#140=EDGE_LOOP('',(#742));
#141=EDGE_LOOP('',(#743,#744,#745,#746));
#142=EDGE_LOOP('',(#747,#748,#749,#750));
#143=EDGE_LOOP('',(#751,#752,#753,#754));
#144=EDGE_LOOP('',(#755,#756,#757,#758));
#145=EDGE_LOOP('',(#759,#760,#761,#762));
#146=EDGE_LOOP('',(#763));
#147=EDGE_LOOP('',(#764,#765,#766,#767));
#148=EDGE_LOOP('',(#768,#769,#770,#771,#772,#773));
#149=EDGE_LOOP('',(#774,#775,#776,#777,#778,#779));
#150=EDGE_LOOP('',(#780,#781,#782,#783));
#151=EDGE_LOOP('',(#784,#785,#786,#787));
#152=EDGE_LOOP('',(#788,#789,#790,#791));
#153=EDGE_LOOP('',(#792,#793,#794,#795));
#154=EDGE_LOOP('',(#796,#797,#798,#799));
#155=EDGE_LOOP('',(#800,#801,#802,#803));
#156=EDGE_LOOP('',(#804,#805,#806,#807));
#157=EDGE_LOOP('',(#808,#809,#810,#811,#812,#813,#814,#815,#816));
#158=EDGE_LOOP('',(#817,#818,#819,#820));
#159=EDGE_LOOP('',(#821,#822,#823,#824));
#160=EDGE_LOOP('',(#825,#826,#827,#828));
#161=EDGE_LOOP('',(#829,#830,#831,#832));
#162=LINE('',#1220,#271);
#163=LINE('',#1222,#272);
#164=LINE('',#1224,#273);
#165=LINE('',#1226,#274);
#166=LINE('',#1227,#275);
#167=LINE('',#1234,#276);
#168=LINE('',#1238,#277);
#169=LINE('',#1243,#278);
#170=LINE('',#1244,#279);
#171=LINE('',#1245,#280);
#172=LINE('',#1248,#281);
#173=LINE('',#1249,#282);
#174=LINE('',#1252,#283);
#175=LINE('',#1253,#284);
#176=LINE('',#1256,#285);
#177=LINE('',#1258,#286);
#178=LINE('',#1260,#287);
#179=LINE('',#1262,#288);
#180=LINE('',#1264,#289);
#181=LINE('',#1266,#290);
#182=LINE('',#1268,#291);
#183=LINE('',#1270,#292);
#184=LINE('',#1271,#293);
#185=LINE('',#1279,#294);
#186=LINE('',#1283,#295);
#187=LINE('',#1287,#296);
#188=LINE('',#1289,#297);
#189=LINE('',#1291,#298);
#190=LINE('',#1292,#299);
#191=LINE('',#1296,#300);
#192=LINE('',#1298,#301);
#193=LINE('',#1300,#302);
#194=LINE('',#1301,#303);
#195=LINE('',#1302,#304);
#196=LINE('',#1306,#305);
#197=LINE('',#1307,#306);
#198=LINE('',#1308,#307);
#199=LINE('',#1311,#308);
#200=LINE('',#1313,#309);
#201=LINE('',#1315,#310);
#202=LINE('',#1317,#311);
#203=LINE('',#1319,#312);
#204=LINE('',#1320,#313);
#205=LINE('',#1323,#314);
#206=LINE('',#1324,#315);
#207=LINE('',#1325,#316);
#208=LINE('',#1328,#317);
#209=LINE('',#1329,#318);
#210=LINE('',#1332,#319);
#211=LINE('',#1333,#320);
#212=LINE('',#1336,#321);
#213=LINE('',#1338,#322);
#214=LINE('',#1339,#323);
#215=LINE('',#1341,#324);
#216=LINE('',#1343,#325);
#217=LINE('',#1362,#326);
#218=LINE('',#1364,#327);
#219=LINE('',#1366,#328);
#220=LINE('',#1367,#329);
#221=LINE('',#1370,#330);
#222=LINE('',#1372,#331);
#223=LINE('',#1373,#332);
#224=LINE('',#1376,#333);
#225=LINE('',#1378,#334);
#226=LINE('',#1379,#335);
#227=LINE('',#1381,#336);
#228=LINE('',#1382,#337);
#229=LINE('',#1387,#338);
#230=LINE('',#1389,#339);
#231=LINE('',#1391,#340);
#232=LINE('',#1392,#341);
#233=LINE('',#1395,#342);
#234=LINE('',#1397,#343);
#235=LINE('',#1398,#344);
#236=LINE('',#1401,#345);
#237=LINE('',#1403,#346);
#238=LINE('',#1404,#347);
#239=LINE('',#1406,#348);
#240=LINE('',#1407,#349);
#241=LINE('',#1412,#350);
#242=LINE('',#1414,#351);
#243=LINE('',#1416,#352);
#244=LINE('',#1417,#353);
#245=LINE('',#1420,#354);
#246=LINE('',#1422,#355);
#247=LINE('',#1423,#356);
#248=LINE('',#1426,#357);
#249=LINE('',#1428,#358);
#250=LINE('',#1429,#359);
#251=LINE('',#1431,#360);
#252=LINE('',#1432,#361);
#253=LINE('',#1437,#362);
#254=LINE('',#1438,#363);
#255=LINE('',#1439,#364);
#256=LINE('',#1442,#365);
#257=LINE('',#1443,#366);
#258=LINE('',#1446,#367);
#259=LINE('',#1447,#368);
#260=LINE('',#1450,#369);
#261=LINE('',#1451,#370);
#262=LINE('',#1454,#371);
#263=LINE('',#1455,#372);
#264=LINE('',#1458,#373);
#265=LINE('',#1459,#374);
#266=LINE('',#1462,#375);
#267=LINE('',#1463,#376);
#268=LINE('',#1466,#377);
#269=LINE('',#1467,#378);
#270=LINE('',#1469,#379);
#271=VECTOR('',#987,10.);
#272=VECTOR('',#988,10.);
#273=VECTOR('',#989,10.);
#274=VECTOR('',#990,10.);
#275=VECTOR('',#991,10.);
#276=VECTOR('',#998,1.99999999999999);
#277=VECTOR('',#1003,2.);
#278=VECTOR('',#1008,10.);
#279=VECTOR('',#1009,10.);
#280=VECTOR('',#1010,10.);
#281=VECTOR('',#1013,10.);
#282=VECTOR('',#1014,10.);
#283=VECTOR('',#1017,10.);
#284=VECTOR('',#1018,10.);
#285=VECTOR('',#1021,10.);
#286=VECTOR('',#1022,10.);
#287=VECTOR('',#1023,10.);
#288=VECTOR('',#1024,10.);
#289=VECTOR('',#1025,10.);
#290=VECTOR('',#1026,10.);
#291=VECTOR('',#1027,10.);
#292=VECTOR('',#1028,10.);
#293=VECTOR('',#1029,10.);
#294=VECTOR('',#1038,1.25);
#295=VECTOR('',#1043,1.25);
#296=VECTOR('',#1046,10.);
#297=VECTOR('',#1047,10.);
#298=VECTOR('',#1048,10.);
#299=VECTOR('',#1049,10.);
#300=VECTOR('',#1052,10.);
#301=VECTOR('',#1053,10.);
#302=VECTOR('',#1054,10.);
#303=VECTOR('',#1055,10.);
#304=VECTOR('',#1056,10.);
#305=VECTOR('',#1059,10.);
#306=VECTOR('',#1060,10.);
#307=VECTOR('',#1061,10.);
#308=VECTOR('',#1064,10.);
#309=VECTOR('',#1065,10.);
#310=VECTOR('',#1066,10.);
#311=VECTOR('',#1067,10.);
#312=VECTOR('',#1068,10.);
#313=VECTOR('',#1069,10.);
#314=VECTOR('',#1072,10.);
#315=VECTOR('',#1073,10.);
#316=VECTOR('',#1074,10.);
#317=VECTOR('',#1077,10.);
#318=VECTOR('',#1078,10.);
#319=VECTOR('',#1081,10.);
#320=VECTOR('',#1082,10.);
#321=VECTOR('',#1085,10.);
#322=VECTOR('',#1086,10.);
#323=VECTOR('',#1087,10.);
#324=VECTOR('',#1090,10.);
#325=VECTOR('',#1093,10.);
#326=VECTOR('',#1114,10.);
#327=VECTOR('',#1115,10.);
#328=VECTOR('',#1116,10.);
#329=VECTOR('',#1117,10.);
#330=VECTOR('',#1120,10.);
#331=VECTOR('',#1121,10.);
#332=VECTOR('',#1122,10.);
#333=VECTOR('',#1125,10.);
#334=VECTOR('',#1126,10.);
#335=VECTOR('',#1127,10.);
#336=VECTOR('',#1130,10.);
#337=VECTOR('',#1131,10.);
#338=VECTOR('',#1136,10.);
#339=VECTOR('',#1137,10.);
#340=VECTOR('',#1138,10.);
#341=VECTOR('',#1139,10.);
#342=VECTOR('',#1142,10.);
#343=VECTOR('',#1143,10.);
#344=VECTOR('',#1144,10.);
#345=VECTOR('',#1147,10.);
#346=VECTOR('',#1148,10.);
#347=VECTOR('',#1149,10.);
#348=VECTOR('',#1152,10.);
#349=VECTOR('',#1153,10.);
#350=VECTOR('',#1158,10.);
#351=VECTOR('',#1159,10.);
#352=VECTOR('',#1160,10.);
#353=VECTOR('',#1161,10.);
#354=VECTOR('',#1164,10.);
#355=VECTOR('',#1165,10.);
#356=VECTOR('',#1166,10.);
#357=VECTOR('',#1169,10.);
#358=VECTOR('',#1170,10.);
#359=VECTOR('',#1171,10.);
#360=VECTOR('',#1174,10.);
#361=VECTOR('',#1175,10.);
#362=VECTOR('',#1180,10.);
#363=VECTOR('',#1181,10.);
#364=VECTOR('',#1182,10.);
#365=VECTOR('',#1185,10.);
#366=VECTOR('',#1186,10.);
#367=VECTOR('',#1189,10.);
#368=VECTOR('',#1190,10.);
#369=VECTOR('',#1193,10.);
#370=VECTOR('',#1194,10.);
#371=VECTOR('',#1197,10.);
#372=VECTOR('',#1198,10.);
#373=VECTOR('',#1201,10.);
#374=VECTOR('',#1202,10.);
#375=VECTOR('',#1205,10.);
#376=VECTOR('',#1206,10.);
#377=VECTOR('',#1209,10.);
#378=VECTOR('',#1210,10.);
#379=VECTOR('',#1213,10.);
#380=VERTEX_POINT('',#1218);
#381=VERTEX_POINT('',#1219);
#382=VERTEX_POINT('',#1221);
#383=VERTEX_POINT('',#1223);
#384=VERTEX_POINT('',#1225);
#385=VERTEX_POINT('',#1228);
#386=VERTEX_POINT('',#1230);
#387=VERTEX_POINT('',#1233);
#388=VERTEX_POINT('',#1237);
#389=VERTEX_POINT('',#1241);
#390=VERTEX_POINT('',#1242);
#391=VERTEX_POINT('',#1247);
#392=VERTEX_POINT('',#1251);
#393=VERTEX_POINT('',#1255);
#394=VERTEX_POINT('',#1257);
#395=VERTEX_POINT('',#1259);
#396=VERTEX_POINT('',#1261);
#397=VERTEX_POINT('',#1263);
#398=VERTEX_POINT('',#1265);
#399=VERTEX_POINT('',#1267);
#400=VERTEX_POINT('',#1269);
#401=VERTEX_POINT('',#1272);
#402=VERTEX_POINT('',#1274);
#403=VERTEX_POINT('',#1277);
#404=VERTEX_POINT('',#1281);
#405=VERTEX_POINT('',#1285);
#406=VERTEX_POINT('',#1286);
#407=VERTEX_POINT('',#1288);
#408=VERTEX_POINT('',#1290);
#409=VERTEX_POINT('',#1294);
#410=VERTEX_POINT('',#1295);
#411=VERTEX_POINT('',#1297);
#412=VERTEX_POINT('',#1299);
#413=VERTEX_POINT('',#1304);
#414=VERTEX_POINT('',#1305);
#415=VERTEX_POINT('',#1310);
#416=VERTEX_POINT('',#1312);
#417=VERTEX_POINT('',#1314);
#418=VERTEX_POINT('',#1316);
#419=VERTEX_POINT('',#1318);
#420=VERTEX_POINT('',#1322);
#421=VERTEX_POINT('',#1327);
#422=VERTEX_POINT('',#1331);
#423=VERTEX_POINT('',#1335);
#424=VERTEX_POINT('',#1337);
#425=VERTEX_POINT('',#1345);
#426=VERTEX_POINT('',#1347);
#427=VERTEX_POINT('',#1350);
#428=VERTEX_POINT('',#1352);
#429=VERTEX_POINT('',#1355);
#430=VERTEX_POINT('',#1357);
#431=VERTEX_POINT('',#1360);
#432=VERTEX_POINT('',#1361);
#433=VERTEX_POINT('',#1363);
#434=VERTEX_POINT('',#1365);
#435=VERTEX_POINT('',#1369);
#436=VERTEX_POINT('',#1371);
#437=VERTEX_POINT('',#1375);
#438=VERTEX_POINT('',#1377);
#439=VERTEX_POINT('',#1385);
#440=VERTEX_POINT('',#1386);
#441=VERTEX_POINT('',#1388);
#442=VERTEX_POINT('',#1390);
#443=VERTEX_POINT('',#1394);
#444=VERTEX_POINT('',#1396);
#445=VERTEX_POINT('',#1400);
#446=VERTEX_POINT('',#1402);
#447=VERTEX_POINT('',#1410);
#448=VERTEX_POINT('',#1411);
#449=VERTEX_POINT('',#1413);
#450=VERTEX_POINT('',#1415);
#451=VERTEX_POINT('',#1419);
#452=VERTEX_POINT('',#1421);
#453=VERTEX_POINT('',#1425);
#454=VERTEX_POINT('',#1427);
#455=VERTEX_POINT('',#1435);
#456=VERTEX_POINT('',#1436);
#457=VERTEX_POINT('',#1441);
#458=VERTEX_POINT('',#1445);
#459=VERTEX_POINT('',#1449);
#460=VERTEX_POINT('',#1453);
#461=VERTEX_POINT('',#1457);
#462=VERTEX_POINT('',#1461);
#463=VERTEX_POINT('',#1465);
#464=EDGE_CURVE('',#380,#381,#162,.T.);
#465=EDGE_CURVE('',#382,#380,#163,.T.);
#466=EDGE_CURVE('',#382,#383,#164,.T.);
#467=EDGE_CURVE('',#383,#384,#165,.T.);
#468=EDGE_CURVE('',#384,#381,#166,.T.);
#469=EDGE_CURVE('',#385,#385,#38,.T.);
#470=EDGE_CURVE('',#386,#386,#39,.T.);
#471=EDGE_CURVE('',#385,#387,#167,.T.);
#472=EDGE_CURVE('',#387,#387,#40,.T.);
#473=EDGE_CURVE('',#386,#388,#168,.T.);
#474=EDGE_CURVE('',#388,#388,#41,.T.);
#475=EDGE_CURVE('',#389,#390,#169,.T.);
#476=EDGE_CURVE('',#390,#384,#170,.T.);
#477=EDGE_CURVE('',#389,#383,#171,.T.);
#478=EDGE_CURVE('',#391,#389,#172,.T.);
#479=EDGE_CURVE('',#391,#382,#173,.T.);
#480=EDGE_CURVE('',#392,#390,#174,.T.);
#481=EDGE_CURVE('',#381,#392,#175,.T.);
#482=EDGE_CURVE('',#391,#393,#176,.T.);
#483=EDGE_CURVE('',#393,#394,#177,.T.);
#484=EDGE_CURVE('',#394,#395,#178,.T.);
#485=EDGE_CURVE('',#395,#396,#179,.T.);
#486=EDGE_CURVE('',#396,#397,#180,.T.);
#487=EDGE_CURVE('',#397,#398,#181,.T.);
#488=EDGE_CURVE('',#398,#399,#182,.T.);
#489=EDGE_CURVE('',#399,#400,#183,.T.);
#490=EDGE_CURVE('',#400,#392,#184,.T.);
#491=EDGE_CURVE('',#401,#401,#42,.T.);
#492=EDGE_CURVE('',#402,#402,#43,.T.);
#493=EDGE_CURVE('',#403,#403,#44,.T.);
#494=EDGE_CURVE('',#403,#402,#185,.T.);
#495=EDGE_CURVE('',#404,#404,#45,.T.);
#496=EDGE_CURVE('',#404,#401,#186,.T.);
#497=EDGE_CURVE('',#405,#406,#187,.T.);
#498=EDGE_CURVE('',#407,#405,#188,.T.);
#499=EDGE_CURVE('',#408,#407,#189,.T.);
#500=EDGE_CURVE('',#408,#406,#190,.T.);
#501=EDGE_CURVE('',#409,#410,#191,.T.);
#502=EDGE_CURVE('',#411,#410,#192,.T.);
#503=EDGE_CURVE('',#412,#411,#193,.T.);
#504=EDGE_CURVE('',#412,#406,#194,.T.);
#505=EDGE_CURVE('',#409,#408,#195,.T.);
#506=EDGE_CURVE('',#413,#414,#196,.T.);
#507=EDGE_CURVE('',#410,#413,#197,.T.);
#508=EDGE_CURVE('',#414,#409,#198,.T.);
#509=EDGE_CURVE('',#415,#413,#199,.T.);
#510=EDGE_CURVE('',#415,#416,#200,.T.);
#511=EDGE_CURVE('',#417,#416,#201,.T.);
#512=EDGE_CURVE('',#418,#417,#202,.T.);
#513=EDGE_CURVE('',#418,#419,#203,.T.);
#514=EDGE_CURVE('',#419,#411,#204,.T.);
#515=EDGE_CURVE('',#420,#405,#205,.T.);
#516=EDGE_CURVE('',#415,#420,#206,.T.);
#517=EDGE_CURVE('',#407,#414,#207,.T.);
#518=EDGE_CURVE('',#421,#419,#208,.T.);
#519=EDGE_CURVE('',#412,#421,#209,.T.);
#520=EDGE_CURVE('',#422,#420,#210,.T.);
#521=EDGE_CURVE('',#416,#422,#211,.T.);
#522=EDGE_CURVE('',#423,#421,#212,.T.);
#523=EDGE_CURVE('',#424,#423,#213,.T.);
#524=EDGE_CURVE('',#424,#422,#214,.T.);
#525=EDGE_CURVE('',#417,#424,#215,.T.);
#526=EDGE_CURVE('',#423,#418,#216,.T.);
#527=EDGE_CURVE('',#425,#425,#46,.T.);
#528=EDGE_CURVE('',#426,#425,#47,.T.);
#529=EDGE_CURVE('',#427,#427,#48,.T.);
#530=EDGE_CURVE('',#428,#427,#49,.T.);
#531=EDGE_CURVE('',#429,#429,#50,.T.);
#532=EDGE_CURVE('',#430,#429,#51,.T.);
#533=EDGE_CURVE('',#431,#432,#217,.T.);
#534=EDGE_CURVE('',#431,#433,#218,.T.);
#535=EDGE_CURVE('',#434,#433,#219,.T.);
#536=EDGE_CURVE('',#432,#434,#220,.T.);
#537=EDGE_CURVE('',#432,#435,#221,.T.);
#538=EDGE_CURVE('',#436,#434,#222,.T.);
#539=EDGE_CURVE('',#435,#436,#223,.T.);
#540=EDGE_CURVE('',#435,#437,#224,.T.);
#541=EDGE_CURVE('',#438,#436,#225,.T.);
#542=EDGE_CURVE('',#437,#438,#226,.T.);
#543=EDGE_CURVE('',#437,#431,#227,.T.);
#544=EDGE_CURVE('',#433,#438,#228,.T.);
#545=EDGE_CURVE('',#439,#440,#229,.T.);
#546=EDGE_CURVE('',#439,#441,#230,.T.);
#547=EDGE_CURVE('',#442,#441,#231,.T.);
#548=EDGE_CURVE('',#440,#442,#232,.T.);
#549=EDGE_CURVE('',#440,#443,#233,.T.);
#550=EDGE_CURVE('',#444,#442,#234,.T.);
#551=EDGE_CURVE('',#443,#444,#235,.T.);
#552=EDGE_CURVE('',#443,#445,#236,.T.);
#553=EDGE_CURVE('',#446,#444,#237,.T.);
#554=EDGE_CURVE('',#445,#446,#238,.T.);
#555=EDGE_CURVE('',#445,#439,#239,.T.);
#556=EDGE_CURVE('',#441,#446,#240,.T.);
#557=EDGE_CURVE('',#447,#448,#241,.T.);
#558=EDGE_CURVE('',#447,#449,#242,.T.);
#559=EDGE_CURVE('',#450,#449,#243,.T.);
#560=EDGE_CURVE('',#448,#450,#244,.T.);
#561=EDGE_CURVE('',#448,#451,#245,.T.);
#562=EDGE_CURVE('',#452,#450,#246,.T.);
#563=EDGE_CURVE('',#451,#452,#247,.T.);
#564=EDGE_CURVE('',#451,#453,#248,.T.);
#565=EDGE_CURVE('',#454,#452,#249,.T.);
#566=EDGE_CURVE('',#453,#454,#250,.T.);
#567=EDGE_CURVE('',#453,#447,#251,.T.);
#568=EDGE_CURVE('',#449,#454,#252,.T.);
#569=EDGE_CURVE('',#455,#456,#253,.T.);
#570=EDGE_CURVE('',#455,#394,#254,.T.);
#571=EDGE_CURVE('',#456,#393,#255,.T.);
#572=EDGE_CURVE('',#457,#380,#256,.T.);
#573=EDGE_CURVE('',#457,#456,#257,.T.);
#574=EDGE_CURVE('',#458,#400,#258,.T.);
#575=EDGE_CURVE('',#458,#457,#259,.T.);
#576=EDGE_CURVE('',#459,#458,#260,.T.);
#577=EDGE_CURVE('',#459,#399,#261,.T.);
#578=EDGE_CURVE('',#460,#459,#262,.T.);
#579=EDGE_CURVE('',#460,#398,#263,.T.);
#580=EDGE_CURVE('',#461,#460,#264,.T.);
#581=EDGE_CURVE('',#461,#397,#265,.T.);
#582=EDGE_CURVE('',#462,#461,#266,.T.);
#583=EDGE_CURVE('',#462,#396,#267,.T.);
#584=EDGE_CURVE('',#463,#462,#268,.T.);
#585=EDGE_CURVE('',#463,#395,#269,.T.);
#586=EDGE_CURVE('',#455,#463,#270,.T.);
#587=ORIENTED_EDGE('',*,*,#464,.F.);
#588=ORIENTED_EDGE('',*,*,#465,.F.);
#589=ORIENTED_EDGE('',*,*,#466,.T.);
#590=ORIENTED_EDGE('',*,*,#467,.T.);
#591=ORIENTED_EDGE('',*,*,#468,.T.);
#592=ORIENTED_EDGE('',*,*,#469,.T.);
#593=ORIENTED_EDGE('',*,*,#470,.T.);
#594=ORIENTED_EDGE('',*,*,#469,.F.);
#595=ORIENTED_EDGE('',*,*,#471,.T.);
#596=ORIENTED_EDGE('',*,*,#472,.F.);
#597=ORIENTED_EDGE('',*,*,#471,.F.);
#598=ORIENTED_EDGE('',*,*,#470,.F.);
#599=ORIENTED_EDGE('',*,*,#473,.T.);
#600=ORIENTED_EDGE('',*,*,#474,.F.);
#601=ORIENTED_EDGE('',*,*,#473,.F.);
#602=ORIENTED_EDGE('',*,*,#475,.T.);
#603=ORIENTED_EDGE('',*,*,#476,.T.);
#604=ORIENTED_EDGE('',*,*,#467,.F.);
#605=ORIENTED_EDGE('',*,*,#477,.F.);
#606=ORIENTED_EDGE('',*,*,#478,.T.);
#607=ORIENTED_EDGE('',*,*,#477,.T.);
#608=ORIENTED_EDGE('',*,*,#466,.F.);
#609=ORIENTED_EDGE('',*,*,#479,.F.);
#610=ORIENTED_EDGE('',*,*,#480,.F.);
#611=ORIENTED_EDGE('',*,*,#481,.F.);
#612=ORIENTED_EDGE('',*,*,#468,.F.);
#613=ORIENTED_EDGE('',*,*,#476,.F.);
#614=ORIENTED_EDGE('',*,*,#480,.T.);
#615=ORIENTED_EDGE('',*,*,#475,.F.);
#616=ORIENTED_EDGE('',*,*,#478,.F.);
#617=ORIENTED_EDGE('',*,*,#482,.T.);
#618=ORIENTED_EDGE('',*,*,#483,.T.);
#619=ORIENTED_EDGE('',*,*,#484,.T.);
#620=ORIENTED_EDGE('',*,*,#485,.T.);
#621=ORIENTED_EDGE('',*,*,#486,.T.);
#622=ORIENTED_EDGE('',*,*,#487,.T.);
#623=ORIENTED_EDGE('',*,*,#488,.T.);
#624=ORIENTED_EDGE('',*,*,#489,.T.);
#625=ORIENTED_EDGE('',*,*,#490,.T.);
#626=ORIENTED_EDGE('',*,*,#472,.T.);
#627=ORIENTED_EDGE('',*,*,#474,.T.);
#628=ORIENTED_EDGE('',*,*,#491,.T.);
#629=ORIENTED_EDGE('',*,*,#492,.T.);
#630=ORIENTED_EDGE('',*,*,#493,.F.);
#631=ORIENTED_EDGE('',*,*,#494,.T.);
#632=ORIENTED_EDGE('',*,*,#492,.F.);
#633=ORIENTED_EDGE('',*,*,#494,.F.);
#634=ORIENTED_EDGE('',*,*,#495,.F.);
#635=ORIENTED_EDGE('',*,*,#496,.T.);
#636=ORIENTED_EDGE('',*,*,#491,.F.);
#637=ORIENTED_EDGE('',*,*,#496,.F.);
#638=ORIENTED_EDGE('',*,*,#497,.F.);
#639=ORIENTED_EDGE('',*,*,#498,.F.);
#640=ORIENTED_EDGE('',*,*,#499,.F.);
#641=ORIENTED_EDGE('',*,*,#500,.T.);
#642=ORIENTED_EDGE('',*,*,#501,.T.);
#643=ORIENTED_EDGE('',*,*,#502,.F.);
#644=ORIENTED_EDGE('',*,*,#503,.F.);
#645=ORIENTED_EDGE('',*,*,#504,.T.);
#646=ORIENTED_EDGE('',*,*,#500,.F.);
#647=ORIENTED_EDGE('',*,*,#505,.F.);
#648=ORIENTED_EDGE('',*,*,#506,.F.);
#649=ORIENTED_EDGE('',*,*,#507,.F.);
#650=ORIENTED_EDGE('',*,*,#501,.F.);
#651=ORIENTED_EDGE('',*,*,#508,.F.);
#652=ORIENTED_EDGE('',*,*,#507,.T.);
#653=ORIENTED_EDGE('',*,*,#509,.F.);
#654=ORIENTED_EDGE('',*,*,#510,.T.);
#655=ORIENTED_EDGE('',*,*,#511,.F.);
#656=ORIENTED_EDGE('',*,*,#512,.F.);
#657=ORIENTED_EDGE('',*,*,#513,.T.);
#658=ORIENTED_EDGE('',*,*,#514,.T.);
#659=ORIENTED_EDGE('',*,*,#502,.T.);
#660=ORIENTED_EDGE('',*,*,#515,.F.);
#661=ORIENTED_EDGE('',*,*,#516,.F.);
#662=ORIENTED_EDGE('',*,*,#509,.T.);
#663=ORIENTED_EDGE('',*,*,#506,.T.);
#664=ORIENTED_EDGE('',*,*,#517,.F.);
#665=ORIENTED_EDGE('',*,*,#498,.T.);
#666=ORIENTED_EDGE('',*,*,#503,.T.);
#667=ORIENTED_EDGE('',*,*,#514,.F.);
#668=ORIENTED_EDGE('',*,*,#518,.F.);
#669=ORIENTED_EDGE('',*,*,#519,.F.);
#670=ORIENTED_EDGE('',*,*,#493,.T.);
#671=ORIENTED_EDGE('',*,*,#516,.T.);
#672=ORIENTED_EDGE('',*,*,#520,.F.);
#673=ORIENTED_EDGE('',*,*,#521,.F.);
#674=ORIENTED_EDGE('',*,*,#510,.F.);
#675=ORIENTED_EDGE('',*,*,#495,.T.);
#676=ORIENTED_EDGE('',*,*,#497,.T.);
#677=ORIENTED_EDGE('',*,*,#504,.F.);
#678=ORIENTED_EDGE('',*,*,#519,.T.);
#679=ORIENTED_EDGE('',*,*,#522,.F.);
#680=ORIENTED_EDGE('',*,*,#523,.F.);
#681=ORIENTED_EDGE('',*,*,#524,.T.);
#682=ORIENTED_EDGE('',*,*,#520,.T.);
#683=ORIENTED_EDGE('',*,*,#515,.T.);
#684=ORIENTED_EDGE('',*,*,#525,.F.);
#685=ORIENTED_EDGE('',*,*,#511,.T.);
#686=ORIENTED_EDGE('',*,*,#521,.T.);
#687=ORIENTED_EDGE('',*,*,#524,.F.);
#688=ORIENTED_EDGE('',*,*,#526,.F.);
#689=ORIENTED_EDGE('',*,*,#522,.T.);
#690=ORIENTED_EDGE('',*,*,#518,.T.);
#691=ORIENTED_EDGE('',*,*,#513,.F.);
#692=ORIENTED_EDGE('',*,*,#527,.F.);
#693=ORIENTED_EDGE('',*,*,#528,.F.);
#694=ORIENTED_EDGE('',*,*,#528,.T.);
#695=ORIENTED_EDGE('',*,*,#529,.F.);
#696=ORIENTED_EDGE('',*,*,#530,.F.);
#697=ORIENTED_EDGE('',*,*,#530,.T.);
#698=ORIENTED_EDGE('',*,*,#531,.F.);
#699=ORIENTED_EDGE('',*,*,#532,.F.);
#700=ORIENTED_EDGE('',*,*,#532,.T.);
#701=ORIENTED_EDGE('',*,*,#533,.F.);
#702=ORIENTED_EDGE('',*,*,#534,.T.);
#703=ORIENTED_EDGE('',*,*,#535,.F.);
#704=ORIENTED_EDGE('',*,*,#536,.F.);
#705=ORIENTED_EDGE('',*,*,#537,.F.);
#706=ORIENTED_EDGE('',*,*,#536,.T.);
#707=ORIENTED_EDGE('',*,*,#538,.F.);
#708=ORIENTED_EDGE('',*,*,#539,.F.);
#709=ORIENTED_EDGE('',*,*,#540,.F.);
#710=ORIENTED_EDGE('',*,*,#539,.T.);
#711=ORIENTED_EDGE('',*,*,#541,.F.);
#712=ORIENTED_EDGE('',*,*,#542,.F.);
#713=ORIENTED_EDGE('',*,*,#543,.F.);
#714=ORIENTED_EDGE('',*,*,#542,.T.);
#715=ORIENTED_EDGE('',*,*,#544,.F.);
#716=ORIENTED_EDGE('',*,*,#534,.F.);
#717=ORIENTED_EDGE('',*,*,#544,.T.);
#718=ORIENTED_EDGE('',*,*,#541,.T.);
#719=ORIENTED_EDGE('',*,*,#538,.T.);
#720=ORIENTED_EDGE('',*,*,#535,.T.);
#721=ORIENTED_EDGE('',*,*,#527,.T.);
#722=ORIENTED_EDGE('',*,*,#545,.F.);
#723=ORIENTED_EDGE('',*,*,#546,.T.);
#724=ORIENTED_EDGE('',*,*,#547,.F.);
#725=ORIENTED_EDGE('',*,*,#548,.F.);
#726=ORIENTED_EDGE('',*,*,#549,.F.);
#727=ORIENTED_EDGE('',*,*,#548,.T.);
#728=ORIENTED_EDGE('',*,*,#550,.F.);
#729=ORIENTED_EDGE('',*,*,#551,.F.);
#730=ORIENTED_EDGE('',*,*,#552,.F.);
#731=ORIENTED_EDGE('',*,*,#551,.T.);
#732=ORIENTED_EDGE('',*,*,#553,.F.);
#733=ORIENTED_EDGE('',*,*,#554,.F.);
#734=ORIENTED_EDGE('',*,*,#555,.F.);
#735=ORIENTED_EDGE('',*,*,#554,.T.);
#736=ORIENTED_EDGE('',*,*,#556,.F.);
#737=ORIENTED_EDGE('',*,*,#546,.F.);
#738=ORIENTED_EDGE('',*,*,#556,.T.);
#739=ORIENTED_EDGE('',*,*,#553,.T.);
#740=ORIENTED_EDGE('',*,*,#550,.T.);
#741=ORIENTED_EDGE('',*,*,#547,.T.);
#742=ORIENTED_EDGE('',*,*,#529,.T.);
#743=ORIENTED_EDGE('',*,*,#557,.F.);
#744=ORIENTED_EDGE('',*,*,#558,.T.);
#745=ORIENTED_EDGE('',*,*,#559,.F.);
#746=ORIENTED_EDGE('',*,*,#560,.F.);
#747=ORIENTED_EDGE('',*,*,#561,.F.);
#748=ORIENTED_EDGE('',*,*,#560,.T.);
#749=ORIENTED_EDGE('',*,*,#562,.F.);
#750=ORIENTED_EDGE('',*,*,#563,.F.);
#751=ORIENTED_EDGE('',*,*,#564,.F.);
#752=ORIENTED_EDGE('',*,*,#563,.T.);
#753=ORIENTED_EDGE('',*,*,#565,.F.);
#754=ORIENTED_EDGE('',*,*,#566,.F.);
#755=ORIENTED_EDGE('',*,*,#567,.F.);
#756=ORIENTED_EDGE('',*,*,#566,.T.);
#757=ORIENTED_EDGE('',*,*,#568,.F.);
#758=ORIENTED_EDGE('',*,*,#558,.F.);
#759=ORIENTED_EDGE('',*,*,#568,.T.);
#760=ORIENTED_EDGE('',*,*,#565,.T.);
#761=ORIENTED_EDGE('',*,*,#562,.T.);
#762=ORIENTED_EDGE('',*,*,#559,.T.);
#763=ORIENTED_EDGE('',*,*,#531,.T.);
#764=ORIENTED_EDGE('',*,*,#569,.F.);
#765=ORIENTED_EDGE('',*,*,#570,.T.);
#766=ORIENTED_EDGE('',*,*,#483,.F.);
#767=ORIENTED_EDGE('',*,*,#571,.F.);
#768=ORIENTED_EDGE('',*,*,#465,.T.);
#769=ORIENTED_EDGE('',*,*,#572,.F.);
#770=ORIENTED_EDGE('',*,*,#573,.T.);
#771=ORIENTED_EDGE('',*,*,#571,.T.);
#772=ORIENTED_EDGE('',*,*,#482,.F.);
#773=ORIENTED_EDGE('',*,*,#479,.T.);
#774=ORIENTED_EDGE('',*,*,#481,.T.);
#775=ORIENTED_EDGE('',*,*,#490,.F.);
#776=ORIENTED_EDGE('',*,*,#574,.F.);
#777=ORIENTED_EDGE('',*,*,#575,.T.);
#778=ORIENTED_EDGE('',*,*,#572,.T.);
#779=ORIENTED_EDGE('',*,*,#464,.T.);
#780=ORIENTED_EDGE('',*,*,#576,.T.);
#781=ORIENTED_EDGE('',*,*,#574,.T.);
#782=ORIENTED_EDGE('',*,*,#489,.F.);
#783=ORIENTED_EDGE('',*,*,#577,.F.);
#784=ORIENTED_EDGE('',*,*,#578,.T.);
#785=ORIENTED_EDGE('',*,*,#577,.T.);
#786=ORIENTED_EDGE('',*,*,#488,.F.);
#787=ORIENTED_EDGE('',*,*,#579,.F.);
#788=ORIENTED_EDGE('',*,*,#580,.T.);
#789=ORIENTED_EDGE('',*,*,#579,.T.);
#790=ORIENTED_EDGE('',*,*,#487,.F.);
#791=ORIENTED_EDGE('',*,*,#581,.F.);
#792=ORIENTED_EDGE('',*,*,#582,.T.);
#793=ORIENTED_EDGE('',*,*,#581,.T.);
#794=ORIENTED_EDGE('',*,*,#486,.F.);
#795=ORIENTED_EDGE('',*,*,#583,.F.);
#796=ORIENTED_EDGE('',*,*,#505,.T.);
#797=ORIENTED_EDGE('',*,*,#499,.T.);
#798=ORIENTED_EDGE('',*,*,#517,.T.);
#799=ORIENTED_EDGE('',*,*,#508,.T.);
#800=ORIENTED_EDGE('',*,*,#584,.T.);
#801=ORIENTED_EDGE('',*,*,#583,.T.);
#802=ORIENTED_EDGE('',*,*,#485,.F.);
#803=ORIENTED_EDGE('',*,*,#585,.F.);
#804=ORIENTED_EDGE('',*,*,#586,.T.);
#805=ORIENTED_EDGE('',*,*,#585,.T.);
#806=ORIENTED_EDGE('',*,*,#484,.F.);
#807=ORIENTED_EDGE('',*,*,#570,.F.);
#808=ORIENTED_EDGE('',*,*,#586,.F.);
#809=ORIENTED_EDGE('',*,*,#569,.T.);
#810=ORIENTED_EDGE('',*,*,#573,.F.);
#811=ORIENTED_EDGE('',*,*,#575,.F.);
#812=ORIENTED_EDGE('',*,*,#576,.F.);
#813=ORIENTED_EDGE('',*,*,#578,.F.);
#814=ORIENTED_EDGE('',*,*,#580,.F.);
#815=ORIENTED_EDGE('',*,*,#582,.F.);
#816=ORIENTED_EDGE('',*,*,#584,.F.);
#817=ORIENTED_EDGE('',*,*,#512,.T.);
#818=ORIENTED_EDGE('',*,*,#525,.T.);
#819=ORIENTED_EDGE('',*,*,#523,.T.);
#820=ORIENTED_EDGE('',*,*,#526,.T.);
#821=ORIENTED_EDGE('',*,*,#533,.T.);
#822=ORIENTED_EDGE('',*,*,#537,.T.);
#823=ORIENTED_EDGE('',*,*,#540,.T.);
#824=ORIENTED_EDGE('',*,*,#543,.T.);
#825=ORIENTED_EDGE('',*,*,#545,.T.);
#826=ORIENTED_EDGE('',*,*,#549,.T.);
#827=ORIENTED_EDGE('',*,*,#552,.T.);
#828=ORIENTED_EDGE('',*,*,#555,.T.);
#829=ORIENTED_EDGE('',*,*,#557,.T.);
#830=ORIENTED_EDGE('',*,*,#561,.T.);
#831=ORIENTED_EDGE('',*,*,#564,.T.);
#832=ORIENTED_EDGE('',*,*,#567,.T.);
#833=PLANE('',#922);
#834=PLANE('',#929);
#835=PLANE('',#930);
#836=PLANE('',#931);
#837=PLANE('',#932);
#838=PLANE('',#939);
#839=PLANE('',#940);
#840=PLANE('',#941);
#841=PLANE('',#942);
#842=PLANE('',#943);
#843=PLANE('',#944);
#844=PLANE('',#945);
#845=PLANE('',#946);
#846=PLANE('',#947);
#847=PLANE('',#948);
#848=PLANE('',#958);
#849=PLANE('',#959);
#850=PLANE('',#960);
#851=PLANE('',#961);
#852=PLANE('',#962);
#853=PLANE('',#963);
#854=PLANE('',#964);
#855=PLANE('',#965);
#856=PLANE('',#966);
#857=PLANE('',#967);
#858=PLANE('',#968);
#859=PLANE('',#969);
#860=PLANE('',#970);
#861=PLANE('',#971);
#862=PLANE('',#972);
#863=PLANE('',#973);
#864=PLANE('',#974);
#865=PLANE('',#975);
#866=PLANE('',#976);
#867=PLANE('',#977);
#868=PLANE('',#978);
#869=PLANE('',#979);
#870=PLANE('',#980);
#871=PLANE('',#981);
#872=PLANE('',#982);
#873=ADVANCED_FACE('',(#52,#22,#23),#833,.F.);
#874=ADVANCED_FACE('',(#53),#18,.F.);
#875=ADVANCED_FACE('',(#54),#19,.F.);
#876=ADVANCED_FACE('',(#55),#834,.T.);
#877=ADVANCED_FACE('',(#56),#835,.T.);
#878=ADVANCED_FACE('',(#57),#836,.T.);
#879=ADVANCED_FACE('',(#58,#24,#25,#26,#27),#837,.T.);
#880=ADVANCED_FACE('',(#59),#20,.F.);
#881=ADVANCED_FACE('',(#60),#21,.F.);
#882=ADVANCED_FACE('',(#61),#838,.F.);
#883=ADVANCED_FACE('',(#62),#839,.F.);
#884=ADVANCED_FACE('',(#63),#840,.T.);
#885=ADVANCED_FACE('',(#64),#841,.F.);
#886=ADVANCED_FACE('',(#65),#842,.F.);
#887=ADVANCED_FACE('',(#66,#28),#843,.F.);
#888=ADVANCED_FACE('',(#67,#29),#844,.F.);
#889=ADVANCED_FACE('',(#68),#845,.F.);
#890=ADVANCED_FACE('',(#69),#846,.F.);
#891=ADVANCED_FACE('',(#70),#847,.F.);
#892=ADVANCED_FACE('',(#71),#15,.F.);
#893=ADVANCED_FACE('',(#72),#16,.F.);
#894=ADVANCED_FACE('',(#73),#17,.F.);
#895=ADVANCED_FACE('',(#74),#848,.T.);
#896=ADVANCED_FACE('',(#75),#849,.T.);
#897=ADVANCED_FACE('',(#76),#850,.T.);
#898=ADVANCED_FACE('',(#77),#851,.T.);
#899=ADVANCED_FACE('',(#78,#30),#852,.T.);
#900=ADVANCED_FACE('',(#79),#853,.T.);
#901=ADVANCED_FACE('',(#80),#854,.T.);
#902=ADVANCED_FACE('',(#81),#855,.T.);
#903=ADVANCED_FACE('',(#82),#856,.T.);
#904=ADVANCED_FACE('',(#83,#31),#857,.T.);
#905=ADVANCED_FACE('',(#84),#858,.T.);
#906=ADVANCED_FACE('',(#85),#859,.T.);
#907=ADVANCED_FACE('',(#86),#860,.T.);
#908=ADVANCED_FACE('',(#87),#861,.T.);
#909=ADVANCED_FACE('',(#88,#32),#862,.T.);
#910=ADVANCED_FACE('',(#89),#863,.T.);
#911=ADVANCED_FACE('',(#90),#864,.T.);
#912=ADVANCED_FACE('',(#91),#865,.T.);
#913=ADVANCED_FACE('',(#92),#866,.T.);
#914=ADVANCED_FACE('',(#93),#867,.T.);
#915=ADVANCED_FACE('',(#94),#868,.T.);
#916=ADVANCED_FACE('',(#95,#33),#869,.T.);
#917=ADVANCED_FACE('',(#96),#870,.T.);
#918=ADVANCED_FACE('',(#97),#871,.T.);
#919=ADVANCED_FACE('',(#98,#34,#35,#36,#37),#872,.F.);
#920=CLOSED_SHELL('',(#873,#874,#875,#876,#877,#878,#879,#880,#881,#882,
#883,#884,#885,#886,#887,#888,#889,#890,#891,#892,#893,#894,#895,#896,#897,
#898,#899,#900,#901,#902,#903,#904,#905,#906,#907,#908,#909,#910,#911,#912,
#913,#914,#915,#916,#917,#918,#919));
#921=AXIS2_PLACEMENT_3D('',#1216,#983,#984);
#922=AXIS2_PLACEMENT_3D('',#1217,#985,#986);
#923=AXIS2_PLACEMENT_3D('',#1229,#992,#993);
#924=AXIS2_PLACEMENT_3D('',#1231,#994,#995);
#925=AXIS2_PLACEMENT_3D('',#1232,#996,#997);
#926=AXIS2_PLACEMENT_3D('',#1235,#999,#1000);
#927=AXIS2_PLACEMENT_3D('',#1236,#1001,#1002);
#928=AXIS2_PLACEMENT_3D('',#1239,#1004,#1005);
#929=AXIS2_PLACEMENT_3D('',#1240,#1006,#1007);
#930=AXIS2_PLACEMENT_3D('',#1246,#1011,#1012);
#931=AXIS2_PLACEMENT_3D('',#1250,#1015,#1016);
#932=AXIS2_PLACEMENT_3D('',#1254,#1019,#1020);
#933=AXIS2_PLACEMENT_3D('',#1273,#1030,#1031);
#934=AXIS2_PLACEMENT_3D('',#1275,#1032,#1033);
#935=AXIS2_PLACEMENT_3D('',#1276,#1034,#1035);
#936=AXIS2_PLACEMENT_3D('',#1278,#1036,#1037);
#937=AXIS2_PLACEMENT_3D('',#1280,#1039,#1040);
#938=AXIS2_PLACEMENT_3D('',#1282,#1041,#1042);
#939=AXIS2_PLACEMENT_3D('',#1284,#1044,#1045);
#940=AXIS2_PLACEMENT_3D('',#1293,#1050,#1051);
#941=AXIS2_PLACEMENT_3D('',#1303,#1057,#1058);
#942=AXIS2_PLACEMENT_3D('',#1309,#1062,#1063);
#943=AXIS2_PLACEMENT_3D('',#1321,#1070,#1071);
#944=AXIS2_PLACEMENT_3D('',#1326,#1075,#1076);
#945=AXIS2_PLACEMENT_3D('',#1330,#1079,#1080);
#946=AXIS2_PLACEMENT_3D('',#1334,#1083,#1084);
#947=AXIS2_PLACEMENT_3D('',#1340,#1088,#1089);
#948=AXIS2_PLACEMENT_3D('',#1342,#1091,#1092);
#949=AXIS2_PLACEMENT_3D('',#1344,#1094,#1095);
#950=AXIS2_PLACEMENT_3D('',#1346,#1096,#1097);
#951=AXIS2_PLACEMENT_3D('',#1348,#1098,#1099);
#952=AXIS2_PLACEMENT_3D('',#1349,#1100,#1101);
#953=AXIS2_PLACEMENT_3D('',#1351,#1102,#1103);
#954=AXIS2_PLACEMENT_3D('',#1353,#1104,#1105);
#955=AXIS2_PLACEMENT_3D('',#1354,#1106,#1107);
#956=AXIS2_PLACEMENT_3D('',#1356,#1108,#1109);
#957=AXIS2_PLACEMENT_3D('',#1358,#1110,#1111);
#958=AXIS2_PLACEMENT_3D('',#1359,#1112,#1113);
#959=AXIS2_PLACEMENT_3D('',#1368,#1118,#1119);
#960=AXIS2_PLACEMENT_3D('',#1374,#1123,#1124);
#961=AXIS2_PLACEMENT_3D('',#1380,#1128,#1129);
#962=AXIS2_PLACEMENT_3D('',#1383,#1132,#1133);
#963=AXIS2_PLACEMENT_3D('',#1384,#1134,#1135);
#964=AXIS2_PLACEMENT_3D('',#1393,#1140,#1141);
#965=AXIS2_PLACEMENT_3D('',#1399,#1145,#1146);
#966=AXIS2_PLACEMENT_3D('',#1405,#1150,#1151);
#967=AXIS2_PLACEMENT_3D('',#1408,#1154,#1155);
#968=AXIS2_PLACEMENT_3D('',#1409,#1156,#1157);
#969=AXIS2_PLACEMENT_3D('',#1418,#1162,#1163);
#970=AXIS2_PLACEMENT_3D('',#1424,#1167,#1168);
#971=AXIS2_PLACEMENT_3D('',#1430,#1172,#1173);
#972=AXIS2_PLACEMENT_3D('',#1433,#1176,#1177);
#973=AXIS2_PLACEMENT_3D('',#1434,#1178,#1179);
#974=AXIS2_PLACEMENT_3D('',#1440,#1183,#1184);
#975=AXIS2_PLACEMENT_3D('',#1444,#1187,#1188);
#976=AXIS2_PLACEMENT_3D('',#1448,#1191,#1192);
#977=AXIS2_PLACEMENT_3D('',#1452,#1195,#1196);
#978=AXIS2_PLACEMENT_3D('',#1456,#1199,#1200);
#979=AXIS2_PLACEMENT_3D('',#1460,#1203,#1204);
#980=AXIS2_PLACEMENT_3D('',#1464,#1207,#1208);
#981=AXIS2_PLACEMENT_3D('',#1468,#1211,#1212);
#982=AXIS2_PLACEMENT_3D('',#1470,#1214,#1215);
#983=DIRECTION('axis',(0.,0.,1.));
#984=DIRECTION('refdir',(1.,0.,0.));
#985=DIRECTION('center_axis',(0.,-1.,0.));
#986=DIRECTION('ref_axis',(1.,0.,0.));
#987=DIRECTION('',(-0.866025403784438,0.,-0.5));
#988=DIRECTION('',(-0.866025403784437,0.,0.500000000000002));
#989=DIRECTION('',(-1.,0.,1.75191554467724E-8));
#990=DIRECTION('',(-1.,0.,0.));
#991=DIRECTION('',(-1.,0.,-1.86395889258736E-8));
#992=DIRECTION('center_axis',(0.,-1.,0.));
#993=DIRECTION('ref_axis',(1.,0.,0.));
#994=DIRECTION('center_axis',(0.,-1.,0.));
#995=DIRECTION('ref_axis',(1.,0.,0.));
#996=DIRECTION('center_axis',(0.,1.,0.));
#997=DIRECTION('ref_axis',(1.,0.,0.));
#998=DIRECTION('',(0.,-1.,0.));
#999=DIRECTION('center_axis',(0.,1.,0.));
#1000=DIRECTION('ref_axis',(1.,0.,0.));
#1001=DIRECTION('center_axis',(0.,1.,0.));
#1002=DIRECTION('ref_axis',(1.,0.,0.));
#1003=DIRECTION('',(0.,-1.,0.));
#1004=DIRECTION('center_axis',(0.,1.,0.));
#1005=DIRECTION('ref_axis',(1.,0.,0.));
#1006=DIRECTION('center_axis',(0.,0.,-1.));
#1007=DIRECTION('ref_axis',(-1.,0.,0.));
#1008=DIRECTION('',(-1.,0.,0.));
#1009=DIRECTION('',(0.,1.,0.));
#1010=DIRECTION('',(0.,1.,0.));
#1011=DIRECTION('center_axis',(-1.75191554467724E-8,0.,-1.));
#1012=DIRECTION('ref_axis',(-1.,0.,1.75191554467724E-8));
#1013=DIRECTION('',(-1.,0.,1.75191554467724E-8));
#1014=DIRECTION('',(0.,1.,0.));
#1015=DIRECTION('center_axis',(1.86395889258736E-8,0.,-1.));
#1016=DIRECTION('ref_axis',(-1.,0.,-1.86395889258736E-8));
#1017=DIRECTION('',(1.,0.,1.86395889258736E-8));
#1018=DIRECTION('',(0.,-1.,0.));
#1019=DIRECTION('center_axis',(0.,-1.,0.));
#1020=DIRECTION('ref_axis',(0.,0.,-1.));
#1021=DIRECTION('',(0.866025403784437,0.,-0.500000000000002));
#1022=DIRECTION('',(0.499999999999997,0.,0.86602540378444));
#1023=DIRECTION('',(-0.86602540378444,0.,0.499999999999997));
#1024=DIRECTION('',(0.,0.,1.));
#1025=DIRECTION('',(-1.,0.,0.));
#1026=DIRECTION('',(-8.00149552870194E-16,0.,-1.));
#1027=DIRECTION('',(-0.866025403784439,0.,-0.5));
#1028=DIRECTION('',(0.499999999999996,0.,-0.866025403784441));
#1029=DIRECTION('',(0.866025403784438,0.,0.5));
#1030=DIRECTION('center_axis',(0.,1.,0.));
#1031=DIRECTION('ref_axis',(-1.,0.,0.));
#1032=DIRECTION('center_axis',(0.,1.,0.));
#1033=DIRECTION('ref_axis',(-1.,0.,0.));
#1034=DIRECTION('center_axis',(0.,-1.,0.));
#1035=DIRECTION('ref_axis',(-1.,0.,0.));
#1036=DIRECTION('center_axis',(0.,-1.,0.));
#1037=DIRECTION('ref_axis',(-1.,0.,0.));
#1038=DIRECTION('',(0.,-1.,0.));
#1039=DIRECTION('center_axis',(0.,-1.,0.));
#1040=DIRECTION('ref_axis',(-1.,0.,0.));
#1041=DIRECTION('center_axis',(0.,-1.,0.));
#1042=DIRECTION('ref_axis',(-1.,0.,0.));
#1043=DIRECTION('',(0.,-1.,0.));
#1044=DIRECTION('center_axis',(0.,1.,0.));
#1045=DIRECTION('ref_axis',(1.,0.,0.));
#1046=DIRECTION('',(-1.,0.,0.));
#1047=DIRECTION('',(0.,0.,-1.));
#1048=DIRECTION('',(1.,0.,0.));
#1049=DIRECTION('',(0.,0.,-1.));
#1050=DIRECTION('center_axis',(-1.,0.,0.));
#1051=DIRECTION('ref_axis',(0.,0.,-1.));
#1052=DIRECTION('',(0.,0.,-1.));
#1053=DIRECTION('',(0.,-1.,0.));
#1054=DIRECTION('',(0.,0.,-1.));
#1055=DIRECTION('',(0.,-1.,0.));
#1056=DIRECTION('',(0.,1.,0.));
#1057=DIRECTION('center_axis',(0.,1.,0.));
#1058=DIRECTION('ref_axis',(0.,0.,1.));
#1059=DIRECTION('',(0.,0.,1.));
#1060=DIRECTION('',(1.,0.,0.));
#1061=DIRECTION('',(-1.,0.,0.));
#1062=DIRECTION('center_axis',(0.,0.,-1.));
#1063=DIRECTION('ref_axis',(1.,0.,0.));
#1064=DIRECTION('',(0.,-1.,0.));
#1065=DIRECTION('',(1.,0.,0.));
#1066=DIRECTION('',(0.,-1.,0.));
#1067=DIRECTION('',(1.,0.,0.));
#1068=DIRECTION('',(0.,-1.,0.));
#1069=DIRECTION('',(1.,0.,0.));
#1070=DIRECTION('center_axis',(1.,0.,0.));
#1071=DIRECTION('ref_axis',(0.,0.,1.));
#1072=DIRECTION('',(0.,-1.,0.));
#1073=DIRECTION('',(0.,0.,1.));
#1074=DIRECTION('',(0.,-1.,0.));
#1075=DIRECTION('center_axis',(0.,-1.,0.));
#1076=DIRECTION('ref_axis',(0.,0.,-1.));
#1077=DIRECTION('',(0.,0.,-1.));
#1078=DIRECTION('',(-1.,0.,0.));
#1079=DIRECTION('center_axis',(0.,-1.,0.));
#1080=DIRECTION('ref_axis',(0.,0.,-1.));
#1081=DIRECTION('',(-1.,0.,0.));
#1082=DIRECTION('',(0.,0.,1.));
#1083=DIRECTION('center_axis',(0.,0.,1.));
#1084=DIRECTION('ref_axis',(-1.,0.,0.));
#1085=DIRECTION('',(0.,-1.,0.));
#1086=DIRECTION('',(-1.,0.,0.));
#1087=DIRECTION('',(0.,-1.,0.));
#1088=DIRECTION('center_axis',(1.,0.,0.));
#1089=DIRECTION('ref_axis',(0.,0.,1.));
#1090=DIRECTION('',(0.,0.,1.));
#1091=DIRECTION('center_axis',(-1.,0.,0.));
#1092=DIRECTION('ref_axis',(0.,0.,-1.));
#1093=DIRECTION('',(0.,0.,-1.));
#1094=DIRECTION('center_axis',(0.,1.,0.));
#1095=DIRECTION('ref_axis',(0.,0.,-1.));
#1096=DIRECTION('center_axis',(0.,-1.,0.));
#1097=DIRECTION('ref_axis',(0.,0.,-1.));
#1098=DIRECTION('center_axis',(-1.,0.,0.));
#1099=DIRECTION('ref_axis',(0.,0.,1.));
#1100=DIRECTION('center_axis',(0.,1.,0.));
#1101=DIRECTION('ref_axis',(0.,0.,-1.));
#1102=DIRECTION('center_axis',(0.,-1.,0.));
#1103=DIRECTION('ref_axis',(0.,0.,-1.));
#1104=DIRECTION('center_axis',(-1.,0.,0.));
#1105=DIRECTION('ref_axis',(0.,0.,1.));
#1106=DIRECTION('center_axis',(0.,1.,0.));
#1107=DIRECTION('ref_axis',(0.,0.,-1.));
#1108=DIRECTION('center_axis',(0.,-1.,0.));
#1109=DIRECTION('ref_axis',(0.,0.,-1.));
#1110=DIRECTION('center_axis',(-1.,0.,0.));
#1111=DIRECTION('ref_axis',(0.,0.,1.));
#1112=DIRECTION('center_axis',(0.5,0.,-0.866025403784439));
#1113=DIRECTION('ref_axis',(-0.866025403784439,0.,-0.5));
#1114=DIRECTION('',(0.866025403784439,0.,0.5));
#1115=DIRECTION('',(0.,1.,0.));
#1116=DIRECTION('',(-0.866025403784439,0.,-0.5));
#1117=DIRECTION('',(0.,1.,0.));
#1118=DIRECTION('center_axis',(0.866025403784438,0.,0.500000000000001));
#1119=DIRECTION('ref_axis',(0.500000000000001,0.,-0.866025403784438));
#1120=DIRECTION('',(-0.500000000000001,0.,0.866025403784438));
#1121=DIRECTION('',(0.500000000000001,0.,-0.866025403784438));
#1122=DIRECTION('',(0.,1.,0.));
#1123=DIRECTION('center_axis',(-0.5,0.,0.866025403784439));
#1124=DIRECTION('ref_axis',(0.866025403784439,0.,0.5));
#1125=DIRECTION('',(-0.866025403784439,0.,-0.5));
#1126=DIRECTION('',(0.866025403784439,0.,0.5));
#1127=DIRECTION('',(0.,1.,0.));
#1128=DIRECTION('center_axis',(-0.866025403784439,0.,-0.5));
#1129=DIRECTION('ref_axis',(-0.5,0.,0.866025403784439));
#1130=DIRECTION('',(0.5,0.,-0.866025403784439));
#1131=DIRECTION('',(-0.5,0.,0.866025403784439));
#1132=DIRECTION('center_axis',(0.,1.,0.));
#1133=DIRECTION('ref_axis',(0.,0.,1.));
#1134=DIRECTION('center_axis',(0.499999999999999,0.,0.866025403784439));
#1135=DIRECTION('ref_axis',(0.866025403784439,0.,-0.499999999999999));
#1136=DIRECTION('',(-0.866025403784439,0.,0.499999999999999));
#1137=DIRECTION('',(0.,1.,0.));
#1138=DIRECTION('',(0.866025403784439,0.,-0.499999999999999));
#1139=DIRECTION('',(0.,1.,0.));
#1140=DIRECTION('center_axis',(-0.866025403784439,0.,0.5));
#1141=DIRECTION('ref_axis',(0.5,0.,0.866025403784439));
#1142=DIRECTION('',(-0.5,0.,-0.866025403784439));
#1143=DIRECTION('',(0.5,0.,0.866025403784439));
#1144=DIRECTION('',(0.,1.,0.));
#1145=DIRECTION('center_axis',(-0.5,0.,-0.866025403784439));
#1146=DIRECTION('ref_axis',(-0.866025403784438,0.,0.5));
#1147=DIRECTION('',(0.866025403784438,0.,-0.5));
#1148=DIRECTION('',(-0.866025403784439,0.,0.5));
#1149=DIRECTION('',(0.,1.,0.));
#1150=DIRECTION('center_axis',(0.866025403784438,0.,-0.5));
#1151=DIRECTION('ref_axis',(-0.5,0.,-0.866025403784438));
#1152=DIRECTION('',(0.5,0.,0.866025403784438));
#1153=DIRECTION('',(-0.5,0.,-0.866025403784438));
#1154=DIRECTION('center_axis',(0.,1.,0.));
#1155=DIRECTION('ref_axis',(0.,0.,1.));
#1156=DIRECTION('center_axis',(1.,0.,0.));
#1157=DIRECTION('ref_axis',(0.,0.,-1.));
#1158=DIRECTION('',(0.,0.,1.));
#1159=DIRECTION('',(0.,1.,0.));
#1160=DIRECTION('',(0.,0.,-1.));
#1161=DIRECTION('',(0.,1.,0.));
#1162=DIRECTION('center_axis',(0.,0.,1.));
#1163=DIRECTION('ref_axis',(1.,0.,0.));
#1164=DIRECTION('',(-1.,0.,0.));
#1165=DIRECTION('',(1.,0.,0.));
#1166=DIRECTION('',(0.,1.,0.));
#1167=DIRECTION('center_axis',(-1.,0.,0.));
#1168=DIRECTION('ref_axis',(0.,0.,1.));
#1169=DIRECTION('',(0.,0.,-1.));
#1170=DIRECTION('',(0.,0.,1.));
#1171=DIRECTION('',(0.,1.,0.));
#1172=DIRECTION('center_axis',(0.,0.,-1.));
#1173=DIRECTION('ref_axis',(-1.,0.,0.));
#1174=DIRECTION('',(1.,0.,0.));
#1175=DIRECTION('',(-1.,0.,0.));
#1176=DIRECTION('center_axis',(0.,1.,0.));
#1177=DIRECTION('ref_axis',(0.,0.,1.));
#1178=DIRECTION('center_axis',(0.86602540378444,0.,-0.499999999999997));
#1179=DIRECTION('ref_axis',(0.499999999999997,0.,0.86602540378444));
#1180=DIRECTION('',(-0.499999999999997,0.,-0.86602540378444));
#1181=DIRECTION('',(0.,-1.,0.));
#1182=DIRECTION('',(0.,-1.,0.));
#1183=DIRECTION('center_axis',(-0.500000000000002,0.,-0.866025403784438));
#1184=DIRECTION('ref_axis',(0.866025403784437,0.,-0.500000000000002));
#1185=DIRECTION('',(0.,-1.,0.));
#1186=DIRECTION('',(0.866025403784437,0.,-0.500000000000002));
#1187=DIRECTION('center_axis',(0.5,0.,-0.866025403784438));
#1188=DIRECTION('ref_axis',(0.866025403784438,0.,0.5));
#1189=DIRECTION('',(0.,-1.,0.));
#1190=DIRECTION('',(0.866025403784438,0.,0.5));
#1191=DIRECTION('center_axis',(-0.866025403784441,0.,-0.499999999999997));
#1192=DIRECTION('ref_axis',(0.499999999999997,0.,-0.866025403784441));
#1193=DIRECTION('',(0.499999999999996,0.,-0.866025403784441));
#1194=DIRECTION('',(0.,-1.,0.));
#1195=DIRECTION('center_axis',(-0.5,0.,0.866025403784439));
#1196=DIRECTION('ref_axis',(-0.866025403784439,0.,-0.5));
#1197=DIRECTION('',(-0.866025403784439,0.,-0.5));
#1198=DIRECTION('',(0.,-1.,0.));
#1199=DIRECTION('center_axis',(-1.,0.,8.00149552870194E-16));
#1200=DIRECTION('ref_axis',(-8.00149552870194E-16,0.,-1.));
#1201=DIRECTION('',(-8.00149552870194E-16,0.,-1.));
#1202=DIRECTION('',(0.,-1.,0.));
#1203=DIRECTION('center_axis',(0.,0.,1.));
#1204=DIRECTION('ref_axis',(-1.,0.,0.));
#1205=DIRECTION('',(-1.,0.,0.));
#1206=DIRECTION('',(0.,-1.,0.));
#1207=DIRECTION('center_axis',(1.,0.,0.));
#1208=DIRECTION('ref_axis',(0.,0.,1.));
#1209=DIRECTION('',(0.,0.,1.));
#1210=DIRECTION('',(0.,-1.,0.));
#1211=DIRECTION('center_axis',(0.499999999999997,0.,0.86602540378444));
#1212=DIRECTION('ref_axis',(-0.86602540378444,0.,0.499999999999997));
#1213=DIRECTION('',(-0.86602540378444,0.,0.499999999999997));
#1214=DIRECTION('center_axis',(0.,-1.,0.));
#1215=DIRECTION('ref_axis',(1.,0.,0.));
#1216=CARTESIAN_POINT('',(0.,0.,0.));
#1217=CARTESIAN_POINT('Origin',(36.165807527619,-20.,12.0000001831393));
#1218=CARTESIAN_POINT('',(36.1658075373095,-20.,20.8803387171259));
#1219=CARTESIAN_POINT('',(3.46410168174028,-20.,2.00000003845299));
#1220=CARTESIAN_POINT('',(16.1602540738613,-20.,9.33012703971655));
#1221=CARTESIAN_POINT('',(68.8675133734977,-20.,2.00000004964255));
#1222=CARTESIAN_POINT('',(38.0884572248352,-20.,19.7702964024756));
#1223=CARTESIAN_POINT('',(52.9887230289999,-20.,2.00000032782555));
#1224=CARTESIAN_POINT('',(70.0000010430813,-20.,2.00000002980232));
#1225=CARTESIAN_POINT('',(18.9887230289999,-20.,2.00000032782555));
#1226=CARTESIAN_POINT('',(52.9887230289999,-20.,2.00000032782555));
#1227=CARTESIAN_POINT('',(3.00000004470348,-20.,2.00000002980232));
#1228=CARTESIAN_POINT('',(40.988723029,-20.,10.0000003278255));
#1229=CARTESIAN_POINT('Origin',(42.988723029,-20.,10.0000003278255));
#1230=CARTESIAN_POINT('',(26.988723029,-20.,10.0000003278255));
#1231=CARTESIAN_POINT('Origin',(28.988723029,-20.,10.0000003278255));
#1232=CARTESIAN_POINT('Origin',(42.988723029,-30.,10.0000003278255));
#1233=CARTESIAN_POINT('',(40.988723029,-30.,10.0000003278255));
#1234=CARTESIAN_POINT('',(40.988723029,-30.,10.0000003278255));
#1235=CARTESIAN_POINT('Origin',(42.988723029,-30.,10.0000003278255));
#1236=CARTESIAN_POINT('Origin',(28.988723029,-30.,10.0000003278255));
#1237=CARTESIAN_POINT('',(26.988723029,-30.,10.0000003278255));
#1238=CARTESIAN_POINT('',(26.988723029,-30.,10.0000003278255));
#1239=CARTESIAN_POINT('Origin',(28.988723029,-30.,10.0000003278255));
#1240=CARTESIAN_POINT('Origin',(52.9887230289999,-30.,2.00000032782555));
#1241=CARTESIAN_POINT('',(52.9887230289999,-30.,2.00000032782555));
#1242=CARTESIAN_POINT('',(18.9887230289999,-30.,2.00000032782555));
#1243=CARTESIAN_POINT('',(52.9887230289999,-30.,2.00000032782555));
#1244=CARTESIAN_POINT('',(18.9887230289999,-30.,2.00000032782555));
#1245=CARTESIAN_POINT('',(52.9887230289999,-30.,2.00000032782555));
#1246=CARTESIAN_POINT('Origin',(68.8675133734977,-30.,2.00000004964255));
#1247=CARTESIAN_POINT('',(68.8675133734977,-30.,2.00000004964255));
#1248=CARTESIAN_POINT('',(70.0000010430813,-30.,2.00000002980232));
#1249=CARTESIAN_POINT('',(68.8675133734978,-15.,2.00000004964255));
#1250=CARTESIAN_POINT('Origin',(18.9887230289999,-30.,2.00000032782555));
#1251=CARTESIAN_POINT('',(3.46410168174028,-30.,2.00000003845299));
#1252=CARTESIAN_POINT('',(3.00000004470348,-30.,2.00000002980232));
#1253=CARTESIAN_POINT('',(3.46410168174028,-15.,2.00000003845299));
#1254=CARTESIAN_POINT('Origin',(36.1658075373095,-30.,35.0000005215406));
#1255=CARTESIAN_POINT('',(72.331615074619,-30.,-3.5527136788005E-14));
#1256=CARTESIAN_POINT('',(36.1658075373095,-30.,20.8803387171259));
#1257=CARTESIAN_POINT('',(88.0198075373095,-30.,27.1727464242992));
#1258=CARTESIAN_POINT('',(88.0198075373095,-30.,27.1727464242992));
#1259=CARTESIAN_POINT('',(51.9459461620749,-30.,48.));
#1260=CARTESIAN_POINT('',(88.0198075373095,-30.,27.1727464242992));
#1261=CARTESIAN_POINT('',(51.9459461620749,-30.,70.0000010430813));
#1262=CARTESIAN_POINT('',(51.9459461620749,-30.,48.));
#1263=CARTESIAN_POINT('',(20.038723029,-30.,70.0000010430813));
#1264=CARTESIAN_POINT('',(51.9459461620749,-30.,70.0000010430813));
#1265=CARTESIAN_POINT('',(20.038723029,-30.,47.7996907007418));
#1266=CARTESIAN_POINT('',(20.038723029,-30.,70.0000010430813));
#1267=CARTESIAN_POINT('',(-15.6881924626905,-30.,27.1727464242993));
#1268=CARTESIAN_POINT('',(20.038723029,-30.,47.7996907007418));
#1269=CARTESIAN_POINT('',(0.,-30.,0.));
#1270=CARTESIAN_POINT('',(-15.6881924626905,-30.,27.1727464242993));
#1271=CARTESIAN_POINT('',(0.,-30.,0.));
#1272=CARTESIAN_POINT('',(52.3158075373095,-30.,38.));
#1273=CARTESIAN_POINT('Origin',(51.0658075373095,-30.,38.));
#1274=CARTESIAN_POINT('',(22.5449988100507,-30.,38.0000005662441));
#1275=CARTESIAN_POINT('Origin',(21.2949988100507,-30.,38.0000005662441));
#1276=CARTESIAN_POINT('Origin',(21.2949988100507,-6.4,38.0000005662441));
#1277=CARTESIAN_POINT('',(22.5449988100507,-6.4,38.0000005662441));
#1278=CARTESIAN_POINT('Origin',(21.2949988100507,-6.4,38.0000005662441));
#1279=CARTESIAN_POINT('',(22.5449988100507,-6.4,38.0000005662441));
#1280=CARTESIAN_POINT('Origin',(51.0658075373095,-6.4,38.));
#1281=CARTESIAN_POINT('',(52.3158075373095,-6.4,38.));
#1282=CARTESIAN_POINT('Origin',(51.0658075373095,-6.4,38.));
#1283=CARTESIAN_POINT('',(52.3158075373095,-6.4,38.));
#1284=CARTESIAN_POINT('Origin',(23.7949988100507,-15.,70.0000010430813));
#1285=CARTESIAN_POINT('',(48.5661584138311,-15.,41.7));
#1286=CARTESIAN_POINT('',(23.7949988100507,-15.,41.7));
#1287=CARTESIAN_POINT('',(38.6804031736801,-15.,41.7));
#1288=CARTESIAN_POINT('',(48.5661584138311,-15.,70.0000010430813));
#1289=CARTESIAN_POINT('',(48.5661584138311,-15.,70.0000010430813));
#1290=CARTESIAN_POINT('',(23.7949988100507,-15.,70.0000010430813));
#1291=CARTESIAN_POINT('',(37.8704724860628,-15.,70.0000010430813));
#1292=CARTESIAN_POINT('',(23.7949988100507,-15.,70.0000010430813));
#1293=CARTESIAN_POINT('Origin',(23.7949988100507,0.,41.7));
#1294=CARTESIAN_POINT('',(23.7949988100507,-25.,70.0000010430813));
#1295=CARTESIAN_POINT('',(23.7949988100507,-25.,34.3));
#1296=CARTESIAN_POINT('',(23.7949988100507,-25.,70.0000010430813));
#1297=CARTESIAN_POINT('',(23.7949988100507,-6.4,34.3));
#1298=CARTESIAN_POINT('',(23.7949988100507,-20.,34.3));
#1299=CARTESIAN_POINT('',(23.7949988100507,-6.4,41.7));
#1300=CARTESIAN_POINT('',(23.7949988100507,-6.4,39.85));
#1301=CARTESIAN_POINT('',(23.7949988100507,-20.,41.7));
#1302=CARTESIAN_POINT('',(23.7949988100507,-12.5,70.0000010430813));
#1303=CARTESIAN_POINT('Origin',(36.1805786119409,-25.,38.));
#1304=CARTESIAN_POINT('',(48.5661584138311,-25.,34.3));
#1305=CARTESIAN_POINT('',(48.5661584138311,-25.,70.0000010430813));
#1306=CARTESIAN_POINT('',(48.5661584138311,-25.,36.15));
#1307=CARTESIAN_POINT('',(27.4731930746252,-25.,34.3));
#1308=CARTESIAN_POINT('',(50.256052287953,-25.,70.0000010430813));
#1309=CARTESIAN_POINT('Origin',(18.7658075373095,0.,34.3));
#1310=CARTESIAN_POINT('',(48.5661584138311,-6.4,34.3));
#1311=CARTESIAN_POINT('',(48.5661584138311,0.,34.3));
#1312=CARTESIAN_POINT('',(53.5658075373095,-6.4,34.3));
#1313=CARTESIAN_POINT('',(53.5658075373095,-6.4,34.3));
#1314=CARTESIAN_POINT('',(53.5658075373095,0.,34.3));
#1315=CARTESIAN_POINT('',(53.5658075373095,0.,34.3));
#1316=CARTESIAN_POINT('',(18.7658075373095,0.,34.3));
#1317=CARTESIAN_POINT('',(27.4658075373095,0.,34.3));
#1318=CARTESIAN_POINT('',(18.7658075373095,-6.4,34.3));
#1319=CARTESIAN_POINT('',(18.7658075373095,0.,34.3));
#1320=CARTESIAN_POINT('',(53.5658075373095,-6.4,34.3));
#1321=CARTESIAN_POINT('Origin',(48.5661584138311,0.,34.3));
#1322=CARTESIAN_POINT('',(48.5661584138311,-6.4,41.7));
#1323=CARTESIAN_POINT('',(48.5661584138311,-20.,41.7));
#1324=CARTESIAN_POINT('',(48.5661584138311,-6.4,36.15));
#1325=CARTESIAN_POINT('',(48.5661584138311,-7.5,70.0000010430813));
#1326=CARTESIAN_POINT('Origin',(36.1658075373095,-6.4,38.));
#1327=CARTESIAN_POINT('',(18.7658075373095,-6.4,41.7));
#1328=CARTESIAN_POINT('',(18.7658075373095,-6.4,34.3));
#1329=CARTESIAN_POINT('',(18.7658075373095,-6.4,41.7));
#1330=CARTESIAN_POINT('Origin',(36.1658075373095,-6.4,38.));
#1331=CARTESIAN_POINT('',(53.5658075373095,-6.4,41.7));
#1332=CARTESIAN_POINT('',(18.7658075373095,-6.4,41.7));
#1333=CARTESIAN_POINT('',(53.5658075373095,-6.4,41.7));
#1334=CARTESIAN_POINT('Origin',(53.5658075373095,0.,41.7));
#1335=CARTESIAN_POINT('',(18.7658075373095,0.,41.7));
#1336=CARTESIAN_POINT('',(18.7658075373095,0.,41.7));
#1337=CARTESIAN_POINT('',(53.5658075373095,0.,41.7));
#1338=CARTESIAN_POINT('',(44.8658075373095,0.,41.7));
#1339=CARTESIAN_POINT('',(53.5658075373095,0.,41.7));
#1340=CARTESIAN_POINT('Origin',(53.5658075373095,0.,34.3));
#1341=CARTESIAN_POINT('',(53.5658075373095,0.,34.6500002607703));
#1342=CARTESIAN_POINT('Origin',(18.7658075373095,0.,41.7));
#1343=CARTESIAN_POINT('',(18.7658075373095,0.,38.3500002607703));
#1344=CARTESIAN_POINT('Origin',(5.97000028355978,11.,21.6600010287948));
#1345=CARTESIAN_POINT('',(5.97000028355978,11.,25.6600010287948));
#1346=CARTESIAN_POINT('Origin',(5.97000028355978,11.,21.6600010287948));
#1347=CARTESIAN_POINT('',(5.97000028355978,7.,21.6600010287948));
#1348=CARTESIAN_POINT('Origin',(5.97000028355978,11.,21.6600010287948));
#1349=CARTESIAN_POINT('Origin',(66.5000009909272,11.,21.500000320375));
#1350=CARTESIAN_POINT('',(66.5000009909272,11.,25.500000320375));
#1351=CARTESIAN_POINT('Origin',(66.5000009909272,11.,21.500000320375));
#1352=CARTESIAN_POINT('',(66.5000009909272,7.,21.500000320375));
#1353=CARTESIAN_POINT('Origin',(66.5000009909272,11.,21.500000320375));
#1354=CARTESIAN_POINT('Origin',(36.1658076118153,11.,62.));
#1355=CARTESIAN_POINT('',(36.1658076118153,11.,66.));
#1356=CARTESIAN_POINT('Origin',(36.1658076118153,11.,62.));
#1357=CARTESIAN_POINT('',(36.1658076118153,7.,62.));
#1358=CARTESIAN_POINT('Origin',(36.1658076118153,11.,62.));
#1359=CARTESIAN_POINT('Origin',(12.7997821335251,0.,19.8301270189222));
#1360=CARTESIAN_POINT('',(4.13952809568069,0.,14.8301270189222));
#1361=CARTESIAN_POINT('',(12.7997821335251,0.,19.8301270189222));
#1362=CARTESIAN_POINT('',(24.8464156163102,0.,26.785254103037));
#1363=CARTESIAN_POINT('',(4.13952809568069,11.,14.8301270189222));
#1364=CARTESIAN_POINT('',(4.13952809568069,0.,14.8301270189222));
#1365=CARTESIAN_POINT('',(12.7997821335251,11.,19.8301270189222));
#1366=CARTESIAN_POINT('',(12.7997821335251,11.,19.8301270189222));
#1367=CARTESIAN_POINT('',(12.7997821335251,0.,19.8301270189222));
#1368=CARTESIAN_POINT('Origin',(7.79978213352507,0.,28.4903810567666));
#1369=CARTESIAN_POINT('',(7.79978213352507,0.,28.4903810567666));
#1370=CARTESIAN_POINT('',(9.93616135263214,0.,24.7900637050388));
#1371=CARTESIAN_POINT('',(7.79978213352507,11.,28.4903810567666));
#1372=CARTESIAN_POINT('',(7.79978213352507,11.,28.4903810567666));
#1373=CARTESIAN_POINT('',(7.79978213352507,0.,28.4903810567666));
#1374=CARTESIAN_POINT('Origin',(-0.860471904319314,0.,23.4903810567666));
#1375=CARTESIAN_POINT('',(-0.860471904319314,0.,23.4903810567666));
#1376=CARTESIAN_POINT('',(15.516288597388,0.,32.9455081408814));
#1377=CARTESIAN_POINT('',(-0.860471904319314,11.,23.4903810567666));
#1378=CARTESIAN_POINT('',(-0.860471904319314,11.,23.4903810567666));
#1379=CARTESIAN_POINT('',(-0.860471904319314,0.,23.4903810567666));
#1380=CARTESIAN_POINT('Origin',(4.13952809568069,0.,14.8301270189222));
#1381=CARTESIAN_POINT('',(3.77590731478775,0.,15.4599366861166));
#1382=CARTESIAN_POINT('',(4.13952809568069,11.,14.8301270189222));
#1383=CARTESIAN_POINT('Origin',(5.96965511460288,11.,21.6602540378444));
#1384=CARTESIAN_POINT('Origin',(64.5318329410939,0.,28.4903810567666));
#1385=CARTESIAN_POINT('',(73.1920869789383,0.,23.4903810567666));
#1386=CARTESIAN_POINT('',(64.5318329410939,0.,28.4903810567666));
#1387=CARTESIAN_POINT('',(52.4851994583087,0.,35.4455081408813));
#1388=CARTESIAN_POINT('',(73.1920869789383,11.,23.4903810567666));
#1389=CARTESIAN_POINT('',(73.1920869789383,0.,23.4903810567666));
#1390=CARTESIAN_POINT('',(64.5318329410939,11.,28.4903810567666));
#1391=CARTESIAN_POINT('',(64.5318329410939,11.,28.4903810567666));
#1392=CARTESIAN_POINT('',(64.5318329410939,0.,28.4903810567666));
#1393=CARTESIAN_POINT('Origin',(59.5318329410939,0.,19.8301270189222));
#1394=CARTESIAN_POINT('',(59.5318329410939,0.,19.8301270189222));
#1395=CARTESIAN_POINT('',(59.8954537219868,0.,20.4599366861166));
#1396=CARTESIAN_POINT('',(59.5318329410939,11.,19.8301270189222));
#1397=CARTESIAN_POINT('',(59.5318329410939,11.,19.8301270189222));
#1398=CARTESIAN_POINT('',(59.5318329410939,0.,19.8301270189222));
#1399=CARTESIAN_POINT('Origin',(68.1920869789383,0.,14.8301270189222));
#1400=CARTESIAN_POINT('',(68.1920869789383,0.,14.8301270189222));
#1401=CARTESIAN_POINT('',(51.8153264772309,0.,24.2852541030369));
#1402=CARTESIAN_POINT('',(68.1920869789383,11.,14.8301270189222));
#1403=CARTESIAN_POINT('',(68.1920869789383,11.,14.8301270189222));
#1404=CARTESIAN_POINT('',(68.1920869789383,0.,14.8301270189222));
#1405=CARTESIAN_POINT('Origin',(73.1920869789383,0.,23.4903810567666));
#1406=CARTESIAN_POINT('',(71.0557077598312,0.,19.7900637050388));
#1407=CARTESIAN_POINT('',(73.1920869789383,11.,23.4903810567666));
#1408=CARTESIAN_POINT('Origin',(66.3619599600161,11.,21.6602540378444));
#1409=CARTESIAN_POINT('Origin',(41.1658076863211,0.,67.));
#1410=CARTESIAN_POINT('',(41.1658076863211,0.,57.));
#1411=CARTESIAN_POINT('',(41.1658076863211,0.,67.));
#1412=CARTESIAN_POINT('',(41.1658076863211,0.,51.0000002607703));
#1413=CARTESIAN_POINT('',(41.1658076863211,11.,57.));
#1414=CARTESIAN_POINT('',(41.1658076863211,0.,57.));
#1415=CARTESIAN_POINT('',(41.1658076863211,11.,67.));
#1416=CARTESIAN_POINT('',(41.1658076863211,11.,67.));
#1417=CARTESIAN_POINT('',(41.1658076863211,0.,67.));
#1418=CARTESIAN_POINT('Origin',(31.1658075373095,0.,67.));
#1419=CARTESIAN_POINT('',(31.1658075373095,0.,67.));
#1420=CARTESIAN_POINT('',(33.6658075373095,0.,67.));
#1421=CARTESIAN_POINT('',(31.1658075373095,11.,67.));
#1422=CARTESIAN_POINT('',(31.1658075373095,11.,67.));
#1423=CARTESIAN_POINT('',(31.1658075373095,0.,67.));
#1424=CARTESIAN_POINT('Origin',(31.1658075373095,0.,57.));
#1425=CARTESIAN_POINT('',(31.1658075373095,0.,57.));
#1426=CARTESIAN_POINT('',(31.1658075373095,0.,46.0000002607703));
#1427=CARTESIAN_POINT('',(31.1658075373095,11.,57.));
#1428=CARTESIAN_POINT('',(31.1658075373095,11.,57.));
#1429=CARTESIAN_POINT('',(31.1658075373095,0.,57.));
#1430=CARTESIAN_POINT('Origin',(41.1658076863211,0.,57.));
#1431=CARTESIAN_POINT('',(38.6658076118153,0.,57.));
#1432=CARTESIAN_POINT('',(41.1658076863211,11.,57.));
#1433=CARTESIAN_POINT('Origin',(36.1658076118153,11.,62.));
#1434=CARTESIAN_POINT('Origin',(72.331615074619,0.,-3.5527136788005E-14));
#1435=CARTESIAN_POINT('',(88.0198075373095,0.,27.1727464242992));
#1436=CARTESIAN_POINT('',(72.331615074619,0.,-3.5527136788005E-14));
#1437=CARTESIAN_POINT('',(88.0198075373095,0.,27.1727464242992));
#1438=CARTESIAN_POINT('',(88.0198075373095,0.,27.1727464242992));
#1439=CARTESIAN_POINT('',(72.331615074619,0.,-3.5527136788005E-14));
#1440=CARTESIAN_POINT('Origin',(36.1658075373095,0.,20.8803387171259));
#1441=CARTESIAN_POINT('',(36.1658075373095,0.,20.8803387171259));
#1442=CARTESIAN_POINT('',(36.1658075373095,0.,20.8803387171259));
#1443=CARTESIAN_POINT('',(36.1658075373095,0.,20.8803387171259));
#1444=CARTESIAN_POINT('Origin',(0.,0.,0.));
#1445=CARTESIAN_POINT('',(0.,0.,0.));
#1446=CARTESIAN_POINT('',(0.,0.,0.));
#1447=CARTESIAN_POINT('',(0.,0.,0.));
#1448=CARTESIAN_POINT('Origin',(-15.6881924626905,0.,27.1727464242993));
#1449=CARTESIAN_POINT('',(-15.6881924626905,0.,27.1727464242993));
#1450=CARTESIAN_POINT('',(-15.6881924626905,0.,27.1727464242993));
#1451=CARTESIAN_POINT('',(-15.6881924626905,0.,27.1727464242993));
#1452=CARTESIAN_POINT('Origin',(20.038723029,0.,47.7996907007418));
#1453=CARTESIAN_POINT('',(20.038723029,0.,47.7996907007418));
#1454=CARTESIAN_POINT('',(20.038723029,0.,47.7996907007418));
#1455=CARTESIAN_POINT('',(20.038723029,0.,47.7996907007418));
#1456=CARTESIAN_POINT('Origin',(20.038723029,0.,70.0000010430813));
#1457=CARTESIAN_POINT('',(20.038723029,0.,70.0000010430813));
#1458=CARTESIAN_POINT('',(20.038723029,0.,70.0000010430813));
#1459=CARTESIAN_POINT('',(20.038723029,0.,70.0000010430813));
#1460=CARTESIAN_POINT('Origin',(51.9459461620749,0.,70.0000010430813));
#1461=CARTESIAN_POINT('',(51.9459461620749,0.,70.0000010430813));
#1462=CARTESIAN_POINT('',(51.9459461620749,0.,70.0000010430813));
#1463=CARTESIAN_POINT('',(51.9459461620749,0.,70.0000010430813));
#1464=CARTESIAN_POINT('Origin',(51.9459461620749,0.,48.));
#1465=CARTESIAN_POINT('',(51.9459461620749,0.,48.));
#1466=CARTESIAN_POINT('',(51.9459461620749,0.,48.));
#1467=CARTESIAN_POINT('',(51.9459461620749,0.,48.));
#1468=CARTESIAN_POINT('Origin',(88.0198075373095,0.,27.1727464242992));
#1469=CARTESIAN_POINT('',(88.0198075373095,0.,27.1727464242992));
#1470=CARTESIAN_POINT('Origin',(36.1658075373095,0.,35.0000005215406));
#1471=UNCERTAINTY_MEASURE_WITH_UNIT(LENGTH_MEASURE(0.01),#1475,
'DISTANCE_ACCURACY_VALUE',
'Maximum model space distance between geometric entities at asserted c
onnectivities');
#1472=UNCERTAINTY_MEASURE_WITH_UNIT(LENGTH_MEASURE(0.01),#1475,
'DISTANCE_ACCURACY_VALUE',
'Maximum model space distance between geometric entities at asserted c
onnectivities');
#1473=(
GEOMETRIC_REPRESENTATION_CONTEXT(3)
GLOBAL_UNCERTAINTY_ASSIGNED_CONTEXT((#1471))
GLOBAL_UNIT_ASSIGNED_CONTEXT((#1475,#1476,#1477))
REPRESENTATION_CONTEXT('','3D')
);
#1474=(
GEOMETRIC_REPRESENTATION_CONTEXT(3)
GLOBAL_UNCERTAINTY_ASSIGNED_CONTEXT((#1472))
GLOBAL_UNIT_ASSIGNED_CONTEXT((#1475,#1476,#1477))
REPRESENTATION_CONTEXT('','3D')
);
#1475=(
LENGTH_UNIT()
NAMED_UNIT(*)
SI_UNIT(.MILLI.,.METRE.)
);
#1476=(
NAMED_UNIT(*)
PLANE_ANGLE_UNIT()
SI_UNIT($,.RADIAN.)
);
#1477=(
NAMED_UNIT(*)
SI_UNIT($,.STERADIAN.)
SOLID_ANGLE_UNIT()
);
#1478=SHAPE_DEFINITION_REPRESENTATION(#1479,#1480);
#1479=PRODUCT_DEFINITION_SHAPE('',$,#1482);
#1480=SHAPE_REPRESENTATION('',(#921),#1473);
#1481=PRODUCT_DEFINITION_CONTEXT('part definition',#1486,'design');
#1482=PRODUCT_DEFINITION('2025-12-28-12-13-52-752','Toolhead',#1483,#1481);
#1483=PRODUCT_DEFINITION_FORMATION('',$,#1488);
#1484=PRODUCT_RELATED_PRODUCT_CATEGORY('Toolhead','Toolhead',(#1488));
#1485=APPLICATION_PROTOCOL_DEFINITION('international standard',
'automotive_design',2009,#1486);
#1486=APPLICATION_CONTEXT(
'Core Data for Automotive Mechanical Design Process');
#1487=PRODUCT_CONTEXT('part definition',#1486,'mechanical');
#1488=PRODUCT('2025-12-28-12-13-52-752','Toolhead',$,(#1487));
#1489=PRESENTATION_STYLE_ASSIGNMENT((#1490));
#1490=SURFACE_STYLE_USAGE(.BOTH.,#1491);
#1491=SURFACE_SIDE_STYLE('',(#1492));
#1492=SURFACE_STYLE_FILL_AREA(#1493);
#1493=FILL_AREA_STYLE('Steel - Satin',(#1494));
#1494=FILL_AREA_STYLE_COLOUR('Steel - Satin',#1495);
#1495=COLOUR_RGB('Steel - Satin',0.627450980392157,0.627450980392157,0.627450980392157);
ENDSEC;
END-ISO-10303-21;
