ISO-10303-21;
HEADER;
/* Generated by software containing ST-Developer
 * from STEP Tools, Inc. (www.steptools.com) 
 */

FILE_DESCRIPTION(
/* description */ (''),
/* implementation_level */ '2;1');

FILE_NAME(
/* name */ 'Y carriage stepper motor.step',
/* time_stamp */ '2025-12-30T18:47:06+11:00',
/* author */ (''),
/* organization */ (''),
/* preprocessor_version */ 'ST-DEVELOPER v20.1',
/* originating_system */ 'Autodesk Translation Framework v14.21.0.0',
/* authorisation */ '');

FILE_SCHEMA (('AUTOMOTIVE_DESIGN { 1 0 10303 214 3 1 1 }'));
ENDSEC;

DATA;
#10=MECHANICAL_DESIGN_GEOMETRIC_PRESENTATION_REPRESENTATION('',(#17),#1311);
#11=ITEM_DEFINED_TRANSFORMATION($,$,#807,#876);
#12=(
REPRESENTATION_RELATIONSHIP($,$,#1322,#1321)
REPRESENTATION_RELATIONSHIP_WITH_TRANSFORMATION(#11)
SHAPE_REPRESENTATION_RELATIONSHIP()
);
#13=CONTEXT_DEPENDENT_SHAPE_REPRESENTATION(#12,#1320);
#14=NEXT_ASSEMBLY_USAGE_OCCURRENCE('Y carriage idler pulley:1',
'Y carriage idler pulley:1','Y carriage idler pulley:1',#1324,#1325,
'Y carriage idler pulley:1');
#15=SHAPE_REPRESENTATION_RELATIONSHIP('SRR','None',#1322,#16);
#16=ADVANCED_BREP_SHAPE_REPRESENTATION('',(#18),#1310);
#17=STYLED_ITEM('',(#1335),#18);
#18=MANIFOLD_SOLID_BREP('Body5',#793);
#19=FACE_BOUND('',#121,.T.);
#20=FACE_BOUND('',#124,.T.);
#21=FACE_BOUND('',#128,.T.);
#22=FACE_BOUND('',#131,.T.);
#23=FACE_BOUND('',#134,.T.);
#24=FACE_BOUND('',#135,.T.);
#25=FACE_BOUND('',#136,.T.);
#26=FACE_BOUND('',#137,.T.);
#27=FACE_BOUND('',#138,.T.);
#28=FACE_BOUND('',#139,.T.);
#29=FACE_BOUND('',#140,.T.);
#30=FACE_BOUND('',#141,.T.);
#31=FACE_BOUND('',#142,.T.);
#32=FACE_BOUND('',#143,.T.);
#33=FACE_BOUND('',#144,.T.);
#34=FACE_BOUND('',#145,.T.);
#35=FACE_BOUND('',#153,.T.);
#36=FACE_BOUND('',#154,.T.);
#37=FACE_BOUND('',#158,.T.);
#38=FACE_BOUND('',#159,.T.);
#39=FACE_BOUND('',#161,.T.);
#40=FACE_BOUND('',#162,.T.);
#41=FACE_BOUND('',#166,.T.);
#42=FACE_BOUND('',#167,.T.);
#43=FACE_BOUND('',#181,.T.);
#44=FACE_BOUND('',#182,.T.);
#45=FACE_BOUND('',#183,.T.);
#46=FACE_BOUND('',#184,.T.);
#47=FACE_BOUND('',#185,.T.);
#48=FACE_BOUND('',#186,.T.);
#49=FACE_BOUND('',#187,.T.);
#50=FACE_BOUND('',#188,.T.);
#51=PLANE('',#814);
#52=PLANE('',#815);
#53=PLANE('',#816);
#54=PLANE('',#817);
#55=PLANE('',#818);
#56=PLANE('',#819);
#57=PLANE('',#820);
#58=PLANE('',#821);
#59=PLANE('',#822);
#60=PLANE('',#823);
#61=PLANE('',#824);
#62=PLANE('',#845);
#63=PLANE('',#846);
#64=PLANE('',#847);
#65=PLANE('',#848);
#66=PLANE('',#849);
#67=PLANE('',#850);
#68=PLANE('',#851);
#69=PLANE('',#852);
#70=PLANE('',#853);
#71=PLANE('',#854);
#72=PLANE('',#871);
#73=PLANE('',#872);
#74=PLANE('',#873);
#75=PLANE('',#874);
#76=PLANE('',#875);
#77=FACE_OUTER_BOUND('',#117,.T.);
#78=FACE_OUTER_BOUND('',#118,.T.);
#79=FACE_OUTER_BOUND('',#119,.T.);
#80=FACE_OUTER_BOUND('',#120,.T.);
#81=FACE_OUTER_BOUND('',#122,.T.);
#82=FACE_OUTER_BOUND('',#123,.T.);
#83=FACE_OUTER_BOUND('',#125,.T.);
#84=FACE_OUTER_BOUND('',#126,.T.);
#85=FACE_OUTER_BOUND('',#127,.T.);
#86=FACE_OUTER_BOUND('',#129,.T.);
#87=FACE_OUTER_BOUND('',#130,.T.);
#88=FACE_OUTER_BOUND('',#132,.T.);
#89=FACE_OUTER_BOUND('',#133,.T.);
#90=FACE_OUTER_BOUND('',#146,.T.);
#91=FACE_OUTER_BOUND('',#147,.T.);
#92=FACE_OUTER_BOUND('',#148,.T.);
#93=FACE_OUTER_BOUND('',#149,.T.);
#94=FACE_OUTER_BOUND('',#150,.T.);
#95=FACE_OUTER_BOUND('',#151,.T.);
#96=FACE_OUTER_BOUND('',#152,.T.);
#97=FACE_OUTER_BOUND('',#155,.T.);
#98=FACE_OUTER_BOUND('',#156,.T.);
#99=FACE_OUTER_BOUND('',#157,.T.);
#100=FACE_OUTER_BOUND('',#160,.T.);
#101=FACE_OUTER_BOUND('',#163,.T.);
#102=FACE_OUTER_BOUND('',#164,.T.);
#103=FACE_OUTER_BOUND('',#165,.T.);
#104=FACE_OUTER_BOUND('',#168,.T.);
#105=FACE_OUTER_BOUND('',#169,.T.);
#106=FACE_OUTER_BOUND('',#170,.T.);
#107=FACE_OUTER_BOUND('',#171,.T.);
#108=FACE_OUTER_BOUND('',#172,.T.);
#109=FACE_OUTER_BOUND('',#173,.T.);
#110=FACE_OUTER_BOUND('',#174,.T.);
#111=FACE_OUTER_BOUND('',#175,.T.);
#112=FACE_OUTER_BOUND('',#176,.T.);
#113=FACE_OUTER_BOUND('',#177,.T.);
#114=FACE_OUTER_BOUND('',#178,.T.);
#115=FACE_OUTER_BOUND('',#179,.T.);
#116=FACE_OUTER_BOUND('',#180,.T.);
#117=EDGE_LOOP('',(#535,#536,#537,#538));
#118=EDGE_LOOP('',(#539,#540,#541,#542));
#119=EDGE_LOOP('',(#543,#544,#545,#546));
#120=EDGE_LOOP('',(#547,#548,#549,#550));
#121=EDGE_LOOP('',(#551));
#122=EDGE_LOOP('',(#552,#553,#554,#555));
#123=EDGE_LOOP('',(#556,#557,#558,#559));
#124=EDGE_LOOP('',(#560));
#125=EDGE_LOOP('',(#561,#562,#563,#564));
#126=EDGE_LOOP('',(#565,#566,#567,#568));
#127=EDGE_LOOP('',(#569,#570,#571,#572));
#128=EDGE_LOOP('',(#573));
#129=EDGE_LOOP('',(#574,#575,#576,#577));
#130=EDGE_LOOP('',(#578,#579,#580,#581));
#131=EDGE_LOOP('',(#582));
#132=EDGE_LOOP('',(#583,#584,#585,#586));
#133=EDGE_LOOP('',(#587,#588,#589,#590));
#134=EDGE_LOOP('',(#591,#592,#593,#594));
#135=EDGE_LOOP('',(#595,#596,#597,#598));
#136=EDGE_LOOP('',(#599));
#137=EDGE_LOOP('',(#600));
#138=EDGE_LOOP('',(#601));
#139=EDGE_LOOP('',(#602));
#140=EDGE_LOOP('',(#603));
#141=EDGE_LOOP('',(#604));
#142=EDGE_LOOP('',(#605));
#143=EDGE_LOOP('',(#606));
#144=EDGE_LOOP('',(#607,#608,#609,#610));
#145=EDGE_LOOP('',(#611,#612,#613,#614));
#146=EDGE_LOOP('',(#615,#616,#617,#618));
#147=EDGE_LOOP('',(#619,#620,#621,#622));
#148=EDGE_LOOP('',(#623,#624,#625,#626));
#149=EDGE_LOOP('',(#627,#628,#629,#630));
#150=EDGE_LOOP('',(#631,#632,#633,#634));
#151=EDGE_LOOP('',(#635,#636,#637,#638));
#152=EDGE_LOOP('',(#639,#640,#641,#642));
#153=EDGE_LOOP('',(#643));
#154=EDGE_LOOP('',(#644));
#155=EDGE_LOOP('',(#645,#646,#647,#648));
#156=EDGE_LOOP('',(#649,#650,#651,#652));
#157=EDGE_LOOP('',(#653,#654,#655,#656));
#158=EDGE_LOOP('',(#657));
#159=EDGE_LOOP('',(#658));
#160=EDGE_LOOP('',(#659,#660,#661,#662));
#161=EDGE_LOOP('',(#663));
#162=EDGE_LOOP('',(#664));
#163=EDGE_LOOP('',(#665,#666,#667,#668));
#164=EDGE_LOOP('',(#669,#670,#671,#672));
#165=EDGE_LOOP('',(#673,#674,#675,#676));
#166=EDGE_LOOP('',(#677));
#167=EDGE_LOOP('',(#678));
#168=EDGE_LOOP('',(#679,#680,#681,#682));
#169=EDGE_LOOP('',(#683,#684,#685,#686));
#170=EDGE_LOOP('',(#687,#688,#689,#690));
#171=EDGE_LOOP('',(#691,#692,#693,#694));
#172=EDGE_LOOP('',(#695,#696,#697,#698));
#173=EDGE_LOOP('',(#699,#700,#701,#702));
#174=EDGE_LOOP('',(#703,#704,#705,#706));
#175=EDGE_LOOP('',(#707,#708,#709,#710));
#176=EDGE_LOOP('',(#711,#712,#713,#714));
#177=EDGE_LOOP('',(#715,#716,#717,#718));
#178=EDGE_LOOP('',(#719,#720,#721,#722));
#179=EDGE_LOOP('',(#723,#724,#725,#726));
#180=EDGE_LOOP('',(#727,#728,#729,#730));
#181=EDGE_LOOP('',(#731));
#182=EDGE_LOOP('',(#732));
#183=EDGE_LOOP('',(#733));
#184=EDGE_LOOP('',(#734));
#185=EDGE_LOOP('',(#735));
#186=EDGE_LOOP('',(#736));
#187=EDGE_LOOP('',(#737));
#188=EDGE_LOOP('',(#738));
#189=LINE('',#1099,#263);
#190=LINE('',#1105,#264);
#191=LINE('',#1110,#265);
#192=LINE('',#1112,#266);
#193=LINE('',#1114,#267);
#194=LINE('',#1115,#268);
#195=LINE('',#1118,#269);
#196=LINE('',#1120,#270);
#197=LINE('',#1121,#271);
#198=LINE('',#1124,#272);
#199=LINE('',#1126,#273);
#200=LINE('',#1127,#274);
#201=LINE('',#1129,#275);
#202=LINE('',#1130,#276);
#203=LINE('',#1135,#277);
#204=LINE('',#1137,#278);
#205=LINE('',#1139,#279);
#206=LINE('',#1140,#280);
#207=LINE('',#1143,#281);
#208=LINE('',#1145,#282);
#209=LINE('',#1146,#283);
#210=LINE('',#1149,#284);
#211=LINE('',#1151,#285);
#212=LINE('',#1152,#286);
#213=LINE('',#1154,#287);
#214=LINE('',#1155,#288);
#215=LINE('',#1160,#289);
#216=LINE('',#1162,#290);
#217=LINE('',#1164,#291);
#218=LINE('',#1165,#292);
#219=LINE('',#1184,#293);
#220=LINE('',#1186,#294);
#221=LINE('',#1188,#295);
#222=LINE('',#1189,#296);
#223=LINE('',#1192,#297);
#224=LINE('',#1194,#298);
#225=LINE('',#1196,#299);
#226=LINE('',#1197,#300);
#227=LINE('',#1202,#301);
#228=LINE('',#1208,#302);
#229=LINE('',#1214,#303);
#230=LINE('',#1220,#304);
#231=LINE('',#1225,#305);
#232=LINE('',#1227,#306);
#233=LINE('',#1229,#307);
#234=LINE('',#1230,#308);
#235=LINE('',#1234,#309);
#236=LINE('',#1236,#310);
#237=LINE('',#1238,#311);
#238=LINE('',#1239,#312);
#239=LINE('',#1241,#313);
#240=LINE('',#1242,#314);
#241=LINE('',#1244,#315);
#242=LINE('',#1246,#316);
#243=LINE('',#1249,#317);
#244=LINE('',#1250,#318);
#245=LINE('',#1252,#319);
#246=LINE('',#1254,#320);
#247=LINE('',#1258,#321);
#248=LINE('',#1262,#322);
#249=LINE('',#1266,#323);
#250=LINE('',#1270,#324);
#251=LINE('',#1274,#325);
#252=LINE('',#1278,#326);
#253=LINE('',#1282,#327);
#254=LINE('',#1286,#328);
#255=LINE('',#1291,#329);
#256=LINE('',#1292,#330);
#257=LINE('',#1293,#331);
#258=LINE('',#1296,#332);
#259=LINE('',#1297,#333);
#260=LINE('',#1300,#334);
#261=LINE('',#1301,#335);
#262=LINE('',#1303,#336);
#263=VECTOR('',#885,2.75);
#264=VECTOR('',#892,2.75);
#265=VECTOR('',#897,10.);
#266=VECTOR('',#898,10.);
#267=VECTOR('',#899,10.);
#268=VECTOR('',#900,10.);
#269=VECTOR('',#903,10.);
#270=VECTOR('',#904,10.);
#271=VECTOR('',#905,10.);
#272=VECTOR('',#908,10.);
#273=VECTOR('',#909,10.);
#274=VECTOR('',#910,10.);
#275=VECTOR('',#913,10.);
#276=VECTOR('',#914,10.);
#277=VECTOR('',#919,10.);
#278=VECTOR('',#920,10.);
#279=VECTOR('',#921,10.);
#280=VECTOR('',#922,10.);
#281=VECTOR('',#925,10.);
#282=VECTOR('',#926,10.);
#283=VECTOR('',#927,10.);
#284=VECTOR('',#930,10.);
#285=VECTOR('',#931,10.);
#286=VECTOR('',#932,10.);
#287=VECTOR('',#935,10.);
#288=VECTOR('',#936,10.);
#289=VECTOR('',#941,10.);
#290=VECTOR('',#942,10.);
#291=VECTOR('',#943,10.);
#292=VECTOR('',#944,10.);
#293=VECTOR('',#961,10.);
#294=VECTOR('',#962,10.);
#295=VECTOR('',#963,10.);
#296=VECTOR('',#964,10.);
#297=VECTOR('',#965,10.);
#298=VECTOR('',#966,10.);
#299=VECTOR('',#967,10.);
#300=VECTOR('',#968,10.);
#301=VECTOR('',#973,2.75);
#302=VECTOR('',#980,2.75);
#303=VECTOR('',#987,2.75);
#304=VECTOR('',#994,2.75);
#305=VECTOR('',#999,10.);
#306=VECTOR('',#1000,10.);
#307=VECTOR('',#1001,10.);
#308=VECTOR('',#1002,10.);
#309=VECTOR('',#1005,10.);
#310=VECTOR('',#1006,10.);
#311=VECTOR('',#1007,10.);
#312=VECTOR('',#1008,10.);
#313=VECTOR('',#1011,10.);
#314=VECTOR('',#1012,10.);
#315=VECTOR('',#1015,10.);
#316=VECTOR('',#1018,10.);
#317=VECTOR('',#1023,10.);
#318=VECTOR('',#1024,10.);
#319=VECTOR('',#1027,10.);
#320=VECTOR('',#1030,10.);
#321=VECTOR('',#1035,2.1);
#322=VECTOR('',#1040,2.1);
#323=VECTOR('',#1045,2.1);
#324=VECTOR('',#1050,2.1);
#325=VECTOR('',#1055,2.09999999999999);
#326=VECTOR('',#1060,2.1);
#327=VECTOR('',#1065,2.1);
#328=VECTOR('',#1070,2.09999999999999);
#329=VECTOR('',#1075,10.);
#330=VECTOR('',#1076,10.);
#331=VECTOR('',#1077,10.);
#332=VECTOR('',#1080,10.);
#333=VECTOR('',#1081,10.);
#334=VECTOR('',#1084,10.);
#335=VECTOR('',#1085,10.);
#336=VECTOR('',#1088,10.);
#337=CIRCLE('',#809,2.75);
#338=CIRCLE('',#810,2.75);
#339=CIRCLE('',#812,2.75);
#340=CIRCLE('',#813,2.75);
#341=CIRCLE('',#825,2.1);
#342=CIRCLE('',#826,2.1);
#343=CIRCLE('',#827,2.1);
#344=CIRCLE('',#828,2.1);
#345=CIRCLE('',#829,2.09999999999999);
#346=CIRCLE('',#830,2.1);
#347=CIRCLE('',#831,2.1);
#348=CIRCLE('',#832,2.09999999999999);
#349=CIRCLE('',#834,2.75);
#350=CIRCLE('',#835,2.75);
#351=CIRCLE('',#837,2.75);
#352=CIRCLE('',#838,2.75);
#353=CIRCLE('',#840,2.75);
#354=CIRCLE('',#841,2.75);
#355=CIRCLE('',#843,2.75);
#356=CIRCLE('',#844,2.75);
#357=CIRCLE('',#856,2.1);
#358=CIRCLE('',#858,2.1);
#359=CIRCLE('',#860,2.1);
#360=CIRCLE('',#862,2.1);
#361=CIRCLE('',#864,2.09999999999999);
#362=CIRCLE('',#866,2.1);
#363=CIRCLE('',#868,2.1);
#364=CIRCLE('',#870,2.09999999999999);
#365=VERTEX_POINT('',#1096);
#366=VERTEX_POINT('',#1098);
#367=VERTEX_POINT('',#1102);
#368=VERTEX_POINT('',#1104);
#369=VERTEX_POINT('',#1108);
#370=VERTEX_POINT('',#1109);
#371=VERTEX_POINT('',#1111);
#372=VERTEX_POINT('',#1113);
#373=VERTEX_POINT('',#1117);
#374=VERTEX_POINT('',#1119);
#375=VERTEX_POINT('',#1123);
#376=VERTEX_POINT('',#1125);
#377=VERTEX_POINT('',#1133);
#378=VERTEX_POINT('',#1134);
#379=VERTEX_POINT('',#1136);
#380=VERTEX_POINT('',#1138);
#381=VERTEX_POINT('',#1142);
#382=VERTEX_POINT('',#1144);
#383=VERTEX_POINT('',#1148);
#384=VERTEX_POINT('',#1150);
#385=VERTEX_POINT('',#1158);
#386=VERTEX_POINT('',#1159);
#387=VERTEX_POINT('',#1161);
#388=VERTEX_POINT('',#1163);
#389=VERTEX_POINT('',#1166);
#390=VERTEX_POINT('',#1168);
#391=VERTEX_POINT('',#1170);
#392=VERTEX_POINT('',#1172);
#393=VERTEX_POINT('',#1174);
#394=VERTEX_POINT('',#1176);
#395=VERTEX_POINT('',#1178);
#396=VERTEX_POINT('',#1180);
#397=VERTEX_POINT('',#1182);
#398=VERTEX_POINT('',#1183);
#399=VERTEX_POINT('',#1185);
#400=VERTEX_POINT('',#1187);
#401=VERTEX_POINT('',#1190);
#402=VERTEX_POINT('',#1191);
#403=VERTEX_POINT('',#1193);
#404=VERTEX_POINT('',#1195);
#405=VERTEX_POINT('',#1199);
#406=VERTEX_POINT('',#1201);
#407=VERTEX_POINT('',#1205);
#408=VERTEX_POINT('',#1207);
#409=VERTEX_POINT('',#1211);
#410=VERTEX_POINT('',#1213);
#411=VERTEX_POINT('',#1217);
#412=VERTEX_POINT('',#1219);
#413=VERTEX_POINT('',#1223);
#414=VERTEX_POINT('',#1224);
#415=VERTEX_POINT('',#1226);
#416=VERTEX_POINT('',#1228);
#417=VERTEX_POINT('',#1232);
#418=VERTEX_POINT('',#1233);
#419=VERTEX_POINT('',#1235);
#420=VERTEX_POINT('',#1237);
#421=VERTEX_POINT('',#1257);
#422=VERTEX_POINT('',#1261);
#423=VERTEX_POINT('',#1265);
#424=VERTEX_POINT('',#1269);
#425=VERTEX_POINT('',#1273);
#426=VERTEX_POINT('',#1277);
#427=VERTEX_POINT('',#1281);
#428=VERTEX_POINT('',#1285);
#429=VERTEX_POINT('',#1289);
#430=VERTEX_POINT('',#1290);
#431=VERTEX_POINT('',#1295);
#432=VERTEX_POINT('',#1299);
#433=EDGE_CURVE('',#365,#365,#337,.T.);
#434=EDGE_CURVE('',#365,#366,#189,.T.);
#435=EDGE_CURVE('',#366,#366,#338,.T.);
#436=EDGE_CURVE('',#367,#367,#339,.T.);
#437=EDGE_CURVE('',#367,#368,#190,.T.);
#438=EDGE_CURVE('',#368,#368,#340,.T.);
#439=EDGE_CURVE('',#369,#370,#191,.T.);
#440=EDGE_CURVE('',#369,#371,#192,.T.);
#441=EDGE_CURVE('',#372,#371,#193,.T.);
#442=EDGE_CURVE('',#370,#372,#194,.T.);
#443=EDGE_CURVE('',#370,#373,#195,.T.);
#444=EDGE_CURVE('',#374,#372,#196,.T.);
#445=EDGE_CURVE('',#373,#374,#197,.T.);
#446=EDGE_CURVE('',#373,#375,#198,.T.);
#447=EDGE_CURVE('',#376,#374,#199,.T.);
#448=EDGE_CURVE('',#375,#376,#200,.T.);
#449=EDGE_CURVE('',#375,#369,#201,.T.);
#450=EDGE_CURVE('',#371,#376,#202,.T.);
#451=EDGE_CURVE('',#377,#378,#203,.T.);
#452=EDGE_CURVE('',#377,#379,#204,.T.);
#453=EDGE_CURVE('',#380,#379,#205,.T.);
#454=EDGE_CURVE('',#378,#380,#206,.T.);
#455=EDGE_CURVE('',#378,#381,#207,.T.);
#456=EDGE_CURVE('',#382,#380,#208,.T.);
#457=EDGE_CURVE('',#381,#382,#209,.T.);
#458=EDGE_CURVE('',#381,#383,#210,.T.);
#459=EDGE_CURVE('',#384,#382,#211,.T.);
#460=EDGE_CURVE('',#383,#384,#212,.T.);
#461=EDGE_CURVE('',#383,#377,#213,.T.);
#462=EDGE_CURVE('',#379,#384,#214,.T.);
#463=EDGE_CURVE('',#385,#386,#215,.T.);
#464=EDGE_CURVE('',#386,#387,#216,.T.);
#465=EDGE_CURVE('',#387,#388,#217,.T.);
#466=EDGE_CURVE('',#388,#385,#218,.T.);
#467=EDGE_CURVE('',#389,#389,#341,.T.);
#468=EDGE_CURVE('',#390,#390,#342,.T.);
#469=EDGE_CURVE('',#391,#391,#343,.T.);
#470=EDGE_CURVE('',#392,#392,#344,.T.);
#471=EDGE_CURVE('',#393,#393,#345,.T.);
#472=EDGE_CURVE('',#394,#394,#346,.T.);
#473=EDGE_CURVE('',#395,#395,#347,.T.);
#474=EDGE_CURVE('',#396,#396,#348,.T.);
#475=EDGE_CURVE('',#397,#398,#219,.T.);
#476=EDGE_CURVE('',#398,#399,#220,.T.);
#477=EDGE_CURVE('',#399,#400,#221,.T.);
#478=EDGE_CURVE('',#400,#397,#222,.T.);
#479=EDGE_CURVE('',#401,#402,#223,.T.);
#480=EDGE_CURVE('',#402,#403,#224,.T.);
#481=EDGE_CURVE('',#403,#404,#225,.T.);
#482=EDGE_CURVE('',#404,#401,#226,.T.);
#483=EDGE_CURVE('',#405,#405,#349,.T.);
#484=EDGE_CURVE('',#405,#406,#227,.T.);
#485=EDGE_CURVE('',#406,#406,#350,.T.);
#486=EDGE_CURVE('',#407,#407,#351,.T.);
#487=EDGE_CURVE('',#407,#408,#228,.T.);
#488=EDGE_CURVE('',#408,#408,#352,.T.);
#489=EDGE_CURVE('',#409,#409,#353,.T.);
#490=EDGE_CURVE('',#409,#410,#229,.T.);
#491=EDGE_CURVE('',#410,#410,#354,.T.);
#492=EDGE_CURVE('',#411,#411,#355,.T.);
#493=EDGE_CURVE('',#411,#412,#230,.T.);
#494=EDGE_CURVE('',#412,#412,#356,.T.);
#495=EDGE_CURVE('',#413,#414,#231,.T.);
#496=EDGE_CURVE('',#414,#415,#232,.T.);
#497=EDGE_CURVE('',#415,#416,#233,.T.);
#498=EDGE_CURVE('',#416,#413,#234,.T.);
#499=EDGE_CURVE('',#417,#418,#235,.T.);
#500=EDGE_CURVE('',#418,#419,#236,.T.);
#501=EDGE_CURVE('',#419,#420,#237,.T.);
#502=EDGE_CURVE('',#420,#417,#238,.T.);
#503=EDGE_CURVE('',#402,#420,#239,.T.);
#504=EDGE_CURVE('',#403,#419,#240,.T.);
#505=EDGE_CURVE('',#401,#417,#241,.T.);
#506=EDGE_CURVE('',#404,#418,#242,.T.);
#507=EDGE_CURVE('',#398,#416,#243,.T.);
#508=EDGE_CURVE('',#399,#415,#244,.T.);
#509=EDGE_CURVE('',#397,#413,#245,.T.);
#510=EDGE_CURVE('',#400,#414,#246,.T.);
#511=EDGE_CURVE('',#389,#421,#247,.T.);
#512=EDGE_CURVE('',#421,#421,#357,.T.);
#513=EDGE_CURVE('',#390,#422,#248,.T.);
#514=EDGE_CURVE('',#422,#422,#358,.T.);
#515=EDGE_CURVE('',#391,#423,#249,.T.);
#516=EDGE_CURVE('',#423,#423,#359,.T.);
#517=EDGE_CURVE('',#392,#424,#250,.T.);
#518=EDGE_CURVE('',#424,#424,#360,.T.);
#519=EDGE_CURVE('',#393,#425,#251,.T.);
#520=EDGE_CURVE('',#425,#425,#361,.T.);
#521=EDGE_CURVE('',#394,#426,#252,.T.);
#522=EDGE_CURVE('',#426,#426,#362,.T.);
#523=EDGE_CURVE('',#395,#427,#253,.T.);
#524=EDGE_CURVE('',#427,#427,#363,.T.);
#525=EDGE_CURVE('',#396,#428,#254,.T.);
#526=EDGE_CURVE('',#428,#428,#364,.T.);
#527=EDGE_CURVE('',#429,#430,#255,.T.);
#528=EDGE_CURVE('',#430,#386,#256,.T.);
#529=EDGE_CURVE('',#429,#385,#257,.T.);
#530=EDGE_CURVE('',#431,#429,#258,.T.);
#531=EDGE_CURVE('',#431,#388,#259,.T.);
#532=EDGE_CURVE('',#432,#431,#260,.T.);
#533=EDGE_CURVE('',#432,#387,#261,.T.);
#534=EDGE_CURVE('',#430,#432,#262,.T.);
#535=ORIENTED_EDGE('',*,*,#433,.F.);
#536=ORIENTED_EDGE('',*,*,#434,.T.);
#537=ORIENTED_EDGE('',*,*,#435,.F.);
#538=ORIENTED_EDGE('',*,*,#434,.F.);
#539=ORIENTED_EDGE('',*,*,#436,.F.);
#540=ORIENTED_EDGE('',*,*,#437,.T.);
#541=ORIENTED_EDGE('',*,*,#438,.F.);
#542=ORIENTED_EDGE('',*,*,#437,.F.);
#543=ORIENTED_EDGE('',*,*,#439,.F.);
#544=ORIENTED_EDGE('',*,*,#440,.T.);
#545=ORIENTED_EDGE('',*,*,#441,.F.);
#546=ORIENTED_EDGE('',*,*,#442,.F.);
#547=ORIENTED_EDGE('',*,*,#443,.F.);
#548=ORIENTED_EDGE('',*,*,#442,.T.);
#549=ORIENTED_EDGE('',*,*,#444,.F.);
#550=ORIENTED_EDGE('',*,*,#445,.F.);
#551=ORIENTED_EDGE('',*,*,#438,.T.);
#552=ORIENTED_EDGE('',*,*,#446,.F.);
#553=ORIENTED_EDGE('',*,*,#445,.T.);
#554=ORIENTED_EDGE('',*,*,#447,.F.);
#555=ORIENTED_EDGE('',*,*,#448,.F.);
#556=ORIENTED_EDGE('',*,*,#449,.F.);
#557=ORIENTED_EDGE('',*,*,#448,.T.);
#558=ORIENTED_EDGE('',*,*,#450,.F.);
#559=ORIENTED_EDGE('',*,*,#440,.F.);
#560=ORIENTED_EDGE('',*,*,#436,.T.);
#561=ORIENTED_EDGE('',*,*,#450,.T.);
#562=ORIENTED_EDGE('',*,*,#447,.T.);
#563=ORIENTED_EDGE('',*,*,#444,.T.);
#564=ORIENTED_EDGE('',*,*,#441,.T.);
#565=ORIENTED_EDGE('',*,*,#451,.F.);
#566=ORIENTED_EDGE('',*,*,#452,.T.);
#567=ORIENTED_EDGE('',*,*,#453,.F.);
#568=ORIENTED_EDGE('',*,*,#454,.F.);
#569=ORIENTED_EDGE('',*,*,#455,.F.);
#570=ORIENTED_EDGE('',*,*,#454,.T.);
#571=ORIENTED_EDGE('',*,*,#456,.F.);
#572=ORIENTED_EDGE('',*,*,#457,.F.);
#573=ORIENTED_EDGE('',*,*,#435,.T.);
#574=ORIENTED_EDGE('',*,*,#458,.F.);
#575=ORIENTED_EDGE('',*,*,#457,.T.);
#576=ORIENTED_EDGE('',*,*,#459,.F.);
#577=ORIENTED_EDGE('',*,*,#460,.F.);
#578=ORIENTED_EDGE('',*,*,#461,.F.);
#579=ORIENTED_EDGE('',*,*,#460,.T.);
#580=ORIENTED_EDGE('',*,*,#462,.F.);
#581=ORIENTED_EDGE('',*,*,#452,.F.);
#582=ORIENTED_EDGE('',*,*,#433,.T.);
#583=ORIENTED_EDGE('',*,*,#462,.T.);
#584=ORIENTED_EDGE('',*,*,#459,.T.);
#585=ORIENTED_EDGE('',*,*,#456,.T.);
#586=ORIENTED_EDGE('',*,*,#453,.T.);
#587=ORIENTED_EDGE('',*,*,#463,.T.);
#588=ORIENTED_EDGE('',*,*,#464,.T.);
#589=ORIENTED_EDGE('',*,*,#465,.T.);
#590=ORIENTED_EDGE('',*,*,#466,.T.);
#591=ORIENTED_EDGE('',*,*,#439,.T.);
#592=ORIENTED_EDGE('',*,*,#443,.T.);
#593=ORIENTED_EDGE('',*,*,#446,.T.);
#594=ORIENTED_EDGE('',*,*,#449,.T.);
#595=ORIENTED_EDGE('',*,*,#451,.T.);
#596=ORIENTED_EDGE('',*,*,#455,.T.);
#597=ORIENTED_EDGE('',*,*,#458,.T.);
#598=ORIENTED_EDGE('',*,*,#461,.T.);
#599=ORIENTED_EDGE('',*,*,#467,.T.);
#600=ORIENTED_EDGE('',*,*,#468,.T.);
#601=ORIENTED_EDGE('',*,*,#469,.T.);
#602=ORIENTED_EDGE('',*,*,#470,.T.);
#603=ORIENTED_EDGE('',*,*,#471,.T.);
#604=ORIENTED_EDGE('',*,*,#472,.T.);
#605=ORIENTED_EDGE('',*,*,#473,.T.);
#606=ORIENTED_EDGE('',*,*,#474,.T.);
#607=ORIENTED_EDGE('',*,*,#475,.T.);
#608=ORIENTED_EDGE('',*,*,#476,.T.);
#609=ORIENTED_EDGE('',*,*,#477,.T.);
#610=ORIENTED_EDGE('',*,*,#478,.T.);
#611=ORIENTED_EDGE('',*,*,#479,.T.);
#612=ORIENTED_EDGE('',*,*,#480,.T.);
#613=ORIENTED_EDGE('',*,*,#481,.T.);
#614=ORIENTED_EDGE('',*,*,#482,.T.);
#615=ORIENTED_EDGE('',*,*,#483,.F.);
#616=ORIENTED_EDGE('',*,*,#484,.T.);
#617=ORIENTED_EDGE('',*,*,#485,.F.);
#618=ORIENTED_EDGE('',*,*,#484,.F.);
#619=ORIENTED_EDGE('',*,*,#486,.F.);
#620=ORIENTED_EDGE('',*,*,#487,.T.);
#621=ORIENTED_EDGE('',*,*,#488,.F.);
#622=ORIENTED_EDGE('',*,*,#487,.F.);
#623=ORIENTED_EDGE('',*,*,#489,.F.);
#624=ORIENTED_EDGE('',*,*,#490,.T.);
#625=ORIENTED_EDGE('',*,*,#491,.F.);
#626=ORIENTED_EDGE('',*,*,#490,.F.);
#627=ORIENTED_EDGE('',*,*,#492,.F.);
#628=ORIENTED_EDGE('',*,*,#493,.T.);
#629=ORIENTED_EDGE('',*,*,#494,.F.);
#630=ORIENTED_EDGE('',*,*,#493,.F.);
#631=ORIENTED_EDGE('',*,*,#495,.T.);
#632=ORIENTED_EDGE('',*,*,#496,.T.);
#633=ORIENTED_EDGE('',*,*,#497,.T.);
#634=ORIENTED_EDGE('',*,*,#498,.T.);
#635=ORIENTED_EDGE('',*,*,#499,.T.);
#636=ORIENTED_EDGE('',*,*,#500,.T.);
#637=ORIENTED_EDGE('',*,*,#501,.T.);
#638=ORIENTED_EDGE('',*,*,#502,.T.);
#639=ORIENTED_EDGE('',*,*,#480,.F.);
#640=ORIENTED_EDGE('',*,*,#503,.T.);
#641=ORIENTED_EDGE('',*,*,#501,.F.);
#642=ORIENTED_EDGE('',*,*,#504,.F.);
#643=ORIENTED_EDGE('',*,*,#485,.T.);
#644=ORIENTED_EDGE('',*,*,#488,.T.);
#645=ORIENTED_EDGE('',*,*,#479,.F.);
#646=ORIENTED_EDGE('',*,*,#505,.T.);
#647=ORIENTED_EDGE('',*,*,#502,.F.);
#648=ORIENTED_EDGE('',*,*,#503,.F.);
#649=ORIENTED_EDGE('',*,*,#481,.F.);
#650=ORIENTED_EDGE('',*,*,#504,.T.);
#651=ORIENTED_EDGE('',*,*,#500,.F.);
#652=ORIENTED_EDGE('',*,*,#506,.F.);
#653=ORIENTED_EDGE('',*,*,#482,.F.);
#654=ORIENTED_EDGE('',*,*,#506,.T.);
#655=ORIENTED_EDGE('',*,*,#499,.F.);
#656=ORIENTED_EDGE('',*,*,#505,.F.);
#657=ORIENTED_EDGE('',*,*,#483,.T.);
#658=ORIENTED_EDGE('',*,*,#486,.T.);
#659=ORIENTED_EDGE('',*,*,#476,.F.);
#660=ORIENTED_EDGE('',*,*,#507,.T.);
#661=ORIENTED_EDGE('',*,*,#497,.F.);
#662=ORIENTED_EDGE('',*,*,#508,.F.);
#663=ORIENTED_EDGE('',*,*,#491,.T.);
#664=ORIENTED_EDGE('',*,*,#494,.T.);
#665=ORIENTED_EDGE('',*,*,#475,.F.);
#666=ORIENTED_EDGE('',*,*,#509,.T.);
#667=ORIENTED_EDGE('',*,*,#498,.F.);
#668=ORIENTED_EDGE('',*,*,#507,.F.);
#669=ORIENTED_EDGE('',*,*,#477,.F.);
#670=ORIENTED_EDGE('',*,*,#508,.T.);
#671=ORIENTED_EDGE('',*,*,#496,.F.);
#672=ORIENTED_EDGE('',*,*,#510,.F.);
#673=ORIENTED_EDGE('',*,*,#478,.F.);
#674=ORIENTED_EDGE('',*,*,#510,.T.);
#675=ORIENTED_EDGE('',*,*,#495,.F.);
#676=ORIENTED_EDGE('',*,*,#509,.F.);
#677=ORIENTED_EDGE('',*,*,#489,.T.);
#678=ORIENTED_EDGE('',*,*,#492,.T.);
#679=ORIENTED_EDGE('',*,*,#467,.F.);
#680=ORIENTED_EDGE('',*,*,#511,.T.);
#681=ORIENTED_EDGE('',*,*,#512,.T.);
#682=ORIENTED_EDGE('',*,*,#511,.F.);
#683=ORIENTED_EDGE('',*,*,#468,.F.);
#684=ORIENTED_EDGE('',*,*,#513,.T.);
#685=ORIENTED_EDGE('',*,*,#514,.T.);
#686=ORIENTED_EDGE('',*,*,#513,.F.);
#687=ORIENTED_EDGE('',*,*,#469,.F.);
#688=ORIENTED_EDGE('',*,*,#515,.T.);
#689=ORIENTED_EDGE('',*,*,#516,.T.);
#690=ORIENTED_EDGE('',*,*,#515,.F.);
#691=ORIENTED_EDGE('',*,*,#470,.F.);
#692=ORIENTED_EDGE('',*,*,#517,.T.);
#693=ORIENTED_EDGE('',*,*,#518,.T.);
#694=ORIENTED_EDGE('',*,*,#517,.F.);
#695=ORIENTED_EDGE('',*,*,#471,.F.);
#696=ORIENTED_EDGE('',*,*,#519,.T.);
#697=ORIENTED_EDGE('',*,*,#520,.T.);
#698=ORIENTED_EDGE('',*,*,#519,.F.);
#699=ORIENTED_EDGE('',*,*,#472,.F.);
#700=ORIENTED_EDGE('',*,*,#521,.T.);
#701=ORIENTED_EDGE('',*,*,#522,.T.);
#702=ORIENTED_EDGE('',*,*,#521,.F.);
#703=ORIENTED_EDGE('',*,*,#473,.F.);
#704=ORIENTED_EDGE('',*,*,#523,.T.);
#705=ORIENTED_EDGE('',*,*,#524,.T.);
#706=ORIENTED_EDGE('',*,*,#523,.F.);
#707=ORIENTED_EDGE('',*,*,#474,.F.);
#708=ORIENTED_EDGE('',*,*,#525,.T.);
#709=ORIENTED_EDGE('',*,*,#526,.T.);
#710=ORIENTED_EDGE('',*,*,#525,.F.);
#711=ORIENTED_EDGE('',*,*,#527,.T.);
#712=ORIENTED_EDGE('',*,*,#528,.T.);
#713=ORIENTED_EDGE('',*,*,#463,.F.);
#714=ORIENTED_EDGE('',*,*,#529,.F.);
#715=ORIENTED_EDGE('',*,*,#530,.T.);
#716=ORIENTED_EDGE('',*,*,#529,.T.);
#717=ORIENTED_EDGE('',*,*,#466,.F.);
#718=ORIENTED_EDGE('',*,*,#531,.F.);
#719=ORIENTED_EDGE('',*,*,#532,.T.);
#720=ORIENTED_EDGE('',*,*,#531,.T.);
#721=ORIENTED_EDGE('',*,*,#465,.F.);
#722=ORIENTED_EDGE('',*,*,#533,.F.);
#723=ORIENTED_EDGE('',*,*,#534,.T.);
#724=ORIENTED_EDGE('',*,*,#533,.T.);
#725=ORIENTED_EDGE('',*,*,#464,.F.);
#726=ORIENTED_EDGE('',*,*,#528,.F.);
#727=ORIENTED_EDGE('',*,*,#534,.F.);
#728=ORIENTED_EDGE('',*,*,#527,.F.);
#729=ORIENTED_EDGE('',*,*,#530,.F.);
#730=ORIENTED_EDGE('',*,*,#532,.F.);
#731=ORIENTED_EDGE('',*,*,#526,.F.);
#732=ORIENTED_EDGE('',*,*,#524,.F.);
#733=ORIENTED_EDGE('',*,*,#522,.F.);
#734=ORIENTED_EDGE('',*,*,#520,.F.);
#735=ORIENTED_EDGE('',*,*,#518,.F.);
#736=ORIENTED_EDGE('',*,*,#516,.F.);
#737=ORIENTED_EDGE('',*,*,#514,.F.);
#738=ORIENTED_EDGE('',*,*,#512,.F.);
#739=CYLINDRICAL_SURFACE('',#808,2.75);
#740=CYLINDRICAL_SURFACE('',#811,2.75);
#741=CYLINDRICAL_SURFACE('',#833,2.75);
#742=CYLINDRICAL_SURFACE('',#836,2.75);
#743=CYLINDRICAL_SURFACE('',#839,2.75);
#744=CYLINDRICAL_SURFACE('',#842,2.75);
#745=CYLINDRICAL_SURFACE('',#855,2.1);
#746=CYLINDRICAL_SURFACE('',#857,2.1);
#747=CYLINDRICAL_SURFACE('',#859,2.1);
#748=CYLINDRICAL_SURFACE('',#861,2.1);
#749=CYLINDRICAL_SURFACE('',#863,2.09999999999999);
#750=CYLINDRICAL_SURFACE('',#865,2.1);
#751=CYLINDRICAL_SURFACE('',#867,2.1);
#752=CYLINDRICAL_SURFACE('',#869,2.09999999999999);
#753=ADVANCED_FACE('',(#77),#739,.F.);
#754=ADVANCED_FACE('',(#78),#740,.F.);
#755=ADVANCED_FACE('',(#79),#51,.T.);
#756=ADVANCED_FACE('',(#80,#19),#52,.T.);
#757=ADVANCED_FACE('',(#81),#53,.T.);
#758=ADVANCED_FACE('',(#82,#20),#54,.T.);
#759=ADVANCED_FACE('',(#83),#55,.T.);
#760=ADVANCED_FACE('',(#84),#56,.T.);
#761=ADVANCED_FACE('',(#85,#21),#57,.T.);
#762=ADVANCED_FACE('',(#86),#58,.T.);
#763=ADVANCED_FACE('',(#87,#22),#59,.T.);
#764=ADVANCED_FACE('',(#88),#60,.T.);
#765=ADVANCED_FACE('',(#89,#23,#24,#25,#26,#27,#28,#29,#30,#31,#32,#33,
#34),#61,.T.);
#766=ADVANCED_FACE('',(#90),#741,.F.);
#767=ADVANCED_FACE('',(#91),#742,.F.);
#768=ADVANCED_FACE('',(#92),#743,.F.);
#769=ADVANCED_FACE('',(#93),#744,.F.);
#770=ADVANCED_FACE('',(#94),#62,.T.);
#771=ADVANCED_FACE('',(#95),#63,.T.);
#772=ADVANCED_FACE('',(#96,#35,#36),#64,.T.);
#773=ADVANCED_FACE('',(#97),#65,.T.);
#774=ADVANCED_FACE('',(#98),#66,.T.);
#775=ADVANCED_FACE('',(#99,#37,#38),#67,.T.);
#776=ADVANCED_FACE('',(#100,#39,#40),#68,.T.);
#777=ADVANCED_FACE('',(#101),#69,.T.);
#778=ADVANCED_FACE('',(#102),#70,.T.);
#779=ADVANCED_FACE('',(#103,#41,#42),#71,.T.);
#780=ADVANCED_FACE('',(#104),#745,.F.);
#781=ADVANCED_FACE('',(#105),#746,.F.);
#782=ADVANCED_FACE('',(#106),#747,.F.);
#783=ADVANCED_FACE('',(#107),#748,.F.);
#784=ADVANCED_FACE('',(#108),#749,.F.);
#785=ADVANCED_FACE('',(#109),#750,.F.);
#786=ADVANCED_FACE('',(#110),#751,.F.);
#787=ADVANCED_FACE('',(#111),#752,.F.);
#788=ADVANCED_FACE('',(#112),#72,.T.);
#789=ADVANCED_FACE('',(#113),#73,.T.);
#790=ADVANCED_FACE('',(#114),#74,.T.);
#791=ADVANCED_FACE('',(#115),#75,.T.);
#792=ADVANCED_FACE('',(#116,#43,#44,#45,#46,#47,#48,#49,#50),#76,.F.);
#793=CLOSED_SHELL('',(#753,#754,#755,#756,#757,#758,#759,#760,#761,#762,
#763,#764,#765,#766,#767,#768,#769,#770,#771,#772,#773,#774,#775,#776,#777,
#778,#779,#780,#781,#782,#783,#784,#785,#786,#787,#788,#789,#790,#791,#792));
#794=DERIVED_UNIT_ELEMENT(#796,1.);
#795=DERIVED_UNIT_ELEMENT(#1313,-3.);
#796=(
MASS_UNIT()
NAMED_UNIT(*)
SI_UNIT(.KILO.,.GRAM.)
);
#797=DERIVED_UNIT((#794,#795));
#798=MEASURE_REPRESENTATION_ITEM('density measure',
POSITIVE_RATIO_MEASURE(7850.),#797);
#799=PROPERTY_DEFINITION_REPRESENTATION(#804,#801);
#800=PROPERTY_DEFINITION_REPRESENTATION(#805,#802);
#801=REPRESENTATION('material name',(#803),#1310);
#802=REPRESENTATION('density',(#798),#1310);
#803=DESCRIPTIVE_REPRESENTATION_ITEM('Steel','Steel');
#804=PROPERTY_DEFINITION('material property','material name',#1325);
#805=PROPERTY_DEFINITION('material property','density of part',#1325);
#806=AXIS2_PLACEMENT_3D('',#1093,#877,#878);
#807=AXIS2_PLACEMENT_3D('',#1094,#879,#880);
#808=AXIS2_PLACEMENT_3D('',#1095,#881,#882);
#809=AXIS2_PLACEMENT_3D('',#1097,#883,#884);
#810=AXIS2_PLACEMENT_3D('',#1100,#886,#887);
#811=AXIS2_PLACEMENT_3D('',#1101,#888,#889);
#812=AXIS2_PLACEMENT_3D('',#1103,#890,#891);
#813=AXIS2_PLACEMENT_3D('',#1106,#893,#894);
#814=AXIS2_PLACEMENT_3D('',#1107,#895,#896);
#815=AXIS2_PLACEMENT_3D('',#1116,#901,#902);
#816=AXIS2_PLACEMENT_3D('',#1122,#906,#907);
#817=AXIS2_PLACEMENT_3D('',#1128,#911,#912);
#818=AXIS2_PLACEMENT_3D('',#1131,#915,#916);
#819=AXIS2_PLACEMENT_3D('',#1132,#917,#918);
#820=AXIS2_PLACEMENT_3D('',#1141,#923,#924);
#821=AXIS2_PLACEMENT_3D('',#1147,#928,#929);
#822=AXIS2_PLACEMENT_3D('',#1153,#933,#934);
#823=AXIS2_PLACEMENT_3D('',#1156,#937,#938);
#824=AXIS2_PLACEMENT_3D('',#1157,#939,#940);
#825=AXIS2_PLACEMENT_3D('',#1167,#945,#946);
#826=AXIS2_PLACEMENT_3D('',#1169,#947,#948);
#827=AXIS2_PLACEMENT_3D('',#1171,#949,#950);
#828=AXIS2_PLACEMENT_3D('',#1173,#951,#952);
#829=AXIS2_PLACEMENT_3D('',#1175,#953,#954);
#830=AXIS2_PLACEMENT_3D('',#1177,#955,#956);
#831=AXIS2_PLACEMENT_3D('',#1179,#957,#958);
#832=AXIS2_PLACEMENT_3D('',#1181,#959,#960);
#833=AXIS2_PLACEMENT_3D('',#1198,#969,#970);
#834=AXIS2_PLACEMENT_3D('',#1200,#971,#972);
#835=AXIS2_PLACEMENT_3D('',#1203,#974,#975);
#836=AXIS2_PLACEMENT_3D('',#1204,#976,#977);
#837=AXIS2_PLACEMENT_3D('',#1206,#978,#979);
#838=AXIS2_PLACEMENT_3D('',#1209,#981,#982);
#839=AXIS2_PLACEMENT_3D('',#1210,#983,#984);
#840=AXIS2_PLACEMENT_3D('',#1212,#985,#986);
#841=AXIS2_PLACEMENT_3D('',#1215,#988,#989);
#842=AXIS2_PLACEMENT_3D('',#1216,#990,#991);
#843=AXIS2_PLACEMENT_3D('',#1218,#992,#993);
#844=AXIS2_PLACEMENT_3D('',#1221,#995,#996);
#845=AXIS2_PLACEMENT_3D('',#1222,#997,#998);
#846=AXIS2_PLACEMENT_3D('',#1231,#1003,#1004);
#847=AXIS2_PLACEMENT_3D('',#1240,#1009,#1010);
#848=AXIS2_PLACEMENT_3D('',#1243,#1013,#1014);
#849=AXIS2_PLACEMENT_3D('',#1245,#1016,#1017);
#850=AXIS2_PLACEMENT_3D('',#1247,#1019,#1020);
#851=AXIS2_PLACEMENT_3D('',#1248,#1021,#1022);
#852=AXIS2_PLACEMENT_3D('',#1251,#1025,#1026);
#853=AXIS2_PLACEMENT_3D('',#1253,#1028,#1029);
#854=AXIS2_PLACEMENT_3D('',#1255,#1031,#1032);
#855=AXIS2_PLACEMENT_3D('',#1256,#1033,#1034);
#856=AXIS2_PLACEMENT_3D('',#1259,#1036,#1037);
#857=AXIS2_PLACEMENT_3D('',#1260,#1038,#1039);
#858=AXIS2_PLACEMENT_3D('',#1263,#1041,#1042);
#859=AXIS2_PLACEMENT_3D('',#1264,#1043,#1044);
#860=AXIS2_PLACEMENT_3D('',#1267,#1046,#1047);
#861=AXIS2_PLACEMENT_3D('',#1268,#1048,#1049);
#862=AXIS2_PLACEMENT_3D('',#1271,#1051,#1052);
#863=AXIS2_PLACEMENT_3D('',#1272,#1053,#1054);
#864=AXIS2_PLACEMENT_3D('',#1275,#1056,#1057);
#865=AXIS2_PLACEMENT_3D('',#1276,#1058,#1059);
#866=AXIS2_PLACEMENT_3D('',#1279,#1061,#1062);
#867=AXIS2_PLACEMENT_3D('',#1280,#1063,#1064);
#868=AXIS2_PLACEMENT_3D('',#1283,#1066,#1067);
#869=AXIS2_PLACEMENT_3D('',#1284,#1068,#1069);
#870=AXIS2_PLACEMENT_3D('',#1287,#1071,#1072);
#871=AXIS2_PLACEMENT_3D('',#1288,#1073,#1074);
#872=AXIS2_PLACEMENT_3D('',#1294,#1078,#1079);
#873=AXIS2_PLACEMENT_3D('',#1298,#1082,#1083);
#874=AXIS2_PLACEMENT_3D('',#1302,#1086,#1087);
#875=AXIS2_PLACEMENT_3D('',#1304,#1089,#1090);
#876=AXIS2_PLACEMENT_3D('',#1305,#1091,#1092);
#877=DIRECTION('axis',(0.,0.,1.));
#878=DIRECTION('refdir',(1.,0.,0.));
#879=DIRECTION('axis',(0.,0.,1.));
#880=DIRECTION('refdir',(1.,0.,0.));
#881=DIRECTION('center_axis',(0.,1.,0.));
#882=DIRECTION('ref_axis',(1.,0.,0.));
#883=DIRECTION('center_axis',(0.,1.,0.));
#884=DIRECTION('ref_axis',(1.,0.,0.));
#885=DIRECTION('',(0.,1.,0.));
#886=DIRECTION('center_axis',(0.,-1.,0.));
#887=DIRECTION('ref_axis',(1.,0.,0.));
#888=DIRECTION('center_axis',(0.,1.,0.));
#889=DIRECTION('ref_axis',(1.,0.,0.));
#890=DIRECTION('center_axis',(0.,1.,0.));
#891=DIRECTION('ref_axis',(1.,0.,0.));
#892=DIRECTION('',(0.,1.,0.));
#893=DIRECTION('center_axis',(0.,-1.,0.));
#894=DIRECTION('ref_axis',(1.,0.,0.));
#895=DIRECTION('center_axis',(-1.,0.,0.));
#896=DIRECTION('ref_axis',(0.,-1.,0.));
#897=DIRECTION('',(0.,1.,0.));
#898=DIRECTION('',(0.,0.,1.));
#899=DIRECTION('',(0.,-1.,0.));
#900=DIRECTION('',(0.,0.,1.));
#901=DIRECTION('center_axis',(0.,1.,0.));
#902=DIRECTION('ref_axis',(-1.,0.,0.));
#903=DIRECTION('',(1.,0.,0.));
#904=DIRECTION('',(-1.,0.,0.));
#905=DIRECTION('',(0.,0.,1.));
#906=DIRECTION('center_axis',(1.,0.,0.));
#907=DIRECTION('ref_axis',(0.,1.,0.));
#908=DIRECTION('',(0.,-1.,0.));
#909=DIRECTION('',(0.,1.,0.));
#910=DIRECTION('',(0.,0.,1.));
#911=DIRECTION('center_axis',(0.,-1.,0.));
#912=DIRECTION('ref_axis',(1.,0.,0.));
#913=DIRECTION('',(-1.,0.,0.));
#914=DIRECTION('',(1.,0.,0.));
#915=DIRECTION('center_axis',(0.,0.,1.));
#916=DIRECTION('ref_axis',(1.,0.,0.));
#917=DIRECTION('center_axis',(-1.,0.,0.));
#918=DIRECTION('ref_axis',(0.,-1.,0.));
#919=DIRECTION('',(0.,1.,0.));
#920=DIRECTION('',(0.,0.,1.));
#921=DIRECTION('',(0.,-1.,0.));
#922=DIRECTION('',(0.,0.,1.));
#923=DIRECTION('center_axis',(0.,1.,0.));
#924=DIRECTION('ref_axis',(-1.,0.,0.));
#925=DIRECTION('',(1.,0.,0.));
#926=DIRECTION('',(-1.,0.,0.));
#927=DIRECTION('',(0.,0.,1.));
#928=DIRECTION('center_axis',(1.,0.,0.));
#929=DIRECTION('ref_axis',(0.,1.,0.));
#930=DIRECTION('',(0.,-1.,0.));
#931=DIRECTION('',(0.,1.,0.));
#932=DIRECTION('',(0.,0.,1.));
#933=DIRECTION('center_axis',(0.,-1.,0.));
#934=DIRECTION('ref_axis',(1.,0.,0.));
#935=DIRECTION('',(-1.,0.,0.));
#936=DIRECTION('',(1.,0.,0.));
#937=DIRECTION('center_axis',(0.,0.,1.));
#938=DIRECTION('ref_axis',(1.,0.,0.));
#939=DIRECTION('center_axis',(0.,0.,1.));
#940=DIRECTION('ref_axis',(1.,0.,0.));
#941=DIRECTION('',(1.,-2.73910036535074E-33,0.));
#942=DIRECTION('',(0.,1.,0.));
#943=DIRECTION('',(-1.,0.,0.));
#944=DIRECTION('',(0.,-1.,0.));
#945=DIRECTION('center_axis',(0.,0.,-1.));
#946=DIRECTION('ref_axis',(1.,0.,0.));
#947=DIRECTION('center_axis',(0.,0.,-1.));
#948=DIRECTION('ref_axis',(1.,0.,0.));
#949=DIRECTION('center_axis',(0.,0.,-1.));
#950=DIRECTION('ref_axis',(1.,0.,0.));
#951=DIRECTION('center_axis',(0.,0.,-1.));
#952=DIRECTION('ref_axis',(1.,0.,0.));
#953=DIRECTION('center_axis',(0.,0.,-1.));
#954=DIRECTION('ref_axis',(1.,0.,0.));
#955=DIRECTION('center_axis',(0.,0.,-1.));
#956=DIRECTION('ref_axis',(1.,0.,0.));
#957=DIRECTION('center_axis',(0.,0.,-1.));
#958=DIRECTION('ref_axis',(1.,0.,0.));
#959=DIRECTION('center_axis',(0.,0.,-1.));
#960=DIRECTION('ref_axis',(1.,0.,0.));
#961=DIRECTION('',(0.,1.,0.));
#962=DIRECTION('',(1.,0.,0.));
#963=DIRECTION('',(0.,-1.,0.));
#964=DIRECTION('',(-1.,0.,0.));
#965=DIRECTION('',(0.,1.,0.));
#966=DIRECTION('',(1.,0.,0.));
#967=DIRECTION('',(0.,-1.,0.));
#968=DIRECTION('',(-1.,0.,0.));
#969=DIRECTION('center_axis',(0.,1.,0.));
#970=DIRECTION('ref_axis',(1.,0.,0.));
#971=DIRECTION('center_axis',(0.,1.,0.));
#972=DIRECTION('ref_axis',(1.,0.,0.));
#973=DIRECTION('',(0.,1.,0.));
#974=DIRECTION('center_axis',(0.,-1.,0.));
#975=DIRECTION('ref_axis',(1.,0.,0.));
#976=DIRECTION('center_axis',(0.,1.,0.));
#977=DIRECTION('ref_axis',(1.,0.,0.));
#978=DIRECTION('center_axis',(0.,1.,0.));
#979=DIRECTION('ref_axis',(1.,0.,0.));
#980=DIRECTION('',(0.,1.,0.));
#981=DIRECTION('center_axis',(0.,-1.,0.));
#982=DIRECTION('ref_axis',(1.,0.,0.));
#983=DIRECTION('center_axis',(0.,1.,0.));
#984=DIRECTION('ref_axis',(1.,0.,0.));
#985=DIRECTION('center_axis',(0.,1.,0.));
#986=DIRECTION('ref_axis',(1.,0.,0.));
#987=DIRECTION('',(0.,1.,0.));
#988=DIRECTION('center_axis',(0.,-1.,0.));
#989=DIRECTION('ref_axis',(1.,0.,0.));
#990=DIRECTION('center_axis',(0.,1.,0.));
#991=DIRECTION('ref_axis',(1.,0.,0.));
#992=DIRECTION('center_axis',(0.,1.,0.));
#993=DIRECTION('ref_axis',(1.,0.,0.));
#994=DIRECTION('',(0.,1.,0.));
#995=DIRECTION('center_axis',(0.,-1.,0.));
#996=DIRECTION('ref_axis',(1.,0.,0.));
#997=DIRECTION('center_axis',(0.,0.,1.));
#998=DIRECTION('ref_axis',(1.,0.,0.));
#999=DIRECTION('',(1.,0.,0.));
#1000=DIRECTION('',(0.,1.,0.));
#1001=DIRECTION('',(-1.,0.,0.));
#1002=DIRECTION('',(0.,-1.,0.));
#1003=DIRECTION('center_axis',(0.,0.,1.));
#1004=DIRECTION('ref_axis',(1.,0.,0.));
#1005=DIRECTION('',(1.,0.,0.));
#1006=DIRECTION('',(0.,1.,0.));
#1007=DIRECTION('',(-1.,0.,0.));
#1008=DIRECTION('',(0.,-1.,0.));
#1009=DIRECTION('center_axis',(0.,1.,0.));
#1010=DIRECTION('ref_axis',(-1.,0.,0.));
#1011=DIRECTION('',(0.,0.,1.));
#1012=DIRECTION('',(0.,0.,1.));
#1013=DIRECTION('center_axis',(-1.,0.,0.));
#1014=DIRECTION('ref_axis',(0.,-1.,0.));
#1015=DIRECTION('',(0.,0.,1.));
#1016=DIRECTION('center_axis',(1.,0.,0.));
#1017=DIRECTION('ref_axis',(0.,1.,0.));
#1018=DIRECTION('',(0.,0.,1.));
#1019=DIRECTION('center_axis',(0.,-1.,0.));
#1020=DIRECTION('ref_axis',(1.,0.,0.));
#1021=DIRECTION('center_axis',(0.,1.,0.));
#1022=DIRECTION('ref_axis',(-1.,0.,0.));
#1023=DIRECTION('',(0.,0.,1.));
#1024=DIRECTION('',(0.,0.,1.));
#1025=DIRECTION('center_axis',(-1.,0.,0.));
#1026=DIRECTION('ref_axis',(0.,-1.,0.));
#1027=DIRECTION('',(0.,0.,1.));
#1028=DIRECTION('center_axis',(1.,0.,0.));
#1029=DIRECTION('ref_axis',(0.,1.,0.));
#1030=DIRECTION('',(0.,0.,1.));
#1031=DIRECTION('center_axis',(0.,-1.,0.));
#1032=DIRECTION('ref_axis',(1.,0.,0.));
#1033=DIRECTION('center_axis',(0.,0.,1.));
#1034=DIRECTION('ref_axis',(1.,0.,0.));
#1035=DIRECTION('',(0.,0.,-1.));
#1036=DIRECTION('center_axis',(0.,0.,-1.));
#1037=DIRECTION('ref_axis',(1.,0.,0.));
#1038=DIRECTION('center_axis',(0.,0.,1.));
#1039=DIRECTION('ref_axis',(1.,0.,0.));
#1040=DIRECTION('',(0.,0.,-1.));
#1041=DIRECTION('center_axis',(0.,0.,-1.));
#1042=DIRECTION('ref_axis',(1.,0.,0.));
#1043=DIRECTION('center_axis',(0.,0.,1.));
#1044=DIRECTION('ref_axis',(1.,0.,0.));
#1045=DIRECTION('',(0.,0.,-1.));
#1046=DIRECTION('center_axis',(0.,0.,-1.));
#1047=DIRECTION('ref_axis',(1.,0.,0.));
#1048=DIRECTION('center_axis',(0.,0.,1.));
#1049=DIRECTION('ref_axis',(1.,0.,0.));
#1050=DIRECTION('',(0.,0.,-1.));
#1051=DIRECTION('center_axis',(0.,0.,-1.));
#1052=DIRECTION('ref_axis',(1.,0.,0.));
#1053=DIRECTION('center_axis',(0.,0.,1.));
#1054=DIRECTION('ref_axis',(1.,0.,0.));
#1055=DIRECTION('',(0.,0.,-1.));
#1056=DIRECTION('center_axis',(0.,0.,-1.));
#1057=DIRECTION('ref_axis',(1.,0.,0.));
#1058=DIRECTION('center_axis',(0.,0.,1.));
#1059=DIRECTION('ref_axis',(1.,0.,0.));
#1060=DIRECTION('',(0.,0.,-1.));
#1061=DIRECTION('center_axis',(0.,0.,-1.));
#1062=DIRECTION('ref_axis',(1.,0.,0.));
#1063=DIRECTION('center_axis',(0.,0.,1.));
#1064=DIRECTION('ref_axis',(1.,0.,0.));
#1065=DIRECTION('',(0.,0.,-1.));
#1066=DIRECTION('center_axis',(0.,0.,-1.));
#1067=DIRECTION('ref_axis',(1.,0.,0.));
#1068=DIRECTION('center_axis',(0.,0.,1.));
#1069=DIRECTION('ref_axis',(1.,0.,0.));
#1070=DIRECTION('',(0.,0.,-1.));
#1071=DIRECTION('center_axis',(0.,0.,-1.));
#1072=DIRECTION('ref_axis',(1.,0.,0.));
#1073=DIRECTION('center_axis',(-2.73910036535074E-33,-1.,0.));
#1074=DIRECTION('ref_axis',(1.,-2.73910036535074E-33,0.));
#1075=DIRECTION('',(1.,-2.73910036535074E-33,0.));
#1076=DIRECTION('',(0.,0.,1.));
#1077=DIRECTION('',(0.,0.,1.));
#1078=DIRECTION('center_axis',(-1.,0.,0.));
#1079=DIRECTION('ref_axis',(0.,-1.,0.));
#1080=DIRECTION('',(0.,-1.,0.));
#1081=DIRECTION('',(0.,0.,1.));
#1082=DIRECTION('center_axis',(0.,1.,0.));
#1083=DIRECTION('ref_axis',(-1.,0.,0.));
#1084=DIRECTION('',(-1.,0.,0.));
#1085=DIRECTION('',(0.,0.,1.));
#1086=DIRECTION('center_axis',(1.,0.,0.));
#1087=DIRECTION('ref_axis',(0.,1.,0.));
#1088=DIRECTION('',(0.,1.,0.));
#1089=DIRECTION('center_axis',(0.,0.,1.));
#1090=DIRECTION('ref_axis',(1.,0.,0.));
#1091=DIRECTION('',(0.,0.,1.));
#1092=DIRECTION('',(1.,0.,0.));
#1093=CARTESIAN_POINT('',(0.,0.,0.));
#1094=CARTESIAN_POINT('',(0.,0.,0.));
#1095=CARTESIAN_POINT('Origin',(62.000000923872,0.,32.));
#1096=CARTESIAN_POINT('',(59.250000923872,36.5000002980232,32.));
#1097=CARTESIAN_POINT('Origin',(62.000000923872,36.5000002980232,32.));
#1098=CARTESIAN_POINT('',(59.250000923872,41.5000002980232,32.));
#1099=CARTESIAN_POINT('',(59.250000923872,0.,32.));
#1100=CARTESIAN_POINT('Origin',(62.000000923872,41.5000002980232,32.));
#1101=CARTESIAN_POINT('Origin',(62.000000923872,0.,32.));
#1102=CARTESIAN_POINT('',(59.250000923872,10.0000001490116,32.));
#1103=CARTESIAN_POINT('Origin',(62.000000923872,10.0000001490116,32.));
#1104=CARTESIAN_POINT('',(59.250000923872,20.0000002980232,32.));
#1105=CARTESIAN_POINT('',(59.250000923872,0.,32.));
#1106=CARTESIAN_POINT('Origin',(62.000000923872,20.0000002980232,32.));
#1107=CARTESIAN_POINT('Origin',(52.,20.0000002980232,8.));
#1108=CARTESIAN_POINT('',(52.,10.0000001490116,8.));
#1109=CARTESIAN_POINT('',(52.,20.0000002980232,8.));
#1110=CARTESIAN_POINT('',(52.,29.5000001490116,8.));
#1111=CARTESIAN_POINT('',(52.,10.0000001490116,53.));
#1112=CARTESIAN_POINT('',(52.,10.0000001490116,8.));
#1113=CARTESIAN_POINT('',(52.,20.0000002980232,53.));
#1114=CARTESIAN_POINT('',(52.,10.0000001490116,53.));
#1115=CARTESIAN_POINT('',(52.,20.0000002980232,8.));
#1116=CARTESIAN_POINT('Origin',(72.,20.0000002980232,8.));
#1117=CARTESIAN_POINT('',(72.,20.0000002980232,8.));
#1118=CARTESIAN_POINT('',(59.25,20.0000002980232,8.));
#1119=CARTESIAN_POINT('',(72.,20.0000002980232,53.));
#1120=CARTESIAN_POINT('',(52.,20.0000002980232,53.));
#1121=CARTESIAN_POINT('',(72.,20.0000002980232,8.));
#1122=CARTESIAN_POINT('Origin',(72.,10.0000001490116,8.));
#1123=CARTESIAN_POINT('',(72.,10.0000001490116,8.));
#1124=CARTESIAN_POINT('',(72.,24.5000000745058,8.));
#1125=CARTESIAN_POINT('',(72.,10.0000001490116,53.));
#1126=CARTESIAN_POINT('',(72.,20.0000002980232,53.));
#1127=CARTESIAN_POINT('',(72.,10.0000001490116,8.));
#1128=CARTESIAN_POINT('Origin',(52.,10.0000001490116,8.));
#1129=CARTESIAN_POINT('',(49.25,10.0000001490116,8.));
#1130=CARTESIAN_POINT('',(72.,10.0000001490116,53.));
#1131=CARTESIAN_POINT('Origin',(62.,15.0000002235174,53.));
#1132=CARTESIAN_POINT('Origin',(52.,41.5000002980232,8.));
#1133=CARTESIAN_POINT('',(52.,36.5000002980232,8.));
#1134=CARTESIAN_POINT('',(52.,41.5000002980232,8.));
#1135=CARTESIAN_POINT('',(52.,40.2500001490116,8.));
#1136=CARTESIAN_POINT('',(52.,36.5000002980232,53.));
#1137=CARTESIAN_POINT('',(52.,36.5000002980232,8.));
#1138=CARTESIAN_POINT('',(52.,41.5000002980232,53.));
#1139=CARTESIAN_POINT('',(52.,36.5000002980232,53.));
#1140=CARTESIAN_POINT('',(52.,41.5000002980232,8.));
#1141=CARTESIAN_POINT('Origin',(72.,41.5000002980232,8.));
#1142=CARTESIAN_POINT('',(72.,41.5000002980232,8.));
#1143=CARTESIAN_POINT('',(59.25,41.5000002980232,8.));
#1144=CARTESIAN_POINT('',(72.,41.5000002980232,53.));
#1145=CARTESIAN_POINT('',(52.,41.5000002980232,53.));
#1146=CARTESIAN_POINT('',(72.,41.5000002980232,8.));
#1147=CARTESIAN_POINT('Origin',(72.,36.5000002980232,8.));
#1148=CARTESIAN_POINT('',(72.,36.5000002980232,8.));
#1149=CARTESIAN_POINT('',(72.,37.7500001490116,8.));
#1150=CARTESIAN_POINT('',(72.,36.5000002980232,53.));
#1151=CARTESIAN_POINT('',(72.,41.5000002980232,53.));
#1152=CARTESIAN_POINT('',(72.,36.5000002980232,8.));
#1153=CARTESIAN_POINT('Origin',(52.,36.5000002980232,8.));
#1154=CARTESIAN_POINT('',(49.25,36.5000002980232,8.));
#1155=CARTESIAN_POINT('',(72.,36.5000002980232,53.));
#1156=CARTESIAN_POINT('Origin',(62.,39.0000002980232,53.));
#1157=CARTESIAN_POINT('Origin',(46.5,39.,8.));
#1158=CARTESIAN_POINT('',(0.,0.,8.));
#1159=CARTESIAN_POINT('',(93.,0.,8.));
#1160=CARTESIAN_POINT('',(0.,0.,8.));
#1161=CARTESIAN_POINT('',(93.,78.,8.));
#1162=CARTESIAN_POINT('',(93.,-2.54736333977619E-31,8.));
#1163=CARTESIAN_POINT('',(0.,78.,8.));
#1164=CARTESIAN_POINT('',(93.,78.,8.));
#1165=CARTESIAN_POINT('',(0.,78.,8.));
#1166=CARTESIAN_POINT('',(12.9,30.,8.));
#1167=CARTESIAN_POINT('Origin',(15.,30.,8.));
#1168=CARTESIAN_POINT('',(36.9,30.,8.));
#1169=CARTESIAN_POINT('Origin',(39.,30.,8.));
#1170=CARTESIAN_POINT('',(12.9,48.,8.));
#1171=CARTESIAN_POINT('Origin',(15.,48.,8.));
#1172=CARTESIAN_POINT('',(36.9,48.,8.));
#1173=CARTESIAN_POINT('Origin',(39.,48.,8.));
#1174=CARTESIAN_POINT('',(75.9,48.,8.));
#1175=CARTESIAN_POINT('Origin',(78.,48.,8.));
#1176=CARTESIAN_POINT('',(51.9,30.,8.));
#1177=CARTESIAN_POINT('Origin',(54.,30.,8.));
#1178=CARTESIAN_POINT('',(51.9,48.,8.));
#1179=CARTESIAN_POINT('Origin',(54.,48.,8.));
#1180=CARTESIAN_POINT('',(75.9,30.,8.));
#1181=CARTESIAN_POINT('Origin',(78.,30.,8.));
#1182=CARTESIAN_POINT('',(17.,10.,8.));
#1183=CARTESIAN_POINT('',(17.,20.,8.));
#1184=CARTESIAN_POINT('',(17.,29.5,8.));
#1185=CARTESIAN_POINT('',(37.,20.,8.));
#1186=CARTESIAN_POINT('',(41.75,20.,8.));
#1187=CARTESIAN_POINT('',(37.,10.,8.));
#1188=CARTESIAN_POINT('',(37.,24.5,8.));
#1189=CARTESIAN_POINT('',(31.75,10.,8.));
#1190=CARTESIAN_POINT('',(56.,58.,8.));
#1191=CARTESIAN_POINT('',(56.,68.,8.));
#1192=CARTESIAN_POINT('',(56.,53.5,8.));
#1193=CARTESIAN_POINT('',(76.,68.,8.));
#1194=CARTESIAN_POINT('',(61.25,68.,8.));
#1195=CARTESIAN_POINT('',(76.,58.,8.));
#1196=CARTESIAN_POINT('',(76.,48.5,8.));
#1197=CARTESIAN_POINT('',(51.25,58.,8.));
#1198=CARTESIAN_POINT('Origin',(66.,40.,54.));
#1199=CARTESIAN_POINT('',(63.25,58.,54.));
#1200=CARTESIAN_POINT('Origin',(66.,58.,54.));
#1201=CARTESIAN_POINT('',(63.25,68.,54.));
#1202=CARTESIAN_POINT('',(63.25,40.,54.));
#1203=CARTESIAN_POINT('Origin',(66.,68.,54.));
#1204=CARTESIAN_POINT('Origin',(66.,40.,22.));
#1205=CARTESIAN_POINT('',(63.25,58.,22.));
#1206=CARTESIAN_POINT('Origin',(66.,58.,22.));
#1207=CARTESIAN_POINT('',(63.25,68.,22.));
#1208=CARTESIAN_POINT('',(63.25,40.,22.));
#1209=CARTESIAN_POINT('Origin',(66.,68.,22.));
#1210=CARTESIAN_POINT('Origin',(27.,0.,54.));
#1211=CARTESIAN_POINT('',(24.25,10.,54.));
#1212=CARTESIAN_POINT('Origin',(27.,10.,54.));
#1213=CARTESIAN_POINT('',(24.25,20.,54.));
#1214=CARTESIAN_POINT('',(24.25,0.,54.));
#1215=CARTESIAN_POINT('Origin',(27.,20.,54.));
#1216=CARTESIAN_POINT('Origin',(27.,0.,22.));
#1217=CARTESIAN_POINT('',(24.25,10.,22.));
#1218=CARTESIAN_POINT('Origin',(27.,10.,22.));
#1219=CARTESIAN_POINT('',(24.25,20.,22.));
#1220=CARTESIAN_POINT('',(24.25,0.,22.));
#1221=CARTESIAN_POINT('Origin',(27.,20.,22.));
#1222=CARTESIAN_POINT('Origin',(27.,15.,68.));
#1223=CARTESIAN_POINT('',(17.,10.,68.));
#1224=CARTESIAN_POINT('',(37.,10.,68.));
#1225=CARTESIAN_POINT('',(37.,10.,68.));
#1226=CARTESIAN_POINT('',(37.,20.,68.));
#1227=CARTESIAN_POINT('',(37.,20.,68.));
#1228=CARTESIAN_POINT('',(17.,20.,68.));
#1229=CARTESIAN_POINT('',(17.,20.,68.));
#1230=CARTESIAN_POINT('',(17.,10.,68.));
#1231=CARTESIAN_POINT('Origin',(66.,63.,68.));
#1232=CARTESIAN_POINT('',(56.,58.,68.));
#1233=CARTESIAN_POINT('',(76.,58.,68.));
#1234=CARTESIAN_POINT('',(76.,58.,68.));
#1235=CARTESIAN_POINT('',(76.,68.,68.));
#1236=CARTESIAN_POINT('',(76.,68.,68.));
#1237=CARTESIAN_POINT('',(56.,68.,68.));
#1238=CARTESIAN_POINT('',(56.,68.,68.));
#1239=CARTESIAN_POINT('',(56.,58.,68.));
#1240=CARTESIAN_POINT('Origin',(76.,68.,5.));
#1241=CARTESIAN_POINT('',(56.,68.,5.));
#1242=CARTESIAN_POINT('',(76.,68.,5.));
#1243=CARTESIAN_POINT('Origin',(56.,68.,5.));
#1244=CARTESIAN_POINT('',(56.,58.,5.));
#1245=CARTESIAN_POINT('Origin',(76.,58.,5.));
#1246=CARTESIAN_POINT('',(76.,58.,5.));
#1247=CARTESIAN_POINT('Origin',(56.,58.,5.));
#1248=CARTESIAN_POINT('Origin',(37.,20.,5.));
#1249=CARTESIAN_POINT('',(17.,20.,5.));
#1250=CARTESIAN_POINT('',(37.,20.,5.));
#1251=CARTESIAN_POINT('Origin',(17.,20.,5.));
#1252=CARTESIAN_POINT('',(17.,10.,5.));
#1253=CARTESIAN_POINT('Origin',(37.,10.,5.));
#1254=CARTESIAN_POINT('',(37.,10.,5.));
#1255=CARTESIAN_POINT('Origin',(17.,10.,5.));
#1256=CARTESIAN_POINT('Origin',(15.,30.,0.));
#1257=CARTESIAN_POINT('',(12.9,30.,0.));
#1258=CARTESIAN_POINT('',(12.9,30.,0.));
#1259=CARTESIAN_POINT('Origin',(15.,30.,0.));
#1260=CARTESIAN_POINT('Origin',(39.,30.,0.));
#1261=CARTESIAN_POINT('',(36.9,30.,0.));
#1262=CARTESIAN_POINT('',(36.9,30.,0.));
#1263=CARTESIAN_POINT('Origin',(39.,30.,0.));
#1264=CARTESIAN_POINT('Origin',(15.,48.,0.));
#1265=CARTESIAN_POINT('',(12.9,48.,0.));
#1266=CARTESIAN_POINT('',(12.9,48.,0.));
#1267=CARTESIAN_POINT('Origin',(15.,48.,0.));
#1268=CARTESIAN_POINT('Origin',(39.,48.,0.));
#1269=CARTESIAN_POINT('',(36.9,48.,0.));
#1270=CARTESIAN_POINT('',(36.9,48.,0.));
#1271=CARTESIAN_POINT('Origin',(39.,48.,0.));
#1272=CARTESIAN_POINT('Origin',(78.,48.,0.));
#1273=CARTESIAN_POINT('',(75.9,48.,0.));
#1274=CARTESIAN_POINT('',(75.9,48.,0.));
#1275=CARTESIAN_POINT('Origin',(78.,48.,0.));
#1276=CARTESIAN_POINT('Origin',(54.,30.,0.));
#1277=CARTESIAN_POINT('',(51.9,30.,0.));
#1278=CARTESIAN_POINT('',(51.9,30.,0.));
#1279=CARTESIAN_POINT('Origin',(54.,30.,0.));
#1280=CARTESIAN_POINT('Origin',(54.,48.,0.));
#1281=CARTESIAN_POINT('',(51.9,48.,0.));
#1282=CARTESIAN_POINT('',(51.9,48.,0.));
#1283=CARTESIAN_POINT('Origin',(54.,48.,0.));
#1284=CARTESIAN_POINT('Origin',(78.,30.,0.));
#1285=CARTESIAN_POINT('',(75.9,30.,0.));
#1286=CARTESIAN_POINT('',(75.9,30.,0.));
#1287=CARTESIAN_POINT('Origin',(78.,30.,0.));
#1288=CARTESIAN_POINT('Origin',(0.,0.,0.));
#1289=CARTESIAN_POINT('',(0.,0.,0.));
#1290=CARTESIAN_POINT('',(93.,-2.54736333977619E-31,0.));
#1291=CARTESIAN_POINT('',(0.,0.,0.));
#1292=CARTESIAN_POINT('',(93.,-2.54736333977619E-31,0.));
#1293=CARTESIAN_POINT('',(0.,0.,0.));
#1294=CARTESIAN_POINT('Origin',(0.,78.,0.));
#1295=CARTESIAN_POINT('',(0.,78.,0.));
#1296=CARTESIAN_POINT('',(0.,78.,0.));
#1297=CARTESIAN_POINT('',(0.,78.,0.));
#1298=CARTESIAN_POINT('Origin',(93.,78.,0.));
#1299=CARTESIAN_POINT('',(93.,78.,0.));
#1300=CARTESIAN_POINT('',(93.,78.,0.));
#1301=CARTESIAN_POINT('',(93.,78.,0.));
#1302=CARTESIAN_POINT('Origin',(93.,-2.54736333977619E-31,0.));
#1303=CARTESIAN_POINT('',(93.,-2.54736333977619E-31,0.));
#1304=CARTESIAN_POINT('Origin',(46.5,39.,0.));
#1305=CARTESIAN_POINT('',(0.,0.,0.));
#1306=UNCERTAINTY_MEASURE_WITH_UNIT(LENGTH_MEASURE(0.01),#1312,
'DISTANCE_ACCURACY_VALUE',
'Maximum model space distance between geometric entities at asserted c
onnectivities');
#1307=UNCERTAINTY_MEASURE_WITH_UNIT(LENGTH_MEASURE(0.01),#1312,
'DISTANCE_ACCURACY_VALUE',
'Maximum model space distance between geometric entities at asserted c
onnectivities');
#1308=UNCERTAINTY_MEASURE_WITH_UNIT(LENGTH_MEASURE(0.01),#1312,
'DISTANCE_ACCURACY_VALUE',
'Maximum model space distance between geometric entities at asserted c
onnectivities');
#1309=(
GEOMETRIC_REPRESENTATION_CONTEXT(3)
GLOBAL_UNCERTAINTY_ASSIGNED_CONTEXT((#1306))
GLOBAL_UNIT_ASSIGNED_CONTEXT((#1312,#1314,#1315))
REPRESENTATION_CONTEXT('','3D')
);
#1310=(
GEOMETRIC_REPRESENTATION_CONTEXT(3)
GLOBAL_UNCERTAINTY_ASSIGNED_CONTEXT((#1307))
GLOBAL_UNIT_ASSIGNED_CONTEXT((#1312,#1314,#1315))
REPRESENTATION_CONTEXT('','3D')
);
#1311=(
GEOMETRIC_REPRESENTATION_CONTEXT(3)
GLOBAL_UNCERTAINTY_ASSIGNED_CONTEXT((#1308))
GLOBAL_UNIT_ASSIGNED_CONTEXT((#1312,#1314,#1315))
REPRESENTATION_CONTEXT('','3D')
);
#1312=(
LENGTH_UNIT()
NAMED_UNIT(*)
SI_UNIT(.MILLI.,.METRE.)
);
#1313=(
LENGTH_UNIT()
NAMED_UNIT(*)
SI_UNIT($,.METRE.)
);
#1314=(
NAMED_UNIT(*)
PLANE_ANGLE_UNIT()
SI_UNIT($,.RADIAN.)
);
#1315=(
NAMED_UNIT(*)
SI_UNIT($,.STERADIAN.)
SOLID_ANGLE_UNIT()
);
#1316=SHAPE_DEFINITION_REPRESENTATION(#1318,#1321);
#1317=SHAPE_DEFINITION_REPRESENTATION(#1319,#1322);
#1318=PRODUCT_DEFINITION_SHAPE('',$,#1324);
#1319=PRODUCT_DEFINITION_SHAPE('',$,#1325);
#1320=PRODUCT_DEFINITION_SHAPE($,$,#14);
#1321=SHAPE_REPRESENTATION('',(#806,#876),#1309);
#1322=SHAPE_REPRESENTATION('',(#807),#1310);
#1323=PRODUCT_DEFINITION_CONTEXT('part definition',#1331,'design');
#1324=PRODUCT_DEFINITION('2025-12-12-12-16-13-790',
'Y carriage stepper motor',#1326,#1323);
#1325=PRODUCT_DEFINITION('2025-12-10-15-46-54-100',
'Y carriage idler pulley',#1327,#1323);
#1326=PRODUCT_DEFINITION_FORMATION('',$,#1333);
#1327=PRODUCT_DEFINITION_FORMATION('',$,#1334);
#1328=PRODUCT_RELATED_PRODUCT_CATEGORY('Y carriage stepper motor',
'Y carriage stepper motor',(#1333));
#1329=PRODUCT_RELATED_PRODUCT_CATEGORY('Y carriage idler pulley',
'Y carriage idler pulley',(#1334));
#1330=APPLICATION_PROTOCOL_DEFINITION('international standard',
'automotive_design',2009,#1331);
#1331=APPLICATION_CONTEXT(
'Core Data for Automotive Mechanical Design Process');
#1332=PRODUCT_CONTEXT('part definition',#1331,'mechanical');
#1333=PRODUCT('2025-12-12-12-16-13-790','Y carriage stepper motor',$,(#1332));
#1334=PRODUCT('2025-12-10-15-46-54-100','Y carriage idler pulley',$,(#1332));
#1335=PRESENTATION_STYLE_ASSIGNMENT((#1336));
#1336=SURFACE_STYLE_USAGE(.BOTH.,#1337);
#1337=SURFACE_SIDE_STYLE('',(#1338));
#1338=SURFACE_STYLE_FILL_AREA(#1339);
#1339=FILL_AREA_STYLE('Steel - Satin',(#1340));
#1340=FILL_AREA_STYLE_COLOUR('Steel - Satin',#1341);
#1341=COLOUR_RGB('Steel - Satin',0.627450980392157,0.627450980392157,0.627450980392157);
ENDSEC;
END-ISO-10303-21;
