ISO-10303-21;
HEADER;
/* Generated by software containing ST-Developer
 * from STEP Tools, Inc. (www.steptools.com) 
 */

FILE_DESCRIPTION(
/* description */ (''),
/* implementation_level */ '2;1');

FILE_NAME(
/* name */ 'Y carriage idler print file.step',
/* time_stamp */ '2026-01-02T13:12:02+11:00',
/* author */ (''),
/* organization */ (''),
/* preprocessor_version */ 'ST-DEVELOPER v20.1',
/* originating_system */ 'Autodesk Translation Framework v14.21.0.0',
/* authorisation */ '');

FILE_SCHEMA (('AUTOMOTIVE_DESIGN { 1 0 10303 214 3 1 1 }'));
ENDSEC;

DATA;
#10=MECHANICAL_DESIGN_GEOMETRIC_PRESENTATION_REPRESENTATION('',(#19,#20,
#21),#930);
#11=ITEM_DEFINED_TRANSFORMATION($,$,#570,#622);
#12=(
REPRESENTATION_RELATIONSHIP($,$,#941,#940)
REPRESENTATION_RELATIONSHIP_WITH_TRANSFORMATION(#11)
SHAPE_REPRESENTATION_RELATIONSHIP()
);
#13=CONTEXT_DEPENDENT_SHAPE_REPRESENTATION(#12,#939);
#14=NEXT_ASSEMBLY_USAGE_OCCURRENCE('Y carriage idler pulley:1',
'Y carriage idler pulley:1','Y carriage idler pulley:1',#943,#944,
'Y carriage idler pulley:1');
#15=SHAPE_REPRESENTATION_RELATIONSHIP('SRR','None',#941,#17);
#16=SHAPE_REPRESENTATION_RELATIONSHIP('SRR','None',#940,#18);
#17=ADVANCED_BREP_SHAPE_REPRESENTATION('',(#22),#929);
#18=ADVANCED_BREP_SHAPE_REPRESENTATION('',(#23,#24),#928);
#19=STYLED_ITEM('',(#954),#22);
#20=STYLED_ITEM('',(#954),#23);
#21=STYLED_ITEM('',(#954),#24);
#22=MANIFOLD_SOLID_BREP('Body5',#554);
#23=MANIFOLD_SOLID_BREP('Body1',#555);
#24=MANIFOLD_SOLID_BREP('Body2',#556);
#25=FACE_BOUND('',#96,.T.);
#26=FACE_BOUND('',#97,.T.);
#27=FACE_BOUND('',#98,.T.);
#28=FACE_BOUND('',#99,.T.);
#29=FACE_BOUND('',#100,.T.);
#30=FACE_BOUND('',#101,.T.);
#31=FACE_BOUND('',#102,.T.);
#32=FACE_BOUND('',#103,.T.);
#33=FACE_BOUND('',#104,.T.);
#34=FACE_BOUND('',#118,.T.);
#35=FACE_BOUND('',#119,.T.);
#36=FACE_BOUND('',#120,.T.);
#37=FACE_BOUND('',#121,.T.);
#38=FACE_BOUND('',#122,.T.);
#39=FACE_BOUND('',#123,.T.);
#40=FACE_BOUND('',#124,.T.);
#41=FACE_BOUND('',#125,.T.);
#42=FACE_BOUND('',#126,.T.);
#43=FACE_BOUND('',#130,.T.);
#44=FACE_BOUND('',#133,.T.);
#45=FACE_BOUND('',#138,.T.);
#46=FACE_BOUND('',#141,.T.);
#47=PLANE('',#574);
#48=PLANE('',#599);
#49=PLANE('',#600);
#50=PLANE('',#601);
#51=PLANE('',#602);
#52=PLANE('',#603);
#53=PLANE('',#607);
#54=PLANE('',#608);
#55=PLANE('',#609);
#56=PLANE('',#610);
#57=PLANE('',#611);
#58=PLANE('',#612);
#59=PLANE('',#616);
#60=PLANE('',#617);
#61=PLANE('',#618);
#62=PLANE('',#619);
#63=PLANE('',#620);
#64=PLANE('',#621);
#65=FACE_OUTER_BOUND('',#94,.T.);
#66=FACE_OUTER_BOUND('',#95,.T.);
#67=FACE_OUTER_BOUND('',#105,.T.);
#68=FACE_OUTER_BOUND('',#106,.T.);
#69=FACE_OUTER_BOUND('',#107,.T.);
#70=FACE_OUTER_BOUND('',#108,.T.);
#71=FACE_OUTER_BOUND('',#109,.T.);
#72=FACE_OUTER_BOUND('',#110,.T.);
#73=FACE_OUTER_BOUND('',#111,.T.);
#74=FACE_OUTER_BOUND('',#112,.T.);
#75=FACE_OUTER_BOUND('',#113,.T.);
#76=FACE_OUTER_BOUND('',#114,.T.);
#77=FACE_OUTER_BOUND('',#115,.T.);
#78=FACE_OUTER_BOUND('',#116,.T.);
#79=FACE_OUTER_BOUND('',#117,.T.);
#80=FACE_OUTER_BOUND('',#127,.T.);
#81=FACE_OUTER_BOUND('',#128,.T.);
#82=FACE_OUTER_BOUND('',#129,.T.);
#83=FACE_OUTER_BOUND('',#131,.T.);
#84=FACE_OUTER_BOUND('',#132,.T.);
#85=FACE_OUTER_BOUND('',#134,.T.);
#86=FACE_OUTER_BOUND('',#135,.T.);
#87=FACE_OUTER_BOUND('',#136,.T.);
#88=FACE_OUTER_BOUND('',#137,.T.);
#89=FACE_OUTER_BOUND('',#139,.T.);
#90=FACE_OUTER_BOUND('',#140,.T.);
#91=FACE_OUTER_BOUND('',#142,.T.);
#92=FACE_OUTER_BOUND('',#143,.T.);
#93=FACE_OUTER_BOUND('',#144,.T.);
#94=EDGE_LOOP('',(#376,#377,#378,#379));
#95=EDGE_LOOP('',(#380,#381,#382,#383));
#96=EDGE_LOOP('',(#384));
#97=EDGE_LOOP('',(#385));
#98=EDGE_LOOP('',(#386));
#99=EDGE_LOOP('',(#387));
#100=EDGE_LOOP('',(#388));
#101=EDGE_LOOP('',(#389));
#102=EDGE_LOOP('',(#390));
#103=EDGE_LOOP('',(#391));
#104=EDGE_LOOP('',(#392));
#105=EDGE_LOOP('',(#393,#394,#395,#396));
#106=EDGE_LOOP('',(#397,#398,#399,#400));
#107=EDGE_LOOP('',(#401,#402,#403,#404));
#108=EDGE_LOOP('',(#405,#406,#407,#408));
#109=EDGE_LOOP('',(#409,#410,#411,#412));
#110=EDGE_LOOP('',(#413,#414,#415,#416));
#111=EDGE_LOOP('',(#417,#418,#419,#420));
#112=EDGE_LOOP('',(#421,#422,#423,#424));
#113=EDGE_LOOP('',(#425,#426,#427,#428));
#114=EDGE_LOOP('',(#429,#430,#431,#432));
#115=EDGE_LOOP('',(#433,#434,#435,#436));
#116=EDGE_LOOP('',(#437,#438,#439,#440));
#117=EDGE_LOOP('',(#441,#442,#443,#444));
#118=EDGE_LOOP('',(#445));
#119=EDGE_LOOP('',(#446));
#120=EDGE_LOOP('',(#447));
#121=EDGE_LOOP('',(#448));
#122=EDGE_LOOP('',(#449));
#123=EDGE_LOOP('',(#450));
#124=EDGE_LOOP('',(#451));
#125=EDGE_LOOP('',(#452));
#126=EDGE_LOOP('',(#453));
#127=EDGE_LOOP('',(#454,#455,#456,#457));
#128=EDGE_LOOP('',(#458,#459,#460,#461));
#129=EDGE_LOOP('',(#462,#463,#464,#465));
#130=EDGE_LOOP('',(#466));
#131=EDGE_LOOP('',(#467,#468,#469,#470));
#132=EDGE_LOOP('',(#471,#472,#473,#474));
#133=EDGE_LOOP('',(#475));
#134=EDGE_LOOP('',(#476,#477,#478,#479));
#135=EDGE_LOOP('',(#480,#481,#482,#483));
#136=EDGE_LOOP('',(#484,#485,#486,#487));
#137=EDGE_LOOP('',(#488,#489,#490,#491));
#138=EDGE_LOOP('',(#492));
#139=EDGE_LOOP('',(#493,#494,#495,#496));
#140=EDGE_LOOP('',(#497,#498,#499,#500));
#141=EDGE_LOOP('',(#501));
#142=EDGE_LOOP('',(#502,#503,#504,#505));
#143=EDGE_LOOP('',(#506,#507,#508,#509));
#144=EDGE_LOOP('',(#510,#511,#512,#513));
#145=LINE('',#784,#192);
#146=LINE('',#789,#193);
#147=LINE('',#791,#194);
#148=LINE('',#793,#195);
#149=LINE('',#794,#196);
#150=LINE('',#813,#197);
#151=LINE('',#817,#198);
#152=LINE('',#821,#199);
#153=LINE('',#825,#200);
#154=LINE('',#829,#201);
#155=LINE('',#833,#202);
#156=LINE('',#837,#203);
#157=LINE('',#841,#204);
#158=LINE('',#846,#205);
#159=LINE('',#847,#206);
#160=LINE('',#848,#207);
#161=LINE('',#851,#208);
#162=LINE('',#852,#209);
#163=LINE('',#855,#210);
#164=LINE('',#856,#211);
#165=LINE('',#858,#212);
#166=LINE('',#864,#213);
#167=LINE('',#869,#214);
#168=LINE('',#871,#215);
#169=LINE('',#873,#216);
#170=LINE('',#874,#217);
#171=LINE('',#877,#218);
#172=LINE('',#879,#219);
#173=LINE('',#880,#220);
#174=LINE('',#883,#221);
#175=LINE('',#885,#222);
#176=LINE('',#886,#223);
#177=LINE('',#888,#224);
#178=LINE('',#889,#225);
#179=LINE('',#896,#226);
#180=LINE('',#901,#227);
#181=LINE('',#903,#228);
#182=LINE('',#905,#229);
#183=LINE('',#906,#230);
#184=LINE('',#909,#231);
#185=LINE('',#911,#232);
#186=LINE('',#912,#233);
#187=LINE('',#915,#234);
#188=LINE('',#917,#235);
#189=LINE('',#918,#236);
#190=LINE('',#920,#237);
#191=LINE('',#921,#238);
#192=VECTOR('',#631,2.75);
#193=VECTOR('',#636,10.);
#194=VECTOR('',#637,10.);
#195=VECTOR('',#638,10.);
#196=VECTOR('',#639,10.);
#197=VECTOR('',#658,2.1);
#198=VECTOR('',#663,2.1);
#199=VECTOR('',#668,2.1);
#200=VECTOR('',#673,2.1);
#201=VECTOR('',#678,2.09999999999999);
#202=VECTOR('',#683,2.1);
#203=VECTOR('',#688,2.1);
#204=VECTOR('',#693,2.09999999999999);
#205=VECTOR('',#698,10.);
#206=VECTOR('',#699,10.);
#207=VECTOR('',#700,10.);
#208=VECTOR('',#703,10.);
#209=VECTOR('',#704,10.);
#210=VECTOR('',#707,10.);
#211=VECTOR('',#708,10.);
#212=VECTOR('',#711,10.);
#213=VECTOR('',#718,2.25);
#214=VECTOR('',#723,10.);
#215=VECTOR('',#724,10.);
#216=VECTOR('',#725,10.);
#217=VECTOR('',#726,10.);
#218=VECTOR('',#729,10.);
#219=VECTOR('',#730,10.);
#220=VECTOR('',#731,10.);
#221=VECTOR('',#734,10.);
#222=VECTOR('',#735,10.);
#223=VECTOR('',#736,10.);
#224=VECTOR('',#739,10.);
#225=VECTOR('',#740,10.);
#226=VECTOR('',#749,2.25);
#227=VECTOR('',#754,10.);
#228=VECTOR('',#755,10.);
#229=VECTOR('',#756,10.);
#230=VECTOR('',#757,10.);
#231=VECTOR('',#760,10.);
#232=VECTOR('',#761,10.);
#233=VECTOR('',#762,10.);
#234=VECTOR('',#765,10.);
#235=VECTOR('',#766,10.);
#236=VECTOR('',#767,10.);
#237=VECTOR('',#770,10.);
#238=VECTOR('',#771,10.);
#239=CIRCLE('',#572,2.75);
#240=CIRCLE('',#573,2.75);
#241=CIRCLE('',#575,2.1);
#242=CIRCLE('',#576,2.09999999999999);
#243=CIRCLE('',#577,2.1);
#244=CIRCLE('',#578,2.09999999999999);
#245=CIRCLE('',#579,2.1);
#246=CIRCLE('',#580,2.1);
#247=CIRCLE('',#581,2.1);
#248=CIRCLE('',#582,2.1);
#249=CIRCLE('',#584,2.1);
#250=CIRCLE('',#586,2.1);
#251=CIRCLE('',#588,2.1);
#252=CIRCLE('',#590,2.1);
#253=CIRCLE('',#592,2.09999999999999);
#254=CIRCLE('',#594,2.1);
#255=CIRCLE('',#596,2.1);
#256=CIRCLE('',#598,2.09999999999999);
#257=CIRCLE('',#605,2.25);
#258=CIRCLE('',#606,2.25);
#259=CIRCLE('',#614,2.25);
#260=CIRCLE('',#615,2.25);
#261=VERTEX_POINT('',#781);
#262=VERTEX_POINT('',#783);
#263=VERTEX_POINT('',#787);
#264=VERTEX_POINT('',#788);
#265=VERTEX_POINT('',#790);
#266=VERTEX_POINT('',#792);
#267=VERTEX_POINT('',#795);
#268=VERTEX_POINT('',#797);
#269=VERTEX_POINT('',#799);
#270=VERTEX_POINT('',#801);
#271=VERTEX_POINT('',#803);
#272=VERTEX_POINT('',#805);
#273=VERTEX_POINT('',#807);
#274=VERTEX_POINT('',#809);
#275=VERTEX_POINT('',#812);
#276=VERTEX_POINT('',#816);
#277=VERTEX_POINT('',#820);
#278=VERTEX_POINT('',#824);
#279=VERTEX_POINT('',#828);
#280=VERTEX_POINT('',#832);
#281=VERTEX_POINT('',#836);
#282=VERTEX_POINT('',#840);
#283=VERTEX_POINT('',#844);
#284=VERTEX_POINT('',#845);
#285=VERTEX_POINT('',#850);
#286=VERTEX_POINT('',#854);
#287=VERTEX_POINT('',#861);
#288=VERTEX_POINT('',#863);
#289=VERTEX_POINT('',#867);
#290=VERTEX_POINT('',#868);
#291=VERTEX_POINT('',#870);
#292=VERTEX_POINT('',#872);
#293=VERTEX_POINT('',#876);
#294=VERTEX_POINT('',#878);
#295=VERTEX_POINT('',#882);
#296=VERTEX_POINT('',#884);
#297=VERTEX_POINT('',#893);
#298=VERTEX_POINT('',#895);
#299=VERTEX_POINT('',#899);
#300=VERTEX_POINT('',#900);
#301=VERTEX_POINT('',#902);
#302=VERTEX_POINT('',#904);
#303=VERTEX_POINT('',#908);
#304=VERTEX_POINT('',#910);
#305=VERTEX_POINT('',#914);
#306=VERTEX_POINT('',#916);
#307=EDGE_CURVE('',#261,#261,#239,.T.);
#308=EDGE_CURVE('',#261,#262,#145,.T.);
#309=EDGE_CURVE('',#262,#262,#240,.T.);
#310=EDGE_CURVE('',#263,#264,#146,.T.);
#311=EDGE_CURVE('',#264,#265,#147,.T.);
#312=EDGE_CURVE('',#265,#266,#148,.T.);
#313=EDGE_CURVE('',#266,#263,#149,.T.);
#314=EDGE_CURVE('',#267,#267,#241,.T.);
#315=EDGE_CURVE('',#268,#268,#242,.T.);
#316=EDGE_CURVE('',#269,#269,#243,.T.);
#317=EDGE_CURVE('',#270,#270,#244,.T.);
#318=EDGE_CURVE('',#271,#271,#245,.T.);
#319=EDGE_CURVE('',#272,#272,#246,.T.);
#320=EDGE_CURVE('',#273,#273,#247,.T.);
#321=EDGE_CURVE('',#274,#274,#248,.T.);
#322=EDGE_CURVE('',#274,#275,#150,.T.);
#323=EDGE_CURVE('',#275,#275,#249,.T.);
#324=EDGE_CURVE('',#273,#276,#151,.T.);
#325=EDGE_CURVE('',#276,#276,#250,.T.);
#326=EDGE_CURVE('',#272,#277,#152,.T.);
#327=EDGE_CURVE('',#277,#277,#251,.T.);
#328=EDGE_CURVE('',#271,#278,#153,.T.);
#329=EDGE_CURVE('',#278,#278,#252,.T.);
#330=EDGE_CURVE('',#270,#279,#154,.T.);
#331=EDGE_CURVE('',#279,#279,#253,.T.);
#332=EDGE_CURVE('',#267,#280,#155,.T.);
#333=EDGE_CURVE('',#280,#280,#254,.T.);
#334=EDGE_CURVE('',#269,#281,#156,.T.);
#335=EDGE_CURVE('',#281,#281,#255,.T.);
#336=EDGE_CURVE('',#268,#282,#157,.T.);
#337=EDGE_CURVE('',#282,#282,#256,.T.);
#338=EDGE_CURVE('',#283,#284,#158,.T.);
#339=EDGE_CURVE('',#284,#266,#159,.T.);
#340=EDGE_CURVE('',#283,#265,#160,.T.);
#341=EDGE_CURVE('',#285,#283,#161,.T.);
#342=EDGE_CURVE('',#285,#264,#162,.T.);
#343=EDGE_CURVE('',#286,#285,#163,.T.);
#344=EDGE_CURVE('',#286,#263,#164,.T.);
#345=EDGE_CURVE('',#284,#286,#165,.T.);
#346=EDGE_CURVE('',#287,#287,#257,.T.);
#347=EDGE_CURVE('',#287,#288,#166,.T.);
#348=EDGE_CURVE('',#288,#288,#258,.T.);
#349=EDGE_CURVE('',#289,#290,#167,.T.);
#350=EDGE_CURVE('',#289,#291,#168,.T.);
#351=EDGE_CURVE('',#292,#291,#169,.T.);
#352=EDGE_CURVE('',#290,#292,#170,.T.);
#353=EDGE_CURVE('',#290,#293,#171,.T.);
#354=EDGE_CURVE('',#294,#292,#172,.T.);
#355=EDGE_CURVE('',#293,#294,#173,.T.);
#356=EDGE_CURVE('',#293,#295,#174,.T.);
#357=EDGE_CURVE('',#296,#294,#175,.T.);
#358=EDGE_CURVE('',#295,#296,#176,.T.);
#359=EDGE_CURVE('',#295,#289,#177,.T.);
#360=EDGE_CURVE('',#291,#296,#178,.T.);
#361=EDGE_CURVE('',#297,#297,#259,.T.);
#362=EDGE_CURVE('',#297,#298,#179,.T.);
#363=EDGE_CURVE('',#298,#298,#260,.T.);
#364=EDGE_CURVE('',#299,#300,#180,.T.);
#365=EDGE_CURVE('',#300,#301,#181,.T.);
#366=EDGE_CURVE('',#302,#301,#182,.T.);
#367=EDGE_CURVE('',#299,#302,#183,.T.);
#368=EDGE_CURVE('',#303,#299,#184,.T.);
#369=EDGE_CURVE('',#304,#302,#185,.T.);
#370=EDGE_CURVE('',#303,#304,#186,.T.);
#371=EDGE_CURVE('',#305,#303,#187,.T.);
#372=EDGE_CURVE('',#306,#304,#188,.T.);
#373=EDGE_CURVE('',#305,#306,#189,.T.);
#374=EDGE_CURVE('',#300,#305,#190,.T.);
#375=EDGE_CURVE('',#301,#306,#191,.T.);
#376=ORIENTED_EDGE('',*,*,#307,.F.);
#377=ORIENTED_EDGE('',*,*,#308,.T.);
#378=ORIENTED_EDGE('',*,*,#309,.F.);
#379=ORIENTED_EDGE('',*,*,#308,.F.);
#380=ORIENTED_EDGE('',*,*,#310,.T.);
#381=ORIENTED_EDGE('',*,*,#311,.T.);
#382=ORIENTED_EDGE('',*,*,#312,.T.);
#383=ORIENTED_EDGE('',*,*,#313,.T.);
#384=ORIENTED_EDGE('',*,*,#314,.T.);
#385=ORIENTED_EDGE('',*,*,#307,.T.);
#386=ORIENTED_EDGE('',*,*,#315,.T.);
#387=ORIENTED_EDGE('',*,*,#316,.T.);
#388=ORIENTED_EDGE('',*,*,#317,.T.);
#389=ORIENTED_EDGE('',*,*,#318,.T.);
#390=ORIENTED_EDGE('',*,*,#319,.T.);
#391=ORIENTED_EDGE('',*,*,#320,.T.);
#392=ORIENTED_EDGE('',*,*,#321,.T.);
#393=ORIENTED_EDGE('',*,*,#321,.F.);
#394=ORIENTED_EDGE('',*,*,#322,.T.);
#395=ORIENTED_EDGE('',*,*,#323,.T.);
#396=ORIENTED_EDGE('',*,*,#322,.F.);
#397=ORIENTED_EDGE('',*,*,#320,.F.);
#398=ORIENTED_EDGE('',*,*,#324,.T.);
#399=ORIENTED_EDGE('',*,*,#325,.T.);
#400=ORIENTED_EDGE('',*,*,#324,.F.);
#401=ORIENTED_EDGE('',*,*,#319,.F.);
#402=ORIENTED_EDGE('',*,*,#326,.T.);
#403=ORIENTED_EDGE('',*,*,#327,.T.);
#404=ORIENTED_EDGE('',*,*,#326,.F.);
#405=ORIENTED_EDGE('',*,*,#318,.F.);
#406=ORIENTED_EDGE('',*,*,#328,.T.);
#407=ORIENTED_EDGE('',*,*,#329,.T.);
#408=ORIENTED_EDGE('',*,*,#328,.F.);
#409=ORIENTED_EDGE('',*,*,#317,.F.);
#410=ORIENTED_EDGE('',*,*,#330,.T.);
#411=ORIENTED_EDGE('',*,*,#331,.T.);
#412=ORIENTED_EDGE('',*,*,#330,.F.);
#413=ORIENTED_EDGE('',*,*,#314,.F.);
#414=ORIENTED_EDGE('',*,*,#332,.T.);
#415=ORIENTED_EDGE('',*,*,#333,.T.);
#416=ORIENTED_EDGE('',*,*,#332,.F.);
#417=ORIENTED_EDGE('',*,*,#316,.F.);
#418=ORIENTED_EDGE('',*,*,#334,.T.);
#419=ORIENTED_EDGE('',*,*,#335,.T.);
#420=ORIENTED_EDGE('',*,*,#334,.F.);
#421=ORIENTED_EDGE('',*,*,#315,.F.);
#422=ORIENTED_EDGE('',*,*,#336,.T.);
#423=ORIENTED_EDGE('',*,*,#337,.T.);
#424=ORIENTED_EDGE('',*,*,#336,.F.);
#425=ORIENTED_EDGE('',*,*,#338,.T.);
#426=ORIENTED_EDGE('',*,*,#339,.T.);
#427=ORIENTED_EDGE('',*,*,#312,.F.);
#428=ORIENTED_EDGE('',*,*,#340,.F.);
#429=ORIENTED_EDGE('',*,*,#341,.T.);
#430=ORIENTED_EDGE('',*,*,#340,.T.);
#431=ORIENTED_EDGE('',*,*,#311,.F.);
#432=ORIENTED_EDGE('',*,*,#342,.F.);
#433=ORIENTED_EDGE('',*,*,#343,.T.);
#434=ORIENTED_EDGE('',*,*,#342,.T.);
#435=ORIENTED_EDGE('',*,*,#310,.F.);
#436=ORIENTED_EDGE('',*,*,#344,.F.);
#437=ORIENTED_EDGE('',*,*,#345,.T.);
#438=ORIENTED_EDGE('',*,*,#344,.T.);
#439=ORIENTED_EDGE('',*,*,#313,.F.);
#440=ORIENTED_EDGE('',*,*,#339,.F.);
#441=ORIENTED_EDGE('',*,*,#345,.F.);
#442=ORIENTED_EDGE('',*,*,#338,.F.);
#443=ORIENTED_EDGE('',*,*,#341,.F.);
#444=ORIENTED_EDGE('',*,*,#343,.F.);
#445=ORIENTED_EDGE('',*,*,#309,.T.);
#446=ORIENTED_EDGE('',*,*,#337,.F.);
#447=ORIENTED_EDGE('',*,*,#335,.F.);
#448=ORIENTED_EDGE('',*,*,#333,.F.);
#449=ORIENTED_EDGE('',*,*,#331,.F.);
#450=ORIENTED_EDGE('',*,*,#329,.F.);
#451=ORIENTED_EDGE('',*,*,#327,.F.);
#452=ORIENTED_EDGE('',*,*,#325,.F.);
#453=ORIENTED_EDGE('',*,*,#323,.F.);
#454=ORIENTED_EDGE('',*,*,#346,.F.);
#455=ORIENTED_EDGE('',*,*,#347,.T.);
#456=ORIENTED_EDGE('',*,*,#348,.F.);
#457=ORIENTED_EDGE('',*,*,#347,.F.);
#458=ORIENTED_EDGE('',*,*,#349,.F.);
#459=ORIENTED_EDGE('',*,*,#350,.T.);
#460=ORIENTED_EDGE('',*,*,#351,.F.);
#461=ORIENTED_EDGE('',*,*,#352,.F.);
#462=ORIENTED_EDGE('',*,*,#353,.F.);
#463=ORIENTED_EDGE('',*,*,#352,.T.);
#464=ORIENTED_EDGE('',*,*,#354,.F.);
#465=ORIENTED_EDGE('',*,*,#355,.F.);
#466=ORIENTED_EDGE('',*,*,#348,.T.);
#467=ORIENTED_EDGE('',*,*,#356,.F.);
#468=ORIENTED_EDGE('',*,*,#355,.T.);
#469=ORIENTED_EDGE('',*,*,#357,.F.);
#470=ORIENTED_EDGE('',*,*,#358,.F.);
#471=ORIENTED_EDGE('',*,*,#359,.F.);
#472=ORIENTED_EDGE('',*,*,#358,.T.);
#473=ORIENTED_EDGE('',*,*,#360,.F.);
#474=ORIENTED_EDGE('',*,*,#350,.F.);
#475=ORIENTED_EDGE('',*,*,#346,.T.);
#476=ORIENTED_EDGE('',*,*,#360,.T.);
#477=ORIENTED_EDGE('',*,*,#357,.T.);
#478=ORIENTED_EDGE('',*,*,#354,.T.);
#479=ORIENTED_EDGE('',*,*,#351,.T.);
#480=ORIENTED_EDGE('',*,*,#359,.T.);
#481=ORIENTED_EDGE('',*,*,#349,.T.);
#482=ORIENTED_EDGE('',*,*,#353,.T.);
#483=ORIENTED_EDGE('',*,*,#356,.T.);
#484=ORIENTED_EDGE('',*,*,#361,.F.);
#485=ORIENTED_EDGE('',*,*,#362,.T.);
#486=ORIENTED_EDGE('',*,*,#363,.F.);
#487=ORIENTED_EDGE('',*,*,#362,.F.);
#488=ORIENTED_EDGE('',*,*,#364,.T.);
#489=ORIENTED_EDGE('',*,*,#365,.T.);
#490=ORIENTED_EDGE('',*,*,#366,.F.);
#491=ORIENTED_EDGE('',*,*,#367,.F.);
#492=ORIENTED_EDGE('',*,*,#363,.T.);
#493=ORIENTED_EDGE('',*,*,#368,.T.);
#494=ORIENTED_EDGE('',*,*,#367,.T.);
#495=ORIENTED_EDGE('',*,*,#369,.F.);
#496=ORIENTED_EDGE('',*,*,#370,.F.);
#497=ORIENTED_EDGE('',*,*,#371,.T.);
#498=ORIENTED_EDGE('',*,*,#370,.T.);
#499=ORIENTED_EDGE('',*,*,#372,.F.);
#500=ORIENTED_EDGE('',*,*,#373,.F.);
#501=ORIENTED_EDGE('',*,*,#361,.T.);
#502=ORIENTED_EDGE('',*,*,#374,.T.);
#503=ORIENTED_EDGE('',*,*,#373,.T.);
#504=ORIENTED_EDGE('',*,*,#375,.F.);
#505=ORIENTED_EDGE('',*,*,#365,.F.);
#506=ORIENTED_EDGE('',*,*,#375,.T.);
#507=ORIENTED_EDGE('',*,*,#372,.T.);
#508=ORIENTED_EDGE('',*,*,#369,.T.);
#509=ORIENTED_EDGE('',*,*,#366,.T.);
#510=ORIENTED_EDGE('',*,*,#374,.F.);
#511=ORIENTED_EDGE('',*,*,#364,.F.);
#512=ORIENTED_EDGE('',*,*,#368,.F.);
#513=ORIENTED_EDGE('',*,*,#371,.F.);
#514=CYLINDRICAL_SURFACE('',#571,2.75);
#515=CYLINDRICAL_SURFACE('',#583,2.1);
#516=CYLINDRICAL_SURFACE('',#585,2.1);
#517=CYLINDRICAL_SURFACE('',#587,2.1);
#518=CYLINDRICAL_SURFACE('',#589,2.1);
#519=CYLINDRICAL_SURFACE('',#591,2.09999999999999);
#520=CYLINDRICAL_SURFACE('',#593,2.1);
#521=CYLINDRICAL_SURFACE('',#595,2.1);
#522=CYLINDRICAL_SURFACE('',#597,2.09999999999999);
#523=CYLINDRICAL_SURFACE('',#604,2.25);
#524=CYLINDRICAL_SURFACE('',#613,2.25);
#525=ADVANCED_FACE('',(#65),#514,.F.);
#526=ADVANCED_FACE('',(#66,#25,#26,#27,#28,#29,#30,#31,#32,#33),#47,.T.);
#527=ADVANCED_FACE('',(#67),#515,.F.);
#528=ADVANCED_FACE('',(#68),#516,.F.);
#529=ADVANCED_FACE('',(#69),#517,.F.);
#530=ADVANCED_FACE('',(#70),#518,.F.);
#531=ADVANCED_FACE('',(#71),#519,.F.);
#532=ADVANCED_FACE('',(#72),#520,.F.);
#533=ADVANCED_FACE('',(#73),#521,.F.);
#534=ADVANCED_FACE('',(#74),#522,.F.);
#535=ADVANCED_FACE('',(#75),#48,.T.);
#536=ADVANCED_FACE('',(#76),#49,.T.);
#537=ADVANCED_FACE('',(#77),#50,.T.);
#538=ADVANCED_FACE('',(#78),#51,.T.);
#539=ADVANCED_FACE('',(#79,#34,#35,#36,#37,#38,#39,#40,#41,#42),#52,.F.);
#540=ADVANCED_FACE('',(#80),#523,.F.);
#541=ADVANCED_FACE('',(#81),#53,.T.);
#542=ADVANCED_FACE('',(#82,#43),#54,.T.);
#543=ADVANCED_FACE('',(#83),#55,.T.);
#544=ADVANCED_FACE('',(#84,#44),#56,.T.);
#545=ADVANCED_FACE('',(#85),#57,.T.);
#546=ADVANCED_FACE('',(#86),#58,.F.);
#547=ADVANCED_FACE('',(#87),#524,.F.);
#548=ADVANCED_FACE('',(#88,#45),#59,.T.);
#549=ADVANCED_FACE('',(#89),#60,.T.);
#550=ADVANCED_FACE('',(#90,#46),#61,.T.);
#551=ADVANCED_FACE('',(#91),#62,.T.);
#552=ADVANCED_FACE('',(#92),#63,.T.);
#553=ADVANCED_FACE('',(#93),#64,.F.);
#554=CLOSED_SHELL('',(#525,#526,#527,#528,#529,#530,#531,#532,#533,#534,
#535,#536,#537,#538,#539));
#555=CLOSED_SHELL('',(#540,#541,#542,#543,#544,#545,#546));
#556=CLOSED_SHELL('',(#547,#548,#549,#550,#551,#552,#553));
#557=DERIVED_UNIT_ELEMENT(#559,1.);
#558=DERIVED_UNIT_ELEMENT(#932,-3.);
#559=(
MASS_UNIT()
NAMED_UNIT(*)
SI_UNIT(.KILO.,.GRAM.)
);
#560=DERIVED_UNIT((#557,#558));
#561=MEASURE_REPRESENTATION_ITEM('density measure',
POSITIVE_RATIO_MEASURE(7850.),#560);
#562=PROPERTY_DEFINITION_REPRESENTATION(#567,#564);
#563=PROPERTY_DEFINITION_REPRESENTATION(#568,#565);
#564=REPRESENTATION('material name',(#566),#929);
#565=REPRESENTATION('density',(#561),#929);
#566=DESCRIPTIVE_REPRESENTATION_ITEM('Steel','Steel');
#567=PROPERTY_DEFINITION('material property','material name',#944);
#568=PROPERTY_DEFINITION('material property','density of part',#944);
#569=AXIS2_PLACEMENT_3D('',#778,#623,#624);
#570=AXIS2_PLACEMENT_3D('',#779,#625,#626);
#571=AXIS2_PLACEMENT_3D('',#780,#627,#628);
#572=AXIS2_PLACEMENT_3D('',#782,#629,#630);
#573=AXIS2_PLACEMENT_3D('',#785,#632,#633);
#574=AXIS2_PLACEMENT_3D('',#786,#634,#635);
#575=AXIS2_PLACEMENT_3D('',#796,#640,#641);
#576=AXIS2_PLACEMENT_3D('',#798,#642,#643);
#577=AXIS2_PLACEMENT_3D('',#800,#644,#645);
#578=AXIS2_PLACEMENT_3D('',#802,#646,#647);
#579=AXIS2_PLACEMENT_3D('',#804,#648,#649);
#580=AXIS2_PLACEMENT_3D('',#806,#650,#651);
#581=AXIS2_PLACEMENT_3D('',#808,#652,#653);
#582=AXIS2_PLACEMENT_3D('',#810,#654,#655);
#583=AXIS2_PLACEMENT_3D('',#811,#656,#657);
#584=AXIS2_PLACEMENT_3D('',#814,#659,#660);
#585=AXIS2_PLACEMENT_3D('',#815,#661,#662);
#586=AXIS2_PLACEMENT_3D('',#818,#664,#665);
#587=AXIS2_PLACEMENT_3D('',#819,#666,#667);
#588=AXIS2_PLACEMENT_3D('',#822,#669,#670);
#589=AXIS2_PLACEMENT_3D('',#823,#671,#672);
#590=AXIS2_PLACEMENT_3D('',#826,#674,#675);
#591=AXIS2_PLACEMENT_3D('',#827,#676,#677);
#592=AXIS2_PLACEMENT_3D('',#830,#679,#680);
#593=AXIS2_PLACEMENT_3D('',#831,#681,#682);
#594=AXIS2_PLACEMENT_3D('',#834,#684,#685);
#595=AXIS2_PLACEMENT_3D('',#835,#686,#687);
#596=AXIS2_PLACEMENT_3D('',#838,#689,#690);
#597=AXIS2_PLACEMENT_3D('',#839,#691,#692);
#598=AXIS2_PLACEMENT_3D('',#842,#694,#695);
#599=AXIS2_PLACEMENT_3D('',#843,#696,#697);
#600=AXIS2_PLACEMENT_3D('',#849,#701,#702);
#601=AXIS2_PLACEMENT_3D('',#853,#705,#706);
#602=AXIS2_PLACEMENT_3D('',#857,#709,#710);
#603=AXIS2_PLACEMENT_3D('',#859,#712,#713);
#604=AXIS2_PLACEMENT_3D('',#860,#714,#715);
#605=AXIS2_PLACEMENT_3D('',#862,#716,#717);
#606=AXIS2_PLACEMENT_3D('',#865,#719,#720);
#607=AXIS2_PLACEMENT_3D('',#866,#721,#722);
#608=AXIS2_PLACEMENT_3D('',#875,#727,#728);
#609=AXIS2_PLACEMENT_3D('',#881,#732,#733);
#610=AXIS2_PLACEMENT_3D('',#887,#737,#738);
#611=AXIS2_PLACEMENT_3D('',#890,#741,#742);
#612=AXIS2_PLACEMENT_3D('',#891,#743,#744);
#613=AXIS2_PLACEMENT_3D('',#892,#745,#746);
#614=AXIS2_PLACEMENT_3D('',#894,#747,#748);
#615=AXIS2_PLACEMENT_3D('',#897,#750,#751);
#616=AXIS2_PLACEMENT_3D('',#898,#752,#753);
#617=AXIS2_PLACEMENT_3D('',#907,#758,#759);
#618=AXIS2_PLACEMENT_3D('',#913,#763,#764);
#619=AXIS2_PLACEMENT_3D('',#919,#768,#769);
#620=AXIS2_PLACEMENT_3D('',#922,#772,#773);
#621=AXIS2_PLACEMENT_3D('',#923,#774,#775);
#622=AXIS2_PLACEMENT_3D('',#924,#776,#777);
#623=DIRECTION('axis',(0.,0.,1.));
#624=DIRECTION('refdir',(1.,0.,0.));
#625=DIRECTION('axis',(0.,0.,1.));
#626=DIRECTION('refdir',(1.,0.,0.));
#627=DIRECTION('center_axis',(0.,0.,-1.));
#628=DIRECTION('ref_axis',(-1.,0.,0.));
#629=DIRECTION('center_axis',(0.,0.,-1.));
#630=DIRECTION('ref_axis',(-1.,0.,0.));
#631=DIRECTION('',(0.,0.,-1.));
#632=DIRECTION('center_axis',(0.,0.,1.));
#633=DIRECTION('ref_axis',(-1.,0.,0.));
#634=DIRECTION('center_axis',(0.,0.,1.));
#635=DIRECTION('ref_axis',(1.,0.,0.));
#636=DIRECTION('',(-1.,0.,0.));
#637=DIRECTION('',(0.,-1.,0.));
#638=DIRECTION('',(1.,-2.73910036535074E-33,0.));
#639=DIRECTION('',(0.,1.,0.));
#640=DIRECTION('center_axis',(0.,0.,-1.));
#641=DIRECTION('ref_axis',(1.,0.,0.));
#642=DIRECTION('center_axis',(0.,0.,-1.));
#643=DIRECTION('ref_axis',(1.,0.,0.));
#644=DIRECTION('center_axis',(0.,0.,-1.));
#645=DIRECTION('ref_axis',(1.,0.,0.));
#646=DIRECTION('center_axis',(0.,0.,-1.));
#647=DIRECTION('ref_axis',(1.,0.,0.));
#648=DIRECTION('center_axis',(0.,0.,-1.));
#649=DIRECTION('ref_axis',(1.,0.,0.));
#650=DIRECTION('center_axis',(0.,0.,-1.));
#651=DIRECTION('ref_axis',(1.,0.,0.));
#652=DIRECTION('center_axis',(0.,0.,-1.));
#653=DIRECTION('ref_axis',(1.,0.,0.));
#654=DIRECTION('center_axis',(0.,0.,-1.));
#655=DIRECTION('ref_axis',(1.,0.,0.));
#656=DIRECTION('center_axis',(0.,0.,1.));
#657=DIRECTION('ref_axis',(1.,0.,0.));
#658=DIRECTION('',(0.,0.,-1.));
#659=DIRECTION('center_axis',(0.,0.,-1.));
#660=DIRECTION('ref_axis',(1.,0.,0.));
#661=DIRECTION('center_axis',(0.,0.,1.));
#662=DIRECTION('ref_axis',(1.,0.,0.));
#663=DIRECTION('',(0.,0.,-1.));
#664=DIRECTION('center_axis',(0.,0.,-1.));
#665=DIRECTION('ref_axis',(1.,0.,0.));
#666=DIRECTION('center_axis',(0.,0.,1.));
#667=DIRECTION('ref_axis',(1.,0.,0.));
#668=DIRECTION('',(0.,0.,-1.));
#669=DIRECTION('center_axis',(0.,0.,-1.));
#670=DIRECTION('ref_axis',(1.,0.,0.));
#671=DIRECTION('center_axis',(0.,0.,1.));
#672=DIRECTION('ref_axis',(1.,0.,0.));
#673=DIRECTION('',(0.,0.,-1.));
#674=DIRECTION('center_axis',(0.,0.,-1.));
#675=DIRECTION('ref_axis',(1.,0.,0.));
#676=DIRECTION('center_axis',(0.,0.,1.));
#677=DIRECTION('ref_axis',(1.,0.,0.));
#678=DIRECTION('',(0.,0.,-1.));
#679=DIRECTION('center_axis',(0.,0.,-1.));
#680=DIRECTION('ref_axis',(1.,0.,0.));
#681=DIRECTION('center_axis',(0.,0.,1.));
#682=DIRECTION('ref_axis',(1.,0.,0.));
#683=DIRECTION('',(0.,0.,-1.));
#684=DIRECTION('center_axis',(0.,0.,-1.));
#685=DIRECTION('ref_axis',(1.,0.,0.));
#686=DIRECTION('center_axis',(0.,0.,1.));
#687=DIRECTION('ref_axis',(1.,0.,0.));
#688=DIRECTION('',(0.,0.,-1.));
#689=DIRECTION('center_axis',(0.,0.,-1.));
#690=DIRECTION('ref_axis',(1.,0.,0.));
#691=DIRECTION('center_axis',(0.,0.,1.));
#692=DIRECTION('ref_axis',(1.,0.,0.));
#693=DIRECTION('',(0.,0.,-1.));
#694=DIRECTION('center_axis',(0.,0.,-1.));
#695=DIRECTION('ref_axis',(1.,0.,0.));
#696=DIRECTION('center_axis',(-2.73910036535074E-33,-1.,0.));
#697=DIRECTION('ref_axis',(1.,-2.73910036535074E-33,0.));
#698=DIRECTION('',(1.,-2.73910036535074E-33,0.));
#699=DIRECTION('',(0.,0.,1.));
#700=DIRECTION('',(0.,0.,1.));
#701=DIRECTION('center_axis',(-1.,0.,0.));
#702=DIRECTION('ref_axis',(0.,-1.,0.));
#703=DIRECTION('',(0.,-1.,0.));
#704=DIRECTION('',(0.,0.,1.));
#705=DIRECTION('center_axis',(0.,1.,0.));
#706=DIRECTION('ref_axis',(-1.,0.,0.));
#707=DIRECTION('',(-1.,0.,0.));
#708=DIRECTION('',(0.,0.,1.));
#709=DIRECTION('center_axis',(1.,0.,0.));
#710=DIRECTION('ref_axis',(0.,1.,0.));
#711=DIRECTION('',(0.,1.,0.));
#712=DIRECTION('center_axis',(0.,0.,1.));
#713=DIRECTION('ref_axis',(1.,0.,0.));
#714=DIRECTION('center_axis',(0.,1.,0.));
#715=DIRECTION('ref_axis',(1.,0.,0.));
#716=DIRECTION('center_axis',(0.,1.,0.));
#717=DIRECTION('ref_axis',(1.,0.,0.));
#718=DIRECTION('',(0.,1.,0.));
#719=DIRECTION('center_axis',(0.,-1.,0.));
#720=DIRECTION('ref_axis',(1.,0.,0.));
#721=DIRECTION('center_axis',(-1.,0.,0.));
#722=DIRECTION('ref_axis',(0.,-1.,0.));
#723=DIRECTION('',(0.,1.,0.));
#724=DIRECTION('',(0.,0.,1.));
#725=DIRECTION('',(0.,-1.,0.));
#726=DIRECTION('',(0.,0.,1.));
#727=DIRECTION('center_axis',(0.,1.,0.));
#728=DIRECTION('ref_axis',(-1.,0.,0.));
#729=DIRECTION('',(1.,0.,0.));
#730=DIRECTION('',(-1.,0.,0.));
#731=DIRECTION('',(0.,0.,1.));
#732=DIRECTION('center_axis',(1.,0.,0.));
#733=DIRECTION('ref_axis',(0.,1.,0.));
#734=DIRECTION('',(0.,-1.,0.));
#735=DIRECTION('',(0.,1.,0.));
#736=DIRECTION('',(0.,0.,1.));
#737=DIRECTION('center_axis',(0.,-1.,0.));
#738=DIRECTION('ref_axis',(1.,0.,0.));
#739=DIRECTION('',(-1.,0.,0.));
#740=DIRECTION('',(1.,0.,0.));
#741=DIRECTION('center_axis',(0.,0.,1.));
#742=DIRECTION('ref_axis',(1.,0.,0.));
#743=DIRECTION('center_axis',(0.,0.,1.));
#744=DIRECTION('ref_axis',(-1.,0.,0.));
#745=DIRECTION('center_axis',(0.,1.,0.));
#746=DIRECTION('ref_axis',(1.,0.,0.));
#747=DIRECTION('center_axis',(0.,1.,0.));
#748=DIRECTION('ref_axis',(1.,0.,0.));
#749=DIRECTION('',(0.,1.,0.));
#750=DIRECTION('center_axis',(0.,-1.,0.));
#751=DIRECTION('ref_axis',(1.,0.,0.));
#752=DIRECTION('center_axis',(0.,1.,0.));
#753=DIRECTION('ref_axis',(-1.,0.,0.));
#754=DIRECTION('',(-1.,0.,0.));
#755=DIRECTION('',(0.,0.,1.));
#756=DIRECTION('',(-1.,0.,0.));
#757=DIRECTION('',(0.,0.,1.));
#758=DIRECTION('center_axis',(1.,0.,0.));
#759=DIRECTION('ref_axis',(0.,1.,0.));
#760=DIRECTION('',(0.,1.,0.));
#761=DIRECTION('',(0.,1.,0.));
#762=DIRECTION('',(0.,0.,1.));
#763=DIRECTION('center_axis',(0.,-1.,0.));
#764=DIRECTION('ref_axis',(1.,0.,0.));
#765=DIRECTION('',(1.,0.,0.));
#766=DIRECTION('',(1.,0.,0.));
#767=DIRECTION('',(0.,0.,1.));
#768=DIRECTION('center_axis',(-1.,0.,0.));
#769=DIRECTION('ref_axis',(0.,-1.,0.));
#770=DIRECTION('',(0.,-1.,0.));
#771=DIRECTION('',(0.,-1.,0.));
#772=DIRECTION('center_axis',(0.,0.,1.));
#773=DIRECTION('ref_axis',(1.,0.,0.));
#774=DIRECTION('center_axis',(0.,0.,1.));
#775=DIRECTION('ref_axis',(-1.,0.,0.));
#776=DIRECTION('',(0.,0.,1.));
#777=DIRECTION('',(1.,0.,0.));
#778=CARTESIAN_POINT('',(0.,0.,0.));
#779=CARTESIAN_POINT('',(0.,0.,0.));
#780=CARTESIAN_POINT('Origin',(41.0000006109476,67.0000009983778,8.));
#781=CARTESIAN_POINT('',(43.7500006109476,67.0000009983778,8.));
#782=CARTESIAN_POINT('Origin',(41.0000006109476,67.0000009983778,8.));
#783=CARTESIAN_POINT('',(43.7500006109476,67.0000009983778,0.));
#784=CARTESIAN_POINT('',(43.7500006109476,67.0000009983778,8.));
#785=CARTESIAN_POINT('Origin',(41.0000006109476,67.0000009983778,0.));
#786=CARTESIAN_POINT('Origin',(46.5,39.,8.));
#787=CARTESIAN_POINT('',(93.,78.,8.));
#788=CARTESIAN_POINT('',(0.,78.,8.));
#789=CARTESIAN_POINT('',(93.,78.,8.));
#790=CARTESIAN_POINT('',(0.,0.,8.));
#791=CARTESIAN_POINT('',(0.,78.,8.));
#792=CARTESIAN_POINT('',(93.,0.,8.));
#793=CARTESIAN_POINT('',(0.,0.,8.));
#794=CARTESIAN_POINT('',(93.,-2.54736333977619E-31,8.));
#795=CARTESIAN_POINT('',(51.9,30.,8.));
#796=CARTESIAN_POINT('Origin',(54.,30.,8.));
#797=CARTESIAN_POINT('',(75.9,30.,8.));
#798=CARTESIAN_POINT('Origin',(78.,30.,8.));
#799=CARTESIAN_POINT('',(51.9,48.,8.));
#800=CARTESIAN_POINT('Origin',(54.,48.,8.));
#801=CARTESIAN_POINT('',(75.9,48.,8.));
#802=CARTESIAN_POINT('Origin',(78.,48.,8.));
#803=CARTESIAN_POINT('',(36.9,48.,8.));
#804=CARTESIAN_POINT('Origin',(39.,48.,8.));
#805=CARTESIAN_POINT('',(12.9,48.,8.));
#806=CARTESIAN_POINT('Origin',(15.,48.,8.));
#807=CARTESIAN_POINT('',(36.9,30.,8.));
#808=CARTESIAN_POINT('Origin',(39.,30.,8.));
#809=CARTESIAN_POINT('',(12.9,30.,8.));
#810=CARTESIAN_POINT('Origin',(15.,30.,8.));
#811=CARTESIAN_POINT('Origin',(15.,30.,0.));
#812=CARTESIAN_POINT('',(12.9,30.,0.));
#813=CARTESIAN_POINT('',(12.9,30.,0.));
#814=CARTESIAN_POINT('Origin',(15.,30.,0.));
#815=CARTESIAN_POINT('Origin',(39.,30.,0.));
#816=CARTESIAN_POINT('',(36.9,30.,0.));
#817=CARTESIAN_POINT('',(36.9,30.,0.));
#818=CARTESIAN_POINT('Origin',(39.,30.,0.));
#819=CARTESIAN_POINT('Origin',(15.,48.,0.));
#820=CARTESIAN_POINT('',(12.9,48.,0.));
#821=CARTESIAN_POINT('',(12.9,48.,0.));
#822=CARTESIAN_POINT('Origin',(15.,48.,0.));
#823=CARTESIAN_POINT('Origin',(39.,48.,0.));
#824=CARTESIAN_POINT('',(36.9,48.,0.));
#825=CARTESIAN_POINT('',(36.9,48.,0.));
#826=CARTESIAN_POINT('Origin',(39.,48.,0.));
#827=CARTESIAN_POINT('Origin',(78.,48.,0.));
#828=CARTESIAN_POINT('',(75.9,48.,0.));
#829=CARTESIAN_POINT('',(75.9,48.,0.));
#830=CARTESIAN_POINT('Origin',(78.,48.,0.));
#831=CARTESIAN_POINT('Origin',(54.,30.,0.));
#832=CARTESIAN_POINT('',(51.9,30.,0.));
#833=CARTESIAN_POINT('',(51.9,30.,0.));
#834=CARTESIAN_POINT('Origin',(54.,30.,0.));
#835=CARTESIAN_POINT('Origin',(54.,48.,0.));
#836=CARTESIAN_POINT('',(51.9,48.,0.));
#837=CARTESIAN_POINT('',(51.9,48.,0.));
#838=CARTESIAN_POINT('Origin',(54.,48.,0.));
#839=CARTESIAN_POINT('Origin',(78.,30.,0.));
#840=CARTESIAN_POINT('',(75.9,30.,0.));
#841=CARTESIAN_POINT('',(75.9,30.,0.));
#842=CARTESIAN_POINT('Origin',(78.,30.,0.));
#843=CARTESIAN_POINT('Origin',(0.,0.,0.));
#844=CARTESIAN_POINT('',(0.,0.,0.));
#845=CARTESIAN_POINT('',(93.,-2.54736333977619E-31,0.));
#846=CARTESIAN_POINT('',(0.,0.,0.));
#847=CARTESIAN_POINT('',(93.,-2.54736333977619E-31,0.));
#848=CARTESIAN_POINT('',(0.,0.,0.));
#849=CARTESIAN_POINT('Origin',(0.,78.,0.));
#850=CARTESIAN_POINT('',(0.,78.,0.));
#851=CARTESIAN_POINT('',(0.,78.,0.));
#852=CARTESIAN_POINT('',(0.,78.,0.));
#853=CARTESIAN_POINT('Origin',(93.,78.,0.));
#854=CARTESIAN_POINT('',(93.,78.,0.));
#855=CARTESIAN_POINT('',(93.,78.,0.));
#856=CARTESIAN_POINT('',(93.,78.,0.));
#857=CARTESIAN_POINT('Origin',(93.,-2.54736333977619E-31,0.));
#858=CARTESIAN_POINT('',(93.,-2.54736333977619E-31,0.));
#859=CARTESIAN_POINT('Origin',(46.5,39.,0.));
#860=CARTESIAN_POINT('Origin',(62.000000923872,14.0000002086163,32.0000004768372));
#861=CARTESIAN_POINT('',(59.750000923872,33.0000004917383,32.0000004768372));
#862=CARTESIAN_POINT('Origin',(62.000000923872,33.0000004917383,32.0000004768372));
#863=CARTESIAN_POINT('',(59.750000923872,41.0000006109476,32.0000004768372));
#864=CARTESIAN_POINT('',(59.750000923872,14.0000002086163,32.0000004768372));
#865=CARTESIAN_POINT('Origin',(62.000000923872,41.0000006109476,32.0000004768372));
#866=CARTESIAN_POINT('Origin',(54.0000008046627,41.0000006109476,8.));
#867=CARTESIAN_POINT('',(54.0000008046627,33.0000004917383,8.));
#868=CARTESIAN_POINT('',(54.0000008046627,41.0000006109476,8.));
#869=CARTESIAN_POINT('',(54.0000008046627,33.0000004917383,8.));
#870=CARTESIAN_POINT('',(54.0000008046627,33.0000004917383,48.));
#871=CARTESIAN_POINT('',(54.0000008046627,33.0000004917383,8.));
#872=CARTESIAN_POINT('',(54.0000008046627,41.0000006109476,48.));
#873=CARTESIAN_POINT('',(54.0000008046627,33.0000004917383,48.));
#874=CARTESIAN_POINT('',(54.0000008046627,41.0000006109476,8.));
#875=CARTESIAN_POINT('Origin',(70.0000010430813,41.0000006109476,8.));
#876=CARTESIAN_POINT('',(70.0000010430813,41.0000006109476,8.));
#877=CARTESIAN_POINT('',(54.0000008046627,41.0000006109476,8.));
#878=CARTESIAN_POINT('',(70.0000010430813,41.0000006109476,48.));
#879=CARTESIAN_POINT('',(54.0000008046627,41.0000006109476,48.));
#880=CARTESIAN_POINT('',(70.0000010430813,41.0000006109476,8.));
#881=CARTESIAN_POINT('Origin',(70.0000010430813,33.0000004917383,8.));
#882=CARTESIAN_POINT('',(70.0000010430813,33.0000004917383,8.));
#883=CARTESIAN_POINT('',(70.0000010430813,41.0000006109476,8.));
#884=CARTESIAN_POINT('',(70.0000010430813,33.0000004917383,48.));
#885=CARTESIAN_POINT('',(70.0000010430813,41.0000006109476,48.));
#886=CARTESIAN_POINT('',(70.0000010430813,33.0000004917383,8.));
#887=CARTESIAN_POINT('Origin',(54.0000008046627,33.0000004917383,8.));
#888=CARTESIAN_POINT('',(70.0000010430813,33.0000004917383,8.));
#889=CARTESIAN_POINT('',(70.0000010430813,33.0000004917383,48.));
#890=CARTESIAN_POINT('Origin',(62.000000923872,37.000000551343,48.));
#891=CARTESIAN_POINT('Origin',(62.000000923872,37.000000551343,8.));
#892=CARTESIAN_POINT('Origin',(62.000000923872,14.0000002086163,32.0000004768372));
#893=CARTESIAN_POINT('',(59.750000923872,14.0000002086163,32.0000004768372));
#894=CARTESIAN_POINT('Origin',(62.000000923872,14.0000002086163,32.0000004768372));
#895=CARTESIAN_POINT('',(59.750000923872,22.0000003278255,32.0000004768372));
#896=CARTESIAN_POINT('',(59.750000923872,14.0000002086163,32.0000004768372));
#897=CARTESIAN_POINT('Origin',(62.000000923872,22.0000003278255,32.0000004768372));
#898=CARTESIAN_POINT('Origin',(70.0000010430813,22.0000003278255,8.));
#899=CARTESIAN_POINT('',(70.0000010430813,22.0000003278255,8.));
#900=CARTESIAN_POINT('',(54.0000008046627,22.0000003278255,8.));
#901=CARTESIAN_POINT('',(70.0000010430813,22.0000003278255,8.));
#902=CARTESIAN_POINT('',(54.0000008046627,22.0000003278255,48.));
#903=CARTESIAN_POINT('',(54.0000008046627,22.0000003278255,8.));
#904=CARTESIAN_POINT('',(70.0000010430813,22.0000003278255,48.));
#905=CARTESIAN_POINT('',(70.0000010430813,22.0000003278255,48.));
#906=CARTESIAN_POINT('',(70.0000010430813,22.0000003278255,8.));
#907=CARTESIAN_POINT('Origin',(70.0000010430813,14.0000002086163,8.));
#908=CARTESIAN_POINT('',(70.0000010430813,14.0000002086163,8.));
#909=CARTESIAN_POINT('',(70.0000010430813,14.0000002086163,8.));
#910=CARTESIAN_POINT('',(70.0000010430813,14.0000002086163,48.));
#911=CARTESIAN_POINT('',(70.0000010430813,14.0000002086163,48.));
#912=CARTESIAN_POINT('',(70.0000010430813,14.0000002086163,8.));
#913=CARTESIAN_POINT('Origin',(54.0000008046627,14.0000002086163,8.));
#914=CARTESIAN_POINT('',(54.0000008046627,14.0000002086163,8.));
#915=CARTESIAN_POINT('',(54.0000008046627,14.0000002086163,8.));
#916=CARTESIAN_POINT('',(54.0000008046627,14.0000002086163,48.));
#917=CARTESIAN_POINT('',(54.0000008046627,14.0000002086163,48.));
#918=CARTESIAN_POINT('',(54.0000008046627,14.0000002086163,8.));
#919=CARTESIAN_POINT('Origin',(54.0000008046627,22.0000003278255,8.));
#920=CARTESIAN_POINT('',(54.0000008046627,22.0000003278255,8.));
#921=CARTESIAN_POINT('',(54.0000008046627,22.0000003278255,48.));
#922=CARTESIAN_POINT('Origin',(62.000000923872,18.0000002682209,48.));
#923=CARTESIAN_POINT('Origin',(62.000000923872,18.0000002682209,8.));
#924=CARTESIAN_POINT('',(0.,0.,0.));
#925=UNCERTAINTY_MEASURE_WITH_UNIT(LENGTH_MEASURE(0.01),#931,
'DISTANCE_ACCURACY_VALUE',
'Maximum model space distance between geometric entities at asserted c
onnectivities');
#926=UNCERTAINTY_MEASURE_WITH_UNIT(LENGTH_MEASURE(0.01),#931,
'DISTANCE_ACCURACY_VALUE',
'Maximum model space distance between geometric entities at asserted c
onnectivities');
#927=UNCERTAINTY_MEASURE_WITH_UNIT(LENGTH_MEASURE(0.01),#931,
'DISTANCE_ACCURACY_VALUE',
'Maximum model space distance between geometric entities at asserted c
onnectivities');
#928=(
GEOMETRIC_REPRESENTATION_CONTEXT(3)
GLOBAL_UNCERTAINTY_ASSIGNED_CONTEXT((#925))
GLOBAL_UNIT_ASSIGNED_CONTEXT((#931,#933,#934))
REPRESENTATION_CONTEXT('','3D')
);
#929=(
GEOMETRIC_REPRESENTATION_CONTEXT(3)
GLOBAL_UNCERTAINTY_ASSIGNED_CONTEXT((#926))
GLOBAL_UNIT_ASSIGNED_CONTEXT((#931,#933,#934))
REPRESENTATION_CONTEXT('','3D')
);
#930=(
GEOMETRIC_REPRESENTATION_CONTEXT(3)
GLOBAL_UNCERTAINTY_ASSIGNED_CONTEXT((#927))
GLOBAL_UNIT_ASSIGNED_CONTEXT((#931,#933,#934))
REPRESENTATION_CONTEXT('','3D')
);
#931=(
LENGTH_UNIT()
NAMED_UNIT(*)
SI_UNIT(.MILLI.,.METRE.)
);
#932=(
LENGTH_UNIT()
NAMED_UNIT(*)
SI_UNIT($,.METRE.)
);
#933=(
NAMED_UNIT(*)
PLANE_ANGLE_UNIT()
SI_UNIT($,.RADIAN.)
);
#934=(
NAMED_UNIT(*)
SI_UNIT($,.STERADIAN.)
SOLID_ANGLE_UNIT()
);
#935=SHAPE_DEFINITION_REPRESENTATION(#937,#940);
#936=SHAPE_DEFINITION_REPRESENTATION(#938,#941);
#937=PRODUCT_DEFINITION_SHAPE('',$,#943);
#938=PRODUCT_DEFINITION_SHAPE('',$,#944);
#939=PRODUCT_DEFINITION_SHAPE($,$,#14);
#940=SHAPE_REPRESENTATION('',(#569,#622),#928);
#941=SHAPE_REPRESENTATION('',(#570),#929);
#942=PRODUCT_DEFINITION_CONTEXT('part definition',#950,'design');
#943=PRODUCT_DEFINITION('2025-12-12-13-06-51-744',
'Assembled y carriage idler',#945,#942);
#944=PRODUCT_DEFINITION('2025-12-10-15-46-54-100',
'Y carriage idler pulley',#946,#942);
#945=PRODUCT_DEFINITION_FORMATION('',$,#952);
#946=PRODUCT_DEFINITION_FORMATION('',$,#953);
#947=PRODUCT_RELATED_PRODUCT_CATEGORY('Assembled y carriage idler',
'Assembled y carriage idler',(#952));
#948=PRODUCT_RELATED_PRODUCT_CATEGORY('Y carriage idler pulley',
'Y carriage idler pulley',(#953));
#949=APPLICATION_PROTOCOL_DEFINITION('international standard',
'automotive_design',2009,#950);
#950=APPLICATION_CONTEXT(
'Core Data for Automotive Mechanical Design Process');
#951=PRODUCT_CONTEXT('part definition',#950,'mechanical');
#952=PRODUCT('2025-12-12-13-06-51-744','Assembled y carriage idler',$,(#951));
#953=PRODUCT('2025-12-10-15-46-54-100','Y carriage idler pulley',$,(#951));
#954=PRESENTATION_STYLE_ASSIGNMENT((#955));
#955=SURFACE_STYLE_USAGE(.BOTH.,#956);
#956=SURFACE_SIDE_STYLE('',(#957));
#957=SURFACE_STYLE_FILL_AREA(#958);
#958=FILL_AREA_STYLE('Steel - Satin',(#959));
#959=FILL_AREA_STYLE_COLOUR('Steel - Satin',#960);
#960=COLOUR_RGB('Steel - Satin',0.627450980392157,0.627450980392157,0.627450980392157);
ENDSEC;
END-ISO-10303-21;
