ISO-10303-21;
HEADER;
/* Generated by software containing ST-Developer
 * from STEP Tools, Inc. (www.steptools.com) 
 */

FILE_DESCRIPTION(
/* description */ (''),
/* implementation_level */ '2;1');

FILE_NAME(
/* name */ 'Y carriage idler pulley.step',
/* time_stamp */ '2025-12-30T18:42:10+11:00',
/* author */ (''),
/* organization */ (''),
/* preprocessor_version */ 'ST-DEVELOPER v20.1',
/* originating_system */ 'Autodesk Translation Framework v14.21.0.0',
/* authorisation */ '');

FILE_SCHEMA (('AUTOMOTIVE_DESIGN { 1 0 10303 214 3 1 1 }'));
ENDSEC;

DATA;
#10=MECHANICAL_DESIGN_GEOMETRIC_PRESENTATION_REPRESENTATION('',(#13),#1297);
#11=SHAPE_REPRESENTATION_RELATIONSHIP('SRR','None',#1304,#12);
#12=ADVANCED_BREP_SHAPE_REPRESENTATION('',(#14),#1296);
#13=STYLED_ITEM('',(#1313),#14);
#14=MANIFOLD_SOLID_BREP('Body5',#789);
#15=FACE_BOUND('',#117,.T.);
#16=FACE_BOUND('',#120,.T.);
#17=FACE_BOUND('',#124,.T.);
#18=FACE_BOUND('',#127,.T.);
#19=FACE_BOUND('',#130,.T.);
#20=FACE_BOUND('',#131,.T.);
#21=FACE_BOUND('',#132,.T.);
#22=FACE_BOUND('',#133,.T.);
#23=FACE_BOUND('',#134,.T.);
#24=FACE_BOUND('',#135,.T.);
#25=FACE_BOUND('',#136,.T.);
#26=FACE_BOUND('',#137,.T.);
#27=FACE_BOUND('',#138,.T.);
#28=FACE_BOUND('',#139,.T.);
#29=FACE_BOUND('',#140,.T.);
#30=FACE_BOUND('',#141,.T.);
#31=FACE_BOUND('',#149,.T.);
#32=FACE_BOUND('',#150,.T.);
#33=FACE_BOUND('',#154,.T.);
#34=FACE_BOUND('',#155,.T.);
#35=FACE_BOUND('',#157,.T.);
#36=FACE_BOUND('',#158,.T.);
#37=FACE_BOUND('',#162,.T.);
#38=FACE_BOUND('',#163,.T.);
#39=FACE_BOUND('',#177,.T.);
#40=FACE_BOUND('',#178,.T.);
#41=FACE_BOUND('',#179,.T.);
#42=FACE_BOUND('',#180,.T.);
#43=FACE_BOUND('',#181,.T.);
#44=FACE_BOUND('',#182,.T.);
#45=FACE_BOUND('',#183,.T.);
#46=FACE_BOUND('',#184,.T.);
#47=PLANE('',#809);
#48=PLANE('',#810);
#49=PLANE('',#811);
#50=PLANE('',#812);
#51=PLANE('',#813);
#52=PLANE('',#814);
#53=PLANE('',#815);
#54=PLANE('',#816);
#55=PLANE('',#817);
#56=PLANE('',#818);
#57=PLANE('',#819);
#58=PLANE('',#840);
#59=PLANE('',#841);
#60=PLANE('',#842);
#61=PLANE('',#843);
#62=PLANE('',#844);
#63=PLANE('',#845);
#64=PLANE('',#846);
#65=PLANE('',#847);
#66=PLANE('',#848);
#67=PLANE('',#849);
#68=PLANE('',#866);
#69=PLANE('',#867);
#70=PLANE('',#868);
#71=PLANE('',#869);
#72=PLANE('',#870);
#73=FACE_OUTER_BOUND('',#113,.T.);
#74=FACE_OUTER_BOUND('',#114,.T.);
#75=FACE_OUTER_BOUND('',#115,.T.);
#76=FACE_OUTER_BOUND('',#116,.T.);
#77=FACE_OUTER_BOUND('',#118,.T.);
#78=FACE_OUTER_BOUND('',#119,.T.);
#79=FACE_OUTER_BOUND('',#121,.T.);
#80=FACE_OUTER_BOUND('',#122,.T.);
#81=FACE_OUTER_BOUND('',#123,.T.);
#82=FACE_OUTER_BOUND('',#125,.T.);
#83=FACE_OUTER_BOUND('',#126,.T.);
#84=FACE_OUTER_BOUND('',#128,.T.);
#85=FACE_OUTER_BOUND('',#129,.T.);
#86=FACE_OUTER_BOUND('',#142,.T.);
#87=FACE_OUTER_BOUND('',#143,.T.);
#88=FACE_OUTER_BOUND('',#144,.T.);
#89=FACE_OUTER_BOUND('',#145,.T.);
#90=FACE_OUTER_BOUND('',#146,.T.);
#91=FACE_OUTER_BOUND('',#147,.T.);
#92=FACE_OUTER_BOUND('',#148,.T.);
#93=FACE_OUTER_BOUND('',#151,.T.);
#94=FACE_OUTER_BOUND('',#152,.T.);
#95=FACE_OUTER_BOUND('',#153,.T.);
#96=FACE_OUTER_BOUND('',#156,.T.);
#97=FACE_OUTER_BOUND('',#159,.T.);
#98=FACE_OUTER_BOUND('',#160,.T.);
#99=FACE_OUTER_BOUND('',#161,.T.);
#100=FACE_OUTER_BOUND('',#164,.T.);
#101=FACE_OUTER_BOUND('',#165,.T.);
#102=FACE_OUTER_BOUND('',#166,.T.);
#103=FACE_OUTER_BOUND('',#167,.T.);
#104=FACE_OUTER_BOUND('',#168,.T.);
#105=FACE_OUTER_BOUND('',#169,.T.);
#106=FACE_OUTER_BOUND('',#170,.T.);
#107=FACE_OUTER_BOUND('',#171,.T.);
#108=FACE_OUTER_BOUND('',#172,.T.);
#109=FACE_OUTER_BOUND('',#173,.T.);
#110=FACE_OUTER_BOUND('',#174,.T.);
#111=FACE_OUTER_BOUND('',#175,.T.);
#112=FACE_OUTER_BOUND('',#176,.T.);
#113=EDGE_LOOP('',(#531,#532,#533,#534));
#114=EDGE_LOOP('',(#535,#536,#537,#538));
#115=EDGE_LOOP('',(#539,#540,#541,#542));
#116=EDGE_LOOP('',(#543,#544,#545,#546));
#117=EDGE_LOOP('',(#547));
#118=EDGE_LOOP('',(#548,#549,#550,#551));
#119=EDGE_LOOP('',(#552,#553,#554,#555));
#120=EDGE_LOOP('',(#556));
#121=EDGE_LOOP('',(#557,#558,#559,#560));
#122=EDGE_LOOP('',(#561,#562,#563,#564));
#123=EDGE_LOOP('',(#565,#566,#567,#568));
#124=EDGE_LOOP('',(#569));
#125=EDGE_LOOP('',(#570,#571,#572,#573));
#126=EDGE_LOOP('',(#574,#575,#576,#577));
#127=EDGE_LOOP('',(#578));
#128=EDGE_LOOP('',(#579,#580,#581,#582));
#129=EDGE_LOOP('',(#583,#584,#585,#586));
#130=EDGE_LOOP('',(#587,#588,#589,#590));
#131=EDGE_LOOP('',(#591,#592,#593,#594));
#132=EDGE_LOOP('',(#595));
#133=EDGE_LOOP('',(#596));
#134=EDGE_LOOP('',(#597));
#135=EDGE_LOOP('',(#598));
#136=EDGE_LOOP('',(#599));
#137=EDGE_LOOP('',(#600));
#138=EDGE_LOOP('',(#601));
#139=EDGE_LOOP('',(#602));
#140=EDGE_LOOP('',(#603,#604,#605,#606));
#141=EDGE_LOOP('',(#607,#608,#609,#610));
#142=EDGE_LOOP('',(#611,#612,#613,#614));
#143=EDGE_LOOP('',(#615,#616,#617,#618));
#144=EDGE_LOOP('',(#619,#620,#621,#622));
#145=EDGE_LOOP('',(#623,#624,#625,#626));
#146=EDGE_LOOP('',(#627,#628,#629,#630));
#147=EDGE_LOOP('',(#631,#632,#633,#634));
#148=EDGE_LOOP('',(#635,#636,#637,#638));
#149=EDGE_LOOP('',(#639));
#150=EDGE_LOOP('',(#640));
#151=EDGE_LOOP('',(#641,#642,#643,#644));
#152=EDGE_LOOP('',(#645,#646,#647,#648));
#153=EDGE_LOOP('',(#649,#650,#651,#652));
#154=EDGE_LOOP('',(#653));
#155=EDGE_LOOP('',(#654));
#156=EDGE_LOOP('',(#655,#656,#657,#658));
#157=EDGE_LOOP('',(#659));
#158=EDGE_LOOP('',(#660));
#159=EDGE_LOOP('',(#661,#662,#663,#664));
#160=EDGE_LOOP('',(#665,#666,#667,#668));
#161=EDGE_LOOP('',(#669,#670,#671,#672));
#162=EDGE_LOOP('',(#673));
#163=EDGE_LOOP('',(#674));
#164=EDGE_LOOP('',(#675,#676,#677,#678));
#165=EDGE_LOOP('',(#679,#680,#681,#682));
#166=EDGE_LOOP('',(#683,#684,#685,#686));
#167=EDGE_LOOP('',(#687,#688,#689,#690));
#168=EDGE_LOOP('',(#691,#692,#693,#694));
#169=EDGE_LOOP('',(#695,#696,#697,#698));
#170=EDGE_LOOP('',(#699,#700,#701,#702));
#171=EDGE_LOOP('',(#703,#704,#705,#706));
#172=EDGE_LOOP('',(#707,#708,#709,#710));
#173=EDGE_LOOP('',(#711,#712,#713,#714));
#174=EDGE_LOOP('',(#715,#716,#717,#718));
#175=EDGE_LOOP('',(#719,#720,#721,#722));
#176=EDGE_LOOP('',(#723,#724,#725,#726));
#177=EDGE_LOOP('',(#727));
#178=EDGE_LOOP('',(#728));
#179=EDGE_LOOP('',(#729));
#180=EDGE_LOOP('',(#730));
#181=EDGE_LOOP('',(#731));
#182=EDGE_LOOP('',(#732));
#183=EDGE_LOOP('',(#733));
#184=EDGE_LOOP('',(#734));
#185=LINE('',#1088,#259);
#186=LINE('',#1094,#260);
#187=LINE('',#1099,#261);
#188=LINE('',#1101,#262);
#189=LINE('',#1103,#263);
#190=LINE('',#1104,#264);
#191=LINE('',#1107,#265);
#192=LINE('',#1109,#266);
#193=LINE('',#1110,#267);
#194=LINE('',#1113,#268);
#195=LINE('',#1115,#269);
#196=LINE('',#1116,#270);
#197=LINE('',#1118,#271);
#198=LINE('',#1119,#272);
#199=LINE('',#1124,#273);
#200=LINE('',#1126,#274);
#201=LINE('',#1128,#275);
#202=LINE('',#1129,#276);
#203=LINE('',#1132,#277);
#204=LINE('',#1134,#278);
#205=LINE('',#1135,#279);
#206=LINE('',#1138,#280);
#207=LINE('',#1140,#281);
#208=LINE('',#1141,#282);
#209=LINE('',#1143,#283);
#210=LINE('',#1144,#284);
#211=LINE('',#1149,#285);
#212=LINE('',#1151,#286);
#213=LINE('',#1153,#287);
#214=LINE('',#1154,#288);
#215=LINE('',#1173,#289);
#216=LINE('',#1175,#290);
#217=LINE('',#1177,#291);
#218=LINE('',#1178,#292);
#219=LINE('',#1181,#293);
#220=LINE('',#1183,#294);
#221=LINE('',#1185,#295);
#222=LINE('',#1186,#296);
#223=LINE('',#1191,#297);
#224=LINE('',#1197,#298);
#225=LINE('',#1203,#299);
#226=LINE('',#1209,#300);
#227=LINE('',#1214,#301);
#228=LINE('',#1216,#302);
#229=LINE('',#1218,#303);
#230=LINE('',#1219,#304);
#231=LINE('',#1223,#305);
#232=LINE('',#1225,#306);
#233=LINE('',#1227,#307);
#234=LINE('',#1228,#308);
#235=LINE('',#1230,#309);
#236=LINE('',#1231,#310);
#237=LINE('',#1233,#311);
#238=LINE('',#1235,#312);
#239=LINE('',#1238,#313);
#240=LINE('',#1239,#314);
#241=LINE('',#1241,#315);
#242=LINE('',#1243,#316);
#243=LINE('',#1247,#317);
#244=LINE('',#1251,#318);
#245=LINE('',#1255,#319);
#246=LINE('',#1259,#320);
#247=LINE('',#1263,#321);
#248=LINE('',#1267,#322);
#249=LINE('',#1271,#323);
#250=LINE('',#1275,#324);
#251=LINE('',#1280,#325);
#252=LINE('',#1281,#326);
#253=LINE('',#1282,#327);
#254=LINE('',#1285,#328);
#255=LINE('',#1286,#329);
#256=LINE('',#1289,#330);
#257=LINE('',#1290,#331);
#258=LINE('',#1292,#332);
#259=VECTOR('',#877,2.75);
#260=VECTOR('',#884,2.75);
#261=VECTOR('',#889,10.);
#262=VECTOR('',#890,10.);
#263=VECTOR('',#891,10.);
#264=VECTOR('',#892,10.);
#265=VECTOR('',#895,10.);
#266=VECTOR('',#896,10.);
#267=VECTOR('',#897,10.);
#268=VECTOR('',#900,10.);
#269=VECTOR('',#901,10.);
#270=VECTOR('',#902,10.);
#271=VECTOR('',#905,10.);
#272=VECTOR('',#906,10.);
#273=VECTOR('',#911,10.);
#274=VECTOR('',#912,10.);
#275=VECTOR('',#913,10.);
#276=VECTOR('',#914,10.);
#277=VECTOR('',#917,10.);
#278=VECTOR('',#918,10.);
#279=VECTOR('',#919,10.);
#280=VECTOR('',#922,10.);
#281=VECTOR('',#923,10.);
#282=VECTOR('',#924,10.);
#283=VECTOR('',#927,10.);
#284=VECTOR('',#928,10.);
#285=VECTOR('',#933,10.);
#286=VECTOR('',#934,10.);
#287=VECTOR('',#935,10.);
#288=VECTOR('',#936,10.);
#289=VECTOR('',#953,10.);
#290=VECTOR('',#954,10.);
#291=VECTOR('',#955,10.);
#292=VECTOR('',#956,10.);
#293=VECTOR('',#957,10.);
#294=VECTOR('',#958,10.);
#295=VECTOR('',#959,10.);
#296=VECTOR('',#960,10.);
#297=VECTOR('',#965,2.75);
#298=VECTOR('',#972,2.75);
#299=VECTOR('',#979,2.75);
#300=VECTOR('',#986,2.75);
#301=VECTOR('',#991,10.);
#302=VECTOR('',#992,10.);
#303=VECTOR('',#993,10.);
#304=VECTOR('',#994,10.);
#305=VECTOR('',#997,10.);
#306=VECTOR('',#998,10.);
#307=VECTOR('',#999,10.);
#308=VECTOR('',#1000,10.);
#309=VECTOR('',#1003,10.);
#310=VECTOR('',#1004,10.);
#311=VECTOR('',#1007,10.);
#312=VECTOR('',#1010,10.);
#313=VECTOR('',#1015,10.);
#314=VECTOR('',#1016,10.);
#315=VECTOR('',#1019,10.);
#316=VECTOR('',#1022,10.);
#317=VECTOR('',#1027,2.1);
#318=VECTOR('',#1032,2.1);
#319=VECTOR('',#1037,2.1);
#320=VECTOR('',#1042,2.1);
#321=VECTOR('',#1047,2.09999999999999);
#322=VECTOR('',#1052,2.1);
#323=VECTOR('',#1057,2.1);
#324=VECTOR('',#1062,2.09999999999999);
#325=VECTOR('',#1067,10.);
#326=VECTOR('',#1068,10.);
#327=VECTOR('',#1069,10.);
#328=VECTOR('',#1072,10.);
#329=VECTOR('',#1073,10.);
#330=VECTOR('',#1076,10.);
#331=VECTOR('',#1077,10.);
#332=VECTOR('',#1080,10.);
#333=CIRCLE('',#804,2.75);
#334=CIRCLE('',#805,2.75);
#335=CIRCLE('',#807,2.75);
#336=CIRCLE('',#808,2.75);
#337=CIRCLE('',#820,2.1);
#338=CIRCLE('',#821,2.1);
#339=CIRCLE('',#822,2.1);
#340=CIRCLE('',#823,2.1);
#341=CIRCLE('',#824,2.09999999999999);
#342=CIRCLE('',#825,2.1);
#343=CIRCLE('',#826,2.1);
#344=CIRCLE('',#827,2.09999999999999);
#345=CIRCLE('',#829,2.75);
#346=CIRCLE('',#830,2.75);
#347=CIRCLE('',#832,2.75);
#348=CIRCLE('',#833,2.75);
#349=CIRCLE('',#835,2.75);
#350=CIRCLE('',#836,2.75);
#351=CIRCLE('',#838,2.75);
#352=CIRCLE('',#839,2.75);
#353=CIRCLE('',#851,2.1);
#354=CIRCLE('',#853,2.1);
#355=CIRCLE('',#855,2.1);
#356=CIRCLE('',#857,2.1);
#357=CIRCLE('',#859,2.09999999999999);
#358=CIRCLE('',#861,2.1);
#359=CIRCLE('',#863,2.1);
#360=CIRCLE('',#865,2.09999999999999);
#361=VERTEX_POINT('',#1085);
#362=VERTEX_POINT('',#1087);
#363=VERTEX_POINT('',#1091);
#364=VERTEX_POINT('',#1093);
#365=VERTEX_POINT('',#1097);
#366=VERTEX_POINT('',#1098);
#367=VERTEX_POINT('',#1100);
#368=VERTEX_POINT('',#1102);
#369=VERTEX_POINT('',#1106);
#370=VERTEX_POINT('',#1108);
#371=VERTEX_POINT('',#1112);
#372=VERTEX_POINT('',#1114);
#373=VERTEX_POINT('',#1122);
#374=VERTEX_POINT('',#1123);
#375=VERTEX_POINT('',#1125);
#376=VERTEX_POINT('',#1127);
#377=VERTEX_POINT('',#1131);
#378=VERTEX_POINT('',#1133);
#379=VERTEX_POINT('',#1137);
#380=VERTEX_POINT('',#1139);
#381=VERTEX_POINT('',#1147);
#382=VERTEX_POINT('',#1148);
#383=VERTEX_POINT('',#1150);
#384=VERTEX_POINT('',#1152);
#385=VERTEX_POINT('',#1155);
#386=VERTEX_POINT('',#1157);
#387=VERTEX_POINT('',#1159);
#388=VERTEX_POINT('',#1161);
#389=VERTEX_POINT('',#1163);
#390=VERTEX_POINT('',#1165);
#391=VERTEX_POINT('',#1167);
#392=VERTEX_POINT('',#1169);
#393=VERTEX_POINT('',#1171);
#394=VERTEX_POINT('',#1172);
#395=VERTEX_POINT('',#1174);
#396=VERTEX_POINT('',#1176);
#397=VERTEX_POINT('',#1179);
#398=VERTEX_POINT('',#1180);
#399=VERTEX_POINT('',#1182);
#400=VERTEX_POINT('',#1184);
#401=VERTEX_POINT('',#1188);
#402=VERTEX_POINT('',#1190);
#403=VERTEX_POINT('',#1194);
#404=VERTEX_POINT('',#1196);
#405=VERTEX_POINT('',#1200);
#406=VERTEX_POINT('',#1202);
#407=VERTEX_POINT('',#1206);
#408=VERTEX_POINT('',#1208);
#409=VERTEX_POINT('',#1212);
#410=VERTEX_POINT('',#1213);
#411=VERTEX_POINT('',#1215);
#412=VERTEX_POINT('',#1217);
#413=VERTEX_POINT('',#1221);
#414=VERTEX_POINT('',#1222);
#415=VERTEX_POINT('',#1224);
#416=VERTEX_POINT('',#1226);
#417=VERTEX_POINT('',#1246);
#418=VERTEX_POINT('',#1250);
#419=VERTEX_POINT('',#1254);
#420=VERTEX_POINT('',#1258);
#421=VERTEX_POINT('',#1262);
#422=VERTEX_POINT('',#1266);
#423=VERTEX_POINT('',#1270);
#424=VERTEX_POINT('',#1274);
#425=VERTEX_POINT('',#1278);
#426=VERTEX_POINT('',#1279);
#427=VERTEX_POINT('',#1284);
#428=VERTEX_POINT('',#1288);
#429=EDGE_CURVE('',#361,#361,#333,.T.);
#430=EDGE_CURVE('',#361,#362,#185,.T.);
#431=EDGE_CURVE('',#362,#362,#334,.T.);
#432=EDGE_CURVE('',#363,#363,#335,.T.);
#433=EDGE_CURVE('',#363,#364,#186,.T.);
#434=EDGE_CURVE('',#364,#364,#336,.T.);
#435=EDGE_CURVE('',#365,#366,#187,.T.);
#436=EDGE_CURVE('',#365,#367,#188,.T.);
#437=EDGE_CURVE('',#368,#367,#189,.T.);
#438=EDGE_CURVE('',#366,#368,#190,.T.);
#439=EDGE_CURVE('',#366,#369,#191,.T.);
#440=EDGE_CURVE('',#370,#368,#192,.T.);
#441=EDGE_CURVE('',#369,#370,#193,.T.);
#442=EDGE_CURVE('',#369,#371,#194,.T.);
#443=EDGE_CURVE('',#372,#370,#195,.T.);
#444=EDGE_CURVE('',#371,#372,#196,.T.);
#445=EDGE_CURVE('',#371,#365,#197,.T.);
#446=EDGE_CURVE('',#367,#372,#198,.T.);
#447=EDGE_CURVE('',#373,#374,#199,.T.);
#448=EDGE_CURVE('',#373,#375,#200,.T.);
#449=EDGE_CURVE('',#376,#375,#201,.T.);
#450=EDGE_CURVE('',#374,#376,#202,.T.);
#451=EDGE_CURVE('',#374,#377,#203,.T.);
#452=EDGE_CURVE('',#378,#376,#204,.T.);
#453=EDGE_CURVE('',#377,#378,#205,.T.);
#454=EDGE_CURVE('',#377,#379,#206,.T.);
#455=EDGE_CURVE('',#380,#378,#207,.T.);
#456=EDGE_CURVE('',#379,#380,#208,.T.);
#457=EDGE_CURVE('',#379,#373,#209,.T.);
#458=EDGE_CURVE('',#375,#380,#210,.T.);
#459=EDGE_CURVE('',#381,#382,#211,.T.);
#460=EDGE_CURVE('',#382,#383,#212,.T.);
#461=EDGE_CURVE('',#383,#384,#213,.T.);
#462=EDGE_CURVE('',#384,#381,#214,.T.);
#463=EDGE_CURVE('',#385,#385,#337,.T.);
#464=EDGE_CURVE('',#386,#386,#338,.T.);
#465=EDGE_CURVE('',#387,#387,#339,.T.);
#466=EDGE_CURVE('',#388,#388,#340,.T.);
#467=EDGE_CURVE('',#389,#389,#341,.T.);
#468=EDGE_CURVE('',#390,#390,#342,.T.);
#469=EDGE_CURVE('',#391,#391,#343,.T.);
#470=EDGE_CURVE('',#392,#392,#344,.T.);
#471=EDGE_CURVE('',#393,#394,#215,.T.);
#472=EDGE_CURVE('',#394,#395,#216,.T.);
#473=EDGE_CURVE('',#395,#396,#217,.T.);
#474=EDGE_CURVE('',#396,#393,#218,.T.);
#475=EDGE_CURVE('',#397,#398,#219,.T.);
#476=EDGE_CURVE('',#398,#399,#220,.T.);
#477=EDGE_CURVE('',#399,#400,#221,.T.);
#478=EDGE_CURVE('',#400,#397,#222,.T.);
#479=EDGE_CURVE('',#401,#401,#345,.T.);
#480=EDGE_CURVE('',#401,#402,#223,.T.);
#481=EDGE_CURVE('',#402,#402,#346,.T.);
#482=EDGE_CURVE('',#403,#403,#347,.T.);
#483=EDGE_CURVE('',#403,#404,#224,.T.);
#484=EDGE_CURVE('',#404,#404,#348,.T.);
#485=EDGE_CURVE('',#405,#405,#349,.T.);
#486=EDGE_CURVE('',#405,#406,#225,.T.);
#487=EDGE_CURVE('',#406,#406,#350,.T.);
#488=EDGE_CURVE('',#407,#407,#351,.T.);
#489=EDGE_CURVE('',#407,#408,#226,.T.);
#490=EDGE_CURVE('',#408,#408,#352,.T.);
#491=EDGE_CURVE('',#409,#410,#227,.T.);
#492=EDGE_CURVE('',#410,#411,#228,.T.);
#493=EDGE_CURVE('',#411,#412,#229,.T.);
#494=EDGE_CURVE('',#412,#409,#230,.T.);
#495=EDGE_CURVE('',#413,#414,#231,.T.);
#496=EDGE_CURVE('',#414,#415,#232,.T.);
#497=EDGE_CURVE('',#415,#416,#233,.T.);
#498=EDGE_CURVE('',#416,#413,#234,.T.);
#499=EDGE_CURVE('',#398,#416,#235,.T.);
#500=EDGE_CURVE('',#399,#415,#236,.T.);
#501=EDGE_CURVE('',#397,#413,#237,.T.);
#502=EDGE_CURVE('',#400,#414,#238,.T.);
#503=EDGE_CURVE('',#394,#412,#239,.T.);
#504=EDGE_CURVE('',#395,#411,#240,.T.);
#505=EDGE_CURVE('',#393,#409,#241,.T.);
#506=EDGE_CURVE('',#396,#410,#242,.T.);
#507=EDGE_CURVE('',#385,#417,#243,.T.);
#508=EDGE_CURVE('',#417,#417,#353,.T.);
#509=EDGE_CURVE('',#386,#418,#244,.T.);
#510=EDGE_CURVE('',#418,#418,#354,.T.);
#511=EDGE_CURVE('',#387,#419,#245,.T.);
#512=EDGE_CURVE('',#419,#419,#355,.T.);
#513=EDGE_CURVE('',#388,#420,#246,.T.);
#514=EDGE_CURVE('',#420,#420,#356,.T.);
#515=EDGE_CURVE('',#389,#421,#247,.T.);
#516=EDGE_CURVE('',#421,#421,#357,.T.);
#517=EDGE_CURVE('',#390,#422,#248,.T.);
#518=EDGE_CURVE('',#422,#422,#358,.T.);
#519=EDGE_CURVE('',#391,#423,#249,.T.);
#520=EDGE_CURVE('',#423,#423,#359,.T.);
#521=EDGE_CURVE('',#392,#424,#250,.T.);
#522=EDGE_CURVE('',#424,#424,#360,.T.);
#523=EDGE_CURVE('',#425,#426,#251,.T.);
#524=EDGE_CURVE('',#426,#382,#252,.T.);
#525=EDGE_CURVE('',#425,#381,#253,.T.);
#526=EDGE_CURVE('',#427,#425,#254,.T.);
#527=EDGE_CURVE('',#427,#384,#255,.T.);
#528=EDGE_CURVE('',#428,#427,#256,.T.);
#529=EDGE_CURVE('',#428,#383,#257,.T.);
#530=EDGE_CURVE('',#426,#428,#258,.T.);
#531=ORIENTED_EDGE('',*,*,#429,.F.);
#532=ORIENTED_EDGE('',*,*,#430,.T.);
#533=ORIENTED_EDGE('',*,*,#431,.F.);
#534=ORIENTED_EDGE('',*,*,#430,.F.);
#535=ORIENTED_EDGE('',*,*,#432,.F.);
#536=ORIENTED_EDGE('',*,*,#433,.T.);
#537=ORIENTED_EDGE('',*,*,#434,.F.);
#538=ORIENTED_EDGE('',*,*,#433,.F.);
#539=ORIENTED_EDGE('',*,*,#435,.F.);
#540=ORIENTED_EDGE('',*,*,#436,.T.);
#541=ORIENTED_EDGE('',*,*,#437,.F.);
#542=ORIENTED_EDGE('',*,*,#438,.F.);
#543=ORIENTED_EDGE('',*,*,#439,.F.);
#544=ORIENTED_EDGE('',*,*,#438,.T.);
#545=ORIENTED_EDGE('',*,*,#440,.F.);
#546=ORIENTED_EDGE('',*,*,#441,.F.);
#547=ORIENTED_EDGE('',*,*,#434,.T.);
#548=ORIENTED_EDGE('',*,*,#442,.F.);
#549=ORIENTED_EDGE('',*,*,#441,.T.);
#550=ORIENTED_EDGE('',*,*,#443,.F.);
#551=ORIENTED_EDGE('',*,*,#444,.F.);
#552=ORIENTED_EDGE('',*,*,#445,.F.);
#553=ORIENTED_EDGE('',*,*,#444,.T.);
#554=ORIENTED_EDGE('',*,*,#446,.F.);
#555=ORIENTED_EDGE('',*,*,#436,.F.);
#556=ORIENTED_EDGE('',*,*,#432,.T.);
#557=ORIENTED_EDGE('',*,*,#446,.T.);
#558=ORIENTED_EDGE('',*,*,#443,.T.);
#559=ORIENTED_EDGE('',*,*,#440,.T.);
#560=ORIENTED_EDGE('',*,*,#437,.T.);
#561=ORIENTED_EDGE('',*,*,#447,.F.);
#562=ORIENTED_EDGE('',*,*,#448,.T.);
#563=ORIENTED_EDGE('',*,*,#449,.F.);
#564=ORIENTED_EDGE('',*,*,#450,.F.);
#565=ORIENTED_EDGE('',*,*,#451,.F.);
#566=ORIENTED_EDGE('',*,*,#450,.T.);
#567=ORIENTED_EDGE('',*,*,#452,.F.);
#568=ORIENTED_EDGE('',*,*,#453,.F.);
#569=ORIENTED_EDGE('',*,*,#431,.T.);
#570=ORIENTED_EDGE('',*,*,#454,.F.);
#571=ORIENTED_EDGE('',*,*,#453,.T.);
#572=ORIENTED_EDGE('',*,*,#455,.F.);
#573=ORIENTED_EDGE('',*,*,#456,.F.);
#574=ORIENTED_EDGE('',*,*,#457,.F.);
#575=ORIENTED_EDGE('',*,*,#456,.T.);
#576=ORIENTED_EDGE('',*,*,#458,.F.);
#577=ORIENTED_EDGE('',*,*,#448,.F.);
#578=ORIENTED_EDGE('',*,*,#429,.T.);
#579=ORIENTED_EDGE('',*,*,#458,.T.);
#580=ORIENTED_EDGE('',*,*,#455,.T.);
#581=ORIENTED_EDGE('',*,*,#452,.T.);
#582=ORIENTED_EDGE('',*,*,#449,.T.);
#583=ORIENTED_EDGE('',*,*,#459,.T.);
#584=ORIENTED_EDGE('',*,*,#460,.T.);
#585=ORIENTED_EDGE('',*,*,#461,.T.);
#586=ORIENTED_EDGE('',*,*,#462,.T.);
#587=ORIENTED_EDGE('',*,*,#435,.T.);
#588=ORIENTED_EDGE('',*,*,#439,.T.);
#589=ORIENTED_EDGE('',*,*,#442,.T.);
#590=ORIENTED_EDGE('',*,*,#445,.T.);
#591=ORIENTED_EDGE('',*,*,#447,.T.);
#592=ORIENTED_EDGE('',*,*,#451,.T.);
#593=ORIENTED_EDGE('',*,*,#454,.T.);
#594=ORIENTED_EDGE('',*,*,#457,.T.);
#595=ORIENTED_EDGE('',*,*,#463,.T.);
#596=ORIENTED_EDGE('',*,*,#464,.T.);
#597=ORIENTED_EDGE('',*,*,#465,.T.);
#598=ORIENTED_EDGE('',*,*,#466,.T.);
#599=ORIENTED_EDGE('',*,*,#467,.T.);
#600=ORIENTED_EDGE('',*,*,#468,.T.);
#601=ORIENTED_EDGE('',*,*,#469,.T.);
#602=ORIENTED_EDGE('',*,*,#470,.T.);
#603=ORIENTED_EDGE('',*,*,#471,.T.);
#604=ORIENTED_EDGE('',*,*,#472,.T.);
#605=ORIENTED_EDGE('',*,*,#473,.T.);
#606=ORIENTED_EDGE('',*,*,#474,.T.);
#607=ORIENTED_EDGE('',*,*,#475,.T.);
#608=ORIENTED_EDGE('',*,*,#476,.T.);
#609=ORIENTED_EDGE('',*,*,#477,.T.);
#610=ORIENTED_EDGE('',*,*,#478,.T.);
#611=ORIENTED_EDGE('',*,*,#479,.F.);
#612=ORIENTED_EDGE('',*,*,#480,.T.);
#613=ORIENTED_EDGE('',*,*,#481,.F.);
#614=ORIENTED_EDGE('',*,*,#480,.F.);
#615=ORIENTED_EDGE('',*,*,#482,.F.);
#616=ORIENTED_EDGE('',*,*,#483,.T.);
#617=ORIENTED_EDGE('',*,*,#484,.F.);
#618=ORIENTED_EDGE('',*,*,#483,.F.);
#619=ORIENTED_EDGE('',*,*,#485,.F.);
#620=ORIENTED_EDGE('',*,*,#486,.T.);
#621=ORIENTED_EDGE('',*,*,#487,.F.);
#622=ORIENTED_EDGE('',*,*,#486,.F.);
#623=ORIENTED_EDGE('',*,*,#488,.F.);
#624=ORIENTED_EDGE('',*,*,#489,.T.);
#625=ORIENTED_EDGE('',*,*,#490,.F.);
#626=ORIENTED_EDGE('',*,*,#489,.F.);
#627=ORIENTED_EDGE('',*,*,#491,.T.);
#628=ORIENTED_EDGE('',*,*,#492,.T.);
#629=ORIENTED_EDGE('',*,*,#493,.T.);
#630=ORIENTED_EDGE('',*,*,#494,.T.);
#631=ORIENTED_EDGE('',*,*,#495,.T.);
#632=ORIENTED_EDGE('',*,*,#496,.T.);
#633=ORIENTED_EDGE('',*,*,#497,.T.);
#634=ORIENTED_EDGE('',*,*,#498,.T.);
#635=ORIENTED_EDGE('',*,*,#476,.F.);
#636=ORIENTED_EDGE('',*,*,#499,.T.);
#637=ORIENTED_EDGE('',*,*,#497,.F.);
#638=ORIENTED_EDGE('',*,*,#500,.F.);
#639=ORIENTED_EDGE('',*,*,#481,.T.);
#640=ORIENTED_EDGE('',*,*,#484,.T.);
#641=ORIENTED_EDGE('',*,*,#475,.F.);
#642=ORIENTED_EDGE('',*,*,#501,.T.);
#643=ORIENTED_EDGE('',*,*,#498,.F.);
#644=ORIENTED_EDGE('',*,*,#499,.F.);
#645=ORIENTED_EDGE('',*,*,#477,.F.);
#646=ORIENTED_EDGE('',*,*,#500,.T.);
#647=ORIENTED_EDGE('',*,*,#496,.F.);
#648=ORIENTED_EDGE('',*,*,#502,.F.);
#649=ORIENTED_EDGE('',*,*,#478,.F.);
#650=ORIENTED_EDGE('',*,*,#502,.T.);
#651=ORIENTED_EDGE('',*,*,#495,.F.);
#652=ORIENTED_EDGE('',*,*,#501,.F.);
#653=ORIENTED_EDGE('',*,*,#479,.T.);
#654=ORIENTED_EDGE('',*,*,#482,.T.);
#655=ORIENTED_EDGE('',*,*,#472,.F.);
#656=ORIENTED_EDGE('',*,*,#503,.T.);
#657=ORIENTED_EDGE('',*,*,#493,.F.);
#658=ORIENTED_EDGE('',*,*,#504,.F.);
#659=ORIENTED_EDGE('',*,*,#487,.T.);
#660=ORIENTED_EDGE('',*,*,#490,.T.);
#661=ORIENTED_EDGE('',*,*,#471,.F.);
#662=ORIENTED_EDGE('',*,*,#505,.T.);
#663=ORIENTED_EDGE('',*,*,#494,.F.);
#664=ORIENTED_EDGE('',*,*,#503,.F.);
#665=ORIENTED_EDGE('',*,*,#473,.F.);
#666=ORIENTED_EDGE('',*,*,#504,.T.);
#667=ORIENTED_EDGE('',*,*,#492,.F.);
#668=ORIENTED_EDGE('',*,*,#506,.F.);
#669=ORIENTED_EDGE('',*,*,#474,.F.);
#670=ORIENTED_EDGE('',*,*,#506,.T.);
#671=ORIENTED_EDGE('',*,*,#491,.F.);
#672=ORIENTED_EDGE('',*,*,#505,.F.);
#673=ORIENTED_EDGE('',*,*,#485,.T.);
#674=ORIENTED_EDGE('',*,*,#488,.T.);
#675=ORIENTED_EDGE('',*,*,#463,.F.);
#676=ORIENTED_EDGE('',*,*,#507,.T.);
#677=ORIENTED_EDGE('',*,*,#508,.T.);
#678=ORIENTED_EDGE('',*,*,#507,.F.);
#679=ORIENTED_EDGE('',*,*,#464,.F.);
#680=ORIENTED_EDGE('',*,*,#509,.T.);
#681=ORIENTED_EDGE('',*,*,#510,.T.);
#682=ORIENTED_EDGE('',*,*,#509,.F.);
#683=ORIENTED_EDGE('',*,*,#465,.F.);
#684=ORIENTED_EDGE('',*,*,#511,.T.);
#685=ORIENTED_EDGE('',*,*,#512,.T.);
#686=ORIENTED_EDGE('',*,*,#511,.F.);
#687=ORIENTED_EDGE('',*,*,#466,.F.);
#688=ORIENTED_EDGE('',*,*,#513,.T.);
#689=ORIENTED_EDGE('',*,*,#514,.T.);
#690=ORIENTED_EDGE('',*,*,#513,.F.);
#691=ORIENTED_EDGE('',*,*,#467,.F.);
#692=ORIENTED_EDGE('',*,*,#515,.T.);
#693=ORIENTED_EDGE('',*,*,#516,.T.);
#694=ORIENTED_EDGE('',*,*,#515,.F.);
#695=ORIENTED_EDGE('',*,*,#468,.F.);
#696=ORIENTED_EDGE('',*,*,#517,.T.);
#697=ORIENTED_EDGE('',*,*,#518,.T.);
#698=ORIENTED_EDGE('',*,*,#517,.F.);
#699=ORIENTED_EDGE('',*,*,#469,.F.);
#700=ORIENTED_EDGE('',*,*,#519,.T.);
#701=ORIENTED_EDGE('',*,*,#520,.T.);
#702=ORIENTED_EDGE('',*,*,#519,.F.);
#703=ORIENTED_EDGE('',*,*,#470,.F.);
#704=ORIENTED_EDGE('',*,*,#521,.T.);
#705=ORIENTED_EDGE('',*,*,#522,.T.);
#706=ORIENTED_EDGE('',*,*,#521,.F.);
#707=ORIENTED_EDGE('',*,*,#523,.T.);
#708=ORIENTED_EDGE('',*,*,#524,.T.);
#709=ORIENTED_EDGE('',*,*,#459,.F.);
#710=ORIENTED_EDGE('',*,*,#525,.F.);
#711=ORIENTED_EDGE('',*,*,#526,.T.);
#712=ORIENTED_EDGE('',*,*,#525,.T.);
#713=ORIENTED_EDGE('',*,*,#462,.F.);
#714=ORIENTED_EDGE('',*,*,#527,.F.);
#715=ORIENTED_EDGE('',*,*,#528,.T.);
#716=ORIENTED_EDGE('',*,*,#527,.T.);
#717=ORIENTED_EDGE('',*,*,#461,.F.);
#718=ORIENTED_EDGE('',*,*,#529,.F.);
#719=ORIENTED_EDGE('',*,*,#530,.T.);
#720=ORIENTED_EDGE('',*,*,#529,.T.);
#721=ORIENTED_EDGE('',*,*,#460,.F.);
#722=ORIENTED_EDGE('',*,*,#524,.F.);
#723=ORIENTED_EDGE('',*,*,#530,.F.);
#724=ORIENTED_EDGE('',*,*,#523,.F.);
#725=ORIENTED_EDGE('',*,*,#526,.F.);
#726=ORIENTED_EDGE('',*,*,#528,.F.);
#727=ORIENTED_EDGE('',*,*,#522,.F.);
#728=ORIENTED_EDGE('',*,*,#520,.F.);
#729=ORIENTED_EDGE('',*,*,#518,.F.);
#730=ORIENTED_EDGE('',*,*,#516,.F.);
#731=ORIENTED_EDGE('',*,*,#514,.F.);
#732=ORIENTED_EDGE('',*,*,#512,.F.);
#733=ORIENTED_EDGE('',*,*,#510,.F.);
#734=ORIENTED_EDGE('',*,*,#508,.F.);
#735=CYLINDRICAL_SURFACE('',#803,2.75);
#736=CYLINDRICAL_SURFACE('',#806,2.75);
#737=CYLINDRICAL_SURFACE('',#828,2.75);
#738=CYLINDRICAL_SURFACE('',#831,2.75);
#739=CYLINDRICAL_SURFACE('',#834,2.75);
#740=CYLINDRICAL_SURFACE('',#837,2.75);
#741=CYLINDRICAL_SURFACE('',#850,2.1);
#742=CYLINDRICAL_SURFACE('',#852,2.1);
#743=CYLINDRICAL_SURFACE('',#854,2.1);
#744=CYLINDRICAL_SURFACE('',#856,2.1);
#745=CYLINDRICAL_SURFACE('',#858,2.09999999999999);
#746=CYLINDRICAL_SURFACE('',#860,2.1);
#747=CYLINDRICAL_SURFACE('',#862,2.1);
#748=CYLINDRICAL_SURFACE('',#864,2.09999999999999);
#749=ADVANCED_FACE('',(#73),#735,.F.);
#750=ADVANCED_FACE('',(#74),#736,.F.);
#751=ADVANCED_FACE('',(#75),#47,.T.);
#752=ADVANCED_FACE('',(#76,#15),#48,.T.);
#753=ADVANCED_FACE('',(#77),#49,.T.);
#754=ADVANCED_FACE('',(#78,#16),#50,.T.);
#755=ADVANCED_FACE('',(#79),#51,.T.);
#756=ADVANCED_FACE('',(#80),#52,.T.);
#757=ADVANCED_FACE('',(#81,#17),#53,.T.);
#758=ADVANCED_FACE('',(#82),#54,.T.);
#759=ADVANCED_FACE('',(#83,#18),#55,.T.);
#760=ADVANCED_FACE('',(#84),#56,.T.);
#761=ADVANCED_FACE('',(#85,#19,#20,#21,#22,#23,#24,#25,#26,#27,#28,#29,
#30),#57,.T.);
#762=ADVANCED_FACE('',(#86),#737,.F.);
#763=ADVANCED_FACE('',(#87),#738,.F.);
#764=ADVANCED_FACE('',(#88),#739,.F.);
#765=ADVANCED_FACE('',(#89),#740,.F.);
#766=ADVANCED_FACE('',(#90),#58,.T.);
#767=ADVANCED_FACE('',(#91),#59,.T.);
#768=ADVANCED_FACE('',(#92,#31,#32),#60,.T.);
#769=ADVANCED_FACE('',(#93),#61,.T.);
#770=ADVANCED_FACE('',(#94),#62,.T.);
#771=ADVANCED_FACE('',(#95,#33,#34),#63,.T.);
#772=ADVANCED_FACE('',(#96,#35,#36),#64,.T.);
#773=ADVANCED_FACE('',(#97),#65,.T.);
#774=ADVANCED_FACE('',(#98),#66,.T.);
#775=ADVANCED_FACE('',(#99,#37,#38),#67,.T.);
#776=ADVANCED_FACE('',(#100),#741,.F.);
#777=ADVANCED_FACE('',(#101),#742,.F.);
#778=ADVANCED_FACE('',(#102),#743,.F.);
#779=ADVANCED_FACE('',(#103),#744,.F.);
#780=ADVANCED_FACE('',(#104),#745,.F.);
#781=ADVANCED_FACE('',(#105),#746,.F.);
#782=ADVANCED_FACE('',(#106),#747,.F.);
#783=ADVANCED_FACE('',(#107),#748,.F.);
#784=ADVANCED_FACE('',(#108),#68,.T.);
#785=ADVANCED_FACE('',(#109),#69,.T.);
#786=ADVANCED_FACE('',(#110),#70,.T.);
#787=ADVANCED_FACE('',(#111),#71,.T.);
#788=ADVANCED_FACE('',(#112,#39,#40,#41,#42,#43,#44,#45,#46),#72,.F.);
#789=CLOSED_SHELL('',(#749,#750,#751,#752,#753,#754,#755,#756,#757,#758,
#759,#760,#761,#762,#763,#764,#765,#766,#767,#768,#769,#770,#771,#772,#773,
#774,#775,#776,#777,#778,#779,#780,#781,#782,#783,#784,#785,#786,#787,#788));
#790=DERIVED_UNIT_ELEMENT(#792,1.);
#791=DERIVED_UNIT_ELEMENT(#1299,-3.);
#792=(
MASS_UNIT()
NAMED_UNIT(*)
SI_UNIT(.KILO.,.GRAM.)
);
#793=DERIVED_UNIT((#790,#791));
#794=MEASURE_REPRESENTATION_ITEM('density measure',
POSITIVE_RATIO_MEASURE(7850.),#793);
#795=PROPERTY_DEFINITION_REPRESENTATION(#800,#797);
#796=PROPERTY_DEFINITION_REPRESENTATION(#801,#798);
#797=REPRESENTATION('material name',(#799),#1296);
#798=REPRESENTATION('density',(#794),#1296);
#799=DESCRIPTIVE_REPRESENTATION_ITEM('Steel','Steel');
#800=PROPERTY_DEFINITION('material property','material name',#1306);
#801=PROPERTY_DEFINITION('material property','density of part',#1306);
#802=AXIS2_PLACEMENT_3D('',#1083,#871,#872);
#803=AXIS2_PLACEMENT_3D('',#1084,#873,#874);
#804=AXIS2_PLACEMENT_3D('',#1086,#875,#876);
#805=AXIS2_PLACEMENT_3D('',#1089,#878,#879);
#806=AXIS2_PLACEMENT_3D('',#1090,#880,#881);
#807=AXIS2_PLACEMENT_3D('',#1092,#882,#883);
#808=AXIS2_PLACEMENT_3D('',#1095,#885,#886);
#809=AXIS2_PLACEMENT_3D('',#1096,#887,#888);
#810=AXIS2_PLACEMENT_3D('',#1105,#893,#894);
#811=AXIS2_PLACEMENT_3D('',#1111,#898,#899);
#812=AXIS2_PLACEMENT_3D('',#1117,#903,#904);
#813=AXIS2_PLACEMENT_3D('',#1120,#907,#908);
#814=AXIS2_PLACEMENT_3D('',#1121,#909,#910);
#815=AXIS2_PLACEMENT_3D('',#1130,#915,#916);
#816=AXIS2_PLACEMENT_3D('',#1136,#920,#921);
#817=AXIS2_PLACEMENT_3D('',#1142,#925,#926);
#818=AXIS2_PLACEMENT_3D('',#1145,#929,#930);
#819=AXIS2_PLACEMENT_3D('',#1146,#931,#932);
#820=AXIS2_PLACEMENT_3D('',#1156,#937,#938);
#821=AXIS2_PLACEMENT_3D('',#1158,#939,#940);
#822=AXIS2_PLACEMENT_3D('',#1160,#941,#942);
#823=AXIS2_PLACEMENT_3D('',#1162,#943,#944);
#824=AXIS2_PLACEMENT_3D('',#1164,#945,#946);
#825=AXIS2_PLACEMENT_3D('',#1166,#947,#948);
#826=AXIS2_PLACEMENT_3D('',#1168,#949,#950);
#827=AXIS2_PLACEMENT_3D('',#1170,#951,#952);
#828=AXIS2_PLACEMENT_3D('',#1187,#961,#962);
#829=AXIS2_PLACEMENT_3D('',#1189,#963,#964);
#830=AXIS2_PLACEMENT_3D('',#1192,#966,#967);
#831=AXIS2_PLACEMENT_3D('',#1193,#968,#969);
#832=AXIS2_PLACEMENT_3D('',#1195,#970,#971);
#833=AXIS2_PLACEMENT_3D('',#1198,#973,#974);
#834=AXIS2_PLACEMENT_3D('',#1199,#975,#976);
#835=AXIS2_PLACEMENT_3D('',#1201,#977,#978);
#836=AXIS2_PLACEMENT_3D('',#1204,#980,#981);
#837=AXIS2_PLACEMENT_3D('',#1205,#982,#983);
#838=AXIS2_PLACEMENT_3D('',#1207,#984,#985);
#839=AXIS2_PLACEMENT_3D('',#1210,#987,#988);
#840=AXIS2_PLACEMENT_3D('',#1211,#989,#990);
#841=AXIS2_PLACEMENT_3D('',#1220,#995,#996);
#842=AXIS2_PLACEMENT_3D('',#1229,#1001,#1002);
#843=AXIS2_PLACEMENT_3D('',#1232,#1005,#1006);
#844=AXIS2_PLACEMENT_3D('',#1234,#1008,#1009);
#845=AXIS2_PLACEMENT_3D('',#1236,#1011,#1012);
#846=AXIS2_PLACEMENT_3D('',#1237,#1013,#1014);
#847=AXIS2_PLACEMENT_3D('',#1240,#1017,#1018);
#848=AXIS2_PLACEMENT_3D('',#1242,#1020,#1021);
#849=AXIS2_PLACEMENT_3D('',#1244,#1023,#1024);
#850=AXIS2_PLACEMENT_3D('',#1245,#1025,#1026);
#851=AXIS2_PLACEMENT_3D('',#1248,#1028,#1029);
#852=AXIS2_PLACEMENT_3D('',#1249,#1030,#1031);
#853=AXIS2_PLACEMENT_3D('',#1252,#1033,#1034);
#854=AXIS2_PLACEMENT_3D('',#1253,#1035,#1036);
#855=AXIS2_PLACEMENT_3D('',#1256,#1038,#1039);
#856=AXIS2_PLACEMENT_3D('',#1257,#1040,#1041);
#857=AXIS2_PLACEMENT_3D('',#1260,#1043,#1044);
#858=AXIS2_PLACEMENT_3D('',#1261,#1045,#1046);
#859=AXIS2_PLACEMENT_3D('',#1264,#1048,#1049);
#860=AXIS2_PLACEMENT_3D('',#1265,#1050,#1051);
#861=AXIS2_PLACEMENT_3D('',#1268,#1053,#1054);
#862=AXIS2_PLACEMENT_3D('',#1269,#1055,#1056);
#863=AXIS2_PLACEMENT_3D('',#1272,#1058,#1059);
#864=AXIS2_PLACEMENT_3D('',#1273,#1060,#1061);
#865=AXIS2_PLACEMENT_3D('',#1276,#1063,#1064);
#866=AXIS2_PLACEMENT_3D('',#1277,#1065,#1066);
#867=AXIS2_PLACEMENT_3D('',#1283,#1070,#1071);
#868=AXIS2_PLACEMENT_3D('',#1287,#1074,#1075);
#869=AXIS2_PLACEMENT_3D('',#1291,#1078,#1079);
#870=AXIS2_PLACEMENT_3D('',#1293,#1081,#1082);
#871=DIRECTION('axis',(0.,0.,1.));
#872=DIRECTION('refdir',(1.,0.,0.));
#873=DIRECTION('center_axis',(0.,1.,0.));
#874=DIRECTION('ref_axis',(1.,0.,0.));
#875=DIRECTION('center_axis',(0.,1.,0.));
#876=DIRECTION('ref_axis',(1.,0.,0.));
#877=DIRECTION('',(0.,1.,0.));
#878=DIRECTION('center_axis',(0.,-1.,0.));
#879=DIRECTION('ref_axis',(1.,0.,0.));
#880=DIRECTION('center_axis',(0.,1.,0.));
#881=DIRECTION('ref_axis',(1.,0.,0.));
#882=DIRECTION('center_axis',(0.,1.,0.));
#883=DIRECTION('ref_axis',(1.,0.,0.));
#884=DIRECTION('',(0.,1.,0.));
#885=DIRECTION('center_axis',(0.,-1.,0.));
#886=DIRECTION('ref_axis',(1.,0.,0.));
#887=DIRECTION('center_axis',(-1.,0.,0.));
#888=DIRECTION('ref_axis',(0.,-1.,0.));
#889=DIRECTION('',(0.,1.,0.));
#890=DIRECTION('',(0.,0.,1.));
#891=DIRECTION('',(0.,-1.,0.));
#892=DIRECTION('',(0.,0.,1.));
#893=DIRECTION('center_axis',(0.,1.,0.));
#894=DIRECTION('ref_axis',(-1.,0.,0.));
#895=DIRECTION('',(1.,0.,0.));
#896=DIRECTION('',(-1.,0.,0.));
#897=DIRECTION('',(0.,0.,1.));
#898=DIRECTION('center_axis',(1.,0.,0.));
#899=DIRECTION('ref_axis',(0.,1.,0.));
#900=DIRECTION('',(0.,-1.,0.));
#901=DIRECTION('',(0.,1.,0.));
#902=DIRECTION('',(0.,0.,1.));
#903=DIRECTION('center_axis',(0.,-1.,0.));
#904=DIRECTION('ref_axis',(1.,0.,0.));
#905=DIRECTION('',(-1.,0.,0.));
#906=DIRECTION('',(1.,0.,0.));
#907=DIRECTION('center_axis',(0.,0.,1.));
#908=DIRECTION('ref_axis',(1.,0.,0.));
#909=DIRECTION('center_axis',(-1.,0.,0.));
#910=DIRECTION('ref_axis',(0.,-1.,0.));
#911=DIRECTION('',(0.,1.,0.));
#912=DIRECTION('',(0.,0.,1.));
#913=DIRECTION('',(0.,-1.,0.));
#914=DIRECTION('',(0.,0.,1.));
#915=DIRECTION('center_axis',(0.,1.,0.));
#916=DIRECTION('ref_axis',(-1.,0.,0.));
#917=DIRECTION('',(1.,0.,0.));
#918=DIRECTION('',(-1.,0.,0.));
#919=DIRECTION('',(0.,0.,1.));
#920=DIRECTION('center_axis',(1.,0.,0.));
#921=DIRECTION('ref_axis',(0.,1.,0.));
#922=DIRECTION('',(0.,-1.,0.));
#923=DIRECTION('',(0.,1.,0.));
#924=DIRECTION('',(0.,0.,1.));
#925=DIRECTION('center_axis',(0.,-1.,0.));
#926=DIRECTION('ref_axis',(1.,0.,0.));
#927=DIRECTION('',(-1.,0.,0.));
#928=DIRECTION('',(1.,0.,0.));
#929=DIRECTION('center_axis',(0.,0.,1.));
#930=DIRECTION('ref_axis',(1.,0.,0.));
#931=DIRECTION('center_axis',(0.,0.,1.));
#932=DIRECTION('ref_axis',(1.,0.,0.));
#933=DIRECTION('',(1.,-2.73910036535074E-33,0.));
#934=DIRECTION('',(0.,1.,0.));
#935=DIRECTION('',(-1.,0.,0.));
#936=DIRECTION('',(0.,-1.,0.));
#937=DIRECTION('center_axis',(0.,0.,-1.));
#938=DIRECTION('ref_axis',(1.,0.,0.));
#939=DIRECTION('center_axis',(0.,0.,-1.));
#940=DIRECTION('ref_axis',(1.,0.,0.));
#941=DIRECTION('center_axis',(0.,0.,-1.));
#942=DIRECTION('ref_axis',(1.,0.,0.));
#943=DIRECTION('center_axis',(0.,0.,-1.));
#944=DIRECTION('ref_axis',(1.,0.,0.));
#945=DIRECTION('center_axis',(0.,0.,-1.));
#946=DIRECTION('ref_axis',(1.,0.,0.));
#947=DIRECTION('center_axis',(0.,0.,-1.));
#948=DIRECTION('ref_axis',(1.,0.,0.));
#949=DIRECTION('center_axis',(0.,0.,-1.));
#950=DIRECTION('ref_axis',(1.,0.,0.));
#951=DIRECTION('center_axis',(0.,0.,-1.));
#952=DIRECTION('ref_axis',(1.,0.,0.));
#953=DIRECTION('',(0.,1.,0.));
#954=DIRECTION('',(1.,0.,0.));
#955=DIRECTION('',(0.,-1.,0.));
#956=DIRECTION('',(-1.,0.,0.));
#957=DIRECTION('',(0.,1.,0.));
#958=DIRECTION('',(1.,0.,0.));
#959=DIRECTION('',(0.,-1.,0.));
#960=DIRECTION('',(-1.,0.,0.));
#961=DIRECTION('center_axis',(0.,1.,0.));
#962=DIRECTION('ref_axis',(1.,0.,0.));
#963=DIRECTION('center_axis',(0.,1.,0.));
#964=DIRECTION('ref_axis',(1.,0.,0.));
#965=DIRECTION('',(0.,1.,0.));
#966=DIRECTION('center_axis',(0.,-1.,0.));
#967=DIRECTION('ref_axis',(1.,0.,0.));
#968=DIRECTION('center_axis',(0.,1.,0.));
#969=DIRECTION('ref_axis',(1.,0.,0.));
#970=DIRECTION('center_axis',(0.,1.,0.));
#971=DIRECTION('ref_axis',(1.,0.,0.));
#972=DIRECTION('',(0.,1.,0.));
#973=DIRECTION('center_axis',(0.,-1.,0.));
#974=DIRECTION('ref_axis',(1.,0.,0.));
#975=DIRECTION('center_axis',(0.,1.,0.));
#976=DIRECTION('ref_axis',(1.,0.,0.));
#977=DIRECTION('center_axis',(0.,1.,0.));
#978=DIRECTION('ref_axis',(1.,0.,0.));
#979=DIRECTION('',(0.,1.,0.));
#980=DIRECTION('center_axis',(0.,-1.,0.));
#981=DIRECTION('ref_axis',(1.,0.,0.));
#982=DIRECTION('center_axis',(0.,1.,0.));
#983=DIRECTION('ref_axis',(1.,0.,0.));
#984=DIRECTION('center_axis',(0.,1.,0.));
#985=DIRECTION('ref_axis',(1.,0.,0.));
#986=DIRECTION('',(0.,1.,0.));
#987=DIRECTION('center_axis',(0.,-1.,0.));
#988=DIRECTION('ref_axis',(1.,0.,0.));
#989=DIRECTION('center_axis',(0.,0.,1.));
#990=DIRECTION('ref_axis',(1.,0.,0.));
#991=DIRECTION('',(1.,0.,0.));
#992=DIRECTION('',(0.,1.,0.));
#993=DIRECTION('',(-1.,0.,0.));
#994=DIRECTION('',(0.,-1.,0.));
#995=DIRECTION('center_axis',(0.,0.,1.));
#996=DIRECTION('ref_axis',(1.,0.,0.));
#997=DIRECTION('',(1.,0.,0.));
#998=DIRECTION('',(0.,1.,0.));
#999=DIRECTION('',(-1.,0.,0.));
#1000=DIRECTION('',(0.,-1.,0.));
#1001=DIRECTION('center_axis',(0.,1.,0.));
#1002=DIRECTION('ref_axis',(-1.,0.,0.));
#1003=DIRECTION('',(0.,0.,1.));
#1004=DIRECTION('',(0.,0.,1.));
#1005=DIRECTION('center_axis',(-1.,0.,0.));
#1006=DIRECTION('ref_axis',(0.,-1.,0.));
#1007=DIRECTION('',(0.,0.,1.));
#1008=DIRECTION('center_axis',(1.,0.,0.));
#1009=DIRECTION('ref_axis',(0.,1.,0.));
#1010=DIRECTION('',(0.,0.,1.));
#1011=DIRECTION('center_axis',(0.,-1.,0.));
#1012=DIRECTION('ref_axis',(1.,0.,0.));
#1013=DIRECTION('center_axis',(0.,1.,0.));
#1014=DIRECTION('ref_axis',(-1.,0.,0.));
#1015=DIRECTION('',(0.,0.,1.));
#1016=DIRECTION('',(0.,0.,1.));
#1017=DIRECTION('center_axis',(-1.,0.,0.));
#1018=DIRECTION('ref_axis',(0.,-1.,0.));
#1019=DIRECTION('',(0.,0.,1.));
#1020=DIRECTION('center_axis',(1.,0.,0.));
#1021=DIRECTION('ref_axis',(0.,1.,0.));
#1022=DIRECTION('',(0.,0.,1.));
#1023=DIRECTION('center_axis',(0.,-1.,0.));
#1024=DIRECTION('ref_axis',(1.,0.,0.));
#1025=DIRECTION('center_axis',(0.,0.,1.));
#1026=DIRECTION('ref_axis',(1.,0.,0.));
#1027=DIRECTION('',(0.,0.,-1.));
#1028=DIRECTION('center_axis',(0.,0.,-1.));
#1029=DIRECTION('ref_axis',(1.,0.,0.));
#1030=DIRECTION('center_axis',(0.,0.,1.));
#1031=DIRECTION('ref_axis',(1.,0.,0.));
#1032=DIRECTION('',(0.,0.,-1.));
#1033=DIRECTION('center_axis',(0.,0.,-1.));
#1034=DIRECTION('ref_axis',(1.,0.,0.));
#1035=DIRECTION('center_axis',(0.,0.,1.));
#1036=DIRECTION('ref_axis',(1.,0.,0.));
#1037=DIRECTION('',(0.,0.,-1.));
#1038=DIRECTION('center_axis',(0.,0.,-1.));
#1039=DIRECTION('ref_axis',(1.,0.,0.));
#1040=DIRECTION('center_axis',(0.,0.,1.));
#1041=DIRECTION('ref_axis',(1.,0.,0.));
#1042=DIRECTION('',(0.,0.,-1.));
#1043=DIRECTION('center_axis',(0.,0.,-1.));
#1044=DIRECTION('ref_axis',(1.,0.,0.));
#1045=DIRECTION('center_axis',(0.,0.,1.));
#1046=DIRECTION('ref_axis',(1.,0.,0.));
#1047=DIRECTION('',(0.,0.,-1.));
#1048=DIRECTION('center_axis',(0.,0.,-1.));
#1049=DIRECTION('ref_axis',(1.,0.,0.));
#1050=DIRECTION('center_axis',(0.,0.,1.));
#1051=DIRECTION('ref_axis',(1.,0.,0.));
#1052=DIRECTION('',(0.,0.,-1.));
#1053=DIRECTION('center_axis',(0.,0.,-1.));
#1054=DIRECTION('ref_axis',(1.,0.,0.));
#1055=DIRECTION('center_axis',(0.,0.,1.));
#1056=DIRECTION('ref_axis',(1.,0.,0.));
#1057=DIRECTION('',(0.,0.,-1.));
#1058=DIRECTION('center_axis',(0.,0.,-1.));
#1059=DIRECTION('ref_axis',(1.,0.,0.));
#1060=DIRECTION('center_axis',(0.,0.,1.));
#1061=DIRECTION('ref_axis',(1.,0.,0.));
#1062=DIRECTION('',(0.,0.,-1.));
#1063=DIRECTION('center_axis',(0.,0.,-1.));
#1064=DIRECTION('ref_axis',(1.,0.,0.));
#1065=DIRECTION('center_axis',(-2.73910036535074E-33,-1.,0.));
#1066=DIRECTION('ref_axis',(1.,-2.73910036535074E-33,0.));
#1067=DIRECTION('',(1.,-2.73910036535074E-33,0.));
#1068=DIRECTION('',(0.,0.,1.));
#1069=DIRECTION('',(0.,0.,1.));
#1070=DIRECTION('center_axis',(-1.,0.,0.));
#1071=DIRECTION('ref_axis',(0.,-1.,0.));
#1072=DIRECTION('',(0.,-1.,0.));
#1073=DIRECTION('',(0.,0.,1.));
#1074=DIRECTION('center_axis',(0.,1.,0.));
#1075=DIRECTION('ref_axis',(-1.,0.,0.));
#1076=DIRECTION('',(-1.,0.,0.));
#1077=DIRECTION('',(0.,0.,1.));
#1078=DIRECTION('center_axis',(1.,0.,0.));
#1079=DIRECTION('ref_axis',(0.,1.,0.));
#1080=DIRECTION('',(0.,1.,0.));
#1081=DIRECTION('center_axis',(0.,0.,1.));
#1082=DIRECTION('ref_axis',(1.,0.,0.));
#1083=CARTESIAN_POINT('',(0.,0.,0.));
#1084=CARTESIAN_POINT('Origin',(62.000000923872,0.,32.));
#1085=CARTESIAN_POINT('',(59.250000923872,36.5000002980232,32.));
#1086=CARTESIAN_POINT('Origin',(62.000000923872,36.5000002980232,32.));
#1087=CARTESIAN_POINT('',(59.250000923872,41.5000002980232,32.));
#1088=CARTESIAN_POINT('',(59.250000923872,0.,32.));
#1089=CARTESIAN_POINT('Origin',(62.000000923872,41.5000002980232,32.));
#1090=CARTESIAN_POINT('Origin',(62.000000923872,0.,32.));
#1091=CARTESIAN_POINT('',(59.250000923872,10.0000001490116,32.));
#1092=CARTESIAN_POINT('Origin',(62.000000923872,10.0000001490116,32.));
#1093=CARTESIAN_POINT('',(59.250000923872,20.0000002980232,32.));
#1094=CARTESIAN_POINT('',(59.250000923872,0.,32.));
#1095=CARTESIAN_POINT('Origin',(62.000000923872,20.0000002980232,32.));
#1096=CARTESIAN_POINT('Origin',(52.,20.0000002980232,8.));
#1097=CARTESIAN_POINT('',(52.,10.0000001490116,8.));
#1098=CARTESIAN_POINT('',(52.,20.0000002980232,8.));
#1099=CARTESIAN_POINT('',(52.,29.5000001490116,8.));
#1100=CARTESIAN_POINT('',(52.,10.0000001490116,53.));
#1101=CARTESIAN_POINT('',(52.,10.0000001490116,8.));
#1102=CARTESIAN_POINT('',(52.,20.0000002980232,53.));
#1103=CARTESIAN_POINT('',(52.,10.0000001490116,53.));
#1104=CARTESIAN_POINT('',(52.,20.0000002980232,8.));
#1105=CARTESIAN_POINT('Origin',(72.,20.0000002980232,8.));
#1106=CARTESIAN_POINT('',(72.,20.0000002980232,8.));
#1107=CARTESIAN_POINT('',(59.25,20.0000002980232,8.));
#1108=CARTESIAN_POINT('',(72.,20.0000002980232,53.));
#1109=CARTESIAN_POINT('',(52.,20.0000002980232,53.));
#1110=CARTESIAN_POINT('',(72.,20.0000002980232,8.));
#1111=CARTESIAN_POINT('Origin',(72.,10.0000001490116,8.));
#1112=CARTESIAN_POINT('',(72.,10.0000001490116,8.));
#1113=CARTESIAN_POINT('',(72.,24.5000000745058,8.));
#1114=CARTESIAN_POINT('',(72.,10.0000001490116,53.));
#1115=CARTESIAN_POINT('',(72.,20.0000002980232,53.));
#1116=CARTESIAN_POINT('',(72.,10.0000001490116,8.));
#1117=CARTESIAN_POINT('Origin',(52.,10.0000001490116,8.));
#1118=CARTESIAN_POINT('',(49.25,10.0000001490116,8.));
#1119=CARTESIAN_POINT('',(72.,10.0000001490116,53.));
#1120=CARTESIAN_POINT('Origin',(62.,15.0000002235174,53.));
#1121=CARTESIAN_POINT('Origin',(52.,41.5000002980232,8.));
#1122=CARTESIAN_POINT('',(52.,36.5000002980232,8.));
#1123=CARTESIAN_POINT('',(52.,41.5000002980232,8.));
#1124=CARTESIAN_POINT('',(52.,40.2500001490116,8.));
#1125=CARTESIAN_POINT('',(52.,36.5000002980232,53.));
#1126=CARTESIAN_POINT('',(52.,36.5000002980232,8.));
#1127=CARTESIAN_POINT('',(52.,41.5000002980232,53.));
#1128=CARTESIAN_POINT('',(52.,36.5000002980232,53.));
#1129=CARTESIAN_POINT('',(52.,41.5000002980232,8.));
#1130=CARTESIAN_POINT('Origin',(72.,41.5000002980232,8.));
#1131=CARTESIAN_POINT('',(72.,41.5000002980232,8.));
#1132=CARTESIAN_POINT('',(59.25,41.5000002980232,8.));
#1133=CARTESIAN_POINT('',(72.,41.5000002980232,53.));
#1134=CARTESIAN_POINT('',(52.,41.5000002980232,53.));
#1135=CARTESIAN_POINT('',(72.,41.5000002980232,8.));
#1136=CARTESIAN_POINT('Origin',(72.,36.5000002980232,8.));
#1137=CARTESIAN_POINT('',(72.,36.5000002980232,8.));
#1138=CARTESIAN_POINT('',(72.,37.7500001490116,8.));
#1139=CARTESIAN_POINT('',(72.,36.5000002980232,53.));
#1140=CARTESIAN_POINT('',(72.,41.5000002980232,53.));
#1141=CARTESIAN_POINT('',(72.,36.5000002980232,8.));
#1142=CARTESIAN_POINT('Origin',(52.,36.5000002980232,8.));
#1143=CARTESIAN_POINT('',(49.25,36.5000002980232,8.));
#1144=CARTESIAN_POINT('',(72.,36.5000002980232,53.));
#1145=CARTESIAN_POINT('Origin',(62.,39.0000002980232,53.));
#1146=CARTESIAN_POINT('Origin',(46.5,39.,8.));
#1147=CARTESIAN_POINT('',(0.,0.,8.));
#1148=CARTESIAN_POINT('',(93.,0.,8.));
#1149=CARTESIAN_POINT('',(0.,0.,8.));
#1150=CARTESIAN_POINT('',(93.,78.,8.));
#1151=CARTESIAN_POINT('',(93.,-2.54736333977619E-31,8.));
#1152=CARTESIAN_POINT('',(0.,78.,8.));
#1153=CARTESIAN_POINT('',(93.,78.,8.));
#1154=CARTESIAN_POINT('',(0.,78.,8.));
#1155=CARTESIAN_POINT('',(12.9,30.,8.));
#1156=CARTESIAN_POINT('Origin',(15.,30.,8.));
#1157=CARTESIAN_POINT('',(36.9,30.,8.));
#1158=CARTESIAN_POINT('Origin',(39.,30.,8.));
#1159=CARTESIAN_POINT('',(12.9,48.,8.));
#1160=CARTESIAN_POINT('Origin',(15.,48.,8.));
#1161=CARTESIAN_POINT('',(36.9,48.,8.));
#1162=CARTESIAN_POINT('Origin',(39.,48.,8.));
#1163=CARTESIAN_POINT('',(75.9,48.,8.));
#1164=CARTESIAN_POINT('Origin',(78.,48.,8.));
#1165=CARTESIAN_POINT('',(51.9,30.,8.));
#1166=CARTESIAN_POINT('Origin',(54.,30.,8.));
#1167=CARTESIAN_POINT('',(51.9,48.,8.));
#1168=CARTESIAN_POINT('Origin',(54.,48.,8.));
#1169=CARTESIAN_POINT('',(75.9,30.,8.));
#1170=CARTESIAN_POINT('Origin',(78.,30.,8.));
#1171=CARTESIAN_POINT('',(17.,10.,8.));
#1172=CARTESIAN_POINT('',(17.,20.,8.));
#1173=CARTESIAN_POINT('',(17.,29.5,8.));
#1174=CARTESIAN_POINT('',(37.,20.,8.));
#1175=CARTESIAN_POINT('',(41.75,20.,8.));
#1176=CARTESIAN_POINT('',(37.,10.,8.));
#1177=CARTESIAN_POINT('',(37.,24.5,8.));
#1178=CARTESIAN_POINT('',(31.75,10.,8.));
#1179=CARTESIAN_POINT('',(56.,58.,8.));
#1180=CARTESIAN_POINT('',(56.,68.,8.));
#1181=CARTESIAN_POINT('',(56.,53.5,8.));
#1182=CARTESIAN_POINT('',(76.,68.,8.));
#1183=CARTESIAN_POINT('',(61.25,68.,8.));
#1184=CARTESIAN_POINT('',(76.,58.,8.));
#1185=CARTESIAN_POINT('',(76.,48.5,8.));
#1186=CARTESIAN_POINT('',(51.25,58.,8.));
#1187=CARTESIAN_POINT('Origin',(66.,40.,54.));
#1188=CARTESIAN_POINT('',(63.25,58.,54.));
#1189=CARTESIAN_POINT('Origin',(66.,58.,54.));
#1190=CARTESIAN_POINT('',(63.25,68.,54.));
#1191=CARTESIAN_POINT('',(63.25,40.,54.));
#1192=CARTESIAN_POINT('Origin',(66.,68.,54.));
#1193=CARTESIAN_POINT('Origin',(66.,40.,22.));
#1194=CARTESIAN_POINT('',(63.25,58.,22.));
#1195=CARTESIAN_POINT('Origin',(66.,58.,22.));
#1196=CARTESIAN_POINT('',(63.25,68.,22.));
#1197=CARTESIAN_POINT('',(63.25,40.,22.));
#1198=CARTESIAN_POINT('Origin',(66.,68.,22.));
#1199=CARTESIAN_POINT('Origin',(27.,0.,54.));
#1200=CARTESIAN_POINT('',(24.25,10.,54.));
#1201=CARTESIAN_POINT('Origin',(27.,10.,54.));
#1202=CARTESIAN_POINT('',(24.25,20.,54.));
#1203=CARTESIAN_POINT('',(24.25,0.,54.));
#1204=CARTESIAN_POINT('Origin',(27.,20.,54.));
#1205=CARTESIAN_POINT('Origin',(27.,0.,22.));
#1206=CARTESIAN_POINT('',(24.25,10.,22.));
#1207=CARTESIAN_POINT('Origin',(27.,10.,22.));
#1208=CARTESIAN_POINT('',(24.25,20.,22.));
#1209=CARTESIAN_POINT('',(24.25,0.,22.));
#1210=CARTESIAN_POINT('Origin',(27.,20.,22.));
#1211=CARTESIAN_POINT('Origin',(27.,15.,68.));
#1212=CARTESIAN_POINT('',(17.,10.,68.));
#1213=CARTESIAN_POINT('',(37.,10.,68.));
#1214=CARTESIAN_POINT('',(37.,10.,68.));
#1215=CARTESIAN_POINT('',(37.,20.,68.));
#1216=CARTESIAN_POINT('',(37.,20.,68.));
#1217=CARTESIAN_POINT('',(17.,20.,68.));
#1218=CARTESIAN_POINT('',(17.,20.,68.));
#1219=CARTESIAN_POINT('',(17.,10.,68.));
#1220=CARTESIAN_POINT('Origin',(66.,63.,68.));
#1221=CARTESIAN_POINT('',(56.,58.,68.));
#1222=CARTESIAN_POINT('',(76.,58.,68.));
#1223=CARTESIAN_POINT('',(76.,58.,68.));
#1224=CARTESIAN_POINT('',(76.,68.,68.));
#1225=CARTESIAN_POINT('',(76.,68.,68.));
#1226=CARTESIAN_POINT('',(56.,68.,68.));
#1227=CARTESIAN_POINT('',(56.,68.,68.));
#1228=CARTESIAN_POINT('',(56.,58.,68.));
#1229=CARTESIAN_POINT('Origin',(76.,68.,5.));
#1230=CARTESIAN_POINT('',(56.,68.,5.));
#1231=CARTESIAN_POINT('',(76.,68.,5.));
#1232=CARTESIAN_POINT('Origin',(56.,68.,5.));
#1233=CARTESIAN_POINT('',(56.,58.,5.));
#1234=CARTESIAN_POINT('Origin',(76.,58.,5.));
#1235=CARTESIAN_POINT('',(76.,58.,5.));
#1236=CARTESIAN_POINT('Origin',(56.,58.,5.));
#1237=CARTESIAN_POINT('Origin',(37.,20.,5.));
#1238=CARTESIAN_POINT('',(17.,20.,5.));
#1239=CARTESIAN_POINT('',(37.,20.,5.));
#1240=CARTESIAN_POINT('Origin',(17.,20.,5.));
#1241=CARTESIAN_POINT('',(17.,10.,5.));
#1242=CARTESIAN_POINT('Origin',(37.,10.,5.));
#1243=CARTESIAN_POINT('',(37.,10.,5.));
#1244=CARTESIAN_POINT('Origin',(17.,10.,5.));
#1245=CARTESIAN_POINT('Origin',(15.,30.,0.));
#1246=CARTESIAN_POINT('',(12.9,30.,0.));
#1247=CARTESIAN_POINT('',(12.9,30.,0.));
#1248=CARTESIAN_POINT('Origin',(15.,30.,0.));
#1249=CARTESIAN_POINT('Origin',(39.,30.,0.));
#1250=CARTESIAN_POINT('',(36.9,30.,0.));
#1251=CARTESIAN_POINT('',(36.9,30.,0.));
#1252=CARTESIAN_POINT('Origin',(39.,30.,0.));
#1253=CARTESIAN_POINT('Origin',(15.,48.,0.));
#1254=CARTESIAN_POINT('',(12.9,48.,0.));
#1255=CARTESIAN_POINT('',(12.9,48.,0.));
#1256=CARTESIAN_POINT('Origin',(15.,48.,0.));
#1257=CARTESIAN_POINT('Origin',(39.,48.,0.));
#1258=CARTESIAN_POINT('',(36.9,48.,0.));
#1259=CARTESIAN_POINT('',(36.9,48.,0.));
#1260=CARTESIAN_POINT('Origin',(39.,48.,0.));
#1261=CARTESIAN_POINT('Origin',(78.,48.,0.));
#1262=CARTESIAN_POINT('',(75.9,48.,0.));
#1263=CARTESIAN_POINT('',(75.9,48.,0.));
#1264=CARTESIAN_POINT('Origin',(78.,48.,0.));
#1265=CARTESIAN_POINT('Origin',(54.,30.,0.));
#1266=CARTESIAN_POINT('',(51.9,30.,0.));
#1267=CARTESIAN_POINT('',(51.9,30.,0.));
#1268=CARTESIAN_POINT('Origin',(54.,30.,0.));
#1269=CARTESIAN_POINT('Origin',(54.,48.,0.));
#1270=CARTESIAN_POINT('',(51.9,48.,0.));
#1271=CARTESIAN_POINT('',(51.9,48.,0.));
#1272=CARTESIAN_POINT('Origin',(54.,48.,0.));
#1273=CARTESIAN_POINT('Origin',(78.,30.,0.));
#1274=CARTESIAN_POINT('',(75.9,30.,0.));
#1275=CARTESIAN_POINT('',(75.9,30.,0.));
#1276=CARTESIAN_POINT('Origin',(78.,30.,0.));
#1277=CARTESIAN_POINT('Origin',(0.,0.,0.));
#1278=CARTESIAN_POINT('',(0.,0.,0.));
#1279=CARTESIAN_POINT('',(93.,-2.54736333977619E-31,0.));
#1280=CARTESIAN_POINT('',(0.,0.,0.));
#1281=CARTESIAN_POINT('',(93.,-2.54736333977619E-31,0.));
#1282=CARTESIAN_POINT('',(0.,0.,0.));
#1283=CARTESIAN_POINT('Origin',(0.,78.,0.));
#1284=CARTESIAN_POINT('',(0.,78.,0.));
#1285=CARTESIAN_POINT('',(0.,78.,0.));
#1286=CARTESIAN_POINT('',(0.,78.,0.));
#1287=CARTESIAN_POINT('Origin',(93.,78.,0.));
#1288=CARTESIAN_POINT('',(93.,78.,0.));
#1289=CARTESIAN_POINT('',(93.,78.,0.));
#1290=CARTESIAN_POINT('',(93.,78.,0.));
#1291=CARTESIAN_POINT('Origin',(93.,-2.54736333977619E-31,0.));
#1292=CARTESIAN_POINT('',(93.,-2.54736333977619E-31,0.));
#1293=CARTESIAN_POINT('Origin',(46.5,39.,0.));
#1294=UNCERTAINTY_MEASURE_WITH_UNIT(LENGTH_MEASURE(0.01),#1298,
'DISTANCE_ACCURACY_VALUE',
'Maximum model space distance between geometric entities at asserted c
onnectivities');
#1295=UNCERTAINTY_MEASURE_WITH_UNIT(LENGTH_MEASURE(0.01),#1298,
'DISTANCE_ACCURACY_VALUE',
'Maximum model space distance between geometric entities at asserted c
onnectivities');
#1296=(
GEOMETRIC_REPRESENTATION_CONTEXT(3)
GLOBAL_UNCERTAINTY_ASSIGNED_CONTEXT((#1294))
GLOBAL_UNIT_ASSIGNED_CONTEXT((#1298,#1300,#1301))
REPRESENTATION_CONTEXT('','3D')
);
#1297=(
GEOMETRIC_REPRESENTATION_CONTEXT(3)
GLOBAL_UNCERTAINTY_ASSIGNED_CONTEXT((#1295))
GLOBAL_UNIT_ASSIGNED_CONTEXT((#1298,#1300,#1301))
REPRESENTATION_CONTEXT('','3D')
);
#1298=(
LENGTH_UNIT()
NAMED_UNIT(*)
SI_UNIT(.MILLI.,.METRE.)
);
#1299=(
LENGTH_UNIT()
NAMED_UNIT(*)
SI_UNIT($,.METRE.)
);
#1300=(
NAMED_UNIT(*)
PLANE_ANGLE_UNIT()
SI_UNIT($,.RADIAN.)
);
#1301=(
NAMED_UNIT(*)
SI_UNIT($,.STERADIAN.)
SOLID_ANGLE_UNIT()
);
#1302=SHAPE_DEFINITION_REPRESENTATION(#1303,#1304);
#1303=PRODUCT_DEFINITION_SHAPE('',$,#1306);
#1304=SHAPE_REPRESENTATION('',(#802),#1296);
#1305=PRODUCT_DEFINITION_CONTEXT('part definition',#1310,'design');
#1306=PRODUCT_DEFINITION('2025-12-10-15-46-54-100',
'Y carriage idler pulley',#1307,#1305);
#1307=PRODUCT_DEFINITION_FORMATION('',$,#1312);
#1308=PRODUCT_RELATED_PRODUCT_CATEGORY('Y carriage idler pulley',
'Y carriage idler pulley',(#1312));
#1309=APPLICATION_PROTOCOL_DEFINITION('international standard',
'automotive_design',2009,#1310);
#1310=APPLICATION_CONTEXT(
'Core Data for Automotive Mechanical Design Process');
#1311=PRODUCT_CONTEXT('part definition',#1310,'mechanical');
#1312=PRODUCT('2025-12-10-15-46-54-100','Y carriage idler pulley',$,(#1311));
#1313=PRESENTATION_STYLE_ASSIGNMENT((#1314));
#1314=SURFACE_STYLE_USAGE(.BOTH.,#1315);
#1315=SURFACE_SIDE_STYLE('',(#1316));
#1316=SURFACE_STYLE_FILL_AREA(#1317);
#1317=FILL_AREA_STYLE('Steel - Satin',(#1318));
#1318=FILL_AREA_STYLE_COLOUR('Steel - Satin',#1319);
#1319=COLOUR_RGB('Steel - Satin',0.627450980392157,0.627450980392157,0.627450980392157);
ENDSEC;
END-ISO-10303-21;
