ISO-10303-21;
HEADER;
/* Generated by software containing ST-Developer
 * from STEP Tools, Inc. (www.steptools.com) 
 */

FILE_DESCRIPTION(
/* description */ (''),
/* implementation_level */ '2;1');

FILE_NAME(
/* name */ 'Z axis bearing clamp print file.step',
/* time_stamp */ '2025-12-30T18:42:37+11:00',
/* author */ (''),
/* organization */ (''),
/* preprocessor_version */ 'ST-DEVELOPER v20.1',
/* originating_system */ 'Autodesk Translation Framework v14.21.0.0',
/* authorisation */ '');

FILE_SCHEMA (('AUTOMOTIVE_DESIGN { 1 0 10303 214 3 1 1 }'));
ENDSEC;

DATA;
#10=MECHANICAL_DESIGN_GEOMETRIC_PRESENTATION_REPRESENTATION('',(#13),#500);
#11=SHAPE_REPRESENTATION_RELATIONSHIP('SRR','None',#507,#12);
#12=ADVANCED_BREP_SHAPE_REPRESENTATION('',(#14),#499);
#13=STYLED_ITEM('',(#516),#14);
#14=MANIFOLD_SOLID_BREP('Body1',#300);
#15=FACE_BOUND('',#49,.T.);
#16=FACE_BOUND('',#53,.T.);
#17=FACE_BOUND('',#58,.T.);
#18=FACE_BOUND('',#60,.T.);
#19=FACE_BOUND('',#63,.T.);
#20=FACE_BOUND('',#66,.T.);
#21=PLANE('',#317);
#22=PLANE('',#318);
#23=PLANE('',#319);
#24=PLANE('',#321);
#25=PLANE('',#328);
#26=PLANE('',#329);
#27=PLANE('',#330);
#28=PLANE('',#331);
#29=PLANE('',#332);
#30=PLANE('',#335);
#31=PLANE('',#336);
#32=FACE_OUTER_BOUND('',#47,.T.);
#33=FACE_OUTER_BOUND('',#48,.T.);
#34=FACE_OUTER_BOUND('',#50,.T.);
#35=FACE_OUTER_BOUND('',#51,.T.);
#36=FACE_OUTER_BOUND('',#52,.T.);
#37=FACE_OUTER_BOUND('',#54,.T.);
#38=FACE_OUTER_BOUND('',#55,.T.);
#39=FACE_OUTER_BOUND('',#56,.T.);
#40=FACE_OUTER_BOUND('',#57,.T.);
#41=FACE_OUTER_BOUND('',#59,.T.);
#42=FACE_OUTER_BOUND('',#61,.T.);
#43=FACE_OUTER_BOUND('',#62,.T.);
#44=FACE_OUTER_BOUND('',#64,.T.);
#45=FACE_OUTER_BOUND('',#65,.T.);
#46=FACE_OUTER_BOUND('',#67,.T.);
#47=EDGE_LOOP('',(#203,#204,#205,#206));
#48=EDGE_LOOP('',(#207,#208,#209,#210));
#49=EDGE_LOOP('',(#211));
#50=EDGE_LOOP('',(#212,#213,#214,#215));
#51=EDGE_LOOP('',(#216,#217,#218,#219,#220,#221,#222,#223));
#52=EDGE_LOOP('',(#224,#225,#226,#227,#228,#229));
#53=EDGE_LOOP('',(#230));
#54=EDGE_LOOP('',(#231,#232,#233,#234));
#55=EDGE_LOOP('',(#235,#236,#237,#238));
#56=EDGE_LOOP('',(#239,#240,#241,#242));
#57=EDGE_LOOP('',(#243,#244,#245,#246));
#58=EDGE_LOOP('',(#247));
#59=EDGE_LOOP('',(#248,#249,#250,#251,#252,#253));
#60=EDGE_LOOP('',(#254));
#61=EDGE_LOOP('',(#255,#256,#257,#258));
#62=EDGE_LOOP('',(#259,#260,#261,#262));
#63=EDGE_LOOP('',(#263));
#64=EDGE_LOOP('',(#264,#265,#266,#267));
#65=EDGE_LOOP('',(#268,#269,#270,#271));
#66=EDGE_LOOP('',(#272));
#67=EDGE_LOOP('',(#273,#274,#275,#276,#277,#278,#279,#280));
#68=LINE('',#421,#99);
#69=LINE('',#426,#100);
#70=LINE('',#428,#101);
#71=LINE('',#430,#102);
#72=LINE('',#431,#103);
#73=LINE('',#435,#104);
#74=LINE('',#436,#105);
#75=LINE('',#437,#106);
#76=LINE('',#440,#107);
#77=LINE('',#442,#108);
#78=LINE('',#444,#109);
#79=LINE('',#448,#110);
#80=LINE('',#450,#111);
#81=LINE('',#451,#112);
#82=LINE('',#455,#113);
#83=LINE('',#456,#114);
#84=LINE('',#457,#115);
#85=LINE('',#463,#116);
#86=LINE('',#468,#117);
#87=LINE('',#472,#118);
#88=LINE('',#473,#119);
#89=LINE('',#476,#120);
#90=LINE('',#477,#121);
#91=LINE('',#480,#122);
#92=LINE('',#481,#123);
#93=LINE('',#484,#124);
#94=LINE('',#485,#125);
#95=LINE('',#488,#126);
#96=LINE('',#489,#127);
#97=LINE('',#493,#128);
#98=LINE('',#495,#129);
#99=VECTOR('',#343,2.7);
#100=VECTOR('',#348,10.);
#101=VECTOR('',#349,10.);
#102=VECTOR('',#350,10.);
#103=VECTOR('',#351,10.);
#104=VECTOR('',#354,10.);
#105=VECTOR('',#355,10.);
#106=VECTOR('',#356,10.);
#107=VECTOR('',#359,10.);
#108=VECTOR('',#360,10.);
#109=VECTOR('',#361,10.);
#110=VECTOR('',#364,10.);
#111=VECTOR('',#365,10.);
#112=VECTOR('',#366,10.);
#113=VECTOR('',#369,10.);
#114=VECTOR('',#370,10.);
#115=VECTOR('',#371,10.);
#116=VECTOR('',#378,2.7);
#117=VECTOR('',#383,2.7);
#118=VECTOR('',#388,10.);
#119=VECTOR('',#389,10.);
#120=VECTOR('',#392,10.);
#121=VECTOR('',#393,10.);
#122=VECTOR('',#396,10.);
#123=VECTOR('',#397,10.);
#124=VECTOR('',#400,10.);
#125=VECTOR('',#401,10.);
#126=VECTOR('',#404,10.);
#127=VECTOR('',#405,10.);
#128=VECTOR('',#410,10.);
#129=VECTOR('',#413,10.);
#130=CIRCLE('',#315,2.7);
#131=CIRCLE('',#316,2.7);
#132=CIRCLE('',#320,7.5);
#133=CIRCLE('',#322,2.7);
#134=CIRCLE('',#324,2.7);
#135=CIRCLE('',#326,2.7);
#136=CIRCLE('',#327,2.7);
#137=CIRCLE('',#334,7.5);
#138=VERTEX_POINT('',#418);
#139=VERTEX_POINT('',#420);
#140=VERTEX_POINT('',#424);
#141=VERTEX_POINT('',#425);
#142=VERTEX_POINT('',#427);
#143=VERTEX_POINT('',#429);
#144=VERTEX_POINT('',#433);
#145=VERTEX_POINT('',#434);
#146=VERTEX_POINT('',#439);
#147=VERTEX_POINT('',#441);
#148=VERTEX_POINT('',#443);
#149=VERTEX_POINT('',#445);
#150=VERTEX_POINT('',#447);
#151=VERTEX_POINT('',#449);
#152=VERTEX_POINT('',#453);
#153=VERTEX_POINT('',#454);
#154=VERTEX_POINT('',#458);
#155=VERTEX_POINT('',#461);
#156=VERTEX_POINT('',#465);
#157=VERTEX_POINT('',#467);
#158=VERTEX_POINT('',#471);
#159=VERTEX_POINT('',#475);
#160=VERTEX_POINT('',#479);
#161=VERTEX_POINT('',#483);
#162=VERTEX_POINT('',#487);
#163=VERTEX_POINT('',#491);
#164=EDGE_CURVE('',#138,#138,#130,.T.);
#165=EDGE_CURVE('',#138,#139,#68,.T.);
#166=EDGE_CURVE('',#139,#139,#131,.T.);
#167=EDGE_CURVE('',#140,#141,#69,.T.);
#168=EDGE_CURVE('',#140,#142,#70,.T.);
#169=EDGE_CURVE('',#143,#142,#71,.T.);
#170=EDGE_CURVE('',#141,#143,#72,.T.);
#171=EDGE_CURVE('',#144,#145,#73,.T.);
#172=EDGE_CURVE('',#145,#143,#74,.T.);
#173=EDGE_CURVE('',#142,#144,#75,.T.);
#174=EDGE_CURVE('',#141,#146,#76,.T.);
#175=EDGE_CURVE('',#146,#147,#77,.T.);
#176=EDGE_CURVE('',#147,#148,#78,.T.);
#177=EDGE_CURVE('',#148,#149,#132,.T.);
#178=EDGE_CURVE('',#149,#150,#79,.T.);
#179=EDGE_CURVE('',#150,#151,#80,.T.);
#180=EDGE_CURVE('',#151,#140,#81,.T.);
#181=EDGE_CURVE('',#152,#153,#82,.T.);
#182=EDGE_CURVE('',#152,#146,#83,.T.);
#183=EDGE_CURVE('',#153,#145,#84,.T.);
#184=EDGE_CURVE('',#154,#154,#133,.T.);
#185=EDGE_CURVE('',#155,#155,#134,.T.);
#186=EDGE_CURVE('',#155,#154,#85,.T.);
#187=EDGE_CURVE('',#156,#156,#135,.T.);
#188=EDGE_CURVE('',#156,#157,#86,.T.);
#189=EDGE_CURVE('',#157,#157,#136,.T.);
#190=EDGE_CURVE('',#158,#152,#87,.T.);
#191=EDGE_CURVE('',#158,#147,#88,.T.);
#192=EDGE_CURVE('',#153,#159,#89,.T.);
#193=EDGE_CURVE('',#159,#144,#90,.T.);
#194=EDGE_CURVE('',#160,#151,#91,.T.);
#195=EDGE_CURVE('',#159,#160,#92,.T.);
#196=EDGE_CURVE('',#160,#161,#93,.T.);
#197=EDGE_CURVE('',#161,#150,#94,.T.);
#198=EDGE_CURVE('',#162,#161,#95,.T.);
#199=EDGE_CURVE('',#162,#149,#96,.T.);
#200=EDGE_CURVE('',#162,#163,#137,.T.);
#201=EDGE_CURVE('',#163,#148,#97,.T.);
#202=EDGE_CURVE('',#158,#163,#98,.T.);
#203=ORIENTED_EDGE('',*,*,#164,.F.);
#204=ORIENTED_EDGE('',*,*,#165,.T.);
#205=ORIENTED_EDGE('',*,*,#166,.F.);
#206=ORIENTED_EDGE('',*,*,#165,.F.);
#207=ORIENTED_EDGE('',*,*,#167,.F.);
#208=ORIENTED_EDGE('',*,*,#168,.T.);
#209=ORIENTED_EDGE('',*,*,#169,.F.);
#210=ORIENTED_EDGE('',*,*,#170,.F.);
#211=ORIENTED_EDGE('',*,*,#164,.T.);
#212=ORIENTED_EDGE('',*,*,#171,.T.);
#213=ORIENTED_EDGE('',*,*,#172,.T.);
#214=ORIENTED_EDGE('',*,*,#169,.T.);
#215=ORIENTED_EDGE('',*,*,#173,.T.);
#216=ORIENTED_EDGE('',*,*,#167,.T.);
#217=ORIENTED_EDGE('',*,*,#174,.T.);
#218=ORIENTED_EDGE('',*,*,#175,.T.);
#219=ORIENTED_EDGE('',*,*,#176,.T.);
#220=ORIENTED_EDGE('',*,*,#177,.T.);
#221=ORIENTED_EDGE('',*,*,#178,.T.);
#222=ORIENTED_EDGE('',*,*,#179,.T.);
#223=ORIENTED_EDGE('',*,*,#180,.T.);
#224=ORIENTED_EDGE('',*,*,#181,.F.);
#225=ORIENTED_EDGE('',*,*,#182,.T.);
#226=ORIENTED_EDGE('',*,*,#174,.F.);
#227=ORIENTED_EDGE('',*,*,#170,.T.);
#228=ORIENTED_EDGE('',*,*,#172,.F.);
#229=ORIENTED_EDGE('',*,*,#183,.F.);
#230=ORIENTED_EDGE('',*,*,#184,.T.);
#231=ORIENTED_EDGE('',*,*,#185,.F.);
#232=ORIENTED_EDGE('',*,*,#186,.T.);
#233=ORIENTED_EDGE('',*,*,#184,.F.);
#234=ORIENTED_EDGE('',*,*,#186,.F.);
#235=ORIENTED_EDGE('',*,*,#187,.F.);
#236=ORIENTED_EDGE('',*,*,#188,.T.);
#237=ORIENTED_EDGE('',*,*,#189,.F.);
#238=ORIENTED_EDGE('',*,*,#188,.F.);
#239=ORIENTED_EDGE('',*,*,#190,.F.);
#240=ORIENTED_EDGE('',*,*,#191,.T.);
#241=ORIENTED_EDGE('',*,*,#175,.F.);
#242=ORIENTED_EDGE('',*,*,#182,.F.);
#243=ORIENTED_EDGE('',*,*,#192,.F.);
#244=ORIENTED_EDGE('',*,*,#183,.T.);
#245=ORIENTED_EDGE('',*,*,#171,.F.);
#246=ORIENTED_EDGE('',*,*,#193,.F.);
#247=ORIENTED_EDGE('',*,*,#166,.T.);
#248=ORIENTED_EDGE('',*,*,#180,.F.);
#249=ORIENTED_EDGE('',*,*,#194,.F.);
#250=ORIENTED_EDGE('',*,*,#195,.F.);
#251=ORIENTED_EDGE('',*,*,#193,.T.);
#252=ORIENTED_EDGE('',*,*,#173,.F.);
#253=ORIENTED_EDGE('',*,*,#168,.F.);
#254=ORIENTED_EDGE('',*,*,#187,.T.);
#255=ORIENTED_EDGE('',*,*,#196,.F.);
#256=ORIENTED_EDGE('',*,*,#194,.T.);
#257=ORIENTED_EDGE('',*,*,#179,.F.);
#258=ORIENTED_EDGE('',*,*,#197,.F.);
#259=ORIENTED_EDGE('',*,*,#198,.T.);
#260=ORIENTED_EDGE('',*,*,#197,.T.);
#261=ORIENTED_EDGE('',*,*,#178,.F.);
#262=ORIENTED_EDGE('',*,*,#199,.F.);
#263=ORIENTED_EDGE('',*,*,#189,.T.);
#264=ORIENTED_EDGE('',*,*,#200,.F.);
#265=ORIENTED_EDGE('',*,*,#199,.T.);
#266=ORIENTED_EDGE('',*,*,#177,.F.);
#267=ORIENTED_EDGE('',*,*,#201,.F.);
#268=ORIENTED_EDGE('',*,*,#202,.T.);
#269=ORIENTED_EDGE('',*,*,#201,.T.);
#270=ORIENTED_EDGE('',*,*,#176,.F.);
#271=ORIENTED_EDGE('',*,*,#191,.F.);
#272=ORIENTED_EDGE('',*,*,#185,.T.);
#273=ORIENTED_EDGE('',*,*,#195,.T.);
#274=ORIENTED_EDGE('',*,*,#196,.T.);
#275=ORIENTED_EDGE('',*,*,#198,.F.);
#276=ORIENTED_EDGE('',*,*,#200,.T.);
#277=ORIENTED_EDGE('',*,*,#202,.F.);
#278=ORIENTED_EDGE('',*,*,#190,.T.);
#279=ORIENTED_EDGE('',*,*,#181,.T.);
#280=ORIENTED_EDGE('',*,*,#192,.T.);
#281=CYLINDRICAL_SURFACE('',#314,2.7);
#282=CYLINDRICAL_SURFACE('',#323,2.7);
#283=CYLINDRICAL_SURFACE('',#325,2.7);
#284=CYLINDRICAL_SURFACE('',#333,7.5);
#285=ADVANCED_FACE('',(#32),#281,.F.);
#286=ADVANCED_FACE('',(#33,#15),#21,.T.);
#287=ADVANCED_FACE('',(#34),#22,.T.);
#288=ADVANCED_FACE('',(#35),#23,.T.);
#289=ADVANCED_FACE('',(#36,#16),#24,.T.);
#290=ADVANCED_FACE('',(#37),#282,.F.);
#291=ADVANCED_FACE('',(#38),#283,.F.);
#292=ADVANCED_FACE('',(#39),#25,.T.);
#293=ADVANCED_FACE('',(#40,#17),#26,.T.);
#294=ADVANCED_FACE('',(#41,#18),#27,.T.);
#295=ADVANCED_FACE('',(#42),#28,.T.);
#296=ADVANCED_FACE('',(#43,#19),#29,.T.);
#297=ADVANCED_FACE('',(#44),#284,.F.);
#298=ADVANCED_FACE('',(#45,#20),#30,.T.);
#299=ADVANCED_FACE('',(#46),#31,.F.);
#300=CLOSED_SHELL('',(#285,#286,#287,#288,#289,#290,#291,#292,#293,#294,
#295,#296,#297,#298,#299));
#301=DERIVED_UNIT_ELEMENT(#303,1.);
#302=DERIVED_UNIT_ELEMENT(#502,-3.);
#303=(
MASS_UNIT()
NAMED_UNIT(*)
SI_UNIT(.KILO.,.GRAM.)
);
#304=DERIVED_UNIT((#301,#302));
#305=MEASURE_REPRESENTATION_ITEM('density measure',
POSITIVE_RATIO_MEASURE(7850.),#304);
#306=PROPERTY_DEFINITION_REPRESENTATION(#311,#308);
#307=PROPERTY_DEFINITION_REPRESENTATION(#312,#309);
#308=REPRESENTATION('material name',(#310),#499);
#309=REPRESENTATION('density',(#305),#499);
#310=DESCRIPTIVE_REPRESENTATION_ITEM('Steel','Steel');
#311=PROPERTY_DEFINITION('material property','material name',#509);
#312=PROPERTY_DEFINITION('material property','density of part',#509);
#313=AXIS2_PLACEMENT_3D('',#416,#337,#338);
#314=AXIS2_PLACEMENT_3D('',#417,#339,#340);
#315=AXIS2_PLACEMENT_3D('',#419,#341,#342);
#316=AXIS2_PLACEMENT_3D('',#422,#344,#345);
#317=AXIS2_PLACEMENT_3D('',#423,#346,#347);
#318=AXIS2_PLACEMENT_3D('',#432,#352,#353);
#319=AXIS2_PLACEMENT_3D('',#438,#357,#358);
#320=AXIS2_PLACEMENT_3D('',#446,#362,#363);
#321=AXIS2_PLACEMENT_3D('',#452,#367,#368);
#322=AXIS2_PLACEMENT_3D('',#459,#372,#373);
#323=AXIS2_PLACEMENT_3D('',#460,#374,#375);
#324=AXIS2_PLACEMENT_3D('',#462,#376,#377);
#325=AXIS2_PLACEMENT_3D('',#464,#379,#380);
#326=AXIS2_PLACEMENT_3D('',#466,#381,#382);
#327=AXIS2_PLACEMENT_3D('',#469,#384,#385);
#328=AXIS2_PLACEMENT_3D('',#470,#386,#387);
#329=AXIS2_PLACEMENT_3D('',#474,#390,#391);
#330=AXIS2_PLACEMENT_3D('',#478,#394,#395);
#331=AXIS2_PLACEMENT_3D('',#482,#398,#399);
#332=AXIS2_PLACEMENT_3D('',#486,#402,#403);
#333=AXIS2_PLACEMENT_3D('',#490,#406,#407);
#334=AXIS2_PLACEMENT_3D('',#492,#408,#409);
#335=AXIS2_PLACEMENT_3D('',#494,#411,#412);
#336=AXIS2_PLACEMENT_3D('',#496,#414,#415);
#337=DIRECTION('axis',(0.,0.,1.));
#338=DIRECTION('refdir',(1.,0.,0.));
#339=DIRECTION('center_axis',(1.,0.,0.));
#340=DIRECTION('ref_axis',(0.,-1.,0.));
#341=DIRECTION('center_axis',(1.,0.,0.));
#342=DIRECTION('ref_axis',(0.,-1.,0.));
#343=DIRECTION('',(1.,0.,0.));
#344=DIRECTION('center_axis',(-1.,0.,0.));
#345=DIRECTION('ref_axis',(0.,-1.,0.));
#346=DIRECTION('center_axis',(-1.,0.,0.));
#347=DIRECTION('ref_axis',(0.,-1.,0.));
#348=DIRECTION('',(0.,1.,0.));
#349=DIRECTION('',(0.,0.,1.));
#350=DIRECTION('',(0.,-1.,0.));
#351=DIRECTION('',(0.,0.,1.));
#352=DIRECTION('center_axis',(0.,0.,1.));
#353=DIRECTION('ref_axis',(1.,0.,0.));
#354=DIRECTION('',(0.,1.,0.));
#355=DIRECTION('',(-1.,0.,0.));
#356=DIRECTION('',(1.,0.,0.));
#357=DIRECTION('center_axis',(0.,0.,1.));
#358=DIRECTION('ref_axis',(1.,0.,0.));
#359=DIRECTION('',(-1.,0.,0.));
#360=DIRECTION('',(0.,-1.,0.));
#361=DIRECTION('',(1.,0.,0.));
#362=DIRECTION('center_axis',(0.,0.,-1.));
#363=DIRECTION('ref_axis',(1.,0.,0.));
#364=DIRECTION('',(-1.,0.,0.));
#365=DIRECTION('',(0.,-1.,0.));
#366=DIRECTION('',(1.,0.,0.));
#367=DIRECTION('center_axis',(0.,1.,0.));
#368=DIRECTION('ref_axis',(-1.,0.,0.));
#369=DIRECTION('',(1.,0.,0.));
#370=DIRECTION('',(0.,0.,1.));
#371=DIRECTION('',(0.,0.,1.));
#372=DIRECTION('center_axis',(0.,-1.,0.));
#373=DIRECTION('ref_axis',(1.,0.,0.));
#374=DIRECTION('center_axis',(0.,1.,0.));
#375=DIRECTION('ref_axis',(1.,0.,0.));
#376=DIRECTION('center_axis',(0.,1.,0.));
#377=DIRECTION('ref_axis',(1.,0.,0.));
#378=DIRECTION('',(0.,1.,0.));
#379=DIRECTION('center_axis',(0.,1.,0.));
#380=DIRECTION('ref_axis',(1.,0.,0.));
#381=DIRECTION('center_axis',(0.,1.,0.));
#382=DIRECTION('ref_axis',(1.,0.,0.));
#383=DIRECTION('',(0.,1.,0.));
#384=DIRECTION('center_axis',(0.,-1.,0.));
#385=DIRECTION('ref_axis',(1.,0.,0.));
#386=DIRECTION('center_axis',(-1.,0.,0.));
#387=DIRECTION('ref_axis',(0.,-1.,0.));
#388=DIRECTION('',(0.,1.,0.));
#389=DIRECTION('',(0.,0.,1.));
#390=DIRECTION('center_axis',(1.,0.,0.));
#391=DIRECTION('ref_axis',(0.,1.,0.));
#392=DIRECTION('',(0.,-1.,0.));
#393=DIRECTION('',(0.,0.,1.));
#394=DIRECTION('center_axis',(0.,-1.,0.));
#395=DIRECTION('ref_axis',(1.,0.,0.));
#396=DIRECTION('',(0.,0.,1.));
#397=DIRECTION('',(-1.,0.,0.));
#398=DIRECTION('center_axis',(-1.,0.,0.));
#399=DIRECTION('ref_axis',(0.,-1.,0.));
#400=DIRECTION('',(0.,1.,0.));
#401=DIRECTION('',(0.,0.,1.));
#402=DIRECTION('center_axis',(0.,1.,0.));
#403=DIRECTION('ref_axis',(-1.,0.,0.));
#404=DIRECTION('',(-1.,0.,0.));
#405=DIRECTION('',(0.,0.,1.));
#406=DIRECTION('center_axis',(0.,0.,1.));
#407=DIRECTION('ref_axis',(1.,0.,0.));
#408=DIRECTION('center_axis',(0.,0.,1.));
#409=DIRECTION('ref_axis',(1.,0.,0.));
#410=DIRECTION('',(0.,0.,1.));
#411=DIRECTION('center_axis',(0.,-1.,0.));
#412=DIRECTION('ref_axis',(1.,0.,0.));
#413=DIRECTION('',(1.,0.,0.));
#414=DIRECTION('center_axis',(0.,0.,1.));
#415=DIRECTION('ref_axis',(1.,0.,0.));
#416=CARTESIAN_POINT('',(0.,0.,0.));
#417=CARTESIAN_POINT('Origin',(15.,9.23871970037738E-8,35.));
#418=CARTESIAN_POINT('',(15.,2.7000000923872,35.));
#419=CARTESIAN_POINT('Origin',(15.,9.23871970037738E-8,35.));
#420=CARTESIAN_POINT('',(25.,2.7000000923872,35.));
#421=CARTESIAN_POINT('',(15.,2.7000000923872,35.));
#422=CARTESIAN_POINT('Origin',(25.,9.23871970037738E-8,35.));
#423=CARTESIAN_POINT('Origin',(15.,15.500000230968,0.));
#424=CARTESIAN_POINT('',(15.,-15.500000230968,25.));
#425=CARTESIAN_POINT('',(15.,15.5,25.));
#426=CARTESIAN_POINT('',(15.,7.750000115484,25.));
#427=CARTESIAN_POINT('',(15.,-15.500000230968,50.));
#428=CARTESIAN_POINT('',(15.,-15.500000230968,0.));
#429=CARTESIAN_POINT('',(15.,15.500000230968,50.));
#430=CARTESIAN_POINT('',(15.,15.500000230968,50.));
#431=CARTESIAN_POINT('',(15.,15.500000230968,0.));
#432=CARTESIAN_POINT('Origin',(20.,0.,50.));
#433=CARTESIAN_POINT('',(25.,-15.5,50.));
#434=CARTESIAN_POINT('',(25.,15.5,50.));
#435=CARTESIAN_POINT('',(25.,-15.5,50.));
#436=CARTESIAN_POINT('',(25.,15.500000230968,50.));
#437=CARTESIAN_POINT('',(15.,-15.500000230968,50.));
#438=CARTESIAN_POINT('Origin',(-1.49011611938477E-7,0.,25.));
#439=CARTESIAN_POINT('',(-25.,15.5,25.));
#440=CARTESIAN_POINT('',(-25.,15.5,25.));
#441=CARTESIAN_POINT('',(-25.0000002980232,0.7,25.));
#442=CARTESIAN_POINT('',(-25.,-15.5,25.));
#443=CARTESIAN_POINT('',(-7.46726188103779,0.699999999999999,25.));
#444=CARTESIAN_POINT('',(-25.0000002980232,0.7,25.));
#445=CARTESIAN_POINT('',(-7.46726188103779,-0.699999999999999,25.));
#446=CARTESIAN_POINT('Origin',(0.,0.,25.));
#447=CARTESIAN_POINT('',(-25.0000002980232,-0.7,25.));
#448=CARTESIAN_POINT('',(-2.,-0.7,25.));
#449=CARTESIAN_POINT('',(-25.,-15.5,25.));
#450=CARTESIAN_POINT('',(-25.,-15.5,25.));
#451=CARTESIAN_POINT('',(25.,-15.5,25.));
#452=CARTESIAN_POINT('Origin',(25.,15.5,0.));
#453=CARTESIAN_POINT('',(-25.,15.5,0.));
#454=CARTESIAN_POINT('',(25.,15.5,0.));
#455=CARTESIAN_POINT('',(-25.,15.5,0.));
#456=CARTESIAN_POINT('',(-25.,15.5,0.));
#457=CARTESIAN_POINT('',(25.,15.5,0.));
#458=CARTESIAN_POINT('',(-18.7,15.5,12.5));
#459=CARTESIAN_POINT('Origin',(-16.,15.5,12.5));
#460=CARTESIAN_POINT('Origin',(-16.,-15.5,12.5));
#461=CARTESIAN_POINT('',(-18.7,0.700000000000001,12.5));
#462=CARTESIAN_POINT('Origin',(-16.,0.700000000000001,12.5));
#463=CARTESIAN_POINT('',(-18.7,-15.5,12.5));
#464=CARTESIAN_POINT('Origin',(-16.,-15.5,12.5));
#465=CARTESIAN_POINT('',(-18.7,-15.5,12.5));
#466=CARTESIAN_POINT('Origin',(-16.,-15.5,12.5));
#467=CARTESIAN_POINT('',(-18.7,-0.700000000000001,12.5));
#468=CARTESIAN_POINT('',(-18.7,-15.5,12.5));
#469=CARTESIAN_POINT('Origin',(-16.,-0.700000000000001,12.5));
#470=CARTESIAN_POINT('Origin',(-25.,15.5,0.));
#471=CARTESIAN_POINT('',(-25.0000002980232,0.7,0.));
#472=CARTESIAN_POINT('',(-25.,-15.5,0.));
#473=CARTESIAN_POINT('',(-25.0000002980232,0.7,0.));
#474=CARTESIAN_POINT('Origin',(25.,-15.5,0.));
#475=CARTESIAN_POINT('',(25.,-15.5,0.));
#476=CARTESIAN_POINT('',(25.,15.5,0.));
#477=CARTESIAN_POINT('',(25.,-15.5,0.));
#478=CARTESIAN_POINT('Origin',(-25.,-15.5,0.));
#479=CARTESIAN_POINT('',(-25.,-15.5,0.));
#480=CARTESIAN_POINT('',(-25.,-15.5,0.));
#481=CARTESIAN_POINT('',(25.,-15.5,0.));
#482=CARTESIAN_POINT('Origin',(-25.,-0.700000000000001,0.));
#483=CARTESIAN_POINT('',(-25.0000002980232,-0.7,0.));
#484=CARTESIAN_POINT('',(-25.,-15.5,0.));
#485=CARTESIAN_POINT('',(-25.0000002980232,-0.7,0.));
#486=CARTESIAN_POINT('Origin',(-7.46726188103779,-0.7,0.));
#487=CARTESIAN_POINT('',(-7.46726188103779,-0.699999999999999,0.));
#488=CARTESIAN_POINT('',(-2.,-0.7,0.));
#489=CARTESIAN_POINT('',(-7.46726188103779,-0.699999999999999,0.));
#490=CARTESIAN_POINT('Origin',(0.,0.,0.));
#491=CARTESIAN_POINT('',(-7.46726188103779,0.699999999999999,0.));
#492=CARTESIAN_POINT('Origin',(0.,0.,0.));
#493=CARTESIAN_POINT('',(-7.46726188103779,0.699999999999999,0.));
#494=CARTESIAN_POINT('Origin',(-25.0000002980232,0.7,0.));
#495=CARTESIAN_POINT('',(-25.0000002980232,0.7,0.));
#496=CARTESIAN_POINT('Origin',(-1.49011611938477E-7,0.,0.));
#497=UNCERTAINTY_MEASURE_WITH_UNIT(LENGTH_MEASURE(0.01),#501,
'DISTANCE_ACCURACY_VALUE',
'Maximum model space distance between geometric entities at asserted c
onnectivities');
#498=UNCERTAINTY_MEASURE_WITH_UNIT(LENGTH_MEASURE(0.01),#501,
'DISTANCE_ACCURACY_VALUE',
'Maximum model space distance between geometric entities at asserted c
onnectivities');
#499=(
GEOMETRIC_REPRESENTATION_CONTEXT(3)
GLOBAL_UNCERTAINTY_ASSIGNED_CONTEXT((#497))
GLOBAL_UNIT_ASSIGNED_CONTEXT((#501,#503,#504))
REPRESENTATION_CONTEXT('','3D')
);
#500=(
GEOMETRIC_REPRESENTATION_CONTEXT(3)
GLOBAL_UNCERTAINTY_ASSIGNED_CONTEXT((#498))
GLOBAL_UNIT_ASSIGNED_CONTEXT((#501,#503,#504))
REPRESENTATION_CONTEXT('','3D')
);
#501=(
LENGTH_UNIT()
NAMED_UNIT(*)
SI_UNIT(.MILLI.,.METRE.)
);
#502=(
LENGTH_UNIT()
NAMED_UNIT(*)
SI_UNIT($,.METRE.)
);
#503=(
NAMED_UNIT(*)
PLANE_ANGLE_UNIT()
SI_UNIT($,.RADIAN.)
);
#504=(
NAMED_UNIT(*)
SI_UNIT($,.STERADIAN.)
SOLID_ANGLE_UNIT()
);
#505=SHAPE_DEFINITION_REPRESENTATION(#506,#507);
#506=PRODUCT_DEFINITION_SHAPE('',$,#509);
#507=SHAPE_REPRESENTATION('',(#313),#499);
#508=PRODUCT_DEFINITION_CONTEXT('part definition',#513,'design');
#509=PRODUCT_DEFINITION('2025-12-23-13-23-02-771',
'Z axis bearing clamp print file',#510,#508);
#510=PRODUCT_DEFINITION_FORMATION('',$,#515);
#511=PRODUCT_RELATED_PRODUCT_CATEGORY('Z axis bearing clamp print file',
'Z axis bearing clamp print file',(#515));
#512=APPLICATION_PROTOCOL_DEFINITION('international standard',
'automotive_design',2009,#513);
#513=APPLICATION_CONTEXT(
'Core Data for Automotive Mechanical Design Process');
#514=PRODUCT_CONTEXT('part definition',#513,'mechanical');
#515=PRODUCT('2025-12-23-13-23-02-771',
'Z axis bearing clamp print file',$,(#514));
#516=PRESENTATION_STYLE_ASSIGNMENT((#517));
#517=SURFACE_STYLE_USAGE(.BOTH.,#518);
#518=SURFACE_SIDE_STYLE('',(#519));
#519=SURFACE_STYLE_FILL_AREA(#520);
#520=FILL_AREA_STYLE('Steel - Satin',(#521));
#521=FILL_AREA_STYLE_COLOUR('Steel - Satin',#522);
#522=COLOUR_RGB('Steel - Satin',0.627450980392157,0.627450980392157,0.627450980392157);
ENDSEC;
END-ISO-10303-21;
