ISO-10303-21;
HEADER;
/* Generated by software containing ST-Developer
 * from STEP Tools, Inc. (www.steptools.com) 
 */

FILE_DESCRIPTION(
/* description */ (''),
/* implementation_level */ '2;1');

FILE_NAME(
/* name */ 'Z stepper bracket print file.step',
/* time_stamp */ '2025-12-30T18:43:09+11:00',
/* author */ (''),
/* organization */ (''),
/* preprocessor_version */ 'ST-DEVELOPER v20.1',
/* originating_system */ 'Autodesk Translation Framework v14.21.0.0',
/* authorisation */ '');

FILE_SCHEMA (('AUTOMOTIVE_DESIGN { 1 0 10303 214 3 1 1 }'));
ENDSEC;

DATA;
#10=MECHANICAL_DESIGN_GEOMETRIC_PRESENTATION_REPRESENTATION('',(#13),#720);
#11=SHAPE_REPRESENTATION_RELATIONSHIP('SRR','None',#727,#12);
#12=ADVANCED_BREP_SHAPE_REPRESENTATION('',(#14),#719);
#13=STYLED_ITEM('',(#736),#14);
#14=MANIFOLD_SOLID_BREP('Body1',#436);
#15=CYLINDRICAL_SURFACE('',#456,2.75);
#16=CYLINDRICAL_SURFACE('',#459,1.75);
#17=CYLINDRICAL_SURFACE('',#461,1.75);
#18=CYLINDRICAL_SURFACE('',#474,2.75);
#19=CYLINDRICAL_SURFACE('',#481,1.75);
#20=CYLINDRICAL_SURFACE('',#482,1.75);
#21=CYLINDRICAL_SURFACE('',#483,11.05);
#22=FACE_BOUND('',#72,.T.);
#23=FACE_BOUND('',#73,.T.);
#24=FACE_BOUND('',#74,.T.);
#25=FACE_BOUND('',#75,.T.);
#26=FACE_BOUND('',#76,.T.);
#27=FACE_BOUND('',#82,.T.);
#28=FACE_BOUND('',#86,.T.);
#29=FACE_BOUND('',#89,.T.);
#30=FACE_BOUND('',#90,.T.);
#31=FACE_BOUND('',#91,.T.);
#32=FACE_BOUND('',#92,.T.);
#33=FACE_BOUND('',#93,.T.);
#34=FACE_BOUND('',#98,.T.);
#35=FACE_BOUND('',#100,.T.);
#36=CIRCLE('',#451,1.75);
#37=CIRCLE('',#452,1.75);
#38=CIRCLE('',#453,11.05);
#39=CIRCLE('',#454,1.75);
#40=CIRCLE('',#455,1.75);
#41=CIRCLE('',#457,2.75);
#42=CIRCLE('',#458,2.75);
#43=CIRCLE('',#460,1.75);
#44=CIRCLE('',#462,1.75);
#45=CIRCLE('',#470,11.05);
#46=CIRCLE('',#471,1.75);
#47=CIRCLE('',#472,1.75);
#48=CIRCLE('',#475,2.75);
#49=CIRCLE('',#476,2.75);
#50=FACE_OUTER_BOUND('',#71,.T.);
#51=FACE_OUTER_BOUND('',#77,.T.);
#52=FACE_OUTER_BOUND('',#78,.T.);
#53=FACE_OUTER_BOUND('',#79,.T.);
#54=FACE_OUTER_BOUND('',#80,.T.);
#55=FACE_OUTER_BOUND('',#81,.T.);
#56=FACE_OUTER_BOUND('',#83,.T.);
#57=FACE_OUTER_BOUND('',#84,.T.);
#58=FACE_OUTER_BOUND('',#85,.T.);
#59=FACE_OUTER_BOUND('',#87,.T.);
#60=FACE_OUTER_BOUND('',#88,.T.);
#61=FACE_OUTER_BOUND('',#94,.T.);
#62=FACE_OUTER_BOUND('',#95,.T.);
#63=FACE_OUTER_BOUND('',#96,.T.);
#64=FACE_OUTER_BOUND('',#97,.T.);
#65=FACE_OUTER_BOUND('',#99,.T.);
#66=FACE_OUTER_BOUND('',#101,.T.);
#67=FACE_OUTER_BOUND('',#102,.T.);
#68=FACE_OUTER_BOUND('',#103,.T.);
#69=FACE_OUTER_BOUND('',#104,.T.);
#70=FACE_OUTER_BOUND('',#105,.T.);
#71=EDGE_LOOP('',(#287,#288,#289,#290));
#72=EDGE_LOOP('',(#291));
#73=EDGE_LOOP('',(#292));
#74=EDGE_LOOP('',(#293));
#75=EDGE_LOOP('',(#294));
#76=EDGE_LOOP('',(#295));
#77=EDGE_LOOP('',(#296,#297,#298,#299));
#78=EDGE_LOOP('',(#300,#301,#302,#303));
#79=EDGE_LOOP('',(#304,#305,#306,#307));
#80=EDGE_LOOP('',(#308,#309,#310,#311));
#81=EDGE_LOOP('',(#312,#313,#314,#315));
#82=EDGE_LOOP('',(#316));
#83=EDGE_LOOP('',(#317,#318,#319,#320));
#84=EDGE_LOOP('',(#321,#322,#323,#324));
#85=EDGE_LOOP('',(#325,#326,#327,#328));
#86=EDGE_LOOP('',(#329));
#87=EDGE_LOOP('',(#330,#331,#332,#333,#334,#335,#336,#337,#338,#339,#340,
#341));
#88=EDGE_LOOP('',(#342,#343,#344,#345));
#89=EDGE_LOOP('',(#346));
#90=EDGE_LOOP('',(#347));
#91=EDGE_LOOP('',(#348));
#92=EDGE_LOOP('',(#349));
#93=EDGE_LOOP('',(#350));
#94=EDGE_LOOP('',(#351,#352,#353,#354,#355,#356,#357,#358,#359,#360,#361,
#362));
#95=EDGE_LOOP('',(#363,#364,#365,#366));
#96=EDGE_LOOP('',(#367,#368,#369,#370));
#97=EDGE_LOOP('',(#371,#372,#373,#374));
#98=EDGE_LOOP('',(#375));
#99=EDGE_LOOP('',(#376,#377,#378,#379));
#100=EDGE_LOOP('',(#380));
#101=EDGE_LOOP('',(#381,#382,#383,#384));
#102=EDGE_LOOP('',(#385,#386,#387,#388));
#103=EDGE_LOOP('',(#389,#390,#391,#392));
#104=EDGE_LOOP('',(#393,#394,#395,#396));
#105=EDGE_LOOP('',(#397,#398,#399,#400));
#106=LINE('',#604,#149);
#107=LINE('',#606,#150);
#108=LINE('',#608,#151);
#109=LINE('',#609,#152);
#110=LINE('',#624,#153);
#111=LINE('',#628,#154);
#112=LINE('',#632,#155);
#113=LINE('',#637,#156);
#114=LINE('',#639,#157);
#115=LINE('',#641,#158);
#116=LINE('',#642,#159);
#117=LINE('',#645,#160);
#118=LINE('',#647,#161);
#119=LINE('',#648,#162);
#120=LINE('',#650,#163);
#121=LINE('',#651,#164);
#122=LINE('',#655,#165);
#123=LINE('',#657,#166);
#124=LINE('',#659,#167);
#125=LINE('',#660,#168);
#126=LINE('',#662,#169);
#127=LINE('',#663,#170);
#128=LINE('',#666,#171);
#129=LINE('',#668,#172);
#130=LINE('',#670,#173);
#131=LINE('',#672,#174);
#132=LINE('',#674,#175);
#133=LINE('',#675,#176);
#134=LINE('',#678,#177);
#135=LINE('',#679,#178);
#136=LINE('',#688,#179);
#137=LINE('',#690,#180);
#138=LINE('',#692,#181);
#139=LINE('',#694,#182);
#140=LINE('',#695,#183);
#141=LINE('',#700,#184);
#142=LINE('',#703,#185);
#143=LINE('',#704,#186);
#144=LINE('',#706,#187);
#145=LINE('',#708,#188);
#146=LINE('',#711,#189);
#147=LINE('',#713,#190);
#148=LINE('',#715,#191);
#149=VECTOR('',#489,10.);
#150=VECTOR('',#490,10.);
#151=VECTOR('',#491,10.);
#152=VECTOR('',#492,10.);
#153=VECTOR('',#507,2.75);
#154=VECTOR('',#512,1.75);
#155=VECTOR('',#517,1.75);
#156=VECTOR('',#522,10.);
#157=VECTOR('',#523,10.);
#158=VECTOR('',#524,10.);
#159=VECTOR('',#525,10.);
#160=VECTOR('',#528,10.);
#161=VECTOR('',#529,10.);
#162=VECTOR('',#530,10.);
#163=VECTOR('',#533,10.);
#164=VECTOR('',#534,10.);
#165=VECTOR('',#537,10.);
#166=VECTOR('',#538,10.);
#167=VECTOR('',#539,10.);
#168=VECTOR('',#540,10.);
#169=VECTOR('',#543,10.);
#170=VECTOR('',#544,10.);
#171=VECTOR('',#547,10.);
#172=VECTOR('',#548,10.);
#173=VECTOR('',#549,10.);
#174=VECTOR('',#550,10.);
#175=VECTOR('',#551,10.);
#176=VECTOR('',#552,10.);
#177=VECTOR('',#555,10.);
#178=VECTOR('',#556,10.);
#179=VECTOR('',#565,10.);
#180=VECTOR('',#566,10.);
#181=VECTOR('',#567,10.);
#182=VECTOR('',#568,10.);
#183=VECTOR('',#569,10.);
#184=VECTOR('',#574,2.75);
#185=VECTOR('',#579,10.);
#186=VECTOR('',#580,10.);
#187=VECTOR('',#583,10.);
#188=VECTOR('',#586,10.);
#189=VECTOR('',#591,1.75);
#190=VECTOR('',#594,1.75);
#191=VECTOR('',#597,11.05);
#192=VERTEX_POINT('',#602);
#193=VERTEX_POINT('',#603);
#194=VERTEX_POINT('',#605);
#195=VERTEX_POINT('',#607);
#196=VERTEX_POINT('',#610);
#197=VERTEX_POINT('',#612);
#198=VERTEX_POINT('',#614);
#199=VERTEX_POINT('',#616);
#200=VERTEX_POINT('',#618);
#201=VERTEX_POINT('',#621);
#202=VERTEX_POINT('',#623);
#203=VERTEX_POINT('',#627);
#204=VERTEX_POINT('',#631);
#205=VERTEX_POINT('',#635);
#206=VERTEX_POINT('',#636);
#207=VERTEX_POINT('',#638);
#208=VERTEX_POINT('',#640);
#209=VERTEX_POINT('',#644);
#210=VERTEX_POINT('',#646);
#211=VERTEX_POINT('',#653);
#212=VERTEX_POINT('',#654);
#213=VERTEX_POINT('',#656);
#214=VERTEX_POINT('',#658);
#215=VERTEX_POINT('',#665);
#216=VERTEX_POINT('',#667);
#217=VERTEX_POINT('',#669);
#218=VERTEX_POINT('',#671);
#219=VERTEX_POINT('',#673);
#220=VERTEX_POINT('',#677);
#221=VERTEX_POINT('',#680);
#222=VERTEX_POINT('',#682);
#223=VERTEX_POINT('',#684);
#224=VERTEX_POINT('',#687);
#225=VERTEX_POINT('',#689);
#226=VERTEX_POINT('',#691);
#227=VERTEX_POINT('',#693);
#228=VERTEX_POINT('',#697);
#229=VERTEX_POINT('',#699);
#230=EDGE_CURVE('',#192,#193,#106,.T.);
#231=EDGE_CURVE('',#192,#194,#107,.T.);
#232=EDGE_CURVE('',#195,#194,#108,.T.);
#233=EDGE_CURVE('',#195,#193,#109,.T.);
#234=EDGE_CURVE('',#196,#196,#36,.T.);
#235=EDGE_CURVE('',#197,#197,#37,.T.);
#236=EDGE_CURVE('',#198,#198,#38,.T.);
#237=EDGE_CURVE('',#199,#199,#39,.T.);
#238=EDGE_CURVE('',#200,#200,#40,.T.);
#239=EDGE_CURVE('',#201,#201,#41,.T.);
#240=EDGE_CURVE('',#201,#202,#110,.T.);
#241=EDGE_CURVE('',#202,#202,#42,.T.);
#242=EDGE_CURVE('',#200,#203,#111,.T.);
#243=EDGE_CURVE('',#203,#203,#43,.T.);
#244=EDGE_CURVE('',#199,#204,#112,.T.);
#245=EDGE_CURVE('',#204,#204,#44,.T.);
#246=EDGE_CURVE('',#205,#206,#113,.T.);
#247=EDGE_CURVE('',#205,#207,#114,.T.);
#248=EDGE_CURVE('',#208,#207,#115,.T.);
#249=EDGE_CURVE('',#206,#208,#116,.T.);
#250=EDGE_CURVE('',#206,#209,#117,.T.);
#251=EDGE_CURVE('',#210,#208,#118,.T.);
#252=EDGE_CURVE('',#209,#210,#119,.T.);
#253=EDGE_CURVE('',#209,#195,#120,.T.);
#254=EDGE_CURVE('',#193,#210,#121,.T.);
#255=EDGE_CURVE('',#211,#212,#122,.T.);
#256=EDGE_CURVE('',#211,#213,#123,.T.);
#257=EDGE_CURVE('',#214,#213,#124,.T.);
#258=EDGE_CURVE('',#212,#214,#125,.T.);
#259=EDGE_CURVE('',#212,#205,#126,.T.);
#260=EDGE_CURVE('',#207,#214,#127,.T.);
#261=EDGE_CURVE('',#213,#215,#128,.T.);
#262=EDGE_CURVE('',#216,#215,#129,.T.);
#263=EDGE_CURVE('',#216,#217,#130,.T.);
#264=EDGE_CURVE('',#217,#218,#131,.T.);
#265=EDGE_CURVE('',#218,#219,#132,.T.);
#266=EDGE_CURVE('',#219,#192,#133,.T.);
#267=EDGE_CURVE('',#220,#211,#134,.T.);
#268=EDGE_CURVE('',#215,#220,#135,.T.);
#269=EDGE_CURVE('',#221,#221,#45,.T.);
#270=EDGE_CURVE('',#222,#222,#46,.T.);
#271=EDGE_CURVE('',#223,#223,#47,.T.);
#272=EDGE_CURVE('',#194,#224,#136,.T.);
#273=EDGE_CURVE('',#225,#224,#137,.T.);
#274=EDGE_CURVE('',#226,#225,#138,.T.);
#275=EDGE_CURVE('',#226,#227,#139,.T.);
#276=EDGE_CURVE('',#220,#227,#140,.T.);
#277=EDGE_CURVE('',#228,#228,#48,.T.);
#278=EDGE_CURVE('',#228,#229,#141,.T.);
#279=EDGE_CURVE('',#229,#229,#49,.T.);
#280=EDGE_CURVE('',#225,#218,#142,.T.);
#281=EDGE_CURVE('',#226,#217,#143,.T.);
#282=EDGE_CURVE('',#219,#224,#144,.T.);
#283=EDGE_CURVE('',#227,#216,#145,.T.);
#284=EDGE_CURVE('',#197,#223,#146,.T.);
#285=EDGE_CURVE('',#196,#222,#147,.T.);
#286=EDGE_CURVE('',#198,#221,#148,.T.);
#287=ORIENTED_EDGE('',*,*,#230,.F.);
#288=ORIENTED_EDGE('',*,*,#231,.T.);
#289=ORIENTED_EDGE('',*,*,#232,.F.);
#290=ORIENTED_EDGE('',*,*,#233,.T.);
#291=ORIENTED_EDGE('',*,*,#234,.T.);
#292=ORIENTED_EDGE('',*,*,#235,.T.);
#293=ORIENTED_EDGE('',*,*,#236,.T.);
#294=ORIENTED_EDGE('',*,*,#237,.T.);
#295=ORIENTED_EDGE('',*,*,#238,.T.);
#296=ORIENTED_EDGE('',*,*,#239,.F.);
#297=ORIENTED_EDGE('',*,*,#240,.T.);
#298=ORIENTED_EDGE('',*,*,#241,.F.);
#299=ORIENTED_EDGE('',*,*,#240,.F.);
#300=ORIENTED_EDGE('',*,*,#238,.F.);
#301=ORIENTED_EDGE('',*,*,#242,.T.);
#302=ORIENTED_EDGE('',*,*,#243,.F.);
#303=ORIENTED_EDGE('',*,*,#242,.F.);
#304=ORIENTED_EDGE('',*,*,#237,.F.);
#305=ORIENTED_EDGE('',*,*,#244,.T.);
#306=ORIENTED_EDGE('',*,*,#245,.F.);
#307=ORIENTED_EDGE('',*,*,#244,.F.);
#308=ORIENTED_EDGE('',*,*,#246,.F.);
#309=ORIENTED_EDGE('',*,*,#247,.T.);
#310=ORIENTED_EDGE('',*,*,#248,.F.);
#311=ORIENTED_EDGE('',*,*,#249,.F.);
#312=ORIENTED_EDGE('',*,*,#250,.F.);
#313=ORIENTED_EDGE('',*,*,#249,.T.);
#314=ORIENTED_EDGE('',*,*,#251,.F.);
#315=ORIENTED_EDGE('',*,*,#252,.F.);
#316=ORIENTED_EDGE('',*,*,#239,.T.);
#317=ORIENTED_EDGE('',*,*,#253,.F.);
#318=ORIENTED_EDGE('',*,*,#252,.T.);
#319=ORIENTED_EDGE('',*,*,#254,.F.);
#320=ORIENTED_EDGE('',*,*,#233,.F.);
#321=ORIENTED_EDGE('',*,*,#255,.F.);
#322=ORIENTED_EDGE('',*,*,#256,.T.);
#323=ORIENTED_EDGE('',*,*,#257,.F.);
#324=ORIENTED_EDGE('',*,*,#258,.F.);
#325=ORIENTED_EDGE('',*,*,#259,.F.);
#326=ORIENTED_EDGE('',*,*,#258,.T.);
#327=ORIENTED_EDGE('',*,*,#260,.F.);
#328=ORIENTED_EDGE('',*,*,#247,.F.);
#329=ORIENTED_EDGE('',*,*,#241,.T.);
#330=ORIENTED_EDGE('',*,*,#261,.T.);
#331=ORIENTED_EDGE('',*,*,#262,.F.);
#332=ORIENTED_EDGE('',*,*,#263,.T.);
#333=ORIENTED_EDGE('',*,*,#264,.T.);
#334=ORIENTED_EDGE('',*,*,#265,.T.);
#335=ORIENTED_EDGE('',*,*,#266,.T.);
#336=ORIENTED_EDGE('',*,*,#230,.T.);
#337=ORIENTED_EDGE('',*,*,#254,.T.);
#338=ORIENTED_EDGE('',*,*,#251,.T.);
#339=ORIENTED_EDGE('',*,*,#248,.T.);
#340=ORIENTED_EDGE('',*,*,#260,.T.);
#341=ORIENTED_EDGE('',*,*,#257,.T.);
#342=ORIENTED_EDGE('',*,*,#261,.F.);
#343=ORIENTED_EDGE('',*,*,#256,.F.);
#344=ORIENTED_EDGE('',*,*,#267,.F.);
#345=ORIENTED_EDGE('',*,*,#268,.F.);
#346=ORIENTED_EDGE('',*,*,#269,.T.);
#347=ORIENTED_EDGE('',*,*,#243,.T.);
#348=ORIENTED_EDGE('',*,*,#245,.T.);
#349=ORIENTED_EDGE('',*,*,#270,.T.);
#350=ORIENTED_EDGE('',*,*,#271,.T.);
#351=ORIENTED_EDGE('',*,*,#232,.T.);
#352=ORIENTED_EDGE('',*,*,#272,.T.);
#353=ORIENTED_EDGE('',*,*,#273,.F.);
#354=ORIENTED_EDGE('',*,*,#274,.F.);
#355=ORIENTED_EDGE('',*,*,#275,.T.);
#356=ORIENTED_EDGE('',*,*,#276,.F.);
#357=ORIENTED_EDGE('',*,*,#267,.T.);
#358=ORIENTED_EDGE('',*,*,#255,.T.);
#359=ORIENTED_EDGE('',*,*,#259,.T.);
#360=ORIENTED_EDGE('',*,*,#246,.T.);
#361=ORIENTED_EDGE('',*,*,#250,.T.);
#362=ORIENTED_EDGE('',*,*,#253,.T.);
#363=ORIENTED_EDGE('',*,*,#277,.F.);
#364=ORIENTED_EDGE('',*,*,#278,.T.);
#365=ORIENTED_EDGE('',*,*,#279,.F.);
#366=ORIENTED_EDGE('',*,*,#278,.F.);
#367=ORIENTED_EDGE('',*,*,#274,.T.);
#368=ORIENTED_EDGE('',*,*,#280,.T.);
#369=ORIENTED_EDGE('',*,*,#264,.F.);
#370=ORIENTED_EDGE('',*,*,#281,.F.);
#371=ORIENTED_EDGE('',*,*,#273,.T.);
#372=ORIENTED_EDGE('',*,*,#282,.F.);
#373=ORIENTED_EDGE('',*,*,#265,.F.);
#374=ORIENTED_EDGE('',*,*,#280,.F.);
#375=ORIENTED_EDGE('',*,*,#277,.T.);
#376=ORIENTED_EDGE('',*,*,#283,.F.);
#377=ORIENTED_EDGE('',*,*,#275,.F.);
#378=ORIENTED_EDGE('',*,*,#281,.T.);
#379=ORIENTED_EDGE('',*,*,#263,.F.);
#380=ORIENTED_EDGE('',*,*,#279,.T.);
#381=ORIENTED_EDGE('',*,*,#282,.T.);
#382=ORIENTED_EDGE('',*,*,#272,.F.);
#383=ORIENTED_EDGE('',*,*,#231,.F.);
#384=ORIENTED_EDGE('',*,*,#266,.F.);
#385=ORIENTED_EDGE('',*,*,#235,.F.);
#386=ORIENTED_EDGE('',*,*,#284,.T.);
#387=ORIENTED_EDGE('',*,*,#271,.F.);
#388=ORIENTED_EDGE('',*,*,#284,.F.);
#389=ORIENTED_EDGE('',*,*,#234,.F.);
#390=ORIENTED_EDGE('',*,*,#285,.T.);
#391=ORIENTED_EDGE('',*,*,#270,.F.);
#392=ORIENTED_EDGE('',*,*,#285,.F.);
#393=ORIENTED_EDGE('',*,*,#236,.F.);
#394=ORIENTED_EDGE('',*,*,#286,.T.);
#395=ORIENTED_EDGE('',*,*,#269,.F.);
#396=ORIENTED_EDGE('',*,*,#286,.F.);
#397=ORIENTED_EDGE('',*,*,#283,.T.);
#398=ORIENTED_EDGE('',*,*,#262,.T.);
#399=ORIENTED_EDGE('',*,*,#268,.T.);
#400=ORIENTED_EDGE('',*,*,#276,.T.);
#401=PLANE('',#450);
#402=PLANE('',#463);
#403=PLANE('',#464);
#404=PLANE('',#465);
#405=PLANE('',#466);
#406=PLANE('',#467);
#407=PLANE('',#468);
#408=PLANE('',#469);
#409=PLANE('',#473);
#410=PLANE('',#477);
#411=PLANE('',#478);
#412=PLANE('',#479);
#413=PLANE('',#480);
#414=PLANE('',#484);
#415=ADVANCED_FACE('',(#50,#22,#23,#24,#25,#26),#401,.T.);
#416=ADVANCED_FACE('',(#51),#15,.F.);
#417=ADVANCED_FACE('',(#52),#16,.F.);
#418=ADVANCED_FACE('',(#53),#17,.F.);
#419=ADVANCED_FACE('',(#54),#402,.T.);
#420=ADVANCED_FACE('',(#55,#27),#403,.T.);
#421=ADVANCED_FACE('',(#56),#404,.T.);
#422=ADVANCED_FACE('',(#57),#405,.T.);
#423=ADVANCED_FACE('',(#58,#28),#406,.T.);
#424=ADVANCED_FACE('',(#59),#407,.F.);
#425=ADVANCED_FACE('',(#60,#29,#30,#31,#32,#33),#408,.T.);
#426=ADVANCED_FACE('',(#61),#409,.T.);
#427=ADVANCED_FACE('',(#62),#18,.F.);
#428=ADVANCED_FACE('',(#63),#410,.T.);
#429=ADVANCED_FACE('',(#64,#34),#411,.T.);
#430=ADVANCED_FACE('',(#65,#35),#412,.F.);
#431=ADVANCED_FACE('',(#66),#413,.T.);
#432=ADVANCED_FACE('',(#67),#19,.F.);
#433=ADVANCED_FACE('',(#68),#20,.F.);
#434=ADVANCED_FACE('',(#69),#21,.F.);
#435=ADVANCED_FACE('',(#70),#414,.T.);
#436=CLOSED_SHELL('',(#415,#416,#417,#418,#419,#420,#421,#422,#423,#424,
#425,#426,#427,#428,#429,#430,#431,#432,#433,#434,#435));
#437=DERIVED_UNIT_ELEMENT(#439,1.);
#438=DERIVED_UNIT_ELEMENT(#722,-3.);
#439=(
MASS_UNIT()
NAMED_UNIT(*)
SI_UNIT(.KILO.,.GRAM.)
);
#440=DERIVED_UNIT((#437,#438));
#441=MEASURE_REPRESENTATION_ITEM('density measure',
POSITIVE_RATIO_MEASURE(7850.),#440);
#442=PROPERTY_DEFINITION_REPRESENTATION(#447,#444);
#443=PROPERTY_DEFINITION_REPRESENTATION(#448,#445);
#444=REPRESENTATION('material name',(#446),#719);
#445=REPRESENTATION('density',(#441),#719);
#446=DESCRIPTIVE_REPRESENTATION_ITEM('Steel','Steel');
#447=PROPERTY_DEFINITION('material property','material name',#729);
#448=PROPERTY_DEFINITION('material property','density of part',#729);
#449=AXIS2_PLACEMENT_3D('',#600,#485,#486);
#450=AXIS2_PLACEMENT_3D('',#601,#487,#488);
#451=AXIS2_PLACEMENT_3D('',#611,#493,#494);
#452=AXIS2_PLACEMENT_3D('',#613,#495,#496);
#453=AXIS2_PLACEMENT_3D('',#615,#497,#498);
#454=AXIS2_PLACEMENT_3D('',#617,#499,#500);
#455=AXIS2_PLACEMENT_3D('',#619,#501,#502);
#456=AXIS2_PLACEMENT_3D('',#620,#503,#504);
#457=AXIS2_PLACEMENT_3D('',#622,#505,#506);
#458=AXIS2_PLACEMENT_3D('',#625,#508,#509);
#459=AXIS2_PLACEMENT_3D('',#626,#510,#511);
#460=AXIS2_PLACEMENT_3D('',#629,#513,#514);
#461=AXIS2_PLACEMENT_3D('',#630,#515,#516);
#462=AXIS2_PLACEMENT_3D('',#633,#518,#519);
#463=AXIS2_PLACEMENT_3D('',#634,#520,#521);
#464=AXIS2_PLACEMENT_3D('',#643,#526,#527);
#465=AXIS2_PLACEMENT_3D('',#649,#531,#532);
#466=AXIS2_PLACEMENT_3D('',#652,#535,#536);
#467=AXIS2_PLACEMENT_3D('',#661,#541,#542);
#468=AXIS2_PLACEMENT_3D('',#664,#545,#546);
#469=AXIS2_PLACEMENT_3D('',#676,#553,#554);
#470=AXIS2_PLACEMENT_3D('',#681,#557,#558);
#471=AXIS2_PLACEMENT_3D('',#683,#559,#560);
#472=AXIS2_PLACEMENT_3D('',#685,#561,#562);
#473=AXIS2_PLACEMENT_3D('',#686,#563,#564);
#474=AXIS2_PLACEMENT_3D('',#696,#570,#571);
#475=AXIS2_PLACEMENT_3D('',#698,#572,#573);
#476=AXIS2_PLACEMENT_3D('',#701,#575,#576);
#477=AXIS2_PLACEMENT_3D('',#702,#577,#578);
#478=AXIS2_PLACEMENT_3D('',#705,#581,#582);
#479=AXIS2_PLACEMENT_3D('',#707,#584,#585);
#480=AXIS2_PLACEMENT_3D('',#709,#587,#588);
#481=AXIS2_PLACEMENT_3D('',#710,#589,#590);
#482=AXIS2_PLACEMENT_3D('',#712,#592,#593);
#483=AXIS2_PLACEMENT_3D('',#714,#595,#596);
#484=AXIS2_PLACEMENT_3D('',#716,#598,#599);
#485=DIRECTION('axis',(0.,0.,1.));
#486=DIRECTION('refdir',(1.,0.,0.));
#487=DIRECTION('center_axis',(0.,0.,1.));
#488=DIRECTION('ref_axis',(0.,-1.,0.));
#489=DIRECTION('',(0.,1.,0.));
#490=DIRECTION('',(1.,0.,0.));
#491=DIRECTION('',(0.,-1.,0.));
#492=DIRECTION('',(-1.,0.,0.));
#493=DIRECTION('center_axis',(0.,0.,-1.));
#494=DIRECTION('ref_axis',(-1.,0.,0.));
#495=DIRECTION('center_axis',(0.,0.,-1.));
#496=DIRECTION('ref_axis',(-1.,0.,0.));
#497=DIRECTION('center_axis',(0.,0.,-1.));
#498=DIRECTION('ref_axis',(-1.,0.,0.));
#499=DIRECTION('center_axis',(0.,0.,-1.));
#500=DIRECTION('ref_axis',(-1.,0.,0.));
#501=DIRECTION('center_axis',(0.,0.,-1.));
#502=DIRECTION('ref_axis',(-1.,0.,0.));
#503=DIRECTION('center_axis',(0.,0.,-1.));
#504=DIRECTION('ref_axis',(-1.,0.,0.));
#505=DIRECTION('center_axis',(0.,0.,-1.));
#506=DIRECTION('ref_axis',(-1.,0.,0.));
#507=DIRECTION('',(0.,0.,-1.));
#508=DIRECTION('center_axis',(0.,0.,1.));
#509=DIRECTION('ref_axis',(-1.,0.,0.));
#510=DIRECTION('center_axis',(0.,0.,-1.));
#511=DIRECTION('ref_axis',(-1.,0.,0.));
#512=DIRECTION('',(0.,0.,-1.));
#513=DIRECTION('center_axis',(0.,0.,1.));
#514=DIRECTION('ref_axis',(-1.,0.,0.));
#515=DIRECTION('center_axis',(0.,0.,-1.));
#516=DIRECTION('ref_axis',(-1.,0.,0.));
#517=DIRECTION('',(0.,0.,-1.));
#518=DIRECTION('center_axis',(0.,0.,1.));
#519=DIRECTION('ref_axis',(-1.,0.,0.));
#520=DIRECTION('center_axis',(0.,1.,0.));
#521=DIRECTION('ref_axis',(0.,0.,-1.));
#522=DIRECTION('',(0.,0.,1.));
#523=DIRECTION('',(-1.,0.,0.));
#524=DIRECTION('',(0.,0.,-1.));
#525=DIRECTION('',(-1.,0.,0.));
#526=DIRECTION('center_axis',(0.,0.,1.));
#527=DIRECTION('ref_axis',(0.,1.,0.));
#528=DIRECTION('',(0.,-1.,0.));
#529=DIRECTION('',(0.,1.,0.));
#530=DIRECTION('',(-1.,0.,0.));
#531=DIRECTION('center_axis',(0.,1.,0.));
#532=DIRECTION('ref_axis',(0.,0.,-1.));
#533=DIRECTION('',(0.,0.,1.));
#534=DIRECTION('',(0.,0.,-1.));
#535=DIRECTION('center_axis',(0.,-1.,0.));
#536=DIRECTION('ref_axis',(0.,0.,1.));
#537=DIRECTION('',(0.,0.,-1.));
#538=DIRECTION('',(-1.,0.,0.));
#539=DIRECTION('',(0.,0.,1.));
#540=DIRECTION('',(-1.,0.,0.));
#541=DIRECTION('center_axis',(0.,0.,-1.));
#542=DIRECTION('ref_axis',(0.,-1.,0.));
#543=DIRECTION('',(0.,1.,0.));
#544=DIRECTION('',(0.,-1.,0.));
#545=DIRECTION('center_axis',(1.,0.,0.));
#546=DIRECTION('ref_axis',(0.,1.,0.));
#547=DIRECTION('',(0.,-1.,0.));
#548=DIRECTION('',(0.,0.,1.));
#549=DIRECTION('',(0.,-1.,0.));
#550=DIRECTION('',(0.,0.,1.));
#551=DIRECTION('',(0.,1.,0.));
#552=DIRECTION('',(0.,0.,1.));
#553=DIRECTION('center_axis',(0.,0.,-1.));
#554=DIRECTION('ref_axis',(0.,1.,0.));
#555=DIRECTION('',(0.,1.,0.));
#556=DIRECTION('',(1.,0.,0.));
#557=DIRECTION('center_axis',(0.,0.,1.));
#558=DIRECTION('ref_axis',(-1.,0.,0.));
#559=DIRECTION('center_axis',(0.,0.,1.));
#560=DIRECTION('ref_axis',(-1.,0.,0.));
#561=DIRECTION('center_axis',(0.,0.,1.));
#562=DIRECTION('ref_axis',(-1.,0.,0.));
#563=DIRECTION('center_axis',(1.,0.,0.));
#564=DIRECTION('ref_axis',(0.,0.,-1.));
#565=DIRECTION('',(0.,0.,-1.));
#566=DIRECTION('',(0.,1.,0.));
#567=DIRECTION('',(0.,0.,1.));
#568=DIRECTION('',(0.,1.,0.));
#569=DIRECTION('',(0.,0.,-1.));
#570=DIRECTION('center_axis',(0.,0.,-1.));
#571=DIRECTION('ref_axis',(-1.,0.,0.));
#572=DIRECTION('center_axis',(0.,0.,-1.));
#573=DIRECTION('ref_axis',(-1.,0.,0.));
#574=DIRECTION('',(0.,0.,-1.));
#575=DIRECTION('center_axis',(0.,0.,1.));
#576=DIRECTION('ref_axis',(-1.,0.,0.));
#577=DIRECTION('center_axis',(0.,-1.,0.));
#578=DIRECTION('ref_axis',(0.,0.,1.));
#579=DIRECTION('',(-1.,0.,0.));
#580=DIRECTION('',(-1.,0.,0.));
#581=DIRECTION('center_axis',(0.,0.,1.));
#582=DIRECTION('ref_axis',(0.,1.,0.));
#583=DIRECTION('',(1.,0.,0.));
#584=DIRECTION('center_axis',(0.,0.,1.));
#585=DIRECTION('ref_axis',(0.,1.,0.));
#586=DIRECTION('',(-1.,0.,0.));
#587=DIRECTION('center_axis',(0.,-1.,0.));
#588=DIRECTION('ref_axis',(0.,0.,-1.));
#589=DIRECTION('center_axis',(0.,0.,-1.));
#590=DIRECTION('ref_axis',(-1.,0.,0.));
#591=DIRECTION('',(0.,0.,-1.));
#592=DIRECTION('center_axis',(0.,0.,-1.));
#593=DIRECTION('ref_axis',(-1.,0.,0.));
#594=DIRECTION('',(0.,0.,-1.));
#595=DIRECTION('center_axis',(0.,0.,-1.));
#596=DIRECTION('ref_axis',(-1.,0.,0.));
#597=DIRECTION('',(0.,0.,-1.));
#598=DIRECTION('center_axis',(0.,1.,0.));
#599=DIRECTION('ref_axis',(0.,0.,1.));
#600=CARTESIAN_POINT('',(0.,0.,0.));
#601=CARTESIAN_POINT('Origin',(0.,60.,30.));
#602=CARTESIAN_POINT('',(0.,0.,30.));
#603=CARTESIAN_POINT('',(0.,70.,30.));
#604=CARTESIAN_POINT('',(0.,0.,30.));
#605=CARTESIAN_POINT('',(50.,0.,30.));
#606=CARTESIAN_POINT('',(0.,0.,30.));
#607=CARTESIAN_POINT('',(50.,70.,30.));
#608=CARTESIAN_POINT('',(50.,0.,30.));
#609=CARTESIAN_POINT('',(50.,70.,30.));
#610=CARTESIAN_POINT('',(11.25,19.5,30.));
#611=CARTESIAN_POINT('Origin',(9.5,19.5,30.));
#612=CARTESIAN_POINT('',(42.25,19.5,30.));
#613=CARTESIAN_POINT('Origin',(40.5,19.5,30.));
#614=CARTESIAN_POINT('',(36.05,35.,30.));
#615=CARTESIAN_POINT('Origin',(25.,35.,30.));
#616=CARTESIAN_POINT('',(11.25,50.5,30.));
#617=CARTESIAN_POINT('Origin',(9.5,50.5,30.));
#618=CARTESIAN_POINT('',(42.25,50.5,30.));
#619=CARTESIAN_POINT('Origin',(40.5,50.5,30.));
#620=CARTESIAN_POINT('Origin',(25.,80.,-9.50000029057264));
#621=CARTESIAN_POINT('',(27.75,80.,-9.50000029057264));
#622=CARTESIAN_POINT('Origin',(25.,80.,-9.50000029057264));
#623=CARTESIAN_POINT('',(27.75,80.,-19.5000002905726));
#624=CARTESIAN_POINT('',(27.75,80.,-9.50000029057264));
#625=CARTESIAN_POINT('Origin',(25.,80.,-19.5000002905726));
#626=CARTESIAN_POINT('Origin',(40.5,50.5,30.));
#627=CARTESIAN_POINT('',(42.25,50.5,20.));
#628=CARTESIAN_POINT('',(42.25,50.5,30.));
#629=CARTESIAN_POINT('Origin',(40.5,50.5,20.));
#630=CARTESIAN_POINT('Origin',(9.5,50.5,30.));
#631=CARTESIAN_POINT('',(11.25,50.5,20.));
#632=CARTESIAN_POINT('',(11.25,50.5,30.));
#633=CARTESIAN_POINT('Origin',(9.5,50.5,20.));
#634=CARTESIAN_POINT('Origin',(50.,90.,-9.50000029057264));
#635=CARTESIAN_POINT('',(50.,90.,-19.5000002905726));
#636=CARTESIAN_POINT('',(50.,90.,-9.50000029057264));
#637=CARTESIAN_POINT('',(50.,90.,-19.5000002905726));
#638=CARTESIAN_POINT('',(0.,90.,-19.5000002905726));
#639=CARTESIAN_POINT('',(50.,90.,-19.5000002905726));
#640=CARTESIAN_POINT('',(0.,90.,-9.50000029057264));
#641=CARTESIAN_POINT('',(0.,90.,-19.5000002905726));
#642=CARTESIAN_POINT('',(50.,90.,-9.50000029057264));
#643=CARTESIAN_POINT('Origin',(50.,70.,-9.50000029057264));
#644=CARTESIAN_POINT('',(50.,70.,-9.50000029057264));
#645=CARTESIAN_POINT('',(50.,90.,-9.50000029057264));
#646=CARTESIAN_POINT('',(0.,70.,-9.50000029057264));
#647=CARTESIAN_POINT('',(0.,90.,-9.50000029057264));
#648=CARTESIAN_POINT('',(50.,70.,-9.50000029057264));
#649=CARTESIAN_POINT('Origin',(50.,70.,30.));
#650=CARTESIAN_POINT('',(50.,70.,-19.5000002905726));
#651=CARTESIAN_POINT('',(0.,70.,-19.5000002905726));
#652=CARTESIAN_POINT('Origin',(50.,60.,-19.5000002905726));
#653=CARTESIAN_POINT('',(50.,60.,20.));
#654=CARTESIAN_POINT('',(50.,60.,-19.5000002905726));
#655=CARTESIAN_POINT('',(50.,60.,30.));
#656=CARTESIAN_POINT('',(0.,60.,20.));
#657=CARTESIAN_POINT('',(50.,60.,20.));
#658=CARTESIAN_POINT('',(0.,60.,-19.5000002905726));
#659=CARTESIAN_POINT('',(0.,60.,30.));
#660=CARTESIAN_POINT('',(50.,60.,-19.5000002905726));
#661=CARTESIAN_POINT('Origin',(50.,90.,-19.5000002905726));
#662=CARTESIAN_POINT('',(50.,60.,-19.5000002905726));
#663=CARTESIAN_POINT('',(0.,60.,-19.5000002905726));
#664=CARTESIAN_POINT('Origin',(0.,30.,15.));
#665=CARTESIAN_POINT('',(0.,10.,20.));
#666=CARTESIAN_POINT('',(0.,60.,20.));
#667=CARTESIAN_POINT('',(0.,10.,-19.5000002905726));
#668=CARTESIAN_POINT('',(0.,10.,-20.));
#669=CARTESIAN_POINT('',(0.,-20.,-19.5000002905726));
#670=CARTESIAN_POINT('',(0.,0.,-19.5000002905726));
#671=CARTESIAN_POINT('',(0.,-20.,-9.50000029057264));
#672=CARTESIAN_POINT('',(0.,-20.,-19.5000002905726));
#673=CARTESIAN_POINT('',(0.,0.,-9.50000029057264));
#674=CARTESIAN_POINT('',(0.,-20.,-9.50000029057264));
#675=CARTESIAN_POINT('',(0.,0.,20.));
#676=CARTESIAN_POINT('Origin',(0.,10.,20.));
#677=CARTESIAN_POINT('',(50.,10.,20.));
#678=CARTESIAN_POINT('',(50.,60.,20.));
#679=CARTESIAN_POINT('',(0.,10.,20.));
#680=CARTESIAN_POINT('',(36.05,35.,20.));
#681=CARTESIAN_POINT('Origin',(25.,35.,20.));
#682=CARTESIAN_POINT('',(11.25,19.5,20.));
#683=CARTESIAN_POINT('Origin',(9.5,19.5,20.));
#684=CARTESIAN_POINT('',(42.25,19.5,20.));
#685=CARTESIAN_POINT('Origin',(40.5,19.5,20.));
#686=CARTESIAN_POINT('Origin',(50.,30.,15.));
#687=CARTESIAN_POINT('',(50.,0.,-9.50000029057264));
#688=CARTESIAN_POINT('',(50.,0.,20.));
#689=CARTESIAN_POINT('',(50.,-20.,-9.50000029057264));
#690=CARTESIAN_POINT('',(50.,-20.,-9.50000029057264));
#691=CARTESIAN_POINT('',(50.,-20.,-19.5000002905726));
#692=CARTESIAN_POINT('',(50.,-20.,-19.5000002905726));
#693=CARTESIAN_POINT('',(50.,10.,-19.5000002905726));
#694=CARTESIAN_POINT('',(50.,13.9999999850988,-19.5000002905726));
#695=CARTESIAN_POINT('',(50.0000007450581,10.,0.));
#696=CARTESIAN_POINT('Origin',(25.000000372529,-10.0000001490116,-9.50000029057264));
#697=CARTESIAN_POINT('',(27.750000372529,-10.0000001490116,-9.50000029057264));
#698=CARTESIAN_POINT('Origin',(25.000000372529,-10.0000001490116,-9.50000029057264));
#699=CARTESIAN_POINT('',(27.750000372529,-10.0000001490116,-19.5000002905726));
#700=CARTESIAN_POINT('',(27.750000372529,-10.0000001490116,-9.50000029057264));
#701=CARTESIAN_POINT('Origin',(25.000000372529,-10.0000001490116,-19.5000002905726));
#702=CARTESIAN_POINT('Origin',(50.,-20.,-19.5000002905726));
#703=CARTESIAN_POINT('',(50.,-20.,-9.50000029057264));
#704=CARTESIAN_POINT('',(50.,-20.,-19.5000002905726));
#705=CARTESIAN_POINT('Origin',(50.,-20.,-9.50000029057264));
#706=CARTESIAN_POINT('',(25.,0.,-9.50000029057264));
#707=CARTESIAN_POINT('Origin',(50.,-2.00000002980232,-19.5000002905726));
#708=CARTESIAN_POINT('',(25.,10.,-19.5000002905726));
#709=CARTESIAN_POINT('Origin',(0.,0.,30.));
#710=CARTESIAN_POINT('Origin',(40.5,19.5,30.));
#711=CARTESIAN_POINT('',(42.25,19.5,30.));
#712=CARTESIAN_POINT('Origin',(9.5,19.5,30.));
#713=CARTESIAN_POINT('',(11.25,19.5,30.));
#714=CARTESIAN_POINT('Origin',(25.,35.,30.));
#715=CARTESIAN_POINT('',(36.05,35.,30.));
#716=CARTESIAN_POINT('Origin',(0.,10.,0.));
#717=UNCERTAINTY_MEASURE_WITH_UNIT(LENGTH_MEASURE(0.01),#721,
'DISTANCE_ACCURACY_VALUE',
'Maximum model space distance between geometric entities at asserted c
onnectivities');
#718=UNCERTAINTY_MEASURE_WITH_UNIT(LENGTH_MEASURE(0.01),#721,
'DISTANCE_ACCURACY_VALUE',
'Maximum model space distance between geometric entities at asserted c
onnectivities');
#719=(
GEOMETRIC_REPRESENTATION_CONTEXT(3)
GLOBAL_UNCERTAINTY_ASSIGNED_CONTEXT((#717))
GLOBAL_UNIT_ASSIGNED_CONTEXT((#721,#723,#724))
REPRESENTATION_CONTEXT('','3D')
);
#720=(
GEOMETRIC_REPRESENTATION_CONTEXT(3)
GLOBAL_UNCERTAINTY_ASSIGNED_CONTEXT((#718))
GLOBAL_UNIT_ASSIGNED_CONTEXT((#721,#723,#724))
REPRESENTATION_CONTEXT('','3D')
);
#721=(
LENGTH_UNIT()
NAMED_UNIT(*)
SI_UNIT(.MILLI.,.METRE.)
);
#722=(
LENGTH_UNIT()
NAMED_UNIT(*)
SI_UNIT($,.METRE.)
);
#723=(
NAMED_UNIT(*)
PLANE_ANGLE_UNIT()
SI_UNIT($,.RADIAN.)
);
#724=(
NAMED_UNIT(*)
SI_UNIT($,.STERADIAN.)
SOLID_ANGLE_UNIT()
);
#725=SHAPE_DEFINITION_REPRESENTATION(#726,#727);
#726=PRODUCT_DEFINITION_SHAPE('',$,#729);
#727=SHAPE_REPRESENTATION('',(#449),#719);
#728=PRODUCT_DEFINITION_CONTEXT('part definition',#733,'design');
#729=PRODUCT_DEFINITION('2025-12-24-13-59-38-994',
'Z stepper bracket print file',#730,#728);
#730=PRODUCT_DEFINITION_FORMATION('',$,#735);
#731=PRODUCT_RELATED_PRODUCT_CATEGORY('Z stepper bracket print file',
'Z stepper bracket print file',(#735));
#732=APPLICATION_PROTOCOL_DEFINITION('international standard',
'automotive_design',2009,#733);
#733=APPLICATION_CONTEXT(
'Core Data for Automotive Mechanical Design Process');
#734=PRODUCT_CONTEXT('part definition',#733,'mechanical');
#735=PRODUCT('2025-12-24-13-59-38-994','Z stepper bracket print file',$,
(#734));
#736=PRESENTATION_STYLE_ASSIGNMENT((#737));
#737=SURFACE_STYLE_USAGE(.BOTH.,#738);
#738=SURFACE_SIDE_STYLE('',(#739));
#739=SURFACE_STYLE_FILL_AREA(#740);
#740=FILL_AREA_STYLE('Steel - Satin',(#741));
#741=FILL_AREA_STYLE_COLOUR('Steel - Satin',#742);
#742=COLOUR_RGB('Steel - Satin',0.627450980392157,0.627450980392157,0.627450980392157);
ENDSEC;
END-ISO-10303-21;
