ISO-10303-21;
HEADER;
/* Generated by software containing ST-Developer
 * from STEP Tools, Inc. (www.steptools.com) 
 */

FILE_DESCRIPTION(
/* description */ (''),
/* implementation_level */ '2;1');

FILE_NAME(
/* name */ 'Nema 17 motor parallel mount.step',
/* time_stamp */ '2026-02-18T14:44:36+11:00',
/* author */ (''),
/* organization */ (''),
/* preprocessor_version */ 'ST-DEVELOPER v20.1',
/* originating_system */ 'Autodesk Translation Framework v14.24.0.0',
/* authorisation */ '');

FILE_SCHEMA (('AUTOMOTIVE_DESIGN { 1 0 10303 214 3 1 1 }'));
ENDSEC;

DATA;
#10=MECHANICAL_DESIGN_GEOMETRIC_PRESENTATION_REPRESENTATION('',(#13),#588);
#11=SHAPE_REPRESENTATION_RELATIONSHIP('SRR','None',#595,#12);
#12=ADVANCED_BREP_SHAPE_REPRESENTATION('',(#14),#587);
#13=STYLED_ITEM('',(#604),#14);
#14=MANIFOLD_SOLID_BREP('Body1',#352);
#15=FACE_BOUND('',#72,.T.);
#16=FACE_BOUND('',#73,.T.);
#17=FACE_BOUND('',#74,.T.);
#18=FACE_BOUND('',#75,.T.);
#19=FACE_BOUND('',#76,.T.);
#20=FACE_BOUND('',#77,.T.);
#21=FACE_BOUND('',#78,.T.);
#22=FACE_BOUND('',#80,.T.);
#23=FACE_BOUND('',#81,.T.);
#24=FACE_BOUND('',#82,.T.);
#25=FACE_BOUND('',#83,.T.);
#26=FACE_BOUND('',#84,.T.);
#27=FACE_BOUND('',#85,.T.);
#28=FACE_BOUND('',#86,.T.);
#29=PLANE('',#387);
#30=PLANE('',#388);
#31=PLANE('',#389);
#32=PLANE('',#390);
#33=PLANE('',#391);
#34=PLANE('',#392);
#35=PLANE('',#393);
#36=PLANE('',#394);
#37=PLANE('',#395);
#38=PLANE('',#396);
#39=FACE_OUTER_BOUND('',#56,.T.);
#40=FACE_OUTER_BOUND('',#57,.T.);
#41=FACE_OUTER_BOUND('',#58,.T.);
#42=FACE_OUTER_BOUND('',#59,.T.);
#43=FACE_OUTER_BOUND('',#60,.T.);
#44=FACE_OUTER_BOUND('',#61,.T.);
#45=FACE_OUTER_BOUND('',#62,.T.);
#46=FACE_OUTER_BOUND('',#63,.T.);
#47=FACE_OUTER_BOUND('',#64,.T.);
#48=FACE_OUTER_BOUND('',#65,.T.);
#49=FACE_OUTER_BOUND('',#66,.T.);
#50=FACE_OUTER_BOUND('',#67,.T.);
#51=FACE_OUTER_BOUND('',#68,.T.);
#52=FACE_OUTER_BOUND('',#69,.T.);
#53=FACE_OUTER_BOUND('',#70,.T.);
#54=FACE_OUTER_BOUND('',#71,.T.);
#55=FACE_OUTER_BOUND('',#79,.T.);
#56=EDGE_LOOP('',(#238,#239,#240,#241));
#57=EDGE_LOOP('',(#242,#243,#244,#245));
#58=EDGE_LOOP('',(#246,#247,#248,#249));
#59=EDGE_LOOP('',(#250,#251,#252,#253));
#60=EDGE_LOOP('',(#254,#255,#256,#257));
#61=EDGE_LOOP('',(#258,#259,#260,#261));
#62=EDGE_LOOP('',(#262,#263,#264,#265));
#63=EDGE_LOOP('',(#266,#267,#268,#269));
#64=EDGE_LOOP('',(#270,#271,#272,#273));
#65=EDGE_LOOP('',(#274,#275,#276,#277));
#66=EDGE_LOOP('',(#278,#279,#280,#281));
#67=EDGE_LOOP('',(#282,#283,#284,#285));
#68=EDGE_LOOP('',(#286,#287,#288,#289));
#69=EDGE_LOOP('',(#290,#291,#292,#293));
#70=EDGE_LOOP('',(#294,#295,#296,#297));
#71=EDGE_LOOP('',(#298,#299,#300,#301,#302,#303,#304,#305));
#72=EDGE_LOOP('',(#306));
#73=EDGE_LOOP('',(#307));
#74=EDGE_LOOP('',(#308));
#75=EDGE_LOOP('',(#309));
#76=EDGE_LOOP('',(#310));
#77=EDGE_LOOP('',(#311));
#78=EDGE_LOOP('',(#312));
#79=EDGE_LOOP('',(#313,#314,#315,#316,#317,#318,#319,#320));
#80=EDGE_LOOP('',(#321));
#81=EDGE_LOOP('',(#322));
#82=EDGE_LOOP('',(#323));
#83=EDGE_LOOP('',(#324));
#84=EDGE_LOOP('',(#325));
#85=EDGE_LOOP('',(#326));
#86=EDGE_LOOP('',(#327));
#87=LINE('',#497,#118);
#88=LINE('',#503,#119);
#89=LINE('',#509,#120);
#90=LINE('',#515,#121);
#91=LINE('',#521,#122);
#92=LINE('',#527,#123);
#93=LINE('',#533,#124);
#94=LINE('',#538,#125);
#95=LINE('',#540,#126);
#96=LINE('',#542,#127);
#97=LINE('',#543,#128);
#98=LINE('',#547,#129);
#99=LINE('',#549,#130);
#100=LINE('',#551,#131);
#101=LINE('',#552,#132);
#102=LINE('',#555,#133);
#103=LINE('',#557,#134);
#104=LINE('',#558,#135);
#105=LINE('',#561,#136);
#106=LINE('',#563,#137);
#107=LINE('',#564,#138);
#108=LINE('',#567,#139);
#109=LINE('',#569,#140);
#110=LINE('',#570,#141);
#111=LINE('',#572,#142);
#112=LINE('',#573,#143);
#113=LINE('',#576,#144);
#114=LINE('',#578,#145);
#115=LINE('',#579,#146);
#116=LINE('',#581,#147);
#117=LINE('',#582,#148);
#118=VECTOR('',#403,9.99999999999999);
#119=VECTOR('',#410,1.49999999999999);
#120=VECTOR('',#417,2.74999999999999);
#121=VECTOR('',#424,1.50000000000001);
#122=VECTOR('',#431,1.49999999999999);
#123=VECTOR('',#438,2.74999999999999);
#124=VECTOR('',#445,1.5);
#125=VECTOR('',#450,10.);
#126=VECTOR('',#451,10.);
#127=VECTOR('',#452,10.);
#128=VECTOR('',#453,10.);
#129=VECTOR('',#456,10.);
#130=VECTOR('',#457,10.);
#131=VECTOR('',#458,10.);
#132=VECTOR('',#459,10.);
#133=VECTOR('',#462,10.);
#134=VECTOR('',#463,10.);
#135=VECTOR('',#464,10.);
#136=VECTOR('',#467,10.);
#137=VECTOR('',#468,10.);
#138=VECTOR('',#469,10.);
#139=VECTOR('',#472,10.);
#140=VECTOR('',#473,10.);
#141=VECTOR('',#474,10.);
#142=VECTOR('',#477,10.);
#143=VECTOR('',#478,10.);
#144=VECTOR('',#481,10.);
#145=VECTOR('',#482,10.);
#146=VECTOR('',#483,10.);
#147=VECTOR('',#486,10.);
#148=VECTOR('',#487,10.);
#149=CIRCLE('',#367,9.99999999999999);
#150=CIRCLE('',#368,9.99999999999999);
#151=CIRCLE('',#370,1.49999999999999);
#152=CIRCLE('',#371,1.49999999999999);
#153=CIRCLE('',#373,2.74999999999999);
#154=CIRCLE('',#374,2.74999999999999);
#155=CIRCLE('',#376,1.50000000000001);
#156=CIRCLE('',#377,1.50000000000001);
#157=CIRCLE('',#379,1.49999999999999);
#158=CIRCLE('',#380,1.49999999999999);
#159=CIRCLE('',#382,2.74999999999999);
#160=CIRCLE('',#383,2.74999999999999);
#161=CIRCLE('',#385,1.5);
#162=CIRCLE('',#386,1.5);
#163=VERTEX_POINT('',#494);
#164=VERTEX_POINT('',#496);
#165=VERTEX_POINT('',#500);
#166=VERTEX_POINT('',#502);
#167=VERTEX_POINT('',#506);
#168=VERTEX_POINT('',#508);
#169=VERTEX_POINT('',#512);
#170=VERTEX_POINT('',#514);
#171=VERTEX_POINT('',#518);
#172=VERTEX_POINT('',#520);
#173=VERTEX_POINT('',#524);
#174=VERTEX_POINT('',#526);
#175=VERTEX_POINT('',#530);
#176=VERTEX_POINT('',#532);
#177=VERTEX_POINT('',#536);
#178=VERTEX_POINT('',#537);
#179=VERTEX_POINT('',#539);
#180=VERTEX_POINT('',#541);
#181=VERTEX_POINT('',#545);
#182=VERTEX_POINT('',#546);
#183=VERTEX_POINT('',#548);
#184=VERTEX_POINT('',#550);
#185=VERTEX_POINT('',#554);
#186=VERTEX_POINT('',#556);
#187=VERTEX_POINT('',#560);
#188=VERTEX_POINT('',#562);
#189=VERTEX_POINT('',#566);
#190=VERTEX_POINT('',#568);
#191=VERTEX_POINT('',#575);
#192=VERTEX_POINT('',#577);
#193=EDGE_CURVE('',#163,#163,#149,.T.);
#194=EDGE_CURVE('',#163,#164,#87,.T.);
#195=EDGE_CURVE('',#164,#164,#150,.T.);
#196=EDGE_CURVE('',#165,#165,#151,.T.);
#197=EDGE_CURVE('',#165,#166,#88,.T.);
#198=EDGE_CURVE('',#166,#166,#152,.T.);
#199=EDGE_CURVE('',#167,#167,#153,.T.);
#200=EDGE_CURVE('',#167,#168,#89,.T.);
#201=EDGE_CURVE('',#168,#168,#154,.T.);
#202=EDGE_CURVE('',#169,#169,#155,.T.);
#203=EDGE_CURVE('',#169,#170,#90,.T.);
#204=EDGE_CURVE('',#170,#170,#156,.T.);
#205=EDGE_CURVE('',#171,#171,#157,.T.);
#206=EDGE_CURVE('',#171,#172,#91,.T.);
#207=EDGE_CURVE('',#172,#172,#158,.T.);
#208=EDGE_CURVE('',#173,#173,#159,.T.);
#209=EDGE_CURVE('',#173,#174,#92,.T.);
#210=EDGE_CURVE('',#174,#174,#160,.T.);
#211=EDGE_CURVE('',#175,#175,#161,.T.);
#212=EDGE_CURVE('',#175,#176,#93,.T.);
#213=EDGE_CURVE('',#176,#176,#162,.T.);
#214=EDGE_CURVE('',#177,#178,#94,.T.);
#215=EDGE_CURVE('',#178,#179,#95,.T.);
#216=EDGE_CURVE('',#179,#180,#96,.T.);
#217=EDGE_CURVE('',#177,#180,#97,.T.);
#218=EDGE_CURVE('',#181,#182,#98,.T.);
#219=EDGE_CURVE('',#183,#182,#99,.T.);
#220=EDGE_CURVE('',#183,#184,#100,.T.);
#221=EDGE_CURVE('',#184,#181,#101,.T.);
#222=EDGE_CURVE('',#185,#182,#102,.T.);
#223=EDGE_CURVE('',#186,#185,#103,.T.);
#224=EDGE_CURVE('',#183,#186,#104,.T.);
#225=EDGE_CURVE('',#178,#187,#105,.T.);
#226=EDGE_CURVE('',#187,#188,#106,.T.);
#227=EDGE_CURVE('',#188,#179,#107,.T.);
#228=EDGE_CURVE('',#189,#181,#108,.T.);
#229=EDGE_CURVE('',#190,#184,#109,.T.);
#230=EDGE_CURVE('',#189,#190,#110,.T.);
#231=EDGE_CURVE('',#187,#189,#111,.T.);
#232=EDGE_CURVE('',#188,#190,#112,.T.);
#233=EDGE_CURVE('',#186,#191,#113,.T.);
#234=EDGE_CURVE('',#192,#185,#114,.T.);
#235=EDGE_CURVE('',#191,#192,#115,.T.);
#236=EDGE_CURVE('',#191,#180,#116,.T.);
#237=EDGE_CURVE('',#177,#192,#117,.T.);
#238=ORIENTED_EDGE('',*,*,#193,.F.);
#239=ORIENTED_EDGE('',*,*,#194,.T.);
#240=ORIENTED_EDGE('',*,*,#195,.F.);
#241=ORIENTED_EDGE('',*,*,#194,.F.);
#242=ORIENTED_EDGE('',*,*,#196,.F.);
#243=ORIENTED_EDGE('',*,*,#197,.T.);
#244=ORIENTED_EDGE('',*,*,#198,.F.);
#245=ORIENTED_EDGE('',*,*,#197,.F.);
#246=ORIENTED_EDGE('',*,*,#199,.F.);
#247=ORIENTED_EDGE('',*,*,#200,.T.);
#248=ORIENTED_EDGE('',*,*,#201,.F.);
#249=ORIENTED_EDGE('',*,*,#200,.F.);
#250=ORIENTED_EDGE('',*,*,#202,.F.);
#251=ORIENTED_EDGE('',*,*,#203,.T.);
#252=ORIENTED_EDGE('',*,*,#204,.F.);
#253=ORIENTED_EDGE('',*,*,#203,.F.);
#254=ORIENTED_EDGE('',*,*,#205,.F.);
#255=ORIENTED_EDGE('',*,*,#206,.T.);
#256=ORIENTED_EDGE('',*,*,#207,.F.);
#257=ORIENTED_EDGE('',*,*,#206,.F.);
#258=ORIENTED_EDGE('',*,*,#208,.F.);
#259=ORIENTED_EDGE('',*,*,#209,.T.);
#260=ORIENTED_EDGE('',*,*,#210,.F.);
#261=ORIENTED_EDGE('',*,*,#209,.F.);
#262=ORIENTED_EDGE('',*,*,#211,.F.);
#263=ORIENTED_EDGE('',*,*,#212,.T.);
#264=ORIENTED_EDGE('',*,*,#213,.F.);
#265=ORIENTED_EDGE('',*,*,#212,.F.);
#266=ORIENTED_EDGE('',*,*,#214,.T.);
#267=ORIENTED_EDGE('',*,*,#215,.T.);
#268=ORIENTED_EDGE('',*,*,#216,.T.);
#269=ORIENTED_EDGE('',*,*,#217,.F.);
#270=ORIENTED_EDGE('',*,*,#218,.T.);
#271=ORIENTED_EDGE('',*,*,#219,.F.);
#272=ORIENTED_EDGE('',*,*,#220,.T.);
#273=ORIENTED_EDGE('',*,*,#221,.T.);
#274=ORIENTED_EDGE('',*,*,#219,.T.);
#275=ORIENTED_EDGE('',*,*,#222,.F.);
#276=ORIENTED_EDGE('',*,*,#223,.F.);
#277=ORIENTED_EDGE('',*,*,#224,.F.);
#278=ORIENTED_EDGE('',*,*,#225,.T.);
#279=ORIENTED_EDGE('',*,*,#226,.T.);
#280=ORIENTED_EDGE('',*,*,#227,.T.);
#281=ORIENTED_EDGE('',*,*,#215,.F.);
#282=ORIENTED_EDGE('',*,*,#228,.T.);
#283=ORIENTED_EDGE('',*,*,#221,.F.);
#284=ORIENTED_EDGE('',*,*,#229,.F.);
#285=ORIENTED_EDGE('',*,*,#230,.F.);
#286=ORIENTED_EDGE('',*,*,#231,.T.);
#287=ORIENTED_EDGE('',*,*,#230,.T.);
#288=ORIENTED_EDGE('',*,*,#232,.F.);
#289=ORIENTED_EDGE('',*,*,#226,.F.);
#290=ORIENTED_EDGE('',*,*,#233,.F.);
#291=ORIENTED_EDGE('',*,*,#223,.T.);
#292=ORIENTED_EDGE('',*,*,#234,.F.);
#293=ORIENTED_EDGE('',*,*,#235,.F.);
#294=ORIENTED_EDGE('',*,*,#217,.T.);
#295=ORIENTED_EDGE('',*,*,#236,.F.);
#296=ORIENTED_EDGE('',*,*,#235,.T.);
#297=ORIENTED_EDGE('',*,*,#237,.F.);
#298=ORIENTED_EDGE('',*,*,#237,.T.);
#299=ORIENTED_EDGE('',*,*,#234,.T.);
#300=ORIENTED_EDGE('',*,*,#222,.T.);
#301=ORIENTED_EDGE('',*,*,#218,.F.);
#302=ORIENTED_EDGE('',*,*,#228,.F.);
#303=ORIENTED_EDGE('',*,*,#231,.F.);
#304=ORIENTED_EDGE('',*,*,#225,.F.);
#305=ORIENTED_EDGE('',*,*,#214,.F.);
#306=ORIENTED_EDGE('',*,*,#195,.T.);
#307=ORIENTED_EDGE('',*,*,#198,.T.);
#308=ORIENTED_EDGE('',*,*,#201,.T.);
#309=ORIENTED_EDGE('',*,*,#204,.T.);
#310=ORIENTED_EDGE('',*,*,#207,.T.);
#311=ORIENTED_EDGE('',*,*,#210,.T.);
#312=ORIENTED_EDGE('',*,*,#213,.T.);
#313=ORIENTED_EDGE('',*,*,#227,.F.);
#314=ORIENTED_EDGE('',*,*,#232,.T.);
#315=ORIENTED_EDGE('',*,*,#229,.T.);
#316=ORIENTED_EDGE('',*,*,#220,.F.);
#317=ORIENTED_EDGE('',*,*,#224,.T.);
#318=ORIENTED_EDGE('',*,*,#233,.T.);
#319=ORIENTED_EDGE('',*,*,#236,.T.);
#320=ORIENTED_EDGE('',*,*,#216,.F.);
#321=ORIENTED_EDGE('',*,*,#193,.T.);
#322=ORIENTED_EDGE('',*,*,#196,.T.);
#323=ORIENTED_EDGE('',*,*,#199,.T.);
#324=ORIENTED_EDGE('',*,*,#202,.T.);
#325=ORIENTED_EDGE('',*,*,#205,.T.);
#326=ORIENTED_EDGE('',*,*,#208,.T.);
#327=ORIENTED_EDGE('',*,*,#211,.T.);
#328=CYLINDRICAL_SURFACE('',#366,9.99999999999999);
#329=CYLINDRICAL_SURFACE('',#369,1.49999999999999);
#330=CYLINDRICAL_SURFACE('',#372,2.74999999999999);
#331=CYLINDRICAL_SURFACE('',#375,1.50000000000001);
#332=CYLINDRICAL_SURFACE('',#378,1.49999999999999);
#333=CYLINDRICAL_SURFACE('',#381,2.74999999999999);
#334=CYLINDRICAL_SURFACE('',#384,1.5);
#335=ADVANCED_FACE('',(#39),#328,.F.);
#336=ADVANCED_FACE('',(#40),#329,.F.);
#337=ADVANCED_FACE('',(#41),#330,.F.);
#338=ADVANCED_FACE('',(#42),#331,.F.);
#339=ADVANCED_FACE('',(#43),#332,.F.);
#340=ADVANCED_FACE('',(#44),#333,.F.);
#341=ADVANCED_FACE('',(#45),#334,.F.);
#342=ADVANCED_FACE('',(#46),#29,.T.);
#343=ADVANCED_FACE('',(#47),#30,.T.);
#344=ADVANCED_FACE('',(#48),#31,.T.);
#345=ADVANCED_FACE('',(#49),#32,.T.);
#346=ADVANCED_FACE('',(#50),#33,.T.);
#347=ADVANCED_FACE('',(#51),#34,.T.);
#348=ADVANCED_FACE('',(#52),#35,.T.);
#349=ADVANCED_FACE('',(#53),#36,.T.);
#350=ADVANCED_FACE('',(#54,#15,#16,#17,#18,#19,#20,#21),#37,.T.);
#351=ADVANCED_FACE('',(#55,#22,#23,#24,#25,#26,#27,#28),#38,.F.);
#352=CLOSED_SHELL('',(#335,#336,#337,#338,#339,#340,#341,#342,#343,#344,
#345,#346,#347,#348,#349,#350,#351));
#353=DERIVED_UNIT_ELEMENT(#355,1.);
#354=DERIVED_UNIT_ELEMENT(#590,-3.);
#355=(
MASS_UNIT()
NAMED_UNIT(*)
SI_UNIT(.KILO.,.GRAM.)
);
#356=DERIVED_UNIT((#353,#354));
#357=MEASURE_REPRESENTATION_ITEM('density measure',
POSITIVE_RATIO_MEASURE(7850.),#356);
#358=PROPERTY_DEFINITION_REPRESENTATION(#363,#360);
#359=PROPERTY_DEFINITION_REPRESENTATION(#364,#361);
#360=REPRESENTATION('material name',(#362),#587);
#361=REPRESENTATION('density',(#357),#587);
#362=DESCRIPTIVE_REPRESENTATION_ITEM('Steel','Steel');
#363=PROPERTY_DEFINITION('material property','material name',#597);
#364=PROPERTY_DEFINITION('material property','density of part',#597);
#365=AXIS2_PLACEMENT_3D('',#492,#397,#398);
#366=AXIS2_PLACEMENT_3D('',#493,#399,#400);
#367=AXIS2_PLACEMENT_3D('',#495,#401,#402);
#368=AXIS2_PLACEMENT_3D('',#498,#404,#405);
#369=AXIS2_PLACEMENT_3D('',#499,#406,#407);
#370=AXIS2_PLACEMENT_3D('',#501,#408,#409);
#371=AXIS2_PLACEMENT_3D('',#504,#411,#412);
#372=AXIS2_PLACEMENT_3D('',#505,#413,#414);
#373=AXIS2_PLACEMENT_3D('',#507,#415,#416);
#374=AXIS2_PLACEMENT_3D('',#510,#418,#419);
#375=AXIS2_PLACEMENT_3D('',#511,#420,#421);
#376=AXIS2_PLACEMENT_3D('',#513,#422,#423);
#377=AXIS2_PLACEMENT_3D('',#516,#425,#426);
#378=AXIS2_PLACEMENT_3D('',#517,#427,#428);
#379=AXIS2_PLACEMENT_3D('',#519,#429,#430);
#380=AXIS2_PLACEMENT_3D('',#522,#432,#433);
#381=AXIS2_PLACEMENT_3D('',#523,#434,#435);
#382=AXIS2_PLACEMENT_3D('',#525,#436,#437);
#383=AXIS2_PLACEMENT_3D('',#528,#439,#440);
#384=AXIS2_PLACEMENT_3D('',#529,#441,#442);
#385=AXIS2_PLACEMENT_3D('',#531,#443,#444);
#386=AXIS2_PLACEMENT_3D('',#534,#446,#447);
#387=AXIS2_PLACEMENT_3D('',#535,#448,#449);
#388=AXIS2_PLACEMENT_3D('',#544,#454,#455);
#389=AXIS2_PLACEMENT_3D('',#553,#460,#461);
#390=AXIS2_PLACEMENT_3D('',#559,#465,#466);
#391=AXIS2_PLACEMENT_3D('',#565,#470,#471);
#392=AXIS2_PLACEMENT_3D('',#571,#475,#476);
#393=AXIS2_PLACEMENT_3D('',#574,#479,#480);
#394=AXIS2_PLACEMENT_3D('',#580,#484,#485);
#395=AXIS2_PLACEMENT_3D('',#583,#488,#489);
#396=AXIS2_PLACEMENT_3D('',#584,#490,#491);
#397=DIRECTION('axis',(0.,0.,1.));
#398=DIRECTION('refdir',(1.,0.,0.));
#399=DIRECTION('center_axis',(-1.,0.,0.));
#400=DIRECTION('ref_axis',(0.,-1.,0.));
#401=DIRECTION('center_axis',(-1.,-2.90045765183322E-14,1.28023872765816E-15));
#402=DIRECTION('ref_axis',(0.,-1.,0.));
#403=DIRECTION('',(-1.,0.,0.));
#404=DIRECTION('center_axis',(1.,2.90045765183322E-14,-1.28023872765816E-15));
#405=DIRECTION('ref_axis',(0.,-1.,0.));
#406=DIRECTION('center_axis',(-1.,0.,0.));
#407=DIRECTION('ref_axis',(0.,-1.,0.));
#408=DIRECTION('center_axis',(-1.,-2.90045765183322E-14,1.28023872765816E-15));
#409=DIRECTION('ref_axis',(0.,-1.,0.));
#410=DIRECTION('',(-1.,0.,0.));
#411=DIRECTION('center_axis',(1.,2.90045765183322E-14,-1.28023872765816E-15));
#412=DIRECTION('ref_axis',(0.,-1.,0.));
#413=DIRECTION('center_axis',(-1.,0.,0.));
#414=DIRECTION('ref_axis',(0.,-1.,0.));
#415=DIRECTION('center_axis',(-1.,-2.90045765183322E-14,1.28023872765816E-15));
#416=DIRECTION('ref_axis',(0.,-1.,0.));
#417=DIRECTION('',(-1.,0.,0.));
#418=DIRECTION('center_axis',(1.,2.90045765183322E-14,-1.28023872765816E-15));
#419=DIRECTION('ref_axis',(0.,-1.,0.));
#420=DIRECTION('center_axis',(-1.,0.,0.));
#421=DIRECTION('ref_axis',(0.,-1.,0.));
#422=DIRECTION('center_axis',(-1.,-2.90045765183322E-14,1.28023872765816E-15));
#423=DIRECTION('ref_axis',(0.,-1.,0.));
#424=DIRECTION('',(-1.,0.,0.));
#425=DIRECTION('center_axis',(1.,2.90045765183322E-14,-1.28023872765816E-15));
#426=DIRECTION('ref_axis',(0.,-1.,0.));
#427=DIRECTION('center_axis',(-1.,0.,0.));
#428=DIRECTION('ref_axis',(0.,-1.,0.));
#429=DIRECTION('center_axis',(-1.,-2.90045765183322E-14,1.28023872765816E-15));
#430=DIRECTION('ref_axis',(0.,-1.,0.));
#431=DIRECTION('',(-1.,0.,0.));
#432=DIRECTION('center_axis',(1.,2.90045765183322E-14,-1.28023872765816E-15));
#433=DIRECTION('ref_axis',(0.,-1.,0.));
#434=DIRECTION('center_axis',(-1.,0.,0.));
#435=DIRECTION('ref_axis',(0.,-1.,0.));
#436=DIRECTION('center_axis',(-1.,-2.90045765183322E-14,1.28023872765816E-15));
#437=DIRECTION('ref_axis',(0.,-1.,0.));
#438=DIRECTION('',(-1.,0.,0.));
#439=DIRECTION('center_axis',(1.,2.90045765183322E-14,-1.28023872765816E-15));
#440=DIRECTION('ref_axis',(0.,-1.,0.));
#441=DIRECTION('center_axis',(-1.,0.,0.));
#442=DIRECTION('ref_axis',(0.,-1.,0.));
#443=DIRECTION('center_axis',(-1.,-2.90045765183322E-14,1.28023872765816E-15));
#444=DIRECTION('ref_axis',(0.,-1.,0.));
#445=DIRECTION('',(-1.,0.,0.));
#446=DIRECTION('center_axis',(1.,2.90045765183322E-14,-1.28023872765816E-15));
#447=DIRECTION('ref_axis',(0.,-1.,0.));
#448=DIRECTION('center_axis',(0.,0.,1.));
#449=DIRECTION('ref_axis',(1.,0.,0.));
#450=DIRECTION('',(0.,-1.,0.));
#451=DIRECTION('',(1.,0.,0.));
#452=DIRECTION('',(0.,1.,0.));
#453=DIRECTION('',(1.,2.88657986402541E-14,0.));
#454=DIRECTION('center_axis',(0.,0.,1.));
#455=DIRECTION('ref_axis',(1.,0.,0.));
#456=DIRECTION('',(0.,-1.,0.));
#457=DIRECTION('',(-1.,-2.88657986402541E-14,0.));
#458=DIRECTION('',(0.,1.,0.));
#459=DIRECTION('',(-1.,0.,0.));
#460=DIRECTION('center_axis',(-2.88657986402541E-14,1.,-1.77668814057851E-31));
#461=DIRECTION('ref_axis',(-1.28023872765816E-15,-3.71327821380934E-29,
-1.));
#462=DIRECTION('',(-1.28023872765816E-15,-3.71327821380934E-29,-1.));
#463=DIRECTION('',(-1.,-2.88657986402541E-14,0.));
#464=DIRECTION('',(1.28023872765816E-15,3.71327821380934E-29,1.));
#465=DIRECTION('center_axis',(0.,-1.,0.));
#466=DIRECTION('ref_axis',(0.,0.,-1.));
#467=DIRECTION('',(0.,0.,-1.));
#468=DIRECTION('',(1.,0.,0.));
#469=DIRECTION('',(0.,0.,1.));
#470=DIRECTION('center_axis',(0.,1.,0.));
#471=DIRECTION('ref_axis',(0.,0.,1.));
#472=DIRECTION('',(0.,0.,1.));
#473=DIRECTION('',(0.,0.,1.));
#474=DIRECTION('',(1.,0.,0.));
#475=DIRECTION('center_axis',(0.,0.,-1.));
#476=DIRECTION('ref_axis',(0.,1.,0.));
#477=DIRECTION('',(0.,1.,0.));
#478=DIRECTION('',(0.,1.,0.));
#479=DIRECTION('center_axis',(0.,0.,1.));
#480=DIRECTION('ref_axis',(-2.90045765183322E-14,1.,0.));
#481=DIRECTION('',(2.90045765183322E-14,-1.,0.));
#482=DIRECTION('',(-2.90045765183322E-14,1.,0.));
#483=DIRECTION('',(-1.,-2.88657986402541E-14,0.));
#484=DIRECTION('center_axis',(2.88657986402541E-14,-1.,1.77668814057851E-31));
#485=DIRECTION('ref_axis',(1.28023872765816E-15,3.71327821380934E-29,1.));
#486=DIRECTION('',(-1.28023872765816E-15,-3.71327821380934E-29,-1.));
#487=DIRECTION('',(1.28023872765816E-15,3.71327821380934E-29,1.));
#488=DIRECTION('center_axis',(-1.,-2.90045765183322E-14,1.28023872765816E-15));
#489=DIRECTION('ref_axis',(2.90045765183322E-14,-1.,0.));
#490=DIRECTION('center_axis',(-1.,-2.90045765183322E-14,1.28023872765816E-15));
#491=DIRECTION('ref_axis',(2.90045765183322E-14,-1.,0.));
#492=CARTESIAN_POINT('',(0.,0.,0.));
#493=CARTESIAN_POINT('Origin',(604.8,-30.,555.));
#494=CARTESIAN_POINT('',(604.599999977334,-20.,555.));
#495=CARTESIAN_POINT('Origin',(604.599999977334,-30.,555.));
#496=CARTESIAN_POINT('',(594.599999977334,-20.,555.));
#497=CARTESIAN_POINT('',(604.8,-20.,555.));
#498=CARTESIAN_POINT('Origin',(594.599999977334,-30.,555.));
#499=CARTESIAN_POINT('Origin',(604.8,-14.5,539.5));
#500=CARTESIAN_POINT('',(604.599999977334,-13.,539.5));
#501=CARTESIAN_POINT('Origin',(604.599999977334,-14.5,539.5));
#502=CARTESIAN_POINT('',(594.599999977334,-13.,539.5));
#503=CARTESIAN_POINT('',(604.8,-13.,539.5));
#504=CARTESIAN_POINT('Origin',(594.599999977334,-14.5,539.5));
#505=CARTESIAN_POINT('Origin',(604.8,-15.5,520.000007748604));
#506=CARTESIAN_POINT('',(604.599999977334,-12.75,520.000007748604));
#507=CARTESIAN_POINT('Origin',(604.599999977334,-15.5,520.000007748604));
#508=CARTESIAN_POINT('',(594.599999977334,-12.75,520.000007748604));
#509=CARTESIAN_POINT('',(604.8,-12.75,520.000007748604));
#510=CARTESIAN_POINT('Origin',(594.599999977334,-15.5,520.000007748604));
#511=CARTESIAN_POINT('Origin',(604.8,-14.5,570.5));
#512=CARTESIAN_POINT('',(604.599999977334,-13.,570.5));
#513=CARTESIAN_POINT('Origin',(604.599999977334,-14.5,570.5));
#514=CARTESIAN_POINT('',(594.599999977334,-13.,570.5));
#515=CARTESIAN_POINT('',(604.8,-13.,570.5));
#516=CARTESIAN_POINT('Origin',(594.599999977334,-14.5,570.5));
#517=CARTESIAN_POINT('Origin',(604.8,-45.5,539.5));
#518=CARTESIAN_POINT('',(604.599999977334,-44.,539.5));
#519=CARTESIAN_POINT('Origin',(604.599999977334,-45.5,539.5));
#520=CARTESIAN_POINT('',(594.599999977334,-44.,539.5));
#521=CARTESIAN_POINT('',(604.8,-44.,539.5));
#522=CARTESIAN_POINT('Origin',(594.599999977334,-45.5,539.5));
#523=CARTESIAN_POINT('Origin',(604.8,-44.5,520.000007748604));
#524=CARTESIAN_POINT('',(604.599999977334,-41.75,520.000007748604));
#525=CARTESIAN_POINT('Origin',(604.599999977334,-44.5,520.000007748604));
#526=CARTESIAN_POINT('',(594.599999977334,-41.75,520.000007748604));
#527=CARTESIAN_POINT('',(604.8,-41.75,520.000007748604));
#528=CARTESIAN_POINT('Origin',(594.599999977334,-44.5,520.000007748604));
#529=CARTESIAN_POINT('Origin',(604.8,-45.5,570.5));
#530=CARTESIAN_POINT('',(604.599999977334,-44.,570.5));
#531=CARTESIAN_POINT('Origin',(604.599999977334,-45.5,570.5));
#532=CARTESIAN_POINT('',(594.599999977334,-44.,570.5));
#533=CARTESIAN_POINT('',(604.8,-44.,570.5));
#534=CARTESIAN_POINT('Origin',(594.599999977334,-45.5,570.5));
#535=CARTESIAN_POINT('Origin',(594.599999977334,-47.0000002235002,579.999987047166));
#536=CARTESIAN_POINT('',(594.599999977334,-47.0000002235002,579.999987047166));
#537=CARTESIAN_POINT('',(594.599999977334,-54.4999987818301,579.999987047166));
#538=CARTESIAN_POINT('',(594.599999977334,-5.49999987706542,579.999987047166));
#539=CARTESIAN_POINT('',(604.599999977334,-54.4999987818301,579.999987047166));
#540=CARTESIAN_POINT('',(594.599999977334,-54.4999987818301,579.999987047166));
#541=CARTESIAN_POINT('',(604.599999977334,-47.0000002235002,579.999987047166));
#542=CARTESIAN_POINT('',(604.599999977334,-5.49999987706542,579.999987047166));
#543=CARTESIAN_POINT('',(599.599999977334,-47.0000002235,579.999987047166));
#544=CARTESIAN_POINT('Origin',(594.599999977334,-5.49999987706542,579.999987047166));
#545=CARTESIAN_POINT('',(594.599999977334,-5.49999987706542,579.999987047166));
#546=CARTESIAN_POINT('',(594.599999977334,-15.0000002235002,579.999987047166));
#547=CARTESIAN_POINT('',(594.599999977334,-5.49999987706542,579.999987047166));
#548=CARTESIAN_POINT('',(604.599999977334,-15.0000002235002,579.999987047166));
#549=CARTESIAN_POINT('',(599.599999977334,-15.0000002235,579.999987047166));
#550=CARTESIAN_POINT('',(604.599999977334,-5.49999987706542,579.999987047166));
#551=CARTESIAN_POINT('',(604.599999977334,-5.49999987706542,579.999987047166));
#552=CARTESIAN_POINT('',(594.599999977334,-5.49999987706542,579.999987047166));
#553=CARTESIAN_POINT('Origin',(604.599999977334,-15.0000002234999,580.000007748603));
#554=CARTESIAN_POINT('',(594.599999977334,-15.0000002235002,580.000007748603));
#555=CARTESIAN_POINT('',(594.599999977334,-15.0000002235002,513.000007748603));
#556=CARTESIAN_POINT('',(604.599999977334,-15.0000002234999,580.000007748603));
#557=CARTESIAN_POINT('',(604.599999977334,-15.0000002234999,580.000007748603));
#558=CARTESIAN_POINT('',(604.599999977334,-15.0000002234999,513.000007748603));
#559=CARTESIAN_POINT('Origin',(594.599999977334,-54.4999987818301,579.499987047166));
#560=CARTESIAN_POINT('',(594.599999977334,-54.4999987818301,510.99998857826));
#561=CARTESIAN_POINT('',(594.599999977334,-54.4999987818301,579.499987047166));
#562=CARTESIAN_POINT('',(604.599999977334,-54.4999987818301,510.99998857826));
#563=CARTESIAN_POINT('',(594.599999977334,-54.4999987818301,510.99998857826));
#564=CARTESIAN_POINT('',(604.599999977334,-54.4999987818301,579.499987047166));
#565=CARTESIAN_POINT('Origin',(594.599999977334,-5.49999987706542,510.99998857826));
#566=CARTESIAN_POINT('',(594.599999977334,-5.49999987706542,510.99998857826));
#567=CARTESIAN_POINT('',(594.599999977334,-5.49999987706542,510.99998857826));
#568=CARTESIAN_POINT('',(604.599999977334,-5.49999987706542,510.99998857826));
#569=CARTESIAN_POINT('',(604.599999977334,-5.49999987706542,510.99998857826));
#570=CARTESIAN_POINT('',(594.599999977334,-5.49999987706542,510.99998857826));
#571=CARTESIAN_POINT('Origin',(594.599999977334,-54.4999987818301,510.99998857826));
#572=CARTESIAN_POINT('',(594.599999977334,-54.4999987818301,510.99998857826));
#573=CARTESIAN_POINT('',(604.599999977334,-54.4999987818301,510.99998857826));
#574=CARTESIAN_POINT('Origin',(604.599999977335,-47.0000002234999,580.000007748603));
#575=CARTESIAN_POINT('',(604.599999977335,-47.0000002234999,580.000007748603));
#576=CARTESIAN_POINT('',(604.599999977334,-15.0000002234999,580.000007748603));
#577=CARTESIAN_POINT('',(594.599999977335,-47.0000002235002,580.000007748603));
#578=CARTESIAN_POINT('',(594.599999977334,-15.0000002235002,580.000007748603));
#579=CARTESIAN_POINT('',(604.599999977335,-47.0000002234999,580.000007748603));
#580=CARTESIAN_POINT('Origin',(604.599999977335,-47.0000002234999,513.000007748603));
#581=CARTESIAN_POINT('',(604.599999977335,-47.0000002234999,580.000007748603));
#582=CARTESIAN_POINT('',(594.599999977335,-47.0000002235002,580.000007748603));
#583=CARTESIAN_POINT('Origin',(594.599999977334,-31.0000002235002,546.500007748603));
#584=CARTESIAN_POINT('Origin',(604.599999977334,-31.0000002234999,546.500007748603));
#585=UNCERTAINTY_MEASURE_WITH_UNIT(LENGTH_MEASURE(0.01),#589,
'DISTANCE_ACCURACY_VALUE',
'Maximum model space distance between geometric entities at asserted c
onnectivities');
#586=UNCERTAINTY_MEASURE_WITH_UNIT(LENGTH_MEASURE(0.01),#589,
'DISTANCE_ACCURACY_VALUE',
'Maximum model space distance between geometric entities at asserted c
onnectivities');
#587=(
GEOMETRIC_REPRESENTATION_CONTEXT(3)
GLOBAL_UNCERTAINTY_ASSIGNED_CONTEXT((#585))
GLOBAL_UNIT_ASSIGNED_CONTEXT((#589,#591,#592))
REPRESENTATION_CONTEXT('','3D')
);
#588=(
GEOMETRIC_REPRESENTATION_CONTEXT(3)
GLOBAL_UNCERTAINTY_ASSIGNED_CONTEXT((#586))
GLOBAL_UNIT_ASSIGNED_CONTEXT((#589,#591,#592))
REPRESENTATION_CONTEXT('','3D')
);
#589=(
LENGTH_UNIT()
NAMED_UNIT(*)
SI_UNIT(.MILLI.,.METRE.)
);
#590=(
LENGTH_UNIT()
NAMED_UNIT(*)
SI_UNIT($,.METRE.)
);
#591=(
NAMED_UNIT(*)
PLANE_ANGLE_UNIT()
SI_UNIT($,.RADIAN.)
);
#592=(
NAMED_UNIT(*)
SI_UNIT($,.STERADIAN.)
SOLID_ANGLE_UNIT()
);
#593=SHAPE_DEFINITION_REPRESENTATION(#594,#595);
#594=PRODUCT_DEFINITION_SHAPE('',$,#597);
#595=SHAPE_REPRESENTATION('',(#365),#587);
#596=PRODUCT_DEFINITION_CONTEXT('part definition',#601,'design');
#597=PRODUCT_DEFINITION('2026-02-18-14-44-36-044',
'Nema 17 motor parallel mount',#598,#596);
#598=PRODUCT_DEFINITION_FORMATION('',$,#603);
#599=PRODUCT_RELATED_PRODUCT_CATEGORY('Nema 17 motor parallel mount',
'Nema 17 motor parallel mount',(#603));
#600=APPLICATION_PROTOCOL_DEFINITION('international standard',
'automotive_design',2009,#601);
#601=APPLICATION_CONTEXT(
'Core Data for Automotive Mechanical Design Process');
#602=PRODUCT_CONTEXT('part definition',#601,'mechanical');
#603=PRODUCT('2026-02-18-14-44-36-044','Nema 17 motor parallel mount',$,
(#602));
#604=PRESENTATION_STYLE_ASSIGNMENT((#605));
#605=SURFACE_STYLE_USAGE(.BOTH.,#606);
#606=SURFACE_SIDE_STYLE('',(#607));
#607=SURFACE_STYLE_FILL_AREA(#608);
#608=FILL_AREA_STYLE('Steel - Satin',(#609));
#609=FILL_AREA_STYLE_COLOUR('Steel - Satin',#610);
#610=COLOUR_RGB('Steel - Satin',0.627450980392157,0.627450980392157,0.627450980392157);
ENDSEC;
END-ISO-10303-21;
