ISO-10303-21;
HEADER;
/* Generated by software containing ST-Developer
 * from STEP Tools, Inc. (www.steptools.com) 
 */

FILE_DESCRIPTION(
/* description */ (''),
/* implementation_level */ '2;1');

FILE_NAME(
/* name */ 'Toolchanger rack.step',
/* time_stamp */ '2026-02-25T19:04:48+11:00',
/* author */ (''),
/* organization */ (''),
/* preprocessor_version */ 'ST-DEVELOPER v20.1',
/* originating_system */ 'Autodesk Translation Framework v14.24.0.0',
/* authorisation */ '');

FILE_SCHEMA (('AUTOMOTIVE_DESIGN { 1 0 10303 214 3 1 1 }'));
ENDSEC;

DATA;
#10=MECHANICAL_DESIGN_GEOMETRIC_PRESENTATION_REPRESENTATION('',(#13),#1132);
#11=SHAPE_REPRESENTATION_RELATIONSHIP('SRR','None',#1139,#12);
#12=ADVANCED_BREP_SHAPE_REPRESENTATION('',(#14),#1131);
#13=STYLED_ITEM('',(#1148),#14);
#14=MANIFOLD_SOLID_BREP('Body1',#704);
#15=CYLINDRICAL_SURFACE('',#743,2.74999999999999);
#16=CYLINDRICAL_SURFACE('',#754,2.75000000000006);
#17=CYLINDRICAL_SURFACE('',#755,2.74999999999999);
#18=CYLINDRICAL_SURFACE('',#756,2.75000000000006);
#19=FACE_BOUND('',#66,.T.);
#20=FACE_BOUND('',#73,.T.);
#21=FACE_BOUND('',#74,.T.);
#22=FACE_BOUND('',#80,.T.);
#23=CIRCLE('',#722,2.75000000000006);
#24=CIRCLE('',#729,2.74999999999999);
#25=CIRCLE('',#730,2.74999999999999);
#26=CIRCLE('',#731,2.75000000000006);
#27=CIRCLE('',#732,2.75000000000006);
#28=CIRCLE('',#738,2.75000000000006);
#29=CIRCLE('',#744,2.74999999999999);
#30=CIRCLE('',#746,2.74999999999999);
#31=FACE_OUTER_BOUND('',#62,.T.);
#32=FACE_OUTER_BOUND('',#63,.T.);
#33=FACE_OUTER_BOUND('',#64,.T.);
#34=FACE_OUTER_BOUND('',#65,.T.);
#35=FACE_OUTER_BOUND('',#67,.T.);
#36=FACE_OUTER_BOUND('',#68,.T.);
#37=FACE_OUTER_BOUND('',#69,.T.);
#38=FACE_OUTER_BOUND('',#70,.T.);
#39=FACE_OUTER_BOUND('',#71,.T.);
#40=FACE_OUTER_BOUND('',#72,.T.);
#41=FACE_OUTER_BOUND('',#75,.T.);
#42=FACE_OUTER_BOUND('',#76,.T.);
#43=FACE_OUTER_BOUND('',#77,.T.);
#44=FACE_OUTER_BOUND('',#78,.T.);
#45=FACE_OUTER_BOUND('',#79,.T.);
#46=FACE_OUTER_BOUND('',#81,.T.);
#47=FACE_OUTER_BOUND('',#82,.T.);
#48=FACE_OUTER_BOUND('',#83,.T.);
#49=FACE_OUTER_BOUND('',#84,.T.);
#50=FACE_OUTER_BOUND('',#85,.T.);
#51=FACE_OUTER_BOUND('',#86,.T.);
#52=FACE_OUTER_BOUND('',#87,.T.);
#53=FACE_OUTER_BOUND('',#88,.T.);
#54=FACE_OUTER_BOUND('',#89,.T.);
#55=FACE_OUTER_BOUND('',#90,.T.);
#56=FACE_OUTER_BOUND('',#91,.T.);
#57=FACE_OUTER_BOUND('',#92,.T.);
#58=FACE_OUTER_BOUND('',#93,.T.);
#59=FACE_OUTER_BOUND('',#94,.T.);
#60=FACE_OUTER_BOUND('',#95,.T.);
#61=FACE_OUTER_BOUND('',#96,.T.);
#62=EDGE_LOOP('',(#448,#449,#450,#451,#452,#453,#454,#455));
#63=EDGE_LOOP('',(#456,#457,#458,#459,#460,#461,#462,#463,#464,#465,#466));
#64=EDGE_LOOP('',(#467,#468,#469,#470,#471,#472));
#65=EDGE_LOOP('',(#473,#474,#475,#476,#477,#478));
#66=EDGE_LOOP('',(#479));
#67=EDGE_LOOP('',(#480,#481,#482,#483));
#68=EDGE_LOOP('',(#484,#485,#486,#487,#488));
#69=EDGE_LOOP('',(#489,#490,#491,#492));
#70=EDGE_LOOP('',(#493,#494,#495,#496,#497));
#71=EDGE_LOOP('',(#498,#499,#500,#501,#502,#503,#504,#505,#506,#507,#508,
#509,#510,#511));
#72=EDGE_LOOP('',(#512,#513,#514,#515,#516,#517,#518,#519,#520,#521,#522,
#523,#524,#525,#526,#527));
#73=EDGE_LOOP('',(#528));
#74=EDGE_LOOP('',(#529));
#75=EDGE_LOOP('',(#530,#531,#532,#533,#534,#535,#536,#537));
#76=EDGE_LOOP('',(#538,#539,#540,#541,#542,#543));
#77=EDGE_LOOP('',(#544,#545,#546,#547));
#78=EDGE_LOOP('',(#548,#549,#550,#551));
#79=EDGE_LOOP('',(#552,#553,#554,#555,#556,#557,#558,#559,#560));
#80=EDGE_LOOP('',(#561));
#81=EDGE_LOOP('',(#562,#563,#564,#565));
#82=EDGE_LOOP('',(#566,#567,#568,#569));
#83=EDGE_LOOP('',(#570,#571,#572,#573));
#84=EDGE_LOOP('',(#574,#575,#576,#577));
#85=EDGE_LOOP('',(#578,#579,#580,#581));
#86=EDGE_LOOP('',(#582,#583,#584,#585,#586,#587));
#87=EDGE_LOOP('',(#588,#589,#590,#591));
#88=EDGE_LOOP('',(#592,#593,#594,#595,#596,#597));
#89=EDGE_LOOP('',(#598,#599,#600,#601,#602,#603,#604,#605,#606,#607,#608));
#90=EDGE_LOOP('',(#609,#610,#611,#612,#613,#614,#615,#616,#617));
#91=EDGE_LOOP('',(#618,#619,#620,#621));
#92=EDGE_LOOP('',(#622,#623,#624,#625));
#93=EDGE_LOOP('',(#626,#627,#628,#629,#630,#631,#632,#633));
#94=EDGE_LOOP('',(#634,#635,#636,#637));
#95=EDGE_LOOP('',(#638,#639,#640,#641));
#96=EDGE_LOOP('',(#642,#643,#644,#645));
#97=LINE('',#932,#188);
#98=LINE('',#934,#189);
#99=LINE('',#936,#190);
#100=LINE('',#938,#191);
#101=LINE('',#940,#192);
#102=LINE('',#942,#193);
#103=LINE('',#944,#194);
#104=LINE('',#945,#195);
#105=LINE('',#949,#196);
#106=LINE('',#951,#197);
#107=LINE('',#953,#198);
#108=LINE('',#955,#199);
#109=LINE('',#957,#200);
#110=LINE('',#959,#201);
#111=LINE('',#961,#202);
#112=LINE('',#963,#203);
#113=LINE('',#965,#204);
#114=LINE('',#967,#205);
#115=LINE('',#968,#206);
#116=LINE('',#971,#207);
#117=LINE('',#973,#208);
#118=LINE('',#975,#209);
#119=LINE('',#977,#210);
#120=LINE('',#978,#211);
#121=LINE('',#981,#212);
#122=LINE('',#983,#213);
#123=LINE('',#985,#214);
#124=LINE('',#986,#215);
#125=LINE('',#991,#216);
#126=LINE('',#992,#217);
#127=LINE('',#995,#218);
#128=LINE('',#997,#219);
#129=LINE('',#999,#220);
#130=LINE('',#1000,#221);
#131=LINE('',#1003,#222);
#132=LINE('',#1004,#223);
#133=LINE('',#1008,#224);
#134=LINE('',#1009,#225);
#135=LINE('',#1010,#226);
#136=LINE('',#1014,#227);
#137=LINE('',#1016,#228);
#138=LINE('',#1018,#229);
#139=LINE('',#1020,#230);
#140=LINE('',#1022,#231);
#141=LINE('',#1024,#232);
#142=LINE('',#1026,#233);
#143=LINE('',#1027,#234);
#144=LINE('',#1028,#235);
#145=LINE('',#1031,#236);
#146=LINE('',#1034,#237);
#147=LINE('',#1036,#238);
#148=LINE('',#1038,#239);
#149=LINE('',#1040,#240);
#150=LINE('',#1042,#241);
#151=LINE('',#1046,#242);
#152=LINE('',#1048,#243);
#153=LINE('',#1049,#244);
#154=LINE('',#1056,#245);
#155=LINE('',#1058,#246);
#156=LINE('',#1059,#247);
#157=LINE('',#1062,#248);
#158=LINE('',#1064,#249);
#159=LINE('',#1066,#250);
#160=LINE('',#1067,#251);
#161=LINE('',#1069,#252);
#162=LINE('',#1070,#253);
#163=LINE('',#1074,#254);
#164=LINE('',#1076,#255);
#165=LINE('',#1078,#256);
#166=LINE('',#1079,#257);
#167=LINE('',#1080,#258);
#168=LINE('',#1085,#259);
#169=LINE('',#1086,#260);
#170=LINE('',#1089,#261);
#171=LINE('',#1090,#262);
#172=LINE('',#1093,#263);
#173=LINE('',#1095,#264);
#174=LINE('',#1096,#265);
#175=LINE('',#1099,#266);
#176=LINE('',#1101,#267);
#177=LINE('',#1102,#268);
#178=LINE('',#1108,#269);
#179=LINE('',#1110,#270);
#180=LINE('',#1111,#271);
#181=LINE('',#1113,#272);
#182=LINE('',#1115,#273);
#183=LINE('',#1117,#274);
#184=LINE('',#1118,#275);
#185=LINE('',#1120,#276);
#186=LINE('',#1125,#277);
#187=LINE('',#1128,#278);
#188=VECTOR('',#761,10.);
#189=VECTOR('',#762,10.);
#190=VECTOR('',#763,10.);
#191=VECTOR('',#764,10.);
#192=VECTOR('',#765,10.);
#193=VECTOR('',#766,10.);
#194=VECTOR('',#767,10.);
#195=VECTOR('',#768,10.);
#196=VECTOR('',#771,10.);
#197=VECTOR('',#772,10.);
#198=VECTOR('',#773,10.);
#199=VECTOR('',#774,10.);
#200=VECTOR('',#775,10.);
#201=VECTOR('',#776,10.);
#202=VECTOR('',#777,10.);
#203=VECTOR('',#778,10.);
#204=VECTOR('',#779,10.);
#205=VECTOR('',#780,10.);
#206=VECTOR('',#781,10.);
#207=VECTOR('',#784,10.);
#208=VECTOR('',#785,10.);
#209=VECTOR('',#786,10.);
#210=VECTOR('',#787,10.);
#211=VECTOR('',#788,10.);
#212=VECTOR('',#791,10.);
#213=VECTOR('',#792,10.);
#214=VECTOR('',#793,10.);
#215=VECTOR('',#794,10.);
#216=VECTOR('',#799,10.);
#217=VECTOR('',#800,10.);
#218=VECTOR('',#803,10.);
#219=VECTOR('',#804,10.);
#220=VECTOR('',#805,10.);
#221=VECTOR('',#806,10.);
#222=VECTOR('',#809,10.);
#223=VECTOR('',#810,10.);
#224=VECTOR('',#813,10.);
#225=VECTOR('',#814,10.);
#226=VECTOR('',#815,10.);
#227=VECTOR('',#818,10.);
#228=VECTOR('',#819,10.);
#229=VECTOR('',#820,10.);
#230=VECTOR('',#821,10.);
#231=VECTOR('',#822,10.);
#232=VECTOR('',#823,10.);
#233=VECTOR('',#824,10.);
#234=VECTOR('',#825,10.);
#235=VECTOR('',#826,10.);
#236=VECTOR('',#829,10.);
#237=VECTOR('',#832,10.);
#238=VECTOR('',#833,10.);
#239=VECTOR('',#834,10.);
#240=VECTOR('',#835,10.);
#241=VECTOR('',#836,10.);
#242=VECTOR('',#839,10.);
#243=VECTOR('',#840,10.);
#244=VECTOR('',#841,10.);
#245=VECTOR('',#848,10.);
#246=VECTOR('',#849,10.);
#247=VECTOR('',#850,10.);
#248=VECTOR('',#853,10.);
#249=VECTOR('',#854,10.);
#250=VECTOR('',#855,10.);
#251=VECTOR('',#856,10.);
#252=VECTOR('',#859,10.);
#253=VECTOR('',#860,10.);
#254=VECTOR('',#865,10.);
#255=VECTOR('',#866,10.);
#256=VECTOR('',#867,10.);
#257=VECTOR('',#868,10.);
#258=VECTOR('',#869,10.);
#259=VECTOR('',#874,10.);
#260=VECTOR('',#875,10.);
#261=VECTOR('',#878,10.);
#262=VECTOR('',#879,10.);
#263=VECTOR('',#882,10.);
#264=VECTOR('',#883,10.);
#265=VECTOR('',#884,10.);
#266=VECTOR('',#887,10.);
#267=VECTOR('',#888,10.);
#268=VECTOR('',#889,10.);
#269=VECTOR('',#898,10.);
#270=VECTOR('',#899,10.);
#271=VECTOR('',#900,10.);
#272=VECTOR('',#903,10.);
#273=VECTOR('',#906,10.);
#274=VECTOR('',#909,10.);
#275=VECTOR('',#910,10.);
#276=VECTOR('',#913,10.);
#277=VECTOR('',#922,2.75000000000006);
#278=VECTOR('',#927,2.75000000000006);
#279=VERTEX_POINT('',#930);
#280=VERTEX_POINT('',#931);
#281=VERTEX_POINT('',#933);
#282=VERTEX_POINT('',#935);
#283=VERTEX_POINT('',#937);
#284=VERTEX_POINT('',#939);
#285=VERTEX_POINT('',#941);
#286=VERTEX_POINT('',#943);
#287=VERTEX_POINT('',#947);
#288=VERTEX_POINT('',#948);
#289=VERTEX_POINT('',#950);
#290=VERTEX_POINT('',#952);
#291=VERTEX_POINT('',#954);
#292=VERTEX_POINT('',#956);
#293=VERTEX_POINT('',#958);
#294=VERTEX_POINT('',#960);
#295=VERTEX_POINT('',#962);
#296=VERTEX_POINT('',#964);
#297=VERTEX_POINT('',#966);
#298=VERTEX_POINT('',#970);
#299=VERTEX_POINT('',#972);
#300=VERTEX_POINT('',#974);
#301=VERTEX_POINT('',#976);
#302=VERTEX_POINT('',#980);
#303=VERTEX_POINT('',#982);
#304=VERTEX_POINT('',#984);
#305=VERTEX_POINT('',#987);
#306=VERTEX_POINT('',#990);
#307=VERTEX_POINT('',#994);
#308=VERTEX_POINT('',#996);
#309=VERTEX_POINT('',#998);
#310=VERTEX_POINT('',#1002);
#311=VERTEX_POINT('',#1006);
#312=VERTEX_POINT('',#1007);
#313=VERTEX_POINT('',#1012);
#314=VERTEX_POINT('',#1013);
#315=VERTEX_POINT('',#1015);
#316=VERTEX_POINT('',#1017);
#317=VERTEX_POINT('',#1019);
#318=VERTEX_POINT('',#1021);
#319=VERTEX_POINT('',#1023);
#320=VERTEX_POINT('',#1025);
#321=VERTEX_POINT('',#1030);
#322=VERTEX_POINT('',#1032);
#323=VERTEX_POINT('',#1035);
#324=VERTEX_POINT('',#1037);
#325=VERTEX_POINT('',#1039);
#326=VERTEX_POINT('',#1041);
#327=VERTEX_POINT('',#1043);
#328=VERTEX_POINT('',#1045);
#329=VERTEX_POINT('',#1047);
#330=VERTEX_POINT('',#1050);
#331=VERTEX_POINT('',#1052);
#332=VERTEX_POINT('',#1055);
#333=VERTEX_POINT('',#1057);
#334=VERTEX_POINT('',#1061);
#335=VERTEX_POINT('',#1063);
#336=VERTEX_POINT('',#1065);
#337=VERTEX_POINT('',#1073);
#338=VERTEX_POINT('',#1075);
#339=VERTEX_POINT('',#1077);
#340=VERTEX_POINT('',#1081);
#341=VERTEX_POINT('',#1084);
#342=VERTEX_POINT('',#1088);
#343=VERTEX_POINT('',#1092);
#344=VERTEX_POINT('',#1094);
#345=VERTEX_POINT('',#1098);
#346=VERTEX_POINT('',#1100);
#347=VERTEX_POINT('',#1107);
#348=VERTEX_POINT('',#1109);
#349=EDGE_CURVE('',#279,#280,#97,.T.);
#350=EDGE_CURVE('',#280,#281,#98,.T.);
#351=EDGE_CURVE('',#281,#282,#99,.T.);
#352=EDGE_CURVE('',#282,#283,#100,.T.);
#353=EDGE_CURVE('',#283,#284,#101,.T.);
#354=EDGE_CURVE('',#284,#285,#102,.T.);
#355=EDGE_CURVE('',#285,#286,#103,.T.);
#356=EDGE_CURVE('',#286,#279,#104,.T.);
#357=EDGE_CURVE('',#287,#288,#105,.T.);
#358=EDGE_CURVE('',#288,#289,#106,.T.);
#359=EDGE_CURVE('',#289,#290,#107,.T.);
#360=EDGE_CURVE('',#290,#291,#108,.T.);
#361=EDGE_CURVE('',#291,#292,#109,.T.);
#362=EDGE_CURVE('',#292,#293,#110,.T.);
#363=EDGE_CURVE('',#293,#294,#111,.T.);
#364=EDGE_CURVE('',#294,#295,#112,.T.);
#365=EDGE_CURVE('',#295,#296,#113,.T.);
#366=EDGE_CURVE('',#296,#297,#114,.T.);
#367=EDGE_CURVE('',#297,#287,#115,.T.);
#368=EDGE_CURVE('',#281,#298,#116,.T.);
#369=EDGE_CURVE('',#299,#298,#117,.T.);
#370=EDGE_CURVE('',#299,#300,#118,.T.);
#371=EDGE_CURVE('',#300,#301,#119,.T.);
#372=EDGE_CURVE('',#282,#301,#120,.T.);
#373=EDGE_CURVE('',#302,#280,#121,.T.);
#374=EDGE_CURVE('',#302,#303,#122,.T.);
#375=EDGE_CURVE('',#304,#303,#123,.T.);
#376=EDGE_CURVE('',#298,#304,#124,.T.);
#377=EDGE_CURVE('',#305,#305,#23,.T.);
#378=EDGE_CURVE('',#306,#279,#125,.T.);
#379=EDGE_CURVE('',#306,#302,#126,.T.);
#380=EDGE_CURVE('',#307,#296,#127,.T.);
#381=EDGE_CURVE('',#307,#308,#128,.T.);
#382=EDGE_CURVE('',#309,#308,#129,.T.);
#383=EDGE_CURVE('',#309,#297,#130,.T.);
#384=EDGE_CURVE('',#295,#310,#131,.T.);
#385=EDGE_CURVE('',#310,#307,#132,.T.);
#386=EDGE_CURVE('',#311,#312,#133,.T.);
#387=EDGE_CURVE('',#312,#310,#134,.T.);
#388=EDGE_CURVE('',#311,#294,#135,.T.);
#389=EDGE_CURVE('',#313,#314,#136,.T.);
#390=EDGE_CURVE('',#315,#313,#137,.T.);
#391=EDGE_CURVE('',#315,#316,#138,.T.);
#392=EDGE_CURVE('',#317,#316,#139,.T.);
#393=EDGE_CURVE('',#317,#318,#140,.T.);
#394=EDGE_CURVE('',#318,#319,#141,.T.);
#395=EDGE_CURVE('',#319,#320,#142,.T.);
#396=EDGE_CURVE('',#320,#312,#143,.T.);
#397=EDGE_CURVE('',#314,#291,#144,.T.);
#398=EDGE_CURVE('',#301,#321,#145,.T.);
#399=EDGE_CURVE('',#321,#322,#24,.T.);
#400=EDGE_CURVE('',#322,#313,#146,.T.);
#401=EDGE_CURVE('',#290,#323,#147,.T.);
#402=EDGE_CURVE('',#323,#324,#148,.T.);
#403=EDGE_CURVE('',#324,#325,#149,.T.);
#404=EDGE_CURVE('',#325,#326,#150,.T.);
#405=EDGE_CURVE('',#326,#327,#25,.T.);
#406=EDGE_CURVE('',#327,#328,#151,.T.);
#407=EDGE_CURVE('',#328,#329,#152,.T.);
#408=EDGE_CURVE('',#329,#283,#153,.T.);
#409=EDGE_CURVE('',#330,#330,#26,.T.);
#410=EDGE_CURVE('',#331,#331,#27,.T.);
#411=EDGE_CURVE('',#332,#319,#154,.T.);
#412=EDGE_CURVE('',#333,#332,#155,.T.);
#413=EDGE_CURVE('',#308,#333,#156,.T.);
#414=EDGE_CURVE('',#334,#306,#157,.T.);
#415=EDGE_CURVE('',#335,#334,#158,.T.);
#416=EDGE_CURVE('',#336,#335,#159,.T.);
#417=EDGE_CURVE('',#303,#336,#160,.T.);
#418=EDGE_CURVE('',#335,#285,#161,.T.);
#419=EDGE_CURVE('',#334,#286,#162,.T.);
#420=EDGE_CURVE('',#332,#337,#163,.T.);
#421=EDGE_CURVE('',#338,#317,#164,.T.);
#422=EDGE_CURVE('',#339,#338,#165,.T.);
#423=EDGE_CURVE('',#289,#339,#166,.T.);
#424=EDGE_CURVE('',#337,#288,#167,.T.);
#425=EDGE_CURVE('',#340,#340,#28,.T.);
#426=EDGE_CURVE('',#341,#322,#168,.T.);
#427=EDGE_CURVE('',#315,#341,#169,.T.);
#428=EDGE_CURVE('',#342,#300,#170,.T.);
#429=EDGE_CURVE('',#321,#342,#171,.T.);
#430=EDGE_CURVE('',#343,#325,#172,.T.);
#431=EDGE_CURVE('',#344,#343,#173,.T.);
#432=EDGE_CURVE('',#326,#344,#174,.T.);
#433=EDGE_CURVE('',#345,#327,#175,.T.);
#434=EDGE_CURVE('',#346,#345,#176,.T.);
#435=EDGE_CURVE('',#346,#328,#177,.T.);
#436=EDGE_CURVE('',#342,#341,#29,.T.);
#437=EDGE_CURVE('',#344,#345,#30,.T.);
#438=EDGE_CURVE('',#347,#343,#178,.T.);
#439=EDGE_CURVE('',#348,#347,#179,.T.);
#440=EDGE_CURVE('',#346,#348,#180,.T.);
#441=EDGE_CURVE('',#347,#324,#181,.T.);
#442=EDGE_CURVE('',#316,#299,#182,.T.);
#443=EDGE_CURVE('',#304,#348,#183,.T.);
#444=EDGE_CURVE('',#339,#323,#184,.T.);
#445=EDGE_CURVE('',#284,#336,#185,.T.);
#446=EDGE_CURVE('',#305,#331,#186,.T.);
#447=EDGE_CURVE('',#340,#330,#187,.T.);
#448=ORIENTED_EDGE('',*,*,#349,.T.);
#449=ORIENTED_EDGE('',*,*,#350,.T.);
#450=ORIENTED_EDGE('',*,*,#351,.T.);
#451=ORIENTED_EDGE('',*,*,#352,.T.);
#452=ORIENTED_EDGE('',*,*,#353,.T.);
#453=ORIENTED_EDGE('',*,*,#354,.T.);
#454=ORIENTED_EDGE('',*,*,#355,.T.);
#455=ORIENTED_EDGE('',*,*,#356,.T.);
#456=ORIENTED_EDGE('',*,*,#357,.T.);
#457=ORIENTED_EDGE('',*,*,#358,.T.);
#458=ORIENTED_EDGE('',*,*,#359,.T.);
#459=ORIENTED_EDGE('',*,*,#360,.T.);
#460=ORIENTED_EDGE('',*,*,#361,.T.);
#461=ORIENTED_EDGE('',*,*,#362,.T.);
#462=ORIENTED_EDGE('',*,*,#363,.T.);
#463=ORIENTED_EDGE('',*,*,#364,.T.);
#464=ORIENTED_EDGE('',*,*,#365,.T.);
#465=ORIENTED_EDGE('',*,*,#366,.T.);
#466=ORIENTED_EDGE('',*,*,#367,.T.);
#467=ORIENTED_EDGE('',*,*,#368,.T.);
#468=ORIENTED_EDGE('',*,*,#369,.F.);
#469=ORIENTED_EDGE('',*,*,#370,.T.);
#470=ORIENTED_EDGE('',*,*,#371,.T.);
#471=ORIENTED_EDGE('',*,*,#372,.F.);
#472=ORIENTED_EDGE('',*,*,#351,.F.);
#473=ORIENTED_EDGE('',*,*,#373,.F.);
#474=ORIENTED_EDGE('',*,*,#374,.T.);
#475=ORIENTED_EDGE('',*,*,#375,.F.);
#476=ORIENTED_EDGE('',*,*,#376,.F.);
#477=ORIENTED_EDGE('',*,*,#368,.F.);
#478=ORIENTED_EDGE('',*,*,#350,.F.);
#479=ORIENTED_EDGE('',*,*,#377,.F.);
#480=ORIENTED_EDGE('',*,*,#378,.F.);
#481=ORIENTED_EDGE('',*,*,#379,.T.);
#482=ORIENTED_EDGE('',*,*,#373,.T.);
#483=ORIENTED_EDGE('',*,*,#349,.F.);
#484=ORIENTED_EDGE('',*,*,#380,.F.);
#485=ORIENTED_EDGE('',*,*,#381,.T.);
#486=ORIENTED_EDGE('',*,*,#382,.F.);
#487=ORIENTED_EDGE('',*,*,#383,.T.);
#488=ORIENTED_EDGE('',*,*,#366,.F.);
#489=ORIENTED_EDGE('',*,*,#384,.T.);
#490=ORIENTED_EDGE('',*,*,#385,.T.);
#491=ORIENTED_EDGE('',*,*,#380,.T.);
#492=ORIENTED_EDGE('',*,*,#365,.F.);
#493=ORIENTED_EDGE('',*,*,#386,.T.);
#494=ORIENTED_EDGE('',*,*,#387,.T.);
#495=ORIENTED_EDGE('',*,*,#384,.F.);
#496=ORIENTED_EDGE('',*,*,#364,.F.);
#497=ORIENTED_EDGE('',*,*,#388,.F.);
#498=ORIENTED_EDGE('',*,*,#389,.F.);
#499=ORIENTED_EDGE('',*,*,#390,.F.);
#500=ORIENTED_EDGE('',*,*,#391,.T.);
#501=ORIENTED_EDGE('',*,*,#392,.F.);
#502=ORIENTED_EDGE('',*,*,#393,.T.);
#503=ORIENTED_EDGE('',*,*,#394,.T.);
#504=ORIENTED_EDGE('',*,*,#395,.T.);
#505=ORIENTED_EDGE('',*,*,#396,.T.);
#506=ORIENTED_EDGE('',*,*,#386,.F.);
#507=ORIENTED_EDGE('',*,*,#388,.T.);
#508=ORIENTED_EDGE('',*,*,#363,.F.);
#509=ORIENTED_EDGE('',*,*,#362,.F.);
#510=ORIENTED_EDGE('',*,*,#361,.F.);
#511=ORIENTED_EDGE('',*,*,#397,.F.);
#512=ORIENTED_EDGE('',*,*,#372,.T.);
#513=ORIENTED_EDGE('',*,*,#398,.T.);
#514=ORIENTED_EDGE('',*,*,#399,.T.);
#515=ORIENTED_EDGE('',*,*,#400,.T.);
#516=ORIENTED_EDGE('',*,*,#389,.T.);
#517=ORIENTED_EDGE('',*,*,#397,.T.);
#518=ORIENTED_EDGE('',*,*,#360,.F.);
#519=ORIENTED_EDGE('',*,*,#401,.T.);
#520=ORIENTED_EDGE('',*,*,#402,.T.);
#521=ORIENTED_EDGE('',*,*,#403,.T.);
#522=ORIENTED_EDGE('',*,*,#404,.T.);
#523=ORIENTED_EDGE('',*,*,#405,.T.);
#524=ORIENTED_EDGE('',*,*,#406,.T.);
#525=ORIENTED_EDGE('',*,*,#407,.T.);
#526=ORIENTED_EDGE('',*,*,#408,.T.);
#527=ORIENTED_EDGE('',*,*,#352,.F.);
#528=ORIENTED_EDGE('',*,*,#409,.T.);
#529=ORIENTED_EDGE('',*,*,#410,.T.);
#530=ORIENTED_EDGE('',*,*,#381,.F.);
#531=ORIENTED_EDGE('',*,*,#385,.F.);
#532=ORIENTED_EDGE('',*,*,#387,.F.);
#533=ORIENTED_EDGE('',*,*,#396,.F.);
#534=ORIENTED_EDGE('',*,*,#395,.F.);
#535=ORIENTED_EDGE('',*,*,#411,.F.);
#536=ORIENTED_EDGE('',*,*,#412,.F.);
#537=ORIENTED_EDGE('',*,*,#413,.F.);
#538=ORIENTED_EDGE('',*,*,#414,.F.);
#539=ORIENTED_EDGE('',*,*,#415,.F.);
#540=ORIENTED_EDGE('',*,*,#416,.F.);
#541=ORIENTED_EDGE('',*,*,#417,.F.);
#542=ORIENTED_EDGE('',*,*,#374,.F.);
#543=ORIENTED_EDGE('',*,*,#379,.F.);
#544=ORIENTED_EDGE('',*,*,#418,.F.);
#545=ORIENTED_EDGE('',*,*,#415,.T.);
#546=ORIENTED_EDGE('',*,*,#419,.T.);
#547=ORIENTED_EDGE('',*,*,#355,.F.);
#548=ORIENTED_EDGE('',*,*,#419,.F.);
#549=ORIENTED_EDGE('',*,*,#414,.T.);
#550=ORIENTED_EDGE('',*,*,#378,.T.);
#551=ORIENTED_EDGE('',*,*,#356,.F.);
#552=ORIENTED_EDGE('',*,*,#420,.F.);
#553=ORIENTED_EDGE('',*,*,#411,.T.);
#554=ORIENTED_EDGE('',*,*,#394,.F.);
#555=ORIENTED_EDGE('',*,*,#393,.F.);
#556=ORIENTED_EDGE('',*,*,#421,.F.);
#557=ORIENTED_EDGE('',*,*,#422,.F.);
#558=ORIENTED_EDGE('',*,*,#423,.F.);
#559=ORIENTED_EDGE('',*,*,#358,.F.);
#560=ORIENTED_EDGE('',*,*,#424,.F.);
#561=ORIENTED_EDGE('',*,*,#425,.F.);
#562=ORIENTED_EDGE('',*,*,#426,.F.);
#563=ORIENTED_EDGE('',*,*,#427,.F.);
#564=ORIENTED_EDGE('',*,*,#390,.T.);
#565=ORIENTED_EDGE('',*,*,#400,.F.);
#566=ORIENTED_EDGE('',*,*,#398,.F.);
#567=ORIENTED_EDGE('',*,*,#371,.F.);
#568=ORIENTED_EDGE('',*,*,#428,.F.);
#569=ORIENTED_EDGE('',*,*,#429,.F.);
#570=ORIENTED_EDGE('',*,*,#404,.F.);
#571=ORIENTED_EDGE('',*,*,#430,.F.);
#572=ORIENTED_EDGE('',*,*,#431,.F.);
#573=ORIENTED_EDGE('',*,*,#432,.F.);
#574=ORIENTED_EDGE('',*,*,#406,.F.);
#575=ORIENTED_EDGE('',*,*,#433,.F.);
#576=ORIENTED_EDGE('',*,*,#434,.F.);
#577=ORIENTED_EDGE('',*,*,#435,.T.);
#578=ORIENTED_EDGE('',*,*,#429,.T.);
#579=ORIENTED_EDGE('',*,*,#436,.T.);
#580=ORIENTED_EDGE('',*,*,#426,.T.);
#581=ORIENTED_EDGE('',*,*,#399,.F.);
#582=ORIENTED_EDGE('',*,*,#434,.T.);
#583=ORIENTED_EDGE('',*,*,#437,.F.);
#584=ORIENTED_EDGE('',*,*,#431,.T.);
#585=ORIENTED_EDGE('',*,*,#438,.F.);
#586=ORIENTED_EDGE('',*,*,#439,.F.);
#587=ORIENTED_EDGE('',*,*,#440,.F.);
#588=ORIENTED_EDGE('',*,*,#430,.T.);
#589=ORIENTED_EDGE('',*,*,#403,.F.);
#590=ORIENTED_EDGE('',*,*,#441,.F.);
#591=ORIENTED_EDGE('',*,*,#438,.T.);
#592=ORIENTED_EDGE('',*,*,#428,.T.);
#593=ORIENTED_EDGE('',*,*,#370,.F.);
#594=ORIENTED_EDGE('',*,*,#442,.F.);
#595=ORIENTED_EDGE('',*,*,#391,.F.);
#596=ORIENTED_EDGE('',*,*,#427,.T.);
#597=ORIENTED_EDGE('',*,*,#436,.F.);
#598=ORIENTED_EDGE('',*,*,#421,.T.);
#599=ORIENTED_EDGE('',*,*,#392,.T.);
#600=ORIENTED_EDGE('',*,*,#442,.T.);
#601=ORIENTED_EDGE('',*,*,#369,.T.);
#602=ORIENTED_EDGE('',*,*,#376,.T.);
#603=ORIENTED_EDGE('',*,*,#443,.T.);
#604=ORIENTED_EDGE('',*,*,#439,.T.);
#605=ORIENTED_EDGE('',*,*,#441,.T.);
#606=ORIENTED_EDGE('',*,*,#402,.F.);
#607=ORIENTED_EDGE('',*,*,#444,.F.);
#608=ORIENTED_EDGE('',*,*,#422,.T.);
#609=ORIENTED_EDGE('',*,*,#407,.F.);
#610=ORIENTED_EDGE('',*,*,#435,.F.);
#611=ORIENTED_EDGE('',*,*,#440,.T.);
#612=ORIENTED_EDGE('',*,*,#443,.F.);
#613=ORIENTED_EDGE('',*,*,#375,.T.);
#614=ORIENTED_EDGE('',*,*,#417,.T.);
#615=ORIENTED_EDGE('',*,*,#445,.F.);
#616=ORIENTED_EDGE('',*,*,#353,.F.);
#617=ORIENTED_EDGE('',*,*,#408,.F.);
#618=ORIENTED_EDGE('',*,*,#445,.T.);
#619=ORIENTED_EDGE('',*,*,#416,.T.);
#620=ORIENTED_EDGE('',*,*,#418,.T.);
#621=ORIENTED_EDGE('',*,*,#354,.F.);
#622=ORIENTED_EDGE('',*,*,#423,.T.);
#623=ORIENTED_EDGE('',*,*,#444,.T.);
#624=ORIENTED_EDGE('',*,*,#401,.F.);
#625=ORIENTED_EDGE('',*,*,#359,.F.);
#626=ORIENTED_EDGE('',*,*,#382,.T.);
#627=ORIENTED_EDGE('',*,*,#413,.T.);
#628=ORIENTED_EDGE('',*,*,#412,.T.);
#629=ORIENTED_EDGE('',*,*,#420,.T.);
#630=ORIENTED_EDGE('',*,*,#424,.T.);
#631=ORIENTED_EDGE('',*,*,#357,.F.);
#632=ORIENTED_EDGE('',*,*,#367,.F.);
#633=ORIENTED_EDGE('',*,*,#383,.F.);
#634=ORIENTED_EDGE('',*,*,#377,.T.);
#635=ORIENTED_EDGE('',*,*,#446,.T.);
#636=ORIENTED_EDGE('',*,*,#410,.F.);
#637=ORIENTED_EDGE('',*,*,#446,.F.);
#638=ORIENTED_EDGE('',*,*,#432,.T.);
#639=ORIENTED_EDGE('',*,*,#437,.T.);
#640=ORIENTED_EDGE('',*,*,#433,.T.);
#641=ORIENTED_EDGE('',*,*,#405,.F.);
#642=ORIENTED_EDGE('',*,*,#425,.T.);
#643=ORIENTED_EDGE('',*,*,#447,.T.);
#644=ORIENTED_EDGE('',*,*,#409,.F.);
#645=ORIENTED_EDGE('',*,*,#447,.F.);
#646=PLANE('',#718);
#647=PLANE('',#719);
#648=PLANE('',#720);
#649=PLANE('',#721);
#650=PLANE('',#723);
#651=PLANE('',#724);
#652=PLANE('',#725);
#653=PLANE('',#726);
#654=PLANE('',#727);
#655=PLANE('',#728);
#656=PLANE('',#733);
#657=PLANE('',#734);
#658=PLANE('',#735);
#659=PLANE('',#736);
#660=PLANE('',#737);
#661=PLANE('',#739);
#662=PLANE('',#740);
#663=PLANE('',#741);
#664=PLANE('',#742);
#665=PLANE('',#745);
#666=PLANE('',#747);
#667=PLANE('',#748);
#668=PLANE('',#749);
#669=PLANE('',#750);
#670=PLANE('',#751);
#671=PLANE('',#752);
#672=PLANE('',#753);
#673=ADVANCED_FACE('',(#31),#646,.T.);
#674=ADVANCED_FACE('',(#32),#647,.T.);
#675=ADVANCED_FACE('',(#33),#648,.F.);
#676=ADVANCED_FACE('',(#34,#19),#649,.T.);
#677=ADVANCED_FACE('',(#35),#650,.T.);
#678=ADVANCED_FACE('',(#36),#651,.F.);
#679=ADVANCED_FACE('',(#37),#652,.T.);
#680=ADVANCED_FACE('',(#38),#653,.T.);
#681=ADVANCED_FACE('',(#39),#654,.F.);
#682=ADVANCED_FACE('',(#40,#20,#21),#655,.F.);
#683=ADVANCED_FACE('',(#41),#656,.F.);
#684=ADVANCED_FACE('',(#42),#657,.F.);
#685=ADVANCED_FACE('',(#43),#658,.T.);
#686=ADVANCED_FACE('',(#44),#659,.F.);
#687=ADVANCED_FACE('',(#45,#22),#660,.T.);
#688=ADVANCED_FACE('',(#46),#661,.F.);
#689=ADVANCED_FACE('',(#47),#662,.F.);
#690=ADVANCED_FACE('',(#48),#663,.F.);
#691=ADVANCED_FACE('',(#49),#664,.F.);
#692=ADVANCED_FACE('',(#50),#15,.F.);
#693=ADVANCED_FACE('',(#51),#665,.T.);
#694=ADVANCED_FACE('',(#52),#666,.T.);
#695=ADVANCED_FACE('',(#53),#667,.T.);
#696=ADVANCED_FACE('',(#54),#668,.T.);
#697=ADVANCED_FACE('',(#55),#669,.F.);
#698=ADVANCED_FACE('',(#56),#670,.T.);
#699=ADVANCED_FACE('',(#57),#671,.T.);
#700=ADVANCED_FACE('',(#58),#672,.T.);
#701=ADVANCED_FACE('',(#59),#16,.F.);
#702=ADVANCED_FACE('',(#60),#17,.F.);
#703=ADVANCED_FACE('',(#61),#18,.F.);
#704=CLOSED_SHELL('',(#673,#674,#675,#676,#677,#678,#679,#680,#681,#682,
#683,#684,#685,#686,#687,#688,#689,#690,#691,#692,#693,#694,#695,#696,#697,
#698,#699,#700,#701,#702,#703));
#705=DERIVED_UNIT_ELEMENT(#707,1.);
#706=DERIVED_UNIT_ELEMENT(#1134,-3.);
#707=(
MASS_UNIT()
NAMED_UNIT(*)
SI_UNIT(.KILO.,.GRAM.)
);
#708=DERIVED_UNIT((#705,#706));
#709=MEASURE_REPRESENTATION_ITEM('density measure',
POSITIVE_RATIO_MEASURE(7850.),#708);
#710=PROPERTY_DEFINITION_REPRESENTATION(#715,#712);
#711=PROPERTY_DEFINITION_REPRESENTATION(#716,#713);
#712=REPRESENTATION('material name',(#714),#1131);
#713=REPRESENTATION('density',(#709),#1131);
#714=DESCRIPTIVE_REPRESENTATION_ITEM('Steel','Steel');
#715=PROPERTY_DEFINITION('material property','material name',#1141);
#716=PROPERTY_DEFINITION('material property','density of part',#1141);
#717=AXIS2_PLACEMENT_3D('',#928,#757,#758);
#718=AXIS2_PLACEMENT_3D('',#929,#759,#760);
#719=AXIS2_PLACEMENT_3D('',#946,#769,#770);
#720=AXIS2_PLACEMENT_3D('',#969,#782,#783);
#721=AXIS2_PLACEMENT_3D('',#979,#789,#790);
#722=AXIS2_PLACEMENT_3D('',#988,#795,#796);
#723=AXIS2_PLACEMENT_3D('',#989,#797,#798);
#724=AXIS2_PLACEMENT_3D('',#993,#801,#802);
#725=AXIS2_PLACEMENT_3D('',#1001,#807,#808);
#726=AXIS2_PLACEMENT_3D('',#1005,#811,#812);
#727=AXIS2_PLACEMENT_3D('',#1011,#816,#817);
#728=AXIS2_PLACEMENT_3D('',#1029,#827,#828);
#729=AXIS2_PLACEMENT_3D('',#1033,#830,#831);
#730=AXIS2_PLACEMENT_3D('',#1044,#837,#838);
#731=AXIS2_PLACEMENT_3D('',#1051,#842,#843);
#732=AXIS2_PLACEMENT_3D('',#1053,#844,#845);
#733=AXIS2_PLACEMENT_3D('',#1054,#846,#847);
#734=AXIS2_PLACEMENT_3D('',#1060,#851,#852);
#735=AXIS2_PLACEMENT_3D('',#1068,#857,#858);
#736=AXIS2_PLACEMENT_3D('',#1071,#861,#862);
#737=AXIS2_PLACEMENT_3D('',#1072,#863,#864);
#738=AXIS2_PLACEMENT_3D('',#1082,#870,#871);
#739=AXIS2_PLACEMENT_3D('',#1083,#872,#873);
#740=AXIS2_PLACEMENT_3D('',#1087,#876,#877);
#741=AXIS2_PLACEMENT_3D('',#1091,#880,#881);
#742=AXIS2_PLACEMENT_3D('',#1097,#885,#886);
#743=AXIS2_PLACEMENT_3D('',#1103,#890,#891);
#744=AXIS2_PLACEMENT_3D('',#1104,#892,#893);
#745=AXIS2_PLACEMENT_3D('',#1105,#894,#895);
#746=AXIS2_PLACEMENT_3D('',#1106,#896,#897);
#747=AXIS2_PLACEMENT_3D('',#1112,#901,#902);
#748=AXIS2_PLACEMENT_3D('',#1114,#904,#905);
#749=AXIS2_PLACEMENT_3D('',#1116,#907,#908);
#750=AXIS2_PLACEMENT_3D('',#1119,#911,#912);
#751=AXIS2_PLACEMENT_3D('',#1121,#914,#915);
#752=AXIS2_PLACEMENT_3D('',#1122,#916,#917);
#753=AXIS2_PLACEMENT_3D('',#1123,#918,#919);
#754=AXIS2_PLACEMENT_3D('',#1124,#920,#921);
#755=AXIS2_PLACEMENT_3D('',#1126,#923,#924);
#756=AXIS2_PLACEMENT_3D('',#1127,#925,#926);
#757=DIRECTION('axis',(0.,0.,1.));
#758=DIRECTION('refdir',(1.,0.,0.));
#759=DIRECTION('center_axis',(0.,0.,-1.));
#760=DIRECTION('ref_axis',(-1.,0.,0.));
#761=DIRECTION('',(0.,-1.,0.));
#762=DIRECTION('',(1.,0.,0.));
#763=DIRECTION('',(0.,-1.,0.));
#764=DIRECTION('',(-1.,0.,0.));
#765=DIRECTION('',(0.,1.,0.));
#766=DIRECTION('',(1.,0.,0.));
#767=DIRECTION('',(0.,-1.,0.));
#768=DIRECTION('',(-1.,0.,0.));
#769=DIRECTION('center_axis',(0.,0.,-1.));
#770=DIRECTION('ref_axis',(-1.,0.,0.));
#771=DIRECTION('',(0.,-1.,0.));
#772=DIRECTION('',(1.,0.,0.));
#773=DIRECTION('',(0.,-1.,0.));
#774=DIRECTION('',(-1.,0.,0.));
#775=DIRECTION('',(0.,1.,0.));
#776=DIRECTION('',(0.,1.,0.));
#777=DIRECTION('',(0.,1.,0.));
#778=DIRECTION('',(1.,0.,0.));
#779=DIRECTION('',(0.,-1.,0.));
#780=DIRECTION('',(-1.,0.,0.));
#781=DIRECTION('',(0.,-1.,0.));
#782=DIRECTION('center_axis',(-1.,0.,0.));
#783=DIRECTION('ref_axis',(0.,0.,-1.));
#784=DIRECTION('',(0.,0.,1.));
#785=DIRECTION('',(0.,1.,0.));
#786=DIRECTION('',(0.,0.,-1.));
#787=DIRECTION('',(0.,-1.,0.));
#788=DIRECTION('',(0.,0.,1.));
#789=DIRECTION('center_axis',(0.,1.,0.));
#790=DIRECTION('ref_axis',(-1.,0.,0.));
#791=DIRECTION('',(0.,0.,-1.));
#792=DIRECTION('',(-1.,0.,0.));
#793=DIRECTION('',(0.,0.,-1.));
#794=DIRECTION('',(-1.,0.,0.));
#795=DIRECTION('center_axis',(0.,1.,0.));
#796=DIRECTION('ref_axis',(-1.,0.,0.));
#797=DIRECTION('center_axis',(1.,0.,0.));
#798=DIRECTION('ref_axis',(0.,0.,-1.));
#799=DIRECTION('',(0.,0.,-1.));
#800=DIRECTION('',(0.,-1.,0.));
#801=DIRECTION('center_axis',(0.,1.,0.));
#802=DIRECTION('ref_axis',(0.,0.,1.));
#803=DIRECTION('',(0.,0.,-1.));
#804=DIRECTION('',(-1.,0.,0.));
#805=DIRECTION('',(0.,0.,1.));
#806=DIRECTION('',(0.,0.,-1.));
#807=DIRECTION('center_axis',(1.,0.,0.));
#808=DIRECTION('ref_axis',(0.,0.,-1.));
#809=DIRECTION('',(0.,0.,1.));
#810=DIRECTION('',(0.,-1.,0.));
#811=DIRECTION('center_axis',(0.,1.,0.));
#812=DIRECTION('ref_axis',(0.,0.,1.));
#813=DIRECTION('',(0.,0.,1.));
#814=DIRECTION('',(1.,0.,0.));
#815=DIRECTION('',(0.,0.,-1.));
#816=DIRECTION('center_axis',(1.,0.,0.));
#817=DIRECTION('ref_axis',(0.,0.,-1.));
#818=DIRECTION('',(0.,0.,-1.));
#819=DIRECTION('',(0.,-1.,0.));
#820=DIRECTION('',(0.,0.,1.));
#821=DIRECTION('',(0.,-1.,0.));
#822=DIRECTION('',(0.,0.,-1.));
#823=DIRECTION('',(0.,0.,-1.));
#824=DIRECTION('',(0.,1.,0.));
#825=DIRECTION('',(0.,1.,0.));
#826=DIRECTION('',(0.,0.,-1.));
#827=DIRECTION('center_axis',(0.,1.,0.));
#828=DIRECTION('ref_axis',(-1.,0.,0.));
#829=DIRECTION('',(1.,0.,0.));
#830=DIRECTION('center_axis',(0.,1.,0.));
#831=DIRECTION('ref_axis',(-1.,0.,0.));
#832=DIRECTION('',(1.,0.,0.));
#833=DIRECTION('',(0.,0.,1.));
#834=DIRECTION('',(-1.,0.,0.));
#835=DIRECTION('',(0.,0.,-1.));
#836=DIRECTION('',(1.,0.,0.));
#837=DIRECTION('center_axis',(0.,1.,0.));
#838=DIRECTION('ref_axis',(-1.,0.,0.));
#839=DIRECTION('',(1.,0.,0.));
#840=DIRECTION('',(0.,0.,-1.));
#841=DIRECTION('',(0.,0.,-1.));
#842=DIRECTION('center_axis',(0.,1.,0.));
#843=DIRECTION('ref_axis',(-1.,0.,0.));
#844=DIRECTION('center_axis',(0.,1.,0.));
#845=DIRECTION('ref_axis',(-1.,0.,0.));
#846=DIRECTION('center_axis',(0.,0.,-1.));
#847=DIRECTION('ref_axis',(-1.,0.,0.));
#848=DIRECTION('',(-1.,0.,0.));
#849=DIRECTION('',(0.,-1.,0.));
#850=DIRECTION('',(0.,-1.,0.));
#851=DIRECTION('center_axis',(0.,0.,-1.));
#852=DIRECTION('ref_axis',(-1.,0.,0.));
#853=DIRECTION('',(-1.,0.,0.));
#854=DIRECTION('',(0.,-1.,0.));
#855=DIRECTION('',(1.,0.,0.));
#856=DIRECTION('',(0.,1.,0.));
#857=DIRECTION('center_axis',(1.,0.,0.));
#858=DIRECTION('ref_axis',(0.,0.,-1.));
#859=DIRECTION('',(0.,0.,-1.));
#860=DIRECTION('',(0.,0.,-1.));
#861=DIRECTION('center_axis',(0.,1.,0.));
#862=DIRECTION('ref_axis',(-1.,0.,0.));
#863=DIRECTION('center_axis',(0.,1.,0.));
#864=DIRECTION('ref_axis',(-1.,0.,0.));
#865=DIRECTION('',(0.,0.,-1.));
#866=DIRECTION('',(-1.,0.,0.));
#867=DIRECTION('',(-1.,0.,0.));
#868=DIRECTION('',(0.,0.,1.));
#869=DIRECTION('',(0.,0.,-1.));
#870=DIRECTION('center_axis',(0.,1.,0.));
#871=DIRECTION('ref_axis',(-1.,0.,0.));
#872=DIRECTION('center_axis',(0.,0.,1.));
#873=DIRECTION('ref_axis',(-1.,0.,0.));
#874=DIRECTION('',(0.,-1.,0.));
#875=DIRECTION('',(-1.,0.,0.));
#876=DIRECTION('center_axis',(0.,0.,1.));
#877=DIRECTION('ref_axis',(-1.,0.,0.));
#878=DIRECTION('',(-1.,0.,0.));
#879=DIRECTION('',(0.,1.,0.));
#880=DIRECTION('center_axis',(0.,0.,1.));
#881=DIRECTION('ref_axis',(-1.,0.,0.));
#882=DIRECTION('',(0.,-1.,0.));
#883=DIRECTION('',(-1.,0.,0.));
#884=DIRECTION('',(0.,1.,0.));
#885=DIRECTION('center_axis',(0.,0.,1.));
#886=DIRECTION('ref_axis',(-1.,0.,0.));
#887=DIRECTION('',(0.,-1.,0.));
#888=DIRECTION('',(-1.,0.,0.));
#889=DIRECTION('',(0.,-1.,0.));
#890=DIRECTION('center_axis',(0.,1.,0.));
#891=DIRECTION('ref_axis',(-1.,0.,0.));
#892=DIRECTION('center_axis',(0.,1.,0.));
#893=DIRECTION('ref_axis',(-1.,0.,0.));
#894=DIRECTION('center_axis',(0.,1.,0.));
#895=DIRECTION('ref_axis',(-1.,0.,0.));
#896=DIRECTION('center_axis',(0.,1.,0.));
#897=DIRECTION('ref_axis',(-1.,0.,0.));
#898=DIRECTION('',(0.,0.,-1.));
#899=DIRECTION('',(-1.,0.,0.));
#900=DIRECTION('',(0.,0.,1.));
#901=DIRECTION('center_axis',(-1.,0.,0.));
#902=DIRECTION('ref_axis',(0.,0.,1.));
#903=DIRECTION('',(0.,-1.,0.));
#904=DIRECTION('center_axis',(0.,1.,0.));
#905=DIRECTION('ref_axis',(-1.,0.,0.));
#906=DIRECTION('',(-1.,0.,0.));
#907=DIRECTION('center_axis',(0.,0.,1.));
#908=DIRECTION('ref_axis',(1.,0.,0.));
#909=DIRECTION('',(0.,-1.,0.));
#910=DIRECTION('',(0.,-1.,0.));
#911=DIRECTION('center_axis',(1.,0.,0.));
#912=DIRECTION('ref_axis',(0.,0.,-1.));
#913=DIRECTION('',(0.,0.,1.));
#914=DIRECTION('center_axis',(0.,1.,0.));
#915=DIRECTION('ref_axis',(0.,0.,1.));
#916=DIRECTION('center_axis',(1.,0.,0.));
#917=DIRECTION('ref_axis',(0.,0.,-1.));
#918=DIRECTION('center_axis',(1.,0.,0.));
#919=DIRECTION('ref_axis',(0.,0.,-1.));
#920=DIRECTION('center_axis',(0.,1.,0.));
#921=DIRECTION('ref_axis',(-1.,0.,0.));
#922=DIRECTION('',(0.,-1.,0.));
#923=DIRECTION('center_axis',(0.,1.,0.));
#924=DIRECTION('ref_axis',(-1.,0.,0.));
#925=DIRECTION('center_axis',(0.,1.,0.));
#926=DIRECTION('ref_axis',(-1.,0.,0.));
#927=DIRECTION('',(0.,-1.,0.));
#928=CARTESIAN_POINT('',(0.,0.,0.));
#929=CARTESIAN_POINT('Origin',(545.,-494.65,494.000015288591));
#930=CARTESIAN_POINT('',(410.,-464.65,494.000015288591));
#931=CARTESIAN_POINT('',(410.,-494.65,494.000015288591));
#932=CARTESIAN_POINT('',(410.,-489.65,494.000015288591));
#933=CARTESIAN_POINT('',(440.000006556511,-494.65,494.000015288591));
#934=CARTESIAN_POINT('',(500.,-494.65,494.000015288591));
#935=CARTESIAN_POINT('',(440.000006556511,-517.65,494.000007390976));
#936=CARTESIAN_POINT('',(440.000006556511,-489.65,494.000015288591));
#937=CARTESIAN_POINT('',(403.000006005168,-517.65,494.000015288591));
#938=CARTESIAN_POINT('',(500.,-517.65,494.000015288591));
#939=CARTESIAN_POINT('',(403.,-454.65,494.000015288591));
#940=CARTESIAN_POINT('',(403.,-489.65,494.000015288591));
#941=CARTESIAN_POINT('',(440.,-454.65,494.000015288591));
#942=CARTESIAN_POINT('',(482.5,-454.65,494.000015288591));
#943=CARTESIAN_POINT('',(440.,-464.65,494.000015288591));
#944=CARTESIAN_POINT('',(440.,-489.65,494.000015288591));
#945=CARTESIAN_POINT('',(485.,-464.65,494.000015288591));
#946=CARTESIAN_POINT('Origin',(545.,-494.65,494.000015288591));
#947=CARTESIAN_POINT('',(490.000007301569,-484.65,494.000015288591));
#948=CARTESIAN_POINT('',(490.000007301569,-494.65,494.000015288591));
#949=CARTESIAN_POINT('',(490.,-489.65,494.000015288591));
#950=CARTESIAN_POINT('',(545.,-494.65,494.000015288591));
#951=CARTESIAN_POINT('',(500.,-494.65,494.000015288591));
#952=CARTESIAN_POINT('',(545.,-517.65,494.000015288591));
#953=CARTESIAN_POINT('',(545.,-494.65,494.000015288591));
#954=CARTESIAN_POINT('',(483.000007197261,-517.65,494.000007390976));
#955=CARTESIAN_POINT('',(500.,-517.65,494.000015288591));
#956=CARTESIAN_POINT('',(483.,-506.65,494.000015288591));
#957=CARTESIAN_POINT('',(483.000007748604,-489.65,494.000015288591));
#958=CARTESIAN_POINT('',(483.,-484.65,494.000015288591));
#959=CARTESIAN_POINT('',(483.000007748604,-489.65,494.000015288591));
#960=CARTESIAN_POINT('',(483.,-454.65,494.000015288591));
#961=CARTESIAN_POINT('',(483.000007748604,-489.65,494.000015288591));
#962=CARTESIAN_POINT('',(520.,-454.65,494.000015288591));
#963=CARTESIAN_POINT('',(522.5,-454.65,494.000015288591));
#964=CARTESIAN_POINT('',(520.,-464.65,494.000015288591));
#965=CARTESIAN_POINT('',(520.,-489.65,494.000015288591));
#966=CARTESIAN_POINT('',(490.000007301569,-464.65,494.000015288591));
#967=CARTESIAN_POINT('',(525.,-464.65,494.000015288591));
#968=CARTESIAN_POINT('',(490.,-489.65,494.000015288591));
#969=CARTESIAN_POINT('Origin',(440.000006556511,-484.65,533.000007942319));
#970=CARTESIAN_POINT('',(440.000006556511,-494.65,533.000007942319));
#971=CARTESIAN_POINT('',(440.000006556511,-494.65,526.250011716038));
#972=CARTESIAN_POINT('',(440.000006556511,-506.65,533.000015690923));
#973=CARTESIAN_POINT('',(440.000006556511,-489.65,533.000015690923));
#974=CARTESIAN_POINT('',(440.000006556511,-506.65,520.000007748604));
#975=CARTESIAN_POINT('',(440.000006556511,-506.65,496.000015288591));
#976=CARTESIAN_POINT('',(440.000006556511,-517.65,520.000007748604));
#977=CARTESIAN_POINT('',(440.000006556511,-506.65,520.000007748604));
#978=CARTESIAN_POINT('',(440.000006556511,-517.65,519.75001161918));
#979=CARTESIAN_POINT('Origin',(455.,-494.65,519.500015489757));
#980=CARTESIAN_POINT('',(410.,-494.65,507.000015288591));
#981=CARTESIAN_POINT('',(410.,-494.65,498.000015288591));
#982=CARTESIAN_POINT('',(403.,-494.65,507.000015288591));
#983=CARTESIAN_POINT('',(408.25,-494.65,507.000015288591));
#984=CARTESIAN_POINT('',(403.,-494.65,533.000015690923));
#985=CARTESIAN_POINT('',(403.,-494.65,507.500015288591));
#986=CARTESIAN_POINT('',(410.,-494.65,533.000015690923));
#987=CARTESIAN_POINT('',(427.75,-494.65,520.));
#988=CARTESIAN_POINT('Origin',(425.,-494.65,520.));
#989=CARTESIAN_POINT('Origin',(410.,-484.65,533.000015690923));
#990=CARTESIAN_POINT('',(410.,-464.65,507.000015288591));
#991=CARTESIAN_POINT('',(410.,-464.65,498.000015288591));
#992=CARTESIAN_POINT('',(410.,-474.65,507.000015288591));
#993=CARTESIAN_POINT('Origin',(505.,-464.65,510.000015288591));
#994=CARTESIAN_POINT('',(520.,-464.65,507.000015288591));
#995=CARTESIAN_POINT('',(520.,-464.65,498.000015288591));
#996=CARTESIAN_POINT('',(490.,-464.65,507.000015288591));
#997=CARTESIAN_POINT('',(497.5,-464.65,507.000015288591));
#998=CARTESIAN_POINT('',(490.000007301569,-464.65,498.000015288591));
#999=CARTESIAN_POINT('',(490.,-464.65,523.500019364059));
#1000=CARTESIAN_POINT('',(490.000007301569,-464.65,498.000015288591));
#1001=CARTESIAN_POINT('Origin',(520.,-484.65,514.000015288591));
#1002=CARTESIAN_POINT('',(520.,-454.65,507.000015288591));
#1003=CARTESIAN_POINT('',(520.,-454.65,514.000015288591));
#1004=CARTESIAN_POINT('',(520.,-484.65,507.000015288591));
#1005=CARTESIAN_POINT('Origin',(500.,-454.65,519.500019364059));
#1006=CARTESIAN_POINT('',(483.,-454.65,498.000015288591));
#1007=CARTESIAN_POINT('',(483.000018596649,-454.65,507.000015288591));
#1008=CARTESIAN_POINT('',(483.000007748604,-454.65,512.750017326325));
#1009=CARTESIAN_POINT('',(495.,-454.65,507.000015288591));
#1010=CARTESIAN_POINT('',(483.,-454.65,498.000015288591));
#1011=CARTESIAN_POINT('Origin',(483.000007748604,-484.65,506.000015288591));
#1012=CARTESIAN_POINT('',(483.000007197261,-517.65,520.000007748604));
#1013=CARTESIAN_POINT('',(483.000007197261,-517.65,498.000007390976));
#1014=CARTESIAN_POINT('',(483.000007197261,-517.65,507.750011440366));
#1015=CARTESIAN_POINT('',(483.000007197261,-506.65,520.000007748604));
#1016=CARTESIAN_POINT('',(483.000007197261,-506.65,520.000007748604));
#1017=CARTESIAN_POINT('',(483.,-506.65,533.000015690923));
#1018=CARTESIAN_POINT('',(483.,-506.65,533.000007942319));
#1019=CARTESIAN_POINT('',(483.,-494.65,533.000007942319));
#1020=CARTESIAN_POINT('',(483.,-489.65,533.000015690923));
#1021=CARTESIAN_POINT('',(483.000018596649,-494.65,509.000015288591));
#1022=CARTESIAN_POINT('',(483.000007748604,-494.65,512.750015389174));
#1023=CARTESIAN_POINT('',(483.000018596649,-494.65,507.000015288591));
#1024=CARTESIAN_POINT('',(483.000007748604,-494.65,507.500015288591));
#1025=CARTESIAN_POINT('',(483.000018596649,-484.65,507.000015288591));
#1026=CARTESIAN_POINT('',(483.000007748604,-484.65,507.000015288591));
#1027=CARTESIAN_POINT('',(483.000007748604,-484.65,507.000015288591));
#1028=CARTESIAN_POINT('',(483.000007197261,-517.65,498.000007390976));
#1029=CARTESIAN_POINT('Origin',(455.,-517.65,519.500015489757));
#1030=CARTESIAN_POINT('',(462.250000000011,-517.65,520.000007748604));
#1031=CARTESIAN_POINT('',(469.00000359863,-517.65,520.000007748604));
#1032=CARTESIAN_POINT('',(467.75,-517.65,520.));
#1033=CARTESIAN_POINT('Origin',(465.,-517.65,520.));
#1034=CARTESIAN_POINT('',(469.00000359863,-517.65,520.000007748604));
#1035=CARTESIAN_POINT('',(545.,-517.65,533.000015690923));
#1036=CARTESIAN_POINT('',(545.,-517.65,523.000015690923));
#1037=CARTESIAN_POINT('',(365.,-517.65,533.000015690923));
#1038=CARTESIAN_POINT('',(410.,-517.65,533.000015690923));
#1039=CARTESIAN_POINT('',(365.,-517.65,520.000007748604));
#1040=CARTESIAN_POINT('',(365.,-517.65,506.000015288591));
#1041=CARTESIAN_POINT('',(382.250000000011,-517.65,520.000007748604));
#1042=CARTESIAN_POINT('',(418.625000000006,-517.65,520.000007748604));
#1043=CARTESIAN_POINT('',(387.75,-517.65,520.));
#1044=CARTESIAN_POINT('Origin',(385.,-517.65,520.));
#1045=CARTESIAN_POINT('',(403.000006005168,-517.65,520.000007748604));
#1046=CARTESIAN_POINT('',(429.000003002584,-517.65,520.000007748604));
#1047=CARTESIAN_POINT('',(403.000006005168,-517.65,498.000015288591));
#1048=CARTESIAN_POINT('',(403.000006005168,-517.65,507.750015389174));
#1049=CARTESIAN_POINT('',(403.000006005168,-517.65,498.000015288591));
#1050=CARTESIAN_POINT('',(507.75,-517.65,520.));
#1051=CARTESIAN_POINT('Origin',(505.,-517.65,520.));
#1052=CARTESIAN_POINT('',(427.75,-517.65,520.));
#1053=CARTESIAN_POINT('Origin',(425.,-517.65,520.));
#1054=CARTESIAN_POINT('Origin',(490.,-484.65,507.000015288591));
#1055=CARTESIAN_POINT('',(490.000018596655,-494.65,507.000015288597));
#1056=CARTESIAN_POINT('',(488.250014528635,-494.65,507.000015288591));
#1057=CARTESIAN_POINT('',(490.000018596655,-484.65,507.000015288597));
#1058=CARTESIAN_POINT('',(490.,-484.65,507.000015288591));
#1059=CARTESIAN_POINT('',(490.,-484.65,507.000015288591));
#1060=CARTESIAN_POINT('Origin',(410.,-464.65,507.000015288591));
#1061=CARTESIAN_POINT('',(440.,-464.65,507.000015288591));
#1062=CARTESIAN_POINT('',(417.5,-464.65,507.000015288591));
#1063=CARTESIAN_POINT('',(440.,-454.65,507.000015288591));
#1064=CARTESIAN_POINT('',(440.,-474.65,507.000015288591));
#1065=CARTESIAN_POINT('',(403.,-454.65,507.000015288591));
#1066=CARTESIAN_POINT('',(415.,-454.65,507.000015288591));
#1067=CARTESIAN_POINT('',(403.,-474.65,507.000015288591));
#1068=CARTESIAN_POINT('Origin',(440.,-484.65,510.000015288591));
#1069=CARTESIAN_POINT('',(440.,-454.65,506.000015288591));
#1070=CARTESIAN_POINT('',(440.,-464.65,506.000015288591));
#1071=CARTESIAN_POINT('Origin',(425.,-464.65,514.500015288591));
#1072=CARTESIAN_POINT('Origin',(455.,-494.65,519.500015489757));
#1073=CARTESIAN_POINT('',(490.000007301569,-494.65,498.000015288591));
#1074=CARTESIAN_POINT('',(490.000007301569,-494.65,510.000007599592));
#1075=CARTESIAN_POINT('',(490.000007748604,-494.65,533.000023439529));
#1076=CARTESIAN_POINT('',(410.,-494.65,533.000015690923));
#1077=CARTESIAN_POINT('',(545.,-494.65,533.000015690923));
#1078=CARTESIAN_POINT('',(410.,-494.65,533.000015690923));
#1079=CARTESIAN_POINT('',(545.,-494.65,526.25001559034));
#1080=CARTESIAN_POINT('',(490.000007301569,-494.65,498.000015288591));
#1081=CARTESIAN_POINT('',(507.75,-494.65,520.));
#1082=CARTESIAN_POINT('Origin',(505.,-494.65,520.));
#1083=CARTESIAN_POINT('Origin',(483.000007197261,-506.65,520.000007748604));
#1084=CARTESIAN_POINT('',(467.75,-506.65,520.));
#1085=CARTESIAN_POINT('',(467.749999999989,-494.65,520.000007748604));
#1086=CARTESIAN_POINT('',(472.250005237758,-506.65,520.000007748604));
#1087=CARTESIAN_POINT('Origin',(483.000007197261,-506.65,520.000007748604));
#1088=CARTESIAN_POINT('',(462.250000000011,-506.65,520.000007748604));
#1089=CARTESIAN_POINT('',(472.250005237758,-506.65,520.000007748604));
#1090=CARTESIAN_POINT('',(462.250000000011,-494.65,520.000007748604));
#1091=CARTESIAN_POINT('Origin',(382.250000000011,-506.65,520.000007748604));
#1092=CARTESIAN_POINT('',(365.,-506.65,520.000007748604));
#1093=CARTESIAN_POINT('',(365.,-500.65,520.000007748604));
#1094=CARTESIAN_POINT('',(382.250000000011,-506.65,520.000007748604));
#1095=CARTESIAN_POINT('',(383.125000000005,-506.65,520.000007748604));
#1096=CARTESIAN_POINT('',(382.250000000011,-494.65,520.000007748604));
#1097=CARTESIAN_POINT('Origin',(403.000006005168,-506.65,520.000007748604));
#1098=CARTESIAN_POINT('',(387.75,-506.65,520.));
#1099=CARTESIAN_POINT('',(387.749999999989,-494.65,520.000007748604));
#1100=CARTESIAN_POINT('',(403.000006005168,-506.65,520.000007748604));
#1101=CARTESIAN_POINT('',(393.500003002584,-506.65,520.000007748604));
#1102=CARTESIAN_POINT('',(403.000006005168,-506.65,520.000007748604));
#1103=CARTESIAN_POINT('Origin',(465.,-494.65,520.));
#1104=CARTESIAN_POINT('Origin',(465.,-506.65,520.));
#1105=CARTESIAN_POINT('Origin',(384.,-506.65,514.500015489757));
#1106=CARTESIAN_POINT('Origin',(385.,-506.65,520.));
#1107=CARTESIAN_POINT('',(365.,-506.65,533.000015690923));
#1108=CARTESIAN_POINT('',(365.,-506.65,510.250015389174));
#1109=CARTESIAN_POINT('',(403.,-506.65,533.000015690923));
#1110=CARTESIAN_POINT('',(374.5,-506.65,533.000015690923));
#1111=CARTESIAN_POINT('',(403.,-506.65,533.000015690923));
#1112=CARTESIAN_POINT('Origin',(365.,-494.65,506.000015288591));
#1113=CARTESIAN_POINT('',(365.,-494.65,533.000015690923));
#1114=CARTESIAN_POINT('Origin',(461.500003278255,-506.65,514.500011615455));
#1115=CARTESIAN_POINT('',(413.250001639128,-506.65,533.000015690923));
#1116=CARTESIAN_POINT('Origin',(365.,-494.65,533.000015690923));
#1117=CARTESIAN_POINT('',(403.,-489.65,533.000015690923));
#1118=CARTESIAN_POINT('',(545.,-494.65,533.000015690923));
#1119=CARTESIAN_POINT('Origin',(403.,-484.65,506.000015288591));
#1120=CARTESIAN_POINT('',(403.,-454.65,523.000015690923));
#1121=CARTESIAN_POINT('Origin',(420.,-454.65,519.500015489757));
#1122=CARTESIAN_POINT('Origin',(545.,-494.65,533.000015690923));
#1123=CARTESIAN_POINT('Origin',(490.,-484.65,533.000023439526));
#1124=CARTESIAN_POINT('Origin',(425.,-494.65,520.));
#1125=CARTESIAN_POINT('',(427.75,-494.65,520.));
#1126=CARTESIAN_POINT('Origin',(385.,-494.65,520.));
#1127=CARTESIAN_POINT('Origin',(505.,-494.65,520.));
#1128=CARTESIAN_POINT('',(507.75,-494.65,520.));
#1129=UNCERTAINTY_MEASURE_WITH_UNIT(LENGTH_MEASURE(0.01),#1133,
'DISTANCE_ACCURACY_VALUE',
'Maximum model space distance between geometric entities at asserted c
onnectivities');
#1130=UNCERTAINTY_MEASURE_WITH_UNIT(LENGTH_MEASURE(0.01),#1133,
'DISTANCE_ACCURACY_VALUE',
'Maximum model space distance between geometric entities at asserted c
onnectivities');
#1131=(
GEOMETRIC_REPRESENTATION_CONTEXT(3)
GLOBAL_UNCERTAINTY_ASSIGNED_CONTEXT((#1129))
GLOBAL_UNIT_ASSIGNED_CONTEXT((#1133,#1135,#1136))
REPRESENTATION_CONTEXT('','3D')
);
#1132=(
GEOMETRIC_REPRESENTATION_CONTEXT(3)
GLOBAL_UNCERTAINTY_ASSIGNED_CONTEXT((#1130))
GLOBAL_UNIT_ASSIGNED_CONTEXT((#1133,#1135,#1136))
REPRESENTATION_CONTEXT('','3D')
);
#1133=(
LENGTH_UNIT()
NAMED_UNIT(*)
SI_UNIT(.MILLI.,.METRE.)
);
#1134=(
LENGTH_UNIT()
NAMED_UNIT(*)
SI_UNIT($,.METRE.)
);
#1135=(
NAMED_UNIT(*)
PLANE_ANGLE_UNIT()
SI_UNIT($,.RADIAN.)
);
#1136=(
NAMED_UNIT(*)
SI_UNIT($,.STERADIAN.)
SOLID_ANGLE_UNIT()
);
#1137=SHAPE_DEFINITION_REPRESENTATION(#1138,#1139);
#1138=PRODUCT_DEFINITION_SHAPE('',$,#1141);
#1139=SHAPE_REPRESENTATION('',(#717),#1131);
#1140=PRODUCT_DEFINITION_CONTEXT('part definition',#1145,'design');
#1141=PRODUCT_DEFINITION('2026-02-25-18-13-18-719','Toolchanger rack',#1142,
#1140);
#1142=PRODUCT_DEFINITION_FORMATION('',$,#1147);
#1143=PRODUCT_RELATED_PRODUCT_CATEGORY('Toolchanger rack',
'Toolchanger rack',(#1147));
#1144=APPLICATION_PROTOCOL_DEFINITION('international standard',
'automotive_design',2009,#1145);
#1145=APPLICATION_CONTEXT(
'Core Data for Automotive Mechanical Design Process');
#1146=PRODUCT_CONTEXT('part definition',#1145,'mechanical');
#1147=PRODUCT('2026-02-25-18-13-18-719','Toolchanger rack',$,(#1146));
#1148=PRESENTATION_STYLE_ASSIGNMENT((#1149));
#1149=SURFACE_STYLE_USAGE(.BOTH.,#1150);
#1150=SURFACE_SIDE_STYLE('',(#1151));
#1151=SURFACE_STYLE_FILL_AREA(#1152);
#1152=FILL_AREA_STYLE('Steel - Satin',(#1153));
#1153=FILL_AREA_STYLE_COLOUR('Steel - Satin',#1154);
#1154=COLOUR_RGB('Steel - Satin',0.627450980392157,0.627450980392157,0.627450980392157);
ENDSEC;
END-ISO-10303-21;
