ISO-10303-21;
HEADER;
/* Generated by software containing ST-Developer
 * from STEP Tools, Inc. (www.steptools.com) 
 */

FILE_DESCRIPTION(
/* description */ (''),
/* implementation_level */ '2;1');

FILE_NAME(
/* name */ 'Y axis idle  bracket.step',
/* time_stamp */ '2026-02-18T14:44:55+11:00',
/* author */ (''),
/* organization */ (''),
/* preprocessor_version */ 'ST-DEVELOPER v20.1',
/* originating_system */ 'Autodesk Translation Framework v14.24.0.0',
/* authorisation */ '');

FILE_SCHEMA (('AUTOMOTIVE_DESIGN { 1 0 10303 214 3 1 1 }'));
ENDSEC;

DATA;
#10=MECHANICAL_DESIGN_GEOMETRIC_PRESENTATION_REPRESENTATION('',(#63,#64,
#65,#66,#67),#1501);
#11=ITEM_DEFINED_TRANSFORMATION($,$,#888,#971);
#12=ITEM_DEFINED_TRANSFORMATION($,$,#909,#972);
#13=ITEM_DEFINED_TRANSFORMATION($,$,#929,#973);
#14=ITEM_DEFINED_TRANSFORMATION($,$,#929,#974);
#15=(
REPRESENTATION_RELATIONSHIP($,$,#1519,#1518)
REPRESENTATION_RELATIONSHIP_WITH_TRANSFORMATION(#11)
SHAPE_REPRESENTATION_RELATIONSHIP()
);
#16=(
REPRESENTATION_RELATIONSHIP($,$,#1520,#1518)
REPRESENTATION_RELATIONSHIP_WITH_TRANSFORMATION(#12)
SHAPE_REPRESENTATION_RELATIONSHIP()
);
#17=(
REPRESENTATION_RELATIONSHIP($,$,#1521,#1518)
REPRESENTATION_RELATIONSHIP_WITH_TRANSFORMATION(#13)
SHAPE_REPRESENTATION_RELATIONSHIP()
);
#18=(
REPRESENTATION_RELATIONSHIP($,$,#1521,#1518)
REPRESENTATION_RELATIONSHIP_WITH_TRANSFORMATION(#14)
SHAPE_REPRESENTATION_RELATIONSHIP()
);
#19=CONTEXT_DEPENDENT_SHAPE_REPRESENTATION(#15,#1514);
#20=CONTEXT_DEPENDENT_SHAPE_REPRESENTATION(#16,#1515);
#21=CONTEXT_DEPENDENT_SHAPE_REPRESENTATION(#17,#1516);
#22=CONTEXT_DEPENDENT_SHAPE_REPRESENTATION(#18,#1517);
#23=NEXT_ASSEMBLY_USAGE_OCCURRENCE('GT2 Idle pulley:1',
'GT2 Idle pulley:1','GT2 Idle pulley:1',#1523,#1524,'GT2 Idle pulley:1');
#24=NEXT_ASSEMBLY_USAGE_OCCURRENCE(
'Hex Head Bolt JIS B 1180 - M5x40 - C Steel 4.6 Plain:1',
'Hex Head Bolt JIS B 1180 - M5x40 - C Steel 4.6 Plain:1',
'Hex Head Bolt JIS B 1180 - M5x40 - C Steel 4.6 Plain:1',#1523,#1525,
'Hex Head Bolt JIS B 1180 - M5x40 - C Steel 4.6 Plain:1');
#25=NEXT_ASSEMBLY_USAGE_OCCURRENCE(
'Hexagon Regular Nut DIN EN ISO 4032 - M5 Steel 6 Plain:1',
'Hexagon Regular Nut DIN EN ISO 4032 - M5 Steel 6 Plain:1',
'Hexagon Regular Nut DIN EN ISO 4032 - M5 Steel 6 Plain:1',#1523,#1526,
'Hexagon Regular Nut DIN EN ISO 4032 - M5 Steel 6 Plain:1');
#26=NEXT_ASSEMBLY_USAGE_OCCURRENCE(
'Hexagon Regular Nut DIN EN ISO 4032 - M5 Steel 6 Plain:2',
'Hexagon Regular Nut DIN EN ISO 4032 - M5 Steel 6 Plain:2',
'Hexagon Regular Nut DIN EN ISO 4032 - M5 Steel 6 Plain:2',#1523,#1526,
'Hexagon Regular Nut DIN EN ISO 4032 - M5 Steel 6 Plain:2');
#27=(
BOUNDED_CURVE()
B_SPLINE_CURVE(2,(#1278,#1279,#1280),.UNSPECIFIED.,.F.,.F.)
B_SPLINE_CURVE_WITH_KNOTS((3,3),(0.,0.462557615317191),.UNSPECIFIED.)
CURVE()
GEOMETRIC_REPRESENTATION_ITEM()
RATIONAL_B_SPLINE_CURVE((1.,1.15470053837925,1.))
REPRESENTATION_ITEM('')
);
#28=(
BOUNDED_CURVE()
B_SPLINE_CURVE(2,(#1285,#1286,#1287),.UNSPECIFIED.,.F.,.F.)
B_SPLINE_CURVE_WITH_KNOTS((3,3),(0.,0.231278807658593),.UNSPECIFIED.)
CURVE()
GEOMETRIC_REPRESENTATION_ITEM()
RATIONAL_B_SPLINE_CURVE((1.,1.07735026918963,1.07735026918962))
REPRESENTATION_ITEM('')
);
#29=(
BOUNDED_CURVE()
B_SPLINE_CURVE(2,(#1290,#1291,#1292),.UNSPECIFIED.,.F.,.F.)
B_SPLINE_CURVE_WITH_KNOTS((3,3),(0.231278807658593,0.462557615317187),
 .UNSPECIFIED.)
CURVE()
GEOMETRIC_REPRESENTATION_ITEM()
RATIONAL_B_SPLINE_CURVE((1.07735026918962,1.07735026918963,1.))
REPRESENTATION_ITEM('')
);
#30=(
BOUNDED_CURVE()
B_SPLINE_CURVE(2,(#1295,#1296,#1297),.UNSPECIFIED.,.F.,.F.)
B_SPLINE_CURVE_WITH_KNOTS((3,3),(0.,0.462557615317192),.UNSPECIFIED.)
CURVE()
GEOMETRIC_REPRESENTATION_ITEM()
RATIONAL_B_SPLINE_CURVE((1.,1.15470053837927,1.))
REPRESENTATION_ITEM('')
);
#31=(
BOUNDED_CURVE()
B_SPLINE_CURVE(2,(#1301,#1302,#1303),.UNSPECIFIED.,.F.,.F.)
B_SPLINE_CURVE_WITH_KNOTS((3,3),(0.,0.462557615317198),.UNSPECIFIED.)
CURVE()
GEOMETRIC_REPRESENTATION_ITEM()
RATIONAL_B_SPLINE_CURVE((1.,1.15470053837926,1.))
REPRESENTATION_ITEM('')
);
#32=(
BOUNDED_CURVE()
B_SPLINE_CURVE(2,(#1307,#1308,#1309),.UNSPECIFIED.,.F.,.F.)
B_SPLINE_CURVE_WITH_KNOTS((3,3),(0.,0.462557615317196),.UNSPECIFIED.)
CURVE()
GEOMETRIC_REPRESENTATION_ITEM()
RATIONAL_B_SPLINE_CURVE((1.,1.15470053837925,1.))
REPRESENTATION_ITEM('')
);
#33=(
BOUNDED_CURVE()
B_SPLINE_CURVE(2,(#1312,#1313,#1314),.UNSPECIFIED.,.F.,.F.)
B_SPLINE_CURVE_WITH_KNOTS((3,3),(0.,0.462557615317197),.UNSPECIFIED.)
CURVE()
GEOMETRIC_REPRESENTATION_ITEM()
RATIONAL_B_SPLINE_CURVE((1.,1.15470053837926,1.))
REPRESENTATION_ITEM('')
);
#34=(
BOUNDED_CURVE()
B_SPLINE_CURVE(2,(#1339,#1340,#1341),.UNSPECIFIED.,.F.,.F.)
B_SPLINE_CURVE_WITH_KNOTS((3,3),(0.000209851267232883,0.467659076247016),
 .UNSPECIFIED.)
CURVE()
GEOMETRIC_REPRESENTATION_ITEM()
RATIONAL_B_SPLINE_CURVE((1.00013898062186,1.15486101937814,1.00013898062186))
REPRESENTATION_ITEM('')
);
#35=(
BOUNDED_CURVE()
B_SPLINE_CURVE(2,(#1344,#1345,#1346),.UNSPECIFIED.,.F.,.F.)
B_SPLINE_CURVE_WITH_KNOTS((3,3),(0.000209851267233439,0.467659076247016),
 .UNSPECIFIED.)
CURVE()
GEOMETRIC_REPRESENTATION_ITEM()
RATIONAL_B_SPLINE_CURVE((1.00013898062186,1.15486101937814,1.00013898062186))
REPRESENTATION_ITEM('')
);
#36=(
BOUNDED_CURVE()
B_SPLINE_CURVE(2,(#1349,#1350,#1351),.UNSPECIFIED.,.F.,.F.)
B_SPLINE_CURVE_WITH_KNOTS((3,3),(0.000209851267233438,0.467659076247016),
 .UNSPECIFIED.)
CURVE()
GEOMETRIC_REPRESENTATION_ITEM()
RATIONAL_B_SPLINE_CURVE((1.00013898062186,1.15486101937814,1.00013898062186))
REPRESENTATION_ITEM('')
);
#37=(
BOUNDED_CURVE()
B_SPLINE_CURVE(2,(#1354,#1355,#1356),.UNSPECIFIED.,.F.,.F.)
B_SPLINE_CURVE_WITH_KNOTS((3,3),(0.000209851267233544,0.467659076247016),
 .UNSPECIFIED.)
CURVE()
GEOMETRIC_REPRESENTATION_ITEM()
RATIONAL_B_SPLINE_CURVE((1.00013898062186,1.15486101937814,1.00013898062186))
REPRESENTATION_ITEM('')
);
#38=(
BOUNDED_CURVE()
B_SPLINE_CURVE(2,(#1363,#1364,#1365),.UNSPECIFIED.,.F.,.F.)
B_SPLINE_CURVE_WITH_KNOTS((3,3),(0.233934463757124,0.467659076247016),
 .UNSPECIFIED.)
CURVE()
GEOMETRIC_REPRESENTATION_ITEM()
RATIONAL_B_SPLINE_CURVE((1.0775,1.0775,1.00013898062186))
REPRESENTATION_ITEM('')
);
#39=(
BOUNDED_CURVE()
B_SPLINE_CURVE(2,(#1367,#1368,#1369),.UNSPECIFIED.,.F.,.F.)
B_SPLINE_CURVE_WITH_KNOTS((3,3),(0.000209851267233628,0.467659076247016),
 .UNSPECIFIED.)
CURVE()
GEOMETRIC_REPRESENTATION_ITEM()
RATIONAL_B_SPLINE_CURVE((1.00013898062186,1.15486101937814,1.00013898062186))
REPRESENTATION_ITEM('')
);
#40=(
BOUNDED_CURVE()
B_SPLINE_CURVE(2,(#1370,#1371,#1372),.UNSPECIFIED.,.F.,.F.)
B_SPLINE_CURVE_WITH_KNOTS((3,3),(0.000209851267233439,0.467659076247016),
 .UNSPECIFIED.)
CURVE()
GEOMETRIC_REPRESENTATION_ITEM()
RATIONAL_B_SPLINE_CURVE((1.00013898062186,1.15486101937814,1.00013898062186))
REPRESENTATION_ITEM('')
);
#41=(
BOUNDED_CURVE()
B_SPLINE_CURVE(2,(#1374,#1375,#1376),.UNSPECIFIED.,.F.,.F.)
B_SPLINE_CURVE_WITH_KNOTS((3,3),(0.000209851267233753,0.467659076247016),
 .UNSPECIFIED.)
CURVE()
GEOMETRIC_REPRESENTATION_ITEM()
RATIONAL_B_SPLINE_CURVE((1.00013898062186,1.15486101937814,1.00013898062186))
REPRESENTATION_ITEM('')
);
#42=(
BOUNDED_CURVE()
B_SPLINE_CURVE(2,(#1377,#1378,#1379),.UNSPECIFIED.,.F.,.F.)
B_SPLINE_CURVE_WITH_KNOTS((3,3),(0.000209851267233685,0.233934463757124),
 .UNSPECIFIED.)
CURVE()
GEOMETRIC_REPRESENTATION_ITEM()
RATIONAL_B_SPLINE_CURVE((1.00013898062186,1.0775,1.0775))
REPRESENTATION_ITEM('')
);
#43=(
BOUNDED_CURVE()
B_SPLINE_CURVE(2,(#1382,#1383,#1384),.UNSPECIFIED.,.F.,.F.)
B_SPLINE_CURVE_WITH_KNOTS((3,3),(0.000209851267233322,0.467659076247016),
 .UNSPECIFIED.)
CURVE()
GEOMETRIC_REPRESENTATION_ITEM()
RATIONAL_B_SPLINE_CURVE((1.00013898062186,1.15486101937814,1.00013898062186))
REPRESENTATION_ITEM('')
);
#44=(
BOUNDED_CURVE()
B_SPLINE_CURVE(2,(#1388,#1389,#1390),.UNSPECIFIED.,.F.,.F.)
B_SPLINE_CURVE_WITH_KNOTS((3,3),(0.233934463757125,0.467659076247016),
 .UNSPECIFIED.)
CURVE()
GEOMETRIC_REPRESENTATION_ITEM()
RATIONAL_B_SPLINE_CURVE((1.0775,1.0775,1.00013898062186))
REPRESENTATION_ITEM('')
);
#45=(
BOUNDED_CURVE()
B_SPLINE_CURVE(2,(#1392,#1393,#1394),.UNSPECIFIED.,.F.,.F.)
B_SPLINE_CURVE_WITH_KNOTS((3,3),(0.000209851267233244,0.233934463757125),
 .UNSPECIFIED.)
CURVE()
GEOMETRIC_REPRESENTATION_ITEM()
RATIONAL_B_SPLINE_CURVE((1.00013898062186,1.0775,1.0775))
REPRESENTATION_ITEM('')
);
#46=(
BOUNDED_CURVE()
B_SPLINE_CURVE(2,(#1398,#1399,#1400),.UNSPECIFIED.,.F.,.F.)
B_SPLINE_CURVE_WITH_KNOTS((3,3),(0.000209851267233295,0.467659076247016),
 .UNSPECIFIED.)
CURVE()
GEOMETRIC_REPRESENTATION_ITEM()
RATIONAL_B_SPLINE_CURVE((1.00013898062186,1.15486101937814,1.00013898062186))
REPRESENTATION_ITEM('')
);
#47=(
BOUNDED_CURVE()
B_SPLINE_CURVE(2,(#1403,#1404,#1405),.UNSPECIFIED.,.F.,.F.)
B_SPLINE_CURVE_WITH_KNOTS((3,3),(0.000209851267233318,0.467659076247016),
 .UNSPECIFIED.)
CURVE()
GEOMETRIC_REPRESENTATION_ITEM()
RATIONAL_B_SPLINE_CURVE((1.00013898062186,1.15486101937814,1.00013898062186))
REPRESENTATION_ITEM('')
);
#48=TOROIDAL_SURFACE('',#913,2.6505,0.2);
#49=CONICAL_SURFACE('',#910,2.27499999999996,0.832981266674225);
#50=CONICAL_SURFACE('',#928,4.24559999999999,1.0471975511966);
#51=CONICAL_SURFACE('',#930,1.82161343370219,0.523598775598299);
#52=CONICAL_SURFACE('',#933,1.82161343370219,0.5235987755983);
#53=CONICAL_SURFACE('',#938,4.27,1.0471975511966);
#54=CONICAL_SURFACE('',#946,4.27,1.0471975511966);
#55=SHAPE_REPRESENTATION_RELATIONSHIP('SRR','None',#1519,#59);
#56=SHAPE_REPRESENTATION_RELATIONSHIP('SRR','None',#1520,#60);
#57=SHAPE_REPRESENTATION_RELATIONSHIP('SRR','None',#1521,#61);
#58=SHAPE_REPRESENTATION_RELATIONSHIP('SRR','None',#1518,#62);
#59=ADVANCED_BREP_SHAPE_REPRESENTATION('',(#68,#69),#1498);
#60=ADVANCED_BREP_SHAPE_REPRESENTATION('',(#70),#1499);
#61=ADVANCED_BREP_SHAPE_REPRESENTATION('',(#71),#1500);
#62=ADVANCED_BREP_SHAPE_REPRESENTATION('',(#72),#1497);
#63=STYLED_ITEM('',(#1542),#68);
#64=STYLED_ITEM('',(#1542),#69);
#65=STYLED_ITEM('',(#1542),#70);
#66=STYLED_ITEM('',(#1543),#71);
#67=STYLED_ITEM('',(#1542),#72);
#68=MANIFOLD_SOLID_BREP('Body4',#848);
#69=MANIFOLD_SOLID_BREP('Body4',#849);
#70=MANIFOLD_SOLID_BREP('Body1',#850);
#71=MANIFOLD_SOLID_BREP('Body1',#851);
#72=MANIFOLD_SOLID_BREP('Body1',#852);
#73=FACE_BOUND('',#174,.T.);
#74=FACE_BOUND('',#176,.T.);
#75=FACE_BOUND('',#178,.T.);
#76=FACE_BOUND('',#180,.T.);
#77=FACE_BOUND('',#184,.T.);
#78=FACE_BOUND('',#189,.T.);
#79=FACE_BOUND('',#210,.T.);
#80=FACE_BOUND('',#213,.T.);
#81=FACE_BOUND('',#218,.T.);
#82=FACE_BOUND('',#220,.T.);
#83=FACE_BOUND('',#224,.T.);
#84=FACE_BOUND('',#225,.T.);
#85=FACE_BOUND('',#228,.T.);
#86=FACE_BOUND('',#233,.T.);
#87=FACE_BOUND('',#235,.T.);
#88=FACE_BOUND('',#236,.T.);
#89=PLANE('',#895);
#90=PLANE('',#896);
#91=PLANE('',#897);
#92=PLANE('',#900);
#93=PLANE('',#906);
#94=PLANE('',#917);
#95=PLANE('',#919);
#96=PLANE('',#920);
#97=PLANE('',#921);
#98=PLANE('',#922);
#99=PLANE('',#923);
#100=PLANE('',#924);
#101=PLANE('',#925);
#102=PLANE('',#926);
#103=PLANE('',#936);
#104=PLANE('',#937);
#105=PLANE('',#940);
#106=PLANE('',#941);
#107=PLANE('',#942);
#108=PLANE('',#943);
#109=PLANE('',#944);
#110=PLANE('',#947);
#111=PLANE('',#955);
#112=PLANE('',#956);
#113=PLANE('',#957);
#114=PLANE('',#958);
#115=PLANE('',#959);
#116=PLANE('',#962);
#117=PLANE('',#963);
#118=PLANE('',#964);
#119=PLANE('',#969);
#120=PLANE('',#970);
#121=FACE_OUTER_BOUND('',#171,.T.);
#122=FACE_OUTER_BOUND('',#172,.T.);
#123=FACE_OUTER_BOUND('',#173,.T.);
#124=FACE_OUTER_BOUND('',#175,.T.);
#125=FACE_OUTER_BOUND('',#177,.T.);
#126=FACE_OUTER_BOUND('',#179,.T.);
#127=FACE_OUTER_BOUND('',#181,.T.);
#128=FACE_OUTER_BOUND('',#182,.T.);
#129=FACE_OUTER_BOUND('',#183,.T.);
#130=FACE_OUTER_BOUND('',#185,.T.);
#131=FACE_OUTER_BOUND('',#186,.T.);
#132=FACE_OUTER_BOUND('',#187,.T.);
#133=FACE_OUTER_BOUND('',#188,.T.);
#134=FACE_OUTER_BOUND('',#190,.T.);
#135=FACE_OUTER_BOUND('',#191,.T.);
#136=FACE_OUTER_BOUND('',#192,.T.);
#137=FACE_OUTER_BOUND('',#193,.T.);
#138=FACE_OUTER_BOUND('',#194,.T.);
#139=FACE_OUTER_BOUND('',#195,.T.);
#140=FACE_OUTER_BOUND('',#196,.T.);
#141=FACE_OUTER_BOUND('',#197,.T.);
#142=FACE_OUTER_BOUND('',#198,.T.);
#143=FACE_OUTER_BOUND('',#199,.T.);
#144=FACE_OUTER_BOUND('',#200,.T.);
#145=FACE_OUTER_BOUND('',#201,.T.);
#146=FACE_OUTER_BOUND('',#202,.T.);
#147=FACE_OUTER_BOUND('',#203,.T.);
#148=FACE_OUTER_BOUND('',#204,.T.);
#149=FACE_OUTER_BOUND('',#205,.T.);
#150=FACE_OUTER_BOUND('',#206,.T.);
#151=FACE_OUTER_BOUND('',#207,.T.);
#152=FACE_OUTER_BOUND('',#208,.T.);
#153=FACE_OUTER_BOUND('',#209,.T.);
#154=FACE_OUTER_BOUND('',#211,.T.);
#155=FACE_OUTER_BOUND('',#212,.T.);
#156=FACE_OUTER_BOUND('',#214,.T.);
#157=FACE_OUTER_BOUND('',#215,.T.);
#158=FACE_OUTER_BOUND('',#216,.T.);
#159=FACE_OUTER_BOUND('',#217,.T.);
#160=FACE_OUTER_BOUND('',#219,.T.);
#161=FACE_OUTER_BOUND('',#221,.T.);
#162=FACE_OUTER_BOUND('',#222,.T.);
#163=FACE_OUTER_BOUND('',#223,.T.);
#164=FACE_OUTER_BOUND('',#226,.T.);
#165=FACE_OUTER_BOUND('',#227,.T.);
#166=FACE_OUTER_BOUND('',#229,.T.);
#167=FACE_OUTER_BOUND('',#230,.T.);
#168=FACE_OUTER_BOUND('',#231,.T.);
#169=FACE_OUTER_BOUND('',#232,.T.);
#170=FACE_OUTER_BOUND('',#234,.T.);
#171=EDGE_LOOP('',(#567,#568,#569,#570));
#172=EDGE_LOOP('',(#571,#572,#573,#574));
#173=EDGE_LOOP('',(#575));
#174=EDGE_LOOP('',(#576));
#175=EDGE_LOOP('',(#577));
#176=EDGE_LOOP('',(#578));
#177=EDGE_LOOP('',(#579));
#178=EDGE_LOOP('',(#580));
#179=EDGE_LOOP('',(#581));
#180=EDGE_LOOP('',(#582));
#181=EDGE_LOOP('',(#583,#584,#585,#586));
#182=EDGE_LOOP('',(#587,#588,#589,#590));
#183=EDGE_LOOP('',(#591));
#184=EDGE_LOOP('',(#592));
#185=EDGE_LOOP('',(#593,#594,#595,#596));
#186=EDGE_LOOP('',(#597,#598,#599,#600));
#187=EDGE_LOOP('',(#601,#602,#603,#604));
#188=EDGE_LOOP('',(#605,#606,#607,#608,#609,#610));
#189=EDGE_LOOP('',(#611));
#190=EDGE_LOOP('',(#612,#613,#614,#615));
#191=EDGE_LOOP('',(#616,#617,#618,#619));
#192=EDGE_LOOP('',(#620,#621,#622,#623,#624));
#193=EDGE_LOOP('',(#625,#626,#627,#628));
#194=EDGE_LOOP('',(#629,#630,#631,#632));
#195=EDGE_LOOP('',(#633,#634,#635,#636));
#196=EDGE_LOOP('',(#637,#638,#639,#640));
#197=EDGE_LOOP('',(#641));
#198=EDGE_LOOP('',(#642));
#199=EDGE_LOOP('',(#643,#644,#645,#646,#647,#648,#649,#650,#651,#652));
#200=EDGE_LOOP('',(#653,#654,#655,#656));
#201=EDGE_LOOP('',(#657,#658,#659,#660));
#202=EDGE_LOOP('',(#661,#662,#663,#664));
#203=EDGE_LOOP('',(#665,#666,#667,#668));
#204=EDGE_LOOP('',(#669,#670,#671,#672,#673,#674,#675,#676,#677,#678));
#205=EDGE_LOOP('',(#679,#680,#681,#682));
#206=EDGE_LOOP('',(#683,#684,#685,#686,#687,#688));
#207=EDGE_LOOP('',(#689,#690,#691,#692));
#208=EDGE_LOOP('',(#693,#694,#695,#696));
#209=EDGE_LOOP('',(#697));
#210=EDGE_LOOP('',(#698));
#211=EDGE_LOOP('',(#699,#700,#701,#702,#703,#704,#705,#706,#707,#708));
#212=EDGE_LOOP('',(#709));
#213=EDGE_LOOP('',(#710));
#214=EDGE_LOOP('',(#711,#712,#713,#714));
#215=EDGE_LOOP('',(#715,#716,#717,#718));
#216=EDGE_LOOP('',(#719,#720,#721,#722));
#217=EDGE_LOOP('',(#723,#724,#725,#726));
#218=EDGE_LOOP('',(#727));
#219=EDGE_LOOP('',(#728,#729,#730,#731));
#220=EDGE_LOOP('',(#732));
#221=EDGE_LOOP('',(#733,#734,#735,#736));
#222=EDGE_LOOP('',(#737,#738,#739,#740,#741,#742,#743,#744));
#223=EDGE_LOOP('',(#745,#746,#747,#748));
#224=EDGE_LOOP('',(#749));
#225=EDGE_LOOP('',(#750));
#226=EDGE_LOOP('',(#751,#752,#753,#754,#755,#756,#757,#758));
#227=EDGE_LOOP('',(#759,#760,#761,#762));
#228=EDGE_LOOP('',(#763));
#229=EDGE_LOOP('',(#764,#765,#766,#767));
#230=EDGE_LOOP('',(#768,#769,#770,#771));
#231=EDGE_LOOP('',(#772,#773,#774,#775));
#232=EDGE_LOOP('',(#776,#777,#778,#779));
#233=EDGE_LOOP('',(#780));
#234=EDGE_LOOP('',(#781,#782,#783,#784));
#235=EDGE_LOOP('',(#785));
#236=EDGE_LOOP('',(#786));
#237=LINE('',#1216,#296);
#238=LINE('',#1222,#297);
#239=LINE('',#1237,#298);
#240=LINE('',#1241,#299);
#241=LINE('',#1246,#300);
#242=LINE('',#1252,#301);
#243=LINE('',#1263,#302);
#244=LINE('',#1265,#303);
#245=LINE('',#1267,#304);
#246=LINE('',#1269,#305);
#247=LINE('',#1271,#306);
#248=LINE('',#1272,#307);
#249=LINE('',#1274,#308);
#250=LINE('',#1281,#309);
#251=LINE('',#1282,#310);
#252=LINE('',#1289,#311);
#253=LINE('',#1298,#312);
#254=LINE('',#1304,#313);
#255=LINE('',#1310,#314);
#256=LINE('',#1320,#315);
#257=LINE('',#1326,#316);
#258=LINE('',#1332,#317);
#259=LINE('',#1337,#318);
#260=LINE('',#1343,#319);
#261=LINE('',#1353,#320);
#262=LINE('',#1361,#321);
#263=LINE('',#1385,#322);
#264=LINE('',#1395,#323);
#265=LINE('',#1401,#324);
#266=LINE('',#1410,#325);
#267=LINE('',#1413,#326);
#268=LINE('',#1418,#327);
#269=LINE('',#1424,#328);
#270=LINE('',#1429,#329);
#271=LINE('',#1431,#330);
#272=LINE('',#1433,#331);
#273=LINE('',#1434,#332);
#274=LINE('',#1438,#333);
#275=LINE('',#1440,#334);
#276=LINE('',#1442,#335);
#277=LINE('',#1443,#336);
#278=LINE('',#1446,#337);
#279=LINE('',#1448,#338);
#280=LINE('',#1449,#339);
#281=LINE('',#1452,#340);
#282=LINE('',#1454,#341);
#283=LINE('',#1456,#342);
#284=LINE('',#1457,#343);
#285=LINE('',#1458,#344);
#286=LINE('',#1461,#345);
#287=LINE('',#1462,#346);
#288=LINE('',#1469,#347);
#289=LINE('',#1471,#348);
#290=LINE('',#1472,#349);
#291=LINE('',#1473,#350);
#292=LINE('',#1475,#351);
#293=LINE('',#1476,#352);
#294=LINE('',#1481,#353);
#295=LINE('',#1485,#354);
#296=VECTOR('',#983,7.);
#297=VECTOR('',#990,9.);
#298=VECTOR('',#1011,9.);
#299=VECTOR('',#1016,2.5);
#300=VECTOR('',#1023,7.);
#301=VECTOR('',#1030,2.27499999999996);
#302=VECTOR('',#1043,10.);
#303=VECTOR('',#1044,10.);
#304=VECTOR('',#1045,10.);
#305=VECTOR('',#1046,10.);
#306=VECTOR('',#1047,10.);
#307=VECTOR('',#1048,10.);
#308=VECTOR('',#1051,2.49999999999996);
#309=VECTOR('',#1054,10.);
#310=VECTOR('',#1055,10.);
#311=VECTOR('',#1058,10.);
#312=VECTOR('',#1061,10.);
#313=VECTOR('',#1064,10.);
#314=VECTOR('',#1067,10.);
#315=VECTOR('',#1078,4.24559999999999);
#316=VECTOR('',#1085,1.82161343370219);
#317=VECTOR('',#1092,1.82161343370219);
#318=VECTOR('',#1097,10.);
#319=VECTOR('',#1098,10.);
#320=VECTOR('',#1101,10.);
#321=VECTOR('',#1106,4.27);
#322=VECTOR('',#1109,10.);
#323=VECTOR('',#1112,10.);
#324=VECTOR('',#1115,10.);
#325=VECTOR('',#1124,4.27);
#326=VECTOR('',#1129,2.5);
#327=VECTOR('',#1134,2.75);
#328=VECTOR('',#1141,2.75);
#329=VECTOR('',#1146,10.);
#330=VECTOR('',#1147,10.);
#331=VECTOR('',#1148,10.);
#332=VECTOR('',#1149,10.);
#333=VECTOR('',#1152,10.);
#334=VECTOR('',#1153,10.);
#335=VECTOR('',#1154,10.);
#336=VECTOR('',#1155,10.);
#337=VECTOR('',#1158,10.);
#338=VECTOR('',#1159,10.);
#339=VECTOR('',#1160,10.);
#340=VECTOR('',#1163,10.);
#341=VECTOR('',#1164,10.);
#342=VECTOR('',#1165,10.);
#343=VECTOR('',#1166,10.);
#344=VECTOR('',#1167,10.);
#345=VECTOR('',#1170,10.);
#346=VECTOR('',#1171,10.);
#347=VECTOR('',#1178,10.);
#348=VECTOR('',#1179,10.);
#349=VECTOR('',#1180,10.);
#350=VECTOR('',#1181,10.);
#351=VECTOR('',#1184,10.);
#352=VECTOR('',#1185,10.);
#353=VECTOR('',#1192,2.75);
#354=VECTOR('',#1197,2.75);
#355=CIRCLE('',#890,7.);
#356=CIRCLE('',#891,7.);
#357=CIRCLE('',#893,9.);
#358=CIRCLE('',#894,9.);
#359=CIRCLE('',#898,9.);
#360=CIRCLE('',#899,2.5);
#361=CIRCLE('',#901,9.);
#362=CIRCLE('',#902,7.);
#363=CIRCLE('',#905,2.5);
#364=CIRCLE('',#907,7.);
#365=CIRCLE('',#911,2.4505);
#366=CIRCLE('',#912,2.00000000000007);
#367=CIRCLE('',#914,2.6505);
#368=CIRCLE('',#915,0.2);
#369=CIRCLE('',#916,2.4505);
#370=CIRCLE('',#927,3.91999999999999);
#371=CIRCLE('',#931,2.117);
#372=CIRCLE('',#932,2.5);
#373=CIRCLE('',#934,2.5);
#374=CIRCLE('',#935,2.117);
#375=CIRCLE('',#939,3.92);
#376=CIRCLE('',#945,3.92);
#377=CIRCLE('',#950,2.75);
#378=CIRCLE('',#951,2.75);
#379=CIRCLE('',#953,2.75);
#380=CIRCLE('',#954,2.75);
#381=CIRCLE('',#960,2.75);
#382=CIRCLE('',#961,2.75);
#383=CIRCLE('',#966,2.75);
#384=CIRCLE('',#968,2.75);
#385=VERTEX_POINT('',#1213);
#386=VERTEX_POINT('',#1215);
#387=VERTEX_POINT('',#1219);
#388=VERTEX_POINT('',#1221);
#389=VERTEX_POINT('',#1227);
#390=VERTEX_POINT('',#1229);
#391=VERTEX_POINT('',#1232);
#392=VERTEX_POINT('',#1234);
#393=VERTEX_POINT('',#1239);
#394=VERTEX_POINT('',#1243);
#395=VERTEX_POINT('',#1249);
#396=VERTEX_POINT('',#1251);
#397=VERTEX_POINT('',#1255);
#398=VERTEX_POINT('',#1257);
#399=VERTEX_POINT('',#1261);
#400=VERTEX_POINT('',#1262);
#401=VERTEX_POINT('',#1264);
#402=VERTEX_POINT('',#1266);
#403=VERTEX_POINT('',#1268);
#404=VERTEX_POINT('',#1270);
#405=VERTEX_POINT('',#1276);
#406=VERTEX_POINT('',#1277);
#407=VERTEX_POINT('',#1284);
#408=VERTEX_POINT('',#1288);
#409=VERTEX_POINT('',#1294);
#410=VERTEX_POINT('',#1300);
#411=VERTEX_POINT('',#1306);
#412=VERTEX_POINT('',#1317);
#413=VERTEX_POINT('',#1323);
#414=VERTEX_POINT('',#1325);
#415=VERTEX_POINT('',#1329);
#416=VERTEX_POINT('',#1331);
#417=VERTEX_POINT('',#1335);
#418=VERTEX_POINT('',#1336);
#419=VERTEX_POINT('',#1338);
#420=VERTEX_POINT('',#1342);
#421=VERTEX_POINT('',#1348);
#422=VERTEX_POINT('',#1352);
#423=VERTEX_POINT('',#1358);
#424=VERTEX_POINT('',#1360);
#425=VERTEX_POINT('',#1362);
#426=VERTEX_POINT('',#1366);
#427=VERTEX_POINT('',#1373);
#428=VERTEX_POINT('',#1381);
#429=VERTEX_POINT('',#1387);
#430=VERTEX_POINT('',#1391);
#431=VERTEX_POINT('',#1397);
#432=VERTEX_POINT('',#1407);
#433=VERTEX_POINT('',#1415);
#434=VERTEX_POINT('',#1417);
#435=VERTEX_POINT('',#1421);
#436=VERTEX_POINT('',#1423);
#437=VERTEX_POINT('',#1427);
#438=VERTEX_POINT('',#1428);
#439=VERTEX_POINT('',#1430);
#440=VERTEX_POINT('',#1432);
#441=VERTEX_POINT('',#1436);
#442=VERTEX_POINT('',#1437);
#443=VERTEX_POINT('',#1439);
#444=VERTEX_POINT('',#1441);
#445=VERTEX_POINT('',#1445);
#446=VERTEX_POINT('',#1447);
#447=VERTEX_POINT('',#1451);
#448=VERTEX_POINT('',#1453);
#449=VERTEX_POINT('',#1455);
#450=VERTEX_POINT('',#1460);
#451=VERTEX_POINT('',#1463);
#452=VERTEX_POINT('',#1465);
#453=VERTEX_POINT('',#1468);
#454=VERTEX_POINT('',#1470);
#455=VERTEX_POINT('',#1479);
#456=VERTEX_POINT('',#1483);
#457=EDGE_CURVE('',#385,#385,#355,.T.);
#458=EDGE_CURVE('',#385,#386,#237,.T.);
#459=EDGE_CURVE('',#386,#386,#356,.T.);
#460=EDGE_CURVE('',#387,#387,#357,.T.);
#461=EDGE_CURVE('',#387,#388,#238,.T.);
#462=EDGE_CURVE('',#388,#388,#358,.T.);
#463=EDGE_CURVE('',#389,#389,#359,.T.);
#464=EDGE_CURVE('',#390,#390,#360,.T.);
#465=EDGE_CURVE('',#391,#391,#361,.T.);
#466=EDGE_CURVE('',#392,#392,#362,.T.);
#467=EDGE_CURVE('',#391,#389,#239,.T.);
#468=EDGE_CURVE('',#393,#393,#363,.T.);
#469=EDGE_CURVE('',#393,#390,#240,.T.);
#470=EDGE_CURVE('',#394,#394,#364,.T.);
#471=EDGE_CURVE('',#394,#392,#241,.T.);
#472=EDGE_CURVE('',#395,#395,#365,.T.);
#473=EDGE_CURVE('',#395,#396,#242,.T.);
#474=EDGE_CURVE('',#396,#396,#366,.T.);
#475=EDGE_CURVE('',#397,#397,#367,.T.);
#476=EDGE_CURVE('',#397,#398,#368,.T.);
#477=EDGE_CURVE('',#398,#398,#369,.T.);
#478=EDGE_CURVE('',#399,#400,#243,.T.);
#479=EDGE_CURVE('',#400,#401,#244,.T.);
#480=EDGE_CURVE('',#401,#402,#245,.T.);
#481=EDGE_CURVE('',#402,#403,#246,.T.);
#482=EDGE_CURVE('',#403,#404,#247,.T.);
#483=EDGE_CURVE('',#404,#399,#248,.T.);
#484=EDGE_CURVE('',#395,#398,#249,.T.);
#485=EDGE_CURVE('',#405,#406,#27,.T.);
#486=EDGE_CURVE('',#401,#405,#250,.T.);
#487=EDGE_CURVE('',#400,#406,#251,.T.);
#488=EDGE_CURVE('',#406,#407,#28,.T.);
#489=EDGE_CURVE('',#399,#408,#252,.T.);
#490=EDGE_CURVE('',#407,#408,#29,.T.);
#491=EDGE_CURVE('',#408,#409,#30,.T.);
#492=EDGE_CURVE('',#409,#404,#253,.T.);
#493=EDGE_CURVE('',#409,#410,#31,.T.);
#494=EDGE_CURVE('',#410,#403,#254,.T.);
#495=EDGE_CURVE('',#411,#405,#32,.T.);
#496=EDGE_CURVE('',#402,#411,#255,.T.);
#497=EDGE_CURVE('',#410,#411,#33,.T.);
#498=EDGE_CURVE('',#412,#412,#370,.T.);
#499=EDGE_CURVE('',#407,#412,#256,.T.);
#500=EDGE_CURVE('',#413,#413,#371,.T.);
#501=EDGE_CURVE('',#413,#414,#257,.T.);
#502=EDGE_CURVE('',#414,#414,#372,.T.);
#503=EDGE_CURVE('',#415,#415,#373,.T.);
#504=EDGE_CURVE('',#415,#416,#258,.T.);
#505=EDGE_CURVE('',#416,#416,#374,.T.);
#506=EDGE_CURVE('',#417,#418,#259,.T.);
#507=EDGE_CURVE('',#419,#417,#34,.T.);
#508=EDGE_CURVE('',#420,#419,#260,.T.);
#509=EDGE_CURVE('',#418,#420,#35,.T.);
#510=EDGE_CURVE('',#421,#419,#36,.T.);
#511=EDGE_CURVE('',#421,#422,#261,.T.);
#512=EDGE_CURVE('',#420,#422,#37,.T.);
#513=EDGE_CURVE('',#423,#423,#375,.T.);
#514=EDGE_CURVE('',#423,#424,#262,.T.);
#515=EDGE_CURVE('',#424,#425,#38,.T.);
#516=EDGE_CURVE('',#425,#426,#39,.T.);
#517=EDGE_CURVE('',#426,#421,#40,.T.);
#518=EDGE_CURVE('',#417,#427,#41,.T.);
#519=EDGE_CURVE('',#427,#424,#42,.T.);
#520=EDGE_CURVE('',#428,#418,#43,.T.);
#521=EDGE_CURVE('',#427,#428,#263,.T.);
#522=EDGE_CURVE('',#429,#428,#44,.T.);
#523=EDGE_CURVE('',#430,#429,#45,.T.);
#524=EDGE_CURVE('',#425,#430,#264,.T.);
#525=EDGE_CURVE('',#431,#430,#46,.T.);
#526=EDGE_CURVE('',#426,#431,#265,.T.);
#527=EDGE_CURVE('',#422,#431,#47,.T.);
#528=EDGE_CURVE('',#432,#432,#376,.T.);
#529=EDGE_CURVE('',#429,#432,#266,.T.);
#530=EDGE_CURVE('',#413,#416,#267,.T.);
#531=EDGE_CURVE('',#433,#433,#377,.T.);
#532=EDGE_CURVE('',#433,#434,#268,.T.);
#533=EDGE_CURVE('',#434,#434,#378,.T.);
#534=EDGE_CURVE('',#435,#435,#379,.T.);
#535=EDGE_CURVE('',#435,#436,#269,.T.);
#536=EDGE_CURVE('',#436,#436,#380,.T.);
#537=EDGE_CURVE('',#437,#438,#270,.T.);
#538=EDGE_CURVE('',#438,#439,#271,.T.);
#539=EDGE_CURVE('',#439,#440,#272,.T.);
#540=EDGE_CURVE('',#440,#437,#273,.T.);
#541=EDGE_CURVE('',#441,#442,#274,.T.);
#542=EDGE_CURVE('',#441,#443,#275,.T.);
#543=EDGE_CURVE('',#444,#443,#276,.T.);
#544=EDGE_CURVE('',#442,#444,#277,.T.);
#545=EDGE_CURVE('',#443,#445,#278,.T.);
#546=EDGE_CURVE('',#445,#446,#279,.T.);
#547=EDGE_CURVE('',#446,#444,#280,.T.);
#548=EDGE_CURVE('',#437,#447,#281,.T.);
#549=EDGE_CURVE('',#448,#440,#282,.T.);
#550=EDGE_CURVE('',#449,#448,#283,.T.);
#551=EDGE_CURVE('',#442,#449,#284,.T.);
#552=EDGE_CURVE('',#447,#446,#285,.T.);
#553=EDGE_CURVE('',#450,#438,#286,.T.);
#554=EDGE_CURVE('',#447,#450,#287,.T.);
#555=EDGE_CURVE('',#451,#451,#381,.T.);
#556=EDGE_CURVE('',#452,#452,#382,.T.);
#557=EDGE_CURVE('',#453,#441,#288,.T.);
#558=EDGE_CURVE('',#453,#454,#289,.T.);
#559=EDGE_CURVE('',#454,#439,#290,.T.);
#560=EDGE_CURVE('',#450,#445,#291,.T.);
#561=EDGE_CURVE('',#449,#453,#292,.T.);
#562=EDGE_CURVE('',#454,#448,#293,.T.);
#563=EDGE_CURVE('',#455,#455,#383,.T.);
#564=EDGE_CURVE('',#455,#452,#294,.T.);
#565=EDGE_CURVE('',#456,#456,#384,.T.);
#566=EDGE_CURVE('',#456,#451,#295,.T.);
#567=ORIENTED_EDGE('',*,*,#457,.F.);
#568=ORIENTED_EDGE('',*,*,#458,.T.);
#569=ORIENTED_EDGE('',*,*,#459,.F.);
#570=ORIENTED_EDGE('',*,*,#458,.F.);
#571=ORIENTED_EDGE('',*,*,#460,.F.);
#572=ORIENTED_EDGE('',*,*,#461,.T.);
#573=ORIENTED_EDGE('',*,*,#462,.T.);
#574=ORIENTED_EDGE('',*,*,#461,.F.);
#575=ORIENTED_EDGE('',*,*,#460,.T.);
#576=ORIENTED_EDGE('',*,*,#457,.T.);
#577=ORIENTED_EDGE('',*,*,#462,.F.);
#578=ORIENTED_EDGE('',*,*,#459,.T.);
#579=ORIENTED_EDGE('',*,*,#463,.F.);
#580=ORIENTED_EDGE('',*,*,#464,.F.);
#581=ORIENTED_EDGE('',*,*,#465,.T.);
#582=ORIENTED_EDGE('',*,*,#466,.T.);
#583=ORIENTED_EDGE('',*,*,#465,.F.);
#584=ORIENTED_EDGE('',*,*,#467,.T.);
#585=ORIENTED_EDGE('',*,*,#463,.T.);
#586=ORIENTED_EDGE('',*,*,#467,.F.);
#587=ORIENTED_EDGE('',*,*,#468,.F.);
#588=ORIENTED_EDGE('',*,*,#469,.T.);
#589=ORIENTED_EDGE('',*,*,#464,.T.);
#590=ORIENTED_EDGE('',*,*,#469,.F.);
#591=ORIENTED_EDGE('',*,*,#470,.T.);
#592=ORIENTED_EDGE('',*,*,#468,.T.);
#593=ORIENTED_EDGE('',*,*,#470,.F.);
#594=ORIENTED_EDGE('',*,*,#471,.T.);
#595=ORIENTED_EDGE('',*,*,#466,.F.);
#596=ORIENTED_EDGE('',*,*,#471,.F.);
#597=ORIENTED_EDGE('',*,*,#472,.F.);
#598=ORIENTED_EDGE('',*,*,#473,.T.);
#599=ORIENTED_EDGE('',*,*,#474,.F.);
#600=ORIENTED_EDGE('',*,*,#473,.F.);
#601=ORIENTED_EDGE('',*,*,#475,.T.);
#602=ORIENTED_EDGE('',*,*,#476,.T.);
#603=ORIENTED_EDGE('',*,*,#477,.T.);
#604=ORIENTED_EDGE('',*,*,#476,.F.);
#605=ORIENTED_EDGE('',*,*,#478,.T.);
#606=ORIENTED_EDGE('',*,*,#479,.T.);
#607=ORIENTED_EDGE('',*,*,#480,.T.);
#608=ORIENTED_EDGE('',*,*,#481,.T.);
#609=ORIENTED_EDGE('',*,*,#482,.T.);
#610=ORIENTED_EDGE('',*,*,#483,.T.);
#611=ORIENTED_EDGE('',*,*,#475,.F.);
#612=ORIENTED_EDGE('',*,*,#472,.T.);
#613=ORIENTED_EDGE('',*,*,#484,.T.);
#614=ORIENTED_EDGE('',*,*,#477,.F.);
#615=ORIENTED_EDGE('',*,*,#484,.F.);
#616=ORIENTED_EDGE('',*,*,#485,.F.);
#617=ORIENTED_EDGE('',*,*,#486,.F.);
#618=ORIENTED_EDGE('',*,*,#479,.F.);
#619=ORIENTED_EDGE('',*,*,#487,.T.);
#620=ORIENTED_EDGE('',*,*,#488,.F.);
#621=ORIENTED_EDGE('',*,*,#487,.F.);
#622=ORIENTED_EDGE('',*,*,#478,.F.);
#623=ORIENTED_EDGE('',*,*,#489,.T.);
#624=ORIENTED_EDGE('',*,*,#490,.F.);
#625=ORIENTED_EDGE('',*,*,#491,.F.);
#626=ORIENTED_EDGE('',*,*,#489,.F.);
#627=ORIENTED_EDGE('',*,*,#483,.F.);
#628=ORIENTED_EDGE('',*,*,#492,.F.);
#629=ORIENTED_EDGE('',*,*,#493,.F.);
#630=ORIENTED_EDGE('',*,*,#492,.T.);
#631=ORIENTED_EDGE('',*,*,#482,.F.);
#632=ORIENTED_EDGE('',*,*,#494,.F.);
#633=ORIENTED_EDGE('',*,*,#495,.F.);
#634=ORIENTED_EDGE('',*,*,#496,.F.);
#635=ORIENTED_EDGE('',*,*,#480,.F.);
#636=ORIENTED_EDGE('',*,*,#486,.T.);
#637=ORIENTED_EDGE('',*,*,#497,.F.);
#638=ORIENTED_EDGE('',*,*,#494,.T.);
#639=ORIENTED_EDGE('',*,*,#481,.F.);
#640=ORIENTED_EDGE('',*,*,#496,.T.);
#641=ORIENTED_EDGE('',*,*,#474,.T.);
#642=ORIENTED_EDGE('',*,*,#498,.F.);
#643=ORIENTED_EDGE('',*,*,#491,.T.);
#644=ORIENTED_EDGE('',*,*,#493,.T.);
#645=ORIENTED_EDGE('',*,*,#497,.T.);
#646=ORIENTED_EDGE('',*,*,#495,.T.);
#647=ORIENTED_EDGE('',*,*,#485,.T.);
#648=ORIENTED_EDGE('',*,*,#488,.T.);
#649=ORIENTED_EDGE('',*,*,#499,.T.);
#650=ORIENTED_EDGE('',*,*,#498,.T.);
#651=ORIENTED_EDGE('',*,*,#499,.F.);
#652=ORIENTED_EDGE('',*,*,#490,.T.);
#653=ORIENTED_EDGE('',*,*,#500,.F.);
#654=ORIENTED_EDGE('',*,*,#501,.T.);
#655=ORIENTED_EDGE('',*,*,#502,.F.);
#656=ORIENTED_EDGE('',*,*,#501,.F.);
#657=ORIENTED_EDGE('',*,*,#503,.F.);
#658=ORIENTED_EDGE('',*,*,#504,.T.);
#659=ORIENTED_EDGE('',*,*,#505,.F.);
#660=ORIENTED_EDGE('',*,*,#504,.F.);
#661=ORIENTED_EDGE('',*,*,#506,.F.);
#662=ORIENTED_EDGE('',*,*,#507,.F.);
#663=ORIENTED_EDGE('',*,*,#508,.F.);
#664=ORIENTED_EDGE('',*,*,#509,.F.);
#665=ORIENTED_EDGE('',*,*,#508,.T.);
#666=ORIENTED_EDGE('',*,*,#510,.F.);
#667=ORIENTED_EDGE('',*,*,#511,.T.);
#668=ORIENTED_EDGE('',*,*,#512,.F.);
#669=ORIENTED_EDGE('',*,*,#513,.F.);
#670=ORIENTED_EDGE('',*,*,#514,.T.);
#671=ORIENTED_EDGE('',*,*,#515,.T.);
#672=ORIENTED_EDGE('',*,*,#516,.T.);
#673=ORIENTED_EDGE('',*,*,#517,.T.);
#674=ORIENTED_EDGE('',*,*,#510,.T.);
#675=ORIENTED_EDGE('',*,*,#507,.T.);
#676=ORIENTED_EDGE('',*,*,#518,.T.);
#677=ORIENTED_EDGE('',*,*,#519,.T.);
#678=ORIENTED_EDGE('',*,*,#514,.F.);
#679=ORIENTED_EDGE('',*,*,#506,.T.);
#680=ORIENTED_EDGE('',*,*,#520,.F.);
#681=ORIENTED_EDGE('',*,*,#521,.F.);
#682=ORIENTED_EDGE('',*,*,#518,.F.);
#683=ORIENTED_EDGE('',*,*,#521,.T.);
#684=ORIENTED_EDGE('',*,*,#522,.F.);
#685=ORIENTED_EDGE('',*,*,#523,.F.);
#686=ORIENTED_EDGE('',*,*,#524,.F.);
#687=ORIENTED_EDGE('',*,*,#515,.F.);
#688=ORIENTED_EDGE('',*,*,#519,.F.);
#689=ORIENTED_EDGE('',*,*,#524,.T.);
#690=ORIENTED_EDGE('',*,*,#525,.F.);
#691=ORIENTED_EDGE('',*,*,#526,.F.);
#692=ORIENTED_EDGE('',*,*,#516,.F.);
#693=ORIENTED_EDGE('',*,*,#526,.T.);
#694=ORIENTED_EDGE('',*,*,#527,.F.);
#695=ORIENTED_EDGE('',*,*,#511,.F.);
#696=ORIENTED_EDGE('',*,*,#517,.F.);
#697=ORIENTED_EDGE('',*,*,#528,.F.);
#698=ORIENTED_EDGE('',*,*,#503,.T.);
#699=ORIENTED_EDGE('',*,*,#509,.T.);
#700=ORIENTED_EDGE('',*,*,#512,.T.);
#701=ORIENTED_EDGE('',*,*,#527,.T.);
#702=ORIENTED_EDGE('',*,*,#525,.T.);
#703=ORIENTED_EDGE('',*,*,#523,.T.);
#704=ORIENTED_EDGE('',*,*,#529,.T.);
#705=ORIENTED_EDGE('',*,*,#528,.T.);
#706=ORIENTED_EDGE('',*,*,#529,.F.);
#707=ORIENTED_EDGE('',*,*,#522,.T.);
#708=ORIENTED_EDGE('',*,*,#520,.T.);
#709=ORIENTED_EDGE('',*,*,#513,.T.);
#710=ORIENTED_EDGE('',*,*,#502,.T.);
#711=ORIENTED_EDGE('',*,*,#500,.T.);
#712=ORIENTED_EDGE('',*,*,#530,.T.);
#713=ORIENTED_EDGE('',*,*,#505,.T.);
#714=ORIENTED_EDGE('',*,*,#530,.F.);
#715=ORIENTED_EDGE('',*,*,#531,.F.);
#716=ORIENTED_EDGE('',*,*,#532,.T.);
#717=ORIENTED_EDGE('',*,*,#533,.F.);
#718=ORIENTED_EDGE('',*,*,#532,.F.);
#719=ORIENTED_EDGE('',*,*,#534,.F.);
#720=ORIENTED_EDGE('',*,*,#535,.T.);
#721=ORIENTED_EDGE('',*,*,#536,.F.);
#722=ORIENTED_EDGE('',*,*,#535,.F.);
#723=ORIENTED_EDGE('',*,*,#537,.T.);
#724=ORIENTED_EDGE('',*,*,#538,.T.);
#725=ORIENTED_EDGE('',*,*,#539,.T.);
#726=ORIENTED_EDGE('',*,*,#540,.T.);
#727=ORIENTED_EDGE('',*,*,#533,.T.);
#728=ORIENTED_EDGE('',*,*,#541,.F.);
#729=ORIENTED_EDGE('',*,*,#542,.T.);
#730=ORIENTED_EDGE('',*,*,#543,.F.);
#731=ORIENTED_EDGE('',*,*,#544,.F.);
#732=ORIENTED_EDGE('',*,*,#536,.T.);
#733=ORIENTED_EDGE('',*,*,#545,.T.);
#734=ORIENTED_EDGE('',*,*,#546,.T.);
#735=ORIENTED_EDGE('',*,*,#547,.T.);
#736=ORIENTED_EDGE('',*,*,#543,.T.);
#737=ORIENTED_EDGE('',*,*,#548,.F.);
#738=ORIENTED_EDGE('',*,*,#540,.F.);
#739=ORIENTED_EDGE('',*,*,#549,.F.);
#740=ORIENTED_EDGE('',*,*,#550,.F.);
#741=ORIENTED_EDGE('',*,*,#551,.F.);
#742=ORIENTED_EDGE('',*,*,#544,.T.);
#743=ORIENTED_EDGE('',*,*,#547,.F.);
#744=ORIENTED_EDGE('',*,*,#552,.F.);
#745=ORIENTED_EDGE('',*,*,#553,.T.);
#746=ORIENTED_EDGE('',*,*,#537,.F.);
#747=ORIENTED_EDGE('',*,*,#548,.T.);
#748=ORIENTED_EDGE('',*,*,#554,.T.);
#749=ORIENTED_EDGE('',*,*,#555,.F.);
#750=ORIENTED_EDGE('',*,*,#556,.F.);
#751=ORIENTED_EDGE('',*,*,#557,.F.);
#752=ORIENTED_EDGE('',*,*,#558,.T.);
#753=ORIENTED_EDGE('',*,*,#559,.T.);
#754=ORIENTED_EDGE('',*,*,#538,.F.);
#755=ORIENTED_EDGE('',*,*,#553,.F.);
#756=ORIENTED_EDGE('',*,*,#560,.T.);
#757=ORIENTED_EDGE('',*,*,#545,.F.);
#758=ORIENTED_EDGE('',*,*,#542,.F.);
#759=ORIENTED_EDGE('',*,*,#561,.F.);
#760=ORIENTED_EDGE('',*,*,#550,.T.);
#761=ORIENTED_EDGE('',*,*,#562,.F.);
#762=ORIENTED_EDGE('',*,*,#558,.F.);
#763=ORIENTED_EDGE('',*,*,#531,.T.);
#764=ORIENTED_EDGE('',*,*,#549,.T.);
#765=ORIENTED_EDGE('',*,*,#539,.F.);
#766=ORIENTED_EDGE('',*,*,#559,.F.);
#767=ORIENTED_EDGE('',*,*,#562,.T.);
#768=ORIENTED_EDGE('',*,*,#563,.F.);
#769=ORIENTED_EDGE('',*,*,#564,.T.);
#770=ORIENTED_EDGE('',*,*,#556,.T.);
#771=ORIENTED_EDGE('',*,*,#564,.F.);
#772=ORIENTED_EDGE('',*,*,#565,.F.);
#773=ORIENTED_EDGE('',*,*,#566,.T.);
#774=ORIENTED_EDGE('',*,*,#555,.T.);
#775=ORIENTED_EDGE('',*,*,#566,.F.);
#776=ORIENTED_EDGE('',*,*,#554,.F.);
#777=ORIENTED_EDGE('',*,*,#552,.T.);
#778=ORIENTED_EDGE('',*,*,#546,.F.);
#779=ORIENTED_EDGE('',*,*,#560,.F.);
#780=ORIENTED_EDGE('',*,*,#534,.T.);
#781=ORIENTED_EDGE('',*,*,#541,.T.);
#782=ORIENTED_EDGE('',*,*,#551,.T.);
#783=ORIENTED_EDGE('',*,*,#561,.T.);
#784=ORIENTED_EDGE('',*,*,#557,.T.);
#785=ORIENTED_EDGE('',*,*,#565,.T.);
#786=ORIENTED_EDGE('',*,*,#563,.T.);
#787=CYLINDRICAL_SURFACE('',#889,7.);
#788=CYLINDRICAL_SURFACE('',#892,9.);
#789=CYLINDRICAL_SURFACE('',#903,9.);
#790=CYLINDRICAL_SURFACE('',#904,2.5);
#791=CYLINDRICAL_SURFACE('',#908,7.);
#792=CYLINDRICAL_SURFACE('',#918,2.4505);
#793=CYLINDRICAL_SURFACE('',#948,2.117);
#794=CYLINDRICAL_SURFACE('',#949,2.75);
#795=CYLINDRICAL_SURFACE('',#952,2.75);
#796=CYLINDRICAL_SURFACE('',#965,2.75);
#797=CYLINDRICAL_SURFACE('',#967,2.75);
#798=ADVANCED_FACE('',(#121),#787,.F.);
#799=ADVANCED_FACE('',(#122),#788,.T.);
#800=ADVANCED_FACE('',(#123,#73),#89,.T.);
#801=ADVANCED_FACE('',(#124,#74),#90,.F.);
#802=ADVANCED_FACE('',(#125,#75),#91,.F.);
#803=ADVANCED_FACE('',(#126,#76),#92,.T.);
#804=ADVANCED_FACE('',(#127),#789,.T.);
#805=ADVANCED_FACE('',(#128),#790,.F.);
#806=ADVANCED_FACE('',(#129,#77),#93,.T.);
#807=ADVANCED_FACE('',(#130),#791,.T.);
#808=ADVANCED_FACE('',(#131),#49,.T.);
#809=ADVANCED_FACE('',(#132),#48,.F.);
#810=ADVANCED_FACE('',(#133,#78),#94,.T.);
#811=ADVANCED_FACE('',(#134),#792,.T.);
#812=ADVANCED_FACE('',(#135),#95,.F.);
#813=ADVANCED_FACE('',(#136),#96,.F.);
#814=ADVANCED_FACE('',(#137),#97,.F.);
#815=ADVANCED_FACE('',(#138),#98,.F.);
#816=ADVANCED_FACE('',(#139),#99,.F.);
#817=ADVANCED_FACE('',(#140),#100,.F.);
#818=ADVANCED_FACE('',(#141),#101,.T.);
#819=ADVANCED_FACE('',(#142),#102,.T.);
#820=ADVANCED_FACE('',(#143),#50,.T.);
#821=ADVANCED_FACE('',(#144),#51,.F.);
#822=ADVANCED_FACE('',(#145),#52,.F.);
#823=ADVANCED_FACE('',(#146),#103,.F.);
#824=ADVANCED_FACE('',(#147),#104,.F.);
#825=ADVANCED_FACE('',(#148),#53,.T.);
#826=ADVANCED_FACE('',(#149),#105,.F.);
#827=ADVANCED_FACE('',(#150),#106,.F.);
#828=ADVANCED_FACE('',(#151),#107,.F.);
#829=ADVANCED_FACE('',(#152),#108,.F.);
#830=ADVANCED_FACE('',(#153,#79),#109,.T.);
#831=ADVANCED_FACE('',(#154),#54,.T.);
#832=ADVANCED_FACE('',(#155,#80),#110,.T.);
#833=ADVANCED_FACE('',(#156),#793,.F.);
#834=ADVANCED_FACE('',(#157),#794,.F.);
#835=ADVANCED_FACE('',(#158),#795,.F.);
#836=ADVANCED_FACE('',(#159,#81),#111,.T.);
#837=ADVANCED_FACE('',(#160,#82),#112,.T.);
#838=ADVANCED_FACE('',(#161),#113,.T.);
#839=ADVANCED_FACE('',(#162),#114,.T.);
#840=ADVANCED_FACE('',(#163,#83,#84),#115,.F.);
#841=ADVANCED_FACE('',(#164),#116,.T.);
#842=ADVANCED_FACE('',(#165,#85),#117,.T.);
#843=ADVANCED_FACE('',(#166),#118,.T.);
#844=ADVANCED_FACE('',(#167),#796,.F.);
#845=ADVANCED_FACE('',(#168),#797,.F.);
#846=ADVANCED_FACE('',(#169,#86),#119,.T.);
#847=ADVANCED_FACE('',(#170,#87,#88),#120,.T.);
#848=CLOSED_SHELL('',(#798,#799,#800,#801));
#849=CLOSED_SHELL('',(#802,#803,#804,#805,#806,#807));
#850=CLOSED_SHELL('',(#808,#809,#810,#811,#812,#813,#814,#815,#816,#817,
#818,#819,#820));
#851=CLOSED_SHELL('',(#821,#822,#823,#824,#825,#826,#827,#828,#829,#830,
#831,#832,#833));
#852=CLOSED_SHELL('',(#834,#835,#836,#837,#838,#839,#840,#841,#842,#843,
#844,#845,#846,#847));
#853=DERIVED_UNIT_ELEMENT(#859,1.);
#854=DERIVED_UNIT_ELEMENT(#1503,-3.);
#855=DERIVED_UNIT_ELEMENT(#859,1.);
#856=DERIVED_UNIT_ELEMENT(#1503,-3.);
#857=DERIVED_UNIT_ELEMENT(#859,1.);
#858=DERIVED_UNIT_ELEMENT(#1503,-3.);
#859=(
MASS_UNIT()
NAMED_UNIT(*)
SI_UNIT(.KILO.,.GRAM.)
);
#860=DERIVED_UNIT((#853,#854));
#861=DERIVED_UNIT((#855,#856));
#862=DERIVED_UNIT((#857,#858));
#863=MEASURE_REPRESENTATION_ITEM('density measure',
POSITIVE_RATIO_MEASURE(7850.),#860);
#864=MEASURE_REPRESENTATION_ITEM('density measure',
POSITIVE_RATIO_MEASURE(7750.),#861);
#865=MEASURE_REPRESENTATION_ITEM('density measure',
POSITIVE_RATIO_MEASURE(8030.),#862);
#866=PROPERTY_DEFINITION_REPRESENTATION(#881,#872);
#867=PROPERTY_DEFINITION_REPRESENTATION(#882,#873);
#868=PROPERTY_DEFINITION_REPRESENTATION(#883,#874);
#869=PROPERTY_DEFINITION_REPRESENTATION(#884,#875);
#870=PROPERTY_DEFINITION_REPRESENTATION(#885,#876);
#871=PROPERTY_DEFINITION_REPRESENTATION(#886,#877);
#872=REPRESENTATION('material name',(#878),#1498);
#873=REPRESENTATION('density',(#863),#1498);
#874=REPRESENTATION('material name',(#879),#1499);
#875=REPRESENTATION('density',(#864),#1499);
#876=REPRESENTATION('material name',(#880),#1500);
#877=REPRESENTATION('density',(#865),#1500);
#878=DESCRIPTIVE_REPRESENTATION_ITEM('Steel','Steel');
#879=DESCRIPTIVE_REPRESENTATION_ITEM('Steel 4.6, Plain',
'Steel 4.6, Plain');
#880=DESCRIPTIVE_REPRESENTATION_ITEM('Steel 6, Plain','Steel 6, Plain');
#881=PROPERTY_DEFINITION('material property','material name',#1524);
#882=PROPERTY_DEFINITION('material property','density of part',#1524);
#883=PROPERTY_DEFINITION('material property','material name',#1525);
#884=PROPERTY_DEFINITION('material property','density of part',#1525);
#885=PROPERTY_DEFINITION('material property','material name',#1526);
#886=PROPERTY_DEFINITION('material property','density of part',#1526);
#887=AXIS2_PLACEMENT_3D('',#1210,#975,#976);
#888=AXIS2_PLACEMENT_3D('',#1211,#977,#978);
#889=AXIS2_PLACEMENT_3D('',#1212,#979,#980);
#890=AXIS2_PLACEMENT_3D('',#1214,#981,#982);
#891=AXIS2_PLACEMENT_3D('',#1217,#984,#985);
#892=AXIS2_PLACEMENT_3D('',#1218,#986,#987);
#893=AXIS2_PLACEMENT_3D('',#1220,#988,#989);
#894=AXIS2_PLACEMENT_3D('',#1223,#991,#992);
#895=AXIS2_PLACEMENT_3D('',#1224,#993,#994);
#896=AXIS2_PLACEMENT_3D('',#1225,#995,#996);
#897=AXIS2_PLACEMENT_3D('',#1226,#997,#998);
#898=AXIS2_PLACEMENT_3D('',#1228,#999,#1000);
#899=AXIS2_PLACEMENT_3D('',#1230,#1001,#1002);
#900=AXIS2_PLACEMENT_3D('',#1231,#1003,#1004);
#901=AXIS2_PLACEMENT_3D('',#1233,#1005,#1006);
#902=AXIS2_PLACEMENT_3D('',#1235,#1007,#1008);
#903=AXIS2_PLACEMENT_3D('',#1236,#1009,#1010);
#904=AXIS2_PLACEMENT_3D('',#1238,#1012,#1013);
#905=AXIS2_PLACEMENT_3D('',#1240,#1014,#1015);
#906=AXIS2_PLACEMENT_3D('',#1242,#1017,#1018);
#907=AXIS2_PLACEMENT_3D('',#1244,#1019,#1020);
#908=AXIS2_PLACEMENT_3D('',#1245,#1021,#1022);
#909=AXIS2_PLACEMENT_3D('',#1247,#1024,#1025);
#910=AXIS2_PLACEMENT_3D('',#1248,#1026,#1027);
#911=AXIS2_PLACEMENT_3D('',#1250,#1028,#1029);
#912=AXIS2_PLACEMENT_3D('',#1253,#1031,#1032);
#913=AXIS2_PLACEMENT_3D('',#1254,#1033,#1034);
#914=AXIS2_PLACEMENT_3D('',#1256,#1035,#1036);
#915=AXIS2_PLACEMENT_3D('',#1258,#1037,#1038);
#916=AXIS2_PLACEMENT_3D('',#1259,#1039,#1040);
#917=AXIS2_PLACEMENT_3D('',#1260,#1041,#1042);
#918=AXIS2_PLACEMENT_3D('',#1273,#1049,#1050);
#919=AXIS2_PLACEMENT_3D('',#1275,#1052,#1053);
#920=AXIS2_PLACEMENT_3D('',#1283,#1056,#1057);
#921=AXIS2_PLACEMENT_3D('',#1293,#1059,#1060);
#922=AXIS2_PLACEMENT_3D('',#1299,#1062,#1063);
#923=AXIS2_PLACEMENT_3D('',#1305,#1065,#1066);
#924=AXIS2_PLACEMENT_3D('',#1311,#1068,#1069);
#925=AXIS2_PLACEMENT_3D('',#1315,#1070,#1071);
#926=AXIS2_PLACEMENT_3D('',#1316,#1072,#1073);
#927=AXIS2_PLACEMENT_3D('',#1318,#1074,#1075);
#928=AXIS2_PLACEMENT_3D('',#1319,#1076,#1077);
#929=AXIS2_PLACEMENT_3D('',#1321,#1079,#1080);
#930=AXIS2_PLACEMENT_3D('',#1322,#1081,#1082);
#931=AXIS2_PLACEMENT_3D('',#1324,#1083,#1084);
#932=AXIS2_PLACEMENT_3D('',#1327,#1086,#1087);
#933=AXIS2_PLACEMENT_3D('',#1328,#1088,#1089);
#934=AXIS2_PLACEMENT_3D('',#1330,#1090,#1091);
#935=AXIS2_PLACEMENT_3D('',#1333,#1093,#1094);
#936=AXIS2_PLACEMENT_3D('',#1334,#1095,#1096);
#937=AXIS2_PLACEMENT_3D('',#1347,#1099,#1100);
#938=AXIS2_PLACEMENT_3D('',#1357,#1102,#1103);
#939=AXIS2_PLACEMENT_3D('',#1359,#1104,#1105);
#940=AXIS2_PLACEMENT_3D('',#1380,#1107,#1108);
#941=AXIS2_PLACEMENT_3D('',#1386,#1110,#1111);
#942=AXIS2_PLACEMENT_3D('',#1396,#1113,#1114);
#943=AXIS2_PLACEMENT_3D('',#1402,#1116,#1117);
#944=AXIS2_PLACEMENT_3D('',#1406,#1118,#1119);
#945=AXIS2_PLACEMENT_3D('',#1408,#1120,#1121);
#946=AXIS2_PLACEMENT_3D('',#1409,#1122,#1123);
#947=AXIS2_PLACEMENT_3D('',#1411,#1125,#1126);
#948=AXIS2_PLACEMENT_3D('',#1412,#1127,#1128);
#949=AXIS2_PLACEMENT_3D('',#1414,#1130,#1131);
#950=AXIS2_PLACEMENT_3D('',#1416,#1132,#1133);
#951=AXIS2_PLACEMENT_3D('',#1419,#1135,#1136);
#952=AXIS2_PLACEMENT_3D('',#1420,#1137,#1138);
#953=AXIS2_PLACEMENT_3D('',#1422,#1139,#1140);
#954=AXIS2_PLACEMENT_3D('',#1425,#1142,#1143);
#955=AXIS2_PLACEMENT_3D('',#1426,#1144,#1145);
#956=AXIS2_PLACEMENT_3D('',#1435,#1150,#1151);
#957=AXIS2_PLACEMENT_3D('',#1444,#1156,#1157);
#958=AXIS2_PLACEMENT_3D('',#1450,#1161,#1162);
#959=AXIS2_PLACEMENT_3D('',#1459,#1168,#1169);
#960=AXIS2_PLACEMENT_3D('',#1464,#1172,#1173);
#961=AXIS2_PLACEMENT_3D('',#1466,#1174,#1175);
#962=AXIS2_PLACEMENT_3D('',#1467,#1176,#1177);
#963=AXIS2_PLACEMENT_3D('',#1474,#1182,#1183);
#964=AXIS2_PLACEMENT_3D('',#1477,#1186,#1187);
#965=AXIS2_PLACEMENT_3D('',#1478,#1188,#1189);
#966=AXIS2_PLACEMENT_3D('',#1480,#1190,#1191);
#967=AXIS2_PLACEMENT_3D('',#1482,#1193,#1194);
#968=AXIS2_PLACEMENT_3D('',#1484,#1195,#1196);
#969=AXIS2_PLACEMENT_3D('',#1486,#1198,#1199);
#970=AXIS2_PLACEMENT_3D('',#1487,#1200,#1201);
#971=AXIS2_PLACEMENT_3D('',#1488,#1202,#1203);
#972=AXIS2_PLACEMENT_3D('',#1489,#1204,#1205);
#973=AXIS2_PLACEMENT_3D('',#1490,#1206,#1207);
#974=AXIS2_PLACEMENT_3D('',#1491,#1208,#1209);
#975=DIRECTION('axis',(0.,0.,1.));
#976=DIRECTION('refdir',(1.,0.,0.));
#977=DIRECTION('axis',(0.,0.,1.));
#978=DIRECTION('refdir',(1.,0.,0.));
#979=DIRECTION('center_axis',(0.,1.,0.));
#980=DIRECTION('ref_axis',(1.,0.,0.));
#981=DIRECTION('center_axis',(0.,-1.,0.));
#982=DIRECTION('ref_axis',(1.,0.,0.));
#983=DIRECTION('',(0.,-1.,0.));
#984=DIRECTION('center_axis',(0.,1.,0.));
#985=DIRECTION('ref_axis',(1.,0.,0.));
#986=DIRECTION('center_axis',(0.,1.,0.));
#987=DIRECTION('ref_axis',(1.,0.,0.));
#988=DIRECTION('center_axis',(0.,1.,0.));
#989=DIRECTION('ref_axis',(1.,0.,0.));
#990=DIRECTION('',(0.,-1.,0.));
#991=DIRECTION('center_axis',(0.,1.,0.));
#992=DIRECTION('ref_axis',(1.,0.,0.));
#993=DIRECTION('center_axis',(0.,1.,0.));
#994=DIRECTION('ref_axis',(1.,0.,0.));
#995=DIRECTION('center_axis',(0.,1.,0.));
#996=DIRECTION('ref_axis',(1.,0.,0.));
#997=DIRECTION('center_axis',(0.,1.,0.));
#998=DIRECTION('ref_axis',(1.,0.,0.));
#999=DIRECTION('center_axis',(0.,1.,0.));
#1000=DIRECTION('ref_axis',(1.,0.,0.));
#1001=DIRECTION('center_axis',(0.,-1.,0.));
#1002=DIRECTION('ref_axis',(1.,0.,0.));
#1003=DIRECTION('center_axis',(0.,1.,0.));
#1004=DIRECTION('ref_axis',(1.,0.,0.));
#1005=DIRECTION('center_axis',(0.,1.,0.));
#1006=DIRECTION('ref_axis',(1.,0.,0.));
#1007=DIRECTION('center_axis',(0.,-1.,0.));
#1008=DIRECTION('ref_axis',(1.,0.,0.));
#1009=DIRECTION('center_axis',(0.,1.,0.));
#1010=DIRECTION('ref_axis',(1.,0.,0.));
#1011=DIRECTION('',(0.,-1.,0.));
#1012=DIRECTION('center_axis',(0.,1.,0.));
#1013=DIRECTION('ref_axis',(1.,0.,0.));
#1014=DIRECTION('center_axis',(0.,-1.,0.));
#1015=DIRECTION('ref_axis',(1.,0.,0.));
#1016=DIRECTION('',(0.,-1.,0.));
#1017=DIRECTION('center_axis',(0.,1.,0.));
#1018=DIRECTION('ref_axis',(1.,0.,0.));
#1019=DIRECTION('center_axis',(0.,1.,0.));
#1020=DIRECTION('ref_axis',(1.,0.,0.));
#1021=DIRECTION('center_axis',(0.,1.,0.));
#1022=DIRECTION('ref_axis',(1.,0.,0.));
#1023=DIRECTION('',(0.,-1.,0.));
#1024=DIRECTION('axis',(0.,0.,1.));
#1025=DIRECTION('refdir',(1.,0.,0.));
#1026=DIRECTION('center_axis',(0.,0.,1.));
#1027=DIRECTION('ref_axis',(-1.,0.,0.));
#1028=DIRECTION('center_axis',(1.66739601421738E-15,0.,1.));
#1029=DIRECTION('ref_axis',(-1.,0.,1.30629410512728E-15));
#1030=DIRECTION('',(-0.739940073395804,9.0616524244503E-17,-0.672672793996466));
#1031=DIRECTION('center_axis',(-1.66739601421738E-15,0.,-1.));
#1032=DIRECTION('ref_axis',(-1.,0.,0.));
#1033=DIRECTION('center_axis',(-1.66739601421738E-15,0.,-1.));
#1034=DIRECTION('ref_axis',(-1.,0.,1.66504242423173E-15));
#1035=DIRECTION('center_axis',(-1.66739601421738E-15,0.,-1.));
#1036=DIRECTION('ref_axis',(-1.,0.,1.66739601421738E-15));
#1037=DIRECTION('center_axis',(-1.22464679914735E-16,-1.,2.04197119172237E-31));
#1038=DIRECTION('ref_axis',(1.,-1.22464679914735E-16,-1.66747669678178E-15));
#1039=DIRECTION('center_axis',(1.66739601421738E-15,0.,1.));
#1040=DIRECTION('ref_axis',(-1.,0.,1.67065798951449E-15));
#1041=DIRECTION('center_axis',(-1.66739601421738E-15,0.,-1.));
#1042=DIRECTION('ref_axis',(-1.,0.,1.66739601421738E-15));
#1043=DIRECTION('',(2.42873430308269E-16,-1.,-4.0496618965531E-31));
#1044=DIRECTION('',(-0.866025403784439,-0.5,1.44400730648117E-15));
#1045=DIRECTION('',(-0.866025403784439,0.5,1.44400730648117E-15));
#1046=DIRECTION('',(4.85746860616537E-16,1.,-8.09932379310619E-31));
#1047=DIRECTION('',(0.866025403784439,0.499999999999999,-1.44400730648117E-15));
#1048=DIRECTION('',(0.866025403784438,-0.5,-1.44400730648117E-15));
#1049=DIRECTION('center_axis',(-1.66739601421738E-15,0.,-1.));
#1050=DIRECTION('ref_axis',(-1.,0.,1.30629410512728E-15));
#1051=DIRECTION('',(1.66739601421738E-15,0.,1.));
#1052=DIRECTION('center_axis',(-0.5,0.866025403784439,3.1566429382541E-17));
#1053=DIRECTION('ref_axis',(0.866025403784439,0.5,-5.4674659504096E-17));
#1054=DIRECTION('',(1.66739601421738E-15,0.,1.));
#1055=DIRECTION('',(1.66739601421738E-15,0.,1.));
#1056=DIRECTION('center_axis',(-1.,-2.42873430308269E-16,0.));
#1057=DIRECTION('ref_axis',(-2.42873430308269E-16,1.,1.53332939734429E-32));
#1058=DIRECTION('',(1.66739601421738E-15,0.,1.));
#1059=DIRECTION('center_axis',(-0.5,-0.866025403784438,0.));
#1060=DIRECTION('ref_axis',(-0.866025403784438,0.5,5.4674659504096E-17));
#1061=DIRECTION('',(-1.66739601421738E-15,0.,-1.));
#1062=DIRECTION('center_axis',(0.499999999999999,-0.866025403784439,-3.15664293825408E-17));
#1063=DIRECTION('ref_axis',(-0.866025403784439,-0.499999999999999,5.4674659504096E-17));
#1064=DIRECTION('',(-1.66739601421738E-15,0.,-1.));
#1065=DIRECTION('center_axis',(0.5,0.866025403784439,0.));
#1066=DIRECTION('ref_axis',(0.866025403784439,-0.5,-5.4674659504096E-17));
#1067=DIRECTION('',(1.66739601421738E-15,0.,1.));
#1068=DIRECTION('center_axis',(1.,-4.85746860616537E-16,0.));
#1069=DIRECTION('ref_axis',(-4.85746860616537E-16,-1.,3.06665879468858E-32));
#1070=DIRECTION('center_axis',(-1.66739601421738E-15,0.,-1.));
#1071=DIRECTION('ref_axis',(-1.,0.,1.66739601421738E-15));
#1072=DIRECTION('center_axis',(1.66739601421738E-15,0.,1.));
#1073=DIRECTION('ref_axis',(1.,0.,-1.66739601421738E-15));
#1074=DIRECTION('center_axis',(-1.66739601421738E-15,0.,-1.));
#1075=DIRECTION('ref_axis',(1.,0.,-1.66739601421738E-15));
#1076=DIRECTION('center_axis',(-1.66739601421738E-15,0.,-1.));
#1077=DIRECTION('ref_axis',(-1.,0.,1.30629410512728E-15));
#1078=DIRECTION('',(-0.866025403784438,1.06057523872491E-16,0.500000000000001));
#1079=DIRECTION('axis',(0.,0.,1.));
#1080=DIRECTION('refdir',(1.,0.,0.));
#1081=DIRECTION('center_axis',(0.,0.,-1.));
#1082=DIRECTION('ref_axis',(-1.,0.,0.));
#1083=DIRECTION('center_axis',(0.,0.,-1.));
#1084=DIRECTION('ref_axis',(-1.,0.,0.));
#1085=DIRECTION('',(0.5,-6.12323399573677E-17,-0.866025403784439));
#1086=DIRECTION('center_axis',(0.,0.,1.));
#1087=DIRECTION('ref_axis',(-1.,0.,0.));
#1088=DIRECTION('center_axis',(0.,0.,1.));
#1089=DIRECTION('ref_axis',(-1.,0.,0.));
#1090=DIRECTION('center_axis',(0.,0.,-1.));
#1091=DIRECTION('ref_axis',(-1.,0.,0.));
#1092=DIRECTION('',(-0.500000000000001,6.12323399573678E-17,-0.866025403784438));
#1093=DIRECTION('center_axis',(0.,0.,1.));
#1094=DIRECTION('ref_axis',(-1.,0.,0.));
#1095=DIRECTION('center_axis',(0.499999999999999,-0.86602540378444,0.));
#1096=DIRECTION('ref_axis',(-0.866025403784439,-0.499999999999998,0.));
#1097=DIRECTION('',(0.,0.,1.));
#1098=DIRECTION('',(0.,0.,-1.));
#1099=DIRECTION('center_axis',(1.,-9.60485356035487E-16,0.));
#1100=DIRECTION('ref_axis',(-9.60485356035487E-16,-1.,0.));
#1101=DIRECTION('',(0.,0.,1.));
#1102=DIRECTION('center_axis',(0.,0.,1.));
#1103=DIRECTION('ref_axis',(-1.,0.,0.));
#1104=DIRECTION('center_axis',(0.,0.,-1.));
#1105=DIRECTION('ref_axis',(1.,0.,0.));
#1106=DIRECTION('',(0.866025403784439,-1.06057523872491E-16,0.5));
#1107=DIRECTION('center_axis',(-0.500000000000001,-0.866025403784438,0.));
#1108=DIRECTION('ref_axis',(-0.866025403784438,0.500000000000001,0.));
#1109=DIRECTION('',(0.,0.,1.));
#1110=DIRECTION('center_axis',(-1.,1.08295003595022E-15,0.));
#1111=DIRECTION('ref_axis',(1.08295003595022E-15,1.,0.));
#1112=DIRECTION('',(0.,0.,1.));
#1113=DIRECTION('center_axis',(-0.499999999999999,0.866025403784439,0.));
#1114=DIRECTION('ref_axis',(0.866025403784439,0.499999999999999,0.));
#1115=DIRECTION('',(0.,0.,1.));
#1116=DIRECTION('center_axis',(0.500000000000001,0.866025403784438,0.));
#1117=DIRECTION('ref_axis',(0.866025403784438,-0.500000000000001,0.));
#1118=DIRECTION('center_axis',(0.,0.,1.));
#1119=DIRECTION('ref_axis',(1.,0.,0.));
#1120=DIRECTION('center_axis',(0.,0.,-1.));
#1121=DIRECTION('ref_axis',(1.,0.,0.));
#1122=DIRECTION('center_axis',(0.,0.,-1.));
#1123=DIRECTION('ref_axis',(-1.,0.,0.));
#1124=DIRECTION('',(-0.866025403784439,1.06057523872491E-16,0.5));
#1125=DIRECTION('center_axis',(0.,0.,-1.));
#1126=DIRECTION('ref_axis',(-1.,0.,0.));
#1127=DIRECTION('center_axis',(0.,0.,-1.));
#1128=DIRECTION('ref_axis',(-1.,0.,0.));
#1129=DIRECTION('',(0.,0.,1.));
#1130=DIRECTION('center_axis',(-1.,0.,0.));
#1131=DIRECTION('ref_axis',(0.,1.,0.));
#1132=DIRECTION('center_axis',(-1.,0.,0.));
#1133=DIRECTION('ref_axis',(0.,1.,0.));
#1134=DIRECTION('',(-1.,0.,0.));
#1135=DIRECTION('center_axis',(1.,0.,0.));
#1136=DIRECTION('ref_axis',(0.,1.,0.));
#1137=DIRECTION('center_axis',(-1.,0.,0.));
#1138=DIRECTION('ref_axis',(0.,1.,0.));
#1139=DIRECTION('center_axis',(-1.,0.,0.));
#1140=DIRECTION('ref_axis',(0.,1.,0.));
#1141=DIRECTION('',(-1.,0.,0.));
#1142=DIRECTION('center_axis',(1.,0.,0.));
#1143=DIRECTION('ref_axis',(0.,1.,0.));
#1144=DIRECTION('center_axis',(-1.,0.,0.));
#1145=DIRECTION('ref_axis',(0.,0.,1.));
#1146=DIRECTION('',(0.,-1.,0.));
#1147=DIRECTION('',(0.,0.,1.));
#1148=DIRECTION('',(0.,1.,0.));
#1149=DIRECTION('',(0.,0.,-1.));
#1150=DIRECTION('center_axis',(-1.,0.,0.));
#1151=DIRECTION('ref_axis',(0.,-1.,0.));
#1152=DIRECTION('',(0.,1.,0.));
#1153=DIRECTION('',(0.,0.,1.));
#1154=DIRECTION('',(0.,-1.,0.));
#1155=DIRECTION('',(0.,0.,1.));
#1156=DIRECTION('center_axis',(0.,0.,1.));
#1157=DIRECTION('ref_axis',(1.,0.,0.));
#1158=DIRECTION('',(1.,0.,0.));
#1159=DIRECTION('',(0.,1.,0.));
#1160=DIRECTION('',(-1.,0.,0.));
#1161=DIRECTION('center_axis',(0.,1.,0.));
#1162=DIRECTION('ref_axis',(-1.,0.,0.));
#1163=DIRECTION('',(1.,0.,0.));
#1164=DIRECTION('',(-1.,0.,0.));
#1165=DIRECTION('',(0.,0.,1.));
#1166=DIRECTION('',(-1.,0.,0.));
#1167=DIRECTION('',(0.,0.,1.));
#1168=DIRECTION('center_axis',(0.,0.,1.));
#1169=DIRECTION('ref_axis',(1.,0.,0.));
#1170=DIRECTION('',(-1.,0.,0.));
#1171=DIRECTION('',(0.,-1.,0.));
#1172=DIRECTION('center_axis',(0.,0.,-1.));
#1173=DIRECTION('ref_axis',(1.,0.,0.));
#1174=DIRECTION('center_axis',(0.,0.,-1.));
#1175=DIRECTION('ref_axis',(1.,0.,0.));
#1176=DIRECTION('center_axis',(0.,-1.,0.));
#1177=DIRECTION('ref_axis',(1.,0.,0.));
#1178=DIRECTION('',(1.,0.,0.));
#1179=DIRECTION('',(0.,0.,1.));
#1180=DIRECTION('',(-1.,0.,0.));
#1181=DIRECTION('',(0.,0.,1.));
#1182=DIRECTION('center_axis',(1.,0.,0.));
#1183=DIRECTION('ref_axis',(0.,1.,0.));
#1184=DIRECTION('',(0.,-1.,0.));
#1185=DIRECTION('',(0.,1.,0.));
#1186=DIRECTION('center_axis',(0.,0.,1.));
#1187=DIRECTION('ref_axis',(1.,0.,0.));
#1188=DIRECTION('center_axis',(0.,0.,1.));
#1189=DIRECTION('ref_axis',(1.,0.,0.));
#1190=DIRECTION('center_axis',(0.,0.,-1.));
#1191=DIRECTION('ref_axis',(1.,0.,0.));
#1192=DIRECTION('',(0.,0.,-1.));
#1193=DIRECTION('center_axis',(0.,0.,1.));
#1194=DIRECTION('ref_axis',(1.,0.,0.));
#1195=DIRECTION('center_axis',(0.,0.,-1.));
#1196=DIRECTION('ref_axis',(1.,0.,0.));
#1197=DIRECTION('',(0.,0.,-1.));
#1198=DIRECTION('center_axis',(1.,0.,0.));
#1199=DIRECTION('ref_axis',(0.,1.,0.));
#1200=DIRECTION('center_axis',(0.,0.,1.));
#1201=DIRECTION('ref_axis',(1.,0.,0.));
#1202=DIRECTION('',(-1.0097419586829E-28,0.,1.));
#1203=DIRECTION('',(8.04911692853226E-16,1.,-3.15544362088405E-30));
#1204=DIRECTION('',(1.,0.,1.52655665885959E-16));
#1205=DIRECTION('',(1.52655665885959E-16,0.,-1.));
#1206=DIRECTION('',(-1.,-7.12902227721481E-30,-2.7755575615639E-16));
#1207=DIRECTION('',(-2.7755575615639E-16,-6.31088724176809E-30,1.));
#1208=DIRECTION('',(-1.,-7.12902227721481E-30,-2.7755575615639E-16));
#1209=DIRECTION('',(-2.7755575615639E-16,-6.31088724176809E-30,1.));
#1210=CARTESIAN_POINT('',(0.,0.,0.));
#1211=CARTESIAN_POINT('',(0.,0.,0.));
#1212=CARTESIAN_POINT('Origin',(0.,7.5,0.));
#1213=CARTESIAN_POINT('',(-7.,8.5,8.57252759403147E-16));
#1214=CARTESIAN_POINT('Origin',(0.,8.5,0.));
#1215=CARTESIAN_POINT('',(-7.,7.5,8.57252759403147E-16));
#1216=CARTESIAN_POINT('',(-7.,7.5,8.57252759403147E-16));
#1217=CARTESIAN_POINT('Origin',(0.,7.5,0.));
#1218=CARTESIAN_POINT('Origin',(0.,7.5,0.));
#1219=CARTESIAN_POINT('',(-9.,8.5,1.10218211923262E-15));
#1220=CARTESIAN_POINT('Origin',(0.,8.5,0.));
#1221=CARTESIAN_POINT('',(-9.,7.5,1.10218211923262E-15));
#1222=CARTESIAN_POINT('',(-9.,7.5,1.10218211923262E-15));
#1223=CARTESIAN_POINT('Origin',(0.,7.5,0.));
#1224=CARTESIAN_POINT('Origin',(0.,8.5,0.));
#1225=CARTESIAN_POINT('Origin',(0.,7.5,0.));
#1226=CARTESIAN_POINT('Origin',(0.,0.,0.));
#1227=CARTESIAN_POINT('',(-9.,0.,1.10218211923262E-15));
#1228=CARTESIAN_POINT('Origin',(0.,0.,0.));
#1229=CARTESIAN_POINT('',(-2.5,0.,3.06161699786838E-16));
#1230=CARTESIAN_POINT('Origin',(0.,0.,0.));
#1231=CARTESIAN_POINT('Origin',(0.,1.,0.));
#1232=CARTESIAN_POINT('',(-9.,1.,1.10218211923262E-15));
#1233=CARTESIAN_POINT('Origin',(0.,1.,0.));
#1234=CARTESIAN_POINT('',(-7.,1.,-8.57252759403147E-16));
#1235=CARTESIAN_POINT('Origin',(0.,1.,0.));
#1236=CARTESIAN_POINT('Origin',(0.,0.,0.));
#1237=CARTESIAN_POINT('',(-9.,0.,1.10218211923262E-15));
#1238=CARTESIAN_POINT('Origin',(0.,0.,0.));
#1239=CARTESIAN_POINT('',(-2.5,7.5,3.06161699786838E-16));
#1240=CARTESIAN_POINT('Origin',(0.,7.5,0.));
#1241=CARTESIAN_POINT('',(-2.5,0.,3.06161699786838E-16));
#1242=CARTESIAN_POINT('Origin',(0.,7.5,0.));
#1243=CARTESIAN_POINT('',(-7.,7.5,8.57252759403147E-16));
#1244=CARTESIAN_POINT('Origin',(0.,7.5,0.));
#1245=CARTESIAN_POINT('Origin',(0.,0.,0.));
#1246=CARTESIAN_POINT('',(-7.,0.,8.57252759403147E-16));
#1247=CARTESIAN_POINT('',(0.,0.,0.));
#1248=CARTESIAN_POINT('Origin',(0.,0.,-39.7499999999976));
#1249=CARTESIAN_POINT('',(2.45049999999993,3.00099698131059E-16,-39.590454545452));
#1250=CARTESIAN_POINT('Origin',(-7.16278871542224E-14,0.,-39.590454545452));
#1251=CARTESIAN_POINT('',(2.00000000000007,-2.44929359829479E-16,-39.9999999999976));
#1252=CARTESIAN_POINT('',(2.27499999999996,-2.78607146806018E-16,-39.7499999999976));
#1253=CARTESIAN_POINT('Origin',(0.,0.,-39.9999999999976));
#1254=CARTESIAN_POINT('Origin',(-5.94840024692084E-15,0.,-0.199999999997604));
#1255=CARTESIAN_POINT('',(2.65049999999999,-3.24592634114006E-16,2.39237860468243E-12));
#1256=CARTESIAN_POINT('Origin',(-5.61492104407737E-15,0.,2.39679803781812E-12));
#1257=CARTESIAN_POINT('',(2.45049999999999,3.00099698131059E-16,-0.199999999997608));
#1258=CARTESIAN_POINT('Origin',(2.65049999999999,-3.24592634114006E-16,
-0.199999999997609));
#1259=CARTESIAN_POINT('Origin',(-5.94840024692084E-15,0.,-0.199999999997604));
#1260=CARTESIAN_POINT('Origin',(-2.5,0.,2.40095898497874E-12));
#1261=CARTESIAN_POINT('',(3.95877532577942,2.28559999999999,1.42830192118026E-12));
#1262=CARTESIAN_POINT('',(3.95877532577942,-2.2856,1.42830192118026E-12));
#1263=CARTESIAN_POINT('',(3.95877532577942,-1.1428,2.39003261626181E-12));
#1264=CARTESIAN_POINT('',(1.11022302462516E-15,-4.57119999999999,1.42830192118026E-12));
#1265=CARTESIAN_POINT('',(0.0521938314448552,-4.54106587736527,2.39669395440956E-12));
#1266=CARTESIAN_POINT('',(-3.95877532577942,-2.2856,1.42830192118026E-12));
#1267=CARTESIAN_POINT('',(-3.90658149433457,-2.31573412263472,2.40307773680115E-12));
#1268=CARTESIAN_POINT('',(-3.95877532577942,2.2856,1.42830192118026E-12));
#1269=CARTESIAN_POINT('',(-3.95877532577942,1.1428,2.40335529255731E-12));
#1270=CARTESIAN_POINT('',(6.10622663543845E-15,4.57119999999999,1.42830192118026E-12));
#1271=CARTESIAN_POINT('',(-1.92719383144485,3.45853412263472,2.40002462348343E-12));
#1272=CARTESIAN_POINT('',(2.03158149433456,3.39826587736527,2.39336328533568E-12));
#1273=CARTESIAN_POINT('Origin',(-3.89628413284249E-14,0.,-19.9999999999976));
#1274=CARTESIAN_POINT('',(2.45049999999996,-3.00099698131059E-16,-19.9999999999976));
#1275=CARTESIAN_POINT('Origin',(9.30485810474975E-16,-4.57119999999999,
3.50000000000143));
#1276=CARTESIAN_POINT('',(9.30485810474975E-16,-4.57119999999999,3.12402950470514));
#1277=CARTESIAN_POINT('',(3.95877532577942,-2.2856,3.12402950470513));
#1278=CARTESIAN_POINT('Ctrl Pts',(-2.33171742825475E-14,-4.57120000000001,
3.12402950470513));
#1279=CARTESIAN_POINT('Ctrl Pts',(1.97938766288971,-3.4284,3.78382539233504));
#1280=CARTESIAN_POINT('Ctrl Pts',(3.95877532577944,-2.28559999999998,3.12402950470512));
#1281=CARTESIAN_POINT('',(6.10622663543836E-15,-4.57119999999999,1.56201475235476));
#1282=CARTESIAN_POINT('',(3.95877532577942,-2.28559999999999,1.56201475235475));
#1283=CARTESIAN_POINT('Origin',(3.95877532577942,-2.2856,3.50000000000143));
#1284=CARTESIAN_POINT('',(3.95877532577942,-4.35626188647336E-16,3.47761305522475));
#1285=CARTESIAN_POINT('Ctrl Pts',(3.95877532577942,-2.2856,3.12402950470513));
#1286=CARTESIAN_POINT('Ctrl Pts',(3.95877532577942,-1.06075065155885,3.47761305522475));
#1287=CARTESIAN_POINT('Ctrl Pts',(3.95877532577942,-3.86442224168744E-16,
3.47761305522475));
#1288=CARTESIAN_POINT('',(3.95877532577942,2.28559999999999,3.12402950470513));
#1289=CARTESIAN_POINT('',(3.95877532577941,2.2856,1.56201475235475));
#1290=CARTESIAN_POINT('Ctrl Pts',(3.95877532577942,-3.86442224168744E-16,
3.47761305522475));
#1291=CARTESIAN_POINT('Ctrl Pts',(3.95877532577942,1.06075065155885,3.47761305522475));
#1292=CARTESIAN_POINT('Ctrl Pts',(3.95877532577942,2.2856,3.12402950470513));
#1293=CARTESIAN_POINT('Origin',(3.95877532577942,2.28559999999999,3.50000000000143));
#1294=CARTESIAN_POINT('',(6.30345554893686E-15,4.57119999999999,3.12402950470514));
#1295=CARTESIAN_POINT('Ctrl Pts',(3.95877532577945,2.28559999999998,3.12402950470512));
#1296=CARTESIAN_POINT('Ctrl Pts',(1.97938766288971,3.42839999999999,3.78382539233505));
#1297=CARTESIAN_POINT('Ctrl Pts',(-2.57079089208396E-14,4.57120000000001,
3.12402950470513));
#1298=CARTESIAN_POINT('',(3.33066907387547E-15,4.57119999999999,1.56201475235476));
#1299=CARTESIAN_POINT('Origin',(6.30888164434177E-15,4.57119999999999,3.50000000000143));
#1300=CARTESIAN_POINT('',(-3.95877532577942,2.2856,3.12402950470515));
#1301=CARTESIAN_POINT('Ctrl Pts',(5.7370119759812E-14,4.57120000000002,
3.12402950470512));
#1302=CARTESIAN_POINT('Ctrl Pts',(-1.9793876628897,3.42839999999999,3.78382539233506));
#1303=CARTESIAN_POINT('Ctrl Pts',(-3.95877532577946,2.28559999999997,3.12402950470513));
#1304=CARTESIAN_POINT('',(-3.95877532577942,2.28559999999999,1.56201475235477));
#1305=CARTESIAN_POINT('Origin',(-3.95877532577942,-2.2856,3.50000000000143));
#1306=CARTESIAN_POINT('',(-3.95877532577942,-2.2856,3.12402950470514));
#1307=CARTESIAN_POINT('Ctrl Pts',(-3.95877532577946,-2.28559999999997,3.12402950470513));
#1308=CARTESIAN_POINT('Ctrl Pts',(-1.97938766288971,-3.4284,3.78382539233506));
#1309=CARTESIAN_POINT('Ctrl Pts',(4.45199210789918E-14,-4.57120000000002,
3.12402950470512));
#1310=CARTESIAN_POINT('',(-3.95877532577942,-2.2856,1.56201475235477));
#1311=CARTESIAN_POINT('Origin',(-3.95877532577942,2.2856,3.50000000000143));
#1312=CARTESIAN_POINT('Ctrl Pts',(-3.95877532577942,2.28560000000005,3.12402950470513));
#1313=CARTESIAN_POINT('Ctrl Pts',(-3.95877532577942,1.80411241501588E-15,
3.78382539233506));
#1314=CARTESIAN_POINT('Ctrl Pts',(-3.95877532577942,-2.28560000000005,3.12402950470513));
#1315=CARTESIAN_POINT('Origin',(-7.24420523567915E-14,0.,-39.9999999999976));
#1316=CARTESIAN_POINT('Origin',(-3.91999999999999,0.,3.50000000000143));
#1317=CARTESIAN_POINT('',(3.91999999999999,-4.80061545265762E-16,3.50000000000141));
#1318=CARTESIAN_POINT('Origin',(2.20965005681839E-16,0.,3.50000000000142));
#1319=CARTESIAN_POINT('Origin',(-9.24808469783388E-17,0.,3.31201475235328));
#1320=CARTESIAN_POINT('',(4.24559999999999,-5.19936045045999E-16,3.31201475235327));
#1321=CARTESIAN_POINT('',(0.,0.,0.));
#1322=CARTESIAN_POINT('Origin',(0.,0.,1.175));
#1323=CARTESIAN_POINT('',(2.117,-2.59257727379495E-16,0.663375459298879));
#1324=CARTESIAN_POINT('Origin',(0.,0.,0.663375459298879));
#1325=CARTESIAN_POINT('',(2.5,-3.06161699786838E-16,-4.16333634234434E-16));
#1326=CARTESIAN_POINT('',(1.82161343370219,-2.2308330608672E-16,1.175));
#1327=CARTESIAN_POINT('Origin',(0.,0.,0.));
#1328=CARTESIAN_POINT('Origin',(0.,0.,3.525));
#1329=CARTESIAN_POINT('',(2.5,-3.06161699786838E-16,4.7));
#1330=CARTESIAN_POINT('Origin',(0.,0.,4.7));
#1331=CARTESIAN_POINT('',(2.117,2.59257727379495E-16,4.03662454070112));
#1332=CARTESIAN_POINT('',(1.82161343370219,-2.2308330608672E-16,3.525));
#1333=CARTESIAN_POINT('Origin',(0.,0.,4.03662454070112));
#1334=CARTESIAN_POINT('Origin',(0.0020739247090848,4.61999953450607,4.7));
#1335=CARTESIAN_POINT('',(6.99790272503308E-15,4.618802153517,0.403453611443333));
#1336=CARTESIAN_POINT('',(7.75174395329695E-15,4.618802153517,4.29654638855667));
#1337=CARTESIAN_POINT('',(6.66133814775094E-15,4.618802153517,4.7));
#1338=CARTESIAN_POINT('',(-4.,2.30940107675851,0.403453611443334));
#1339=CARTESIAN_POINT('Ctrl Pts',(-4.,2.30940107675851,0.403453611443334));
#1340=CARTESIAN_POINT('Ctrl Pts',(-2.,3.46410161513776,-0.263213055223338));
#1341=CARTESIAN_POINT('Ctrl Pts',(6.99790272503308E-15,4.618802153517,0.403453611443333));
#1342=CARTESIAN_POINT('',(-4.,2.30940107675851,4.29654638855667));
#1343=CARTESIAN_POINT('',(-4.,2.30940107675851,4.7));
#1344=CARTESIAN_POINT('Ctrl Pts',(7.75174395329695E-15,4.618802153517,4.29654638855667));
#1345=CARTESIAN_POINT('Ctrl Pts',(-1.99999999999999,3.46410161513776,4.96321305522334));
#1346=CARTESIAN_POINT('Ctrl Pts',(-4.,2.30940107675851,4.29654638855667));
#1347=CARTESIAN_POINT('Origin',(-4.,2.31179583873664,4.7));
#1348=CARTESIAN_POINT('',(-4.,-2.3094010767585,0.403453611443333));
#1349=CARTESIAN_POINT('Ctrl Pts',(-4.,-2.3094010767585,0.403453611443333));
#1350=CARTESIAN_POINT('Ctrl Pts',(-4.,4.71844785465692E-15,-0.263213055223334));
#1351=CARTESIAN_POINT('Ctrl Pts',(-4.,2.30940107675851,0.403453611443334));
#1352=CARTESIAN_POINT('',(-4.,-2.3094010767585,4.29654638855667));
#1353=CARTESIAN_POINT('',(-4.,-2.3094010767585,4.7));
#1354=CARTESIAN_POINT('Ctrl Pts',(-4.,2.30940107675851,4.29654638855667));
#1355=CARTESIAN_POINT('Ctrl Pts',(-4.,4.71844785465692E-15,4.96321305522334));
#1356=CARTESIAN_POINT('Ctrl Pts',(-4.,-2.3094010767585,4.29654638855667));
#1357=CARTESIAN_POINT('Origin',(0.,0.,0.202072594216369));
#1358=CARTESIAN_POINT('',(3.92,-4.80061545265762E-16,-2.08166817117217E-16));
#1359=CARTESIAN_POINT('Origin',(0.,0.,0.));
#1360=CARTESIAN_POINT('',(4.,-5.34720752568055E-16,0.0461880215351685));
#1361=CARTESIAN_POINT('',(4.27,-5.2292418323592E-16,0.202072594216369));
#1362=CARTESIAN_POINT('',(4.,-2.30940107675851,0.403453611443333));
#1363=CARTESIAN_POINT('Ctrl Pts',(4.,-5.7958278547717E-16,0.0461880215351685));
#1364=CARTESIAN_POINT('Ctrl Pts',(4.,-1.07179676972449,0.0461880215351678));
#1365=CARTESIAN_POINT('Ctrl Pts',(4.,-2.30940107675851,0.403453611443333));
#1366=CARTESIAN_POINT('',(-5.49413300573807E-15,-4.61880215351701,0.403453611443333));
#1367=CARTESIAN_POINT('Ctrl Pts',(4.,-2.30940107675851,0.403453611443333));
#1368=CARTESIAN_POINT('Ctrl Pts',(2.,-3.46410161513776,-0.263213055223335));
#1369=CARTESIAN_POINT('Ctrl Pts',(-5.49413300573807E-15,-4.61880215351701,
0.403453611443333));
#1370=CARTESIAN_POINT('Ctrl Pts',(-5.3182212032523E-15,-4.61880215351701,
0.403453611443333));
#1371=CARTESIAN_POINT('Ctrl Pts',(-2.,-3.46410161513775,-0.263213055223334));
#1372=CARTESIAN_POINT('Ctrl Pts',(-4.,-2.3094010767585,0.403453611443333));
#1373=CARTESIAN_POINT('',(4.,2.3094010767585,0.403453611443333));
#1374=CARTESIAN_POINT('Ctrl Pts',(6.9154355972884E-15,4.618802153517,0.403453611443333));
#1375=CARTESIAN_POINT('Ctrl Pts',(2.,3.46410161513775,-0.263213055223335));
#1376=CARTESIAN_POINT('Ctrl Pts',(4.,2.3094010767585,0.403453611443333));
#1377=CARTESIAN_POINT('Ctrl Pts',(4.,2.3094010767585,0.403453611443333));
#1378=CARTESIAN_POINT('Ctrl Pts',(4.,1.07179676972449,0.0461880215351693));
#1379=CARTESIAN_POINT('Ctrl Pts',(4.,-5.7958278547717E-16,0.0461880215351685));
#1380=CARTESIAN_POINT('Origin',(4.00207392470908,2.30820369576943,4.7));
#1381=CARTESIAN_POINT('',(4.,2.3094010767585,4.29654638855667));
#1382=CARTESIAN_POINT('Ctrl Pts',(4.,2.3094010767585,4.29654638855667));
#1383=CARTESIAN_POINT('Ctrl Pts',(2.,3.46410161513775,4.96321305522333));
#1384=CARTESIAN_POINT('Ctrl Pts',(7.77698553512513E-15,4.618802153517,4.29654638855667));
#1385=CARTESIAN_POINT('',(4.,2.3094010767585,4.7));
#1386=CARTESIAN_POINT('Origin',(4.,-2.31179583873664,4.7));
#1387=CARTESIAN_POINT('',(4.,-3.73725534379953E-16,4.65381197846483));
#1388=CARTESIAN_POINT('Ctrl Pts',(4.,-2.57592349100964E-16,4.65381197846483));
#1389=CARTESIAN_POINT('Ctrl Pts',(4.,1.07179676972449,4.65381197846483));
#1390=CARTESIAN_POINT('Ctrl Pts',(4.,2.3094010767585,4.29654638855667));
#1391=CARTESIAN_POINT('',(4.,-2.30940107675851,4.29654638855667));
#1392=CARTESIAN_POINT('Ctrl Pts',(4.,-2.30940107675851,4.29654638855667));
#1393=CARTESIAN_POINT('Ctrl Pts',(4.,-1.07179676972449,4.65381197846483));
#1394=CARTESIAN_POINT('Ctrl Pts',(4.,-2.57592349100964E-16,4.65381197846483));
#1395=CARTESIAN_POINT('',(4.,-2.30940107675851,4.7));
#1396=CARTESIAN_POINT('Origin',(-0.00207392470908202,-4.61999953450607,
4.7));
#1397=CARTESIAN_POINT('',(-5.6604256801807E-15,-4.61880215351701,4.29654638855667));
#1398=CARTESIAN_POINT('Ctrl Pts',(-5.6604256801807E-15,-4.61880215351701,
4.29654638855667));
#1399=CARTESIAN_POINT('Ctrl Pts',(2.,-3.46410161513776,4.96321305522333));
#1400=CARTESIAN_POINT('Ctrl Pts',(3.99999999999999,-2.30940107675851,4.29654638855667));
#1401=CARTESIAN_POINT('',(-4.16333634234434E-15,-4.61880215351701,4.7));
#1402=CARTESIAN_POINT('Origin',(-4.00207392470908,-2.30820369576943,4.7));
#1403=CARTESIAN_POINT('Ctrl Pts',(-4.,-2.3094010767585,4.29654638855667));
#1404=CARTESIAN_POINT('Ctrl Pts',(-2.,-3.46410161513775,4.96321305522333));
#1405=CARTESIAN_POINT('Ctrl Pts',(-5.78300828830734E-15,-4.618802153517,
4.29654638855667));
#1406=CARTESIAN_POINT('Origin',(-3.92,0.,4.7));
#1407=CARTESIAN_POINT('',(3.92,-4.80061545265762E-16,4.7));
#1408=CARTESIAN_POINT('Origin',(0.,0.,4.7));
#1409=CARTESIAN_POINT('Origin',(0.,0.,4.49792740578363));
#1410=CARTESIAN_POINT('',(4.27,-5.2292418323592E-16,4.49792740578363));
#1411=CARTESIAN_POINT('Origin',(-2.5,0.,0.));
#1412=CARTESIAN_POINT('Origin',(0.,0.,2.35));
#1413=CARTESIAN_POINT('',(2.117,-2.59257727379495E-16,2.35));
#1414=CARTESIAN_POINT('Origin',(28.,17.0000002533197,25.));
#1415=CARTESIAN_POINT('',(2.00000002980232,14.2500002533197,25.));
#1416=CARTESIAN_POINT('Origin',(2.00000002980232,17.0000002533197,25.));
#1417=CARTESIAN_POINT('',(-8.00000008940697,14.2500002533197,25.));
#1418=CARTESIAN_POINT('',(28.,14.2500002533197,25.));
#1419=CARTESIAN_POINT('Origin',(-8.00000008940697,17.0000002533197,25.));
#1420=CARTESIAN_POINT('Origin',(28.,17.0000002533197,25.));
#1421=CARTESIAN_POINT('',(28.,14.2500002533197,25.));
#1422=CARTESIAN_POINT('Origin',(28.,17.0000002533197,25.));
#1423=CARTESIAN_POINT('',(18.0000001117587,14.2500002533197,25.));
#1424=CARTESIAN_POINT('',(28.,14.2500002533197,25.));
#1425=CARTESIAN_POINT('Origin',(18.0000001117587,17.0000002533197,25.));
#1426=CARTESIAN_POINT('Origin',(-8.00000008940697,35.,0.));
#1427=CARTESIAN_POINT('',(-8.00000008940697,35.,0.));
#1428=CARTESIAN_POINT('',(-8.00000008940697,0.,0.));
#1429=CARTESIAN_POINT('',(-8.00000008940697,35.,0.));
#1430=CARTESIAN_POINT('',(-8.00000008940697,0.,35.));
#1431=CARTESIAN_POINT('',(-8.00000008940697,0.,0.));
#1432=CARTESIAN_POINT('',(-8.00000008940697,35.,35.));
#1433=CARTESIAN_POINT('',(-8.00000008940697,35.,35.));
#1434=CARTESIAN_POINT('',(-8.00000008940697,35.,0.));
#1435=CARTESIAN_POINT('Origin',(18.0000001117587,35.0000005215406,0.));
#1436=CARTESIAN_POINT('',(18.0000001117587,0.,10.));
#1437=CARTESIAN_POINT('',(18.0000001117587,35.0000005215406,10.));
#1438=CARTESIAN_POINT('',(18.0000001117587,26.2500003911555,10.));
#1439=CARTESIAN_POINT('',(18.0000001117587,0.,35.));
#1440=CARTESIAN_POINT('',(18.0000001117587,0.,0.));
#1441=CARTESIAN_POINT('',(18.0000001117587,35.0000005215406,35.));
#1442=CARTESIAN_POINT('',(18.0000001117587,0.,35.));
#1443=CARTESIAN_POINT('',(18.0000001117587,35.0000005215406,0.));
#1444=CARTESIAN_POINT('Origin',(23.0000000558794,17.5000002607703,35.));
#1445=CARTESIAN_POINT('',(28.,0.,35.));
#1446=CARTESIAN_POINT('',(28.,0.,35.));
#1447=CARTESIAN_POINT('',(28.,35.0000005215406,35.));
#1448=CARTESIAN_POINT('',(28.,35.0000005215406,35.));
#1449=CARTESIAN_POINT('',(18.0000001117587,35.0000005215406,35.));
#1450=CARTESIAN_POINT('Origin',(28.,35.0000005215406,0.));
#1451=CARTESIAN_POINT('',(28.,35.0000005215406,0.));
#1452=CARTESIAN_POINT('',(18.0000001117587,35.0000005215406,0.));
#1453=CARTESIAN_POINT('',(2.00000002980232,35.0000005215406,35.));
#1454=CARTESIAN_POINT('',(0.,35.,35.));
#1455=CARTESIAN_POINT('',(2.00000002980232,35.0000005215406,10.));
#1456=CARTESIAN_POINT('',(2.00000002980232,35.0000005215406,0.));
#1457=CARTESIAN_POINT('',(18.0000001117587,35.0000005215406,10.));
#1458=CARTESIAN_POINT('',(28.,35.0000005215406,0.));
#1459=CARTESIAN_POINT('Origin',(10.9999999552965,17.5000002607703,0.));
#1460=CARTESIAN_POINT('',(28.,0.,0.));
#1461=CARTESIAN_POINT('',(-6.00000008940697,0.,0.));
#1462=CARTESIAN_POINT('',(28.,35.0000005215406,0.));
#1463=CARTESIAN_POINT('',(7.25000011175871,25.,0.));
#1464=CARTESIAN_POINT('Origin',(10.0000001117587,25.,0.));
#1465=CARTESIAN_POINT('',(7.25,10.,0.));
#1466=CARTESIAN_POINT('Origin',(10.,10.,0.));
#1467=CARTESIAN_POINT('Origin',(-6.00000008940697,0.,0.));
#1468=CARTESIAN_POINT('',(2.00000002980232,0.,10.));
#1469=CARTESIAN_POINT('',(-6.00000008940697,0.,10.));
#1470=CARTESIAN_POINT('',(2.00000002980232,0.,35.));
#1471=CARTESIAN_POINT('',(2.00000002980232,0.,0.));
#1472=CARTESIAN_POINT('',(-6.00000008940697,0.,35.));
#1473=CARTESIAN_POINT('',(28.,0.,0.));
#1474=CARTESIAN_POINT('Origin',(2.00000002980232,0.,0.));
#1475=CARTESIAN_POINT('',(2.00000002980232,8.75000013038516,10.));
#1476=CARTESIAN_POINT('',(2.00000002980232,35.0000005215406,35.));
#1477=CARTESIAN_POINT('Origin',(-2.00000002980232,17.5000002607703,35.));
#1478=CARTESIAN_POINT('Origin',(10.,10.,0.));
#1479=CARTESIAN_POINT('',(7.25,10.,10.));
#1480=CARTESIAN_POINT('Origin',(10.,10.,10.));
#1481=CARTESIAN_POINT('',(7.25,10.,0.));
#1482=CARTESIAN_POINT('Origin',(10.0000001117587,25.,0.));
#1483=CARTESIAN_POINT('',(7.25000011175871,25.,10.));
#1484=CARTESIAN_POINT('Origin',(10.0000001117587,25.,10.));
#1485=CARTESIAN_POINT('',(7.25000011175871,25.,0.));
#1486=CARTESIAN_POINT('Origin',(28.,0.,0.));
#1487=CARTESIAN_POINT('Origin',(10.9999999552965,17.5000002607703,10.));
#1488=CARTESIAN_POINT('',(16.2270408163266,16.9770408163266,24.9999999999999));
#1489=CARTESIAN_POINT('',(28.0681979836,17.,25.0318020163999));
#1490=CARTESIAN_POINT('',(-8.15000000000005,17.,25.0399999999999));
#1491=CARTESIAN_POINT('',(6.85000000000002,17.0000000000001,25.0399999999998));
#1492=UNCERTAINTY_MEASURE_WITH_UNIT(LENGTH_MEASURE(0.01),#1502,
'DISTANCE_ACCURACY_VALUE',
'Maximum model space distance between geometric entities at asserted c
onnectivities');
#1493=UNCERTAINTY_MEASURE_WITH_UNIT(LENGTH_MEASURE(0.01),#1502,
'DISTANCE_ACCURACY_VALUE',
'Maximum model space distance between geometric entities at asserted c
onnectivities');
#1494=UNCERTAINTY_MEASURE_WITH_UNIT(LENGTH_MEASURE(0.01),#1502,
'DISTANCE_ACCURACY_VALUE',
'Maximum model space distance between geometric entities at asserted c
onnectivities');
#1495=UNCERTAINTY_MEASURE_WITH_UNIT(LENGTH_MEASURE(0.01),#1502,
'DISTANCE_ACCURACY_VALUE',
'Maximum model space distance between geometric entities at asserted c
onnectivities');
#1496=UNCERTAINTY_MEASURE_WITH_UNIT(LENGTH_MEASURE(0.01),#1502,
'DISTANCE_ACCURACY_VALUE',
'Maximum model space distance between geometric entities at asserted c
onnectivities');
#1497=(
GEOMETRIC_REPRESENTATION_CONTEXT(3)
GLOBAL_UNCERTAINTY_ASSIGNED_CONTEXT((#1492))
GLOBAL_UNIT_ASSIGNED_CONTEXT((#1502,#1504,#1505))
REPRESENTATION_CONTEXT('','3D')
);
#1498=(
GEOMETRIC_REPRESENTATION_CONTEXT(3)
GLOBAL_UNCERTAINTY_ASSIGNED_CONTEXT((#1493))
GLOBAL_UNIT_ASSIGNED_CONTEXT((#1502,#1504,#1505))
REPRESENTATION_CONTEXT('','3D')
);
#1499=(
GEOMETRIC_REPRESENTATION_CONTEXT(3)
GLOBAL_UNCERTAINTY_ASSIGNED_CONTEXT((#1494))
GLOBAL_UNIT_ASSIGNED_CONTEXT((#1502,#1504,#1505))
REPRESENTATION_CONTEXT('','3D')
);
#1500=(
GEOMETRIC_REPRESENTATION_CONTEXT(3)
GLOBAL_UNCERTAINTY_ASSIGNED_CONTEXT((#1495))
GLOBAL_UNIT_ASSIGNED_CONTEXT((#1502,#1504,#1505))
REPRESENTATION_CONTEXT('','3D')
);
#1501=(
GEOMETRIC_REPRESENTATION_CONTEXT(3)
GLOBAL_UNCERTAINTY_ASSIGNED_CONTEXT((#1496))
GLOBAL_UNIT_ASSIGNED_CONTEXT((#1502,#1504,#1505))
REPRESENTATION_CONTEXT('','3D')
);
#1502=(
LENGTH_UNIT()
NAMED_UNIT(*)
SI_UNIT(.MILLI.,.METRE.)
);
#1503=(
LENGTH_UNIT()
NAMED_UNIT(*)
SI_UNIT($,.METRE.)
);
#1504=(
NAMED_UNIT(*)
PLANE_ANGLE_UNIT()
SI_UNIT($,.RADIAN.)
);
#1505=(
NAMED_UNIT(*)
SI_UNIT($,.STERADIAN.)
SOLID_ANGLE_UNIT()
);
#1506=SHAPE_DEFINITION_REPRESENTATION(#1510,#1518);
#1507=SHAPE_DEFINITION_REPRESENTATION(#1511,#1519);
#1508=SHAPE_DEFINITION_REPRESENTATION(#1512,#1520);
#1509=SHAPE_DEFINITION_REPRESENTATION(#1513,#1521);
#1510=PRODUCT_DEFINITION_SHAPE('',$,#1523);
#1511=PRODUCT_DEFINITION_SHAPE('',$,#1524);
#1512=PRODUCT_DEFINITION_SHAPE('',$,#1525);
#1513=PRODUCT_DEFINITION_SHAPE('',$,#1526);
#1514=PRODUCT_DEFINITION_SHAPE($,$,#23);
#1515=PRODUCT_DEFINITION_SHAPE($,$,#24);
#1516=PRODUCT_DEFINITION_SHAPE($,$,#25);
#1517=PRODUCT_DEFINITION_SHAPE($,$,#26);
#1518=SHAPE_REPRESENTATION('',(#887,#971,#972,#973,#974),#1497);
#1519=SHAPE_REPRESENTATION('',(#888),#1498);
#1520=SHAPE_REPRESENTATION('',(#909),#1499);
#1521=SHAPE_REPRESENTATION('',(#929),#1500);
#1522=PRODUCT_DEFINITION_CONTEXT('part definition',#1536,'design');
#1523=PRODUCT_DEFINITION('2026-02-18-14-44-48-832',
'Y axis idle  bracket',#1527,#1522);
#1524=PRODUCT_DEFINITION('2025-12-12-13-43-18-296','GT2 Idle pulley',#1528,
#1522);
#1525=PRODUCT_DEFINITION('JIS B 1180 - M5x40 C Steel 4.6 Plain',
'Hex Head Bolt JIS B 1180 - M5x40 - C Steel 4.6 Plain',#1529,#1522);
#1526=PRODUCT_DEFINITION('DIN EN ISO 4032 - M5 Steel 6 Plain',
'Hexagon Regular Nut DIN EN ISO 4032 - M5 Steel 6 Plain',#1530,#1522);
#1527=PRODUCT_DEFINITION_FORMATION('',$,#1538);
#1528=PRODUCT_DEFINITION_FORMATION('',$,#1539);
#1529=PRODUCT_DEFINITION_FORMATION('',$,#1540);
#1530=PRODUCT_DEFINITION_FORMATION('',$,#1541);
#1531=PRODUCT_RELATED_PRODUCT_CATEGORY('Y axis idle  bracket',
'Y axis idle  bracket',(#1538));
#1532=PRODUCT_RELATED_PRODUCT_CATEGORY('GT2 Idle pulley',
'GT2 Idle pulley',(#1539));
#1533=PRODUCT_RELATED_PRODUCT_CATEGORY(
'Hex Head Bolt JIS B 1180 - M5x40 - C Steel 4.6 Plain',
'Hex Head Bolt JIS B 1180 - M5x40 - C Steel 4.6 Plain',(#1540));
#1534=PRODUCT_RELATED_PRODUCT_CATEGORY(
'Hexagon Regular Nut DIN EN ISO 4032 - M5 Steel 6 Plain',
'Hexagon Regular Nut DIN EN ISO 4032 - M5 Steel 6 Plain',(#1541));
#1535=APPLICATION_PROTOCOL_DEFINITION('international standard',
'automotive_design',2009,#1536);
#1536=APPLICATION_CONTEXT(
'Core Data for Automotive Mechanical Design Process');
#1537=PRODUCT_CONTEXT('part definition',#1536,'mechanical');
#1538=PRODUCT('2026-02-18-14-44-48-832','Y axis idle  bracket',$,(#1537));
#1539=PRODUCT('2025-12-12-13-43-18-296','GT2 Idle pulley',$,(#1537));
#1540=PRODUCT('JIS B 1180 - M5x40 C Steel 4.6 Plain',
'Hex Head Bolt JIS B 1180 - M5x40 - C Steel 4.6 Plain',
'Hex Head Bolt JIS B 1180 - M5x40 - C',(#1537));
#1541=PRODUCT('DIN EN ISO 4032 - M5 Steel 6 Plain',
'Hexagon Regular Nut DIN EN ISO 4032 - M5 Steel 6 Plain',
'Hexagon Regular Nut DIN EN ISO 4032 - M5',(#1537));
#1542=PRESENTATION_STYLE_ASSIGNMENT((#1544));
#1543=PRESENTATION_STYLE_ASSIGNMENT((#1545));
#1544=SURFACE_STYLE_USAGE(.BOTH.,#1546);
#1545=SURFACE_STYLE_USAGE(.BOTH.,#1547);
#1546=SURFACE_SIDE_STYLE('',(#1548));
#1547=SURFACE_SIDE_STYLE('',(#1549));
#1548=SURFACE_STYLE_FILL_AREA(#1550);
#1549=SURFACE_STYLE_FILL_AREA(#1551);
#1550=FILL_AREA_STYLE('Steel - Satin',(#1552));
#1551=FILL_AREA_STYLE('Stainless Steel - Satin',(#1553));
#1552=FILL_AREA_STYLE_COLOUR('Steel - Satin',#1554);
#1553=FILL_AREA_STYLE_COLOUR('Stainless Steel - Satin',#1555);
#1554=COLOUR_RGB('Steel - Satin',0.627450980392157,0.627450980392157,0.627450980392157);
#1555=COLOUR_RGB('Stainless Steel - Satin',0.796078431372549,0.796078431372549,
0.796078431372549);
ENDSEC;
END-ISO-10303-21;
