ISO-10303-21;
HEADER;
/* Generated by software containing ST-Developer
 * from STEP Tools, Inc. (www.steptools.com) 
 */

FILE_DESCRIPTION(
/* description */ (''),
/* implementation_level */ '2;1');

FILE_NAME(
/* name */ 'Y carriage stepper motor print file.step',
/* time_stamp */ '2026-01-02T13:14:04+11:00',
/* author */ (''),
/* organization */ (''),
/* preprocessor_version */ 'ST-DEVELOPER v20.1',
/* originating_system */ 'Autodesk Translation Framework v14.21.0.0',
/* authorisation */ '');

FILE_SCHEMA (('AUTOMOTIVE_DESIGN { 1 0 10303 214 3 1 1 }'));
ENDSEC;

DATA;
#10=MECHANICAL_DESIGN_GEOMETRIC_PRESENTATION_REPRESENTATION('',(#19,#20),
#896);
#11=ITEM_DEFINED_TRANSFORMATION($,$,#544,#599);
#12=(
REPRESENTATION_RELATIONSHIP($,$,#907,#906)
REPRESENTATION_RELATIONSHIP_WITH_TRANSFORMATION(#11)
SHAPE_REPRESENTATION_RELATIONSHIP()
);
#13=CONTEXT_DEPENDENT_SHAPE_REPRESENTATION(#12,#905);
#14=NEXT_ASSEMBLY_USAGE_OCCURRENCE('Nema 17 face mount:1',
'Nema 17 face mount:1','Nema 17 face mount:1',#909,#910,
'Nema 17 face mount:1');
#15=SHAPE_REPRESENTATION_RELATIONSHIP('SRR','None',#907,#17);
#16=SHAPE_REPRESENTATION_RELATIONSHIP('SRR','None',#906,#18);
#17=ADVANCED_BREP_SHAPE_REPRESENTATION('',(#21),#895);
#18=ADVANCED_BREP_SHAPE_REPRESENTATION('',(#22),#894);
#19=STYLED_ITEM('',(#920),#21);
#20=STYLED_ITEM('',(#920),#22);
#21=MANIFOLD_SOLID_BREP('Body2',#529);
#22=MANIFOLD_SOLID_BREP('Body1',#530);
#23=FACE_BOUND('',#99,.T.);
#24=FACE_BOUND('',#100,.T.);
#25=FACE_BOUND('',#101,.T.);
#26=FACE_BOUND('',#102,.T.);
#27=FACE_BOUND('',#103,.T.);
#28=FACE_BOUND('',#105,.T.);
#29=FACE_BOUND('',#106,.T.);
#30=FACE_BOUND('',#107,.T.);
#31=FACE_BOUND('',#108,.T.);
#32=FACE_BOUND('',#109,.T.);
#33=FACE_BOUND('',#124,.T.);
#34=FACE_BOUND('',#125,.T.);
#35=FACE_BOUND('',#126,.T.);
#36=FACE_BOUND('',#127,.T.);
#37=FACE_BOUND('',#128,.T.);
#38=FACE_BOUND('',#129,.T.);
#39=FACE_BOUND('',#130,.T.);
#40=FACE_BOUND('',#131,.T.);
#41=FACE_BOUND('',#132,.T.);
#42=FACE_BOUND('',#134,.T.);
#43=FACE_BOUND('',#135,.T.);
#44=FACE_BOUND('',#136,.T.);
#45=FACE_BOUND('',#137,.T.);
#46=FACE_BOUND('',#138,.T.);
#47=FACE_BOUND('',#139,.T.);
#48=FACE_BOUND('',#140,.T.);
#49=FACE_BOUND('',#141,.T.);
#50=FACE_BOUND('',#142,.T.);
#51=PLANE('',#560);
#52=PLANE('',#561);
#53=PLANE('',#562);
#54=PLANE('',#563);
#55=PLANE('',#564);
#56=PLANE('',#565);
#57=PLANE('',#593);
#58=PLANE('',#594);
#59=PLANE('',#595);
#60=PLANE('',#596);
#61=PLANE('',#597);
#62=PLANE('',#598);
#63=FACE_OUTER_BOUND('',#89,.T.);
#64=FACE_OUTER_BOUND('',#90,.T.);
#65=FACE_OUTER_BOUND('',#91,.T.);
#66=FACE_OUTER_BOUND('',#92,.T.);
#67=FACE_OUTER_BOUND('',#93,.T.);
#68=FACE_OUTER_BOUND('',#94,.T.);
#69=FACE_OUTER_BOUND('',#95,.T.);
#70=FACE_OUTER_BOUND('',#96,.T.);
#71=FACE_OUTER_BOUND('',#97,.T.);
#72=FACE_OUTER_BOUND('',#98,.T.);
#73=FACE_OUTER_BOUND('',#104,.T.);
#74=FACE_OUTER_BOUND('',#110,.T.);
#75=FACE_OUTER_BOUND('',#111,.T.);
#76=FACE_OUTER_BOUND('',#112,.T.);
#77=FACE_OUTER_BOUND('',#113,.T.);
#78=FACE_OUTER_BOUND('',#114,.T.);
#79=FACE_OUTER_BOUND('',#115,.T.);
#80=FACE_OUTER_BOUND('',#116,.T.);
#81=FACE_OUTER_BOUND('',#117,.T.);
#82=FACE_OUTER_BOUND('',#118,.T.);
#83=FACE_OUTER_BOUND('',#119,.T.);
#84=FACE_OUTER_BOUND('',#120,.T.);
#85=FACE_OUTER_BOUND('',#121,.T.);
#86=FACE_OUTER_BOUND('',#122,.T.);
#87=FACE_OUTER_BOUND('',#123,.T.);
#88=FACE_OUTER_BOUND('',#133,.T.);
#89=EDGE_LOOP('',(#357,#358,#359,#360));
#90=EDGE_LOOP('',(#361,#362,#363,#364));
#91=EDGE_LOOP('',(#365,#366,#367,#368));
#92=EDGE_LOOP('',(#369,#370,#371,#372));
#93=EDGE_LOOP('',(#373,#374,#375,#376));
#94=EDGE_LOOP('',(#377,#378,#379,#380));
#95=EDGE_LOOP('',(#381,#382,#383,#384));
#96=EDGE_LOOP('',(#385,#386,#387,#388));
#97=EDGE_LOOP('',(#389,#390,#391,#392));
#98=EDGE_LOOP('',(#393,#394,#395,#396));
#99=EDGE_LOOP('',(#397));
#100=EDGE_LOOP('',(#398));
#101=EDGE_LOOP('',(#399));
#102=EDGE_LOOP('',(#400));
#103=EDGE_LOOP('',(#401));
#104=EDGE_LOOP('',(#402,#403,#404,#405));
#105=EDGE_LOOP('',(#406));
#106=EDGE_LOOP('',(#407));
#107=EDGE_LOOP('',(#408));
#108=EDGE_LOOP('',(#409));
#109=EDGE_LOOP('',(#410));
#110=EDGE_LOOP('',(#411,#412,#413,#414));
#111=EDGE_LOOP('',(#415,#416,#417,#418));
#112=EDGE_LOOP('',(#419,#420,#421,#422));
#113=EDGE_LOOP('',(#423,#424,#425,#426));
#114=EDGE_LOOP('',(#427,#428,#429,#430));
#115=EDGE_LOOP('',(#431,#432,#433,#434));
#116=EDGE_LOOP('',(#435,#436,#437,#438));
#117=EDGE_LOOP('',(#439,#440,#441,#442));
#118=EDGE_LOOP('',(#443,#444,#445,#446));
#119=EDGE_LOOP('',(#447,#448,#449,#450));
#120=EDGE_LOOP('',(#451,#452,#453,#454));
#121=EDGE_LOOP('',(#455,#456,#457,#458));
#122=EDGE_LOOP('',(#459,#460,#461,#462));
#123=EDGE_LOOP('',(#463,#464,#465,#466));
#124=EDGE_LOOP('',(#467));
#125=EDGE_LOOP('',(#468));
#126=EDGE_LOOP('',(#469));
#127=EDGE_LOOP('',(#470));
#128=EDGE_LOOP('',(#471));
#129=EDGE_LOOP('',(#472));
#130=EDGE_LOOP('',(#473));
#131=EDGE_LOOP('',(#474));
#132=EDGE_LOOP('',(#475));
#133=EDGE_LOOP('',(#476,#477,#478,#479));
#134=EDGE_LOOP('',(#480));
#135=EDGE_LOOP('',(#481));
#136=EDGE_LOOP('',(#482));
#137=EDGE_LOOP('',(#483));
#138=EDGE_LOOP('',(#484));
#139=EDGE_LOOP('',(#485));
#140=EDGE_LOOP('',(#486));
#141=EDGE_LOOP('',(#487));
#142=EDGE_LOOP('',(#488));
#143=LINE('',#758,#181);
#144=LINE('',#764,#182);
#145=LINE('',#770,#183);
#146=LINE('',#776,#184);
#147=LINE('',#782,#185);
#148=LINE('',#787,#186);
#149=LINE('',#789,#187);
#150=LINE('',#791,#188);
#151=LINE('',#792,#189);
#152=LINE('',#795,#190);
#153=LINE('',#797,#191);
#154=LINE('',#798,#192);
#155=LINE('',#801,#193);
#156=LINE('',#803,#194);
#157=LINE('',#804,#195);
#158=LINE('',#806,#196);
#159=LINE('',#807,#197);
#160=LINE('',#814,#198);
#161=LINE('',#820,#199);
#162=LINE('',#826,#200);
#163=LINE('',#832,#201);
#164=LINE('',#838,#202);
#165=LINE('',#844,#203);
#166=LINE('',#850,#204);
#167=LINE('',#856,#205);
#168=LINE('',#862,#206);
#169=LINE('',#867,#207);
#170=LINE('',#869,#208);
#171=LINE('',#871,#209);
#172=LINE('',#872,#210);
#173=LINE('',#875,#211);
#174=LINE('',#877,#212);
#175=LINE('',#878,#213);
#176=LINE('',#881,#214);
#177=LINE('',#883,#215);
#178=LINE('',#884,#216);
#179=LINE('',#886,#217);
#180=LINE('',#887,#218);
#181=VECTOR('',#608,1.75);
#182=VECTOR('',#615,1.75);
#183=VECTOR('',#622,11.);
#184=VECTOR('',#629,1.75);
#185=VECTOR('',#636,1.75);
#186=VECTOR('',#641,10.);
#187=VECTOR('',#642,10.);
#188=VECTOR('',#643,10.);
#189=VECTOR('',#644,10.);
#190=VECTOR('',#647,10.);
#191=VECTOR('',#648,10.);
#192=VECTOR('',#649,10.);
#193=VECTOR('',#652,10.);
#194=VECTOR('',#653,10.);
#195=VECTOR('',#654,10.);
#196=VECTOR('',#657,10.);
#197=VECTOR('',#658,10.);
#198=VECTOR('',#667,2.1);
#199=VECTOR('',#674,2.1);
#200=VECTOR('',#681,2.09999999999999);
#201=VECTOR('',#688,2.1);
#202=VECTOR('',#695,2.1);
#203=VECTOR('',#702,2.75);
#204=VECTOR('',#709,2.1);
#205=VECTOR('',#716,2.09999999999999);
#206=VECTOR('',#723,2.1);
#207=VECTOR('',#728,10.);
#208=VECTOR('',#729,10.);
#209=VECTOR('',#730,10.);
#210=VECTOR('',#731,10.);
#211=VECTOR('',#734,10.);
#212=VECTOR('',#735,10.);
#213=VECTOR('',#736,10.);
#214=VECTOR('',#739,10.);
#215=VECTOR('',#740,10.);
#216=VECTOR('',#741,10.);
#217=VECTOR('',#744,10.);
#218=VECTOR('',#745,10.);
#219=CIRCLE('',#546,1.75);
#220=CIRCLE('',#547,1.75);
#221=CIRCLE('',#549,1.75);
#222=CIRCLE('',#550,1.75);
#223=CIRCLE('',#552,11.);
#224=CIRCLE('',#553,11.);
#225=CIRCLE('',#555,1.75);
#226=CIRCLE('',#556,1.75);
#227=CIRCLE('',#558,1.75);
#228=CIRCLE('',#559,1.75);
#229=CIRCLE('',#567,2.1);
#230=CIRCLE('',#568,2.1);
#231=CIRCLE('',#570,2.1);
#232=CIRCLE('',#571,2.1);
#233=CIRCLE('',#573,2.09999999999999);
#234=CIRCLE('',#574,2.09999999999999);
#235=CIRCLE('',#576,2.1);
#236=CIRCLE('',#577,2.1);
#237=CIRCLE('',#579,2.1);
#238=CIRCLE('',#580,2.1);
#239=CIRCLE('',#582,2.75);
#240=CIRCLE('',#583,2.75);
#241=CIRCLE('',#585,2.1);
#242=CIRCLE('',#586,2.1);
#243=CIRCLE('',#588,2.09999999999999);
#244=CIRCLE('',#589,2.09999999999999);
#245=CIRCLE('',#591,2.1);
#246=CIRCLE('',#592,2.1);
#247=VERTEX_POINT('',#755);
#248=VERTEX_POINT('',#757);
#249=VERTEX_POINT('',#761);
#250=VERTEX_POINT('',#763);
#251=VERTEX_POINT('',#767);
#252=VERTEX_POINT('',#769);
#253=VERTEX_POINT('',#773);
#254=VERTEX_POINT('',#775);
#255=VERTEX_POINT('',#779);
#256=VERTEX_POINT('',#781);
#257=VERTEX_POINT('',#785);
#258=VERTEX_POINT('',#786);
#259=VERTEX_POINT('',#788);
#260=VERTEX_POINT('',#790);
#261=VERTEX_POINT('',#794);
#262=VERTEX_POINT('',#796);
#263=VERTEX_POINT('',#800);
#264=VERTEX_POINT('',#802);
#265=VERTEX_POINT('',#811);
#266=VERTEX_POINT('',#813);
#267=VERTEX_POINT('',#817);
#268=VERTEX_POINT('',#819);
#269=VERTEX_POINT('',#823);
#270=VERTEX_POINT('',#825);
#271=VERTEX_POINT('',#829);
#272=VERTEX_POINT('',#831);
#273=VERTEX_POINT('',#835);
#274=VERTEX_POINT('',#837);
#275=VERTEX_POINT('',#841);
#276=VERTEX_POINT('',#843);
#277=VERTEX_POINT('',#847);
#278=VERTEX_POINT('',#849);
#279=VERTEX_POINT('',#853);
#280=VERTEX_POINT('',#855);
#281=VERTEX_POINT('',#859);
#282=VERTEX_POINT('',#861);
#283=VERTEX_POINT('',#865);
#284=VERTEX_POINT('',#866);
#285=VERTEX_POINT('',#868);
#286=VERTEX_POINT('',#870);
#287=VERTEX_POINT('',#874);
#288=VERTEX_POINT('',#876);
#289=VERTEX_POINT('',#880);
#290=VERTEX_POINT('',#882);
#291=EDGE_CURVE('',#247,#247,#219,.T.);
#292=EDGE_CURVE('',#247,#248,#143,.T.);
#293=EDGE_CURVE('',#248,#248,#220,.T.);
#294=EDGE_CURVE('',#249,#249,#221,.T.);
#295=EDGE_CURVE('',#249,#250,#144,.T.);
#296=EDGE_CURVE('',#250,#250,#222,.T.);
#297=EDGE_CURVE('',#251,#251,#223,.T.);
#298=EDGE_CURVE('',#251,#252,#145,.T.);
#299=EDGE_CURVE('',#252,#252,#224,.T.);
#300=EDGE_CURVE('',#253,#253,#225,.T.);
#301=EDGE_CURVE('',#253,#254,#146,.T.);
#302=EDGE_CURVE('',#254,#254,#226,.T.);
#303=EDGE_CURVE('',#255,#255,#227,.T.);
#304=EDGE_CURVE('',#255,#256,#147,.T.);
#305=EDGE_CURVE('',#256,#256,#228,.T.);
#306=EDGE_CURVE('',#257,#258,#148,.T.);
#307=EDGE_CURVE('',#258,#259,#149,.T.);
#308=EDGE_CURVE('',#260,#259,#150,.T.);
#309=EDGE_CURVE('',#257,#260,#151,.T.);
#310=EDGE_CURVE('',#261,#257,#152,.T.);
#311=EDGE_CURVE('',#262,#260,#153,.T.);
#312=EDGE_CURVE('',#261,#262,#154,.T.);
#313=EDGE_CURVE('',#263,#261,#155,.T.);
#314=EDGE_CURVE('',#264,#262,#156,.T.);
#315=EDGE_CURVE('',#263,#264,#157,.T.);
#316=EDGE_CURVE('',#258,#263,#158,.T.);
#317=EDGE_CURVE('',#259,#264,#159,.T.);
#318=EDGE_CURVE('',#265,#265,#229,.T.);
#319=EDGE_CURVE('',#265,#266,#160,.T.);
#320=EDGE_CURVE('',#266,#266,#230,.T.);
#321=EDGE_CURVE('',#267,#267,#231,.T.);
#322=EDGE_CURVE('',#267,#268,#161,.T.);
#323=EDGE_CURVE('',#268,#268,#232,.T.);
#324=EDGE_CURVE('',#269,#269,#233,.T.);
#325=EDGE_CURVE('',#269,#270,#162,.T.);
#326=EDGE_CURVE('',#270,#270,#234,.T.);
#327=EDGE_CURVE('',#271,#271,#235,.T.);
#328=EDGE_CURVE('',#271,#272,#163,.T.);
#329=EDGE_CURVE('',#272,#272,#236,.T.);
#330=EDGE_CURVE('',#273,#273,#237,.T.);
#331=EDGE_CURVE('',#273,#274,#164,.T.);
#332=EDGE_CURVE('',#274,#274,#238,.T.);
#333=EDGE_CURVE('',#275,#275,#239,.T.);
#334=EDGE_CURVE('',#275,#276,#165,.T.);
#335=EDGE_CURVE('',#276,#276,#240,.T.);
#336=EDGE_CURVE('',#277,#277,#241,.T.);
#337=EDGE_CURVE('',#277,#278,#166,.T.);
#338=EDGE_CURVE('',#278,#278,#242,.T.);
#339=EDGE_CURVE('',#279,#279,#243,.T.);
#340=EDGE_CURVE('',#279,#280,#167,.T.);
#341=EDGE_CURVE('',#280,#280,#244,.T.);
#342=EDGE_CURVE('',#281,#281,#245,.T.);
#343=EDGE_CURVE('',#281,#282,#168,.T.);
#344=EDGE_CURVE('',#282,#282,#246,.T.);
#345=EDGE_CURVE('',#283,#284,#169,.T.);
#346=EDGE_CURVE('',#283,#285,#170,.T.);
#347=EDGE_CURVE('',#286,#285,#171,.T.);
#348=EDGE_CURVE('',#284,#286,#172,.T.);
#349=EDGE_CURVE('',#284,#287,#173,.T.);
#350=EDGE_CURVE('',#288,#286,#174,.T.);
#351=EDGE_CURVE('',#287,#288,#175,.T.);
#352=EDGE_CURVE('',#287,#289,#176,.T.);
#353=EDGE_CURVE('',#290,#288,#177,.T.);
#354=EDGE_CURVE('',#289,#290,#178,.T.);
#355=EDGE_CURVE('',#289,#283,#179,.T.);
#356=EDGE_CURVE('',#285,#290,#180,.T.);
#357=ORIENTED_EDGE('',*,*,#291,.F.);
#358=ORIENTED_EDGE('',*,*,#292,.T.);
#359=ORIENTED_EDGE('',*,*,#293,.T.);
#360=ORIENTED_EDGE('',*,*,#292,.F.);
#361=ORIENTED_EDGE('',*,*,#294,.F.);
#362=ORIENTED_EDGE('',*,*,#295,.T.);
#363=ORIENTED_EDGE('',*,*,#296,.T.);
#364=ORIENTED_EDGE('',*,*,#295,.F.);
#365=ORIENTED_EDGE('',*,*,#297,.F.);
#366=ORIENTED_EDGE('',*,*,#298,.T.);
#367=ORIENTED_EDGE('',*,*,#299,.T.);
#368=ORIENTED_EDGE('',*,*,#298,.F.);
#369=ORIENTED_EDGE('',*,*,#300,.F.);
#370=ORIENTED_EDGE('',*,*,#301,.T.);
#371=ORIENTED_EDGE('',*,*,#302,.T.);
#372=ORIENTED_EDGE('',*,*,#301,.F.);
#373=ORIENTED_EDGE('',*,*,#303,.F.);
#374=ORIENTED_EDGE('',*,*,#304,.T.);
#375=ORIENTED_EDGE('',*,*,#305,.T.);
#376=ORIENTED_EDGE('',*,*,#304,.F.);
#377=ORIENTED_EDGE('',*,*,#306,.T.);
#378=ORIENTED_EDGE('',*,*,#307,.T.);
#379=ORIENTED_EDGE('',*,*,#308,.F.);
#380=ORIENTED_EDGE('',*,*,#309,.F.);
#381=ORIENTED_EDGE('',*,*,#310,.T.);
#382=ORIENTED_EDGE('',*,*,#309,.T.);
#383=ORIENTED_EDGE('',*,*,#311,.F.);
#384=ORIENTED_EDGE('',*,*,#312,.F.);
#385=ORIENTED_EDGE('',*,*,#313,.T.);
#386=ORIENTED_EDGE('',*,*,#312,.T.);
#387=ORIENTED_EDGE('',*,*,#314,.F.);
#388=ORIENTED_EDGE('',*,*,#315,.F.);
#389=ORIENTED_EDGE('',*,*,#316,.T.);
#390=ORIENTED_EDGE('',*,*,#315,.T.);
#391=ORIENTED_EDGE('',*,*,#317,.F.);
#392=ORIENTED_EDGE('',*,*,#307,.F.);
#393=ORIENTED_EDGE('',*,*,#317,.T.);
#394=ORIENTED_EDGE('',*,*,#314,.T.);
#395=ORIENTED_EDGE('',*,*,#311,.T.);
#396=ORIENTED_EDGE('',*,*,#308,.T.);
#397=ORIENTED_EDGE('',*,*,#303,.T.);
#398=ORIENTED_EDGE('',*,*,#300,.T.);
#399=ORIENTED_EDGE('',*,*,#297,.T.);
#400=ORIENTED_EDGE('',*,*,#294,.T.);
#401=ORIENTED_EDGE('',*,*,#291,.T.);
#402=ORIENTED_EDGE('',*,*,#316,.F.);
#403=ORIENTED_EDGE('',*,*,#306,.F.);
#404=ORIENTED_EDGE('',*,*,#310,.F.);
#405=ORIENTED_EDGE('',*,*,#313,.F.);
#406=ORIENTED_EDGE('',*,*,#305,.F.);
#407=ORIENTED_EDGE('',*,*,#302,.F.);
#408=ORIENTED_EDGE('',*,*,#299,.F.);
#409=ORIENTED_EDGE('',*,*,#296,.F.);
#410=ORIENTED_EDGE('',*,*,#293,.F.);
#411=ORIENTED_EDGE('',*,*,#318,.F.);
#412=ORIENTED_EDGE('',*,*,#319,.T.);
#413=ORIENTED_EDGE('',*,*,#320,.F.);
#414=ORIENTED_EDGE('',*,*,#319,.F.);
#415=ORIENTED_EDGE('',*,*,#321,.F.);
#416=ORIENTED_EDGE('',*,*,#322,.T.);
#417=ORIENTED_EDGE('',*,*,#323,.F.);
#418=ORIENTED_EDGE('',*,*,#322,.F.);
#419=ORIENTED_EDGE('',*,*,#324,.F.);
#420=ORIENTED_EDGE('',*,*,#325,.T.);
#421=ORIENTED_EDGE('',*,*,#326,.F.);
#422=ORIENTED_EDGE('',*,*,#325,.F.);
#423=ORIENTED_EDGE('',*,*,#327,.F.);
#424=ORIENTED_EDGE('',*,*,#328,.T.);
#425=ORIENTED_EDGE('',*,*,#329,.F.);
#426=ORIENTED_EDGE('',*,*,#328,.F.);
#427=ORIENTED_EDGE('',*,*,#330,.F.);
#428=ORIENTED_EDGE('',*,*,#331,.T.);
#429=ORIENTED_EDGE('',*,*,#332,.F.);
#430=ORIENTED_EDGE('',*,*,#331,.F.);
#431=ORIENTED_EDGE('',*,*,#333,.F.);
#432=ORIENTED_EDGE('',*,*,#334,.T.);
#433=ORIENTED_EDGE('',*,*,#335,.F.);
#434=ORIENTED_EDGE('',*,*,#334,.F.);
#435=ORIENTED_EDGE('',*,*,#336,.F.);
#436=ORIENTED_EDGE('',*,*,#337,.T.);
#437=ORIENTED_EDGE('',*,*,#338,.F.);
#438=ORIENTED_EDGE('',*,*,#337,.F.);
#439=ORIENTED_EDGE('',*,*,#339,.F.);
#440=ORIENTED_EDGE('',*,*,#340,.T.);
#441=ORIENTED_EDGE('',*,*,#341,.F.);
#442=ORIENTED_EDGE('',*,*,#340,.F.);
#443=ORIENTED_EDGE('',*,*,#342,.F.);
#444=ORIENTED_EDGE('',*,*,#343,.T.);
#445=ORIENTED_EDGE('',*,*,#344,.F.);
#446=ORIENTED_EDGE('',*,*,#343,.F.);
#447=ORIENTED_EDGE('',*,*,#345,.F.);
#448=ORIENTED_EDGE('',*,*,#346,.T.);
#449=ORIENTED_EDGE('',*,*,#347,.F.);
#450=ORIENTED_EDGE('',*,*,#348,.F.);
#451=ORIENTED_EDGE('',*,*,#349,.F.);
#452=ORIENTED_EDGE('',*,*,#348,.T.);
#453=ORIENTED_EDGE('',*,*,#350,.F.);
#454=ORIENTED_EDGE('',*,*,#351,.F.);
#455=ORIENTED_EDGE('',*,*,#352,.F.);
#456=ORIENTED_EDGE('',*,*,#351,.T.);
#457=ORIENTED_EDGE('',*,*,#353,.F.);
#458=ORIENTED_EDGE('',*,*,#354,.F.);
#459=ORIENTED_EDGE('',*,*,#355,.F.);
#460=ORIENTED_EDGE('',*,*,#354,.T.);
#461=ORIENTED_EDGE('',*,*,#356,.F.);
#462=ORIENTED_EDGE('',*,*,#346,.F.);
#463=ORIENTED_EDGE('',*,*,#355,.T.);
#464=ORIENTED_EDGE('',*,*,#345,.T.);
#465=ORIENTED_EDGE('',*,*,#349,.T.);
#466=ORIENTED_EDGE('',*,*,#352,.T.);
#467=ORIENTED_EDGE('',*,*,#344,.T.);
#468=ORIENTED_EDGE('',*,*,#341,.T.);
#469=ORIENTED_EDGE('',*,*,#338,.T.);
#470=ORIENTED_EDGE('',*,*,#335,.T.);
#471=ORIENTED_EDGE('',*,*,#332,.T.);
#472=ORIENTED_EDGE('',*,*,#329,.T.);
#473=ORIENTED_EDGE('',*,*,#326,.T.);
#474=ORIENTED_EDGE('',*,*,#323,.T.);
#475=ORIENTED_EDGE('',*,*,#320,.T.);
#476=ORIENTED_EDGE('',*,*,#356,.T.);
#477=ORIENTED_EDGE('',*,*,#353,.T.);
#478=ORIENTED_EDGE('',*,*,#350,.T.);
#479=ORIENTED_EDGE('',*,*,#347,.T.);
#480=ORIENTED_EDGE('',*,*,#342,.T.);
#481=ORIENTED_EDGE('',*,*,#339,.T.);
#482=ORIENTED_EDGE('',*,*,#336,.T.);
#483=ORIENTED_EDGE('',*,*,#333,.T.);
#484=ORIENTED_EDGE('',*,*,#330,.T.);
#485=ORIENTED_EDGE('',*,*,#327,.T.);
#486=ORIENTED_EDGE('',*,*,#324,.T.);
#487=ORIENTED_EDGE('',*,*,#321,.T.);
#488=ORIENTED_EDGE('',*,*,#318,.T.);
#489=CYLINDRICAL_SURFACE('',#545,1.75);
#490=CYLINDRICAL_SURFACE('',#548,1.75);
#491=CYLINDRICAL_SURFACE('',#551,11.);
#492=CYLINDRICAL_SURFACE('',#554,1.75);
#493=CYLINDRICAL_SURFACE('',#557,1.75);
#494=CYLINDRICAL_SURFACE('',#566,2.1);
#495=CYLINDRICAL_SURFACE('',#569,2.1);
#496=CYLINDRICAL_SURFACE('',#572,2.09999999999999);
#497=CYLINDRICAL_SURFACE('',#575,2.1);
#498=CYLINDRICAL_SURFACE('',#578,2.1);
#499=CYLINDRICAL_SURFACE('',#581,2.75);
#500=CYLINDRICAL_SURFACE('',#584,2.1);
#501=CYLINDRICAL_SURFACE('',#587,2.09999999999999);
#502=CYLINDRICAL_SURFACE('',#590,2.1);
#503=ADVANCED_FACE('',(#63),#489,.F.);
#504=ADVANCED_FACE('',(#64),#490,.F.);
#505=ADVANCED_FACE('',(#65),#491,.F.);
#506=ADVANCED_FACE('',(#66),#492,.F.);
#507=ADVANCED_FACE('',(#67),#493,.F.);
#508=ADVANCED_FACE('',(#68),#51,.T.);
#509=ADVANCED_FACE('',(#69),#52,.T.);
#510=ADVANCED_FACE('',(#70),#53,.T.);
#511=ADVANCED_FACE('',(#71),#54,.T.);
#512=ADVANCED_FACE('',(#72,#23,#24,#25,#26,#27),#55,.T.);
#513=ADVANCED_FACE('',(#73,#28,#29,#30,#31,#32),#56,.F.);
#514=ADVANCED_FACE('',(#74),#494,.F.);
#515=ADVANCED_FACE('',(#75),#495,.F.);
#516=ADVANCED_FACE('',(#76),#496,.F.);
#517=ADVANCED_FACE('',(#77),#497,.F.);
#518=ADVANCED_FACE('',(#78),#498,.F.);
#519=ADVANCED_FACE('',(#79),#499,.F.);
#520=ADVANCED_FACE('',(#80),#500,.F.);
#521=ADVANCED_FACE('',(#81),#501,.F.);
#522=ADVANCED_FACE('',(#82),#502,.F.);
#523=ADVANCED_FACE('',(#83),#57,.T.);
#524=ADVANCED_FACE('',(#84),#58,.T.);
#525=ADVANCED_FACE('',(#85),#59,.T.);
#526=ADVANCED_FACE('',(#86),#60,.T.);
#527=ADVANCED_FACE('',(#87,#33,#34,#35,#36,#37,#38,#39,#40,#41),#61,.T.);
#528=ADVANCED_FACE('',(#88,#42,#43,#44,#45,#46,#47,#48,#49,#50),#62,.F.);
#529=CLOSED_SHELL('',(#503,#504,#505,#506,#507,#508,#509,#510,#511,#512,
#513));
#530=CLOSED_SHELL('',(#514,#515,#516,#517,#518,#519,#520,#521,#522,#523,
#524,#525,#526,#527,#528));
#531=DERIVED_UNIT_ELEMENT(#533,1.);
#532=DERIVED_UNIT_ELEMENT(#898,-3.);
#533=(
MASS_UNIT()
NAMED_UNIT(*)
SI_UNIT(.KILO.,.GRAM.)
);
#534=DERIVED_UNIT((#531,#532));
#535=MEASURE_REPRESENTATION_ITEM('density measure',
POSITIVE_RATIO_MEASURE(7850.),#534);
#536=PROPERTY_DEFINITION_REPRESENTATION(#541,#538);
#537=PROPERTY_DEFINITION_REPRESENTATION(#542,#539);
#538=REPRESENTATION('material name',(#540),#895);
#539=REPRESENTATION('density',(#535),#895);
#540=DESCRIPTIVE_REPRESENTATION_ITEM('Steel','Steel');
#541=PROPERTY_DEFINITION('material property','material name',#910);
#542=PROPERTY_DEFINITION('material property','density of part',#910);
#543=AXIS2_PLACEMENT_3D('',#752,#600,#601);
#544=AXIS2_PLACEMENT_3D('',#753,#602,#603);
#545=AXIS2_PLACEMENT_3D('',#754,#604,#605);
#546=AXIS2_PLACEMENT_3D('',#756,#606,#607);
#547=AXIS2_PLACEMENT_3D('',#759,#609,#610);
#548=AXIS2_PLACEMENT_3D('',#760,#611,#612);
#549=AXIS2_PLACEMENT_3D('',#762,#613,#614);
#550=AXIS2_PLACEMENT_3D('',#765,#616,#617);
#551=AXIS2_PLACEMENT_3D('',#766,#618,#619);
#552=AXIS2_PLACEMENT_3D('',#768,#620,#621);
#553=AXIS2_PLACEMENT_3D('',#771,#623,#624);
#554=AXIS2_PLACEMENT_3D('',#772,#625,#626);
#555=AXIS2_PLACEMENT_3D('',#774,#627,#628);
#556=AXIS2_PLACEMENT_3D('',#777,#630,#631);
#557=AXIS2_PLACEMENT_3D('',#778,#632,#633);
#558=AXIS2_PLACEMENT_3D('',#780,#634,#635);
#559=AXIS2_PLACEMENT_3D('',#783,#637,#638);
#560=AXIS2_PLACEMENT_3D('',#784,#639,#640);
#561=AXIS2_PLACEMENT_3D('',#793,#645,#646);
#562=AXIS2_PLACEMENT_3D('',#799,#650,#651);
#563=AXIS2_PLACEMENT_3D('',#805,#655,#656);
#564=AXIS2_PLACEMENT_3D('',#808,#659,#660);
#565=AXIS2_PLACEMENT_3D('',#809,#661,#662);
#566=AXIS2_PLACEMENT_3D('',#810,#663,#664);
#567=AXIS2_PLACEMENT_3D('',#812,#665,#666);
#568=AXIS2_PLACEMENT_3D('',#815,#668,#669);
#569=AXIS2_PLACEMENT_3D('',#816,#670,#671);
#570=AXIS2_PLACEMENT_3D('',#818,#672,#673);
#571=AXIS2_PLACEMENT_3D('',#821,#675,#676);
#572=AXIS2_PLACEMENT_3D('',#822,#677,#678);
#573=AXIS2_PLACEMENT_3D('',#824,#679,#680);
#574=AXIS2_PLACEMENT_3D('',#827,#682,#683);
#575=AXIS2_PLACEMENT_3D('',#828,#684,#685);
#576=AXIS2_PLACEMENT_3D('',#830,#686,#687);
#577=AXIS2_PLACEMENT_3D('',#833,#689,#690);
#578=AXIS2_PLACEMENT_3D('',#834,#691,#692);
#579=AXIS2_PLACEMENT_3D('',#836,#693,#694);
#580=AXIS2_PLACEMENT_3D('',#839,#696,#697);
#581=AXIS2_PLACEMENT_3D('',#840,#698,#699);
#582=AXIS2_PLACEMENT_3D('',#842,#700,#701);
#583=AXIS2_PLACEMENT_3D('',#845,#703,#704);
#584=AXIS2_PLACEMENT_3D('',#846,#705,#706);
#585=AXIS2_PLACEMENT_3D('',#848,#707,#708);
#586=AXIS2_PLACEMENT_3D('',#851,#710,#711);
#587=AXIS2_PLACEMENT_3D('',#852,#712,#713);
#588=AXIS2_PLACEMENT_3D('',#854,#714,#715);
#589=AXIS2_PLACEMENT_3D('',#857,#717,#718);
#590=AXIS2_PLACEMENT_3D('',#858,#719,#720);
#591=AXIS2_PLACEMENT_3D('',#860,#721,#722);
#592=AXIS2_PLACEMENT_3D('',#863,#724,#725);
#593=AXIS2_PLACEMENT_3D('',#864,#726,#727);
#594=AXIS2_PLACEMENT_3D('',#873,#732,#733);
#595=AXIS2_PLACEMENT_3D('',#879,#737,#738);
#596=AXIS2_PLACEMENT_3D('',#885,#742,#743);
#597=AXIS2_PLACEMENT_3D('',#888,#746,#747);
#598=AXIS2_PLACEMENT_3D('',#889,#748,#749);
#599=AXIS2_PLACEMENT_3D('',#890,#750,#751);
#600=DIRECTION('axis',(0.,0.,1.));
#601=DIRECTION('refdir',(1.,0.,0.));
#602=DIRECTION('axis',(0.,0.,1.));
#603=DIRECTION('refdir',(1.,0.,0.));
#604=DIRECTION('center_axis',(1.,0.,0.));
#605=DIRECTION('ref_axis',(0.,1.,0.));
#606=DIRECTION('center_axis',(-1.,0.,0.));
#607=DIRECTION('ref_axis',(0.,1.,0.));
#608=DIRECTION('',(-1.,0.,0.));
#609=DIRECTION('center_axis',(-1.,0.,0.));
#610=DIRECTION('ref_axis',(0.,1.,0.));
#611=DIRECTION('center_axis',(1.,0.,0.));
#612=DIRECTION('ref_axis',(0.,1.,0.));
#613=DIRECTION('center_axis',(-1.,0.,0.));
#614=DIRECTION('ref_axis',(0.,1.,0.));
#615=DIRECTION('',(-1.,0.,0.));
#616=DIRECTION('center_axis',(-1.,0.,0.));
#617=DIRECTION('ref_axis',(0.,1.,0.));
#618=DIRECTION('center_axis',(1.,0.,0.));
#619=DIRECTION('ref_axis',(0.,1.,0.));
#620=DIRECTION('center_axis',(-1.,0.,0.));
#621=DIRECTION('ref_axis',(0.,1.,0.));
#622=DIRECTION('',(-1.,0.,0.));
#623=DIRECTION('center_axis',(-1.,0.,0.));
#624=DIRECTION('ref_axis',(0.,1.,0.));
#625=DIRECTION('center_axis',(1.,0.,0.));
#626=DIRECTION('ref_axis',(0.,1.,0.));
#627=DIRECTION('center_axis',(-1.,0.,0.));
#628=DIRECTION('ref_axis',(0.,1.,0.));
#629=DIRECTION('',(-1.,0.,0.));
#630=DIRECTION('center_axis',(-1.,0.,0.));
#631=DIRECTION('ref_axis',(0.,1.,0.));
#632=DIRECTION('center_axis',(1.,0.,0.));
#633=DIRECTION('ref_axis',(0.,1.,0.));
#634=DIRECTION('center_axis',(-1.,0.,0.));
#635=DIRECTION('ref_axis',(0.,1.,0.));
#636=DIRECTION('',(-1.,0.,0.));
#637=DIRECTION('center_axis',(-1.,0.,0.));
#638=DIRECTION('ref_axis',(0.,1.,0.));
#639=DIRECTION('center_axis',(0.,0.,1.));
#640=DIRECTION('ref_axis',(0.,-1.,0.));
#641=DIRECTION('',(0.,-1.,0.));
#642=DIRECTION('',(1.,0.,0.));
#643=DIRECTION('',(0.,-1.,0.));
#644=DIRECTION('',(1.,0.,0.));
#645=DIRECTION('center_axis',(0.,1.,0.));
#646=DIRECTION('ref_axis',(0.,0.,1.));
#647=DIRECTION('',(0.,0.,1.));
#648=DIRECTION('',(0.,0.,1.));
#649=DIRECTION('',(1.,0.,0.));
#650=DIRECTION('center_axis',(0.,0.,-1.));
#651=DIRECTION('ref_axis',(0.,1.,0.));
#652=DIRECTION('',(0.,1.,0.));
#653=DIRECTION('',(0.,1.,0.));
#654=DIRECTION('',(1.,0.,0.));
#655=DIRECTION('center_axis',(0.,-1.,0.));
#656=DIRECTION('ref_axis',(0.,0.,-1.));
#657=DIRECTION('',(0.,0.,-1.));
#658=DIRECTION('',(0.,0.,-1.));
#659=DIRECTION('center_axis',(1.,0.,0.));
#660=DIRECTION('ref_axis',(0.,1.,0.));
#661=DIRECTION('center_axis',(1.,0.,0.));
#662=DIRECTION('ref_axis',(0.,1.,0.));
#663=DIRECTION('center_axis',(0.,0.,-1.));
#664=DIRECTION('ref_axis',(-1.,0.,0.));
#665=DIRECTION('center_axis',(0.,0.,1.));
#666=DIRECTION('ref_axis',(-1.,0.,0.));
#667=DIRECTION('',(0.,0.,1.));
#668=DIRECTION('center_axis',(0.,0.,-1.));
#669=DIRECTION('ref_axis',(-1.,0.,0.));
#670=DIRECTION('center_axis',(0.,0.,-1.));
#671=DIRECTION('ref_axis',(-1.,0.,0.));
#672=DIRECTION('center_axis',(0.,0.,1.));
#673=DIRECTION('ref_axis',(-1.,0.,0.));
#674=DIRECTION('',(0.,0.,1.));
#675=DIRECTION('center_axis',(0.,0.,-1.));
#676=DIRECTION('ref_axis',(-1.,0.,0.));
#677=DIRECTION('center_axis',(0.,0.,-1.));
#678=DIRECTION('ref_axis',(-1.,0.,0.));
#679=DIRECTION('center_axis',(0.,0.,1.));
#680=DIRECTION('ref_axis',(-1.,0.,0.));
#681=DIRECTION('',(0.,0.,1.));
#682=DIRECTION('center_axis',(0.,0.,-1.));
#683=DIRECTION('ref_axis',(-1.,0.,0.));
#684=DIRECTION('center_axis',(0.,0.,-1.));
#685=DIRECTION('ref_axis',(-1.,0.,0.));
#686=DIRECTION('center_axis',(0.,0.,1.));
#687=DIRECTION('ref_axis',(-1.,0.,0.));
#688=DIRECTION('',(0.,0.,1.));
#689=DIRECTION('center_axis',(0.,0.,-1.));
#690=DIRECTION('ref_axis',(-1.,0.,0.));
#691=DIRECTION('center_axis',(0.,0.,-1.));
#692=DIRECTION('ref_axis',(-1.,0.,0.));
#693=DIRECTION('center_axis',(0.,0.,1.));
#694=DIRECTION('ref_axis',(-1.,0.,0.));
#695=DIRECTION('',(0.,0.,1.));
#696=DIRECTION('center_axis',(0.,0.,-1.));
#697=DIRECTION('ref_axis',(-1.,0.,0.));
#698=DIRECTION('center_axis',(0.,0.,-1.));
#699=DIRECTION('ref_axis',(-1.,0.,0.));
#700=DIRECTION('center_axis',(0.,0.,1.));
#701=DIRECTION('ref_axis',(-1.,0.,0.));
#702=DIRECTION('',(0.,0.,1.));
#703=DIRECTION('center_axis',(0.,0.,-1.));
#704=DIRECTION('ref_axis',(-1.,0.,0.));
#705=DIRECTION('center_axis',(0.,0.,-1.));
#706=DIRECTION('ref_axis',(-1.,0.,0.));
#707=DIRECTION('center_axis',(0.,0.,1.));
#708=DIRECTION('ref_axis',(-1.,0.,0.));
#709=DIRECTION('',(0.,0.,1.));
#710=DIRECTION('center_axis',(0.,0.,-1.));
#711=DIRECTION('ref_axis',(-1.,0.,0.));
#712=DIRECTION('center_axis',(0.,0.,-1.));
#713=DIRECTION('ref_axis',(-1.,0.,0.));
#714=DIRECTION('center_axis',(0.,0.,1.));
#715=DIRECTION('ref_axis',(-1.,0.,0.));
#716=DIRECTION('',(0.,0.,1.));
#717=DIRECTION('center_axis',(0.,0.,-1.));
#718=DIRECTION('ref_axis',(-1.,0.,0.));
#719=DIRECTION('center_axis',(0.,0.,-1.));
#720=DIRECTION('ref_axis',(-1.,0.,0.));
#721=DIRECTION('center_axis',(0.,0.,1.));
#722=DIRECTION('ref_axis',(-1.,0.,0.));
#723=DIRECTION('',(0.,0.,1.));
#724=DIRECTION('center_axis',(0.,0.,-1.));
#725=DIRECTION('ref_axis',(-1.,0.,0.));
#726=DIRECTION('center_axis',(0.,-1.,0.));
#727=DIRECTION('ref_axis',(-1.,0.,0.));
#728=DIRECTION('',(1.,0.,0.));
#729=DIRECTION('',(0.,0.,-1.));
#730=DIRECTION('',(-1.,0.,0.));
#731=DIRECTION('',(0.,0.,-1.));
#732=DIRECTION('center_axis',(1.,0.,0.));
#733=DIRECTION('ref_axis',(0.,-1.,0.));
#734=DIRECTION('',(0.,1.,0.));
#735=DIRECTION('',(0.,-1.,0.));
#736=DIRECTION('',(0.,0.,-1.));
#737=DIRECTION('center_axis',(0.,1.,0.));
#738=DIRECTION('ref_axis',(1.,0.,0.));
#739=DIRECTION('',(-1.,0.,0.));
#740=DIRECTION('',(1.,0.,0.));
#741=DIRECTION('',(0.,0.,-1.));
#742=DIRECTION('center_axis',(-1.,0.,0.));
#743=DIRECTION('ref_axis',(0.,1.,0.));
#744=DIRECTION('',(0.,-1.,0.));
#745=DIRECTION('',(0.,1.,0.));
#746=DIRECTION('center_axis',(0.,0.,1.));
#747=DIRECTION('ref_axis',(-1.,0.,0.));
#748=DIRECTION('center_axis',(0.,0.,1.));
#749=DIRECTION('ref_axis',(-1.,0.,0.));
#750=DIRECTION('',(-3.69778549322329E-32,1.66533453693773E-16,1.));
#751=DIRECTION('',(-8.45157277495901E-15,1.,-1.66533453693774E-16));
#752=CARTESIAN_POINT('',(0.,0.,0.));
#753=CARTESIAN_POINT('',(0.,0.,0.));
#754=CARTESIAN_POINT('Origin',(0.,5.5,36.5));
#755=CARTESIAN_POINT('',(10.,3.75,36.5));
#756=CARTESIAN_POINT('Origin',(10.,5.5,36.5));
#757=CARTESIAN_POINT('',(0.,3.75,36.5));
#758=CARTESIAN_POINT('',(0.,3.75,36.5));
#759=CARTESIAN_POINT('Origin',(0.,5.5,36.5));
#760=CARTESIAN_POINT('Origin',(0.,5.5,5.5));
#761=CARTESIAN_POINT('',(10.,3.75,5.5));
#762=CARTESIAN_POINT('Origin',(10.,5.5,5.5));
#763=CARTESIAN_POINT('',(0.,3.75,5.5));
#764=CARTESIAN_POINT('',(0.,3.75,5.5));
#765=CARTESIAN_POINT('Origin',(0.,5.5,5.5));
#766=CARTESIAN_POINT('Origin',(0.,21.,21.0000003129244));
#767=CARTESIAN_POINT('',(10.,10.,21.0000003129244));
#768=CARTESIAN_POINT('Origin',(10.,21.,21.0000003129244));
#769=CARTESIAN_POINT('',(0.,10.,21.0000003129244));
#770=CARTESIAN_POINT('',(0.,10.,21.0000003129244));
#771=CARTESIAN_POINT('Origin',(0.,21.,21.0000003129244));
#772=CARTESIAN_POINT('Origin',(0.,36.5,36.5));
#773=CARTESIAN_POINT('',(10.,34.75,36.5));
#774=CARTESIAN_POINT('Origin',(10.,36.5,36.5));
#775=CARTESIAN_POINT('',(0.,34.75,36.5));
#776=CARTESIAN_POINT('',(0.,34.75,36.5));
#777=CARTESIAN_POINT('Origin',(0.,36.5,36.5));
#778=CARTESIAN_POINT('Origin',(0.,36.5,5.5));
#779=CARTESIAN_POINT('',(10.,34.75,5.5));
#780=CARTESIAN_POINT('Origin',(10.,36.5,5.5));
#781=CARTESIAN_POINT('',(0.,34.75,5.5));
#782=CARTESIAN_POINT('',(0.,34.75,5.5));
#783=CARTESIAN_POINT('Origin',(0.,36.5,5.5));
#784=CARTESIAN_POINT('Origin',(0.,42.,42.));
#785=CARTESIAN_POINT('',(0.,42.,42.));
#786=CARTESIAN_POINT('',(0.,0.,42.));
#787=CARTESIAN_POINT('',(0.,42.,42.));
#788=CARTESIAN_POINT('',(10.,0.,42.));
#789=CARTESIAN_POINT('',(0.,0.,42.));
#790=CARTESIAN_POINT('',(10.,42.,42.));
#791=CARTESIAN_POINT('',(10.,42.,42.));
#792=CARTESIAN_POINT('',(0.,42.,42.));
#793=CARTESIAN_POINT('Origin',(0.,42.,0.));
#794=CARTESIAN_POINT('',(0.,42.,0.));
#795=CARTESIAN_POINT('',(0.,42.,0.));
#796=CARTESIAN_POINT('',(10.,42.,0.));
#797=CARTESIAN_POINT('',(10.,42.,0.));
#798=CARTESIAN_POINT('',(0.,42.,0.));
#799=CARTESIAN_POINT('Origin',(0.,0.,0.));
#800=CARTESIAN_POINT('',(0.,0.,0.));
#801=CARTESIAN_POINT('',(0.,0.,0.));
#802=CARTESIAN_POINT('',(10.,0.,0.));
#803=CARTESIAN_POINT('',(10.,0.,0.));
#804=CARTESIAN_POINT('',(0.,0.,0.));
#805=CARTESIAN_POINT('Origin',(0.,0.,42.));
#806=CARTESIAN_POINT('',(0.,0.,42.));
#807=CARTESIAN_POINT('',(10.,0.,42.));
#808=CARTESIAN_POINT('Origin',(10.,21.,21.));
#809=CARTESIAN_POINT('Origin',(0.,21.,21.));
#810=CARTESIAN_POINT('Origin',(39.,30.,8.));
#811=CARTESIAN_POINT('',(41.1,30.,0.));
#812=CARTESIAN_POINT('Origin',(39.,30.,0.));
#813=CARTESIAN_POINT('',(41.1,30.,8.));
#814=CARTESIAN_POINT('',(41.1,30.,8.));
#815=CARTESIAN_POINT('Origin',(39.,30.,8.));
#816=CARTESIAN_POINT('Origin',(15.,30.,8.));
#817=CARTESIAN_POINT('',(17.1,30.,0.));
#818=CARTESIAN_POINT('Origin',(15.,30.,0.));
#819=CARTESIAN_POINT('',(17.1,30.,8.));
#820=CARTESIAN_POINT('',(17.1,30.,8.));
#821=CARTESIAN_POINT('Origin',(15.,30.,8.));
#822=CARTESIAN_POINT('Origin',(78.,30.,8.));
#823=CARTESIAN_POINT('',(80.1,30.,0.));
#824=CARTESIAN_POINT('Origin',(78.,30.,0.));
#825=CARTESIAN_POINT('',(80.1,30.,8.));
#826=CARTESIAN_POINT('',(80.1,30.,8.));
#827=CARTESIAN_POINT('Origin',(78.,30.,8.));
#828=CARTESIAN_POINT('Origin',(54.,48.,8.));
#829=CARTESIAN_POINT('',(56.1,48.,0.));
#830=CARTESIAN_POINT('Origin',(54.,48.,0.));
#831=CARTESIAN_POINT('',(56.1,48.,8.));
#832=CARTESIAN_POINT('',(56.1,48.,8.));
#833=CARTESIAN_POINT('Origin',(54.,48.,8.));
#834=CARTESIAN_POINT('Origin',(39.,48.,8.));
#835=CARTESIAN_POINT('',(41.1,48.,0.));
#836=CARTESIAN_POINT('Origin',(39.,48.,0.));
#837=CARTESIAN_POINT('',(41.1,48.,8.));
#838=CARTESIAN_POINT('',(41.1,48.,8.));
#839=CARTESIAN_POINT('Origin',(39.,48.,8.));
#840=CARTESIAN_POINT('Origin',(41.0000006109476,67.0000009983778,8.));
#841=CARTESIAN_POINT('',(43.7500006109476,67.0000009983778,0.));
#842=CARTESIAN_POINT('Origin',(41.0000006109476,67.0000009983778,0.));
#843=CARTESIAN_POINT('',(43.7500006109476,67.0000009983778,8.));
#844=CARTESIAN_POINT('',(43.7500006109476,67.0000009983778,8.));
#845=CARTESIAN_POINT('Origin',(41.0000006109476,67.0000009983778,8.));
#846=CARTESIAN_POINT('Origin',(15.,48.,8.));
#847=CARTESIAN_POINT('',(17.1,48.,0.));
#848=CARTESIAN_POINT('Origin',(15.,48.,0.));
#849=CARTESIAN_POINT('',(17.1,48.,8.));
#850=CARTESIAN_POINT('',(17.1,48.,8.));
#851=CARTESIAN_POINT('Origin',(15.,48.,8.));
#852=CARTESIAN_POINT('Origin',(78.,48.,8.));
#853=CARTESIAN_POINT('',(80.1,48.,0.));
#854=CARTESIAN_POINT('Origin',(78.,48.,0.));
#855=CARTESIAN_POINT('',(80.1,48.,8.));
#856=CARTESIAN_POINT('',(80.1,48.,8.));
#857=CARTESIAN_POINT('Origin',(78.,48.,8.));
#858=CARTESIAN_POINT('Origin',(54.,30.,8.));
#859=CARTESIAN_POINT('',(56.1,30.,0.));
#860=CARTESIAN_POINT('Origin',(54.,30.,0.));
#861=CARTESIAN_POINT('',(56.1,30.,8.));
#862=CARTESIAN_POINT('',(56.1,30.,8.));
#863=CARTESIAN_POINT('Origin',(54.,30.,8.));
#864=CARTESIAN_POINT('Origin',(93.,0.,8.));
#865=CARTESIAN_POINT('',(0.,0.,8.));
#866=CARTESIAN_POINT('',(93.,0.,8.));
#867=CARTESIAN_POINT('',(0.,0.,8.));
#868=CARTESIAN_POINT('',(0.,0.,0.));
#869=CARTESIAN_POINT('',(0.,0.,8.));
#870=CARTESIAN_POINT('',(93.,0.,0.));
#871=CARTESIAN_POINT('',(0.,0.,0.));
#872=CARTESIAN_POINT('',(93.,0.,8.));
#873=CARTESIAN_POINT('Origin',(93.,78.,8.));
#874=CARTESIAN_POINT('',(93.,78.,8.));
#875=CARTESIAN_POINT('',(93.,0.,8.));
#876=CARTESIAN_POINT('',(93.,78.,0.));
#877=CARTESIAN_POINT('',(93.,0.,0.));
#878=CARTESIAN_POINT('',(93.,78.,8.));
#879=CARTESIAN_POINT('Origin',(0.,78.,8.));
#880=CARTESIAN_POINT('',(0.,78.,8.));
#881=CARTESIAN_POINT('',(93.,78.,8.));
#882=CARTESIAN_POINT('',(0.,78.,0.));
#883=CARTESIAN_POINT('',(93.,78.,0.));
#884=CARTESIAN_POINT('',(0.,78.,8.));
#885=CARTESIAN_POINT('Origin',(0.,0.,8.));
#886=CARTESIAN_POINT('',(0.,78.,8.));
#887=CARTESIAN_POINT('',(0.,78.,0.));
#888=CARTESIAN_POINT('Origin',(46.5,39.,8.));
#889=CARTESIAN_POINT('Origin',(46.5,39.,0.));
#890=CARTESIAN_POINT('',(91.,16.0000000000002,8.));
#891=UNCERTAINTY_MEASURE_WITH_UNIT(LENGTH_MEASURE(0.01),#897,
'DISTANCE_ACCURACY_VALUE',
'Maximum model space distance between geometric entities at asserted c
onnectivities');
#892=UNCERTAINTY_MEASURE_WITH_UNIT(LENGTH_MEASURE(0.01),#897,
'DISTANCE_ACCURACY_VALUE',
'Maximum model space distance between geometric entities at asserted c
onnectivities');
#893=UNCERTAINTY_MEASURE_WITH_UNIT(LENGTH_MEASURE(0.01),#897,
'DISTANCE_ACCURACY_VALUE',
'Maximum model space distance between geometric entities at asserted c
onnectivities');
#894=(
GEOMETRIC_REPRESENTATION_CONTEXT(3)
GLOBAL_UNCERTAINTY_ASSIGNED_CONTEXT((#891))
GLOBAL_UNIT_ASSIGNED_CONTEXT((#897,#899,#900))
REPRESENTATION_CONTEXT('','3D')
);
#895=(
GEOMETRIC_REPRESENTATION_CONTEXT(3)
GLOBAL_UNCERTAINTY_ASSIGNED_CONTEXT((#892))
GLOBAL_UNIT_ASSIGNED_CONTEXT((#897,#899,#900))
REPRESENTATION_CONTEXT('','3D')
);
#896=(
GEOMETRIC_REPRESENTATION_CONTEXT(3)
GLOBAL_UNCERTAINTY_ASSIGNED_CONTEXT((#893))
GLOBAL_UNIT_ASSIGNED_CONTEXT((#897,#899,#900))
REPRESENTATION_CONTEXT('','3D')
);
#897=(
LENGTH_UNIT()
NAMED_UNIT(*)
SI_UNIT(.MILLI.,.METRE.)
);
#898=(
LENGTH_UNIT()
NAMED_UNIT(*)
SI_UNIT($,.METRE.)
);
#899=(
NAMED_UNIT(*)
PLANE_ANGLE_UNIT()
SI_UNIT($,.RADIAN.)
);
#900=(
NAMED_UNIT(*)
SI_UNIT($,.STERADIAN.)
SOLID_ANGLE_UNIT()
);
#901=SHAPE_DEFINITION_REPRESENTATION(#903,#906);
#902=SHAPE_DEFINITION_REPRESENTATION(#904,#907);
#903=PRODUCT_DEFINITION_SHAPE('',$,#909);
#904=PRODUCT_DEFINITION_SHAPE('',$,#910);
#905=PRODUCT_DEFINITION_SHAPE($,$,#14);
#906=SHAPE_REPRESENTATION('',(#543,#599),#894);
#907=SHAPE_REPRESENTATION('',(#544),#895);
#908=PRODUCT_DEFINITION_CONTEXT('part definition',#916,'design');
#909=PRODUCT_DEFINITION('2025-12-12-12-16-13-790',
'Y carriage stepper motor',#911,#908);
#910=PRODUCT_DEFINITION('2025-12-27-18-46-16-654','Nema 17 face mount',
#912,#908);
#911=PRODUCT_DEFINITION_FORMATION('',$,#918);
#912=PRODUCT_DEFINITION_FORMATION('',$,#919);
#913=PRODUCT_RELATED_PRODUCT_CATEGORY('Y carriage stepper motor',
'Y carriage stepper motor',(#918));
#914=PRODUCT_RELATED_PRODUCT_CATEGORY('Nema 17 face mount',
'Nema 17 face mount',(#919));
#915=APPLICATION_PROTOCOL_DEFINITION('international standard',
'automotive_design',2009,#916);
#916=APPLICATION_CONTEXT(
'Core Data for Automotive Mechanical Design Process');
#917=PRODUCT_CONTEXT('part definition',#916,'mechanical');
#918=PRODUCT('2025-12-12-12-16-13-790','Y carriage stepper motor',$,(#917));
#919=PRODUCT('2025-12-27-18-46-16-654','Nema 17 face mount',$,(#917));
#920=PRESENTATION_STYLE_ASSIGNMENT((#921));
#921=SURFACE_STYLE_USAGE(.BOTH.,#922);
#922=SURFACE_SIDE_STYLE('',(#923));
#923=SURFACE_STYLE_FILL_AREA(#924);
#924=FILL_AREA_STYLE('Steel - Satin',(#925));
#925=FILL_AREA_STYLE_COLOUR('Steel - Satin',#926);
#926=COLOUR_RGB('Steel - Satin',0.627450980392157,0.627450980392157,0.627450980392157);
ENDSEC;
END-ISO-10303-21;
