ISO-10303-21;
HEADER;
/* Generated by software containing ST-Developer
 * from STEP Tools, Inc. (www.steptools.com) 
 */

FILE_DESCRIPTION(
/* description */ (''),
/* implementation_level */ '2;1');

FILE_NAME(
/* name */ 'Z axis bearing clamp.step',
/* time_stamp */ '2026-02-18T14:34:38+11:00',
/* author */ (''),
/* organization */ (''),
/* preprocessor_version */ 'ST-DEVELOPER v20.1',
/* originating_system */ 'Autodesk Translation Framework v14.24.0.0',
/* authorisation */ '');

FILE_SCHEMA (('AUTOMOTIVE_DESIGN { 1 0 10303 214 3 1 1 }'));
ENDSEC;

DATA;
#10=MECHANICAL_DESIGN_GEOMETRIC_PRESENTATION_REPRESENTATION('',(#13),#488);
#11=SHAPE_REPRESENTATION_RELATIONSHIP('SRR','None',#494,#12);
#12=ADVANCED_BREP_SHAPE_REPRESENTATION('',(#14),#487);
#13=STYLED_ITEM('',(#503),#14);
#14=MANIFOLD_SOLID_BREP('Body1',#300);
#15=FACE_BOUND('',#49,.T.);
#16=FACE_BOUND('',#53,.T.);
#17=FACE_BOUND('',#58,.T.);
#18=FACE_BOUND('',#60,.T.);
#19=FACE_BOUND('',#63,.T.);
#20=FACE_BOUND('',#66,.T.);
#21=PLANE('',#305);
#22=PLANE('',#306);
#23=PLANE('',#307);
#24=PLANE('',#309);
#25=PLANE('',#316);
#26=PLANE('',#317);
#27=PLANE('',#318);
#28=PLANE('',#319);
#29=PLANE('',#320);
#30=PLANE('',#323);
#31=PLANE('',#324);
#32=FACE_OUTER_BOUND('',#47,.T.);
#33=FACE_OUTER_BOUND('',#48,.T.);
#34=FACE_OUTER_BOUND('',#50,.T.);
#35=FACE_OUTER_BOUND('',#51,.T.);
#36=FACE_OUTER_BOUND('',#52,.T.);
#37=FACE_OUTER_BOUND('',#54,.T.);
#38=FACE_OUTER_BOUND('',#55,.T.);
#39=FACE_OUTER_BOUND('',#56,.T.);
#40=FACE_OUTER_BOUND('',#57,.T.);
#41=FACE_OUTER_BOUND('',#59,.T.);
#42=FACE_OUTER_BOUND('',#61,.T.);
#43=FACE_OUTER_BOUND('',#62,.T.);
#44=FACE_OUTER_BOUND('',#64,.T.);
#45=FACE_OUTER_BOUND('',#65,.T.);
#46=FACE_OUTER_BOUND('',#67,.T.);
#47=EDGE_LOOP('',(#203,#204,#205,#206));
#48=EDGE_LOOP('',(#207,#208,#209,#210));
#49=EDGE_LOOP('',(#211));
#50=EDGE_LOOP('',(#212,#213,#214,#215));
#51=EDGE_LOOP('',(#216,#217,#218,#219,#220,#221,#222,#223));
#52=EDGE_LOOP('',(#224,#225,#226,#227,#228,#229));
#53=EDGE_LOOP('',(#230));
#54=EDGE_LOOP('',(#231,#232,#233,#234));
#55=EDGE_LOOP('',(#235,#236,#237,#238));
#56=EDGE_LOOP('',(#239,#240,#241,#242));
#57=EDGE_LOOP('',(#243,#244,#245,#246));
#58=EDGE_LOOP('',(#247));
#59=EDGE_LOOP('',(#248,#249,#250,#251,#252,#253));
#60=EDGE_LOOP('',(#254));
#61=EDGE_LOOP('',(#255,#256,#257,#258));
#62=EDGE_LOOP('',(#259,#260,#261,#262));
#63=EDGE_LOOP('',(#263));
#64=EDGE_LOOP('',(#264,#265,#266,#267));
#65=EDGE_LOOP('',(#268,#269,#270,#271));
#66=EDGE_LOOP('',(#272));
#67=EDGE_LOOP('',(#273,#274,#275,#276,#277,#278,#279,#280));
#68=LINE('',#409,#99);
#69=LINE('',#414,#100);
#70=LINE('',#416,#101);
#71=LINE('',#418,#102);
#72=LINE('',#419,#103);
#73=LINE('',#423,#104);
#74=LINE('',#424,#105);
#75=LINE('',#425,#106);
#76=LINE('',#428,#107);
#77=LINE('',#430,#108);
#78=LINE('',#432,#109);
#79=LINE('',#436,#110);
#80=LINE('',#438,#111);
#81=LINE('',#439,#112);
#82=LINE('',#443,#113);
#83=LINE('',#444,#114);
#84=LINE('',#445,#115);
#85=LINE('',#451,#116);
#86=LINE('',#456,#117);
#87=LINE('',#460,#118);
#88=LINE('',#461,#119);
#89=LINE('',#464,#120);
#90=LINE('',#465,#121);
#91=LINE('',#468,#122);
#92=LINE('',#469,#123);
#93=LINE('',#472,#124);
#94=LINE('',#473,#125);
#95=LINE('',#476,#126);
#96=LINE('',#477,#127);
#97=LINE('',#481,#128);
#98=LINE('',#483,#129);
#99=VECTOR('',#331,2.7);
#100=VECTOR('',#336,10.);
#101=VECTOR('',#337,10.);
#102=VECTOR('',#338,10.);
#103=VECTOR('',#339,10.);
#104=VECTOR('',#342,10.);
#105=VECTOR('',#343,10.);
#106=VECTOR('',#344,10.);
#107=VECTOR('',#347,10.);
#108=VECTOR('',#348,10.);
#109=VECTOR('',#349,10.);
#110=VECTOR('',#352,10.);
#111=VECTOR('',#353,10.);
#112=VECTOR('',#354,10.);
#113=VECTOR('',#357,10.);
#114=VECTOR('',#358,10.);
#115=VECTOR('',#359,10.);
#116=VECTOR('',#366,2.7);
#117=VECTOR('',#371,2.7);
#118=VECTOR('',#376,10.);
#119=VECTOR('',#377,10.);
#120=VECTOR('',#380,10.);
#121=VECTOR('',#381,10.);
#122=VECTOR('',#384,10.);
#123=VECTOR('',#385,10.);
#124=VECTOR('',#388,10.);
#125=VECTOR('',#389,10.);
#126=VECTOR('',#392,10.);
#127=VECTOR('',#393,10.);
#128=VECTOR('',#398,10.);
#129=VECTOR('',#401,10.);
#130=CIRCLE('',#303,2.7);
#131=CIRCLE('',#304,2.7);
#132=CIRCLE('',#308,7.5);
#133=CIRCLE('',#310,2.7);
#134=CIRCLE('',#312,2.7);
#135=CIRCLE('',#314,2.7);
#136=CIRCLE('',#315,2.7);
#137=CIRCLE('',#322,7.5);
#138=VERTEX_POINT('',#406);
#139=VERTEX_POINT('',#408);
#140=VERTEX_POINT('',#412);
#141=VERTEX_POINT('',#413);
#142=VERTEX_POINT('',#415);
#143=VERTEX_POINT('',#417);
#144=VERTEX_POINT('',#421);
#145=VERTEX_POINT('',#422);
#146=VERTEX_POINT('',#427);
#147=VERTEX_POINT('',#429);
#148=VERTEX_POINT('',#431);
#149=VERTEX_POINT('',#433);
#150=VERTEX_POINT('',#435);
#151=VERTEX_POINT('',#437);
#152=VERTEX_POINT('',#441);
#153=VERTEX_POINT('',#442);
#154=VERTEX_POINT('',#446);
#155=VERTEX_POINT('',#449);
#156=VERTEX_POINT('',#453);
#157=VERTEX_POINT('',#455);
#158=VERTEX_POINT('',#459);
#159=VERTEX_POINT('',#463);
#160=VERTEX_POINT('',#467);
#161=VERTEX_POINT('',#471);
#162=VERTEX_POINT('',#475);
#163=VERTEX_POINT('',#479);
#164=EDGE_CURVE('',#138,#138,#130,.T.);
#165=EDGE_CURVE('',#138,#139,#68,.T.);
#166=EDGE_CURVE('',#139,#139,#131,.T.);
#167=EDGE_CURVE('',#140,#141,#69,.T.);
#168=EDGE_CURVE('',#140,#142,#70,.T.);
#169=EDGE_CURVE('',#143,#142,#71,.T.);
#170=EDGE_CURVE('',#141,#143,#72,.T.);
#171=EDGE_CURVE('',#144,#145,#73,.T.);
#172=EDGE_CURVE('',#145,#143,#74,.T.);
#173=EDGE_CURVE('',#142,#144,#75,.T.);
#174=EDGE_CURVE('',#141,#146,#76,.T.);
#175=EDGE_CURVE('',#146,#147,#77,.T.);
#176=EDGE_CURVE('',#147,#148,#78,.T.);
#177=EDGE_CURVE('',#148,#149,#132,.T.);
#178=EDGE_CURVE('',#149,#150,#79,.T.);
#179=EDGE_CURVE('',#150,#151,#80,.T.);
#180=EDGE_CURVE('',#151,#140,#81,.T.);
#181=EDGE_CURVE('',#152,#153,#82,.T.);
#182=EDGE_CURVE('',#152,#146,#83,.T.);
#183=EDGE_CURVE('',#153,#145,#84,.T.);
#184=EDGE_CURVE('',#154,#154,#133,.T.);
#185=EDGE_CURVE('',#155,#155,#134,.T.);
#186=EDGE_CURVE('',#155,#154,#85,.T.);
#187=EDGE_CURVE('',#156,#156,#135,.T.);
#188=EDGE_CURVE('',#156,#157,#86,.T.);
#189=EDGE_CURVE('',#157,#157,#136,.T.);
#190=EDGE_CURVE('',#158,#152,#87,.T.);
#191=EDGE_CURVE('',#158,#147,#88,.T.);
#192=EDGE_CURVE('',#153,#159,#89,.T.);
#193=EDGE_CURVE('',#159,#144,#90,.T.);
#194=EDGE_CURVE('',#160,#151,#91,.T.);
#195=EDGE_CURVE('',#159,#160,#92,.T.);
#196=EDGE_CURVE('',#160,#161,#93,.T.);
#197=EDGE_CURVE('',#161,#150,#94,.T.);
#198=EDGE_CURVE('',#162,#161,#95,.T.);
#199=EDGE_CURVE('',#162,#149,#96,.T.);
#200=EDGE_CURVE('',#162,#163,#137,.T.);
#201=EDGE_CURVE('',#163,#148,#97,.T.);
#202=EDGE_CURVE('',#158,#163,#98,.T.);
#203=ORIENTED_EDGE('',*,*,#164,.F.);
#204=ORIENTED_EDGE('',*,*,#165,.T.);
#205=ORIENTED_EDGE('',*,*,#166,.F.);
#206=ORIENTED_EDGE('',*,*,#165,.F.);
#207=ORIENTED_EDGE('',*,*,#167,.F.);
#208=ORIENTED_EDGE('',*,*,#168,.T.);
#209=ORIENTED_EDGE('',*,*,#169,.F.);
#210=ORIENTED_EDGE('',*,*,#170,.F.);
#211=ORIENTED_EDGE('',*,*,#164,.T.);
#212=ORIENTED_EDGE('',*,*,#171,.T.);
#213=ORIENTED_EDGE('',*,*,#172,.T.);
#214=ORIENTED_EDGE('',*,*,#169,.T.);
#215=ORIENTED_EDGE('',*,*,#173,.T.);
#216=ORIENTED_EDGE('',*,*,#167,.T.);
#217=ORIENTED_EDGE('',*,*,#174,.T.);
#218=ORIENTED_EDGE('',*,*,#175,.T.);
#219=ORIENTED_EDGE('',*,*,#176,.T.);
#220=ORIENTED_EDGE('',*,*,#177,.T.);
#221=ORIENTED_EDGE('',*,*,#178,.T.);
#222=ORIENTED_EDGE('',*,*,#179,.T.);
#223=ORIENTED_EDGE('',*,*,#180,.T.);
#224=ORIENTED_EDGE('',*,*,#181,.F.);
#225=ORIENTED_EDGE('',*,*,#182,.T.);
#226=ORIENTED_EDGE('',*,*,#174,.F.);
#227=ORIENTED_EDGE('',*,*,#170,.T.);
#228=ORIENTED_EDGE('',*,*,#172,.F.);
#229=ORIENTED_EDGE('',*,*,#183,.F.);
#230=ORIENTED_EDGE('',*,*,#184,.T.);
#231=ORIENTED_EDGE('',*,*,#185,.F.);
#232=ORIENTED_EDGE('',*,*,#186,.T.);
#233=ORIENTED_EDGE('',*,*,#184,.F.);
#234=ORIENTED_EDGE('',*,*,#186,.F.);
#235=ORIENTED_EDGE('',*,*,#187,.F.);
#236=ORIENTED_EDGE('',*,*,#188,.T.);
#237=ORIENTED_EDGE('',*,*,#189,.F.);
#238=ORIENTED_EDGE('',*,*,#188,.F.);
#239=ORIENTED_EDGE('',*,*,#190,.F.);
#240=ORIENTED_EDGE('',*,*,#191,.T.);
#241=ORIENTED_EDGE('',*,*,#175,.F.);
#242=ORIENTED_EDGE('',*,*,#182,.F.);
#243=ORIENTED_EDGE('',*,*,#192,.F.);
#244=ORIENTED_EDGE('',*,*,#183,.T.);
#245=ORIENTED_EDGE('',*,*,#171,.F.);
#246=ORIENTED_EDGE('',*,*,#193,.F.);
#247=ORIENTED_EDGE('',*,*,#166,.T.);
#248=ORIENTED_EDGE('',*,*,#180,.F.);
#249=ORIENTED_EDGE('',*,*,#194,.F.);
#250=ORIENTED_EDGE('',*,*,#195,.F.);
#251=ORIENTED_EDGE('',*,*,#193,.T.);
#252=ORIENTED_EDGE('',*,*,#173,.F.);
#253=ORIENTED_EDGE('',*,*,#168,.F.);
#254=ORIENTED_EDGE('',*,*,#187,.T.);
#255=ORIENTED_EDGE('',*,*,#196,.F.);
#256=ORIENTED_EDGE('',*,*,#194,.T.);
#257=ORIENTED_EDGE('',*,*,#179,.F.);
#258=ORIENTED_EDGE('',*,*,#197,.F.);
#259=ORIENTED_EDGE('',*,*,#198,.T.);
#260=ORIENTED_EDGE('',*,*,#197,.T.);
#261=ORIENTED_EDGE('',*,*,#178,.F.);
#262=ORIENTED_EDGE('',*,*,#199,.F.);
#263=ORIENTED_EDGE('',*,*,#189,.T.);
#264=ORIENTED_EDGE('',*,*,#200,.F.);
#265=ORIENTED_EDGE('',*,*,#199,.T.);
#266=ORIENTED_EDGE('',*,*,#177,.F.);
#267=ORIENTED_EDGE('',*,*,#201,.F.);
#268=ORIENTED_EDGE('',*,*,#202,.T.);
#269=ORIENTED_EDGE('',*,*,#201,.T.);
#270=ORIENTED_EDGE('',*,*,#176,.F.);
#271=ORIENTED_EDGE('',*,*,#191,.F.);
#272=ORIENTED_EDGE('',*,*,#185,.T.);
#273=ORIENTED_EDGE('',*,*,#195,.T.);
#274=ORIENTED_EDGE('',*,*,#196,.T.);
#275=ORIENTED_EDGE('',*,*,#198,.F.);
#276=ORIENTED_EDGE('',*,*,#200,.T.);
#277=ORIENTED_EDGE('',*,*,#202,.F.);
#278=ORIENTED_EDGE('',*,*,#190,.T.);
#279=ORIENTED_EDGE('',*,*,#181,.T.);
#280=ORIENTED_EDGE('',*,*,#192,.T.);
#281=CYLINDRICAL_SURFACE('',#302,2.7);
#282=CYLINDRICAL_SURFACE('',#311,2.7);
#283=CYLINDRICAL_SURFACE('',#313,2.7);
#284=CYLINDRICAL_SURFACE('',#321,7.5);
#285=ADVANCED_FACE('',(#32),#281,.F.);
#286=ADVANCED_FACE('',(#33,#15),#21,.T.);
#287=ADVANCED_FACE('',(#34),#22,.T.);
#288=ADVANCED_FACE('',(#35),#23,.T.);
#289=ADVANCED_FACE('',(#36,#16),#24,.T.);
#290=ADVANCED_FACE('',(#37),#282,.F.);
#291=ADVANCED_FACE('',(#38),#283,.F.);
#292=ADVANCED_FACE('',(#39),#25,.T.);
#293=ADVANCED_FACE('',(#40,#17),#26,.T.);
#294=ADVANCED_FACE('',(#41,#18),#27,.T.);
#295=ADVANCED_FACE('',(#42),#28,.T.);
#296=ADVANCED_FACE('',(#43,#19),#29,.T.);
#297=ADVANCED_FACE('',(#44),#284,.F.);
#298=ADVANCED_FACE('',(#45,#20),#30,.T.);
#299=ADVANCED_FACE('',(#46),#31,.F.);
#300=CLOSED_SHELL('',(#285,#286,#287,#288,#289,#290,#291,#292,#293,#294,
#295,#296,#297,#298,#299));
#301=AXIS2_PLACEMENT_3D('',#404,#325,#326);
#302=AXIS2_PLACEMENT_3D('',#405,#327,#328);
#303=AXIS2_PLACEMENT_3D('',#407,#329,#330);
#304=AXIS2_PLACEMENT_3D('',#410,#332,#333);
#305=AXIS2_PLACEMENT_3D('',#411,#334,#335);
#306=AXIS2_PLACEMENT_3D('',#420,#340,#341);
#307=AXIS2_PLACEMENT_3D('',#426,#345,#346);
#308=AXIS2_PLACEMENT_3D('',#434,#350,#351);
#309=AXIS2_PLACEMENT_3D('',#440,#355,#356);
#310=AXIS2_PLACEMENT_3D('',#447,#360,#361);
#311=AXIS2_PLACEMENT_3D('',#448,#362,#363);
#312=AXIS2_PLACEMENT_3D('',#450,#364,#365);
#313=AXIS2_PLACEMENT_3D('',#452,#367,#368);
#314=AXIS2_PLACEMENT_3D('',#454,#369,#370);
#315=AXIS2_PLACEMENT_3D('',#457,#372,#373);
#316=AXIS2_PLACEMENT_3D('',#458,#374,#375);
#317=AXIS2_PLACEMENT_3D('',#462,#378,#379);
#318=AXIS2_PLACEMENT_3D('',#466,#382,#383);
#319=AXIS2_PLACEMENT_3D('',#470,#386,#387);
#320=AXIS2_PLACEMENT_3D('',#474,#390,#391);
#321=AXIS2_PLACEMENT_3D('',#478,#394,#395);
#322=AXIS2_PLACEMENT_3D('',#480,#396,#397);
#323=AXIS2_PLACEMENT_3D('',#482,#399,#400);
#324=AXIS2_PLACEMENT_3D('',#484,#402,#403);
#325=DIRECTION('axis',(0.,0.,1.));
#326=DIRECTION('refdir',(1.,0.,0.));
#327=DIRECTION('center_axis',(1.,0.,0.));
#328=DIRECTION('ref_axis',(0.,-1.,0.));
#329=DIRECTION('center_axis',(1.,0.,0.));
#330=DIRECTION('ref_axis',(0.,-1.,0.));
#331=DIRECTION('',(1.,0.,0.));
#332=DIRECTION('center_axis',(-1.,0.,0.));
#333=DIRECTION('ref_axis',(0.,-1.,0.));
#334=DIRECTION('center_axis',(-1.,0.,0.));
#335=DIRECTION('ref_axis',(0.,-1.,0.));
#336=DIRECTION('',(0.,1.,0.));
#337=DIRECTION('',(0.,0.,1.));
#338=DIRECTION('',(0.,-1.,0.));
#339=DIRECTION('',(0.,0.,1.));
#340=DIRECTION('center_axis',(0.,0.,1.));
#341=DIRECTION('ref_axis',(1.,0.,0.));
#342=DIRECTION('',(0.,1.,0.));
#343=DIRECTION('',(-1.,0.,0.));
#344=DIRECTION('',(1.,0.,0.));
#345=DIRECTION('center_axis',(0.,0.,1.));
#346=DIRECTION('ref_axis',(1.,0.,0.));
#347=DIRECTION('',(-1.,0.,0.));
#348=DIRECTION('',(0.,-1.,0.));
#349=DIRECTION('',(1.,0.,0.));
#350=DIRECTION('center_axis',(0.,0.,-1.));
#351=DIRECTION('ref_axis',(1.,0.,0.));
#352=DIRECTION('',(-1.,0.,0.));
#353=DIRECTION('',(0.,-1.,0.));
#354=DIRECTION('',(1.,0.,0.));
#355=DIRECTION('center_axis',(0.,1.,0.));
#356=DIRECTION('ref_axis',(-1.,0.,0.));
#357=DIRECTION('',(1.,0.,0.));
#358=DIRECTION('',(0.,0.,1.));
#359=DIRECTION('',(0.,0.,1.));
#360=DIRECTION('center_axis',(0.,-1.,0.));
#361=DIRECTION('ref_axis',(1.,0.,0.));
#362=DIRECTION('center_axis',(0.,1.,0.));
#363=DIRECTION('ref_axis',(1.,0.,0.));
#364=DIRECTION('center_axis',(0.,1.,0.));
#365=DIRECTION('ref_axis',(1.,0.,0.));
#366=DIRECTION('',(0.,1.,0.));
#367=DIRECTION('center_axis',(0.,1.,0.));
#368=DIRECTION('ref_axis',(1.,0.,0.));
#369=DIRECTION('center_axis',(0.,1.,0.));
#370=DIRECTION('ref_axis',(1.,0.,0.));
#371=DIRECTION('',(0.,1.,0.));
#372=DIRECTION('center_axis',(0.,-1.,0.));
#373=DIRECTION('ref_axis',(1.,0.,0.));
#374=DIRECTION('center_axis',(-1.,0.,0.));
#375=DIRECTION('ref_axis',(0.,-1.,0.));
#376=DIRECTION('',(0.,1.,0.));
#377=DIRECTION('',(0.,0.,1.));
#378=DIRECTION('center_axis',(1.,0.,0.));
#379=DIRECTION('ref_axis',(0.,1.,0.));
#380=DIRECTION('',(0.,-1.,0.));
#381=DIRECTION('',(0.,0.,1.));
#382=DIRECTION('center_axis',(0.,-1.,0.));
#383=DIRECTION('ref_axis',(1.,0.,0.));
#384=DIRECTION('',(0.,0.,1.));
#385=DIRECTION('',(-1.,0.,0.));
#386=DIRECTION('center_axis',(-1.,0.,0.));
#387=DIRECTION('ref_axis',(0.,-1.,0.));
#388=DIRECTION('',(0.,1.,0.));
#389=DIRECTION('',(0.,0.,1.));
#390=DIRECTION('center_axis',(0.,1.,0.));
#391=DIRECTION('ref_axis',(-1.,0.,0.));
#392=DIRECTION('',(-1.,0.,0.));
#393=DIRECTION('',(0.,0.,1.));
#394=DIRECTION('center_axis',(0.,0.,1.));
#395=DIRECTION('ref_axis',(1.,0.,0.));
#396=DIRECTION('center_axis',(0.,0.,1.));
#397=DIRECTION('ref_axis',(1.,0.,0.));
#398=DIRECTION('',(0.,0.,1.));
#399=DIRECTION('center_axis',(0.,-1.,0.));
#400=DIRECTION('ref_axis',(1.,0.,0.));
#401=DIRECTION('',(1.,0.,0.));
#402=DIRECTION('center_axis',(0.,0.,1.));
#403=DIRECTION('ref_axis',(1.,0.,0.));
#404=CARTESIAN_POINT('',(0.,0.,0.));
#405=CARTESIAN_POINT('Origin',(15.,9.23871970037738E-8,35.));
#406=CARTESIAN_POINT('',(15.,2.7000000923872,35.));
#407=CARTESIAN_POINT('Origin',(15.,9.23871970037738E-8,35.));
#408=CARTESIAN_POINT('',(25.,2.7000000923872,35.));
#409=CARTESIAN_POINT('',(15.,2.7000000923872,35.));
#410=CARTESIAN_POINT('Origin',(25.,9.23871970037738E-8,35.));
#411=CARTESIAN_POINT('Origin',(15.,15.500000230968,0.));
#412=CARTESIAN_POINT('',(15.,-15.500000230968,25.));
#413=CARTESIAN_POINT('',(15.,15.5,25.));
#414=CARTESIAN_POINT('',(15.,7.750000115484,25.));
#415=CARTESIAN_POINT('',(15.,-15.500000230968,50.));
#416=CARTESIAN_POINT('',(15.,-15.500000230968,0.));
#417=CARTESIAN_POINT('',(15.,15.500000230968,50.));
#418=CARTESIAN_POINT('',(15.,15.500000230968,50.));
#419=CARTESIAN_POINT('',(15.,15.500000230968,0.));
#420=CARTESIAN_POINT('Origin',(20.,0.,50.));
#421=CARTESIAN_POINT('',(25.,-15.5,50.));
#422=CARTESIAN_POINT('',(25.,15.5,50.));
#423=CARTESIAN_POINT('',(25.,-15.5,50.));
#424=CARTESIAN_POINT('',(25.,15.500000230968,50.));
#425=CARTESIAN_POINT('',(15.,-15.500000230968,50.));
#426=CARTESIAN_POINT('Origin',(-1.49011611938477E-7,0.,25.));
#427=CARTESIAN_POINT('',(-25.,15.5,25.));
#428=CARTESIAN_POINT('',(-25.,15.5,25.));
#429=CARTESIAN_POINT('',(-25.0000002980232,0.7,25.));
#430=CARTESIAN_POINT('',(-25.,-15.5,25.));
#431=CARTESIAN_POINT('',(-7.46726188103779,0.699999999999999,25.));
#432=CARTESIAN_POINT('',(-25.0000002980232,0.7,25.));
#433=CARTESIAN_POINT('',(-7.46726188103779,-0.699999999999999,25.));
#434=CARTESIAN_POINT('Origin',(0.,0.,25.));
#435=CARTESIAN_POINT('',(-25.0000002980232,-0.7,25.));
#436=CARTESIAN_POINT('',(-2.,-0.7,25.));
#437=CARTESIAN_POINT('',(-25.,-15.5,25.));
#438=CARTESIAN_POINT('',(-25.,-15.5,25.));
#439=CARTESIAN_POINT('',(25.,-15.5,25.));
#440=CARTESIAN_POINT('Origin',(25.,15.5,0.));
#441=CARTESIAN_POINT('',(-25.,15.5,0.));
#442=CARTESIAN_POINT('',(25.,15.5,0.));
#443=CARTESIAN_POINT('',(-25.,15.5,0.));
#444=CARTESIAN_POINT('',(-25.,15.5,0.));
#445=CARTESIAN_POINT('',(25.,15.5,0.));
#446=CARTESIAN_POINT('',(-18.7,15.5,12.5));
#447=CARTESIAN_POINT('Origin',(-16.,15.5,12.5));
#448=CARTESIAN_POINT('Origin',(-16.,-15.5,12.5));
#449=CARTESIAN_POINT('',(-18.7,0.700000000000001,12.5));
#450=CARTESIAN_POINT('Origin',(-16.,0.700000000000001,12.5));
#451=CARTESIAN_POINT('',(-18.7,-15.5,12.5));
#452=CARTESIAN_POINT('Origin',(-16.,-15.5,12.5));
#453=CARTESIAN_POINT('',(-18.7,-15.5,12.5));
#454=CARTESIAN_POINT('Origin',(-16.,-15.5,12.5));
#455=CARTESIAN_POINT('',(-18.7,-0.700000000000001,12.5));
#456=CARTESIAN_POINT('',(-18.7,-15.5,12.5));
#457=CARTESIAN_POINT('Origin',(-16.,-0.700000000000001,12.5));
#458=CARTESIAN_POINT('Origin',(-25.,15.5,0.));
#459=CARTESIAN_POINT('',(-25.0000002980232,0.7,0.));
#460=CARTESIAN_POINT('',(-25.,-15.5,0.));
#461=CARTESIAN_POINT('',(-25.0000002980232,0.7,0.));
#462=CARTESIAN_POINT('Origin',(25.,-15.5,0.));
#463=CARTESIAN_POINT('',(25.,-15.5,0.));
#464=CARTESIAN_POINT('',(25.,15.5,0.));
#465=CARTESIAN_POINT('',(25.,-15.5,0.));
#466=CARTESIAN_POINT('Origin',(-25.,-15.5,0.));
#467=CARTESIAN_POINT('',(-25.,-15.5,0.));
#468=CARTESIAN_POINT('',(-25.,-15.5,0.));
#469=CARTESIAN_POINT('',(25.,-15.5,0.));
#470=CARTESIAN_POINT('Origin',(-25.,-0.700000000000001,0.));
#471=CARTESIAN_POINT('',(-25.0000002980232,-0.7,0.));
#472=CARTESIAN_POINT('',(-25.,-15.5,0.));
#473=CARTESIAN_POINT('',(-25.0000002980232,-0.7,0.));
#474=CARTESIAN_POINT('Origin',(-7.46726188103779,-0.7,0.));
#475=CARTESIAN_POINT('',(-7.46726188103779,-0.699999999999999,0.));
#476=CARTESIAN_POINT('',(-2.,-0.7,0.));
#477=CARTESIAN_POINT('',(-7.46726188103779,-0.699999999999999,0.));
#478=CARTESIAN_POINT('Origin',(0.,0.,0.));
#479=CARTESIAN_POINT('',(-7.46726188103779,0.699999999999999,0.));
#480=CARTESIAN_POINT('Origin',(0.,0.,0.));
#481=CARTESIAN_POINT('',(-7.46726188103779,0.699999999999999,0.));
#482=CARTESIAN_POINT('Origin',(-25.0000002980232,0.7,0.));
#483=CARTESIAN_POINT('',(-25.0000002980232,0.7,0.));
#484=CARTESIAN_POINT('Origin',(-1.49011611938477E-7,0.,0.));
#485=UNCERTAINTY_MEASURE_WITH_UNIT(LENGTH_MEASURE(0.01),#489,
'DISTANCE_ACCURACY_VALUE',
'Maximum model space distance between geometric entities at asserted c
onnectivities');
#486=UNCERTAINTY_MEASURE_WITH_UNIT(LENGTH_MEASURE(0.01),#489,
'DISTANCE_ACCURACY_VALUE',
'Maximum model space distance between geometric entities at asserted c
onnectivities');
#487=(
GEOMETRIC_REPRESENTATION_CONTEXT(3)
GLOBAL_UNCERTAINTY_ASSIGNED_CONTEXT((#485))
GLOBAL_UNIT_ASSIGNED_CONTEXT((#489,#490,#491))
REPRESENTATION_CONTEXT('','3D')
);
#488=(
GEOMETRIC_REPRESENTATION_CONTEXT(3)
GLOBAL_UNCERTAINTY_ASSIGNED_CONTEXT((#486))
GLOBAL_UNIT_ASSIGNED_CONTEXT((#489,#490,#491))
REPRESENTATION_CONTEXT('','3D')
);
#489=(
LENGTH_UNIT()
NAMED_UNIT(*)
SI_UNIT(.MILLI.,.METRE.)
);
#490=(
NAMED_UNIT(*)
PLANE_ANGLE_UNIT()
SI_UNIT($,.RADIAN.)
);
#491=(
NAMED_UNIT(*)
SI_UNIT($,.STERADIAN.)
SOLID_ANGLE_UNIT()
);
#492=SHAPE_DEFINITION_REPRESENTATION(#493,#494);
#493=PRODUCT_DEFINITION_SHAPE('',$,#496);
#494=SHAPE_REPRESENTATION('',(#301),#487);
#495=PRODUCT_DEFINITION_CONTEXT('part definition',#500,'design');
#496=PRODUCT_DEFINITION('2025-12-23-13-23-02-771',
'Z axis bearing clamp',#497,#495);
#497=PRODUCT_DEFINITION_FORMATION('',$,#502);
#498=PRODUCT_RELATED_PRODUCT_CATEGORY('Z axis bearing clamp',
'Z axis bearing clamp',(#502));
#499=APPLICATION_PROTOCOL_DEFINITION('international standard',
'automotive_design',2009,#500);
#500=APPLICATION_CONTEXT(
'Core Data for Automotive Mechanical Design Process');
#501=PRODUCT_CONTEXT('part definition',#500,'mechanical');
#502=PRODUCT('2025-12-23-13-23-02-771','Z axis bearing clamp',$,(#501));
#503=PRESENTATION_STYLE_ASSIGNMENT((#504));
#504=SURFACE_STYLE_USAGE(.BOTH.,#505);
#505=SURFACE_SIDE_STYLE('',(#506));
#506=SURFACE_STYLE_FILL_AREA(#507);
#507=FILL_AREA_STYLE('Steel - Satin',(#508));
#508=FILL_AREA_STYLE_COLOUR('Steel - Satin',#509);
#509=COLOUR_RGB('Steel - Satin',0.627450980392157,0.627450980392157,0.627450980392157);
ENDSEC;
END-ISO-10303-21;
