ISO-10303-21;
HEADER;
/* Generated by software containing ST-Developer
 * from STEP Tools, Inc. (www.steptools.com) 
 */

FILE_DESCRIPTION(
/* description */ (''),
/* implementation_level */ '2;1');

FILE_NAME(
/* name */ 'Z leadscrew bracket.step',
/* time_stamp */ '2026-02-18T14:44:07+11:00',
/* author */ (''),
/* organization */ (''),
/* preprocessor_version */ 'ST-DEVELOPER v20.1',
/* originating_system */ 'Autodesk Translation Framework v14.24.0.0',
/* authorisation */ '');

FILE_SCHEMA (('AUTOMOTIVE_DESIGN { 1 0 10303 214 3 1 1 }'));
ENDSEC;

DATA;
#10=MECHANICAL_DESIGN_GEOMETRIC_PRESENTATION_REPRESENTATION('',(#13),#405);
#11=SHAPE_REPRESENTATION_RELATIONSHIP('SRR','None',#412,#12);
#12=ADVANCED_BREP_SHAPE_REPRESENTATION('',(#14),#404);
#13=STYLED_ITEM('',(#421),#14);
#14=MANIFOLD_SOLID_BREP('Body1',#241);
#15=CYLINDRICAL_SURFACE('',#262,2.74999999999999);
#16=CYLINDRICAL_SURFACE('',#264,2.74999999999999);
#17=CYLINDRICAL_SURFACE('',#268,2.24999999999994);
#18=CYLINDRICAL_SURFACE('',#270,2.24999999999994);
#19=FACE_BOUND('',#48,.T.);
#20=FACE_BOUND('',#49,.T.);
#21=FACE_BOUND('',#50,.T.);
#22=FACE_BOUND('',#51,.T.);
#23=FACE_BOUND('',#58,.T.);
#24=FACE_BOUND('',#59,.T.);
#25=FACE_BOUND('',#65,.T.);
#26=FACE_BOUND('',#66,.T.);
#27=CIRCLE('',#256,2.24999999999994);
#28=CIRCLE('',#257,2.24999999999994);
#29=CIRCLE('',#258,2.74999999999999);
#30=CIRCLE('',#259,2.74999999999999);
#31=CIRCLE('',#263,2.74999999999999);
#32=CIRCLE('',#265,2.74999999999999);
#33=CIRCLE('',#269,2.24999999999994);
#34=CIRCLE('',#271,2.24999999999994);
#35=FACE_OUTER_BOUND('',#47,.T.);
#36=FACE_OUTER_BOUND('',#52,.T.);
#37=FACE_OUTER_BOUND('',#53,.T.);
#38=FACE_OUTER_BOUND('',#54,.T.);
#39=FACE_OUTER_BOUND('',#55,.T.);
#40=FACE_OUTER_BOUND('',#56,.T.);
#41=FACE_OUTER_BOUND('',#57,.T.);
#42=FACE_OUTER_BOUND('',#60,.T.);
#43=FACE_OUTER_BOUND('',#61,.T.);
#44=FACE_OUTER_BOUND('',#62,.T.);
#45=FACE_OUTER_BOUND('',#63,.T.);
#46=FACE_OUTER_BOUND('',#64,.T.);
#47=EDGE_LOOP('',(#161,#162,#163,#164));
#48=EDGE_LOOP('',(#165));
#49=EDGE_LOOP('',(#166));
#50=EDGE_LOOP('',(#167));
#51=EDGE_LOOP('',(#168));
#52=EDGE_LOOP('',(#169,#170,#171,#172,#173,#174));
#53=EDGE_LOOP('',(#175,#176,#177,#178));
#54=EDGE_LOOP('',(#179,#180,#181,#182));
#55=EDGE_LOOP('',(#183,#184,#185,#186));
#56=EDGE_LOOP('',(#187,#188,#189,#190));
#57=EDGE_LOOP('',(#191,#192,#193,#194));
#58=EDGE_LOOP('',(#195));
#59=EDGE_LOOP('',(#196));
#60=EDGE_LOOP('',(#197,#198,#199,#200));
#61=EDGE_LOOP('',(#201,#202,#203,#204));
#62=EDGE_LOOP('',(#205,#206,#207,#208,#209,#210));
#63=EDGE_LOOP('',(#211,#212,#213,#214));
#64=EDGE_LOOP('',(#215,#216,#217,#218));
#65=EDGE_LOOP('',(#219));
#66=EDGE_LOOP('',(#220));
#67=LINE('',#343,#89);
#68=LINE('',#345,#90);
#69=LINE('',#347,#91);
#70=LINE('',#348,#92);
#71=LINE('',#360,#93);
#72=LINE('',#361,#94);
#73=LINE('',#363,#95);
#74=LINE('',#365,#96);
#75=LINE('',#366,#97);
#76=LINE('',#369,#98);
#77=LINE('',#371,#99);
#78=LINE('',#372,#100);
#79=LINE('',#375,#101);
#80=LINE('',#379,#102);
#81=LINE('',#383,#103);
#82=LINE('',#384,#104);
#83=LINE('',#386,#105);
#84=LINE('',#389,#106);
#85=LINE('',#393,#107);
#86=LINE('',#397,#108);
#87=LINE('',#398,#109);
#88=LINE('',#400,#110);
#89=VECTOR('',#279,10.);
#90=VECTOR('',#280,10.);
#91=VECTOR('',#281,10.);
#92=VECTOR('',#282,10.);
#93=VECTOR('',#293,10.);
#94=VECTOR('',#294,10.);
#95=VECTOR('',#295,10.);
#96=VECTOR('',#296,10.);
#97=VECTOR('',#297,10.);
#98=VECTOR('',#300,10.);
#99=VECTOR('',#301,10.);
#100=VECTOR('',#302,10.);
#101=VECTOR('',#305,2.74999999999999);
#102=VECTOR('',#310,2.74999999999999);
#103=VECTOR('',#315,10.);
#104=VECTOR('',#316,10.);
#105=VECTOR('',#319,10.);
#106=VECTOR('',#322,2.24999999999994);
#107=VECTOR('',#327,2.24999999999994);
#108=VECTOR('',#332,10.);
#109=VECTOR('',#333,10.);
#110=VECTOR('',#336,10.);
#111=VERTEX_POINT('',#341);
#112=VERTEX_POINT('',#342);
#113=VERTEX_POINT('',#344);
#114=VERTEX_POINT('',#346);
#115=VERTEX_POINT('',#349);
#116=VERTEX_POINT('',#351);
#117=VERTEX_POINT('',#353);
#118=VERTEX_POINT('',#355);
#119=VERTEX_POINT('',#358);
#120=VERTEX_POINT('',#359);
#121=VERTEX_POINT('',#362);
#122=VERTEX_POINT('',#364);
#123=VERTEX_POINT('',#368);
#124=VERTEX_POINT('',#370);
#125=VERTEX_POINT('',#374);
#126=VERTEX_POINT('',#378);
#127=VERTEX_POINT('',#382);
#128=VERTEX_POINT('',#388);
#129=VERTEX_POINT('',#392);
#130=VERTEX_POINT('',#396);
#131=EDGE_CURVE('',#111,#112,#67,.T.);
#132=EDGE_CURVE('',#112,#113,#68,.T.);
#133=EDGE_CURVE('',#114,#113,#69,.T.);
#134=EDGE_CURVE('',#111,#114,#70,.T.);
#135=EDGE_CURVE('',#115,#115,#27,.T.);
#136=EDGE_CURVE('',#116,#116,#28,.T.);
#137=EDGE_CURVE('',#117,#117,#29,.T.);
#138=EDGE_CURVE('',#118,#118,#30,.T.);
#139=EDGE_CURVE('',#119,#120,#71,.T.);
#140=EDGE_CURVE('',#120,#112,#72,.T.);
#141=EDGE_CURVE('',#121,#111,#73,.T.);
#142=EDGE_CURVE('',#122,#121,#74,.T.);
#143=EDGE_CURVE('',#122,#119,#75,.T.);
#144=EDGE_CURVE('',#123,#119,#76,.T.);
#145=EDGE_CURVE('',#124,#122,#77,.T.);
#146=EDGE_CURVE('',#124,#123,#78,.T.);
#147=EDGE_CURVE('',#118,#125,#79,.T.);
#148=EDGE_CURVE('',#125,#125,#31,.T.);
#149=EDGE_CURVE('',#117,#126,#80,.T.);
#150=EDGE_CURVE('',#126,#126,#32,.T.);
#151=EDGE_CURVE('',#120,#127,#81,.T.);
#152=EDGE_CURVE('',#127,#113,#82,.T.);
#153=EDGE_CURVE('',#127,#123,#83,.T.);
#154=EDGE_CURVE('',#115,#128,#84,.T.);
#155=EDGE_CURVE('',#128,#128,#33,.T.);
#156=EDGE_CURVE('',#116,#129,#85,.T.);
#157=EDGE_CURVE('',#129,#129,#34,.T.);
#158=EDGE_CURVE('',#130,#124,#86,.T.);
#159=EDGE_CURVE('',#130,#114,#87,.T.);
#160=EDGE_CURVE('',#121,#130,#88,.T.);
#161=ORIENTED_EDGE('',*,*,#131,.T.);
#162=ORIENTED_EDGE('',*,*,#132,.T.);
#163=ORIENTED_EDGE('',*,*,#133,.F.);
#164=ORIENTED_EDGE('',*,*,#134,.F.);
#165=ORIENTED_EDGE('',*,*,#135,.F.);
#166=ORIENTED_EDGE('',*,*,#136,.F.);
#167=ORIENTED_EDGE('',*,*,#137,.T.);
#168=ORIENTED_EDGE('',*,*,#138,.T.);
#169=ORIENTED_EDGE('',*,*,#139,.T.);
#170=ORIENTED_EDGE('',*,*,#140,.T.);
#171=ORIENTED_EDGE('',*,*,#131,.F.);
#172=ORIENTED_EDGE('',*,*,#141,.F.);
#173=ORIENTED_EDGE('',*,*,#142,.F.);
#174=ORIENTED_EDGE('',*,*,#143,.T.);
#175=ORIENTED_EDGE('',*,*,#144,.T.);
#176=ORIENTED_EDGE('',*,*,#143,.F.);
#177=ORIENTED_EDGE('',*,*,#145,.F.);
#178=ORIENTED_EDGE('',*,*,#146,.T.);
#179=ORIENTED_EDGE('',*,*,#138,.F.);
#180=ORIENTED_EDGE('',*,*,#147,.T.);
#181=ORIENTED_EDGE('',*,*,#148,.T.);
#182=ORIENTED_EDGE('',*,*,#147,.F.);
#183=ORIENTED_EDGE('',*,*,#137,.F.);
#184=ORIENTED_EDGE('',*,*,#149,.T.);
#185=ORIENTED_EDGE('',*,*,#150,.T.);
#186=ORIENTED_EDGE('',*,*,#149,.F.);
#187=ORIENTED_EDGE('',*,*,#151,.T.);
#188=ORIENTED_EDGE('',*,*,#152,.T.);
#189=ORIENTED_EDGE('',*,*,#132,.F.);
#190=ORIENTED_EDGE('',*,*,#140,.F.);
#191=ORIENTED_EDGE('',*,*,#153,.F.);
#192=ORIENTED_EDGE('',*,*,#151,.F.);
#193=ORIENTED_EDGE('',*,*,#139,.F.);
#194=ORIENTED_EDGE('',*,*,#144,.F.);
#195=ORIENTED_EDGE('',*,*,#150,.F.);
#196=ORIENTED_EDGE('',*,*,#148,.F.);
#197=ORIENTED_EDGE('',*,*,#135,.T.);
#198=ORIENTED_EDGE('',*,*,#154,.T.);
#199=ORIENTED_EDGE('',*,*,#155,.T.);
#200=ORIENTED_EDGE('',*,*,#154,.F.);
#201=ORIENTED_EDGE('',*,*,#136,.T.);
#202=ORIENTED_EDGE('',*,*,#156,.T.);
#203=ORIENTED_EDGE('',*,*,#157,.T.);
#204=ORIENTED_EDGE('',*,*,#156,.F.);
#205=ORIENTED_EDGE('',*,*,#153,.T.);
#206=ORIENTED_EDGE('',*,*,#146,.F.);
#207=ORIENTED_EDGE('',*,*,#158,.F.);
#208=ORIENTED_EDGE('',*,*,#159,.T.);
#209=ORIENTED_EDGE('',*,*,#133,.T.);
#210=ORIENTED_EDGE('',*,*,#152,.F.);
#211=ORIENTED_EDGE('',*,*,#160,.F.);
#212=ORIENTED_EDGE('',*,*,#141,.T.);
#213=ORIENTED_EDGE('',*,*,#134,.T.);
#214=ORIENTED_EDGE('',*,*,#159,.F.);
#215=ORIENTED_EDGE('',*,*,#160,.T.);
#216=ORIENTED_EDGE('',*,*,#158,.T.);
#217=ORIENTED_EDGE('',*,*,#145,.T.);
#218=ORIENTED_EDGE('',*,*,#142,.T.);
#219=ORIENTED_EDGE('',*,*,#157,.F.);
#220=ORIENTED_EDGE('',*,*,#155,.F.);
#221=PLANE('',#255);
#222=PLANE('',#260);
#223=PLANE('',#261);
#224=PLANE('',#266);
#225=PLANE('',#267);
#226=PLANE('',#272);
#227=PLANE('',#273);
#228=PLANE('',#274);
#229=ADVANCED_FACE('',(#35,#19,#20,#21,#22),#221,.T.);
#230=ADVANCED_FACE('',(#36),#222,.T.);
#231=ADVANCED_FACE('',(#37),#223,.T.);
#232=ADVANCED_FACE('',(#38),#15,.F.);
#233=ADVANCED_FACE('',(#39),#16,.F.);
#234=ADVANCED_FACE('',(#40),#224,.T.);
#235=ADVANCED_FACE('',(#41,#23,#24),#225,.F.);
#236=ADVANCED_FACE('',(#42),#17,.F.);
#237=ADVANCED_FACE('',(#43),#18,.F.);
#238=ADVANCED_FACE('',(#44),#226,.T.);
#239=ADVANCED_FACE('',(#45),#227,.T.);
#240=ADVANCED_FACE('',(#46,#25,#26),#228,.F.);
#241=CLOSED_SHELL('',(#229,#230,#231,#232,#233,#234,#235,#236,#237,#238,
#239,#240));
#242=DERIVED_UNIT_ELEMENT(#244,1.);
#243=DERIVED_UNIT_ELEMENT(#407,-3.);
#244=(
MASS_UNIT()
NAMED_UNIT(*)
SI_UNIT(.KILO.,.GRAM.)
);
#245=DERIVED_UNIT((#242,#243));
#246=MEASURE_REPRESENTATION_ITEM('density measure',
POSITIVE_RATIO_MEASURE(7850.),#245);
#247=PROPERTY_DEFINITION_REPRESENTATION(#252,#249);
#248=PROPERTY_DEFINITION_REPRESENTATION(#253,#250);
#249=REPRESENTATION('material name',(#251),#404);
#250=REPRESENTATION('density',(#246),#404);
#251=DESCRIPTIVE_REPRESENTATION_ITEM('Steel','Steel');
#252=PROPERTY_DEFINITION('material property','material name',#414);
#253=PROPERTY_DEFINITION('material property','density of part',#414);
#254=AXIS2_PLACEMENT_3D('',#339,#275,#276);
#255=AXIS2_PLACEMENT_3D('',#340,#277,#278);
#256=AXIS2_PLACEMENT_3D('',#350,#283,#284);
#257=AXIS2_PLACEMENT_3D('',#352,#285,#286);
#258=AXIS2_PLACEMENT_3D('',#354,#287,#288);
#259=AXIS2_PLACEMENT_3D('',#356,#289,#290);
#260=AXIS2_PLACEMENT_3D('',#357,#291,#292);
#261=AXIS2_PLACEMENT_3D('',#367,#298,#299);
#262=AXIS2_PLACEMENT_3D('',#373,#303,#304);
#263=AXIS2_PLACEMENT_3D('',#376,#306,#307);
#264=AXIS2_PLACEMENT_3D('',#377,#308,#309);
#265=AXIS2_PLACEMENT_3D('',#380,#311,#312);
#266=AXIS2_PLACEMENT_3D('',#381,#313,#314);
#267=AXIS2_PLACEMENT_3D('',#385,#317,#318);
#268=AXIS2_PLACEMENT_3D('',#387,#320,#321);
#269=AXIS2_PLACEMENT_3D('',#390,#323,#324);
#270=AXIS2_PLACEMENT_3D('',#391,#325,#326);
#271=AXIS2_PLACEMENT_3D('',#394,#328,#329);
#272=AXIS2_PLACEMENT_3D('',#395,#330,#331);
#273=AXIS2_PLACEMENT_3D('',#399,#334,#335);
#274=AXIS2_PLACEMENT_3D('',#401,#337,#338);
#275=DIRECTION('axis',(0.,0.,1.));
#276=DIRECTION('refdir',(1.,0.,0.));
#277=DIRECTION('center_axis',(0.,-1.,0.));
#278=DIRECTION('ref_axis',(0.,0.,-1.));
#279=DIRECTION('',(0.,0.,1.));
#280=DIRECTION('',(-1.,0.,0.));
#281=DIRECTION('',(-2.34193081237489E-31,0.,1.));
#282=DIRECTION('',(-1.,0.,-2.34193081237489E-31));
#283=DIRECTION('center_axis',(0.,-1.,0.));
#284=DIRECTION('ref_axis',(1.,0.,2.34193081237489E-31));
#285=DIRECTION('center_axis',(0.,-1.,0.));
#286=DIRECTION('ref_axis',(1.,0.,2.34193081237489E-31));
#287=DIRECTION('center_axis',(0.,1.,0.));
#288=DIRECTION('ref_axis',(1.,0.,0.));
#289=DIRECTION('center_axis',(0.,1.,0.));
#290=DIRECTION('ref_axis',(1.,0.,0.));
#291=DIRECTION('center_axis',(1.,0.,2.34193081237489E-31));
#292=DIRECTION('ref_axis',(-2.34193081237489E-31,4.19082355898661E-31,1.));
#293=DIRECTION('',(0.,0.,1.));
#294=DIRECTION('',(0.,-1.,0.));
#295=DIRECTION('',(0.,-1.,0.));
#296=DIRECTION('',(2.34193081237489E-31,-4.19082355898661E-31,-1.));
#297=DIRECTION('',(0.,-1.,0.));
#298=DIRECTION('center_axis',(-2.34193081237489E-31,0.,1.));
#299=DIRECTION('ref_axis',(-1.,8.67746995743113E-30,-2.34193081237489E-31));
#300=DIRECTION('',(1.,0.,2.34193081237489E-31));
#301=DIRECTION('',(1.,-8.67746995743113E-30,2.34193081237489E-31));
#302=DIRECTION('',(0.,-1.,0.));
#303=DIRECTION('center_axis',(0.,-1.,0.));
#304=DIRECTION('ref_axis',(1.,0.,0.));
#305=DIRECTION('',(0.,1.,0.));
#306=DIRECTION('center_axis',(0.,1.,0.));
#307=DIRECTION('ref_axis',(1.,0.,0.));
#308=DIRECTION('center_axis',(0.,-1.,0.));
#309=DIRECTION('ref_axis',(1.,0.,0.));
#310=DIRECTION('',(0.,1.,0.));
#311=DIRECTION('center_axis',(0.,1.,0.));
#312=DIRECTION('ref_axis',(1.,0.,0.));
#313=DIRECTION('center_axis',(0.,0.,1.));
#314=DIRECTION('ref_axis',(-1.,0.,0.));
#315=DIRECTION('',(-1.,0.,0.));
#316=DIRECTION('',(0.,-1.,0.));
#317=DIRECTION('center_axis',(0.,-1.,0.));
#318=DIRECTION('ref_axis',(1.,0.,0.));
#319=DIRECTION('',(0.,0.,-1.));
#320=DIRECTION('center_axis',(0.,-1.,0.));
#321=DIRECTION('ref_axis',(1.,0.,2.34193081237489E-31));
#322=DIRECTION('',(0.,1.,0.));
#323=DIRECTION('center_axis',(8.67746995743113E-30,1.,-4.19082355898661E-31));
#324=DIRECTION('ref_axis',(1.,-8.67746995743113E-30,2.34193081237489E-31));
#325=DIRECTION('center_axis',(0.,-1.,0.));
#326=DIRECTION('ref_axis',(1.,0.,2.34193081237489E-31));
#327=DIRECTION('',(0.,1.,0.));
#328=DIRECTION('center_axis',(8.67746995743113E-30,1.,-4.19082355898661E-31));
#329=DIRECTION('ref_axis',(1.,-8.67746995743113E-30,2.34193081237489E-31));
#330=DIRECTION('center_axis',(-1.,0.,-2.34193081237489E-31));
#331=DIRECTION('ref_axis',(2.34193081237489E-31,-4.19082355898661E-31,-1.));
#332=DIRECTION('',(-2.34193081237489E-31,4.19082355898661E-31,1.));
#333=DIRECTION('',(0.,-1.,0.));
#334=DIRECTION('center_axis',(2.34193081237489E-31,0.,-1.));
#335=DIRECTION('ref_axis',(1.,-8.67746995743113E-30,2.34193081237489E-31));
#336=DIRECTION('',(-1.,8.67746995743113E-30,-2.34193081237489E-31));
#337=DIRECTION('center_axis',(-8.67746995743113E-30,-1.,4.19082355898661E-31));
#338=DIRECTION('ref_axis',(1.,-8.67746995743113E-30,2.34193081237489E-31));
#339=CARTESIAN_POINT('',(0.,0.,0.));
#340=CARTESIAN_POINT('Origin',(370.16,-522.650000000001,496.499999999999));
#341=CARTESIAN_POINT('',(395.16,-522.650000000001,486.499999999999));
#342=CARTESIAN_POINT('',(395.16,-522.650000000001,530.00001564622));
#343=CARTESIAN_POINT('',(395.16,-522.650000000001,506.500048756134));
#344=CARTESIAN_POINT('',(345.16,-522.650000000001,530.00001564622));
#345=CARTESIAN_POINT('',(395.16,-522.650000000001,530.00001564622));
#346=CARTESIAN_POINT('',(345.16,-522.650000000001,486.499999999999));
#347=CARTESIAN_POINT('',(345.16,-522.650000000001,501.499999999999));
#348=CARTESIAN_POINT('',(357.66,-522.650000000001,486.499999999999));
#349=CARTESIAN_POINT('',(352.91,-522.650000000001,496.499999999999));
#350=CARTESIAN_POINT('Origin',(355.16,-522.650000000001,496.499999999999));
#351=CARTESIAN_POINT('',(382.91,-522.650000000001,496.499999999999));
#352=CARTESIAN_POINT('Origin',(385.16,-522.650000000001,496.499999999999));
#353=CARTESIAN_POINT('',(357.41,-522.650000000001,520.000015497234));
#354=CARTESIAN_POINT('Origin',(360.16,-522.650000000001,520.000015497234));
#355=CARTESIAN_POINT('',(377.41,-522.650000000001,520.000015497234));
#356=CARTESIAN_POINT('Origin',(380.16,-522.650000000001,520.000015497234));
#357=CARTESIAN_POINT('Origin',(395.16,-512.081999999999,486.499999999999));
#358=CARTESIAN_POINT('',(395.16,-514.650000000001,506.499999999999));
#359=CARTESIAN_POINT('',(395.16,-514.650000000001,530.00001564622));
#360=CARTESIAN_POINT('',(395.16,-514.650000000001,506.500048756134));
#361=CARTESIAN_POINT('',(395.16,-514.650000000001,530.00001564622));
#362=CARTESIAN_POINT('',(395.16,-512.081999999999,486.499999999999));
#363=CARTESIAN_POINT('',(395.16,-512.081999999999,486.499999999999));
#364=CARTESIAN_POINT('',(395.16,-512.081999999999,506.499999999999));
#365=CARTESIAN_POINT('',(395.16,-512.081999999999,506.499999999999));
#366=CARTESIAN_POINT('',(395.16,-512.081999999999,506.499999999999));
#367=CARTESIAN_POINT('Origin',(395.16,-512.081999999999,506.499999999999));
#368=CARTESIAN_POINT('',(345.16,-514.650000000001,506.499999999999));
#369=CARTESIAN_POINT('',(382.66,-514.650000000001,506.499999999999));
#370=CARTESIAN_POINT('',(345.16,-512.081999999999,506.499999999999));
#371=CARTESIAN_POINT('',(345.16,-512.081999999999,506.499999999999));
#372=CARTESIAN_POINT('',(345.16,-512.081999999999,506.499999999999));
#373=CARTESIAN_POINT('Origin',(380.16,-514.650000000001,520.000015497234));
#374=CARTESIAN_POINT('',(377.41,-514.650000000001,520.000015497234));
#375=CARTESIAN_POINT('',(377.41,-514.650000000001,520.000015497234));
#376=CARTESIAN_POINT('Origin',(380.16,-514.650000000001,520.000015497234));
#377=CARTESIAN_POINT('Origin',(360.16,-514.650000000001,520.000015497234));
#378=CARTESIAN_POINT('',(357.41,-514.650000000001,520.000015497234));
#379=CARTESIAN_POINT('',(357.41,-514.650000000001,520.000015497234));
#380=CARTESIAN_POINT('Origin',(360.16,-514.650000000001,520.000015497234));
#381=CARTESIAN_POINT('Origin',(395.16,-514.650000000001,530.00001564622));
#382=CARTESIAN_POINT('',(345.16,-514.650000000001,530.00001564622));
#383=CARTESIAN_POINT('',(395.16,-514.650000000001,530.00001564622));
#384=CARTESIAN_POINT('',(345.16,-514.650000000001,530.00001564622));
#385=CARTESIAN_POINT('Origin',(370.16,-514.650000000001,518.250032201177));
#386=CARTESIAN_POINT('',(345.16,-514.650000000001,530.00001564622));
#387=CARTESIAN_POINT('Origin',(355.16,-512.081999999999,496.499999999999));
#388=CARTESIAN_POINT('',(352.91,-512.081999999999,496.499999999999));
#389=CARTESIAN_POINT('',(352.91,-512.081999999999,496.499999999999));
#390=CARTESIAN_POINT('Origin',(355.16,-512.081999999999,496.499999999999));
#391=CARTESIAN_POINT('Origin',(385.16,-512.081999999999,496.499999999999));
#392=CARTESIAN_POINT('',(382.91,-512.081999999999,496.499999999999));
#393=CARTESIAN_POINT('',(382.91,-512.081999999999,496.499999999999));
#394=CARTESIAN_POINT('Origin',(385.16,-512.081999999999,496.499999999999));
#395=CARTESIAN_POINT('Origin',(345.16,-512.081999999999,506.499999999999));
#396=CARTESIAN_POINT('',(345.16,-512.081999999999,486.499999999999));
#397=CARTESIAN_POINT('',(345.16,-512.081999999999,486.499999999999));
#398=CARTESIAN_POINT('',(345.16,-512.081999999999,486.499999999999));
#399=CARTESIAN_POINT('Origin',(345.16,-512.081999999999,486.499999999999));
#400=CARTESIAN_POINT('',(395.16,-512.081999999999,486.499999999999));
#401=CARTESIAN_POINT('Origin',(370.16,-512.081999999999,496.499999999999));
#402=UNCERTAINTY_MEASURE_WITH_UNIT(LENGTH_MEASURE(0.01),#406,
'DISTANCE_ACCURACY_VALUE',
'Maximum model space distance between geometric entities at asserted c
onnectivities');
#403=UNCERTAINTY_MEASURE_WITH_UNIT(LENGTH_MEASURE(0.01),#406,
'DISTANCE_ACCURACY_VALUE',
'Maximum model space distance between geometric entities at asserted c
onnectivities');
#404=(
GEOMETRIC_REPRESENTATION_CONTEXT(3)
GLOBAL_UNCERTAINTY_ASSIGNED_CONTEXT((#402))
GLOBAL_UNIT_ASSIGNED_CONTEXT((#406,#408,#409))
REPRESENTATION_CONTEXT('','3D')
);
#405=(
GEOMETRIC_REPRESENTATION_CONTEXT(3)
GLOBAL_UNCERTAINTY_ASSIGNED_CONTEXT((#403))
GLOBAL_UNIT_ASSIGNED_CONTEXT((#406,#408,#409))
REPRESENTATION_CONTEXT('','3D')
);
#406=(
LENGTH_UNIT()
NAMED_UNIT(*)
SI_UNIT(.MILLI.,.METRE.)
);
#407=(
LENGTH_UNIT()
NAMED_UNIT(*)
SI_UNIT($,.METRE.)
);
#408=(
NAMED_UNIT(*)
PLANE_ANGLE_UNIT()
SI_UNIT($,.RADIAN.)
);
#409=(
NAMED_UNIT(*)
SI_UNIT($,.STERADIAN.)
SOLID_ANGLE_UNIT()
);
#410=SHAPE_DEFINITION_REPRESENTATION(#411,#412);
#411=PRODUCT_DEFINITION_SHAPE('',$,#414);
#412=SHAPE_REPRESENTATION('',(#254),#404);
#413=PRODUCT_DEFINITION_CONTEXT('part definition',#418,'design');
#414=PRODUCT_DEFINITION('2026-02-18-14-44-07-130','Z leadscrew bracket',
#415,#413);
#415=PRODUCT_DEFINITION_FORMATION('',$,#420);
#416=PRODUCT_RELATED_PRODUCT_CATEGORY('Z leadscrew bracket',
'Z leadscrew bracket',(#420));
#417=APPLICATION_PROTOCOL_DEFINITION('international standard',
'automotive_design',2009,#418);
#418=APPLICATION_CONTEXT(
'Core Data for Automotive Mechanical Design Process');
#419=PRODUCT_CONTEXT('part definition',#418,'mechanical');
#420=PRODUCT('2026-02-18-14-44-07-130','Z leadscrew bracket',$,(#419));
#421=PRESENTATION_STYLE_ASSIGNMENT((#422));
#422=SURFACE_STYLE_USAGE(.BOTH.,#423);
#423=SURFACE_SIDE_STYLE('',(#424));
#424=SURFACE_STYLE_FILL_AREA(#425);
#425=FILL_AREA_STYLE('Steel - Satin',(#426));
#426=FILL_AREA_STYLE_COLOUR('Steel - Satin',#427);
#427=COLOUR_RGB('Steel - Satin',0.627450980392157,0.627450980392157,0.627450980392157);
ENDSEC;
END-ISO-10303-21;
