ISO-10303-21;
HEADER;
/* Generated by software containing ST-Developer
 * from STEP Tools, Inc. (www.steptools.com) 
 */

FILE_DESCRIPTION(
/* description */ (''),
/* implementation_level */ '2;1');

FILE_NAME(
/* name */ 'Z rod top bracket.step',
/* time_stamp */ '2026-02-18T14:45:05+11:00',
/* author */ (''),
/* organization */ (''),
/* preprocessor_version */ 'ST-DEVELOPER v20.1',
/* originating_system */ 'Autodesk Translation Framework v14.24.0.0',
/* authorisation */ '');

FILE_SCHEMA (('AUTOMOTIVE_DESIGN { 1 0 10303 214 3 1 1 }'));
ENDSEC;

DATA;
#10=MECHANICAL_DESIGN_GEOMETRIC_PRESENTATION_REPRESENTATION('',(#13),#500);
#11=SHAPE_REPRESENTATION_RELATIONSHIP('SRR','None',#507,#12);
#12=ADVANCED_BREP_SHAPE_REPRESENTATION('',(#14),#499);
#13=STYLED_ITEM('',(#516),#14);
#14=MANIFOLD_SOLID_BREP('Body1',#300);
#15=FACE_BOUND('',#51,.T.);
#16=FACE_BOUND('',#53,.T.);
#17=FACE_BOUND('',#60,.T.);
#18=FACE_BOUND('',#62,.T.);
#19=FACE_BOUND('',#65,.T.);
#20=FACE_BOUND('',#67,.T.);
#21=PLANE('',#320);
#22=PLANE('',#322);
#23=PLANE('',#323);
#24=PLANE('',#324);
#25=PLANE('',#326);
#26=PLANE('',#328);
#27=PLANE('',#332);
#28=PLANE('',#333);
#29=PLANE('',#334);
#30=PLANE('',#335);
#31=PLANE('',#336);
#32=FACE_OUTER_BOUND('',#47,.T.);
#33=FACE_OUTER_BOUND('',#48,.T.);
#34=FACE_OUTER_BOUND('',#49,.T.);
#35=FACE_OUTER_BOUND('',#50,.T.);
#36=FACE_OUTER_BOUND('',#52,.T.);
#37=FACE_OUTER_BOUND('',#54,.T.);
#38=FACE_OUTER_BOUND('',#55,.T.);
#39=FACE_OUTER_BOUND('',#56,.T.);
#40=FACE_OUTER_BOUND('',#57,.T.);
#41=FACE_OUTER_BOUND('',#58,.T.);
#42=FACE_OUTER_BOUND('',#59,.T.);
#43=FACE_OUTER_BOUND('',#61,.T.);
#44=FACE_OUTER_BOUND('',#63,.T.);
#45=FACE_OUTER_BOUND('',#64,.T.);
#46=FACE_OUTER_BOUND('',#66,.T.);
#47=EDGE_LOOP('',(#203,#204,#205,#206));
#48=EDGE_LOOP('',(#207,#208,#209,#210));
#49=EDGE_LOOP('',(#211,#212,#213,#214,#215,#216,#217,#218));
#50=EDGE_LOOP('',(#219,#220,#221,#222));
#51=EDGE_LOOP('',(#223));
#52=EDGE_LOOP('',(#224,#225,#226,#227));
#53=EDGE_LOOP('',(#228));
#54=EDGE_LOOP('',(#229,#230,#231,#232,#233,#234,#235,#236));
#55=EDGE_LOOP('',(#237,#238,#239,#240));
#56=EDGE_LOOP('',(#241,#242,#243,#244));
#57=EDGE_LOOP('',(#245,#246,#247,#248));
#58=EDGE_LOOP('',(#249,#250,#251,#252));
#59=EDGE_LOOP('',(#253,#254,#255,#256,#257,#258));
#60=EDGE_LOOP('',(#259));
#61=EDGE_LOOP('',(#260,#261,#262,#263,#264,#265));
#62=EDGE_LOOP('',(#266));
#63=EDGE_LOOP('',(#267,#268,#269,#270));
#64=EDGE_LOOP('',(#271,#272,#273,#274));
#65=EDGE_LOOP('',(#275));
#66=EDGE_LOOP('',(#276,#277,#278,#279));
#67=EDGE_LOOP('',(#280));
#68=LINE('',#421,#99);
#69=LINE('',#427,#100);
#70=LINE('',#432,#101);
#71=LINE('',#434,#102);
#72=LINE('',#436,#103);
#73=LINE('',#438,#104);
#74=LINE('',#440,#105);
#75=LINE('',#442,#106);
#76=LINE('',#444,#107);
#77=LINE('',#448,#108);
#78=LINE('',#450,#109);
#79=LINE('',#451,#110);
#80=LINE('',#454,#111);
#81=LINE('',#456,#112);
#82=LINE('',#457,#113);
#83=LINE('',#461,#114);
#84=LINE('',#463,#115);
#85=LINE('',#465,#116);
#86=LINE('',#467,#117);
#87=LINE('',#468,#118);
#88=LINE('',#470,#119);
#89=LINE('',#473,#120);
#90=LINE('',#478,#121);
#91=LINE('',#482,#122);
#92=LINE('',#484,#123);
#93=LINE('',#485,#124);
#94=LINE('',#488,#125);
#95=LINE('',#490,#126);
#96=LINE('',#491,#127);
#97=LINE('',#493,#128);
#98=LINE('',#494,#129);
#99=VECTOR('',#343,2.19999999999999);
#100=VECTOR('',#350,2.19999999999999);
#101=VECTOR('',#355,10.);
#102=VECTOR('',#356,10.);
#103=VECTOR('',#357,10.);
#104=VECTOR('',#358,10.);
#105=VECTOR('',#359,10.);
#106=VECTOR('',#360,10.);
#107=VECTOR('',#361,10.);
#108=VECTOR('',#366,10.);
#109=VECTOR('',#367,10.);
#110=VECTOR('',#368,10.);
#111=VECTOR('',#371,10.);
#112=VECTOR('',#372,10.);
#113=VECTOR('',#373,10.);
#114=VECTOR('',#378,10.);
#115=VECTOR('',#379,10.);
#116=VECTOR('',#380,10.);
#117=VECTOR('',#381,10.);
#118=VECTOR('',#382,10.);
#119=VECTOR('',#385,10.);
#120=VECTOR('',#390,10.);
#121=VECTOR('',#395,2.74999999999999);
#122=VECTOR('',#400,10.);
#123=VECTOR('',#401,10.);
#124=VECTOR('',#402,10.);
#125=VECTOR('',#405,10.);
#126=VECTOR('',#406,10.);
#127=VECTOR('',#407,10.);
#128=VECTOR('',#410,10.);
#129=VECTOR('',#411,10.);
#130=CIRCLE('',#315,2.19999999999999);
#131=CIRCLE('',#316,2.19999999999999);
#132=CIRCLE('',#318,2.19999999999999);
#133=CIRCLE('',#319,2.19999999999999);
#134=CIRCLE('',#321,4.20000000000002);
#135=CIRCLE('',#325,4.20000000000002);
#136=CIRCLE('',#330,2.74999999999999);
#137=CIRCLE('',#331,2.74999999999999);
#138=VERTEX_POINT('',#418);
#139=VERTEX_POINT('',#420);
#140=VERTEX_POINT('',#424);
#141=VERTEX_POINT('',#426);
#142=VERTEX_POINT('',#430);
#143=VERTEX_POINT('',#431);
#144=VERTEX_POINT('',#433);
#145=VERTEX_POINT('',#435);
#146=VERTEX_POINT('',#437);
#147=VERTEX_POINT('',#439);
#148=VERTEX_POINT('',#441);
#149=VERTEX_POINT('',#443);
#150=VERTEX_POINT('',#447);
#151=VERTEX_POINT('',#449);
#152=VERTEX_POINT('',#453);
#153=VERTEX_POINT('',#455);
#154=VERTEX_POINT('',#460);
#155=VERTEX_POINT('',#462);
#156=VERTEX_POINT('',#464);
#157=VERTEX_POINT('',#466);
#158=VERTEX_POINT('',#475);
#159=VERTEX_POINT('',#477);
#160=VERTEX_POINT('',#481);
#161=VERTEX_POINT('',#483);
#162=VERTEX_POINT('',#487);
#163=VERTEX_POINT('',#489);
#164=EDGE_CURVE('',#138,#138,#130,.T.);
#165=EDGE_CURVE('',#138,#139,#68,.T.);
#166=EDGE_CURVE('',#139,#139,#131,.T.);
#167=EDGE_CURVE('',#140,#140,#132,.T.);
#168=EDGE_CURVE('',#140,#141,#69,.T.);
#169=EDGE_CURVE('',#141,#141,#133,.T.);
#170=EDGE_CURVE('',#142,#143,#70,.T.);
#171=EDGE_CURVE('',#143,#144,#71,.T.);
#172=EDGE_CURVE('',#144,#145,#72,.T.);
#173=EDGE_CURVE('',#145,#146,#73,.T.);
#174=EDGE_CURVE('',#146,#147,#74,.T.);
#175=EDGE_CURVE('',#147,#148,#75,.T.);
#176=EDGE_CURVE('',#148,#149,#76,.T.);
#177=EDGE_CURVE('',#149,#142,#134,.T.);
#178=EDGE_CURVE('',#150,#148,#77,.T.);
#179=EDGE_CURVE('',#151,#150,#78,.T.);
#180=EDGE_CURVE('',#149,#151,#79,.T.);
#181=EDGE_CURVE('',#152,#142,#80,.T.);
#182=EDGE_CURVE('',#153,#152,#81,.T.);
#183=EDGE_CURVE('',#153,#143,#82,.T.);
#184=EDGE_CURVE('',#152,#151,#135,.T.);
#185=EDGE_CURVE('',#154,#150,#83,.T.);
#186=EDGE_CURVE('',#155,#154,#84,.T.);
#187=EDGE_CURVE('',#155,#156,#85,.T.);
#188=EDGE_CURVE('',#156,#157,#86,.T.);
#189=EDGE_CURVE('',#153,#157,#87,.T.);
#190=EDGE_CURVE('',#154,#147,#88,.T.);
#191=EDGE_CURVE('',#157,#144,#89,.T.);
#192=EDGE_CURVE('',#158,#158,#136,.T.);
#193=EDGE_CURVE('',#158,#159,#90,.T.);
#194=EDGE_CURVE('',#159,#159,#137,.T.);
#195=EDGE_CURVE('',#156,#160,#91,.T.);
#196=EDGE_CURVE('',#160,#161,#92,.T.);
#197=EDGE_CURVE('',#145,#161,#93,.T.);
#198=EDGE_CURVE('',#162,#155,#94,.T.);
#199=EDGE_CURVE('',#163,#146,#95,.T.);
#200=EDGE_CURVE('',#162,#163,#96,.T.);
#201=EDGE_CURVE('',#162,#160,#97,.T.);
#202=EDGE_CURVE('',#161,#163,#98,.T.);
#203=ORIENTED_EDGE('',*,*,#164,.F.);
#204=ORIENTED_EDGE('',*,*,#165,.T.);
#205=ORIENTED_EDGE('',*,*,#166,.F.);
#206=ORIENTED_EDGE('',*,*,#165,.F.);
#207=ORIENTED_EDGE('',*,*,#167,.F.);
#208=ORIENTED_EDGE('',*,*,#168,.T.);
#209=ORIENTED_EDGE('',*,*,#169,.F.);
#210=ORIENTED_EDGE('',*,*,#168,.F.);
#211=ORIENTED_EDGE('',*,*,#170,.T.);
#212=ORIENTED_EDGE('',*,*,#171,.T.);
#213=ORIENTED_EDGE('',*,*,#172,.T.);
#214=ORIENTED_EDGE('',*,*,#173,.T.);
#215=ORIENTED_EDGE('',*,*,#174,.T.);
#216=ORIENTED_EDGE('',*,*,#175,.T.);
#217=ORIENTED_EDGE('',*,*,#176,.T.);
#218=ORIENTED_EDGE('',*,*,#177,.T.);
#219=ORIENTED_EDGE('',*,*,#178,.F.);
#220=ORIENTED_EDGE('',*,*,#179,.F.);
#221=ORIENTED_EDGE('',*,*,#180,.F.);
#222=ORIENTED_EDGE('',*,*,#176,.F.);
#223=ORIENTED_EDGE('',*,*,#169,.T.);
#224=ORIENTED_EDGE('',*,*,#181,.F.);
#225=ORIENTED_EDGE('',*,*,#182,.F.);
#226=ORIENTED_EDGE('',*,*,#183,.T.);
#227=ORIENTED_EDGE('',*,*,#170,.F.);
#228=ORIENTED_EDGE('',*,*,#164,.T.);
#229=ORIENTED_EDGE('',*,*,#182,.T.);
#230=ORIENTED_EDGE('',*,*,#184,.T.);
#231=ORIENTED_EDGE('',*,*,#179,.T.);
#232=ORIENTED_EDGE('',*,*,#185,.F.);
#233=ORIENTED_EDGE('',*,*,#186,.F.);
#234=ORIENTED_EDGE('',*,*,#187,.T.);
#235=ORIENTED_EDGE('',*,*,#188,.T.);
#236=ORIENTED_EDGE('',*,*,#189,.F.);
#237=ORIENTED_EDGE('',*,*,#178,.T.);
#238=ORIENTED_EDGE('',*,*,#175,.F.);
#239=ORIENTED_EDGE('',*,*,#190,.F.);
#240=ORIENTED_EDGE('',*,*,#185,.T.);
#241=ORIENTED_EDGE('',*,*,#181,.T.);
#242=ORIENTED_EDGE('',*,*,#177,.F.);
#243=ORIENTED_EDGE('',*,*,#180,.T.);
#244=ORIENTED_EDGE('',*,*,#184,.F.);
#245=ORIENTED_EDGE('',*,*,#183,.F.);
#246=ORIENTED_EDGE('',*,*,#189,.T.);
#247=ORIENTED_EDGE('',*,*,#191,.T.);
#248=ORIENTED_EDGE('',*,*,#171,.F.);
#249=ORIENTED_EDGE('',*,*,#192,.F.);
#250=ORIENTED_EDGE('',*,*,#193,.T.);
#251=ORIENTED_EDGE('',*,*,#194,.F.);
#252=ORIENTED_EDGE('',*,*,#193,.F.);
#253=ORIENTED_EDGE('',*,*,#195,.T.);
#254=ORIENTED_EDGE('',*,*,#196,.T.);
#255=ORIENTED_EDGE('',*,*,#197,.F.);
#256=ORIENTED_EDGE('',*,*,#172,.F.);
#257=ORIENTED_EDGE('',*,*,#191,.F.);
#258=ORIENTED_EDGE('',*,*,#188,.F.);
#259=ORIENTED_EDGE('',*,*,#166,.T.);
#260=ORIENTED_EDGE('',*,*,#198,.T.);
#261=ORIENTED_EDGE('',*,*,#186,.T.);
#262=ORIENTED_EDGE('',*,*,#190,.T.);
#263=ORIENTED_EDGE('',*,*,#174,.F.);
#264=ORIENTED_EDGE('',*,*,#199,.F.);
#265=ORIENTED_EDGE('',*,*,#200,.F.);
#266=ORIENTED_EDGE('',*,*,#167,.T.);
#267=ORIENTED_EDGE('',*,*,#201,.F.);
#268=ORIENTED_EDGE('',*,*,#200,.T.);
#269=ORIENTED_EDGE('',*,*,#202,.F.);
#270=ORIENTED_EDGE('',*,*,#196,.F.);
#271=ORIENTED_EDGE('',*,*,#201,.T.);
#272=ORIENTED_EDGE('',*,*,#195,.F.);
#273=ORIENTED_EDGE('',*,*,#187,.F.);
#274=ORIENTED_EDGE('',*,*,#198,.F.);
#275=ORIENTED_EDGE('',*,*,#194,.T.);
#276=ORIENTED_EDGE('',*,*,#202,.T.);
#277=ORIENTED_EDGE('',*,*,#199,.T.);
#278=ORIENTED_EDGE('',*,*,#173,.F.);
#279=ORIENTED_EDGE('',*,*,#197,.T.);
#280=ORIENTED_EDGE('',*,*,#192,.T.);
#281=CYLINDRICAL_SURFACE('',#314,2.19999999999999);
#282=CYLINDRICAL_SURFACE('',#317,2.19999999999999);
#283=CYLINDRICAL_SURFACE('',#327,4.20000000000002);
#284=CYLINDRICAL_SURFACE('',#329,2.74999999999999);
#285=ADVANCED_FACE('',(#32),#281,.F.);
#286=ADVANCED_FACE('',(#33),#282,.F.);
#287=ADVANCED_FACE('',(#34),#21,.T.);
#288=ADVANCED_FACE('',(#35,#15),#22,.F.);
#289=ADVANCED_FACE('',(#36,#16),#23,.F.);
#290=ADVANCED_FACE('',(#37),#24,.T.);
#291=ADVANCED_FACE('',(#38),#25,.T.);
#292=ADVANCED_FACE('',(#39),#283,.F.);
#293=ADVANCED_FACE('',(#40),#26,.T.);
#294=ADVANCED_FACE('',(#41),#284,.F.);
#295=ADVANCED_FACE('',(#42,#17),#27,.T.);
#296=ADVANCED_FACE('',(#43,#18),#28,.T.);
#297=ADVANCED_FACE('',(#44),#29,.T.);
#298=ADVANCED_FACE('',(#45,#19),#30,.T.);
#299=ADVANCED_FACE('',(#46,#20),#31,.F.);
#300=CLOSED_SHELL('',(#285,#286,#287,#288,#289,#290,#291,#292,#293,#294,
#295,#296,#297,#298,#299));
#301=DERIVED_UNIT_ELEMENT(#303,1.);
#302=DERIVED_UNIT_ELEMENT(#502,-3.);
#303=(
MASS_UNIT()
NAMED_UNIT(*)
SI_UNIT(.KILO.,.GRAM.)
);
#304=DERIVED_UNIT((#301,#302));
#305=MEASURE_REPRESENTATION_ITEM('density measure',
POSITIVE_RATIO_MEASURE(7850.),#304);
#306=PROPERTY_DEFINITION_REPRESENTATION(#311,#308);
#307=PROPERTY_DEFINITION_REPRESENTATION(#312,#309);
#308=REPRESENTATION('material name',(#310),#499);
#309=REPRESENTATION('density',(#305),#499);
#310=DESCRIPTIVE_REPRESENTATION_ITEM('Steel','Steel');
#311=PROPERTY_DEFINITION('material property','material name',#509);
#312=PROPERTY_DEFINITION('material property','density of part',#509);
#313=AXIS2_PLACEMENT_3D('',#416,#337,#338);
#314=AXIS2_PLACEMENT_3D('',#417,#339,#340);
#315=AXIS2_PLACEMENT_3D('',#419,#341,#342);
#316=AXIS2_PLACEMENT_3D('',#422,#344,#345);
#317=AXIS2_PLACEMENT_3D('',#423,#346,#347);
#318=AXIS2_PLACEMENT_3D('',#425,#348,#349);
#319=AXIS2_PLACEMENT_3D('',#428,#351,#352);
#320=AXIS2_PLACEMENT_3D('',#429,#353,#354);
#321=AXIS2_PLACEMENT_3D('',#445,#362,#363);
#322=AXIS2_PLACEMENT_3D('',#446,#364,#365);
#323=AXIS2_PLACEMENT_3D('',#452,#369,#370);
#324=AXIS2_PLACEMENT_3D('',#458,#374,#375);
#325=AXIS2_PLACEMENT_3D('',#459,#376,#377);
#326=AXIS2_PLACEMENT_3D('',#469,#383,#384);
#327=AXIS2_PLACEMENT_3D('',#471,#386,#387);
#328=AXIS2_PLACEMENT_3D('',#472,#388,#389);
#329=AXIS2_PLACEMENT_3D('',#474,#391,#392);
#330=AXIS2_PLACEMENT_3D('',#476,#393,#394);
#331=AXIS2_PLACEMENT_3D('',#479,#396,#397);
#332=AXIS2_PLACEMENT_3D('',#480,#398,#399);
#333=AXIS2_PLACEMENT_3D('',#486,#403,#404);
#334=AXIS2_PLACEMENT_3D('',#492,#408,#409);
#335=AXIS2_PLACEMENT_3D('',#495,#412,#413);
#336=AXIS2_PLACEMENT_3D('',#496,#414,#415);
#337=DIRECTION('axis',(0.,0.,1.));
#338=DIRECTION('refdir',(1.,0.,0.));
#339=DIRECTION('center_axis',(-1.,0.,0.));
#340=DIRECTION('ref_axis',(0.,1.,0.));
#341=DIRECTION('center_axis',(-1.,0.,0.));
#342=DIRECTION('ref_axis',(0.,1.,0.));
#343=DIRECTION('',(-1.,0.,0.));
#344=DIRECTION('center_axis',(1.,0.,0.));
#345=DIRECTION('ref_axis',(0.,1.,0.));
#346=DIRECTION('center_axis',(-1.,0.,0.));
#347=DIRECTION('ref_axis',(0.,1.,0.));
#348=DIRECTION('center_axis',(-1.,0.,0.));
#349=DIRECTION('ref_axis',(0.,1.,0.));
#350=DIRECTION('',(-1.,0.,0.));
#351=DIRECTION('center_axis',(1.,0.,0.));
#352=DIRECTION('ref_axis',(0.,1.,0.));
#353=DIRECTION('center_axis',(0.,0.,-1.));
#354=DIRECTION('ref_axis',(1.,0.,0.));
#355=DIRECTION('',(0.,-1.,0.));
#356=DIRECTION('',(-1.,0.,0.));
#357=DIRECTION('',(0.,1.,0.));
#358=DIRECTION('',(1.,0.,0.));
#359=DIRECTION('',(0.,-1.,0.));
#360=DIRECTION('',(-1.,0.,0.));
#361=DIRECTION('',(0.,1.,0.));
#362=DIRECTION('center_axis',(0.,0.,1.));
#363=DIRECTION('ref_axis',(-1.,0.,0.));
#364=DIRECTION('center_axis',(1.,0.,0.));
#365=DIRECTION('ref_axis',(0.,-1.,0.));
#366=DIRECTION('',(0.,0.,-1.));
#367=DIRECTION('',(0.,-1.,0.));
#368=DIRECTION('',(0.,0.,1.));
#369=DIRECTION('center_axis',(-1.,0.,0.));
#370=DIRECTION('ref_axis',(0.,1.,0.));
#371=DIRECTION('',(0.,0.,-1.));
#372=DIRECTION('',(0.,1.,0.));
#373=DIRECTION('',(0.,0.,-1.));
#374=DIRECTION('center_axis',(0.,0.,1.));
#375=DIRECTION('ref_axis',(-1.,0.,0.));
#376=DIRECTION('center_axis',(0.,0.,-1.));
#377=DIRECTION('ref_axis',(-1.,0.,0.));
#378=DIRECTION('',(-1.,0.,0.));
#379=DIRECTION('',(0.,-1.,0.));
#380=DIRECTION('',(-1.,0.,0.));
#381=DIRECTION('',(0.,-1.,0.));
#382=DIRECTION('',(-1.,0.,0.));
#383=DIRECTION('center_axis',(0.,-1.,0.));
#384=DIRECTION('ref_axis',(0.,0.,-1.));
#385=DIRECTION('',(0.,0.,-1.));
#386=DIRECTION('center_axis',(0.,0.,-1.));
#387=DIRECTION('ref_axis',(3.9355705486932E-15,1.,0.));
#388=DIRECTION('center_axis',(0.,-1.,0.));
#389=DIRECTION('ref_axis',(0.,0.,-1.));
#390=DIRECTION('',(0.,0.,-1.));
#391=DIRECTION('center_axis',(0.,1.,0.));
#392=DIRECTION('ref_axis',(1.,0.,0.));
#393=DIRECTION('center_axis',(0.,-1.,0.));
#394=DIRECTION('ref_axis',(1.,0.,0.));
#395=DIRECTION('',(0.,-1.,0.));
#396=DIRECTION('center_axis',(0.,1.,0.));
#397=DIRECTION('ref_axis',(1.,0.,0.));
#398=DIRECTION('center_axis',(-1.,0.,0.));
#399=DIRECTION('ref_axis',(0.,0.,1.));
#400=DIRECTION('',(0.,0.,1.));
#401=DIRECTION('',(0.,1.,0.));
#402=DIRECTION('',(0.,0.,1.));
#403=DIRECTION('center_axis',(1.,0.,0.));
#404=DIRECTION('ref_axis',(0.,0.,-1.));
#405=DIRECTION('',(0.,0.,-1.));
#406=DIRECTION('',(0.,0.,-1.));
#407=DIRECTION('',(0.,1.,0.));
#408=DIRECTION('center_axis',(2.8421709430404E-16,0.,1.));
#409=DIRECTION('ref_axis',(1.,0.,-2.8421709430404E-16));
#410=DIRECTION('',(-1.,0.,2.8421709430404E-16));
#411=DIRECTION('',(1.,0.,-2.8421709430404E-16));
#412=DIRECTION('center_axis',(0.,-1.,0.));
#413=DIRECTION('ref_axis',(1.,0.,0.));
#414=DIRECTION('center_axis',(0.,-1.,0.));
#415=DIRECTION('ref_axis',(1.,0.,0.));
#416=CARTESIAN_POINT('',(0.,0.,0.));
#417=CARTESIAN_POINT('Origin',(217.000003442168,-520.650000000001,499.000015288592));
#418=CARTESIAN_POINT('',(206.124125677365,-522.850000000001,499.000015288592));
#419=CARTESIAN_POINT('Origin',(206.124125677365,-520.650000000001,499.000015288592));
#420=CARTESIAN_POINT('',(197.000003442168,-522.850000000001,499.000015288592));
#421=CARTESIAN_POINT('',(217.000003442168,-522.850000000001,499.000015288592));
#422=CARTESIAN_POINT('Origin',(197.000003442168,-520.650000000001,499.000015288592));
#423=CARTESIAN_POINT('Origin',(217.000003442168,-520.650000000001,499.000015288592));
#424=CARTESIAN_POINT('',(217.000003442168,-522.850000000001,499.000015288592));
#425=CARTESIAN_POINT('Origin',(217.000003442168,-520.650000000001,499.000015288592));
#426=CARTESIAN_POINT('',(208.124125677365,-522.850000000001,499.000015288592));
#427=CARTESIAN_POINT('',(217.000003442168,-522.850000000001,499.000015288592));
#428=CARTESIAN_POINT('Origin',(208.124125677365,-520.650000000001,499.000015288592));
#429=CARTESIAN_POINT('Origin',(197.000003442168,-484.650000000001,492.000015288592));
#430=CARTESIAN_POINT('',(206.124125677365,-514.2243147566,492.000015288592));
#431=CARTESIAN_POINT('',(206.124125677365,-528.650000000001,492.000015288592));
#432=CARTESIAN_POINT('',(206.124125677365,-506.650000000001,492.000015288592));
#433=CARTESIAN_POINT('',(197.000003442168,-528.650000000001,492.000015288592));
#434=CARTESIAN_POINT('',(217.000003442168,-528.650000000001,492.000015288592));
#435=CARTESIAN_POINT('',(197.000003442168,-484.650000000001,492.000015288592));
#436=CARTESIAN_POINT('',(197.000003442168,-484.650000000001,492.000015288592));
#437=CARTESIAN_POINT('',(217.000003442168,-484.650000000001,492.000015288592));
#438=CARTESIAN_POINT('',(217.000003442168,-484.650000000001,492.000015288592));
#439=CARTESIAN_POINT('',(217.000003442168,-528.650000000001,492.000015288592));
#440=CARTESIAN_POINT('',(217.000003442168,-484.650000000001,492.000015288592));
#441=CARTESIAN_POINT('',(208.124125677365,-528.650000000001,492.000015288592));
#442=CARTESIAN_POINT('',(217.000003442168,-528.650000000001,492.000015288592));
#443=CARTESIAN_POINT('',(208.124125677365,-514.2243147566,492.000015288592));
#444=CARTESIAN_POINT('',(208.124125677365,-499.4371573783,492.000015288592));
#445=CARTESIAN_POINT('Origin',(207.124125677365,-510.145099145725,492.000015288592));
#446=CARTESIAN_POINT('Origin',(208.124125677365,-514.2243147566,506.000015288592));
#447=CARTESIAN_POINT('',(208.124125677365,-528.650000000001,506.000015288592));
#448=CARTESIAN_POINT('',(208.124125677365,-528.650000000001,498.000015288592));
#449=CARTESIAN_POINT('',(208.124125677365,-514.2243147566,506.000015288592));
#450=CARTESIAN_POINT('',(208.124125677365,-499.4371573783,506.000015288592));
#451=CARTESIAN_POINT('',(208.124125677365,-514.2243147566,506.000015288592));
#452=CARTESIAN_POINT('Origin',(206.124125677365,-528.650000000001,506.000015288592));
#453=CARTESIAN_POINT('',(206.124125677365,-514.2243147566,506.000015288592));
#454=CARTESIAN_POINT('',(206.124125677365,-514.2243147566,506.000015288592));
#455=CARTESIAN_POINT('',(206.124125677365,-528.650000000001,506.000015288592));
#456=CARTESIAN_POINT('',(206.124125677365,-506.650000000001,506.000015288592));
#457=CARTESIAN_POINT('',(206.124125677365,-528.650000000001,498.000015288592));
#458=CARTESIAN_POINT('Origin',(217.000003531575,-484.650000000001,506.000015288592));
#459=CARTESIAN_POINT('Origin',(207.124125677365,-510.145099145725,506.000015288592));
#460=CARTESIAN_POINT('',(217.000003531575,-528.650000000001,506.000015288592));
#461=CARTESIAN_POINT('',(217.000003531575,-528.650000000001,506.000015288592));
#462=CARTESIAN_POINT('',(217.000003531575,-494.650000000001,506.000015288592));
#463=CARTESIAN_POINT('',(217.000003531575,-484.650000000001,506.000015288592));
#464=CARTESIAN_POINT('',(197.000003233552,-494.650000000001,506.000015288592));
#465=CARTESIAN_POINT('',(217.000003531575,-494.650000000001,506.000015288592));
#466=CARTESIAN_POINT('',(197.000003233552,-528.650000000001,506.000015288592));
#467=CARTESIAN_POINT('',(197.000003233552,-484.650000000001,506.000015288592));
#468=CARTESIAN_POINT('',(217.000003531575,-528.650000000001,506.000015288592));
#469=CARTESIAN_POINT('Origin',(207.000003382564,-528.650000000001,502.000015288592));
#470=CARTESIAN_POINT('',(217.000003442168,-528.650000000001,498.000015288592));
#471=CARTESIAN_POINT('Origin',(207.124125677365,-510.145099145725,506.000015288592));
#472=CARTESIAN_POINT('Origin',(207.000003382564,-528.650000000001,502.000015288592));
#473=CARTESIAN_POINT('',(197.000003442168,-528.650000000001,498.000015288592));
#474=CARTESIAN_POINT('Origin',(207.000003442168,-494.650000000001,520.000015497208));
#475=CARTESIAN_POINT('',(204.250003442168,-484.650000000001,520.000015497208));
#476=CARTESIAN_POINT('Origin',(207.000003442168,-484.650000000001,520.000015497208));
#477=CARTESIAN_POINT('',(204.250003442168,-494.650000000001,520.000015497208));
#478=CARTESIAN_POINT('',(204.250003442168,-494.650000000001,520.000015497208));
#479=CARTESIAN_POINT('Origin',(207.000003442168,-494.650000000001,520.000015497208));
#480=CARTESIAN_POINT('Origin',(197.000003442168,-494.650000000001,506.000015288592));
#481=CARTESIAN_POINT('',(197.000003442168,-494.650000000001,529.75));
#482=CARTESIAN_POINT('',(197.000003442168,-494.650000000001,498.000015288592));
#483=CARTESIAN_POINT('',(197.000003442168,-484.650000000001,529.75));
#484=CARTESIAN_POINT('',(197.000003442168,-494.650000000001,529.75));
#485=CARTESIAN_POINT('',(197.000003442168,-484.650000000001,498.000015288592));
#486=CARTESIAN_POINT('Origin',(217.000003442168,-494.650000000001,529.75));
#487=CARTESIAN_POINT('',(217.000003442168,-494.650000000001,529.75));
#488=CARTESIAN_POINT('',(217.000003442168,-494.650000000001,530.000015497208));
#489=CARTESIAN_POINT('',(217.000003442168,-484.650000000001,529.75));
#490=CARTESIAN_POINT('',(217.000003442168,-484.650000000001,530.000015497208));
#491=CARTESIAN_POINT('',(217.000003442168,-494.650000000001,529.75));
#492=CARTESIAN_POINT('Origin',(197.000003442168,-494.650000000001,529.75));
#493=CARTESIAN_POINT('',(620.,-494.650000000001,529.75));
#494=CARTESIAN_POINT('',(620.,-484.650000000001,529.75));
#495=CARTESIAN_POINT('Origin',(207.000003382564,-494.650000000001,517.875007644296));
#496=CARTESIAN_POINT('Origin',(207.000003382564,-484.650000000001,517.875007644296));
#497=UNCERTAINTY_MEASURE_WITH_UNIT(LENGTH_MEASURE(0.01),#501,
'DISTANCE_ACCURACY_VALUE',
'Maximum model space distance between geometric entities at asserted c
onnectivities');
#498=UNCERTAINTY_MEASURE_WITH_UNIT(LENGTH_MEASURE(0.01),#501,
'DISTANCE_ACCURACY_VALUE',
'Maximum model space distance between geometric entities at asserted c
onnectivities');
#499=(
GEOMETRIC_REPRESENTATION_CONTEXT(3)
GLOBAL_UNCERTAINTY_ASSIGNED_CONTEXT((#497))
GLOBAL_UNIT_ASSIGNED_CONTEXT((#501,#503,#504))
REPRESENTATION_CONTEXT('','3D')
);
#500=(
GEOMETRIC_REPRESENTATION_CONTEXT(3)
GLOBAL_UNCERTAINTY_ASSIGNED_CONTEXT((#498))
GLOBAL_UNIT_ASSIGNED_CONTEXT((#501,#503,#504))
REPRESENTATION_CONTEXT('','3D')
);
#501=(
LENGTH_UNIT()
NAMED_UNIT(*)
SI_UNIT(.MILLI.,.METRE.)
);
#502=(
LENGTH_UNIT()
NAMED_UNIT(*)
SI_UNIT($,.METRE.)
);
#503=(
NAMED_UNIT(*)
PLANE_ANGLE_UNIT()
SI_UNIT($,.RADIAN.)
);
#504=(
NAMED_UNIT(*)
SI_UNIT($,.STERADIAN.)
SOLID_ANGLE_UNIT()
);
#505=SHAPE_DEFINITION_REPRESENTATION(#506,#507);
#506=PRODUCT_DEFINITION_SHAPE('',$,#509);
#507=SHAPE_REPRESENTATION('',(#313),#499);
#508=PRODUCT_DEFINITION_CONTEXT('part definition',#513,'design');
#509=PRODUCT_DEFINITION('2026-02-18-14-45-05-829','Z rod top bracket',#510,
#508);
#510=PRODUCT_DEFINITION_FORMATION('',$,#515);
#511=PRODUCT_RELATED_PRODUCT_CATEGORY('Z rod top bracket',
'Z rod top bracket',(#515));
#512=APPLICATION_PROTOCOL_DEFINITION('international standard',
'automotive_design',2009,#513);
#513=APPLICATION_CONTEXT(
'Core Data for Automotive Mechanical Design Process');
#514=PRODUCT_CONTEXT('part definition',#513,'mechanical');
#515=PRODUCT('2026-02-18-14-45-05-829','Z rod top bracket',$,(#514));
#516=PRESENTATION_STYLE_ASSIGNMENT((#517));
#517=SURFACE_STYLE_USAGE(.BOTH.,#518);
#518=SURFACE_SIDE_STYLE('',(#519));
#519=SURFACE_STYLE_FILL_AREA(#520);
#520=FILL_AREA_STYLE('Steel - Satin',(#521));
#521=FILL_AREA_STYLE_COLOUR('Steel - Satin',#522);
#522=COLOUR_RGB('Steel - Satin',0.627450980392157,0.627450980392157,0.627450980392157);
ENDSEC;
END-ISO-10303-21;
