ISO-10303-21;
HEADER;
/* Generated by software containing ST-Developer
 * from STEP Tools, Inc. (www.steptools.com) 
 */

FILE_DESCRIPTION(
/* description */ (''),
/* implementation_level */ '2;1');

FILE_NAME(
/* name */ 'Z smooth rod holder.step',
/* time_stamp */ '2026-02-18T14:42:12+11:00',
/* author */ (''),
/* organization */ (''),
/* preprocessor_version */ 'ST-DEVELOPER v20.1',
/* originating_system */ 'Autodesk Translation Framework v14.24.0.0',
/* authorisation */ '');

FILE_SCHEMA (('AUTOMOTIVE_DESIGN { 1 0 10303 214 3 1 1 }'));
ENDSEC;

DATA;
#10=MECHANICAL_DESIGN_GEOMETRIC_PRESENTATION_REPRESENTATION('',(#13,#14),
#476);
#11=SHAPE_REPRESENTATION_RELATIONSHIP('SRR','None',#483,#12);
#12=ADVANCED_BREP_SHAPE_REPRESENTATION('',(#15,#16),#475);
#13=STYLED_ITEM('',(#492),#15);
#14=STYLED_ITEM('',(#492),#16);
#15=MANIFOLD_SOLID_BREP('Body1',#283);
#16=MANIFOLD_SOLID_BREP('Body2',#284);
#17=FACE_BOUND('',#55,.T.);
#18=FACE_BOUND('',#57,.T.);
#19=PLANE('',#304);
#20=PLANE('',#305);
#21=PLANE('',#306);
#22=PLANE('',#307);
#23=PLANE('',#308);
#24=PLANE('',#309);
#25=PLANE('',#310);
#26=PLANE('',#311);
#27=PLANE('',#315);
#28=PLANE('',#316);
#29=PLANE('',#317);
#30=PLANE('',#318);
#31=PLANE('',#319);
#32=FACE_OUTER_BOUND('',#48,.T.);
#33=FACE_OUTER_BOUND('',#49,.T.);
#34=FACE_OUTER_BOUND('',#50,.T.);
#35=FACE_OUTER_BOUND('',#51,.T.);
#36=FACE_OUTER_BOUND('',#52,.T.);
#37=FACE_OUTER_BOUND('',#53,.T.);
#38=FACE_OUTER_BOUND('',#54,.T.);
#39=FACE_OUTER_BOUND('',#56,.T.);
#40=FACE_OUTER_BOUND('',#58,.T.);
#41=FACE_OUTER_BOUND('',#59,.T.);
#42=FACE_OUTER_BOUND('',#60,.T.);
#43=FACE_OUTER_BOUND('',#61,.T.);
#44=FACE_OUTER_BOUND('',#62,.T.);
#45=FACE_OUTER_BOUND('',#63,.T.);
#46=FACE_OUTER_BOUND('',#64,.T.);
#47=FACE_OUTER_BOUND('',#65,.T.);
#48=EDGE_LOOP('',(#192,#193,#194,#195));
#49=EDGE_LOOP('',(#196,#197,#198,#199));
#50=EDGE_LOOP('',(#200,#201,#202,#203));
#51=EDGE_LOOP('',(#204,#205,#206,#207));
#52=EDGE_LOOP('',(#208,#209,#210,#211));
#53=EDGE_LOOP('',(#212,#213,#214,#215));
#54=EDGE_LOOP('',(#216,#217,#218,#219));
#55=EDGE_LOOP('',(#220,#221));
#56=EDGE_LOOP('',(#222,#223,#224,#225));
#57=EDGE_LOOP('',(#226,#227));
#58=EDGE_LOOP('',(#228,#229,#230,#231));
#59=EDGE_LOOP('',(#232,#233,#234,#235));
#60=EDGE_LOOP('',(#236,#237,#238,#239));
#61=EDGE_LOOP('',(#240,#241,#242,#243));
#62=EDGE_LOOP('',(#244,#245,#246,#247));
#63=EDGE_LOOP('',(#248,#249,#250,#251));
#64=EDGE_LOOP('',(#252,#253,#254,#255,#256,#257));
#65=EDGE_LOOP('',(#258,#259,#260,#261,#262,#263));
#66=LINE('',#402,#96);
#67=LINE('',#405,#97);
#68=LINE('',#412,#98);
#69=LINE('',#414,#99);
#70=LINE('',#416,#100);
#71=LINE('',#417,#101);
#72=LINE('',#420,#102);
#73=LINE('',#422,#103);
#74=LINE('',#423,#104);
#75=LINE('',#426,#105);
#76=LINE('',#428,#106);
#77=LINE('',#429,#107);
#78=LINE('',#431,#108);
#79=LINE('',#432,#109);
#80=LINE('',#438,#110);
#81=LINE('',#440,#111);
#82=LINE('',#442,#112);
#83=LINE('',#443,#113);
#84=LINE('',#446,#114);
#85=LINE('',#448,#115);
#86=LINE('',#449,#116);
#87=LINE('',#455,#117);
#88=LINE('',#458,#118);
#89=LINE('',#460,#119);
#90=LINE('',#461,#120);
#91=LINE('',#464,#121);
#92=LINE('',#466,#122);
#93=LINE('',#467,#123);
#94=LINE('',#469,#124);
#95=LINE('',#470,#125);
#96=VECTOR('',#326,10.);
#97=VECTOR('',#329,10.);
#98=VECTOR('',#338,10.);
#99=VECTOR('',#339,10.);
#100=VECTOR('',#340,10.);
#101=VECTOR('',#341,10.);
#102=VECTOR('',#344,10.);
#103=VECTOR('',#345,10.);
#104=VECTOR('',#346,10.);
#105=VECTOR('',#349,10.);
#106=VECTOR('',#350,10.);
#107=VECTOR('',#351,10.);
#108=VECTOR('',#354,10.);
#109=VECTOR('',#355,10.);
#110=VECTOR('',#362,10.);
#111=VECTOR('',#363,10.);
#112=VECTOR('',#364,10.);
#113=VECTOR('',#365,10.);
#114=VECTOR('',#368,10.);
#115=VECTOR('',#369,10.);
#116=VECTOR('',#370,10.);
#117=VECTOR('',#377,10.);
#118=VECTOR('',#380,10.);
#119=VECTOR('',#381,10.);
#120=VECTOR('',#382,10.);
#121=VECTOR('',#385,10.);
#122=VECTOR('',#386,10.);
#123=VECTOR('',#387,10.);
#124=VECTOR('',#390,10.);
#125=VECTOR('',#391,10.);
#126=CIRCLE('',#299,2.75);
#127=CIRCLE('',#300,2.75);
#128=CIRCLE('',#302,4.);
#129=CIRCLE('',#303,4.);
#130=CIRCLE('',#313,4.);
#131=CIRCLE('',#314,4.);
#132=VERTEX_POINT('',#398);
#133=VERTEX_POINT('',#399);
#134=VERTEX_POINT('',#401);
#135=VERTEX_POINT('',#403);
#136=VERTEX_POINT('',#410);
#137=VERTEX_POINT('',#411);
#138=VERTEX_POINT('',#413);
#139=VERTEX_POINT('',#415);
#140=VERTEX_POINT('',#419);
#141=VERTEX_POINT('',#421);
#142=VERTEX_POINT('',#425);
#143=VERTEX_POINT('',#427);
#144=VERTEX_POINT('',#436);
#145=VERTEX_POINT('',#437);
#146=VERTEX_POINT('',#439);
#147=VERTEX_POINT('',#441);
#148=VERTEX_POINT('',#445);
#149=VERTEX_POINT('',#447);
#150=VERTEX_POINT('',#451);
#151=VERTEX_POINT('',#453);
#152=VERTEX_POINT('',#457);
#153=VERTEX_POINT('',#459);
#154=VERTEX_POINT('',#463);
#155=VERTEX_POINT('',#465);
#156=EDGE_CURVE('',#132,#133,#126,.T.);
#157=EDGE_CURVE('',#133,#134,#66,.T.);
#158=EDGE_CURVE('',#135,#134,#127,.T.);
#159=EDGE_CURVE('',#132,#135,#67,.T.);
#160=EDGE_CURVE('',#133,#132,#128,.T.);
#161=EDGE_CURVE('',#134,#135,#129,.T.);
#162=EDGE_CURVE('',#136,#137,#68,.T.);
#163=EDGE_CURVE('',#137,#138,#69,.T.);
#164=EDGE_CURVE('',#139,#138,#70,.T.);
#165=EDGE_CURVE('',#136,#139,#71,.T.);
#166=EDGE_CURVE('',#140,#136,#72,.T.);
#167=EDGE_CURVE('',#141,#139,#73,.T.);
#168=EDGE_CURVE('',#140,#141,#74,.T.);
#169=EDGE_CURVE('',#142,#140,#75,.T.);
#170=EDGE_CURVE('',#143,#141,#76,.T.);
#171=EDGE_CURVE('',#142,#143,#77,.T.);
#172=EDGE_CURVE('',#137,#142,#78,.T.);
#173=EDGE_CURVE('',#138,#143,#79,.T.);
#174=EDGE_CURVE('',#144,#145,#80,.T.);
#175=EDGE_CURVE('',#145,#146,#81,.T.);
#176=EDGE_CURVE('',#147,#146,#82,.T.);
#177=EDGE_CURVE('',#144,#147,#83,.T.);
#178=EDGE_CURVE('',#144,#148,#84,.T.);
#179=EDGE_CURVE('',#149,#147,#85,.T.);
#180=EDGE_CURVE('',#148,#149,#86,.T.);
#181=EDGE_CURVE('',#148,#150,#130,.T.);
#182=EDGE_CURVE('',#151,#149,#131,.T.);
#183=EDGE_CURVE('',#150,#151,#87,.T.);
#184=EDGE_CURVE('',#150,#152,#88,.T.);
#185=EDGE_CURVE('',#153,#151,#89,.T.);
#186=EDGE_CURVE('',#152,#153,#90,.T.);
#187=EDGE_CURVE('',#154,#152,#91,.T.);
#188=EDGE_CURVE('',#155,#153,#92,.T.);
#189=EDGE_CURVE('',#154,#155,#93,.T.);
#190=EDGE_CURVE('',#145,#154,#94,.T.);
#191=EDGE_CURVE('',#146,#155,#95,.T.);
#192=ORIENTED_EDGE('',*,*,#156,.T.);
#193=ORIENTED_EDGE('',*,*,#157,.T.);
#194=ORIENTED_EDGE('',*,*,#158,.F.);
#195=ORIENTED_EDGE('',*,*,#159,.F.);
#196=ORIENTED_EDGE('',*,*,#160,.T.);
#197=ORIENTED_EDGE('',*,*,#159,.T.);
#198=ORIENTED_EDGE('',*,*,#161,.F.);
#199=ORIENTED_EDGE('',*,*,#157,.F.);
#200=ORIENTED_EDGE('',*,*,#162,.T.);
#201=ORIENTED_EDGE('',*,*,#163,.T.);
#202=ORIENTED_EDGE('',*,*,#164,.F.);
#203=ORIENTED_EDGE('',*,*,#165,.F.);
#204=ORIENTED_EDGE('',*,*,#166,.T.);
#205=ORIENTED_EDGE('',*,*,#165,.T.);
#206=ORIENTED_EDGE('',*,*,#167,.F.);
#207=ORIENTED_EDGE('',*,*,#168,.F.);
#208=ORIENTED_EDGE('',*,*,#169,.T.);
#209=ORIENTED_EDGE('',*,*,#168,.T.);
#210=ORIENTED_EDGE('',*,*,#170,.F.);
#211=ORIENTED_EDGE('',*,*,#171,.F.);
#212=ORIENTED_EDGE('',*,*,#172,.T.);
#213=ORIENTED_EDGE('',*,*,#171,.T.);
#214=ORIENTED_EDGE('',*,*,#173,.F.);
#215=ORIENTED_EDGE('',*,*,#163,.F.);
#216=ORIENTED_EDGE('',*,*,#173,.T.);
#217=ORIENTED_EDGE('',*,*,#170,.T.);
#218=ORIENTED_EDGE('',*,*,#167,.T.);
#219=ORIENTED_EDGE('',*,*,#164,.T.);
#220=ORIENTED_EDGE('',*,*,#161,.T.);
#221=ORIENTED_EDGE('',*,*,#158,.T.);
#222=ORIENTED_EDGE('',*,*,#172,.F.);
#223=ORIENTED_EDGE('',*,*,#162,.F.);
#224=ORIENTED_EDGE('',*,*,#166,.F.);
#225=ORIENTED_EDGE('',*,*,#169,.F.);
#226=ORIENTED_EDGE('',*,*,#160,.F.);
#227=ORIENTED_EDGE('',*,*,#156,.F.);
#228=ORIENTED_EDGE('',*,*,#174,.T.);
#229=ORIENTED_EDGE('',*,*,#175,.T.);
#230=ORIENTED_EDGE('',*,*,#176,.F.);
#231=ORIENTED_EDGE('',*,*,#177,.F.);
#232=ORIENTED_EDGE('',*,*,#178,.F.);
#233=ORIENTED_EDGE('',*,*,#177,.T.);
#234=ORIENTED_EDGE('',*,*,#179,.F.);
#235=ORIENTED_EDGE('',*,*,#180,.F.);
#236=ORIENTED_EDGE('',*,*,#181,.F.);
#237=ORIENTED_EDGE('',*,*,#180,.T.);
#238=ORIENTED_EDGE('',*,*,#182,.F.);
#239=ORIENTED_EDGE('',*,*,#183,.F.);
#240=ORIENTED_EDGE('',*,*,#184,.F.);
#241=ORIENTED_EDGE('',*,*,#183,.T.);
#242=ORIENTED_EDGE('',*,*,#185,.F.);
#243=ORIENTED_EDGE('',*,*,#186,.F.);
#244=ORIENTED_EDGE('',*,*,#187,.T.);
#245=ORIENTED_EDGE('',*,*,#186,.T.);
#246=ORIENTED_EDGE('',*,*,#188,.F.);
#247=ORIENTED_EDGE('',*,*,#189,.F.);
#248=ORIENTED_EDGE('',*,*,#190,.T.);
#249=ORIENTED_EDGE('',*,*,#189,.T.);
#250=ORIENTED_EDGE('',*,*,#191,.F.);
#251=ORIENTED_EDGE('',*,*,#175,.F.);
#252=ORIENTED_EDGE('',*,*,#191,.T.);
#253=ORIENTED_EDGE('',*,*,#188,.T.);
#254=ORIENTED_EDGE('',*,*,#185,.T.);
#255=ORIENTED_EDGE('',*,*,#182,.T.);
#256=ORIENTED_EDGE('',*,*,#179,.T.);
#257=ORIENTED_EDGE('',*,*,#176,.T.);
#258=ORIENTED_EDGE('',*,*,#190,.F.);
#259=ORIENTED_EDGE('',*,*,#174,.F.);
#260=ORIENTED_EDGE('',*,*,#178,.T.);
#261=ORIENTED_EDGE('',*,*,#181,.T.);
#262=ORIENTED_EDGE('',*,*,#184,.T.);
#263=ORIENTED_EDGE('',*,*,#187,.F.);
#264=CYLINDRICAL_SURFACE('',#298,2.75);
#265=CYLINDRICAL_SURFACE('',#301,4.);
#266=CYLINDRICAL_SURFACE('',#312,4.);
#267=ADVANCED_FACE('',(#32),#264,.F.);
#268=ADVANCED_FACE('',(#33),#265,.F.);
#269=ADVANCED_FACE('',(#34),#19,.T.);
#270=ADVANCED_FACE('',(#35),#20,.T.);
#271=ADVANCED_FACE('',(#36),#21,.T.);
#272=ADVANCED_FACE('',(#37),#22,.T.);
#273=ADVANCED_FACE('',(#38,#17),#23,.T.);
#274=ADVANCED_FACE('',(#39,#18),#24,.F.);
#275=ADVANCED_FACE('',(#40),#25,.T.);
#276=ADVANCED_FACE('',(#41),#26,.T.);
#277=ADVANCED_FACE('',(#42),#266,.F.);
#278=ADVANCED_FACE('',(#43),#27,.T.);
#279=ADVANCED_FACE('',(#44),#28,.T.);
#280=ADVANCED_FACE('',(#45),#29,.T.);
#281=ADVANCED_FACE('',(#46),#30,.T.);
#282=ADVANCED_FACE('',(#47),#31,.F.);
#283=CLOSED_SHELL('',(#267,#268,#269,#270,#271,#272,#273,#274));
#284=CLOSED_SHELL('',(#275,#276,#277,#278,#279,#280,#281,#282));
#285=DERIVED_UNIT_ELEMENT(#287,1.);
#286=DERIVED_UNIT_ELEMENT(#478,-3.);
#287=(
MASS_UNIT()
NAMED_UNIT(*)
SI_UNIT(.KILO.,.GRAM.)
);
#288=DERIVED_UNIT((#285,#286));
#289=MEASURE_REPRESENTATION_ITEM('density measure',
POSITIVE_RATIO_MEASURE(7850.),#288);
#290=PROPERTY_DEFINITION_REPRESENTATION(#295,#292);
#291=PROPERTY_DEFINITION_REPRESENTATION(#296,#293);
#292=REPRESENTATION('material name',(#294),#475);
#293=REPRESENTATION('density',(#289),#475);
#294=DESCRIPTIVE_REPRESENTATION_ITEM('Steel','Steel');
#295=PROPERTY_DEFINITION('material property','material name',#485);
#296=PROPERTY_DEFINITION('material property','density of part',#485);
#297=AXIS2_PLACEMENT_3D('',#396,#320,#321);
#298=AXIS2_PLACEMENT_3D('',#397,#322,#323);
#299=AXIS2_PLACEMENT_3D('',#400,#324,#325);
#300=AXIS2_PLACEMENT_3D('',#404,#327,#328);
#301=AXIS2_PLACEMENT_3D('',#406,#330,#331);
#302=AXIS2_PLACEMENT_3D('',#407,#332,#333);
#303=AXIS2_PLACEMENT_3D('',#408,#334,#335);
#304=AXIS2_PLACEMENT_3D('',#409,#336,#337);
#305=AXIS2_PLACEMENT_3D('',#418,#342,#343);
#306=AXIS2_PLACEMENT_3D('',#424,#347,#348);
#307=AXIS2_PLACEMENT_3D('',#430,#352,#353);
#308=AXIS2_PLACEMENT_3D('',#433,#356,#357);
#309=AXIS2_PLACEMENT_3D('',#434,#358,#359);
#310=AXIS2_PLACEMENT_3D('',#435,#360,#361);
#311=AXIS2_PLACEMENT_3D('',#444,#366,#367);
#312=AXIS2_PLACEMENT_3D('',#450,#371,#372);
#313=AXIS2_PLACEMENT_3D('',#452,#373,#374);
#314=AXIS2_PLACEMENT_3D('',#454,#375,#376);
#315=AXIS2_PLACEMENT_3D('',#456,#378,#379);
#316=AXIS2_PLACEMENT_3D('',#462,#383,#384);
#317=AXIS2_PLACEMENT_3D('',#468,#388,#389);
#318=AXIS2_PLACEMENT_3D('',#471,#392,#393);
#319=AXIS2_PLACEMENT_3D('',#472,#394,#395);
#320=DIRECTION('axis',(0.,0.,1.));
#321=DIRECTION('refdir',(1.,0.,0.));
#322=DIRECTION('center_axis',(0.,0.,1.));
#323=DIRECTION('ref_axis',(-1.,1.22464679914735E-16,0.));
#324=DIRECTION('center_axis',(0.,0.,-1.));
#325=DIRECTION('ref_axis',(1.,0.,0.));
#326=DIRECTION('',(0.,0.,1.));
#327=DIRECTION('center_axis',(0.,0.,-1.));
#328=DIRECTION('ref_axis',(1.,0.,0.));
#329=DIRECTION('',(0.,0.,1.));
#330=DIRECTION('center_axis',(0.,0.,1.));
#331=DIRECTION('ref_axis',(1.,0.,0.));
#332=DIRECTION('center_axis',(0.,0.,-1.));
#333=DIRECTION('ref_axis',(1.,0.,0.));
#334=DIRECTION('center_axis',(0.,0.,-1.));
#335=DIRECTION('ref_axis',(1.,0.,0.));
#336=DIRECTION('center_axis',(0.,1.,0.));
#337=DIRECTION('ref_axis',(-1.,0.,0.));
#338=DIRECTION('',(-1.,0.,0.));
#339=DIRECTION('',(0.,0.,1.));
#340=DIRECTION('',(-1.,0.,0.));
#341=DIRECTION('',(0.,0.,1.));
#342=DIRECTION('center_axis',(1.,0.,0.));
#343=DIRECTION('ref_axis',(0.,1.,0.));
#344=DIRECTION('',(0.,1.,0.));
#345=DIRECTION('',(0.,1.,0.));
#346=DIRECTION('',(0.,0.,1.));
#347=DIRECTION('center_axis',(0.,-1.,0.));
#348=DIRECTION('ref_axis',(1.,0.,0.));
#349=DIRECTION('',(1.,0.,0.));
#350=DIRECTION('',(1.,0.,0.));
#351=DIRECTION('',(0.,0.,1.));
#352=DIRECTION('center_axis',(-1.,0.,0.));
#353=DIRECTION('ref_axis',(0.,-1.,0.));
#354=DIRECTION('',(0.,-1.,0.));
#355=DIRECTION('',(0.,-1.,0.));
#356=DIRECTION('center_axis',(0.,0.,1.));
#357=DIRECTION('ref_axis',(1.,0.,0.));
#358=DIRECTION('center_axis',(0.,0.,1.));
#359=DIRECTION('ref_axis',(1.,0.,0.));
#360=DIRECTION('center_axis',(0.,-1.,0.));
#361=DIRECTION('ref_axis',(1.,0.,0.));
#362=DIRECTION('',(1.,0.,0.));
#363=DIRECTION('',(0.,0.,1.));
#364=DIRECTION('',(1.,0.,0.));
#365=DIRECTION('',(0.,0.,1.));
#366=DIRECTION('center_axis',(-1.,0.,0.));
#367=DIRECTION('ref_axis',(0.,-1.,0.));
#368=DIRECTION('',(0.,1.,0.));
#369=DIRECTION('',(0.,-1.,0.));
#370=DIRECTION('',(0.,0.,1.));
#371=DIRECTION('center_axis',(0.,0.,1.));
#372=DIRECTION('ref_axis',(1.,0.,0.));
#373=DIRECTION('center_axis',(0.,0.,1.));
#374=DIRECTION('ref_axis',(1.,0.,0.));
#375=DIRECTION('center_axis',(0.,0.,-1.));
#376=DIRECTION('ref_axis',(1.,0.,0.));
#377=DIRECTION('',(0.,0.,1.));
#378=DIRECTION('center_axis',(-1.,0.,0.));
#379=DIRECTION('ref_axis',(0.,-1.,0.));
#380=DIRECTION('',(0.,1.,0.));
#381=DIRECTION('',(0.,-1.,0.));
#382=DIRECTION('',(0.,0.,1.));
#383=DIRECTION('center_axis',(0.,1.,0.));
#384=DIRECTION('ref_axis',(-1.,0.,0.));
#385=DIRECTION('',(-1.,0.,0.));
#386=DIRECTION('',(-1.,0.,0.));
#387=DIRECTION('',(0.,0.,1.));
#388=DIRECTION('center_axis',(1.,0.,0.));
#389=DIRECTION('ref_axis',(0.,1.,0.));
#390=DIRECTION('',(0.,1.,0.));
#391=DIRECTION('',(0.,1.,0.));
#392=DIRECTION('center_axis',(0.,0.,1.));
#393=DIRECTION('ref_axis',(1.,0.,0.));
#394=DIRECTION('center_axis',(0.,0.,1.));
#395=DIRECTION('ref_axis',(1.,0.,0.));
#396=CARTESIAN_POINT('',(0.,0.,0.));
#397=CARTESIAN_POINT('Origin',(13.,15.,0.));
#398=CARTESIAN_POINT('',(14.7492315175097,12.8780459245896,0.));
#399=CARTESIAN_POINT('',(14.7492315175097,17.1219540754104,0.));
#400=CARTESIAN_POINT('Origin',(13.,15.,0.));
#401=CARTESIAN_POINT('',(14.7492315175097,17.1219540754104,10.));
#402=CARTESIAN_POINT('',(14.7492315175097,17.1219540754104,0.));
#403=CARTESIAN_POINT('',(14.7492315175097,12.8780459245896,10.));
#404=CARTESIAN_POINT('Origin',(13.,15.,10.));
#405=CARTESIAN_POINT('',(14.7492315175097,12.8780459245896,0.));
#406=CARTESIAN_POINT('Origin',(18.14,15.,0.));
#407=CARTESIAN_POINT('Origin',(18.14,15.,0.));
#408=CARTESIAN_POINT('Origin',(18.14,15.,10.));
#409=CARTESIAN_POINT('Origin',(30.,30.,0.));
#410=CARTESIAN_POINT('',(30.,30.,0.));
#411=CARTESIAN_POINT('',(0.,30.,0.));
#412=CARTESIAN_POINT('',(30.,30.,0.));
#413=CARTESIAN_POINT('',(0.,30.,10.));
#414=CARTESIAN_POINT('',(0.,30.,0.));
#415=CARTESIAN_POINT('',(30.,30.,10.));
#416=CARTESIAN_POINT('',(30.,30.,10.));
#417=CARTESIAN_POINT('',(30.,30.,0.));
#418=CARTESIAN_POINT('Origin',(30.,0.,0.));
#419=CARTESIAN_POINT('',(30.,0.,0.));
#420=CARTESIAN_POINT('',(30.,0.,0.));
#421=CARTESIAN_POINT('',(30.,0.,10.));
#422=CARTESIAN_POINT('',(30.,0.,10.));
#423=CARTESIAN_POINT('',(30.,0.,0.));
#424=CARTESIAN_POINT('Origin',(0.,0.,0.));
#425=CARTESIAN_POINT('',(0.,0.,0.));
#426=CARTESIAN_POINT('',(0.,0.,0.));
#427=CARTESIAN_POINT('',(0.,0.,10.));
#428=CARTESIAN_POINT('',(0.,0.,10.));
#429=CARTESIAN_POINT('',(0.,0.,0.));
#430=CARTESIAN_POINT('Origin',(0.,30.,0.));
#431=CARTESIAN_POINT('',(0.,30.,0.));
#432=CARTESIAN_POINT('',(0.,30.,10.));
#433=CARTESIAN_POINT('Origin',(15.,15.,10.));
#434=CARTESIAN_POINT('Origin',(15.,15.,0.));
#435=CARTESIAN_POINT('Origin',(14.7492315175097,0.,0.));
#436=CARTESIAN_POINT('',(14.7492315175097,0.,0.));
#437=CARTESIAN_POINT('',(30.,0.,0.));
#438=CARTESIAN_POINT('',(0.,0.,0.));
#439=CARTESIAN_POINT('',(30.,0.,20.));
#440=CARTESIAN_POINT('',(30.,0.,0.));
#441=CARTESIAN_POINT('',(14.7492315175097,0.,20.));
#442=CARTESIAN_POINT('',(0.,0.,20.));
#443=CARTESIAN_POINT('',(14.7492315175097,0.,0.));
#444=CARTESIAN_POINT('Origin',(14.7492315175097,12.8780459245896,0.));
#445=CARTESIAN_POINT('',(14.7492315175097,12.8780459245896,0.));
#446=CARTESIAN_POINT('',(14.7492315175097,0.,0.));
#447=CARTESIAN_POINT('',(14.7492315175097,12.8780459245896,20.));
#448=CARTESIAN_POINT('',(14.7492315175097,0.,20.));
#449=CARTESIAN_POINT('',(14.7492315175097,12.8780459245896,0.));
#450=CARTESIAN_POINT('Origin',(18.14,15.,0.));
#451=CARTESIAN_POINT('',(14.7492315175097,17.1219540754104,0.));
#452=CARTESIAN_POINT('Origin',(18.14,15.,0.));
#453=CARTESIAN_POINT('',(14.7492315175097,17.1219540754104,20.));
#454=CARTESIAN_POINT('Origin',(18.14,15.,20.));
#455=CARTESIAN_POINT('',(14.7492315175097,17.1219540754104,0.));
#456=CARTESIAN_POINT('Origin',(14.7492315175097,30.0000004470348,0.));
#457=CARTESIAN_POINT('',(14.7492315175097,30.0000004470348,0.));
#458=CARTESIAN_POINT('',(14.7492315175097,0.,0.));
#459=CARTESIAN_POINT('',(14.7492315175097,30.0000004470348,20.));
#460=CARTESIAN_POINT('',(14.7492315175097,0.,20.));
#461=CARTESIAN_POINT('',(14.7492315175097,30.0000004470348,0.));
#462=CARTESIAN_POINT('Origin',(30.,30.,0.));
#463=CARTESIAN_POINT('',(30.,30.,0.));
#464=CARTESIAN_POINT('',(30.,30.,0.));
#465=CARTESIAN_POINT('',(30.,30.,20.));
#466=CARTESIAN_POINT('',(30.,30.,20.));
#467=CARTESIAN_POINT('',(30.,30.,0.));
#468=CARTESIAN_POINT('Origin',(30.,0.,0.));
#469=CARTESIAN_POINT('',(30.,0.,0.));
#470=CARTESIAN_POINT('',(30.,0.,20.));
#471=CARTESIAN_POINT('Origin',(22.3746157587549,15.0000002235174,20.));
#472=CARTESIAN_POINT('Origin',(22.3746157587549,15.0000002235174,0.));
#473=UNCERTAINTY_MEASURE_WITH_UNIT(LENGTH_MEASURE(0.01),#477,
'DISTANCE_ACCURACY_VALUE',
'Maximum model space distance between geometric entities at asserted c
onnectivities');
#474=UNCERTAINTY_MEASURE_WITH_UNIT(LENGTH_MEASURE(0.01),#477,
'DISTANCE_ACCURACY_VALUE',
'Maximum model space distance between geometric entities at asserted c
onnectivities');
#475=(
GEOMETRIC_REPRESENTATION_CONTEXT(3)
GLOBAL_UNCERTAINTY_ASSIGNED_CONTEXT((#473))
GLOBAL_UNIT_ASSIGNED_CONTEXT((#477,#479,#480))
REPRESENTATION_CONTEXT('','3D')
);
#476=(
GEOMETRIC_REPRESENTATION_CONTEXT(3)
GLOBAL_UNCERTAINTY_ASSIGNED_CONTEXT((#474))
GLOBAL_UNIT_ASSIGNED_CONTEXT((#477,#479,#480))
REPRESENTATION_CONTEXT('','3D')
);
#477=(
LENGTH_UNIT()
NAMED_UNIT(*)
SI_UNIT(.MILLI.,.METRE.)
);
#478=(
LENGTH_UNIT()
NAMED_UNIT(*)
SI_UNIT($,.METRE.)
);
#479=(
NAMED_UNIT(*)
PLANE_ANGLE_UNIT()
SI_UNIT($,.RADIAN.)
);
#480=(
NAMED_UNIT(*)
SI_UNIT($,.STERADIAN.)
SOLID_ANGLE_UNIT()
);
#481=SHAPE_DEFINITION_REPRESENTATION(#482,#483);
#482=PRODUCT_DEFINITION_SHAPE('',$,#485);
#483=SHAPE_REPRESENTATION('',(#297),#475);
#484=PRODUCT_DEFINITION_CONTEXT('part definition',#489,'design');
#485=PRODUCT_DEFINITION('2025-12-29-13-48-08-419','Z smooth rod holder',
#486,#484);
#486=PRODUCT_DEFINITION_FORMATION('',$,#491);
#487=PRODUCT_RELATED_PRODUCT_CATEGORY('Z smooth rod holder',
'Z smooth rod holder',(#491));
#488=APPLICATION_PROTOCOL_DEFINITION('international standard',
'automotive_design',2009,#489);
#489=APPLICATION_CONTEXT(
'Core Data for Automotive Mechanical Design Process');
#490=PRODUCT_CONTEXT('part definition',#489,'mechanical');
#491=PRODUCT('2025-12-29-13-48-08-419','Z smooth rod holder',$,(#490));
#492=PRESENTATION_STYLE_ASSIGNMENT((#493));
#493=SURFACE_STYLE_USAGE(.BOTH.,#494);
#494=SURFACE_SIDE_STYLE('',(#495));
#495=SURFACE_STYLE_FILL_AREA(#496);
#496=FILL_AREA_STYLE('Steel - Satin',(#497));
#497=FILL_AREA_STYLE_COLOUR('Steel - Satin',#498);
#498=COLOUR_RGB('Steel - Satin',0.627450980392157,0.627450980392157,0.627450980392157);
ENDSEC;
END-ISO-10303-21;
