ISO-10303-21;
HEADER;
/* Generated by software containing ST-Developer
 * from STEP Tools, Inc. (www.steptools.com) 
 */

FILE_DESCRIPTION(
/* description */ (''),
/* implementation_level */ '2;1');

FILE_NAME(
/* name */ 'Z stepper bracket.step',
/* time_stamp */ '2026-02-18T14:43:00+11:00',
/* author */ (''),
/* organization */ (''),
/* preprocessor_version */ 'ST-DEVELOPER v20.1',
/* originating_system */ 'Autodesk Translation Framework v14.24.0.0',
/* authorisation */ '');

FILE_SCHEMA (('AUTOMOTIVE_DESIGN { 1 0 10303 214 3 1 1 }'));
ENDSEC;

DATA;
#10=MECHANICAL_DESIGN_GEOMETRIC_PRESENTATION_REPRESENTATION('',(#13),#708);
#11=SHAPE_REPRESENTATION_RELATIONSHIP('SRR','None',#714,#12);
#12=ADVANCED_BREP_SHAPE_REPRESENTATION('',(#14),#707);
#13=STYLED_ITEM('',(#723),#14);
#14=MANIFOLD_SOLID_BREP('Body1',#436);
#15=FACE_BOUND('',#67,.T.);
#16=FACE_BOUND('',#68,.T.);
#17=FACE_BOUND('',#69,.T.);
#18=FACE_BOUND('',#70,.T.);
#19=FACE_BOUND('',#71,.T.);
#20=FACE_BOUND('',#74,.T.);
#21=FACE_BOUND('',#75,.T.);
#22=FACE_BOUND('',#76,.T.);
#23=FACE_BOUND('',#77,.T.);
#24=FACE_BOUND('',#78,.T.);
#25=FACE_BOUND('',#83,.T.);
#26=FACE_BOUND('',#87,.T.);
#27=FACE_BOUND('',#92,.T.);
#28=FACE_BOUND('',#94,.T.);
#29=PLANE('',#444);
#30=PLANE('',#452);
#31=PLANE('',#459);
#32=PLANE('',#460);
#33=PLANE('',#461);
#34=PLANE('',#462);
#35=PLANE('',#463);
#36=PLANE('',#464);
#37=PLANE('',#465);
#38=PLANE('',#466);
#39=PLANE('',#467);
#40=PLANE('',#468);
#41=PLANE('',#469);
#42=PLANE('',#472);
#43=FACE_OUTER_BOUND('',#64,.T.);
#44=FACE_OUTER_BOUND('',#65,.T.);
#45=FACE_OUTER_BOUND('',#66,.T.);
#46=FACE_OUTER_BOUND('',#72,.T.);
#47=FACE_OUTER_BOUND('',#73,.T.);
#48=FACE_OUTER_BOUND('',#79,.T.);
#49=FACE_OUTER_BOUND('',#80,.T.);
#50=FACE_OUTER_BOUND('',#81,.T.);
#51=FACE_OUTER_BOUND('',#82,.T.);
#52=FACE_OUTER_BOUND('',#84,.T.);
#53=FACE_OUTER_BOUND('',#85,.T.);
#54=FACE_OUTER_BOUND('',#86,.T.);
#55=FACE_OUTER_BOUND('',#88,.T.);
#56=FACE_OUTER_BOUND('',#89,.T.);
#57=FACE_OUTER_BOUND('',#90,.T.);
#58=FACE_OUTER_BOUND('',#91,.T.);
#59=FACE_OUTER_BOUND('',#93,.T.);
#60=FACE_OUTER_BOUND('',#95,.T.);
#61=FACE_OUTER_BOUND('',#96,.T.);
#62=FACE_OUTER_BOUND('',#97,.T.);
#63=FACE_OUTER_BOUND('',#98,.T.);
#64=EDGE_LOOP('',(#294,#295,#296,#297));
#65=EDGE_LOOP('',(#298,#299,#300,#301));
#66=EDGE_LOOP('',(#302,#303,#304,#305));
#67=EDGE_LOOP('',(#306));
#68=EDGE_LOOP('',(#307));
#69=EDGE_LOOP('',(#308));
#70=EDGE_LOOP('',(#309));
#71=EDGE_LOOP('',(#310));
#72=EDGE_LOOP('',(#311,#312,#313,#314));
#73=EDGE_LOOP('',(#315,#316,#317,#318));
#74=EDGE_LOOP('',(#319));
#75=EDGE_LOOP('',(#320));
#76=EDGE_LOOP('',(#321));
#77=EDGE_LOOP('',(#322));
#78=EDGE_LOOP('',(#323));
#79=EDGE_LOOP('',(#324,#325,#326,#327));
#80=EDGE_LOOP('',(#328,#329,#330,#331));
#81=EDGE_LOOP('',(#332,#333,#334,#335));
#82=EDGE_LOOP('',(#336,#337,#338,#339));
#83=EDGE_LOOP('',(#340));
#84=EDGE_LOOP('',(#341,#342,#343,#344));
#85=EDGE_LOOP('',(#345,#346,#347,#348));
#86=EDGE_LOOP('',(#349,#350,#351,#352));
#87=EDGE_LOOP('',(#353));
#88=EDGE_LOOP('',(#354,#355,#356,#357,#358,#359,#360,#361,#362,#363,#364,
#365));
#89=EDGE_LOOP('',(#366,#367,#368,#369,#370,#371,#372,#373,#374,#375,#376,
#377));
#90=EDGE_LOOP('',(#378,#379,#380,#381));
#91=EDGE_LOOP('',(#382,#383,#384,#385));
#92=EDGE_LOOP('',(#386));
#93=EDGE_LOOP('',(#387,#388,#389,#390));
#94=EDGE_LOOP('',(#391));
#95=EDGE_LOOP('',(#392,#393,#394,#395));
#96=EDGE_LOOP('',(#396,#397,#398,#399));
#97=EDGE_LOOP('',(#400,#401,#402,#403));
#98=EDGE_LOOP('',(#404,#405,#406,#407));
#99=LINE('',#593,#142);
#100=LINE('',#599,#143);
#101=LINE('',#604,#144);
#102=LINE('',#606,#145);
#103=LINE('',#608,#146);
#104=LINE('',#609,#147);
#105=LINE('',#623,#148);
#106=LINE('',#627,#149);
#107=LINE('',#629,#150);
#108=LINE('',#631,#151);
#109=LINE('',#632,#152);
#110=LINE('',#642,#153);
#111=LINE('',#644,#154);
#112=LINE('',#648,#155);
#113=LINE('',#650,#156);
#114=LINE('',#652,#157);
#115=LINE('',#653,#158);
#116=LINE('',#656,#159);
#117=LINE('',#658,#160);
#118=LINE('',#659,#161);
#119=LINE('',#661,#162);
#120=LINE('',#662,#163);
#121=LINE('',#665,#164);
#122=LINE('',#667,#165);
#123=LINE('',#668,#166);
#124=LINE('',#670,#167);
#125=LINE('',#671,#168);
#126=LINE('',#674,#169);
#127=LINE('',#676,#170);
#128=LINE('',#678,#171);
#129=LINE('',#680,#172);
#130=LINE('',#681,#173);
#131=LINE('',#684,#174);
#132=LINE('',#686,#175);
#133=LINE('',#688,#176);
#134=LINE('',#690,#177);
#135=LINE('',#691,#178);
#136=LINE('',#693,#179);
#137=LINE('',#694,#180);
#138=LINE('',#696,#181);
#139=LINE('',#698,#182);
#140=LINE('',#701,#183);
#141=LINE('',#703,#184);
#142=VECTOR('',#479,2.75);
#143=VECTOR('',#486,2.75);
#144=VECTOR('',#491,10.);
#145=VECTOR('',#492,10.);
#146=VECTOR('',#493,10.);
#147=VECTOR('',#494,10.);
#148=VECTOR('',#509,11.05);
#149=VECTOR('',#512,10.);
#150=VECTOR('',#513,10.);
#151=VECTOR('',#514,10.);
#152=VECTOR('',#515,10.);
#153=VECTOR('',#526,1.75);
#154=VECTOR('',#529,1.75);
#155=VECTOR('',#532,10.);
#156=VECTOR('',#533,10.);
#157=VECTOR('',#534,10.);
#158=VECTOR('',#535,10.);
#159=VECTOR('',#538,10.);
#160=VECTOR('',#539,10.);
#161=VECTOR('',#540,10.);
#162=VECTOR('',#543,10.);
#163=VECTOR('',#544,10.);
#164=VECTOR('',#547,10.);
#165=VECTOR('',#548,10.);
#166=VECTOR('',#549,10.);
#167=VECTOR('',#552,10.);
#168=VECTOR('',#553,10.);
#169=VECTOR('',#556,10.);
#170=VECTOR('',#557,10.);
#171=VECTOR('',#558,10.);
#172=VECTOR('',#559,10.);
#173=VECTOR('',#560,10.);
#174=VECTOR('',#563,10.);
#175=VECTOR('',#564,10.);
#176=VECTOR('',#565,10.);
#177=VECTOR('',#566,10.);
#178=VECTOR('',#567,10.);
#179=VECTOR('',#570,10.);
#180=VECTOR('',#571,10.);
#181=VECTOR('',#574,10.);
#182=VECTOR('',#577,10.);
#183=VECTOR('',#582,1.75);
#184=VECTOR('',#585,1.75);
#185=CIRCLE('',#439,2.75);
#186=CIRCLE('',#440,2.75);
#187=CIRCLE('',#442,2.75);
#188=CIRCLE('',#443,2.75);
#189=CIRCLE('',#445,1.75);
#190=CIRCLE('',#446,1.75);
#191=CIRCLE('',#447,11.05);
#192=CIRCLE('',#448,1.75);
#193=CIRCLE('',#449,1.75);
#194=CIRCLE('',#451,11.05);
#195=CIRCLE('',#453,1.75);
#196=CIRCLE('',#454,1.75);
#197=CIRCLE('',#455,1.75);
#198=CIRCLE('',#456,1.75);
#199=VERTEX_POINT('',#590);
#200=VERTEX_POINT('',#592);
#201=VERTEX_POINT('',#596);
#202=VERTEX_POINT('',#598);
#203=VERTEX_POINT('',#602);
#204=VERTEX_POINT('',#603);
#205=VERTEX_POINT('',#605);
#206=VERTEX_POINT('',#607);
#207=VERTEX_POINT('',#610);
#208=VERTEX_POINT('',#612);
#209=VERTEX_POINT('',#614);
#210=VERTEX_POINT('',#616);
#211=VERTEX_POINT('',#618);
#212=VERTEX_POINT('',#621);
#213=VERTEX_POINT('',#625);
#214=VERTEX_POINT('',#626);
#215=VERTEX_POINT('',#628);
#216=VERTEX_POINT('',#630);
#217=VERTEX_POINT('',#633);
#218=VERTEX_POINT('',#635);
#219=VERTEX_POINT('',#637);
#220=VERTEX_POINT('',#639);
#221=VERTEX_POINT('',#646);
#222=VERTEX_POINT('',#647);
#223=VERTEX_POINT('',#649);
#224=VERTEX_POINT('',#651);
#225=VERTEX_POINT('',#655);
#226=VERTEX_POINT('',#657);
#227=VERTEX_POINT('',#664);
#228=VERTEX_POINT('',#666);
#229=VERTEX_POINT('',#673);
#230=VERTEX_POINT('',#675);
#231=VERTEX_POINT('',#677);
#232=VERTEX_POINT('',#679);
#233=VERTEX_POINT('',#683);
#234=VERTEX_POINT('',#685);
#235=VERTEX_POINT('',#687);
#236=VERTEX_POINT('',#689);
#237=EDGE_CURVE('',#199,#199,#185,.T.);
#238=EDGE_CURVE('',#199,#200,#99,.T.);
#239=EDGE_CURVE('',#200,#200,#186,.T.);
#240=EDGE_CURVE('',#201,#201,#187,.T.);
#241=EDGE_CURVE('',#201,#202,#100,.T.);
#242=EDGE_CURVE('',#202,#202,#188,.T.);
#243=EDGE_CURVE('',#203,#204,#101,.T.);
#244=EDGE_CURVE('',#205,#203,#102,.T.);
#245=EDGE_CURVE('',#206,#205,#103,.T.);
#246=EDGE_CURVE('',#204,#206,#104,.T.);
#247=EDGE_CURVE('',#207,#207,#189,.T.);
#248=EDGE_CURVE('',#208,#208,#190,.T.);
#249=EDGE_CURVE('',#209,#209,#191,.T.);
#250=EDGE_CURVE('',#210,#210,#192,.T.);
#251=EDGE_CURVE('',#211,#211,#193,.T.);
#252=EDGE_CURVE('',#212,#212,#194,.T.);
#253=EDGE_CURVE('',#212,#209,#105,.T.);
#254=EDGE_CURVE('',#213,#214,#106,.T.);
#255=EDGE_CURVE('',#213,#215,#107,.T.);
#256=EDGE_CURVE('',#216,#215,#108,.T.);
#257=EDGE_CURVE('',#216,#214,#109,.T.);
#258=EDGE_CURVE('',#217,#217,#195,.T.);
#259=EDGE_CURVE('',#218,#218,#196,.T.);
#260=EDGE_CURVE('',#219,#219,#197,.T.);
#261=EDGE_CURVE('',#220,#220,#198,.T.);
#262=EDGE_CURVE('',#220,#211,#110,.T.);
#263=EDGE_CURVE('',#219,#210,#111,.T.);
#264=EDGE_CURVE('',#221,#222,#112,.T.);
#265=EDGE_CURVE('',#221,#223,#113,.T.);
#266=EDGE_CURVE('',#224,#223,#114,.T.);
#267=EDGE_CURVE('',#222,#224,#115,.T.);
#268=EDGE_CURVE('',#222,#225,#116,.T.);
#269=EDGE_CURVE('',#226,#224,#117,.T.);
#270=EDGE_CURVE('',#225,#226,#118,.T.);
#271=EDGE_CURVE('',#225,#216,#119,.T.);
#272=EDGE_CURVE('',#214,#226,#120,.T.);
#273=EDGE_CURVE('',#205,#227,#121,.T.);
#274=EDGE_CURVE('',#228,#203,#122,.T.);
#275=EDGE_CURVE('',#227,#228,#123,.T.);
#276=EDGE_CURVE('',#227,#221,#124,.T.);
#277=EDGE_CURVE('',#223,#228,#125,.T.);
#278=EDGE_CURVE('',#229,#204,#126,.T.);
#279=EDGE_CURVE('',#229,#230,#127,.T.);
#280=EDGE_CURVE('',#230,#231,#128,.T.);
#281=EDGE_CURVE('',#231,#232,#129,.T.);
#282=EDGE_CURVE('',#232,#213,#130,.T.);
#283=EDGE_CURVE('',#215,#233,#131,.T.);
#284=EDGE_CURVE('',#234,#233,#132,.T.);
#285=EDGE_CURVE('',#235,#234,#133,.T.);
#286=EDGE_CURVE('',#235,#236,#134,.T.);
#287=EDGE_CURVE('',#206,#236,#135,.T.);
#288=EDGE_CURVE('',#234,#231,#136,.T.);
#289=EDGE_CURVE('',#235,#230,#137,.T.);
#290=EDGE_CURVE('',#232,#233,#138,.T.);
#291=EDGE_CURVE('',#236,#229,#139,.T.);
#292=EDGE_CURVE('',#218,#207,#140,.T.);
#293=EDGE_CURVE('',#217,#208,#141,.T.);
#294=ORIENTED_EDGE('',*,*,#237,.F.);
#295=ORIENTED_EDGE('',*,*,#238,.T.);
#296=ORIENTED_EDGE('',*,*,#239,.F.);
#297=ORIENTED_EDGE('',*,*,#238,.F.);
#298=ORIENTED_EDGE('',*,*,#240,.F.);
#299=ORIENTED_EDGE('',*,*,#241,.T.);
#300=ORIENTED_EDGE('',*,*,#242,.F.);
#301=ORIENTED_EDGE('',*,*,#241,.F.);
#302=ORIENTED_EDGE('',*,*,#243,.F.);
#303=ORIENTED_EDGE('',*,*,#244,.F.);
#304=ORIENTED_EDGE('',*,*,#245,.F.);
#305=ORIENTED_EDGE('',*,*,#246,.F.);
#306=ORIENTED_EDGE('',*,*,#247,.T.);
#307=ORIENTED_EDGE('',*,*,#248,.T.);
#308=ORIENTED_EDGE('',*,*,#249,.T.);
#309=ORIENTED_EDGE('',*,*,#250,.T.);
#310=ORIENTED_EDGE('',*,*,#251,.T.);
#311=ORIENTED_EDGE('',*,*,#252,.F.);
#312=ORIENTED_EDGE('',*,*,#253,.T.);
#313=ORIENTED_EDGE('',*,*,#249,.F.);
#314=ORIENTED_EDGE('',*,*,#253,.F.);
#315=ORIENTED_EDGE('',*,*,#254,.F.);
#316=ORIENTED_EDGE('',*,*,#255,.T.);
#317=ORIENTED_EDGE('',*,*,#256,.F.);
#318=ORIENTED_EDGE('',*,*,#257,.T.);
#319=ORIENTED_EDGE('',*,*,#258,.T.);
#320=ORIENTED_EDGE('',*,*,#259,.T.);
#321=ORIENTED_EDGE('',*,*,#252,.T.);
#322=ORIENTED_EDGE('',*,*,#260,.T.);
#323=ORIENTED_EDGE('',*,*,#261,.T.);
#324=ORIENTED_EDGE('',*,*,#261,.F.);
#325=ORIENTED_EDGE('',*,*,#262,.T.);
#326=ORIENTED_EDGE('',*,*,#251,.F.);
#327=ORIENTED_EDGE('',*,*,#262,.F.);
#328=ORIENTED_EDGE('',*,*,#260,.F.);
#329=ORIENTED_EDGE('',*,*,#263,.T.);
#330=ORIENTED_EDGE('',*,*,#250,.F.);
#331=ORIENTED_EDGE('',*,*,#263,.F.);
#332=ORIENTED_EDGE('',*,*,#264,.F.);
#333=ORIENTED_EDGE('',*,*,#265,.T.);
#334=ORIENTED_EDGE('',*,*,#266,.F.);
#335=ORIENTED_EDGE('',*,*,#267,.F.);
#336=ORIENTED_EDGE('',*,*,#268,.F.);
#337=ORIENTED_EDGE('',*,*,#267,.T.);
#338=ORIENTED_EDGE('',*,*,#269,.F.);
#339=ORIENTED_EDGE('',*,*,#270,.F.);
#340=ORIENTED_EDGE('',*,*,#237,.T.);
#341=ORIENTED_EDGE('',*,*,#271,.F.);
#342=ORIENTED_EDGE('',*,*,#270,.T.);
#343=ORIENTED_EDGE('',*,*,#272,.F.);
#344=ORIENTED_EDGE('',*,*,#257,.F.);
#345=ORIENTED_EDGE('',*,*,#273,.F.);
#346=ORIENTED_EDGE('',*,*,#244,.T.);
#347=ORIENTED_EDGE('',*,*,#274,.F.);
#348=ORIENTED_EDGE('',*,*,#275,.F.);
#349=ORIENTED_EDGE('',*,*,#276,.F.);
#350=ORIENTED_EDGE('',*,*,#275,.T.);
#351=ORIENTED_EDGE('',*,*,#277,.F.);
#352=ORIENTED_EDGE('',*,*,#265,.F.);
#353=ORIENTED_EDGE('',*,*,#239,.T.);
#354=ORIENTED_EDGE('',*,*,#243,.T.);
#355=ORIENTED_EDGE('',*,*,#278,.F.);
#356=ORIENTED_EDGE('',*,*,#279,.T.);
#357=ORIENTED_EDGE('',*,*,#280,.T.);
#358=ORIENTED_EDGE('',*,*,#281,.T.);
#359=ORIENTED_EDGE('',*,*,#282,.T.);
#360=ORIENTED_EDGE('',*,*,#254,.T.);
#361=ORIENTED_EDGE('',*,*,#272,.T.);
#362=ORIENTED_EDGE('',*,*,#269,.T.);
#363=ORIENTED_EDGE('',*,*,#266,.T.);
#364=ORIENTED_EDGE('',*,*,#277,.T.);
#365=ORIENTED_EDGE('',*,*,#274,.T.);
#366=ORIENTED_EDGE('',*,*,#256,.T.);
#367=ORIENTED_EDGE('',*,*,#283,.T.);
#368=ORIENTED_EDGE('',*,*,#284,.F.);
#369=ORIENTED_EDGE('',*,*,#285,.F.);
#370=ORIENTED_EDGE('',*,*,#286,.T.);
#371=ORIENTED_EDGE('',*,*,#287,.F.);
#372=ORIENTED_EDGE('',*,*,#245,.T.);
#373=ORIENTED_EDGE('',*,*,#273,.T.);
#374=ORIENTED_EDGE('',*,*,#276,.T.);
#375=ORIENTED_EDGE('',*,*,#264,.T.);
#376=ORIENTED_EDGE('',*,*,#268,.T.);
#377=ORIENTED_EDGE('',*,*,#271,.T.);
#378=ORIENTED_EDGE('',*,*,#285,.T.);
#379=ORIENTED_EDGE('',*,*,#288,.T.);
#380=ORIENTED_EDGE('',*,*,#280,.F.);
#381=ORIENTED_EDGE('',*,*,#289,.F.);
#382=ORIENTED_EDGE('',*,*,#284,.T.);
#383=ORIENTED_EDGE('',*,*,#290,.F.);
#384=ORIENTED_EDGE('',*,*,#281,.F.);
#385=ORIENTED_EDGE('',*,*,#288,.F.);
#386=ORIENTED_EDGE('',*,*,#240,.T.);
#387=ORIENTED_EDGE('',*,*,#291,.F.);
#388=ORIENTED_EDGE('',*,*,#286,.F.);
#389=ORIENTED_EDGE('',*,*,#289,.T.);
#390=ORIENTED_EDGE('',*,*,#279,.F.);
#391=ORIENTED_EDGE('',*,*,#242,.T.);
#392=ORIENTED_EDGE('',*,*,#290,.T.);
#393=ORIENTED_EDGE('',*,*,#283,.F.);
#394=ORIENTED_EDGE('',*,*,#255,.F.);
#395=ORIENTED_EDGE('',*,*,#282,.F.);
#396=ORIENTED_EDGE('',*,*,#259,.F.);
#397=ORIENTED_EDGE('',*,*,#292,.T.);
#398=ORIENTED_EDGE('',*,*,#247,.F.);
#399=ORIENTED_EDGE('',*,*,#292,.F.);
#400=ORIENTED_EDGE('',*,*,#258,.F.);
#401=ORIENTED_EDGE('',*,*,#293,.T.);
#402=ORIENTED_EDGE('',*,*,#248,.F.);
#403=ORIENTED_EDGE('',*,*,#293,.F.);
#404=ORIENTED_EDGE('',*,*,#291,.T.);
#405=ORIENTED_EDGE('',*,*,#278,.T.);
#406=ORIENTED_EDGE('',*,*,#246,.T.);
#407=ORIENTED_EDGE('',*,*,#287,.T.);
#408=CYLINDRICAL_SURFACE('',#438,2.75);
#409=CYLINDRICAL_SURFACE('',#441,2.75);
#410=CYLINDRICAL_SURFACE('',#450,11.05);
#411=CYLINDRICAL_SURFACE('',#457,1.75);
#412=CYLINDRICAL_SURFACE('',#458,1.75);
#413=CYLINDRICAL_SURFACE('',#470,1.75);
#414=CYLINDRICAL_SURFACE('',#471,1.75);
#415=ADVANCED_FACE('',(#43),#408,.F.);
#416=ADVANCED_FACE('',(#44),#409,.F.);
#417=ADVANCED_FACE('',(#45,#15,#16,#17,#18,#19),#29,.T.);
#418=ADVANCED_FACE('',(#46),#410,.F.);
#419=ADVANCED_FACE('',(#47,#20,#21,#22,#23,#24),#30,.T.);
#420=ADVANCED_FACE('',(#48),#411,.F.);
#421=ADVANCED_FACE('',(#49),#412,.F.);
#422=ADVANCED_FACE('',(#50),#31,.T.);
#423=ADVANCED_FACE('',(#51,#25),#32,.T.);
#424=ADVANCED_FACE('',(#52),#33,.T.);
#425=ADVANCED_FACE('',(#53),#34,.T.);
#426=ADVANCED_FACE('',(#54,#26),#35,.T.);
#427=ADVANCED_FACE('',(#55),#36,.F.);
#428=ADVANCED_FACE('',(#56),#37,.T.);
#429=ADVANCED_FACE('',(#57),#38,.T.);
#430=ADVANCED_FACE('',(#58,#27),#39,.T.);
#431=ADVANCED_FACE('',(#59,#28),#40,.F.);
#432=ADVANCED_FACE('',(#60),#41,.T.);
#433=ADVANCED_FACE('',(#61),#413,.F.);
#434=ADVANCED_FACE('',(#62),#414,.F.);
#435=ADVANCED_FACE('',(#63),#42,.T.);
#436=CLOSED_SHELL('',(#415,#416,#417,#418,#419,#420,#421,#422,#423,#424,
#425,#426,#427,#428,#429,#430,#431,#432,#433,#434,#435));
#437=AXIS2_PLACEMENT_3D('',#588,#473,#474);
#438=AXIS2_PLACEMENT_3D('',#589,#475,#476);
#439=AXIS2_PLACEMENT_3D('',#591,#477,#478);
#440=AXIS2_PLACEMENT_3D('',#594,#480,#481);
#441=AXIS2_PLACEMENT_3D('',#595,#482,#483);
#442=AXIS2_PLACEMENT_3D('',#597,#484,#485);
#443=AXIS2_PLACEMENT_3D('',#600,#487,#488);
#444=AXIS2_PLACEMENT_3D('',#601,#489,#490);
#445=AXIS2_PLACEMENT_3D('',#611,#495,#496);
#446=AXIS2_PLACEMENT_3D('',#613,#497,#498);
#447=AXIS2_PLACEMENT_3D('',#615,#499,#500);
#448=AXIS2_PLACEMENT_3D('',#617,#501,#502);
#449=AXIS2_PLACEMENT_3D('',#619,#503,#504);
#450=AXIS2_PLACEMENT_3D('',#620,#505,#506);
#451=AXIS2_PLACEMENT_3D('',#622,#507,#508);
#452=AXIS2_PLACEMENT_3D('',#624,#510,#511);
#453=AXIS2_PLACEMENT_3D('',#634,#516,#517);
#454=AXIS2_PLACEMENT_3D('',#636,#518,#519);
#455=AXIS2_PLACEMENT_3D('',#638,#520,#521);
#456=AXIS2_PLACEMENT_3D('',#640,#522,#523);
#457=AXIS2_PLACEMENT_3D('',#641,#524,#525);
#458=AXIS2_PLACEMENT_3D('',#643,#527,#528);
#459=AXIS2_PLACEMENT_3D('',#645,#530,#531);
#460=AXIS2_PLACEMENT_3D('',#654,#536,#537);
#461=AXIS2_PLACEMENT_3D('',#660,#541,#542);
#462=AXIS2_PLACEMENT_3D('',#663,#545,#546);
#463=AXIS2_PLACEMENT_3D('',#669,#550,#551);
#464=AXIS2_PLACEMENT_3D('',#672,#554,#555);
#465=AXIS2_PLACEMENT_3D('',#682,#561,#562);
#466=AXIS2_PLACEMENT_3D('',#692,#568,#569);
#467=AXIS2_PLACEMENT_3D('',#695,#572,#573);
#468=AXIS2_PLACEMENT_3D('',#697,#575,#576);
#469=AXIS2_PLACEMENT_3D('',#699,#578,#579);
#470=AXIS2_PLACEMENT_3D('',#700,#580,#581);
#471=AXIS2_PLACEMENT_3D('',#702,#583,#584);
#472=AXIS2_PLACEMENT_3D('',#704,#586,#587);
#473=DIRECTION('axis',(0.,0.,1.));
#474=DIRECTION('refdir',(1.,0.,0.));
#475=DIRECTION('center_axis',(0.,0.,-1.));
#476=DIRECTION('ref_axis',(-1.,1.28292706084425E-47,0.));
#477=DIRECTION('center_axis',(0.,0.,-1.));
#478=DIRECTION('ref_axis',(-1.,1.28292706084425E-47,0.));
#479=DIRECTION('',(0.,0.,-1.));
#480=DIRECTION('center_axis',(0.,0.,1.));
#481=DIRECTION('ref_axis',(-1.,1.28292706084425E-47,0.));
#482=DIRECTION('center_axis',(0.,0.,-1.));
#483=DIRECTION('ref_axis',(-1.,1.28292706084425E-47,0.));
#484=DIRECTION('center_axis',(0.,0.,-1.));
#485=DIRECTION('ref_axis',(-1.,1.28292706084425E-47,0.));
#486=DIRECTION('',(0.,0.,-1.));
#487=DIRECTION('center_axis',(0.,0.,1.));
#488=DIRECTION('ref_axis',(-1.,1.28292706084425E-47,0.));
#489=DIRECTION('center_axis',(0.,0.,-1.));
#490=DIRECTION('ref_axis',(0.,1.,0.));
#491=DIRECTION('',(0.,-1.,0.));
#492=DIRECTION('',(-1.,0.,0.));
#493=DIRECTION('',(0.,1.,0.));
#494=DIRECTION('',(1.,0.,0.));
#495=DIRECTION('center_axis',(0.,0.,1.));
#496=DIRECTION('ref_axis',(-1.,0.,0.));
#497=DIRECTION('center_axis',(0.,0.,1.));
#498=DIRECTION('ref_axis',(-1.,0.,0.));
#499=DIRECTION('center_axis',(0.,0.,1.));
#500=DIRECTION('ref_axis',(-1.,0.,0.));
#501=DIRECTION('center_axis',(0.,0.,1.));
#502=DIRECTION('ref_axis',(-1.,0.,0.));
#503=DIRECTION('center_axis',(0.,0.,1.));
#504=DIRECTION('ref_axis',(-1.,0.,0.));
#505=DIRECTION('center_axis',(0.,0.,-1.));
#506=DIRECTION('ref_axis',(-1.,0.,0.));
#507=DIRECTION('center_axis',(0.,0.,-1.));
#508=DIRECTION('ref_axis',(-1.,0.,0.));
#509=DIRECTION('',(0.,0.,-1.));
#510=DIRECTION('center_axis',(0.,0.,1.));
#511=DIRECTION('ref_axis',(0.,-1.,0.));
#512=DIRECTION('',(0.,1.,0.));
#513=DIRECTION('',(1.,0.,0.));
#514=DIRECTION('',(0.,-1.,0.));
#515=DIRECTION('',(-1.,0.,0.));
#516=DIRECTION('center_axis',(0.,0.,-1.));
#517=DIRECTION('ref_axis',(-1.,0.,0.));
#518=DIRECTION('center_axis',(0.,0.,-1.));
#519=DIRECTION('ref_axis',(-1.,0.,0.));
#520=DIRECTION('center_axis',(0.,0.,-1.));
#521=DIRECTION('ref_axis',(-1.,0.,0.));
#522=DIRECTION('center_axis',(0.,0.,-1.));
#523=DIRECTION('ref_axis',(-1.,0.,0.));
#524=DIRECTION('center_axis',(0.,0.,-1.));
#525=DIRECTION('ref_axis',(-1.,0.,0.));
#526=DIRECTION('',(0.,0.,-1.));
#527=DIRECTION('center_axis',(0.,0.,-1.));
#528=DIRECTION('ref_axis',(-1.,0.,0.));
#529=DIRECTION('',(0.,0.,-1.));
#530=DIRECTION('center_axis',(0.,1.,0.));
#531=DIRECTION('ref_axis',(0.,0.,-1.));
#532=DIRECTION('',(0.,0.,1.));
#533=DIRECTION('',(-1.,0.,0.));
#534=DIRECTION('',(0.,0.,-1.));
#535=DIRECTION('',(-1.,0.,0.));
#536=DIRECTION('center_axis',(0.,0.,1.));
#537=DIRECTION('ref_axis',(0.,1.,0.));
#538=DIRECTION('',(0.,-1.,0.));
#539=DIRECTION('',(0.,1.,0.));
#540=DIRECTION('',(-1.,0.,0.));
#541=DIRECTION('center_axis',(0.,1.,0.));
#542=DIRECTION('ref_axis',(0.,0.,-1.));
#543=DIRECTION('',(0.,0.,1.));
#544=DIRECTION('',(0.,0.,-1.));
#545=DIRECTION('center_axis',(0.,-1.,0.));
#546=DIRECTION('ref_axis',(0.,0.,1.));
#547=DIRECTION('',(0.,0.,-1.));
#548=DIRECTION('',(0.,0.,1.));
#549=DIRECTION('',(-1.,0.,0.));
#550=DIRECTION('center_axis',(0.,0.,-1.));
#551=DIRECTION('ref_axis',(0.,-1.,0.));
#552=DIRECTION('',(0.,1.,0.));
#553=DIRECTION('',(0.,-1.,0.));
#554=DIRECTION('center_axis',(1.,0.,0.));
#555=DIRECTION('ref_axis',(0.,1.,0.));
#556=DIRECTION('',(0.,0.,1.));
#557=DIRECTION('',(0.,-1.,0.));
#558=DIRECTION('',(0.,0.,1.));
#559=DIRECTION('',(0.,1.,0.));
#560=DIRECTION('',(0.,0.,1.));
#561=DIRECTION('center_axis',(1.,0.,0.));
#562=DIRECTION('ref_axis',(0.,0.,-1.));
#563=DIRECTION('',(0.,0.,-1.));
#564=DIRECTION('',(0.,1.,0.));
#565=DIRECTION('',(0.,0.,1.));
#566=DIRECTION('',(0.,1.,0.));
#567=DIRECTION('',(0.,0.,-1.));
#568=DIRECTION('center_axis',(0.,-1.,0.));
#569=DIRECTION('ref_axis',(0.,0.,1.));
#570=DIRECTION('',(-1.,0.,0.));
#571=DIRECTION('',(-1.,0.,0.));
#572=DIRECTION('center_axis',(0.,0.,1.));
#573=DIRECTION('ref_axis',(0.,1.,0.));
#574=DIRECTION('',(1.,0.,0.));
#575=DIRECTION('center_axis',(0.,0.,1.));
#576=DIRECTION('ref_axis',(0.,1.,0.));
#577=DIRECTION('',(-1.,0.,0.));
#578=DIRECTION('center_axis',(0.,-1.,0.));
#579=DIRECTION('ref_axis',(0.,0.,-1.));
#580=DIRECTION('center_axis',(0.,0.,-1.));
#581=DIRECTION('ref_axis',(-1.,0.,0.));
#582=DIRECTION('',(0.,0.,-1.));
#583=DIRECTION('center_axis',(0.,0.,-1.));
#584=DIRECTION('ref_axis',(-1.,0.,0.));
#585=DIRECTION('',(0.,0.,-1.));
#586=DIRECTION('center_axis',(0.,1.,0.));
#587=DIRECTION('ref_axis',(0.,0.,1.));
#588=CARTESIAN_POINT('',(0.,0.,0.));
#589=CARTESIAN_POINT('Origin',(10.9737284678381,80.0000011920929,-9.50000029057264));
#590=CARTESIAN_POINT('',(13.7237284678381,80.0000011920929,-9.50000029057264));
#591=CARTESIAN_POINT('Origin',(10.9737284678381,80.0000011920929,-9.50000029057264));
#592=CARTESIAN_POINT('',(13.7237284678381,80.0000011920929,-19.5000002905726));
#593=CARTESIAN_POINT('',(13.7237284678381,80.0000011920929,-9.50000029057264));
#594=CARTESIAN_POINT('Origin',(10.9737284678381,80.0000011920929,-19.5000002905726));
#595=CARTESIAN_POINT('Origin',(10.9737284678377,-10.0000011920928,-9.50000029057264));
#596=CARTESIAN_POINT('',(13.7237284678377,-10.0000011920928,-9.50000029057264));
#597=CARTESIAN_POINT('Origin',(10.9737284678377,-10.0000011920928,-9.50000029057264));
#598=CARTESIAN_POINT('',(13.7237284678377,-10.0000011920928,-19.5000002905726));
#599=CARTESIAN_POINT('',(13.7237284678377,-10.0000011920928,-9.50000029057264));
#600=CARTESIAN_POINT('Origin',(10.9737284678377,-10.0000011920928,-19.5000002905726));
#601=CARTESIAN_POINT('Origin',(0.,10.,20.));
#602=CARTESIAN_POINT('',(0.,60.,20.));
#603=CARTESIAN_POINT('',(0.,10.,20.));
#604=CARTESIAN_POINT('',(0.,60.,20.));
#605=CARTESIAN_POINT('',(50.,60.,20.));
#606=CARTESIAN_POINT('',(50.,60.,20.));
#607=CARTESIAN_POINT('',(50.,10.,20.));
#608=CARTESIAN_POINT('',(50.,60.,20.));
#609=CARTESIAN_POINT('',(0.,10.,20.));
#610=CARTESIAN_POINT('',(42.25,19.5,20.));
#611=CARTESIAN_POINT('Origin',(40.5,19.5,20.));
#612=CARTESIAN_POINT('',(11.25,19.5,20.));
#613=CARTESIAN_POINT('Origin',(9.5,19.5,20.));
#614=CARTESIAN_POINT('',(36.05,35.,20.));
#615=CARTESIAN_POINT('Origin',(25.,35.,20.));
#616=CARTESIAN_POINT('',(11.25,50.5,20.));
#617=CARTESIAN_POINT('Origin',(9.5,50.5,20.));
#618=CARTESIAN_POINT('',(42.25,50.5,20.));
#619=CARTESIAN_POINT('Origin',(40.5,50.5,20.));
#620=CARTESIAN_POINT('Origin',(25.,35.,30.));
#621=CARTESIAN_POINT('',(36.05,35.,30.));
#622=CARTESIAN_POINT('Origin',(25.,35.,30.));
#623=CARTESIAN_POINT('',(36.05,35.,30.));
#624=CARTESIAN_POINT('Origin',(0.,60.,30.));
#625=CARTESIAN_POINT('',(0.,0.,30.));
#626=CARTESIAN_POINT('',(0.,70.,30.));
#627=CARTESIAN_POINT('',(0.,0.,30.));
#628=CARTESIAN_POINT('',(50.,0.,30.));
#629=CARTESIAN_POINT('',(0.,0.,30.));
#630=CARTESIAN_POINT('',(50.,70.,30.));
#631=CARTESIAN_POINT('',(50.,0.,30.));
#632=CARTESIAN_POINT('',(50.,70.,30.));
#633=CARTESIAN_POINT('',(11.25,19.5,30.));
#634=CARTESIAN_POINT('Origin',(9.5,19.5,30.));
#635=CARTESIAN_POINT('',(42.25,19.5,30.));
#636=CARTESIAN_POINT('Origin',(40.5,19.5,30.));
#637=CARTESIAN_POINT('',(11.25,50.5,30.));
#638=CARTESIAN_POINT('Origin',(9.5,50.5,30.));
#639=CARTESIAN_POINT('',(42.25,50.5,30.));
#640=CARTESIAN_POINT('Origin',(40.5,50.5,30.));
#641=CARTESIAN_POINT('Origin',(40.5,50.5,30.));
#642=CARTESIAN_POINT('',(42.25,50.5,30.));
#643=CARTESIAN_POINT('Origin',(9.5,50.5,30.));
#644=CARTESIAN_POINT('',(11.25,50.5,30.));
#645=CARTESIAN_POINT('Origin',(50.,90.,-9.50000029057264));
#646=CARTESIAN_POINT('',(50.,90.,-19.5000002905726));
#647=CARTESIAN_POINT('',(50.,90.,-9.50000029057264));
#648=CARTESIAN_POINT('',(50.,90.,-19.5000002905726));
#649=CARTESIAN_POINT('',(0.,90.,-19.5000002905726));
#650=CARTESIAN_POINT('',(50.,90.,-19.5000002905726));
#651=CARTESIAN_POINT('',(0.,90.,-9.50000029057264));
#652=CARTESIAN_POINT('',(0.,90.,-19.5000002905726));
#653=CARTESIAN_POINT('',(50.,90.,-9.50000029057264));
#654=CARTESIAN_POINT('Origin',(50.,70.,-9.50000029057264));
#655=CARTESIAN_POINT('',(50.,70.,-9.50000029057264));
#656=CARTESIAN_POINT('',(50.,90.,-9.50000029057264));
#657=CARTESIAN_POINT('',(0.,70.,-9.50000029057264));
#658=CARTESIAN_POINT('',(0.,90.,-9.50000029057264));
#659=CARTESIAN_POINT('',(50.,70.,-9.50000029057264));
#660=CARTESIAN_POINT('Origin',(50.,70.,30.));
#661=CARTESIAN_POINT('',(50.,70.,-19.5000002905726));
#662=CARTESIAN_POINT('',(0.,70.,-19.5000002905726));
#663=CARTESIAN_POINT('Origin',(50.,60.,-19.5000002905726));
#664=CARTESIAN_POINT('',(50.,60.,-19.5000002905726));
#665=CARTESIAN_POINT('',(50.,60.,30.));
#666=CARTESIAN_POINT('',(0.,60.,-19.5000002905726));
#667=CARTESIAN_POINT('',(0.,60.,30.));
#668=CARTESIAN_POINT('',(50.,60.,-19.5000002905726));
#669=CARTESIAN_POINT('Origin',(50.,90.,-19.5000002905726));
#670=CARTESIAN_POINT('',(50.,60.,-19.5000002905726));
#671=CARTESIAN_POINT('',(0.,60.,-19.5000002905726));
#672=CARTESIAN_POINT('Origin',(0.,30.,15.));
#673=CARTESIAN_POINT('',(0.,10.,-19.5000002905726));
#674=CARTESIAN_POINT('',(0.,10.,-20.));
#675=CARTESIAN_POINT('',(0.,-20.,-19.5000002905726));
#676=CARTESIAN_POINT('',(0.,0.,-19.5000002905726));
#677=CARTESIAN_POINT('',(0.,-20.,-9.50000029057264));
#678=CARTESIAN_POINT('',(0.,-20.,-19.5000002905726));
#679=CARTESIAN_POINT('',(0.,0.,-9.50000029057264));
#680=CARTESIAN_POINT('',(0.,-20.,-9.50000029057264));
#681=CARTESIAN_POINT('',(0.,0.,20.));
#682=CARTESIAN_POINT('Origin',(50.,30.,15.));
#683=CARTESIAN_POINT('',(50.,0.,-9.50000029057264));
#684=CARTESIAN_POINT('',(50.,0.,20.));
#685=CARTESIAN_POINT('',(50.,-20.,-9.50000029057264));
#686=CARTESIAN_POINT('',(50.,-20.,-9.50000029057264));
#687=CARTESIAN_POINT('',(50.,-20.,-19.5000002905726));
#688=CARTESIAN_POINT('',(50.,-20.,-19.5000002905726));
#689=CARTESIAN_POINT('',(50.,10.,-19.5000002905726));
#690=CARTESIAN_POINT('',(50.,13.9999999850988,-19.5000002905726));
#691=CARTESIAN_POINT('',(50.0000007450581,10.,0.));
#692=CARTESIAN_POINT('Origin',(50.,-20.,-19.5000002905726));
#693=CARTESIAN_POINT('',(50.,-20.,-9.50000029057264));
#694=CARTESIAN_POINT('',(50.,-20.,-19.5000002905726));
#695=CARTESIAN_POINT('Origin',(50.,-20.,-9.50000029057264));
#696=CARTESIAN_POINT('',(25.,0.,-9.50000029057264));
#697=CARTESIAN_POINT('Origin',(50.,-2.00000002980232,-19.5000002905726));
#698=CARTESIAN_POINT('',(25.,10.,-19.5000002905726));
#699=CARTESIAN_POINT('Origin',(0.,0.,30.));
#700=CARTESIAN_POINT('Origin',(40.5,19.5,30.));
#701=CARTESIAN_POINT('',(42.25,19.5,30.));
#702=CARTESIAN_POINT('Origin',(9.5,19.5,30.));
#703=CARTESIAN_POINT('',(11.25,19.5,30.));
#704=CARTESIAN_POINT('Origin',(0.,10.,0.));
#705=UNCERTAINTY_MEASURE_WITH_UNIT(LENGTH_MEASURE(0.01),#709,
'DISTANCE_ACCURACY_VALUE',
'Maximum model space distance between geometric entities at asserted c
onnectivities');
#706=UNCERTAINTY_MEASURE_WITH_UNIT(LENGTH_MEASURE(0.01),#709,
'DISTANCE_ACCURACY_VALUE',
'Maximum model space distance between geometric entities at asserted c
onnectivities');
#707=(
GEOMETRIC_REPRESENTATION_CONTEXT(3)
GLOBAL_UNCERTAINTY_ASSIGNED_CONTEXT((#705))
GLOBAL_UNIT_ASSIGNED_CONTEXT((#709,#710,#711))
REPRESENTATION_CONTEXT('','3D')
);
#708=(
GEOMETRIC_REPRESENTATION_CONTEXT(3)
GLOBAL_UNCERTAINTY_ASSIGNED_CONTEXT((#706))
GLOBAL_UNIT_ASSIGNED_CONTEXT((#709,#710,#711))
REPRESENTATION_CONTEXT('','3D')
);
#709=(
LENGTH_UNIT()
NAMED_UNIT(*)
SI_UNIT(.MILLI.,.METRE.)
);
#710=(
NAMED_UNIT(*)
PLANE_ANGLE_UNIT()
SI_UNIT($,.RADIAN.)
);
#711=(
NAMED_UNIT(*)
SI_UNIT($,.STERADIAN.)
SOLID_ANGLE_UNIT()
);
#712=SHAPE_DEFINITION_REPRESENTATION(#713,#714);
#713=PRODUCT_DEFINITION_SHAPE('',$,#716);
#714=SHAPE_REPRESENTATION('',(#437),#707);
#715=PRODUCT_DEFINITION_CONTEXT('part definition',#720,'design');
#716=PRODUCT_DEFINITION('2025-12-24-13-59-38-994','Z stepper bracket',#717,
#715);
#717=PRODUCT_DEFINITION_FORMATION('',$,#722);
#718=PRODUCT_RELATED_PRODUCT_CATEGORY('Z stepper bracket',
'Z stepper bracket',(#722));
#719=APPLICATION_PROTOCOL_DEFINITION('international standard',
'automotive_design',2009,#720);
#720=APPLICATION_CONTEXT(
'Core Data for Automotive Mechanical Design Process');
#721=PRODUCT_CONTEXT('part definition',#720,'mechanical');
#722=PRODUCT('2025-12-24-13-59-38-994','Z stepper bracket',$,(#721));
#723=PRESENTATION_STYLE_ASSIGNMENT((#724));
#724=SURFACE_STYLE_USAGE(.BOTH.,#725);
#725=SURFACE_SIDE_STYLE('',(#726));
#726=SURFACE_STYLE_FILL_AREA(#727);
#727=FILL_AREA_STYLE('Steel - Satin',(#728));
#728=FILL_AREA_STYLE_COLOUR('Steel - Satin',#729);
#729=COLOUR_RGB('Steel - Satin',0.627450980392157,0.627450980392157,0.627450980392157);
ENDSEC;
END-ISO-10303-21;
